<?xml version="1.0" encoding="iso-8859-1"?>
<!-- Generator: Adobe Illustrator 17.1.0, SVG Export Plug-In . SVG Version: 6.00 Build 0)  -->
<!DOCTYPE svg PUBLIC "-//W3C//DTD SVG 1.1//EN" "http://www.w3.org/Graphics/SVG/1.1/DTD/svg11.dtd">
<svg version="1.1" id="Layer_1" xmlns="http://www.w3.org/2000/svg" xmlns:xlink="http://www.w3.org/1999/xlink" x="0px" y="0px"
	 viewBox="-0.062 215.649 954.576 128.701" style="enable-background:new -0.062 215.649 954.576 128.701;" xml:space="preserve">
<g id="center">
</g>
<g id="Layer_5" style="display:none;">
	<rect x="381.5" y="294.672" style="display:inline;" width="40.738" height="13.367"/>
</g>
<g id="Layer_6">
</g>
<g id="Layer_3" style="display:none;">
</g>
<g id="primary">
	<g>
		<g style="enable-background:new    ;">
			<path style="fill:#FFFFFF;" d="M626.527,256.374c5.371,0,10.125,2.376,13.404,6.179l-4.991,4.23
				c-2.091-2.329-5.085-3.755-8.413-3.755c-5.894,0-10.504,4.468-10.504,10.457s4.61,10.409,10.504,10.409
				c3.328,0,6.369-1.426,8.461-3.802l4.991,4.229c-3.28,3.851-8.081,6.227-13.452,6.227c-9.839,0-17.823-7.177-17.823-17.063
				C608.704,263.598,616.688,256.374,626.527,256.374z"/>
		</g>
		<g style="enable-background:new    ;">
			<path style="fill:#FFFFFF;" d="M660.699,256.374c9.84,0,17.682,7.557,17.682,17.159c0,9.648-7.842,17.158-17.682,17.158
				c-9.791,0-17.681-7.51-17.681-17.158C643.019,263.931,650.908,256.374,660.699,256.374z M660.699,284.036
				c5.799,0,10.362-4.658,10.362-10.504c0-5.751-4.516-10.504-10.362-10.504s-10.361,4.706-10.361,10.504
				C650.338,279.474,654.854,284.036,660.699,284.036z"/>
		</g>
		<g style="enable-background:new    ;">
			<path style="fill:#FFFFFF;" d="M684.65,256.896h7.319v26.475h12.929v6.654H684.65V256.896z"/>
		</g>
		<g style="enable-background:new    ;">
			<path style="fill:#FFFFFF;" d="M709.697,256.896h7.319v18.965c0,5.799,2.71,8.032,6.798,8.032c4.04,0,6.749-2.233,6.749-8.032
				v-18.965h7.319v19.726c0,9.364-6.369,13.926-14.068,13.926c-7.748,0-14.117-4.562-14.117-13.926L709.697,256.896L709.697,256.896
				z"/>
			<path style="fill:#FFFFFF;" d="M746.246,256.896h6.131l11.36,16.969l11.36-16.969h6.131v33.129h-6.892v-20.201l-10.6,15.685
				l-10.647-15.685v20.201h-6.844v-33.129H746.246z"/>
			<path style="fill:#FFFFFF;" d="M789.924,256.896h6.512l15.875,20.581v-20.581h7.082v33.129h-5.988l-16.398-21.151v21.151h-7.082
				v-33.129H789.924z"/>
		</g>
		<g style="enable-background:new    ;">
			<path style="fill:#FFFFFF;" d="M850.095,256.896h21.816v6.655h-14.497v6.797h13.214v6.512h-13.214v13.166h-7.319V256.896z"/>
		</g>
		<g style="enable-background:new    ;">
			<path style="fill:#FFFFFF;" d="M878.943,256.896h7.32v33.129h-7.32V256.896z"/>
		</g>
		<g style="enable-background:new    ;">
			<path style="fill:#FFFFFF;" d="M892.108,256.896h7.795l9.031,22.435l8.983-22.435h7.795l-13.546,33.129h-6.465L892.108,256.896z"
				/>
		</g>
		<g style="enable-background:new    ;">
			<path style="fill:#FFFFFF;" d="M931.557,256.896h22.625v6.655h-15.306v6.227h14.307v6.512h-14.307v7.082h15.638v6.654h-22.957
				V256.896z"/>
		</g>
		<g style="enable-background:new    ;">
			<path style="fill:#FFFFFF;" d="M-0.062,264.732h6.574c6.051,0,9.214,3.686,9.214,8.716c0,5.105-3.138,8.641-9.189,8.641h-6.599
				C-0.062,282.089-0.062,264.732-0.062,264.732z M6.288,278.603c4.383,0,5.578-2.291,5.578-5.155c0-2.938-1.195-5.229-5.603-5.229
				h-2.49v10.384H6.288z"/>
			<path style="fill:#FFFFFF;" d="M20.551,264.732h11.854v3.486h-8.019v3.262h7.496v3.412h-7.496v3.71h8.193v3.486H20.551V264.732z"
				/>
			<path style="fill:#FFFFFF;" d="M39.123,276.61c0.822,1.37,2.341,2.291,4.358,2.291c1.917,0,2.59-0.896,2.59-1.718
				c0-1.519-1.942-1.893-4.358-2.789c-2.49-0.896-4.208-2.241-4.208-5.03c0-3.113,2.689-4.906,5.777-4.906
				c2.914,0,4.731,1.37,5.777,2.839l-2.565,1.942c-0.623-0.797-1.619-1.345-3.113-1.345c-1.295,0-2.092,0.598-2.092,1.419
				c0,1.444,1.37,1.494,4.184,2.59c3.138,1.195,4.433,2.665,4.433,5.155c0,3.062-2.042,5.305-6.45,5.305
				c-3.735,0-6.051-1.744-7.122-3.835L39.123,276.61z"/>
			<path style="fill:#FFFFFF;" d="M54.606,264.732h3.835v17.357h-3.835V264.732z"/>
			<path style="fill:#FFFFFF;" d="M72.708,264.458c2.665,0,5.005,1.046,6.724,2.814l-2.59,2.266
				c-1.046-1.046-2.54-1.594-4.134-1.594c-3.088,0-5.503,2.341-5.503,5.479s2.416,5.454,5.503,5.454
				c1.494,0,2.814-0.473,3.785-1.345v-2.341h-4.557v-3.387h8.143v7.022c-1.594,2.117-4.283,3.537-7.371,3.537
				c-5.155,0-9.338-3.761-9.338-8.94S67.553,264.458,72.708,264.458z"/>
			<path style="fill:#FFFFFF;" d="M85.104,264.732h3.412l8.317,10.783v-10.783h3.71v17.357h-3.138l-8.591-11.082v11.082h-3.71
				V264.732z"/>
			<path style="fill:#FFFFFF;" d="M106.165,264.732h11.854v3.486H110v3.262h7.496v3.412H110v3.71h8.193v3.486h-12.028V264.732z"/>
			<path style="fill:#FFFFFF;" d="M123.268,264.732h6.574c6.051,0,9.214,3.686,9.214,8.716c0,5.105-3.138,8.641-9.189,8.641h-6.599
				C123.268,282.089,123.268,264.732,123.268,264.732z M129.618,278.603c4.383,0,5.578-2.291,5.578-5.155
				c0-2.938-1.195-5.229-5.603-5.229h-2.49v10.384H129.618z"/>
			<path style="fill:#FFFFFF;" d="M159.443,264.732h3.412l7.172,17.357h-4.084l-1.17-2.914h-7.247l-1.17,2.914h-4.084
				L159.443,264.732z M163.676,276.112l-2.515-6.3l-2.54,6.3H163.676z"/>
			<path style="fill:#FFFFFF;" d="M174.329,264.732h3.412l8.317,10.783v-10.783h3.71v17.357h-3.138l-8.591-11.082v11.082h-3.71
				V264.732z"/>
			<path style="fill:#FFFFFF;" d="M195.39,264.732h6.574c6.051,0,9.214,3.686,9.214,8.716c0,5.105-3.138,8.641-9.189,8.641h-6.599
				L195.39,264.732L195.39,264.732z M201.74,278.603c4.383,0,5.578-2.291,5.578-5.155c0-2.938-1.195-5.229-5.603-5.229h-2.49v10.384
				H201.74z"/>
			<path style="fill:#FFFFFF;" d="M227.38,264.732h6.898c2.764,0,4.956,1.868,4.956,4.433c0,1.668-0.822,2.988-2.216,3.486
				c2.291,0.398,3.486,2.142,3.486,4.308c0,2.938-2.241,5.13-5.279,5.13h-7.844L227.38,264.732L227.38,264.732z M233.656,271.655
				c1.096,0,1.868-0.772,1.868-1.843c0-1.021-0.772-1.793-1.843-1.793h-2.54v3.636H233.656z M234.453,278.777
				c1.295,0,2.241-0.921,2.241-2.117c0-1.17-0.921-2.042-2.266-2.042h-3.287v4.159H234.453z"/>
			<path style="fill:#FFFFFF;" d="M244.907,264.732h3.835v9.936c0,3.038,1.419,4.208,3.561,4.208c2.117,0,3.536-1.17,3.536-4.208
				v-9.936h3.835v10.334c0,4.906-3.337,7.297-7.371,7.297c-4.059,0-7.396-2.391-7.396-7.297L244.907,264.732L244.907,264.732z"/>
			<path style="fill:#FFFFFF;" d="M265.222,264.732h3.835v17.357h-3.835V264.732z"/>
			<path style="fill:#FFFFFF;" d="M274.806,264.732h3.835v13.871h6.773v3.486h-10.608V264.732z"/>
			<path style="fill:#FFFFFF;" d="M291.387,268.218h-4.707v-3.486h13.173v3.486h-4.632v13.871h-3.835L291.387,268.218
				L291.387,268.218z"/>
			<path style="fill:#FFFFFF;" d="M314.763,264.732h6.898c2.764,0,4.956,1.868,4.956,4.433c0,1.668-0.822,2.988-2.216,3.486
				c2.291,0.398,3.486,2.142,3.486,4.308c0,2.938-2.241,5.13-5.279,5.13h-7.844v-17.357H314.763z M321.039,271.655
				c1.096,0,1.868-0.772,1.868-1.843c0-1.021-0.772-1.793-1.843-1.793h-2.54v3.636H321.039z M321.835,278.777
				c1.295,0,2.241-0.921,2.241-2.117c0-1.17-0.921-2.042-2.266-2.042h-3.287v4.159H321.835z"/>
			<path style="fill:#FFFFFF;" d="M336.349,275.614l-6.375-10.882h4.159l4.134,7.222l4.134-7.222h4.159l-6.375,10.882v6.475h-3.835
				v-6.475H336.349z"/>
		</g>
		<g>
			<path style="fill:#FFFFFF;" d="M531.47,344.35c-4.778,0-9.116-2.963-12.219-8.342l-36.089-62.494l33.419-57.864l5.701,3.293
				l-31.522,54.571l34.186,59.206c1.851,3.209,4.234,5.047,6.525,5.047c2.293,0,4.667-1.838,6.52-5.047l35.137-60.851l5.699,3.291
				l-35.132,60.851C540.582,341.39,536.246,344.35,531.47,344.35z"/>
			<path style="fill:#FFFFFF;" d="M516.23,344.35c-4.771,0-9.118-2.963-12.221-8.345l-36.083-62.492l33.419-57.864l5.699,3.293
				l-31.524,54.571l34.193,59.204c1.847,3.209,4.228,5.049,6.518,5.049L516.23,344.35L516.23,344.35z"/>
			<polygon style="fill:#FFFFFF;" points="531.45,330.843 563.599,275.161 557.907,271.871 527.65,324.262 			"/>
			<polygon style="fill:#FFFFFF;" points="523.832,317.658 548.372,275.161 542.675,271.871 520.032,311.079 			"/>
			<polygon style="fill:#FFFFFF;" points="516.218,304.474 533.147,275.161 527.453,271.871 512.423,297.898 			"/>
			<polygon style="fill:#FFFFFF;" points="508.607,291.289 517.923,275.161 512.221,271.871 504.809,284.714 			"/>
			<path style="fill:#FFFFFF;" d="M501.016,344.35c-4.778,0-9.119-2.963-12.219-8.345l-36.087-62.492l33.417-57.864l5.699,3.293
				l-31.522,54.571l34.186,59.204c1.854,3.209,4.232,5.049,6.527,5.049L501.016,344.35L501.016,344.35z"/>
			<path style="fill:#FFFFFF;" d="M485.789,344.35c-4.778,0-9.116-2.963-12.219-8.345l-36.089-62.492l33.421-57.864l5.699,3.293
				l-31.52,54.571l34.186,59.204c1.849,3.209,4.232,5.049,6.523,5.049v6.584H485.789z"/>
			<path style="fill:#FFFFFF;" d="M470.571,344.35c-4.78,0-9.121-2.963-12.221-8.345l-36.087-62.492l33.419-57.864l5.699,3.293
				l-31.524,54.571l34.188,59.204c1.849,3.209,4.228,5.049,6.525,5.049v6.584L470.571,344.35L470.571,344.35z"/>
		</g>
	</g>
</g>
</svg>
