<?xml version="1.0" encoding="iso-8859-1"?>
<!-- Generator: Adobe Illustrator 17.1.0, SVG Export Plug-In . SVG Version: 6.00 Build 0)  -->
<!DOCTYPE svg PUBLIC "-//W3C//DTD SVG 1.1//EN" "http://www.w3.org/Graphics/SVG/1.1/DTD/svg11.dtd">
<svg version="1.1" xmlns="http://www.w3.org/2000/svg" xmlns:xlink="http://www.w3.org/1999/xlink" x="0px" y="0px"
	 viewBox="0 0 300 187.812" style="enable-background:new 0 0 300 187.812;" xml:space="preserve">
<g id="Layer_1">
	<g>
		<path style="fill:#FFFFFF;" d="M45.442,10.738l1.104-1.985h0.849l-0.784,1.985h0.72v1.889h-1.889V10.738z M48.403,10.738
			l1.104-1.985h0.849l-0.784,1.985h0.72v1.889h-1.889V10.738z"/>
		<path style="fill:#FFFFFF;" d="M52.546,20.47V8.913h5.538v1.729h-3.554v2.978h2.657v1.729h-2.657v5.122H52.546z"/>
		<path style="fill:#FFFFFF;" d="M59.809,8.913h1.985v8.724c0,0.848,0.336,1.264,1.056,1.264c0.721,0,1.057-0.416,1.057-1.264V8.913
			h1.985v8.644c0,1.985-1.153,3.073-3.042,3.073s-3.041-1.088-3.041-3.073V8.913z"/>
		<path style="fill:#FFFFFF;" d="M69.955,20.47h-1.985V8.913h2.785c2.225,0,3.361,0.944,3.361,3.409c0,1.857-0.72,2.609-1.393,2.914
			l1.681,5.234h-2.017l-1.408-4.786c-0.257,0.032-0.673,0.048-1.024,0.048V20.47z M69.955,14.099h0.704
			c1.072,0,1.473-0.4,1.473-1.777c0-1.376-0.4-1.776-1.473-1.776h-0.704V14.099z"/>
		<path style="fill:#FFFFFF;" d="M77.282,10.642h-1.921V8.913h5.827v1.729h-1.921v9.828h-1.985V10.642z"/>
		<path style="fill:#FFFFFF;" d="M82.513,20.47V8.913h1.984v4.706h2.113V8.913h1.984V20.47h-1.984v-5.122h-2.113v5.122H82.513z"/>
		<path style="fill:#FFFFFF;" d="M90.673,20.47V8.913h5.313v1.729h-3.329v2.978h2.562v1.729h-2.562v3.394h3.554v1.729H90.673z"/>
		<path style="fill:#FFFFFF;" d="M99.921,20.47h-1.984V8.913h2.785c2.225,0,3.361,0.944,3.361,3.409
			c0,1.857-0.721,2.609-1.393,2.914l1.681,5.234h-2.018l-1.408-4.786c-0.256,0.032-0.672,0.048-1.024,0.048V20.47z M99.921,14.099
			h0.704c1.072,0,1.473-0.4,1.473-1.777c0-1.376-0.4-1.776-1.473-1.776h-0.704V14.099z"/>
		<path style="fill:#FFFFFF;" d="M109.808,20.47V8.913h5.314v1.729h-3.329v2.978h2.561v1.729h-2.561v3.394h3.553v1.729H109.808z"/>
		<path style="fill:#FFFFFF;" d="M120.689,11.762c-0.079-0.992-0.607-1.28-1.056-1.28c-0.641,0-0.993,0.416-0.993,1.136
			c0,1.969,4.034,2.913,4.034,6.05c0,1.905-1.28,2.961-3.138,2.961c-1.841,0-2.896-1.473-2.977-3.201l1.889-0.272
			c0.08,1.168,0.544,1.745,1.185,1.745c0.688,0,1.152-0.368,1.152-1.056c0-2.289-4.034-2.897-4.034-6.21
			c0-1.841,1.121-2.881,3.073-2.881c1.617,0,2.577,1.168,2.754,2.801L120.689,11.762z"/>
		<path style="fill:#FFFFFF;" d="M125.488,10.642h-1.921V8.913h5.826v1.729h-1.921v9.828h-1.984V10.642z"/>
		<path style="fill:#FFFFFF;" d="M131.872,20.47h-1.921l2.129-11.557h2.465l2.129,11.557h-1.921l-0.352-2.561h-2.178L131.872,20.47z
			 M132.511,16.18h1.601l-0.784-4.962h-0.031L132.511,16.18z"/>
		<path style="fill:#FFFFFF;" d="M137.983,8.913h2.945c2.129,0,3.073,1.088,3.073,3.057c0,0.993-0.417,2.033-1.377,2.417
			c1.009,0.448,1.601,1.249,1.601,2.737c0,1.905-0.849,3.345-3.105,3.345h-3.137V8.913z M139.967,13.651h0.721
			c0.752,0,1.328-0.512,1.328-1.473c0-1.072-0.416-1.632-1.297-1.632h-0.752V13.651z M139.967,18.837h0.832
			c1.057,0,1.441-0.608,1.441-1.776c0-1.185-0.448-1.777-1.633-1.777h-0.641V18.837z"/>
		<path style="fill:#FFFFFF;" d="M146.046,20.47V8.913h1.985v9.828h3.121v1.729H146.046z"/>
		<path style="fill:#FFFFFF;" d="M152.798,20.47V8.913h1.984V20.47H152.798z"/>
		<path style="fill:#FFFFFF;" d="M160.751,11.762c-0.079-0.992-0.607-1.28-1.056-1.28c-0.641,0-0.993,0.416-0.993,1.136
			c0,1.969,4.034,2.913,4.034,6.05c0,1.905-1.28,2.961-3.138,2.961c-1.841,0-2.896-1.473-2.977-3.201l1.889-0.272
			c0.08,1.168,0.544,1.745,1.185,1.745c0.688,0,1.152-0.368,1.152-1.056c0-2.289-4.034-2.897-4.034-6.21
			c0-1.841,1.121-2.881,3.073-2.881c1.617,0,2.577,1.168,2.754,2.801L160.751,11.762z"/>
		<path style="fill:#FFFFFF;" d="M164.398,20.47V8.913h1.985v4.706h2.112V8.913h1.985V20.47h-1.985v-5.122h-2.112v5.122H164.398z"/>
		<path style="fill:#FFFFFF;" d="M172.558,20.47V8.913h5.313v1.729h-3.329v2.978h2.562v1.729h-2.562v3.394h3.554v1.729H172.558z"/>
		<path style="fill:#FFFFFF;" d="M183.439,11.762c-0.08-0.992-0.608-1.28-1.057-1.28c-0.64,0-0.992,0.416-0.992,1.136
			c0,1.969,4.033,2.913,4.033,6.05c0,1.905-1.28,2.961-3.137,2.961c-1.841,0-2.897-1.473-2.978-3.201l1.889-0.272
			c0.08,1.168,0.545,1.745,1.185,1.745c0.688,0,1.152-0.368,1.152-1.056c0-2.289-4.033-2.897-4.033-6.21
			c0-1.841,1.12-2.881,3.073-2.881c1.616,0,2.577,1.168,2.753,2.801L183.439,11.762z"/>
		<path style="fill:#FFFFFF;" d="M198.751,8.913V20.47h-1.729v-9.028h-0.032l-1.792,9.028h-0.961l-1.793-9.028h-0.031v9.028h-1.729
			V8.913h2.609l1.408,6.755h0.032l1.409-6.755H198.751z"/>
		<path style="fill:#FFFFFF;" d="M201.004,20.47V8.913h1.985V20.47H201.004z"/>
		<path style="fill:#FFFFFF;" d="M209.342,12.771v-0.896c0-0.976-0.448-1.392-0.961-1.392c-0.8,0-1.056,0.416-1.056,1.28v5.858
			c0,0.864,0.256,1.28,1.056,1.28c0.721,0,0.961-0.416,0.961-1.168V16.34h1.984v1.329c0,1.633-0.96,2.961-2.945,2.961
			c-2.08,0-3.041-1.329-3.041-2.961v-5.954c0-1.633,0.961-2.961,3.041-2.961c1.985,0,2.945,1.44,2.945,3.169v0.848H209.342z"/>
		<path style="fill:#FFFFFF;" d="M213.5,20.47V8.913h1.984v4.706h2.113V8.913h1.984V20.47h-1.984v-5.122h-2.113v5.122H213.5z"/>
		<path style="fill:#FFFFFF;" d="M221.661,11.714c0-1.633,0.96-2.961,3.041-2.961s3.041,1.329,3.041,2.961v5.954
			c0,1.633-0.96,2.961-3.041,2.961s-3.041-1.329-3.041-2.961V11.714z M223.821,6h1.761l1.537,2.305h-1.473l-0.944-1.424
			l-0.944,1.424h-1.473L223.821,6z M223.645,17.621c0,0.864,0.256,1.28,1.057,1.28c0.8,0,1.057-0.416,1.057-1.28v-5.858
			c0-0.864-0.257-1.28-1.057-1.28c-0.801,0-1.057,0.416-1.057,1.28V17.621z"/>
		<path style="fill:#FFFFFF;" d="M229.821,8.913h2.945c2.049,0,3.137,1.121,3.137,3.489v4.578c0,2.369-1.088,3.489-3.137,3.489
			h-2.945V8.913z M231.805,18.837h0.688c1.057,0,1.425-0.4,1.425-1.617v-5.058c0-1.217-0.368-1.617-1.425-1.617h-0.688V18.837z"/>
		<path style="fill:#FFFFFF;" d="M242.844,20.47h-1.921l2.129-11.557h2.466l2.128,11.557h-1.92l-0.353-2.561h-2.177L242.844,20.47z
			 M243.485,16.18h1.601l-0.784-4.962h-0.032L243.485,16.18z"/>
		<path style="fill:#FFFFFF;" d="M252.573,11.762c-0.079-0.992-0.607-1.28-1.056-1.28c-0.641,0-0.993,0.416-0.993,1.136
			c0,1.969,4.034,2.913,4.034,6.05c0,1.905-1.28,2.961-3.138,2.961c-1.841,0-2.896-1.473-2.977-3.201l1.889-0.272
			c0.08,1.168,0.544,1.745,1.185,1.745c0.688,0,1.152-0.368,1.152-1.056c0-2.289-4.034-2.897-4.034-6.21
			c0-1.841,1.121-2.881,3.073-2.881c1.617,0,2.577,1.168,2.754,2.801L252.573,11.762z"/>
		<path style="fill:#FFFFFF;" d="M54.322,31.714c0-1.633,0.961-2.961,3.041-2.961c2.081,0,3.042,1.329,3.042,2.961v5.954
			c0,1.633-0.961,2.961-3.042,2.961c-2.08,0-3.041-1.329-3.041-2.961V31.714z M56.307,37.621c0,0.864,0.256,1.28,1.056,1.28
			c0.801,0,1.057-0.416,1.057-1.28v-5.858c0-0.864-0.256-1.28-1.057-1.28c-0.8,0-1.056,0.416-1.056,1.28V37.621z"/>
		<path style="fill:#FFFFFF;" d="M62.482,40.47V28.913h1.841l2.417,6.611h0.032v-6.611h1.793V40.47h-1.729l-2.528-7.219h-0.032
			v7.219H62.482z"/>
		<path style="fill:#FFFFFF;" d="M70.642,40.47V28.913h5.313v1.729h-3.329v2.978h2.562v1.729h-2.562v3.394h3.554v1.729H70.642z"/>
		<path style="fill:#FFFFFF;" d="M81.618,31.714c0-1.633,0.961-2.961,3.041-2.961c2.081,0,3.042,1.329,3.042,2.961v5.954
			c0,1.633-0.961,2.961-3.042,2.961c-2.08,0-3.041-1.329-3.041-2.961V31.714z M83.603,37.621c0,0.864,0.256,1.28,1.056,1.28
			c0.801,0,1.057-0.416,1.057-1.28v-5.858c0-0.864-0.256-1.28-1.057-1.28c-0.8,0-1.056,0.416-1.056,1.28V37.621z"/>
		<path style="fill:#FFFFFF;" d="M89.778,40.47V28.913h5.538v1.729h-3.554v2.978h2.657v1.729h-2.657v5.122H89.778z"/>
		<path style="fill:#FFFFFF;" d="M101.906,30.642h-1.921v-1.729h5.826v1.729h-1.921v9.828h-1.984V30.642z"/>
		<path style="fill:#FFFFFF;" d="M107.136,40.47V28.913h1.985v4.706h2.112v-4.706h1.985V40.47h-1.985v-5.122h-2.112v5.122H107.136z"
			/>
		<path style="fill:#FFFFFF;" d="M115.296,40.47V28.913h5.314v1.729h-3.329v2.978h2.561v1.729h-2.561v3.394h3.553v1.729H115.296z"/>
		<path style="fill:#FFFFFF;" d="M134.227,28.913V40.47h-1.729v-9.028h-0.032l-1.793,9.028h-0.96l-1.793-9.028h-0.032v9.028h-1.729
			V28.913h2.609l1.408,6.755h0.032l1.408-6.755H134.227z"/>
		<path style="fill:#FFFFFF;" d="M136.208,31.714c0-1.633,0.961-2.961,3.041-2.961c2.081,0,3.042,1.329,3.042,2.961v5.954
			c0,1.633-0.961,2.961-3.042,2.961c-2.08,0-3.041-1.329-3.041-2.961V31.714z M138.193,37.621c0,0.864,0.256,1.28,1.056,1.28
			c0.801,0,1.057-0.416,1.057-1.28v-5.858c0-0.864-0.256-1.28-1.057-1.28c-0.8,0-1.056,0.416-1.056,1.28V37.621z"/>
		<path style="fill:#FFFFFF;" d="M147.985,31.762c-0.079-0.992-0.607-1.28-1.056-1.28c-0.641,0-0.993,0.416-0.993,1.136
			c0,1.969,4.034,2.913,4.034,6.05c0,1.905-1.28,2.961-3.138,2.961c-1.841,0-2.896-1.473-2.977-3.201l1.889-0.272
			c0.08,1.168,0.544,1.745,1.185,1.745c0.688,0,1.152-0.368,1.152-1.056c0-2.289-4.034-2.897-4.034-6.21
			c0-1.841,1.121-2.881,3.073-2.881c1.617,0,2.577,1.168,2.754,2.801L147.985,31.762z"/>
		<path style="fill:#FFFFFF;" d="M152.785,30.642h-1.921v-1.729h5.826v1.729h-1.921v9.828h-1.984V30.642z"/>
		<path style="fill:#FFFFFF;" d="M164.464,34.611h3.249v5.858h-0.96l-0.368-0.864c-0.593,0.704-1.072,1.024-2.001,1.024
			c-1.568,0-2.657-1.121-2.657-2.961v-5.954c0-1.633,0.961-2.961,2.913-2.961c1.985,0,2.978,1.44,2.978,3.169v0.736h-1.889
			c0-1.729-0.353-2.177-1.137-2.177c-0.48,0-0.88,0.288-0.88,1.264v5.938c0,0.736,0.239,1.216,0.928,1.216
			c0.801,0,1.089-0.448,1.089-1.601v-1.12h-1.265V34.611z"/>
		<path style="fill:#FFFFFF;" d="M170.16,40.47V28.913h1.984V40.47H170.16z"/>
		<path style="fill:#FFFFFF;" d="M174.496,40.47V28.913h5.538v1.729h-3.554v2.978h2.657v1.729h-2.657v5.122H174.496z"/>
		<path style="fill:#FFFFFF;" d="M182.912,30.642h-1.921v-1.729h5.826v1.729h-1.921v9.828h-1.984V30.642z"/>
		<path style="fill:#FFFFFF;" d="M188.143,40.47V28.913h5.313v1.729h-3.329v2.978h2.562v1.729h-2.562v3.394h3.554v1.729H188.143z"/>
		<path style="fill:#FFFFFF;" d="M195.406,28.913h2.945c2.049,0,3.138,1.121,3.138,3.489v4.578c0,2.369-1.089,3.489-3.138,3.489
			h-2.945V28.913z M197.391,38.837h0.688c1.057,0,1.425-0.4,1.425-1.617v-5.058c0-1.217-0.368-1.617-1.425-1.617h-0.688V38.837z"/>
		<path style="fill:#FFFFFF;" d="M210.864,40.47h-1.985v-4.802l-2.4-6.755h2.017l1.393,4.402h0.032l1.328-4.402h2.017l-2.4,6.755
			V40.47z"/>
		<path style="fill:#FFFFFF;" d="M214.542,31.714c0-1.633,0.96-2.961,3.041-2.961s3.041,1.329,3.041,2.961v5.954
			c0,1.633-0.96,2.961-3.041,2.961s-3.041-1.329-3.041-2.961V31.714z M216.526,37.621c0,0.864,0.256,1.28,1.057,1.28
			c0.8,0,1.057-0.416,1.057-1.28v-5.858c0-0.864-0.257-1.28-1.057-1.28c-0.801,0-1.057,0.416-1.057,1.28V37.621z"/>
		<path style="fill:#FFFFFF;" d="M222.702,28.913h1.984v8.724c0,0.848,0.336,1.264,1.057,1.264c0.72,0,1.057-0.416,1.057-1.264
			v-8.724h1.984v8.644c0,1.985-1.152,3.073-3.041,3.073s-3.041-1.088-3.041-3.073V28.913z"/>
		<path style="fill:#FFFFFF;" d="M230.862,40.47V28.913h1.841l2.417,6.611h0.031v-6.611h1.793V40.47h-1.729l-2.529-7.219h-0.032
			v7.219H230.862z"/>
		<path style="fill:#FFFFFF;" d="M241.758,34.611h3.249v5.858h-0.96l-0.368-0.864c-0.593,0.704-1.072,1.024-2.001,1.024
			c-1.568,0-2.657-1.121-2.657-2.961v-5.954c0-1.633,0.961-2.961,2.913-2.961c1.985,0,2.978,1.44,2.978,3.169v0.736h-1.889
			c0-1.729-0.353-2.177-1.137-2.177c-0.48,0-0.88,0.288-0.88,1.264v5.938c0,0.736,0.239,1.216,0.928,1.216
			c0.801,0,1.089-0.448,1.089-1.601v-1.12h-1.265V34.611z"/>
		<path style="fill:#FFFFFF;" d="M86.217,48.913h2.945c2.049,0,3.137,1.121,3.137,3.489v4.578c0,2.369-1.088,3.489-3.137,3.489
			h-2.945V48.913z M88.202,58.837h0.688c1.057,0,1.425-0.4,1.425-1.617v-5.058c0-1.217-0.368-1.617-1.425-1.617h-0.688V58.837z"/>
		<path style="fill:#FFFFFF;" d="M94.649,60.47V48.913h1.985V60.47H94.649z"/>
		<path style="fill:#FFFFFF;" d="M100.97,60.47h-1.985V48.913h2.785c2.225,0,3.361,0.944,3.361,3.409
			c0,1.857-0.72,2.609-1.393,2.914l1.681,5.234h-2.017l-1.408-4.786c-0.257,0.032-0.673,0.048-1.024,0.048V60.47z M100.97,54.099
			h0.704c1.072,0,1.473-0.4,1.473-1.777c0-1.376-0.4-1.776-1.473-1.776h-0.704V54.099z"/>
		<path style="fill:#FFFFFF;" d="M107.145,60.47V48.913h5.314v1.729h-3.329v2.978h2.561v1.729h-2.561v3.394h3.553v1.729H107.145z"/>
		<path style="fill:#FFFFFF;" d="M118.411,52.771v-0.896c0-0.976-0.448-1.392-0.961-1.392c-0.8,0-1.056,0.416-1.056,1.28v5.858
			c0,0.864,0.256,1.28,1.056,1.28c0.721,0,0.961-0.416,0.961-1.168V56.34h1.984v1.329c0,1.633-0.96,2.961-2.945,2.961
			c-2.08,0-3.041-1.329-3.041-2.961v-5.954c0-1.633,0.961-2.961,3.041-2.961c1.985,0,2.945,1.44,2.945,3.169v0.848H118.411z"/>
		<path style="fill:#FFFFFF;" d="M123.721,50.642H121.8v-1.729h5.826v1.729h-1.921v9.828h-1.984V50.642z"/>
		<path style="fill:#FFFFFF;" d="M128.953,51.714c0-1.633,0.96-2.961,3.041-2.961s3.041,1.329,3.041,2.961v5.954
			c0,1.633-0.96,2.961-3.041,2.961s-3.041-1.329-3.041-2.961V51.714z M130.937,57.621c0,0.864,0.256,1.28,1.057,1.28
			c0.8,0,1.057-0.416,1.057-1.28v-5.858c0-0.864-0.257-1.28-1.057-1.28c-0.801,0-1.057,0.416-1.057,1.28V57.621z"/>
		<path style="fill:#FFFFFF;" d="M139.097,60.47h-1.984V48.913h2.785c2.225,0,3.361,0.944,3.361,3.409
			c0,1.857-0.721,2.609-1.393,2.914l1.681,5.234h-2.018l-1.408-4.786c-0.256,0.032-0.672,0.048-1.024,0.048V60.47z M139.097,54.099
			h0.704c1.072,0,1.473-0.4,1.473-1.777c0-1.376-0.4-1.776-1.473-1.776h-0.704V54.099z"/>
		<path style="fill:#FFFFFF;" d="M148.889,51.762c-0.079-0.992-0.607-1.28-1.056-1.28c-0.641,0-0.993,0.416-0.993,1.136
			c0,1.969,4.034,2.913,4.034,6.05c0,1.905-1.28,2.961-3.138,2.961c-1.841,0-2.896-1.473-2.977-3.201l1.889-0.272
			c0.08,1.168,0.544,1.745,1.185,1.745c0.688,0,1.152-0.368,1.152-1.056c0-2.289-4.034-2.897-4.034-6.21
			c0-1.841,1.121-2.881,3.073-2.881c1.617,0,2.577,1.168,2.754,2.801L148.889,51.762z"/>
		<path style="fill:#FFFFFF;" d="M157.4,60.47h-1.921l2.129-11.557h2.466l2.128,11.557h-1.92l-0.353-2.561h-2.177L157.4,60.47z
			 M158.041,56.18h1.601l-0.784-4.962h-0.032L158.041,56.18z"/>
		<path style="fill:#FFFFFF;" d="M165.496,60.47h-1.984V48.913h2.785c2.225,0,3.361,0.944,3.361,3.409
			c0,1.857-0.721,2.609-1.393,2.914l1.681,5.234h-2.018l-1.408-4.786c-0.256,0.032-0.672,0.048-1.024,0.048V60.47z M165.496,54.099
			h0.704c1.072,0,1.473-0.4,1.473-1.777c0-1.376-0.4-1.776-1.473-1.776h-0.704V54.099z"/>
		<path style="fill:#FFFFFF;" d="M171.671,51.714c0-1.633,0.96-2.961,3.041-2.961s3.041,1.329,3.041,2.961v5.954
			c0,1.633-0.96,2.961-3.041,2.961s-3.041-1.329-3.041-2.961V51.714z M173.656,57.621c0,0.864,0.256,1.28,1.057,1.28
			c0.8,0,1.057-0.416,1.057-1.28v-5.858c0-0.864-0.257-1.28-1.057-1.28c-0.801,0-1.057,0.416-1.057,1.28V57.621z"/>
		<path style="fill:#FFFFFF;" d="M179.832,48.913h1.984v8.724c0,0.848,0.336,1.264,1.057,1.264c0.72,0,1.057-0.416,1.057-1.264
			v-8.724h1.984v8.644c0,1.985-1.152,3.073-3.041,3.073s-3.041-1.088-3.041-3.073V48.913z"/>
		<path style="fill:#FFFFFF;" d="M187.992,60.47V48.913h1.841l2.417,6.611h0.031v-6.611h1.793V60.47h-1.729l-2.529-7.219h-0.032
			v7.219H187.992z"/>
		<path style="fill:#FFFFFF;" d="M196.151,48.913h2.945c2.049,0,3.138,1.121,3.138,3.489v4.578c0,2.369-1.089,3.489-3.138,3.489
			h-2.945V48.913z M198.136,58.837h0.688c1.057,0,1.425-0.4,1.425-1.617v-5.058c0-1.217-0.368-1.617-1.425-1.617h-0.688V58.837z"/>
		<path style="fill:#FFFFFF;" d="M204.183,60.47v-1.889h1.889v1.889H204.183z"/>
		<path style="fill:#FFFFFF;" d="M210.088,50.802l-1.104,1.985h-0.849l0.784-1.985h-0.721v-1.889h1.89V50.802z M213.049,50.802
			l-1.104,1.985h-0.849l0.784-1.985h-0.72v-1.889h1.889V50.802z"/>
		<path style="fill:#FFF8DA;" d="M135.628,73.811h1.463l-1.811,8.659h-1.487l-1.812-8.659h1.464l1.079,6.009h0.023L135.628,73.811z"
			/>
		<path style="fill:#FFF8DA;" d="M138.845,82.47h-1.439l1.596-8.659h1.847l1.595,8.659h-1.439l-0.264-1.919h-1.631L138.845,82.47z
			 M139.325,79.255h1.199l-0.588-3.718h-0.023L139.325,79.255z"/>
		<path style="fill:#FFF8DA;" d="M144.856,82.47h-1.486v-8.659h2.087c1.667,0,2.519,0.708,2.519,2.555
			c0,1.391-0.54,1.955-1.044,2.183l1.26,3.922h-1.512l-1.056-3.586c-0.191,0.024-0.503,0.036-0.768,0.036V82.47z M144.856,77.696
			h0.528c0.804,0,1.104-0.3,1.104-1.331c0-1.032-0.3-1.332-1.104-1.332h-0.528V77.696z"/>
		<path style="fill:#FFF8DA;" d="M149.633,82.47v-8.659h1.487v8.659H149.633z"/>
		<path style="fill:#FFF8DA;" d="M152.826,82.47v-8.659h3.981v1.295h-2.495v2.23h1.919v1.295h-1.919v2.542h2.663v1.295H152.826z"/>
		<path style="fill:#FFF8DA;" d="M159.076,75.106h-1.438v-1.295h4.365v1.295h-1.439v7.364h-1.487V75.106z"/>
		<path style="fill:#FFF8DA;" d="M165.627,82.47h-1.487v-3.598l-1.799-5.061h1.511l1.043,3.298h0.024l0.995-3.298h1.512
			l-1.799,5.061V82.47z"/>
	</g>
</g>
<g id="nyt_x5F_exporter_x5F_info" style="display:none;">
</g>
</svg>
