<?xml version="1.0" encoding="iso-8859-1"?>
<!-- Generator: Adobe Illustrator 17.1.0, SVG Export Plug-In . SVG Version: 6.00 Build 0)  -->
<!DOCTYPE svg PUBLIC "-//W3C//DTD SVG 1.1//EN" "http://www.w3.org/Graphics/SVG/1.1/DTD/svg11.dtd">
<svg version="1.1" xmlns="http://www.w3.org/2000/svg" xmlns:xlink="http://www.w3.org/1999/xlink" x="0px" y="0px"
	 viewBox="0 0 300 187.812" style="enable-background:new 0 0 300 187.812;" xml:space="preserve">
<g id="Layer_1">
	<g>
		<path style="fill:#FFF8DA;" d="M64.267,10.463L66.75,6h1.908l-1.764,4.463h1.619v4.248h-4.247V10.463z M70.926,10.463L73.41,6
			h1.908l-1.764,4.463h1.619v4.248h-4.247V10.463z"/>
		<path style="fill:#FFF8DA;" d="M80.071,6.36h6.623c4.607,0,7.055,2.52,7.055,7.847v10.294c0,5.328-2.447,7.847-7.055,7.847h-6.623
			V6.36z M84.534,28.677h1.548c2.376,0,3.204-0.9,3.204-3.636V13.667c0-2.736-0.828-3.636-3.204-3.636h-1.548V28.677z"/>
		<path style="fill:#FFF8DA;" d="M98.862,32.349V6.36h4.464v25.989H98.862z"/>
		<path style="fill:#FFF8DA;" d="M116.574,12.767c-0.181-2.232-1.368-2.879-2.376-2.879c-1.44,0-2.231,0.936-2.231,2.556
			c0,4.427,9.07,6.551,9.07,13.606c0,4.284-2.88,6.659-7.055,6.659c-4.14,0-6.516-3.312-6.695-7.199l4.247-0.612
			c0.181,2.628,1.224,3.924,2.664,3.924c1.548,0,2.592-0.828,2.592-2.376c0-5.147-9.071-6.515-9.071-13.966
			c0-4.139,2.52-6.479,6.911-6.479c3.636,0,5.795,2.627,6.191,6.299L116.574,12.767z"/>
		<path style="fill:#FFF8DA;" d="M127.194,10.248h-4.319V6.36h13.102v3.888h-4.319v22.101h-4.463V10.248z"/>
		<path style="fill:#FFF8DA;" d="M139.397,32.349V6.36h4.464v25.989H139.397z"/>
		<path style="fill:#FFF8DA;" d="M148.973,32.349V6.36h4.14l5.436,14.866h0.072V6.36h4.031v25.989h-3.888l-5.688-16.234h-0.071
			v16.234H148.973z"/>
		<path style="fill:#FFF8DA;" d="M176.152,15.035v-2.016c0-2.196-1.008-3.131-2.159-3.131c-1.8,0-2.376,0.936-2.376,2.879v13.174
			c0,1.944,0.576,2.88,2.376,2.88c1.619,0,2.159-0.936,2.159-2.628v-3.131h4.464v2.987c0,3.672-2.16,6.659-6.623,6.659
			c-4.68,0-6.84-2.987-6.84-6.659v-13.39c0-3.671,2.16-6.659,6.84-6.659c4.463,0,6.623,3.24,6.623,7.127v1.908H176.152z"/>
		<path style="fill:#FFF8DA;" d="M187.925,10.248h-4.319V6.36h13.102v3.888h-4.319v22.101h-4.463V10.248z"/>
		<path style="fill:#FFF8DA;" d="M200.129,32.349V6.36h4.463v25.989H200.129z"/>
		<path style="fill:#FFF8DA;" d="M218.812,6.36h4.392l-5.436,25.989h-4.464L207.869,6.36h4.392l3.24,18.034h0.071L218.812,6.36z"/>
		<path style="fill:#FFF8DA;" d="M225.869,32.349V6.36h11.95v3.888h-7.487v6.695h5.76v3.888h-5.76v7.631h7.991v3.888H225.869z"/>
		<path style="fill:#FFF8DA;" d="M37.231,66.349h-4.319l4.787-25.989h5.543l4.788,25.989h-4.32l-0.792-5.759h-4.895L37.231,66.349z
			 M38.67,56.702h3.6l-1.764-11.158h-0.072L38.67,56.702z"/>
		<path style="fill:#FFF8DA;" d="M50.802,66.349V40.36h4.14l5.436,14.866h0.072V40.36h4.031v25.989h-3.888l-5.688-16.234h-0.071
			v16.234H50.802z"/>
		<path style="fill:#FFF8DA;" d="M68.982,40.36h6.623c4.607,0,7.056,2.52,7.056,7.847v10.294c0,5.328-2.448,7.847-7.056,7.847
			h-6.623V40.36z M73.446,62.677h1.548c2.376,0,3.203-0.9,3.203-3.636V47.667c0-2.736-0.827-3.636-3.203-3.636h-1.548V62.677z"/>
		<path style="fill:#FFF8DA;" d="M104.333,49.035v-2.016c0-2.196-1.008-3.131-2.16-3.131c-1.8,0-2.376,0.936-2.376,2.879v13.174
			c0,1.944,0.576,2.88,2.376,2.88c1.62,0,2.16-0.936,2.16-2.628v-3.131h4.463v2.987c0,3.672-2.159,6.659-6.623,6.659
			c-4.68,0-6.839-2.987-6.839-6.659v-13.39c0-3.671,2.159-6.659,6.839-6.659c4.464,0,6.623,3.24,6.623,7.127v1.908H104.333z"/>
		<path style="fill:#FFF8DA;" d="M113.514,46.659c0-3.671,2.159-6.659,6.839-6.659s6.839,2.988,6.839,6.659v13.39
			c0,3.672-2.159,6.659-6.839,6.659s-6.839-2.987-6.839-6.659V46.659z M117.977,59.941c0,1.944,0.576,2.88,2.376,2.88
			s2.376-0.936,2.376-2.88V46.767c0-1.944-0.576-2.879-2.376-2.879s-2.376,0.936-2.376,2.879V59.941z"/>
		<path style="fill:#FFF8DA;" d="M149.583,40.36v25.989h-3.887V46.047h-0.072l-4.031,20.301h-2.16l-4.031-20.301h-0.072v20.301
			h-3.888V40.36h5.867l3.168,15.19h0.072l3.167-15.19H149.583z"/>
		<path style="fill:#FFF8DA;" d="M153.87,66.349V40.36h6.407c5.507,0,8.062,2.124,8.062,7.667s-2.556,7.667-8.062,7.667h-1.944
			v10.655H153.87z M158.333,52.022h1.729c2.915,0,3.815-0.9,3.815-3.996s-0.9-3.996-3.815-3.996h-1.729V52.022z"/>
		<path style="fill:#FFF8DA;" d="M172.049,66.349V40.36H184v3.888h-7.487v6.695h5.759v3.888h-5.759v7.631h7.991v3.888H172.049z"/>
		<path style="fill:#FFF8DA;" d="M187.998,66.349V40.36h4.463v22.101h7.02v3.888H187.998z"/>
		<path style="fill:#FFF8DA;" d="M202.181,66.349V40.36h4.463v22.101h7.02v3.888H202.181z"/>
		<path style="fill:#FFF8DA;" d="M217.193,66.349V40.36h4.463v25.989H217.193z"/>
		<path style="fill:#FFF8DA;" d="M226.769,66.349V40.36h4.14l5.435,14.866h0.072V40.36h4.031v25.989h-3.887l-5.688-16.234H230.8
			v16.234H226.769z"/>
		<path style="fill:#FFF8DA;" d="M251.104,53.174h7.307v13.174h-2.159l-0.828-1.944c-1.332,1.584-2.412,2.304-4.5,2.304
			c-3.527,0-5.975-2.52-5.975-6.659v-13.39c0-3.671,2.159-6.659,6.551-6.659c4.464,0,6.695,3.24,6.695,7.127v1.656h-4.247
			c0-3.887-0.792-4.895-2.556-4.895c-1.08,0-1.98,0.647-1.98,2.843v13.354c0,1.656,0.54,2.736,2.088,2.736
			c1.8,0,2.448-1.008,2.448-3.6v-2.52h-2.844V53.174z"/>
		<path style="fill:#FFF8DA;" d="M262.84,66.349v-4.248h4.248v4.248H262.84z"/>
		<path style="fill:#FFFFFF;" d="M60.043,86.349h-1.921l2.129-11.557h2.465l2.129,11.557h-1.921l-0.352-2.561h-2.178L60.043,86.349z
			 M60.683,82.059h1.602L61.5,77.097h-0.031L60.683,82.059z"/>
		<path style="fill:#FFFFFF;" d="M77.822,74.792v11.557h-1.729v-9.028h-0.032l-1.793,9.028h-0.96l-1.793-9.028h-0.032v9.028h-1.729
			V74.792h2.609l1.408,6.755h0.032l1.408-6.755H77.822z"/>
		<path style="fill:#FFFFFF;" d="M80.955,86.349h-1.921l2.129-11.557h2.466l2.129,11.557h-1.921l-0.353-2.561h-2.177L80.955,86.349z
			 M81.595,82.059h1.601l-0.784-4.962h-0.032L81.595,82.059z"/>
		<path style="fill:#FFFFFF;" d="M89.051,86.349h-1.984V74.792h2.785c2.225,0,3.361,0.944,3.361,3.409
			c0,1.857-0.721,2.609-1.393,2.914l1.681,5.234h-2.017l-1.409-4.786c-0.256,0.032-0.672,0.048-1.024,0.048V86.349z M89.051,79.978
			h0.704c1.072,0,1.473-0.4,1.473-1.777c0-1.376-0.4-1.776-1.473-1.776h-0.704V79.978z"/>
		<path style="fill:#FFFFFF;" d="M95.13,86.349V74.792h1.984v4.274h0.032l2.081-4.274h1.984l-2.145,4.306l2.417,7.251h-2.017
			l-1.617-5.378h-0.032l-0.704,1.28v4.098H95.13z"/>
		<path style="fill:#FFFFFF;" d="M106.202,77.593c0-1.633,0.961-2.961,3.041-2.961c2.081,0,3.042,1.329,3.042,2.961v5.954
			c0,1.633-0.961,2.961-3.042,2.961c-2.08,0-3.041-1.329-3.041-2.961V77.593z M108.187,83.5c0,0.864,0.256,1.28,1.056,1.28
			c0.801,0,1.057-0.416,1.057-1.28v-5.858c0-0.864-0.256-1.281-1.057-1.281c-0.8,0-1.056,0.417-1.056,1.281V83.5z"/>
		<path style="fill:#FFFFFF;" d="M114.362,86.349V74.792h5.538v1.729h-3.554v2.978h2.657v1.729h-2.657v5.122H114.362z"/>
		<path style="fill:#FFFFFF;" d="M124.424,84.78h0.417c0.768,0,1.04-0.32,1.04-0.96v-9.028h1.984v9.252
			c0,1.472-0.592,2.465-2.785,2.465h-0.656V84.78z"/>
		<path style="fill:#FFFFFF;" d="M129.945,74.792h1.985v8.724c0,0.848,0.336,1.264,1.056,1.264c0.721,0,1.057-0.416,1.057-1.264
			v-8.724h1.985v8.644c0,1.985-1.152,3.073-3.042,3.073c-1.889,0-3.041-1.088-3.041-3.073V74.792z"/>
		<path style="fill:#FFFFFF;" d="M141.722,77.641c-0.079-0.992-0.607-1.281-1.056-1.281c-0.641,0-0.993,0.417-0.993,1.137
			c0,1.969,4.034,2.913,4.034,6.05c0,1.905-1.28,2.961-3.138,2.961c-1.841,0-2.896-1.473-2.977-3.201l1.889-0.272
			c0.08,1.168,0.544,1.745,1.185,1.745c0.688,0,1.152-0.368,1.152-1.056c0-2.289-4.034-2.897-4.034-6.21
			c0-1.841,1.121-2.881,3.073-2.881c1.617,0,2.577,1.168,2.754,2.801L141.722,77.641z"/>
		<path style="fill:#FFFFFF;" d="M146.521,76.521H144.6v-1.729h5.827v1.729h-1.921v9.828h-1.985V76.521z"/>
		<path style="fill:#FFFFFF;" d="M158.906,74.792h1.633l1.344,7.363h0.032l1.104-7.363h1.856l-2.032,11.557h-1.665l-1.44-7.635
			h-0.032l-1.345,7.635h-1.664l-2.193-11.557h1.857l1.216,7.363h0.032L158.906,74.792z"/>
		<path style="fill:#FFFFFF;" d="M166.296,86.349V74.792h1.984v4.706h2.113v-4.706h1.984v11.557h-1.984v-5.122h-2.113v5.122H166.296
			z"/>
		<path style="fill:#FFFFFF;" d="M175.609,86.349h-1.921l2.129-11.557h2.465l2.129,11.557h-1.921l-0.352-2.561h-2.178
			L175.609,86.349z M176.249,82.059h1.602l-0.785-4.962h-0.031L176.249,82.059z"/>
		<path style="fill:#FFFFFF;" d="M182.872,76.521h-1.921v-1.729h5.827v1.729h-1.921v9.828h-1.985V76.521z"/>
		<path style="fill:#FFFFFF;" d="M192.967,86.349h-1.921l2.129-11.557h2.466l2.129,11.557h-1.921l-0.353-2.561h-2.177
			L192.967,86.349z M193.608,82.059h1.601l-0.784-4.962h-0.032L193.608,82.059z"/>
		<path style="fill:#FFFFFF;" d="M203.943,76.521h-1.921v-1.729h5.826v1.729h-1.921v9.828h-1.984V76.521z"/>
		<path style="fill:#FFFFFF;" d="M210.327,86.349h-1.921l2.129-11.557H213l2.129,11.557h-1.921l-0.352-2.561h-2.178L210.327,86.349z
			 M210.966,82.059h1.602l-0.785-4.962h-0.031L210.966,82.059z"/>
		<path style="fill:#FFFFFF;" d="M216.341,86.349V74.792h1.984v9.828h3.121v1.729H216.341z"/>
		<path style="fill:#FFFFFF;" d="M222.821,86.349V74.792h5.314v1.729h-3.329v2.978h2.561v1.729h-2.561v3.394h3.553v1.729H222.821z"
			/>
		<path style="fill:#FFFFFF;" d="M230.084,86.349V74.792h1.841l2.417,6.611h0.032v-6.611h1.793v11.557h-1.729l-2.528-7.219h-0.032
			v7.219H230.084z"/>
		<path style="fill:#FFFFFF;" d="M239.397,76.521h-1.921v-1.729h5.826v1.729h-1.921v9.828h-1.984V76.521z"/>
		<path style="fill:#FFFFFF;" d="M60.65,94.792h2.945c2.049,0,3.138,1.121,3.138,3.489v4.578c0,2.369-1.089,3.489-3.138,3.489H60.65
			V94.792z M62.635,104.716h0.688c1.057,0,1.425-0.4,1.425-1.617v-5.058c0-1.217-0.368-1.617-1.425-1.617h-0.688V104.716z"/>
		<path style="fill:#FFFFFF;" d="M69.962,106.349h-1.921l2.129-11.557h2.466l2.129,11.557h-1.921l-0.353-2.561h-2.177
			L69.962,106.349z M70.603,102.059h1.601l-0.784-4.962h-0.032L70.603,102.059z"/>
		<path style="fill:#FFFFFF;" d="M80.124,94.792h1.952l-2.417,11.557h-1.984l-2.417-11.557h1.952l1.441,8.019h0.031L80.124,94.792z"
			/>
		<path style="fill:#FFFFFF;" d="M83.609,106.349V94.792h1.985v11.557H83.609z"/>
		<path style="fill:#FFFFFF;" d="M87.946,94.792h2.945c2.049,0,3.137,1.121,3.137,3.489v4.578c0,2.369-1.088,3.489-3.137,3.489
			h-2.945V94.792z M89.93,104.716h0.688c1.057,0,1.425-0.4,1.425-1.617v-5.058c0-1.217-0.368-1.617-1.425-1.617H89.93V104.716z"/>
		<path style="fill:#FFFFFF;" d="M107.772,94.792v11.557h-1.729v-9.028h-0.032l-1.792,9.028h-0.961l-1.793-9.028h-0.031v9.028
			h-1.729V94.792h2.609l1.409,6.755h0.031l1.409-6.755H107.772z"/>
		<path style="fill:#FFFFFF;" d="M110.025,106.349V94.792h1.985v11.557H110.025z"/>
		<path style="fill:#FFFFFF;" d="M118.362,98.649v-0.896c0-0.976-0.448-1.393-0.96-1.393c-0.801,0-1.057,0.417-1.057,1.281v5.858
			c0,0.864,0.256,1.28,1.057,1.28c0.72,0,0.96-0.416,0.96-1.168v-1.393h1.985v1.329c0,1.633-0.961,2.961-2.945,2.961
			c-2.081,0-3.041-1.329-3.041-2.961v-5.954c0-1.633,0.96-2.961,3.041-2.961c1.984,0,2.945,1.44,2.945,3.169v0.848H118.362z"/>
		<path style="fill:#FFFFFF;" d="M122.521,106.349V94.792h1.984v4.706h2.113v-4.706h1.984v11.557h-1.984v-5.122h-2.113v5.122
			H122.521z"/>
		<path style="fill:#FFFFFF;" d="M130.681,97.593c0-1.633,0.96-2.961,3.041-2.961s3.041,1.329,3.041,2.961v5.954
			c0,1.633-0.96,2.961-3.041,2.961s-3.041-1.329-3.041-2.961V97.593z M132.841,91.879h1.761l1.537,2.305h-1.473l-0.944-1.424
			l-0.944,1.424h-1.473L132.841,91.879z M132.666,103.5c0,0.864,0.256,1.28,1.057,1.28c0.8,0,1.057-0.416,1.057-1.28v-5.858
			c0-0.864-0.257-1.281-1.057-1.281c-0.801,0-1.057,0.417-1.057,1.281V103.5z"/>
		<path style="fill:#FFFFFF;" d="M138.84,94.792h2.945c2.049,0,3.138,1.121,3.138,3.489v4.578c0,2.369-1.089,3.489-3.138,3.489
			h-2.945V94.792z M140.826,104.716h0.688c1.057,0,1.425-0.4,1.425-1.617v-5.058c0-1.217-0.368-1.617-1.425-1.617h-0.688V104.716z"
			/>
		<path style="fill:#FFFFFF;" d="M150.985,106.349V94.792h1.984v11.557H150.985z"/>
		<path style="fill:#FFFFFF;" d="M158.938,97.641c-0.079-0.992-0.607-1.281-1.056-1.281c-0.641,0-0.993,0.417-0.993,1.137
			c0,1.969,4.034,2.913,4.034,6.05c0,1.905-1.28,2.961-3.138,2.961c-1.841,0-2.896-1.473-2.977-3.201l1.889-0.272
			c0.08,1.168,0.544,1.745,1.185,1.745c0.688,0,1.152-0.368,1.152-1.056c0-2.289-4.034-2.897-4.034-6.21
			c0-1.841,1.121-2.881,3.073-2.881c1.617,0,2.577,1.168,2.754,2.801L158.938,97.641z"/>
		<path style="fill:#FFFFFF;" d="M162.457,106.349v-1.889h1.889v1.889H162.457z"/>
		<path style="fill:#FFFFFF;" d="M171.161,96.521h-1.921v-1.729h5.826v1.729h-1.921v9.828h-1.984V96.521z"/>
		<path style="fill:#FFFFFF;" d="M176.392,106.349V94.792h1.985v4.706h2.112v-4.706h1.985v11.557h-1.985v-5.122h-2.112v5.122
			H176.392z"/>
		<path style="fill:#FFFFFF;" d="M184.824,106.349V94.792h1.985v11.557H184.824z"/>
		<path style="fill:#FFFFFF;" d="M192.778,97.641c-0.08-0.992-0.608-1.281-1.057-1.281c-0.64,0-0.992,0.417-0.992,1.137
			c0,1.969,4.033,2.913,4.033,6.05c0,1.905-1.28,2.961-3.137,2.961c-1.841,0-2.897-1.473-2.978-3.201l1.889-0.272
			c0.08,1.168,0.545,1.745,1.185,1.745c0.688,0,1.152-0.368,1.152-1.056c0-2.289-4.033-2.897-4.033-6.21
			c0-1.841,1.12-2.881,3.073-2.881c1.616,0,2.577,1.168,2.753,2.801L192.778,97.641z"/>
		<path style="fill:#FFFFFF;" d="M200.408,106.349V94.792h1.984v11.557H200.408z"/>
		<path style="fill:#FFFFFF;" d="M208.361,97.641c-0.079-0.992-0.607-1.281-1.056-1.281c-0.641,0-0.993,0.417-0.993,1.137
			c0,1.969,4.034,2.913,4.034,6.05c0,1.905-1.28,2.961-3.138,2.961c-1.841,0-2.896-1.473-2.977-3.201l1.889-0.272
			c0.08,1.168,0.544,1.745,1.185,1.745c0.688,0,1.152-0.368,1.152-1.056c0-2.289-4.034-2.897-4.034-6.21
			c0-1.841,1.121-2.881,3.073-2.881c1.617,0,2.577,1.168,2.754,2.801L208.361,97.641z"/>
		<path style="fill:#FFFFFF;" d="M215.719,106.349V94.792h1.984v4.706h2.113v-4.706h1.984v11.557h-1.984v-5.122h-2.113v5.122
			H215.719z"/>
		<path style="fill:#FFFFFF;" d="M223.879,97.593c0-1.633,0.96-2.961,3.041-2.961s3.041,1.329,3.041,2.961v5.954
			c0,1.633-0.96,2.961-3.041,2.961s-3.041-1.329-3.041-2.961V97.593z M225.864,103.5c0,0.864,0.256,1.28,1.057,1.28
			c0.8,0,1.057-0.416,1.057-1.28v-5.858c0-0.864-0.257-1.281-1.057-1.281c-0.801,0-1.057,0.417-1.057,1.281V103.5z"/>
		<path style="fill:#FFFFFF;" d="M235.481,94.792h1.633l1.344,7.363h0.032l1.104-7.363h1.856l-2.032,11.557h-1.665l-1.44-7.635
			h-0.032l-1.345,7.635h-1.664l-2.193-11.557h1.857l1.216,7.363h0.032L235.481,94.792z"/>
		<path style="fill:#FFFFFF;" d="M91.586,126.349h-1.921l2.129-11.557h2.465l2.129,11.557h-1.921l-0.352-2.561h-2.178
			L91.586,126.349z M92.226,122.059h1.602l-0.785-4.962h-0.031L92.226,122.059z"/>
		<path style="fill:#FFFFFF;" d="M97.698,114.792h1.985v8.724c0,0.848,0.336,1.264,1.056,1.264c0.721,0,1.057-0.416,1.057-1.264
			v-8.724h1.985v8.644c0,1.985-1.152,3.073-3.042,3.073c-1.889,0-3.041-1.088-3.041-3.073V114.792z"/>
		<path style="fill:#FFFFFF;" d="M107.01,116.521h-1.921v-1.729h5.826v1.729h-1.921v9.828h-1.984V116.521z"/>
		<path style="fill:#FFFFFF;" d="M112.242,126.349v-11.557h5.313v1.729h-3.329v2.978h2.562v1.729h-2.562v3.394h3.554v1.729H112.242z
			"/>
		<path style="fill:#FFFFFF;" d="M119.505,114.792h1.984v8.724c0,0.848,0.336,1.264,1.057,1.264c0.72,0,1.057-0.416,1.057-1.264
			v-8.724h1.984v8.644c0,1.985-1.152,3.073-3.041,3.073s-3.041-1.088-3.041-3.073V114.792z"/>
		<path style="fill:#FFFFFF;" d="M129.65,126.349h-1.985v-11.557h2.785c2.225,0,3.361,0.944,3.361,3.409
			c0,1.857-0.72,2.609-1.393,2.914l1.681,5.234h-2.017l-1.408-4.786c-0.257,0.032-0.673,0.048-1.024,0.048V126.349z M129.65,119.978
			h0.704c1.072,0,1.473-0.4,1.473-1.777c0-1.376-0.4-1.776-1.473-1.776h-0.704V119.978z"/>
		<path style="fill:#FFFFFF;" d="M139.442,117.641c-0.079-0.992-0.607-1.281-1.056-1.281c-0.641,0-0.993,0.417-0.993,1.137
			c0,1.969,4.034,2.913,4.034,6.05c0,1.905-1.28,2.961-3.138,2.961c-1.841,0-2.896-1.473-2.977-3.201l1.889-0.272
			c0.08,1.168,0.544,1.745,1.185,1.745c0.688,0,1.152-0.368,1.152-1.056c0-2.289-4.034-2.897-4.034-6.21
			c0-1.841,1.121-2.881,3.073-2.881c1.617,0,2.577,1.168,2.754,2.801L139.442,117.641z"/>
		<path style="fill:#FFFFFF;" d="M147.953,126.349h-1.921l2.129-11.557h2.465l2.129,11.557h-1.921l-0.352-2.561h-2.178
			L147.953,126.349z M148.592,122.059h1.602l-0.785-4.962h-0.031L148.592,122.059z"/>
		<path style="fill:#FFFFFF;" d="M156.048,126.349h-1.984v-11.557h2.785c2.225,0,3.361,0.944,3.361,3.409
			c0,1.857-0.721,2.609-1.393,2.914l1.681,5.234h-2.017l-1.409-4.786c-0.256,0.032-0.672,0.048-1.024,0.048V126.349z
			 M156.048,119.978h0.704c1.072,0,1.473-0.4,1.473-1.777c0-1.376-0.4-1.776-1.473-1.776h-0.704V119.978z"/>
		<path style="fill:#FFFFFF;" d="M162.224,126.349v-11.557h5.313v1.729h-3.329v2.978h2.562v1.729h-2.562v3.394h3.554v1.729H162.224z
			"/>
		<path style="fill:#FFFFFF;" d="M181.154,114.792v11.557h-1.729v-9.028h-0.032l-1.792,9.028h-0.961l-1.793-9.028h-0.031v9.028
			h-1.729v-11.557h2.609l1.409,6.755h0.031l1.409-6.755H181.154z"/>
		<path style="fill:#FFFFFF;" d="M184.288,126.349h-1.921l2.129-11.557h2.465l2.129,11.557h-1.921l-0.352-2.561h-2.178
			L184.288,126.349z M184.927,122.059h1.602l-0.785-4.962h-0.031L184.927,122.059z"/>
		<path style="fill:#FFFFFF;" d="M190.399,114.792h2.945c2.049,0,3.138,1.121,3.138,3.489v4.578c0,2.369-1.089,3.489-3.138,3.489
			h-2.945V114.792z M192.384,124.716h0.688c1.057,0,1.425-0.4,1.425-1.617v-5.058c0-1.217-0.368-1.617-1.425-1.617h-0.688V124.716z"
			/>
		<path style="fill:#FFFFFF;" d="M198.559,126.349v-11.557h5.313v1.729h-3.329v2.978h2.562v1.729h-2.562v3.394h3.554v1.729H198.559z
			"/>
		<path style="fill:#FFFFFF;" d="M207.887,116.681l-1.104,1.985h-0.849l0.785-1.985h-0.721v-1.889h1.889V116.681z M210.848,116.681
			l-1.104,1.985h-0.848l0.784-1.985h-0.721v-1.889h1.889V116.681z"/>
		<path style="fill:#FFF8DA;" d="M122.982,140.985h-1.439v-1.295h4.366v1.295h-1.439v7.364h-1.487V140.985z"/>
		<path style="fill:#FFF8DA;" d="M126.846,148.349v-8.659h1.487v3.526h1.583v-3.526h1.487v8.659h-1.487v-3.838h-1.583v3.838H126.846
			z"/>
		<path style="fill:#FFF8DA;" d="M132.907,148.349v-8.659h3.981v1.295h-2.494v2.23h1.919v1.295h-1.919v2.542h2.662v1.295H132.907z"
			/>
		<path style="fill:#FFF8DA;" d="M141.018,148.349v-8.659h2.135c1.835,0,2.687,0.708,2.687,2.555c0,1.847-0.852,2.555-2.687,2.555
			h-0.647v3.55H141.018z M142.505,143.575h0.575c0.972,0,1.271-0.3,1.271-1.331c0-1.032-0.3-1.332-1.271-1.332h-0.575V143.575z"/>
		<path style="fill:#FFF8DA;" d="M147.005,148.349v-8.659h1.487v7.364h2.339v1.295H147.005z"/>
		<path style="fill:#FFF8DA;" d="M152.668,148.349h-1.438l1.595-8.659h1.847l1.596,8.659h-1.439l-0.264-1.919h-1.631
			L152.668,148.349z M153.149,145.134h1.199l-0.588-3.718h-0.024L153.149,145.134z"/>
		<path style="fill:#FFF8DA;" d="M159.879,148.349h-1.487v-3.598l-1.799-5.061h1.512l1.043,3.298h0.024l0.995-3.298h1.511
			l-1.799,5.061V148.349z"/>
		<path style="fill:#FFF8DA;" d="M162.508,148.349v-8.659h1.487v7.364h2.339v1.295H162.508z"/>
		<path style="fill:#FFF8DA;" d="M167.512,148.349v-8.659H169v8.659H167.512z"/>
		<path style="fill:#FFF8DA;" d="M173.416,141.824c-0.061-0.744-0.456-0.959-0.792-0.959c-0.479,0-0.743,0.312-0.743,0.852
			c0,1.475,3.022,2.183,3.022,4.534c0,1.427-0.96,2.219-2.352,2.219c-1.379,0-2.17-1.104-2.23-2.399l1.415-0.204
			c0.061,0.875,0.408,1.307,0.888,1.307c0.516,0,0.863-0.276,0.863-0.792c0-1.715-3.021-2.171-3.021-4.653
			c0-1.379,0.839-2.159,2.303-2.159c1.211,0,1.931,0.875,2.062,2.099L173.416,141.824z"/>
		<path style="fill:#FFF8DA;" d="M176.956,140.985h-1.438v-1.295h4.365v1.295h-1.439v7.364h-1.487V140.985z"/>
	</g>
</g>
<g id="nyt_x5F_exporter_x5F_info" style="display:none;">
</g>
</svg>
