<?xml version="1.0" encoding="iso-8859-1"?>
<!-- Generator: Adobe Illustrator 17.1.0, SVG Export Plug-In . SVG Version: 6.00 Build 0)  -->
<!DOCTYPE svg PUBLIC "-//W3C//DTD SVG 1.1//EN" "http://www.w3.org/Graphics/SVG/1.1/DTD/svg11.dtd">
<svg version="1.1" xmlns="http://www.w3.org/2000/svg" xmlns:xlink="http://www.w3.org/1999/xlink" x="0px" y="0px"
	 viewBox="0 0 300 187.812" style="enable-background:new 0 0 300 187.812;" xml:space="preserve">
<g id="Layer_1">
	<g>
		<path style="fill:#FFF8DA;" d="M76.453,10.463L78.937,6h1.908l-1.764,4.463h1.62v4.248h-4.248V10.463z M83.112,10.463L85.596,6
			h1.908l-1.764,4.463h1.62v4.248h-4.248V10.463z"/>
		<path style="fill:#FFF8DA;" d="M92.868,32.349V6.36h4.463v25.989H92.868z"/>
		<path style="fill:#FFF8DA;" d="M102.444,32.349V6.36h4.14l5.435,14.866h0.072V6.36h4.031v25.989h-3.887l-5.688-16.234h-0.072
			v16.234H102.444z"/>
		<path style="fill:#FFF8DA;" d="M128.76,12.767c-0.18-2.232-1.368-2.879-2.376-2.879c-1.44,0-2.231,0.936-2.231,2.556
			c0,4.427,9.071,6.551,9.071,13.606c0,4.284-2.88,6.659-7.055,6.659c-4.14,0-6.515-3.312-6.695-7.199l4.248-0.612
			c0.18,2.628,1.224,3.924,2.664,3.924c1.548,0,2.592-0.828,2.592-2.376c0-5.147-9.071-6.515-9.071-13.966
			c0-4.139,2.52-6.479,6.911-6.479c3.635,0,5.795,2.627,6.191,6.299L128.76,12.767z"/>
		<path style="fill:#FFF8DA;" d="M139.38,10.248h-4.319V6.36h13.102v3.888h-4.319v22.101h-4.463V10.248z"/>
		<path style="fill:#FFF8DA;" d="M153.563,32.349h-4.319l4.787-25.989h5.543l4.788,25.989h-4.32l-0.792-5.759h-4.895L153.563,32.349
			z M155.003,22.702h3.599l-1.764-11.158h-0.072L155.003,22.702z"/>
		<path style="fill:#FFF8DA;" d="M167.135,32.349V6.36h4.14l5.435,14.866h0.072V6.36h4.031v25.989h-3.887l-5.688-16.234h-0.072
			v16.234H167.135z"/>
		<path style="fill:#FFF8DA;" d="M187.906,10.248h-4.319V6.36h13.102v3.888h-4.319v22.101h-4.463V10.248z"/>
		<path style="fill:#FFF8DA;" d="M199.283,32.349V6.36h4.463v22.101h7.019v3.888H199.283z"/>
		<path style="fill:#FFF8DA;" d="M221.746,32.349h-4.463V21.55l-5.399-15.19h4.536l3.131,9.899h0.072l2.987-9.899h4.536
			l-5.399,15.19V32.349z"/>
		<path style="fill:#FFF8DA;" d="M9.871,66.349H5.552l4.787-25.989h5.543l4.787,25.989H16.35l-0.792-5.759h-4.895L9.871,66.349z
			 M11.311,56.702h3.6l-1.764-11.158h-0.072L11.311,56.702z"/>
		<path style="fill:#FFF8DA;" d="M26.035,44.248h-4.319V40.36h13.102v3.888h-4.319v22.101h-4.463V44.248z"/>
		<path style="fill:#FFF8DA;" d="M40.219,44.248h-4.319V40.36h13.102v3.888h-4.319v22.101h-4.463V44.248z"/>
		<path style="fill:#FFF8DA;" d="M51.811,66.349V40.36h11.951v3.888h-7.487v6.695h5.759v3.888h-5.759v7.631h7.991v3.888H51.811z"/>
		<path style="fill:#FFF8DA;" d="M67.974,66.349V40.36h4.14l5.435,14.866h0.072V40.36h4.031v25.989h-3.887l-5.688-16.234h-0.072
			v16.234H67.974z"/>
		<path style="fill:#FFF8DA;" d="M88.746,44.248h-4.319V40.36h13.102v3.888h-4.319v22.101h-4.463V44.248z"/>
		<path style="fill:#FFF8DA;" d="M100.95,66.349V40.36h4.463v25.989H100.95z"/>
		<path style="fill:#FFF8DA;" d="M110.526,46.659c0-3.671,2.16-6.659,6.839-6.659c4.679,0,6.839,2.988,6.839,6.659v13.39
			c0,3.672-2.16,6.659-6.839,6.659c-4.68,0-6.839-2.987-6.839-6.659V46.659z M114.989,59.941c0,1.944,0.576,2.88,2.376,2.88
			s2.375-0.936,2.375-2.88V46.767c0-1.944-0.576-2.879-2.375-2.879s-2.376,0.936-2.376,2.879V59.941z"/>
		<path style="fill:#FFF8DA;" d="M128.706,66.349V40.36h4.14l5.435,14.866h0.072V40.36h4.031v25.989h-3.887l-5.688-16.234h-0.072
			v16.234H128.706z"/>
		<path style="fill:#FFF8DA;" d="M161.212,53.174h7.307v13.174h-2.16l-0.828-1.944c-1.332,1.584-2.412,2.304-4.5,2.304
			c-3.527,0-5.975-2.52-5.975-6.659v-13.39c0-3.671,2.16-6.659,6.551-6.659c4.463,0,6.695,3.24,6.695,7.127v1.656h-4.248
			c0-3.887-0.792-4.895-2.556-4.895c-1.08,0-1.98,0.647-1.98,2.843v13.354c0,1.656,0.54,2.736,2.088,2.736
			c1.8,0,2.448-1.008,2.448-3.6v-2.52h-2.844V53.174z"/>
		<path style="fill:#FFF8DA;" d="M177.7,66.349h-4.463V40.36h6.263c5.003,0,7.559,2.124,7.559,7.667c0,4.176-1.62,5.867-3.131,6.551
			l3.779,11.771h-4.536l-3.167-10.763c-0.576,0.072-1.512,0.108-2.304,0.108V66.349z M177.7,52.022h1.584
			c2.412,0,3.312-0.9,3.312-3.996s-0.9-3.996-3.312-3.996H177.7V52.022z"/>
		<path style="fill:#FFF8DA;" d="M194.009,66.349h-4.319l4.787-25.989h5.543l4.787,25.989h-4.319l-0.792-5.759h-4.895
			L194.009,66.349z M195.449,56.702h3.6l-1.764-11.158h-0.072L195.449,56.702z"/>
		<path style="fill:#FFF8DA;" d="M207.58,40.36h6.623c4.788,0,6.911,2.448,6.911,6.875c0,2.232-0.936,4.572-3.095,5.436
			c2.268,1.008,3.599,2.808,3.599,6.155c0,4.283-1.908,7.523-6.983,7.523h-7.055V40.36z M212.044,51.015h1.62
			c1.691,0,2.987-1.152,2.987-3.312c0-2.412-0.936-3.672-2.916-3.672h-1.692V51.015z M212.044,62.677h1.872
			c2.375,0,3.239-1.368,3.239-3.996c0-2.664-1.008-3.996-3.671-3.996h-1.44V62.677z"/>
		<path style="fill:#FFF8DA;" d="M225.76,40.36h6.623c4.788,0,6.911,2.448,6.911,6.875c0,2.232-0.936,4.572-3.095,5.436
			c2.268,1.008,3.599,2.808,3.599,6.155c0,4.283-1.908,7.523-6.983,7.523h-7.055V40.36z M230.224,51.015h1.62
			c1.691,0,2.987-1.152,2.987-3.312c0-2.412-0.936-3.672-2.916-3.672h-1.692V51.015z M230.224,62.677h1.872
			c2.375,0,3.239-1.368,3.239-3.996c0-2.664-1.008-3.996-3.671-3.996h-1.44V62.677z"/>
		<path style="fill:#FFF8DA;" d="M244.552,66.349V40.36h4.463v25.989H244.552z"/>
		<path style="fill:#FFF8DA;" d="M254.128,66.349V40.36h4.14l5.435,14.866h0.072V40.36h4.031v25.989h-3.887l-5.688-16.234h-0.072
			v16.234H254.128z"/>
		<path style="fill:#FFF8DA;" d="M278.464,53.174h7.307v13.174h-2.16l-0.828-1.944c-1.332,1.584-2.412,2.304-4.5,2.304
			c-3.527,0-5.975-2.52-5.975-6.659v-13.39c0-3.671,2.16-6.659,6.551-6.659c4.463,0,6.695,3.24,6.695,7.127v1.656h-4.248
			c0-3.887-0.792-4.895-2.556-4.895c-1.08,0-1.98,0.647-1.98,2.843v13.354c0,1.656,0.54,2.736,2.088,2.736
			c1.8,0,2.448-1.008,2.448-3.6v-2.52h-2.844V53.174z"/>
		<path style="fill:#FFF8DA;" d="M290.2,66.349v-4.248h4.248v4.248H290.2z"/>
		<path style="fill:#FFFFFF;" d="M66.29,80.49h3.25v5.858h-0.96l-0.368-0.864c-0.592,0.704-1.072,1.024-2,1.024
			c-1.569,0-2.657-1.121-2.657-2.961v-5.954c0-1.633,0.96-2.961,2.913-2.961c1.985,0,2.977,1.44,2.977,3.169v0.736h-1.889
			c0-1.729-0.352-2.177-1.136-2.177c-0.48,0-0.88,0.289-0.88,1.265v5.938c0,0.736,0.24,1.216,0.928,1.216
			c0.8,0,1.088-0.448,1.088-1.601v-1.12H66.29V80.49z"/>
		<path style="fill:#FFFFFF;" d="M73.698,86.349h-1.985V74.792h2.785c2.225,0,3.361,0.944,3.361,3.409
			c0,1.857-0.72,2.609-1.393,2.914l1.681,5.234h-2.017l-1.409-4.786c-0.256,0.032-0.672,0.048-1.024,0.048V86.349z M73.698,79.978
			h0.704c1.072,0,1.473-0.4,1.473-1.777c0-1.376-0.4-1.776-1.473-1.776h-0.704V79.978z"/>
		<path style="fill:#FFFFFF;" d="M80.145,86.349V74.792h1.985v11.557H80.145z"/>
		<path style="fill:#FFFFFF;" d="M84.481,86.349V74.792h2.849c2.449,0,3.585,0.944,3.585,3.409c0,2.465-1.137,3.41-3.585,3.41
			h-0.864v4.738H84.481z M86.466,79.978h0.768c1.297,0,1.697-0.4,1.697-1.777c0-1.376-0.4-1.776-1.697-1.776h-0.768V79.978z"/>
		<path style="fill:#FFFFFF;" d="M92.641,86.349V74.792h2.849c2.449,0,3.585,0.944,3.585,3.409c0,2.465-1.137,3.41-3.585,3.41
			h-0.864v4.738H92.641z M94.626,79.978h0.768c1.297,0,1.697-0.4,1.697-1.777c0-1.376-0.4-1.776-1.697-1.776h-0.768V79.978z"/>
		<path style="fill:#FFFFFF;" d="M101.073,86.349V74.792h1.985v11.557H101.073z"/>
		<path style="fill:#FFFFFF;" d="M105.409,86.349V74.792h1.841l2.417,6.611h0.032v-6.611h1.793v11.557h-1.729l-2.529-7.219h-0.032
			v7.219H105.409z"/>
		<path style="fill:#FFFFFF;" d="M116.306,80.49h3.25v5.858h-0.96l-0.368-0.864c-0.592,0.704-1.072,1.024-2,1.024
			c-1.569,0-2.657-1.121-2.657-2.961v-5.954c0-1.633,0.96-2.961,2.913-2.961c1.985,0,2.977,1.44,2.977,3.169v0.736h-1.889
			c0-1.729-0.352-2.177-1.136-2.177c-0.48,0-0.88,0.289-0.88,1.265v5.938c0,0.736,0.24,1.216,0.928,1.216
			c0.8,0,1.088-0.448,1.088-1.601v-1.12h-1.265V80.49z"/>
		<path style="fill:#FFFFFF;" d="M126.594,86.349h-1.921l2.129-11.557h2.465l2.128,11.557h-1.92l-0.352-2.561h-2.177L126.594,86.349
			z M127.234,82.059h1.601l-0.785-4.962h-0.032L127.234,82.059z"/>
		<path style="fill:#FFFFFF;" d="M132.705,86.349V74.792h1.841l2.417,6.611h0.032v-6.611h1.793v11.557h-1.729l-2.529-7.219h-0.032
			v7.219H132.705z"/>
		<path style="fill:#FFFFFF;" d="M140.865,74.792h2.945c2.049,0,3.137,1.121,3.137,3.489v4.578c0,2.369-1.088,3.489-3.137,3.489
			h-2.945V74.792z M142.849,84.716h0.688c1.057,0,1.425-0.4,1.425-1.617v-5.058c0-1.217-0.368-1.617-1.425-1.617h-0.688V84.716z"/>
		<path style="fill:#FFFFFF;" d="M153.889,86.349h-1.921l2.129-11.557h2.465l2.129,11.557h-1.921l-0.352-2.561h-2.177
			L153.889,86.349z M154.529,82.059h1.601l-0.784-4.962h-0.032L154.529,82.059z"/>
		<path style="fill:#FFFFFF;" d="M161.153,76.521h-1.921v-1.729h5.827v1.729h-1.921v9.828h-1.985V76.521z"/>
		<path style="fill:#FFFFFF;" d="M174.339,74.792v11.557h-1.729v-9.028h-0.032l-1.792,9.028h-0.96l-1.793-9.028H168v9.028h-1.729
			V74.792h2.609l1.408,6.755h0.032l1.409-6.755H174.339z"/>
		<path style="fill:#FFFFFF;" d="M176.32,77.593c0-1.633,0.96-2.961,3.041-2.961c2.081,0,3.042,1.329,3.042,2.961v5.954
			c0,1.633-0.96,2.961-3.042,2.961c-2.081,0-3.041-1.329-3.041-2.961V77.593z M178.304,83.5c0,0.864,0.256,1.28,1.056,1.28
			s1.057-0.416,1.057-1.28v-5.858c0-0.864-0.256-1.281-1.057-1.281s-1.056,0.417-1.056,1.281V83.5z"/>
		<path style="fill:#FFFFFF;" d="M188.097,77.641c-0.08-0.992-0.608-1.281-1.056-1.281c-0.64,0-0.993,0.417-0.993,1.137
			c0,1.969,4.034,2.913,4.034,6.05c0,1.905-1.28,2.961-3.137,2.961c-1.841,0-2.897-1.473-2.977-3.201l1.889-0.272
			c0.08,1.168,0.544,1.745,1.185,1.745c0.688,0,1.152-0.368,1.152-1.056c0-2.289-4.034-2.897-4.034-6.21
			c0-1.841,1.121-2.881,3.073-2.881c1.617,0,2.577,1.168,2.753,2.801L188.097,77.641z"/>
		<path style="fill:#FFFFFF;" d="M191.743,86.349V74.792h2.849c2.449,0,3.585,0.944,3.585,3.409c0,2.465-1.137,3.41-3.585,3.41
			h-0.864v4.738H191.743z M193.728,79.978h0.768c1.297,0,1.697-0.4,1.697-1.777c0-1.376-0.4-1.776-1.697-1.776h-0.768V79.978z"/>
		<path style="fill:#FFFFFF;" d="M199.904,86.349V74.792h1.985v4.706h2.113v-4.706h1.985v11.557h-1.985v-5.122h-2.113v5.122H199.904
			z"/>
		<path style="fill:#FFFFFF;" d="M208.064,86.349V74.792h5.314v1.729h-3.329v2.978h2.561v1.729h-2.561v3.394h3.553v1.729H208.064z"
			/>
		<path style="fill:#FFFFFF;" d="M217.312,86.349h-1.985V74.792h2.785c2.225,0,3.361,0.944,3.361,3.409
			c0,1.857-0.72,2.609-1.393,2.914l1.681,5.234h-2.017l-1.409-4.786c-0.256,0.032-0.672,0.048-1.024,0.048V86.349z M217.312,79.978
			h0.704c1.072,0,1.473-0.4,1.473-1.777c0-1.376-0.4-1.776-1.473-1.776h-0.704V79.978z"/>
		<path style="fill:#FFFFFF;" d="M223.759,86.349V74.792h1.985v11.557H223.759z"/>
		<path style="fill:#FFFFFF;" d="M232.097,78.649v-0.896c0-0.976-0.448-1.393-0.96-1.393c-0.8,0-1.056,0.417-1.056,1.281V83.5
			c0,0.864,0.256,1.28,1.056,1.28c0.72,0,0.96-0.416,0.96-1.168v-1.393h1.985v1.329c0,1.633-0.96,2.961-2.945,2.961
			c-2.081,0-3.041-1.329-3.041-2.961v-5.954c0-1.633,0.96-2.961,3.041-2.961c1.985,0,2.945,1.44,2.945,3.169v0.848H232.097z"/>
		<path style="fill:#FFFFFF;" d="M236.127,86.349V84.46h1.889v1.889H236.127z"/>
		<path style="fill:#FFFFFF;" d="M82.89,106.349h-1.921l2.129-11.557h2.465l2.129,11.557h-1.921l-0.352-2.561h-2.177L82.89,106.349z
			 M83.53,102.059h1.601l-0.784-4.962h-0.032L83.53,102.059z"/>
		<path style="fill:#FFFFFF;" d="M96.714,98.649v-0.896c0-0.976-0.448-1.393-0.96-1.393c-0.8,0-1.056,0.417-1.056,1.281v5.858
			c0,0.864,0.256,1.28,1.056,1.28c0.72,0,0.96-0.416,0.96-1.168v-1.393h1.985v1.329c0,1.633-0.96,2.961-2.945,2.961
			c-2.081,0-3.041-1.329-3.041-2.961v-5.954c0-1.633,0.96-2.961,3.041-2.961c1.985,0,2.945,1.44,2.945,3.169v0.848H96.714z"/>
		<path style="fill:#FFFFFF;" d="M100.873,97.593c0-1.633,0.96-2.961,3.041-2.961c2.081,0,3.042,1.329,3.042,2.961v5.954
			c0,1.633-0.96,2.961-3.042,2.961c-2.081,0-3.041-1.329-3.041-2.961V97.593z M102.858,103.5c0,0.864,0.256,1.28,1.056,1.28
			s1.057-0.416,1.057-1.28v-5.858c0-0.864-0.256-1.281-1.057-1.281s-1.056,0.417-1.056,1.281V103.5z"/>
		<path style="fill:#FFFFFF;" d="M116.988,94.792v11.557h-1.729v-9.028h-0.032l-1.792,9.028h-0.96l-1.793-9.028h-0.032v9.028h-1.729
			V94.792h2.609l1.408,6.755h0.032l1.409-6.755H116.988z"/>
		<path style="fill:#FFFFFF;" d="M118.969,106.349V94.792h2.849c2.449,0,3.585,0.944,3.585,3.409c0,2.465-1.137,3.41-3.585,3.41
			h-0.864v4.738H118.969z M120.953,99.978h0.768c1.297,0,1.697-0.4,1.697-1.777c0-1.376-0.4-1.776-1.697-1.776h-0.768V99.978z"/>
		<path style="fill:#FFFFFF;" d="M127.129,106.349V94.792h5.314v1.729h-3.329v2.978h2.561v1.729h-2.561v3.394h3.553v1.729H127.129z"
			/>
		<path style="fill:#FFFFFF;" d="M134.297,106.349V94.792h1.985v9.828h3.121v1.729H134.297z"/>
		<path style="fill:#FFFFFF;" d="M140.68,106.349V94.792h1.985v9.828h3.121v1.729H140.68z"/>
		<path style="fill:#FFFFFF;" d="M147.432,106.349V94.792h1.985v11.557H147.432z"/>
		<path style="fill:#FFFFFF;" d="M151.768,106.349V94.792h1.841l2.417,6.611h0.032v-6.611h1.793v11.557h-1.729l-2.529-7.219h-0.032
			v7.219H151.768z"/>
		<path style="fill:#FFFFFF;" d="M162.665,100.49h3.25v5.858h-0.96l-0.368-0.864c-0.592,0.704-1.072,1.024-2,1.024
			c-1.569,0-2.657-1.121-2.657-2.961v-5.954c0-1.633,0.96-2.961,2.913-2.961c1.985,0,2.977,1.44,2.977,3.169v0.736h-1.889
			c0-1.729-0.352-2.177-1.136-2.177c-0.48,0-0.88,0.289-0.88,1.265v5.938c0,0.736,0.24,1.216,0.928,1.216
			c0.8,0,1.088-0.448,1.088-1.601v-1.12h-1.265V100.49z"/>
		<path style="fill:#FFFFFF;" d="M167.992,106.349V94.792h1.985v9.828h3.121v1.729H167.992z"/>
		<path style="fill:#FFFFFF;" d="M178.057,106.349h-1.985v-4.802l-2.401-6.755h2.017l1.393,4.402h0.032l1.329-4.402h2.017
			l-2.401,6.755V106.349z"/>
		<path style="fill:#FFFFFF;" d="M185.447,106.349V94.792h1.841l2.417,6.611h0.032v-6.611h1.793v11.557h-1.729l-2.529-7.219h-0.032
			v7.219H185.447z"/>
		<path style="fill:#FFFFFF;" d="M194.76,106.349h-1.921l2.129-11.557h2.465l2.128,11.557h-1.92l-0.352-2.561h-2.177L194.76,106.349
			z M195.4,102.059h1.601l-0.785-4.962h-0.032L195.4,102.059z"/>
		<path style="fill:#FFFFFF;" d="M204.488,97.641c-0.08-0.992-0.608-1.281-1.056-1.281c-0.64,0-0.993,0.417-0.993,1.137
			c0,1.969,4.034,2.913,4.034,6.05c0,1.905-1.28,2.961-3.137,2.961c-1.841,0-2.897-1.473-2.977-3.201l1.889-0.272
			c0.08,1.168,0.544,1.745,1.185,1.745c0.688,0,1.152-0.368,1.152-1.056c0-2.289-4.034-2.897-4.034-6.21
			c0-1.841,1.121-2.881,3.073-2.881c1.617,0,2.577,1.168,2.753,2.801L204.488,97.641z"/>
		<path style="fill:#FFFFFF;" d="M209.286,96.521h-1.921v-1.729h5.827v1.729h-1.921v9.828h-1.985V96.521z"/>
		<path style="fill:#FFFFFF;" d="M218.103,106.349h-1.985v-4.802l-2.401-6.755h2.017l1.393,4.402h0.032l1.329-4.402h2.017
			l-2.401,6.755V106.349z"/>
		<path style="fill:#FFFFFF;" d="M85.268,114.792h1.953l-2.417,11.557h-1.985l-2.417-11.557h1.953l1.441,8.019h0.032L85.268,114.792
			z"/>
		<path style="fill:#FFFFFF;" d="M88.754,126.349v-11.557h1.985v11.557H88.754z"/>
		<path style="fill:#FFFFFF;" d="M96.707,117.641c-0.08-0.992-0.608-1.281-1.056-1.281c-0.64,0-0.993,0.417-0.993,1.137
			c0,1.969,4.034,2.913,4.034,6.05c0,1.905-1.28,2.961-3.137,2.961c-1.841,0-2.897-1.473-2.977-3.201l1.889-0.272
			c0.08,1.168,0.544,1.745,1.185,1.745c0.688,0,1.152-0.368,1.152-1.056c0-2.289-4.034-2.897-4.034-6.21
			c0-1.841,1.121-2.881,3.073-2.881c1.617,0,2.577,1.168,2.753,2.801L96.707,117.641z"/>
		<path style="fill:#FFFFFF;" d="M100.625,126.349v-11.557h1.985v11.557H100.625z"/>
		<path style="fill:#FFFFFF;" d="M104.962,117.593c0-1.633,0.96-2.961,3.041-2.961c2.081,0,3.042,1.329,3.042,2.961v5.954
			c0,1.633-0.96,2.961-3.042,2.961c-2.081,0-3.041-1.329-3.041-2.961V117.593z M106.947,123.5c0,0.864,0.256,1.28,1.056,1.28
			s1.057-0.416,1.057-1.28v-5.858c0-0.864-0.256-1.281-1.057-1.281s-1.056,0.417-1.056,1.281V123.5z"/>
		<path style="fill:#FFFFFF;" d="M113.121,126.349v-11.557h1.841l2.417,6.611h0.032v-6.611h1.793v11.557h-1.729l-2.529-7.219h-0.032
			v7.219H113.121z"/>
		<path style="fill:#FFFFFF;" d="M124.993,117.593c0-1.633,0.96-2.961,3.041-2.961c2.081,0,3.042,1.329,3.042,2.961v5.954
			c0,1.633-0.96,2.961-3.042,2.961c-2.081,0-3.041-1.329-3.041-2.961V117.593z M126.978,123.5c0,0.864,0.256,1.28,1.056,1.28
			s1.057-0.416,1.057-1.28v-5.858c0-0.864-0.256-1.281-1.057-1.281s-1.056,0.417-1.056,1.281V123.5z"/>
		<path style="fill:#FFFFFF;" d="M133.153,126.349v-11.557h5.538v1.729h-3.553v2.978h2.657v1.729h-2.657v5.122H133.153z"/>
		<path style="fill:#FFFFFF;" d="M145.281,116.521h-1.921v-1.729h5.827v1.729h-1.921v9.828h-1.985V116.521z"/>
		<path style="fill:#FFFFFF;" d="M150.512,126.349v-11.557h1.985v4.706h2.113v-4.706h1.985v11.557h-1.985v-5.122h-2.113v5.122
			H150.512z"/>
		<path style="fill:#FFFFFF;" d="M158.672,126.349v-11.557h5.314v1.729h-3.329v2.978h2.561v1.729h-2.561v3.394h3.553v1.729H158.672z
			"/>
		<path style="fill:#FFFFFF;" d="M169.648,126.349v-11.557h5.538v1.729h-3.553v2.978h2.657v1.729h-2.657v5.122H169.648z"/>
		<path style="fill:#FFFFFF;" d="M176.911,114.792h1.985v8.724c0,0.848,0.336,1.264,1.056,1.264s1.057-0.416,1.057-1.264v-8.724
			h1.985v8.644c0,1.985-1.153,3.073-3.042,3.073s-3.041-1.088-3.041-3.073V114.792z"/>
		<path style="fill:#FFFFFF;" d="M186.223,116.521h-1.921v-1.729h5.827v1.729h-1.921v9.828h-1.985V116.521z"/>
		<path style="fill:#FFFFFF;" d="M191.455,114.792h1.985v8.724c0,0.848,0.336,1.264,1.056,1.264s1.057-0.416,1.057-1.264v-8.724
			h1.985v8.644c0,1.985-1.153,3.073-3.042,3.073s-3.041-1.088-3.041-3.073V114.792z"/>
		<path style="fill:#FFFFFF;" d="M201.599,126.349h-1.985v-11.557h2.785c2.225,0,3.361,0.944,3.361,3.409
			c0,1.857-0.72,2.609-1.393,2.914l1.681,5.234h-2.017l-1.408-4.786c-0.256,0.032-0.672,0.048-1.024,0.048V126.349z
			 M201.599,119.978h0.704c1.072,0,1.473-0.4,1.473-1.777c0-1.376-0.4-1.776-1.473-1.776h-0.704V119.978z"/>
		<path style="fill:#FFFFFF;" d="M207.775,126.349v-11.557h5.314v1.729h-3.329v2.978h2.561v1.729h-2.561v3.394h3.553v1.729H207.775z
			"/>
		<path style="fill:#FFFFFF;" d="M217.103,116.681l-1.104,1.985h-0.849l0.785-1.985h-0.721v-1.889h1.889V116.681z M220.064,116.681
			l-1.104,1.985h-0.848l0.784-1.985h-0.72v-1.889h1.889V116.681z"/>
		<path style="fill:#FFF8DA;" d="M117.42,148.349v-8.659h3.982v1.295h-2.495v2.23h1.919v1.295h-1.919v2.542h2.663v1.295H117.42z"/>
		<path style="fill:#FFF8DA;" d="M128.768,139.689v8.659h-1.295v-6.764h-0.024l-1.343,6.764h-0.719l-1.343-6.764h-0.024v6.764
			h-1.295v-8.659h1.955l1.056,5.061h0.024l1.056-5.061H128.768z"/>
		<path style="fill:#FFF8DA;" d="M130.2,148.349v-8.659h2.135c1.835,0,2.687,0.708,2.687,2.555c0,1.847-0.852,2.555-2.687,2.555
			h-0.647v3.55H130.2z M131.687,143.575h0.575c0.972,0,1.271-0.3,1.271-1.331c0-1.032-0.3-1.332-1.271-1.332h-0.575V143.575z"/>
		<path style="fill:#FFF8DA;" d="M136.464,148.349v-8.659h1.487v8.659H136.464z"/>
		<path style="fill:#FFF8DA;" d="M141.143,148.349h-1.487v-8.659h2.087c1.667,0,2.519,0.708,2.519,2.555
			c0,1.391-0.54,1.955-1.043,2.183l1.259,3.922h-1.511l-1.055-3.586c-0.192,0.024-0.504,0.036-0.768,0.036V148.349z
			 M141.143,143.575h0.527c0.804,0,1.104-0.3,1.104-1.331c0-1.032-0.3-1.332-1.104-1.332h-0.527V143.575z"/>
		<path style="fill:#FFF8DA;" d="M145.716,148.349v-8.659h3.981v1.295h-2.494v2.23h1.919v1.295h-1.919v2.542h2.662v1.295H145.716z"
			/>
		<path style="fill:#FFF8DA;" d="M153.827,141.788c0-1.223,0.72-2.219,2.279-2.219s2.279,0.996,2.279,2.219v4.462
			c0,1.223-0.72,2.219-2.279,2.219s-2.279-0.996-2.279-2.219V141.788z M155.314,146.214c0,0.647,0.191,0.959,0.792,0.959
			c0.6,0,0.792-0.312,0.792-0.959v-4.39c0-0.647-0.192-0.959-0.792-0.959c-0.6,0-0.792,0.312-0.792,0.959V146.214z"/>
		<path style="fill:#FFF8DA;" d="M159.887,148.349v-8.659h1.379l1.811,4.953h0.024v-4.953h1.343v8.659h-1.295l-1.895-5.409h-0.024
			v5.409H159.887z"/>
		<path style="fill:#FFF8DA;" d="M165.875,148.349v-8.659h1.487v7.364h2.339v1.295H165.875z"/>
		<path style="fill:#FFF8DA;" d="M170.879,148.349v-8.659h1.487v8.659H170.879z"/>
		<path style="fill:#FFF8DA;" d="M174.071,148.349v-8.659h1.379l1.811,4.953h0.024v-4.953h1.344v8.659h-1.295l-1.895-5.409h-0.024
			v5.409H174.071z"/>
		<path style="fill:#FFF8DA;" d="M180.131,148.349v-8.659h3.982v1.295h-2.495v2.23h1.919v1.295h-1.919v2.542h2.663v1.295H180.131z"
			/>
	</g>
</g>
<g id="nyt_x5F_exporter_x5F_info" style="display:none;">
</g>
</svg>
