<?xml version="1.0" encoding="iso-8859-1"?>
<!-- Generator: Adobe Illustrator 17.1.0, SVG Export Plug-In . SVG Version: 6.00 Build 0)  -->
<!DOCTYPE svg PUBLIC "-//W3C//DTD SVG 1.1//EN" "http://www.w3.org/Graphics/SVG/1.1/DTD/svg11.dtd">
<svg version="1.1" xmlns="http://www.w3.org/2000/svg" xmlns:xlink="http://www.w3.org/1999/xlink" x="0px" y="0px"
	 viewBox="0 0 300 187.812" style="enable-background:new 0 0 300 187.812;" xml:space="preserve">
<g id="Layer_1">
	<g>
		<path style="fill:#FFF8DA;" d="M16.282,10.463L18.766,6h1.908l-1.764,4.463h1.62v4.248h-4.248V10.463z M22.941,10.463L25.425,6
			h1.908l-1.764,4.463h1.62v4.248h-4.248V10.463z"/>
		<path style="fill:#FFF8DA;" d="M34.281,32.349h-4.319L34.749,6.36h5.543l4.788,25.989h-4.32l-0.792-5.759h-4.895L34.281,32.349z
			 M35.721,22.702h3.599l-1.764-11.158h-0.072L35.721,22.702z"/>
		<path style="fill:#FFF8DA;" d="M73.122,6.36v25.989h-3.887V12.047h-0.072l-4.031,20.301h-2.16L58.94,12.047h-0.072v20.301H54.98
			V6.36h5.867l3.168,15.19h0.072l3.167-15.19H73.122z"/>
		<path style="fill:#FFF8DA;" d="M77.012,12.659c0-3.671,2.16-6.659,6.839-6.659c4.679,0,6.839,2.988,6.839,6.659v13.39
			c0,3.672-2.16,6.659-6.839,6.659c-4.68,0-6.839-2.987-6.839-6.659V12.659z M81.476,25.941c0,1.944,0.576,2.88,2.376,2.88
			s2.375-0.936,2.375-2.88V12.767c0-1.944-0.576-2.879-2.375-2.879s-2.376,0.936-2.376,2.879V25.941z"/>
		<path style="fill:#FFF8DA;" d="M102.931,12.767c-0.18-2.232-1.368-2.879-2.376-2.879c-1.44,0-2.231,0.936-2.231,2.556
			c0,4.427,9.071,6.551,9.071,13.606c0,4.284-2.88,6.659-7.055,6.659c-4.14,0-6.515-3.312-6.695-7.199l4.248-0.612
			c0.18,2.628,1.224,3.924,2.664,3.924c1.548,0,2.592-0.828,2.592-2.376c0-5.147-9.071-6.515-9.071-13.966
			c0-4.139,2.52-6.479,6.911-6.479c3.635,0,5.795,2.627,6.191,6.299L102.931,12.767z"/>
		<path style="fill:#FFF8DA;" d="M113.155,10.248h-4.319V6.36h13.102v3.888h-4.319v22.101h-4.463V10.248z"/>
		<path style="fill:#FFF8DA;" d="M132.739,32.349V6.36h4.463v25.989H132.739z"/>
		<path style="fill:#FFF8DA;" d="M159.809,6.36v25.989h-3.887V12.047h-0.072l-4.031,20.301h-2.16l-4.032-20.301h-0.072v20.301
			h-3.888V6.36h5.867l3.168,15.19h0.072l3.167-15.19H159.809z"/>
		<path style="fill:#FFF8DA;" d="M163.698,32.349V6.36h6.407c5.507,0,8.063,2.124,8.063,7.667s-2.556,7.667-8.063,7.667h-1.944
			v10.655H163.698z M168.162,18.022h1.728c2.916,0,3.815-0.9,3.815-3.996s-0.9-3.996-3.815-3.996h-1.728V18.022z"/>
		<path style="fill:#FFF8DA;" d="M185.946,32.349h-4.463V6.36h6.263c5.003,0,7.559,2.124,7.559,7.667
			c0,4.176-1.62,5.867-3.131,6.551l3.779,11.771h-4.536l-3.167-10.763c-0.576,0.072-1.512,0.108-2.304,0.108V32.349z
			 M185.946,18.022h1.584c2.412,0,3.312-0.9,3.312-3.996s-0.9-3.996-3.312-3.996h-1.584V18.022z"/>
		<path style="fill:#FFF8DA;" d="M199.267,32.349V6.36h11.951v3.888h-7.487v6.695h5.759v3.888h-5.759v7.631h7.991v3.888H199.267z"/>
		<path style="fill:#FFF8DA;" d="M223.169,12.767c-0.18-2.232-1.368-2.879-2.376-2.879c-1.44,0-2.231,0.936-2.231,2.556
			c0,4.427,9.071,6.551,9.071,13.606c0,4.284-2.88,6.659-7.055,6.659c-4.14,0-6.515-3.312-6.695-7.199l4.248-0.612
			c0.18,2.628,1.224,3.924,2.664,3.924c1.548,0,2.592-0.828,2.592-2.376c0-5.147-9.071-6.515-9.071-13.966
			c0-4.139,2.52-6.479,6.911-6.479c3.635,0,5.795,2.627,6.191,6.299L223.169,12.767z"/>
		<path style="fill:#FFF8DA;" d="M238.937,12.767c-0.18-2.232-1.368-2.879-2.376-2.879c-1.44,0-2.231,0.936-2.231,2.556
			c0,4.427,9.071,6.551,9.071,13.606c0,4.284-2.88,6.659-7.055,6.659c-4.14,0-6.515-3.312-6.695-7.199l4.248-0.612
			c0.18,2.628,1.224,3.924,2.664,3.924c1.548,0,2.592-0.828,2.592-2.376c0-5.147-9.071-6.515-9.071-13.966
			c0-4.139,2.52-6.479,6.911-6.479c3.635,0,5.795,2.627,6.191,6.299L238.937,12.767z"/>
		<path style="fill:#FFF8DA;" d="M247.18,32.349V6.36h4.463v25.989H247.18z"/>
		<path style="fill:#FFF8DA;" d="M265.467,6.36h4.392l-5.436,25.989h-4.463L254.524,6.36h4.392l3.24,18.034h0.072L265.467,6.36z"/>
		<path style="fill:#FFF8DA;" d="M272.128,32.349V6.36h11.951v3.888h-7.487v6.695h5.759v3.888h-5.759v7.631h7.991v3.888H272.128z"/>
		<path style="fill:#FFF8DA;" d="M5.122,66.349V40.36h6.407c5.507,0,8.063,2.124,8.063,7.667s-2.556,7.667-8.063,7.667H9.585v10.655
			H5.122z M9.585,52.022h1.728c2.916,0,3.815-0.9,3.815-3.996s-0.9-3.996-3.815-3.996H9.585V52.022z"/>
		<path style="fill:#FFF8DA;" d="M23.518,66.349V40.36h4.463v25.989H23.518z"/>
		<path style="fill:#FFF8DA;" d="M32.697,66.349V40.36h11.951v3.888h-7.487v6.695h5.759v3.888h-5.759v7.631h7.991v3.888H32.697z"/>
		<path style="fill:#FFF8DA;" d="M57.464,49.035v-2.016c0-2.196-1.008-3.131-2.16-3.131c-1.8,0-2.376,0.936-2.376,2.879v13.174
			c0,1.944,0.576,2.88,2.376,2.88c1.62,0,2.16-0.936,2.16-2.628v-3.131h4.463v2.987c0,3.672-2.16,6.659-6.623,6.659
			c-4.68,0-6.839-2.987-6.839-6.659v-13.39c0-3.671,2.16-6.659,6.839-6.659c4.463,0,6.623,3.24,6.623,7.127v1.908H57.464z"/>
		<path style="fill:#FFF8DA;" d="M66.249,66.349V40.36H78.2v3.888h-7.487v6.695h5.759v3.888h-5.759v7.631h7.991v3.888H66.249z"/>
		<path style="fill:#FFF8DA;" d="M89.792,46.659c0-3.671,2.16-6.659,6.839-6.659c4.679,0,6.839,2.988,6.839,6.659v13.39
			c0,3.672-2.16,6.659-6.839,6.659c-4.68,0-6.839-2.987-6.839-6.659V46.659z M94.255,59.941c0,1.944,0.576,2.88,2.376,2.88
			s2.375-0.936,2.375-2.88V46.767c0-1.944-0.576-2.879-2.375-2.879s-2.376,0.936-2.376,2.879V59.941z"/>
		<path style="fill:#FFF8DA;" d="M107.575,66.349V40.36h12.455v3.888h-7.991v6.695h5.976v3.888h-5.976v11.519H107.575z"/>
		<path style="fill:#FFF8DA;" d="M131.118,66.349V40.36h12.455v3.888h-7.991v6.695h5.976v3.888h-5.976v11.519H131.118z"/>
		<path style="fill:#FFF8DA;" d="M147.497,66.349V40.36h4.463v25.989H147.497z"/>
		<path style="fill:#FFF8DA;" d="M156.461,66.349V40.36h4.463v22.101h7.019v3.888H156.461z"/>
		<path style="fill:#FFF8DA;" d="M188.355,40.36v25.989h-3.887V46.047h-0.072l-4.031,20.301h-2.16l-4.032-20.301h-0.072v20.301
			h-3.888V40.36h5.867l3.167,15.19h0.072l3.167-15.19H188.355z"/>
		<path style="fill:#FFF8DA;" d="M210.134,40.36v25.989h-3.887V46.047h-0.072l-4.031,20.301h-2.16l-4.032-20.301h-0.072v20.301
			h-3.888V40.36h5.867l3.167,15.19h0.072l3.167-15.19H210.134z"/>
		<path style="fill:#FFF8DA;" d="M216.616,66.349h-4.319l4.787-25.989h5.543l4.788,25.989h-4.32l-0.792-5.759h-4.895L216.616,66.349
			z M218.056,56.702h3.599l-1.764-11.158h-0.072L218.056,56.702z"/>
		<path style="fill:#FFF8DA;" d="M229.576,66.349V40.36h4.463v9.611h0.072l4.68-9.611h4.463l-4.823,9.683l5.435,16.306h-4.535
			l-3.636-12.095h-0.072l-1.584,2.88v9.215H229.576z"/>
		<path style="fill:#FFF8DA;" d="M246.171,66.349V40.36h4.463v25.989H246.171z"/>
		<path style="fill:#FFF8DA;" d="M255.351,66.349V40.36h4.14l5.435,14.866h0.072V40.36h4.031v25.989h-3.887l-5.688-16.234h-0.072
			v16.234H255.351z"/>
		<path style="fill:#FFF8DA;" d="M279.29,53.174h7.307v13.174h-2.16l-0.828-1.944c-1.332,1.584-2.412,2.304-4.5,2.304
			c-3.527,0-5.975-2.52-5.975-6.659v-13.39c0-3.671,2.16-6.659,6.551-6.659c4.463,0,6.695,3.24,6.695,7.127v1.656h-4.248
			c0-3.887-0.792-4.895-2.556-4.895c-1.08,0-1.98,0.647-1.98,2.843v13.354c0,1.656,0.54,2.736,2.088,2.736
			c1.8,0,2.448-1.008,2.448-3.6v-2.52h-2.844V53.174z"/>
		<path style="fill:#FFF8DA;" d="M294.878,66.349l-2.483,4.463h-1.908l1.764-4.463h-1.62v-4.248h4.248V66.349z"/>
		<path style="fill:#FFFFFF;" d="M76.091,76.521H74.17v-1.729h5.827v1.729h-1.921v9.828h-1.985V76.521z"/>
		<path style="fill:#FFFFFF;" d="M81.323,86.349V74.792h5.314v1.729h-3.329v2.978h2.561v1.729h-2.561v3.394h3.553v1.729H81.323z"/>
		<path style="fill:#FFFFFF;" d="M88.586,86.349V74.792h1.841l2.417,6.611h0.032v-6.611h1.793v11.557h-1.729l-2.529-7.219h-0.032
			v7.219H88.586z"/>
		<path style="fill:#FFFFFF;" d="M100.363,77.641c-0.08-0.992-0.608-1.281-1.056-1.281c-0.64,0-0.993,0.417-0.993,1.137
			c0,1.969,4.034,2.913,4.034,6.05c0,1.905-1.28,2.961-3.137,2.961c-1.841,0-2.897-1.473-2.977-3.201l1.889-0.272
			c0.08,1.168,0.544,1.745,1.185,1.745c0.688,0,1.152-0.368,1.152-1.056c0-2.289-4.034-2.897-4.034-6.21
			c0-1.841,1.121-2.881,3.073-2.881c1.617,0,2.577,1.168,2.753,2.801L100.363,77.641z"/>
		<path style="fill:#FFFFFF;" d="M104.01,86.349V74.792h5.314v1.729h-3.329v2.978h2.561v1.729h-2.561v3.394h3.553v1.729H104.01z"/>
		<path style="fill:#FFFFFF;" d="M116.137,86.349h-1.921l2.129-11.557h2.465l2.129,11.557h-1.921l-0.352-2.561h-2.177
			L116.137,86.349z M116.777,82.059h1.601l-0.784-4.962h-0.032L116.777,82.059z"/>
		<path style="fill:#FFFFFF;" d="M122.249,86.349V74.792h1.841l2.417,6.611h0.032v-6.611h1.793v11.557h-1.729l-2.529-7.219h-0.032
			v7.219H122.249z"/>
		<path style="fill:#FFFFFF;" d="M130.408,74.792h2.945c2.049,0,3.137,1.121,3.137,3.489v4.578c0,2.369-1.088,3.489-3.137,3.489
			h-2.945V74.792z M132.393,84.716h0.688c1.057,0,1.425-0.4,1.425-1.617v-5.058c0-1.217-0.368-1.617-1.425-1.617h-0.688V84.716z"/>
		<path style="fill:#FFFFFF;" d="M142.28,74.792h1.985v8.724c0,0.848,0.336,1.264,1.056,1.264s1.057-0.416,1.057-1.264v-8.724h1.985
			v8.644c0,1.985-1.153,3.073-3.042,3.073s-3.041-1.088-3.041-3.073V74.792z"/>
		<path style="fill:#FFFFFF;" d="M150.44,86.349V74.792h1.841l2.417,6.611h0.032v-6.611h1.793v11.557h-1.729l-2.529-7.219h-0.032
			v7.219H150.44z"/>
		<path style="fill:#FFFFFF;" d="M160.585,86.349H158.6V74.792h2.785c2.225,0,3.361,0.944,3.361,3.409
			c0,1.857-0.72,2.609-1.393,2.914l1.681,5.234h-2.017l-1.408-4.786c-0.256,0.032-0.672,0.048-1.024,0.048V86.349z M160.585,79.978
			h0.704c1.072,0,1.473-0.4,1.473-1.777c0-1.376-0.4-1.776-1.473-1.776h-0.704V79.978z"/>
		<path style="fill:#FFFFFF;" d="M166.76,86.349V74.792h5.314v1.729h-3.329v2.978h2.561v1.729h-2.561v3.394h3.553v1.729H166.76z"/>
		<path style="fill:#FFFFFF;" d="M173.928,86.349V74.792h1.985v9.828h3.121v1.729H173.928z"/>
		<path style="fill:#FFFFFF;" d="M180.407,86.349V74.792h5.314v1.729h-3.329v2.978h2.561v1.729h-2.561v3.394h3.553v1.729H180.407z"
			/>
		<path style="fill:#FFFFFF;" d="M187.671,86.349V74.792h1.841l2.417,6.611h0.032v-6.611h1.793v11.557h-1.729l-2.529-7.219h-0.032
			v7.219H187.671z"/>
		<path style="fill:#FFFFFF;" d="M196.983,76.521h-1.921v-1.729h5.827v1.729h-1.921v9.828h-1.985V76.521z"/>
		<path style="fill:#FFFFFF;" d="M202.486,86.349V74.792h1.985v11.557H202.486z"/>
		<path style="fill:#FFFFFF;" d="M206.823,86.349V74.792h1.841l2.417,6.611h0.032v-6.611h1.793v11.557h-1.729l-2.529-7.219h-0.032
			v7.219H206.823z"/>
		<path style="fill:#FFFFFF;" d="M217.72,80.49h3.25v5.858h-0.96l-0.368-0.864c-0.592,0.704-1.072,1.024-2,1.024
			c-1.569,0-2.657-1.121-2.657-2.961v-5.954c0-1.633,0.96-2.961,2.913-2.961c1.985,0,2.977,1.44,2.977,3.169v0.736h-1.889
			c0-1.729-0.352-2.177-1.136-2.177c-0.48,0-0.88,0.289-0.88,1.265v5.938c0,0.736,0.24,1.216,0.928,1.216
			c0.8,0,1.088-0.448,1.088-1.601v-1.12h-1.265V80.49z"/>
		<path style="fill:#FFFFFF;" d="M224.903,86.349l-1.104,1.985h-0.849l0.785-1.985h-0.72V84.46h1.889V86.349z"/>
		<path style="fill:#FFFFFF;" d="M81.491,96.521H79.57v-1.729h5.827v1.729h-1.921v9.828h-1.985V96.521z"/>
		<path style="fill:#FFFFFF;" d="M86.722,106.349V94.792h1.985v4.706h2.113v-4.706h1.985v11.557H90.82v-5.122h-2.113v5.122H86.722z"
			/>
		<path style="fill:#FFFFFF;" d="M96.034,106.349h-1.921l2.129-11.557h2.465l2.128,11.557h-1.92l-0.352-2.561h-2.177L96.034,106.349
			z M96.674,102.059h1.601l-0.785-4.962h-0.032L96.674,102.059z"/>
		<path style="fill:#FFFFFF;" d="M103.298,96.521h-1.921v-1.729h5.827v1.729h-1.921v9.828h-1.985V96.521z"/>
		<path style="fill:#FFFFFF;" d="M116.242,98.649v-0.896c0-0.976-0.448-1.393-0.96-1.393c-0.8,0-1.056,0.417-1.056,1.281v5.858
			c0,0.864,0.256,1.28,1.056,1.28c0.72,0,0.96-0.416,0.96-1.168v-1.393h1.985v1.329c0,1.633-0.96,2.961-2.945,2.961
			c-2.081,0-3.041-1.329-3.041-2.961v-5.954c0-1.633,0.96-2.961,3.041-2.961c1.985,0,2.945,1.44,2.945,3.169v0.848H116.242z"/>
		<path style="fill:#FFFFFF;" d="M120.401,106.349V94.792h1.985v4.706h2.113v-4.706h1.985v11.557h-1.985v-5.122h-2.113v5.122
			H120.401z"/>
		<path style="fill:#FFFFFF;" d="M128.833,106.349V94.792h1.985v11.557H128.833z"/>
		<path style="fill:#FFFFFF;" d="M133.073,106.349V94.792h1.985v9.828h3.121v1.729H133.073z"/>
		<path style="fill:#FFFFFF;" d="M139.457,106.349V94.792h1.985v9.828h3.121v1.729H139.457z"/>
		<path style="fill:#FFFFFF;" d="M149.554,97.641c-0.08-0.992-0.608-1.281-1.056-1.281c-0.64,0-0.993,0.417-0.993,1.137
			c0,1.969,4.034,2.913,4.034,6.05c0,1.905-1.28,2.961-3.137,2.961c-1.841,0-2.897-1.473-2.977-3.201l1.889-0.272
			c0.08,1.168,0.544,1.745,1.185,1.745c0.688,0,1.152-0.368,1.152-1.056c0-2.289-4.034-2.897-4.034-6.21
			c0-1.841,1.121-2.881,3.073-2.881c1.617,0,2.577,1.168,2.753,2.801L149.554,97.641z"/>
		<path style="fill:#FFFFFF;" d="M158.064,96.521h-1.921v-1.729h5.827v1.729h-1.921v9.828h-1.985V96.521z"/>
		<path style="fill:#FFFFFF;" d="M163.295,106.349V94.792h1.985v4.706h2.113v-4.706h1.985v11.557h-1.985v-5.122h-2.113v5.122
			H163.295z"/>
		<path style="fill:#FFFFFF;" d="M171.456,106.349V94.792h5.314v1.729h-3.329v2.978h2.561v1.729h-2.561v3.394h3.553v1.729H171.456z"
			/>
		<path style="fill:#FFFFFF;" d="M182.431,94.792h2.945c2.129,0,3.073,1.088,3.073,3.057c0,0.993-0.417,2.033-1.377,2.417
			c1.009,0.448,1.601,1.249,1.601,2.737c0,1.905-0.849,3.345-3.105,3.345h-3.137V94.792z M184.416,99.53h0.72
			c0.752,0,1.329-0.512,1.329-1.473c0-1.072-0.417-1.632-1.297-1.632h-0.752V99.53z M184.416,104.716h0.832
			c1.057,0,1.441-0.608,1.441-1.776c0-1.185-0.448-1.777-1.633-1.777h-0.64V104.716z"/>
		<path style="fill:#FFFFFF;" d="M190.495,106.349V94.792h1.985v9.828h3.121v1.729H190.495z"/>
		<path style="fill:#FFFFFF;" d="M196.974,97.593c0-1.633,0.96-2.961,3.041-2.961c2.081,0,3.042,1.329,3.042,2.961v5.954
			c0,1.633-0.96,2.961-3.042,2.961c-2.081,0-3.041-1.329-3.041-2.961V97.593z M198.959,103.5c0,0.864,0.256,1.28,1.056,1.28
			s1.057-0.416,1.057-1.28v-5.858c0-0.864-0.256-1.281-1.057-1.281s-1.056,0.417-1.056,1.281V103.5z"/>
		<path style="fill:#FFFFFF;" d="M205.134,97.593c0-1.633,0.96-2.961,3.041-2.961c2.081,0,3.042,1.329,3.042,2.961v5.954
			c0,1.633-0.96,2.961-3.042,2.961c-2.081,0-3.041-1.329-3.041-2.961V97.593z M207.119,103.5c0,0.864,0.256,1.28,1.056,1.28
			s1.057-0.416,1.057-1.28v-5.858c0-0.864-0.256-1.281-1.057-1.281s-1.056,0.417-1.056,1.281V103.5z"/>
		<path style="fill:#FFFFFF;" d="M213.294,94.792h2.945c2.049,0,3.137,1.121,3.137,3.489v4.578c0,2.369-1.088,3.489-3.137,3.489
			h-2.945V94.792z M215.279,104.716h0.688c1.057,0,1.425-0.4,1.425-1.617v-5.058c0-1.217-0.368-1.617-1.425-1.617h-0.688V104.716z"
			/>
		<path style="fill:#FFFFFF;" d="M85.147,126.349h-1.921l2.129-11.557h2.465l2.128,11.557h-1.92l-0.352-2.561H85.5L85.147,126.349z
			 M85.788,122.059h1.601l-0.785-4.962h-0.032L85.788,122.059z"/>
		<path style="fill:#FFFFFF;" d="M94.876,117.641c-0.08-0.992-0.608-1.281-1.056-1.281c-0.64,0-0.993,0.417-0.993,1.137
			c0,1.969,4.034,2.913,4.034,6.05c0,1.905-1.28,2.961-3.137,2.961c-1.841,0-2.897-1.473-2.977-3.201l1.889-0.272
			c0.08,1.168,0.544,1.745,1.185,1.745c0.688,0,1.152-0.368,1.152-1.056c0-2.289-4.034-2.897-4.034-6.21
			c0-1.841,1.121-2.881,3.073-2.881c1.617,0,2.577,1.168,2.753,2.801L94.876,117.641z"/>
		<path style="fill:#FFFFFF;" d="M105.676,114.792h1.633l1.344,7.363h0.032l1.104-7.363h1.856l-2.033,11.557h-1.665l-1.441-7.635
			h-0.032l-1.345,7.635h-1.665l-2.193-11.557h1.857l1.216,7.363h0.032L105.676,114.792z"/>
		<path style="fill:#FFFFFF;" d="M113.066,126.349v-11.557h5.314v1.729h-3.329v2.978h2.561v1.729h-2.561v3.394h3.553v1.729H113.066z
			"/>
		<path style="fill:#FFFFFF;" d="M120.233,126.349v-11.557h1.985v9.828h3.121v1.729H120.233z"/>
		<path style="fill:#FFFFFF;" d="M126.617,126.349v-11.557h1.985v9.828h3.121v1.729H126.617z"/>
		<path style="fill:#FFFFFF;" d="M137.961,126.349h-1.921l2.129-11.557h2.465l2.128,11.557h-1.92l-0.352-2.561h-2.177
			L137.961,126.349z M138.601,122.059h1.601l-0.785-4.962h-0.032L138.601,122.059z"/>
		<path style="fill:#FFFFFF;" d="M147.689,117.641c-0.08-0.992-0.608-1.281-1.056-1.281c-0.64,0-0.993,0.417-0.993,1.137
			c0,1.969,4.034,2.913,4.034,6.05c0,1.905-1.28,2.961-3.137,2.961c-1.841,0-2.897-1.473-2.977-3.201l1.889-0.272
			c0.08,1.168,0.544,1.745,1.185,1.745c0.688,0,1.152-0.368,1.152-1.056c0-2.289-4.034-2.897-4.034-6.21
			c0-1.841,1.121-2.881,3.073-2.881c1.617,0,2.577,1.168,2.753,2.801L147.689,117.641z"/>
		<path style="fill:#FFFFFF;" d="M156.2,116.521h-1.921v-1.729h5.827v1.729h-1.921v9.828H156.2V116.521z"/>
		<path style="fill:#FFFFFF;" d="M161.431,126.349v-11.557h1.985v4.706h2.113v-4.706h1.985v11.557h-1.985v-5.122h-2.113v5.122
			H161.431z"/>
		<path style="fill:#FFFFFF;" d="M169.591,126.349v-11.557h5.314v1.729h-3.329v2.978h2.561v1.729h-2.561v3.394h3.553v1.729H169.591z
			"/>
		<path style="fill:#FFFFFF;" d="M184.184,117.641c-0.08-0.992-0.608-1.281-1.056-1.281c-0.64,0-0.993,0.417-0.993,1.137
			c0,1.969,4.034,2.913,4.034,6.05c0,1.905-1.28,2.961-3.137,2.961c-1.841,0-2.897-1.473-2.977-3.201l1.889-0.272
			c0.08,1.168,0.544,1.745,1.185,1.745c0.688,0,1.152-0.368,1.152-1.056c0-2.289-4.034-2.897-4.034-6.21
			c0-1.841,1.121-2.881,3.073-2.881c1.617,0,2.577,1.168,2.753,2.801L184.184,117.641z"/>
		<path style="fill:#FFFFFF;" d="M187.83,117.593c0-1.633,0.96-2.961,3.041-2.961c2.081,0,3.042,1.329,3.042,2.961v5.954
			c0,1.633-0.96,2.961-3.042,2.961c-2.081,0-3.041-1.329-3.041-2.961V117.593z M189.815,123.5c0,0.864,0.256,1.28,1.056,1.28
			s1.057-0.416,1.057-1.28v-5.858c0-0.864-0.256-1.281-1.057-1.281s-1.056,0.417-1.056,1.281V123.5z"/>
		<path style="fill:#FFFFFF;" d="M195.99,114.792h1.985v8.724c0,0.848,0.336,1.264,1.056,1.264s1.057-0.416,1.057-1.264v-8.724
			h1.985v8.644c0,1.985-1.153,3.073-3.042,3.073s-3.041-1.088-3.041-3.073V114.792z"/>
		<path style="fill:#FFFFFF;" d="M204.054,126.349v-11.557h1.985v9.828h3.121v1.729H204.054z"/>
		<path style="fill:#FFFFFF;" d="M212.599,116.681l-1.104,1.985h-0.849l0.785-1.985h-0.721v-1.889h1.889V116.681z M215.56,116.681
			l-1.104,1.985h-0.848l0.784-1.985h-0.72v-1.889h1.889V116.681z"/>
		<path style="fill:#FFF8DA;" d="M107.377,148.349v-8.659h1.487v7.364h2.339v1.295H107.377z"/>
		<path style="fill:#FFF8DA;" d="M112.178,141.788c0-1.223,0.72-2.219,2.279-2.219s2.279,0.996,2.279,2.219v4.462
			c0,1.223-0.72,2.219-2.279,2.219s-2.279-0.996-2.279-2.219V141.788z M113.665,146.214c0,0.647,0.191,0.959,0.792,0.959
			c0.6,0,0.792-0.312,0.792-0.959v-4.39c0-0.647-0.192-0.959-0.792-0.959c-0.6,0-0.792,0.312-0.792,0.959V146.214z"/>
		<path style="fill:#FFF8DA;" d="M120.948,141.824c-0.06-0.744-0.456-0.959-0.792-0.959c-0.48,0-0.744,0.312-0.744,0.852
			c0,1.475,3.022,2.183,3.022,4.534c0,1.427-0.959,2.219-2.351,2.219c-1.379,0-2.17-1.104-2.23-2.399l1.415-0.204
			c0.06,0.875,0.408,1.307,0.888,1.307c0.516,0,0.863-0.276,0.863-0.792c0-1.715-3.022-2.171-3.022-4.653
			c0-1.379,0.839-2.159,2.303-2.159c1.211,0,1.931,0.875,2.062,2.099L120.948,141.824z"/>
		<path style="fill:#FFF8DA;" d="M127.213,148.349h-1.439l1.595-8.659h1.847l1.595,8.659h-1.439l-0.264-1.919h-1.631
			L127.213,148.349z M127.693,145.134h1.199l-0.588-3.718h-0.024L127.693,145.134z"/>
		<path style="fill:#FFF8DA;" d="M131.737,148.349v-8.659h1.379l1.811,4.953h0.024v-4.953h1.343v8.659h-1.295l-1.895-5.409h-0.024
			v5.409H131.737z"/>
		<path style="fill:#FFF8DA;" d="M139.848,143.959h2.435v4.39h-0.72l-0.276-0.647c-0.443,0.527-0.803,0.768-1.499,0.768
			c-1.175,0-1.991-0.84-1.991-2.219v-4.462c0-1.223,0.72-2.219,2.183-2.219c1.487,0,2.231,1.08,2.231,2.375v0.552h-1.416
			c0-1.295-0.264-1.631-0.852-1.631c-0.359,0-0.659,0.216-0.659,0.947v4.45c0,0.552,0.18,0.912,0.695,0.912
			c0.6,0,0.815-0.336,0.815-1.199v-0.84h-0.947V143.959z"/>
		<path style="fill:#FFF8DA;" d="M143.857,148.349v-8.659h3.982v1.295h-2.495v2.23h1.919v1.295h-1.919v2.542h2.663v1.295H143.857z"
			/>
		<path style="fill:#FFF8DA;" d="M149.172,148.349v-8.659h1.487v7.364h2.339v1.295H149.172z"/>
		<path style="fill:#FFF8DA;" d="M153.973,148.349v-8.659h3.981v1.295h-2.494v2.23h1.919v1.295h-1.919v2.542h2.662v1.295H153.973z"
			/>
		<path style="fill:#FFF8DA;" d="M162.071,141.824c-0.06-0.744-0.456-0.959-0.792-0.959c-0.48,0-0.744,0.312-0.744,0.852
			c0,1.475,3.022,2.183,3.022,4.534c0,1.427-0.959,2.219-2.351,2.219c-1.379,0-2.17-1.104-2.23-2.399l1.415-0.204
			c0.06,0.875,0.408,1.307,0.888,1.307c0.516,0,0.863-0.276,0.863-0.792c0-1.715-3.022-2.171-3.022-4.653
			c0-1.379,0.84-2.159,2.303-2.159c1.211,0,1.931,0.875,2.063,2.099L162.071,141.824z"/>
		<path style="fill:#FFF8DA;" d="M168.335,140.985h-1.439v-1.295h4.365v1.295h-1.439v7.364h-1.487V140.985z"/>
		<path style="fill:#FFF8DA;" d="M172.403,148.349v-8.659h1.487v8.659H172.403z"/>
		<path style="fill:#FFF8DA;" d="M181.556,139.689v8.659h-1.295v-6.764h-0.024l-1.343,6.764h-0.719l-1.343-6.764h-0.024v6.764
			h-1.295v-8.659h1.955l1.055,5.061h0.024l1.056-5.061H181.556z"/>
		<path style="fill:#FFF8DA;" d="M182.988,148.349v-8.659h3.982v1.295h-2.495v2.23h1.919v1.295h-1.919v2.542h2.663v1.295H182.988z"
			/>
		<path style="fill:#FFF8DA;" d="M191.086,141.824c-0.06-0.744-0.456-0.959-0.792-0.959c-0.48,0-0.744,0.312-0.744,0.852
			c0,1.475,3.022,2.183,3.022,4.534c0,1.427-0.959,2.219-2.351,2.219c-1.379,0-2.17-1.104-2.23-2.399l1.415-0.204
			c0.06,0.875,0.408,1.307,0.888,1.307c0.516,0,0.863-0.276,0.863-0.792c0-1.715-3.022-2.171-3.022-4.653
			c0-1.379,0.839-2.159,2.303-2.159c1.211,0,1.931,0.875,2.062,2.099L191.086,141.824z"/>
	</g>
</g>
<g id="nyt_x5F_exporter_x5F_info" style="display:none;">
</g>
</svg>
