<?xml version="1.0" encoding="iso-8859-1"?>
<!-- Generator: Adobe Illustrator 17.1.0, SVG Export Plug-In . SVG Version: 6.00 Build 0)  -->
<!DOCTYPE svg PUBLIC "-//W3C//DTD SVG 1.1//EN" "http://www.w3.org/Graphics/SVG/1.1/DTD/svg11.dtd">
<svg version="1.1" xmlns="http://www.w3.org/2000/svg" xmlns:xlink="http://www.w3.org/1999/xlink" x="0px" y="0px"
	 viewBox="0 0 300 187.812" style="enable-background:new 0 0 300 187.812;" xml:space="preserve">
<g id="Layer_1">
	<g>
		<path style="fill:#FFFFFF;" d="M79.833,57.985L80.938,56h0.848l-0.784,1.985h0.721v1.889h-1.889V57.985z M82.794,57.985L83.899,56
			h0.849l-0.785,1.985h0.721v1.889h-1.889V57.985z"/>
		<path style="fill:#FFFFFF;" d="M86.937,56.16h2.945c2.129,0,3.073,1.088,3.073,3.057c0,0.993-0.417,2.033-1.377,2.417
			c1.009,0.448,1.601,1.249,1.601,2.737c0,1.905-0.849,3.345-3.105,3.345h-3.137V56.16z M88.921,60.898h0.721
			c0.752,0,1.328-0.512,1.328-1.473c0-1.072-0.416-1.632-1.297-1.632h-0.752V60.898z M88.921,66.084h0.832
			c1.057,0,1.441-0.608,1.441-1.776c0-1.185-0.448-1.777-1.633-1.777h-0.641V66.084z"/>
		<path style="fill:#FFFFFF;" d="M97.082,67.717h-1.985V56.16h2.785c2.225,0,3.361,0.944,3.361,3.409
			c0,1.857-0.72,2.609-1.393,2.914l1.681,5.234h-2.017l-1.408-4.786c-0.257,0.032-0.673,0.048-1.024,0.048V67.717z M97.082,61.346
			h0.704c1.072,0,1.473-0.4,1.473-1.777c0-1.376-0.4-1.776-1.473-1.776h-0.704V61.346z"/>
		<path style="fill:#FFFFFF;" d="M103.256,56.16h1.985v8.724c0,0.848,0.336,1.264,1.056,1.264c0.721,0,1.057-0.416,1.057-1.264
			V56.16h1.985v8.644c0,1.985-1.153,3.073-3.042,3.073s-3.041-1.088-3.041-3.073V56.16z"/>
		<path style="fill:#FFFFFF;" d="M112.569,57.889h-1.921V56.16h5.827v1.729h-1.921v9.828h-1.985V57.889z"/>
		<path style="fill:#FFFFFF;" d="M118.953,67.717h-1.921l2.129-11.557h2.465l2.129,11.557h-1.921l-0.352-2.561h-2.178
			L118.953,67.717z M119.592,63.427h1.601l-0.784-4.962h-0.031L119.592,63.427z"/>
		<path style="fill:#FFFFFF;" d="M124.967,67.717V56.16h1.985v9.828h3.121v1.729H124.967z"/>
		<path style="fill:#FFFFFF;" d="M136.311,67.717h-1.921l2.129-11.557h2.466l2.128,11.557h-1.92l-0.353-2.561h-2.177L136.311,67.717
			z M136.952,63.427h1.601l-0.784-4.962h-0.032L136.952,63.427z"/>
		<path style="fill:#FFFFFF;" d="M142.422,67.717V56.16h1.841l2.417,6.611h0.032V56.16h1.793v11.557h-1.729l-2.528-7.219h-0.032
			v7.219H142.422z"/>
		<path style="fill:#FFFFFF;" d="M150.583,56.16h2.945c2.049,0,3.138,1.121,3.138,3.489v4.578c0,2.369-1.089,3.489-3.138,3.489
			h-2.945V56.16z M152.568,66.084h0.688c1.057,0,1.425-0.4,1.425-1.617V59.41c0-1.217-0.368-1.617-1.425-1.617h-0.688V66.084z"/>
		<path style="fill:#FFFFFF;" d="M162.455,56.16h2.945c2.129,0,3.073,1.088,3.073,3.057c0,0.993-0.417,2.033-1.377,2.417
			c1.009,0.448,1.601,1.249,1.601,2.737c0,1.905-0.849,3.345-3.105,3.345h-3.137V56.16z M164.439,60.898h0.721
			c0.752,0,1.328-0.512,1.328-1.473c0-1.072-0.416-1.632-1.297-1.632h-0.752V60.898z M164.439,66.084h0.832
			c1.057,0,1.441-0.608,1.441-1.776c0-1.185-0.448-1.777-1.633-1.777h-0.641V66.084z"/>
		<path style="fill:#FFFFFF;" d="M172.599,67.717h-1.984V56.16h2.785c2.225,0,3.361,0.944,3.361,3.409
			c0,1.857-0.721,2.609-1.393,2.914l1.681,5.234h-2.018l-1.408-4.786c-0.256,0.032-0.672,0.048-1.024,0.048V67.717z M172.599,61.346
			h0.704c1.072,0,1.473-0.4,1.473-1.777c0-1.376-0.4-1.776-1.473-1.776h-0.704V61.346z"/>
		<path style="fill:#FFFFFF;" d="M179.046,67.717V56.16h1.985v11.557H179.046z"/>
		<path style="fill:#FFFFFF;" d="M183.287,67.717V56.16h1.984v9.828h3.121v1.729H183.287z"/>
		<path style="fill:#FFFFFF;" d="M189.67,67.717V56.16h1.984v9.828h3.121v1.729H189.67z"/>
		<path style="fill:#FFFFFF;" d="M196.422,67.717V56.16h1.984v11.557H196.422z"/>
		<path style="fill:#FFFFFF;" d="M201.911,67.717h-1.921l2.129-11.557h2.465l2.129,11.557h-1.921l-0.352-2.561h-2.178
			L201.911,67.717z M202.55,63.427h1.601l-0.784-4.962h-0.031L202.55,63.427z"/>
		<path style="fill:#FFFFFF;" d="M208.022,67.717V56.16h1.841l2.417,6.611h0.031V56.16h1.793v11.557h-1.729l-2.529-7.219h-0.032
			v7.219H208.022z"/>
		<path style="fill:#FFFFFF;" d="M217.334,57.889h-1.921V56.16h5.826v1.729h-1.921v9.828h-1.984V57.889z"/>
		<path style="fill:#FFFFFF;" d="M69.675,81.858h3.249v5.858h-0.96l-0.368-0.864c-0.593,0.704-1.072,1.024-2.001,1.024
			c-1.568,0-2.657-1.121-2.657-2.961v-5.954c0-1.633,0.961-2.961,2.913-2.961c1.985,0,2.978,1.44,2.978,3.169v0.736H70.94
			c0-1.729-0.353-2.177-1.137-2.177c-0.48,0-0.88,0.289-0.88,1.265v5.938c0,0.736,0.239,1.216,0.928,1.216
			c0.801,0,1.089-0.448,1.089-1.601v-1.12h-1.265V81.858z"/>
		<path style="fill:#FFFFFF;" d="M75.098,76.16h1.985v8.724c0,0.848,0.336,1.264,1.056,1.264c0.721,0,1.057-0.416,1.057-1.264V76.16
			h1.985v8.644c0,1.985-1.153,3.073-3.042,3.073s-3.041-1.088-3.041-3.073V76.16z"/>
		<path style="fill:#FFFFFF;" d="M86.843,87.717h-1.984v-4.802l-2.401-6.755h2.017l1.393,4.402h0.032l1.329-4.402h2.017
			l-2.401,6.755V87.717z"/>
		<path style="fill:#FFFFFF;" d="M94.234,87.717V76.16h2.85c2.448,0,3.585,0.944,3.585,3.409c0,2.465-1.137,3.41-3.585,3.41h-0.864
			v4.738H94.234z M96.219,81.346h0.768c1.297,0,1.697-0.4,1.697-1.777c0-1.376-0.4-1.776-1.697-1.776h-0.768V81.346z"/>
		<path style="fill:#FFFFFF;" d="M102.394,87.717V76.16h5.313v1.729h-3.329v2.978h2.562v1.729h-2.562v3.394h3.554v1.729H102.394z"/>
		<path style="fill:#FFFFFF;" d="M110.81,87.717h-1.921l2.129-11.557h2.465l2.129,11.557h-1.921l-0.352-2.561h-2.178L110.81,87.717z
			 M111.45,83.427h1.601l-0.784-4.962h-0.031L111.45,83.427z"/>
		<path style="fill:#FFFFFF;" d="M118.906,87.717h-1.984V76.16h2.785c2.225,0,3.361,0.944,3.361,3.409
			c0,1.857-0.721,2.609-1.393,2.914l1.681,5.234h-2.018l-1.408-4.786c-0.256,0.032-0.672,0.048-1.024,0.048V87.717z M118.906,81.346
			h0.704c1.072,0,1.473-0.4,1.473-1.777c0-1.376-0.4-1.776-1.473-1.776h-0.704V81.346z"/>
		<path style="fill:#FFFFFF;" d="M129.083,80.018v-0.896c0-0.976-0.448-1.393-0.961-1.393c-0.8,0-1.056,0.417-1.056,1.281v5.858
			c0,0.864,0.256,1.28,1.056,1.28c0.721,0,0.961-0.416,0.961-1.168v-1.393h1.984v1.329c0,1.633-0.96,2.961-2.945,2.961
			c-2.08,0-3.041-1.329-3.041-2.961v-5.954c0-1.633,0.961-2.961,3.041-2.961c1.985,0,2.945,1.44,2.945,3.169v0.848H129.083z"/>
		<path style="fill:#FFFFFF;" d="M133.241,87.717V76.16h5.314v1.729h-3.329v2.978h2.561v1.729h-2.561v3.394h3.553v1.729H133.241z"/>
		<path style="fill:#FFFFFF;" d="M144.488,87.717V76.16h1.985v11.557H144.488z"/>
		<path style="fill:#FFFFFF;" d="M152.442,79.009c-0.08-0.992-0.608-1.281-1.057-1.281c-0.64,0-0.992,0.417-0.992,1.137
			c0,1.969,4.033,2.913,4.033,6.05c0,1.905-1.28,2.961-3.137,2.961c-1.841,0-2.897-1.473-2.978-3.201l1.889-0.272
			c0.08,1.168,0.545,1.745,1.185,1.745c0.688,0,1.152-0.368,1.152-1.056c0-2.289-4.033-2.897-4.033-6.21
			c0-1.841,1.12-2.881,3.073-2.881c1.616,0,2.577,1.168,2.753,2.801L152.442,79.009z"/>
		<path style="fill:#FFFFFF;" d="M159.8,87.717V76.16h5.313v1.729h-3.329v2.978h2.562v1.729h-2.562v3.394h3.554v1.729H159.8z"/>
		<path style="fill:#FFFFFF;" d="M168.6,81.667l-2.113-5.506h1.953l1.216,3.666h0.032l1.104-3.666h1.953l-2.001,5.506l2.241,6.05
			h-1.953l-1.345-4.209h-0.032l-1.376,4.209h-1.953L168.6,81.667z"/>
		<path style="fill:#FFFFFF;" d="M178.329,80.018v-0.896c0-0.976-0.448-1.393-0.961-1.393c-0.8,0-1.056,0.417-1.056,1.281v5.858
			c0,0.864,0.256,1.28,1.056,1.28c0.721,0,0.961-0.416,0.961-1.168v-1.393h1.984v1.329c0,1.633-0.96,2.961-2.945,2.961
			c-2.08,0-3.041-1.329-3.041-2.961v-5.954c0-1.633,0.961-2.961,3.041-2.961c1.985,0,2.945,1.44,2.945,3.169v0.848H178.329z"/>
		<path style="fill:#FFFFFF;" d="M182.487,87.717V76.16h5.314v1.729h-3.329v2.978h2.561v1.729h-2.561v3.394h3.553v1.729H182.487z"/>
		<path style="fill:#FFFFFF;" d="M189.654,87.717V76.16h1.985v9.828h3.121v1.729H189.654z"/>
		<path style="fill:#FFFFFF;" d="M196.038,87.717V76.16h1.985v9.828h3.121v1.729H196.038z"/>
		<path style="fill:#FFFFFF;" d="M202.518,87.717V76.16h5.313v1.729h-3.329v2.978h2.562v1.729h-2.562v3.394h3.554v1.729H202.518z"/>
		<path style="fill:#FFFFFF;" d="M209.781,87.717V76.16h1.841l2.417,6.611h0.032V76.16h1.793v11.557h-1.729l-2.528-7.219h-0.032
			v7.219H209.781z"/>
		<path style="fill:#FFFFFF;" d="M219.093,77.889h-1.921V76.16H223v1.729h-1.921v9.828h-1.985V77.889z"/>
		<path style="fill:#FFFFFF;" d="M224.197,87.717v-1.889h1.889v1.889H224.197z"/>
		<path style="fill:#FFFFFF;" d="M230.101,78.049l-1.104,1.985h-0.849l0.785-1.985h-0.721V76.16h1.889V78.049z M233.062,78.049
			l-1.104,1.985h-0.848l0.784-1.985h-0.721V76.16h1.889V78.049z"/>
		<path style="fill:#FFF8DA;" d="M129.458,102.353h-1.439v-1.295h4.365v1.295h-1.438v7.364h-1.487V102.353z"/>
		<path style="fill:#FFF8DA;" d="M133.322,109.717v-8.659h1.487v3.526h1.583v-3.526h1.487v8.659h-1.487v-3.838h-1.583v3.838H133.322
			z"/>
		<path style="fill:#FFF8DA;" d="M139.382,109.717v-8.659h3.981v1.295h-2.495v2.23h1.919v1.295h-1.919v2.542h2.663v1.295H139.382z"
			/>
		<path style="fill:#FFF8DA;" d="M150.073,101.058h1.223l1.008,5.517h0.023l0.828-5.517h1.391l-1.522,8.659h-1.247l-1.08-5.721
			h-0.023l-1.008,5.721h-1.247l-1.644-8.659h1.392l0.911,5.517h0.024L150.073,101.058z"/>
		<path style="fill:#FFF8DA;" d="M157.044,109.717h-1.487v-8.659h2.087c1.667,0,2.519,0.708,2.519,2.555
			c0,1.391-0.54,1.955-1.043,2.183l1.259,3.922h-1.511l-1.056-3.586c-0.192,0.024-0.504,0.036-0.768,0.036V109.717z
			 M157.044,104.943h0.527c0.804,0,1.104-0.3,1.104-1.331c0-1.032-0.3-1.332-1.104-1.332h-0.527V104.943z"/>
		<path style="fill:#FFF8DA;" d="M162.481,109.717h-1.439l1.596-8.659h1.847l1.595,8.659h-1.439l-0.264-1.919h-1.631
			L162.481,109.717z M162.96,106.502h1.199l-0.588-3.718h-0.023L162.96,106.502z"/>
		<path style="fill:#FFF8DA;" d="M167.005,109.717v-8.659h2.135c1.835,0,2.687,0.708,2.687,2.555c0,1.847-0.852,2.555-2.687,2.555
			h-0.648v3.55H167.005z M168.492,104.943h0.576c0.972,0,1.271-0.3,1.271-1.331c0-1.032-0.3-1.332-1.271-1.332h-0.576V104.943z"/>
	</g>
</g>
<g id="nyt_x5F_exporter_x5F_info" style="display:none;">
</g>
</svg>
