<?xml version="1.0" encoding="iso-8859-1"?>
<!-- Generator: Adobe Illustrator 17.1.0, SVG Export Plug-In . SVG Version: 6.00 Build 0)  -->
<!DOCTYPE svg PUBLIC "-//W3C//DTD SVG 1.1//EN" "http://www.w3.org/Graphics/SVG/1.1/DTD/svg11.dtd">
<svg version="1.1" id="Layer_1" xmlns="http://www.w3.org/2000/svg" xmlns:xlink="http://www.w3.org/1999/xlink" x="0px" y="0px"
	 viewBox="0 0 280 114.878" style="enable-background:new 0 0 280 114.878;" xml:space="preserve">
<g>
	<g>
		<g>
			<path style="fill:#FFFFFF;" d="M105.897,114.873c0.103-7.581,1.509-14.843,5.249-21.536c4.428-7.919,11.023-13.516,18.951-17.69
				c7.108-3.746,14.757-5.915,22.532-7.705c3.363-0.774,4.929-2.638,4.933-6.104c0.01-17.496,0.01-34.996-0.001-52.494
				c-0.004-3.271-1.554-5.167-4.597-5.314c-9.237-0.444-18.203,0.725-26.539,5.034c-4.344,2.246-8.09,5.237-11.154,9.599
				c0.566-0.269,0.818-0.364,1.04-0.5c6.805-4.181,13.804-4.466,20.653-0.418c6.749,3.991,9.883,10.212,9.551,18.045
				c-0.411,9.66-8.78,17.87-18.458,18.255c-10.272,0.409-19.377-6.884-20.315-16.786c-1.238-13.037,4.235-22.898,15.257-29.722
				c6.043-3.743,12.773-5.562,19.786-6.202c9.915-0.904,19.724-0.262,29.212,2.998c8.265,2.839,15.145,7.557,19.454,15.397
				c6.941,12.626,5.517,33.987-13.511,43.397c-7.08,3.501-14.607,5.468-22.246,7.158c-7.983,1.769-15.874,3.819-23.245,7.482
				c-2.491,1.239-3.503,3.089-2.978,5.38c0.524,2.297,2.367,3.601,5.157,3.603c19.74,0.01,39.481,0.012,59.222,0.019l-0.023-0.04
				c-0.545,0.685-1.059,1.402-1.643,2.054c-7.816,8.702-15.641,17.395-23.464,26.091
				C147.778,114.873,126.836,114.873,105.897,114.873z"/>
			<path style="fill:#FFFFFF;" d="M0,114.273c1.397-2.837,2.844-5.651,4.185-8.515c9.787-20.908,19.541-41.831,29.353-62.727
				c0.547-1.162,0.563-2.068-0.014-3.194c-1.134-2.21-2.126-4.491-3.202-6.805c1.252-0.407,2.456-0.711,3.59-1.185
				c3.986-1.659,6.891-4.47,8.719-8.387c2.863-6.132,5.725-12.263,8.592-18.391c0.224-0.479,0.482-0.94,0.851-1.659
				c0.874,1.867,1.648,3.508,2.414,5.155C70.93,43.825,87.371,79.09,103.815,114.35c0.084,0.18,0.191,0.348,0.287,0.523
				c-11.865,0-23.731,0-35.597,0c-3.618-7.747-7.246-15.488-10.84-23.244c-0.414-0.895-0.869-1.32-1.967-1.315
				c-13.145,0.047-26.289,0.042-39.436,0.007c-1.037-0.003-1.558,0.288-2.005,1.266c-2.933,6.421-5.954,12.801-8.927,19.202
				c-0.622,1.341-1.162,2.722-1.739,4.083c-1.047,0-2.096,0.024-3.139-0.028C0.292,114.838,0.15,114.472,0,114.273z M55.502,87.061
				c-6.513-13.967-12.946-27.768-19.526-41.883c-6.604,14.129-13.061,27.944-19.578,41.883
				C29.493,87.061,42.373,87.061,55.502,87.061z"/>
			<path style="fill:#FFFFFF;" d="M193.848,86.768c10.354-11.525,20.702-23.055,31.063-34.575
				c15.225-16.93,30.46-33.851,45.683-50.782c0.388-0.43,0.689-0.939,1.03-1.411c0.1,0,0.199,0,0.299,0
				c0.028,0.946,0.08,1.891,0.08,2.835c0.004,26.322,0.002,52.641,0.002,78.961c0,0.628,0,1.255,0,1.963c2.816,0,5.405,0,7.995,0
				c0,0.998,0,1.996,0,2.993c-2.613,0-5.227,0-7.995,0c0,0.822,0,1.356,0,1.893c0,4.223,0.012,8.447-0.002,12.67
				c-0.014,4.519-0.052,9.037-0.08,13.558c-10.67,0-21.338,0-32.008,0c-0.028-0.596-0.079-1.192-0.079-1.787
				c-0.005-8.114-0.003-16.231-0.003-24.347c0-0.579,0-1.159,0-1.905c-0.787,0-1.37,0-1.954,0c-13.89,0-27.782,0.003-41.673-0.003
				c-0.792,0-1.585-0.068-2.379-0.103L193.848,86.768z M200.873,83.632c13.068,0,25.946,0,38.868,0c0-14.329,0-28.586,0-43.194
				C226.692,54.939,213.856,69.202,200.873,83.632z"/>
		</g>
	</g>
</g>
</svg>
