<?xml version="1.0" encoding="iso-8859-1"?>
<!-- Generator: Adobe Illustrator 17.1.0, SVG Export Plug-In . SVG Version: 6.00 Build 0)  -->
<!DOCTYPE svg PUBLIC "-//W3C//DTD SVG 1.1//EN" "http://www.w3.org/Graphics/SVG/1.1/DTD/svg11.dtd">
<svg version="1.1" id="Layer_1" xmlns="http://www.w3.org/2000/svg" xmlns:xlink="http://www.w3.org/1999/xlink" x="0px" y="0px"
	 viewBox="0 0 200 104" style="enable-background:new 0 0 200 104;" xml:space="preserve">
<g>
	<path style="fill:#FFFFFF;" d="M104.201,36.045c2.373,0,4.473,1.05,5.921,2.729l-2.204,1.869c-0.924-1.029-2.247-1.659-3.717-1.659
		c-2.604,0-4.641,1.974-4.641,4.619s2.037,4.599,4.641,4.599c1.47,0,2.813-0.631,3.737-1.68l2.204,1.868
		c-1.448,1.7-3.568,2.751-5.941,2.751c-4.346,0-7.873-3.171-7.873-7.538S99.855,36.045,104.201,36.045z"/>
	<path style="fill:#FFFFFF;" d="M119.3,36.045c4.346,0,7.811,3.339,7.811,7.579c0,4.263-3.465,7.58-7.811,7.58
		c-4.326,0-7.811-3.317-7.811-7.58C111.49,39.384,114.974,36.045,119.3,36.045z M119.3,48.264c2.561,0,4.576-2.058,4.576-4.641
		c0-2.54-1.994-4.64-4.576-4.64c-2.583,0-4.578,2.079-4.578,4.64C114.722,46.249,116.717,48.264,119.3,48.264z"/>
	<path style="fill:#FFFFFF;" d="M129.885,36.276h3.233V47.97h5.711v2.939h-8.944V36.276z"/>
	<path style="fill:#FFFFFF;" d="M140.953,36.276h3.232v8.377c0,2.562,1.197,3.549,3.003,3.549c1.784,0,2.981-0.987,2.981-3.549
		v-8.377h3.233v8.713c0,4.137-2.813,6.152-6.215,6.152c-3.423,0-6.235-2.016-6.235-6.152V36.276z"/>
	<path style="fill:#FFFFFF;" d="M157.374,36.276h2.708l5.018,7.496l5.019-7.496h2.708V50.91h-3.044v-8.923l-4.683,6.928
		l-4.703-6.928v8.923h-3.023V36.276z"/>
	<path style="fill:#FFFFFF;" d="M176.934,36.276h2.876l7.014,9.091v-9.091h3.128V50.91h-2.645l-7.244-9.343v9.343h-3.128V36.276z"/>
</g>
<g>
	<path style="fill:#FFFFFF;" d="M96.589,61.062h9.637v2.939h-6.403v3.003h5.837v2.876h-5.837v5.816h-3.233V61.062z"/>
	<path style="fill:#FFFFFF;" d="M109.336,61.062h3.233v14.634h-3.233V61.062z"/>
	<path style="fill:#FFFFFF;" d="M115.154,61.062h3.443l3.988,9.91l3.969-9.91h3.443l-5.984,14.634h-2.855L115.154,61.062z"/>
	<path style="fill:#FFFFFF;" d="M132.583,61.062h9.994v2.939h-6.761v2.751h6.32v2.876h-6.32v3.128h6.908v2.939h-10.142V61.062z"/>
</g>
<g>
	<path style="fill:#FFFFFF;" d="M62.14,92.367c-2.111,0-4.028-1.309-5.399-3.686L40.794,61.068l14.767-25.567l2.518,1.455
		L44.152,61.068l15.105,26.16c0.818,1.418,1.871,2.23,2.883,2.23c1.013,0,2.062-0.812,2.881-2.23l15.525-26.887l2.518,1.454
		L67.541,88.681C66.166,91.058,64.25,92.367,62.14,92.367z"/>
	<path style="fill:#FFFFFF;" d="M55.406,92.367c-2.108,0-4.029-1.309-5.4-3.687L34.062,61.068l14.767-25.567l2.518,1.455
		L37.417,61.068l15.108,26.159c0.816,1.418,1.868,2.231,2.88,2.231V92.367z"/>
	<polygon style="fill:#FFFFFF;" points="62.131,86.399 76.336,61.796 73.821,60.342 60.452,83.491 	"/>
	<polygon style="fill:#FFFFFF;" points="58.765,80.573 69.608,61.796 67.091,60.342 57.086,77.666 	"/>
	<polygon style="fill:#FFFFFF;" points="55.401,74.748 62.881,61.796 60.365,60.342 53.724,71.842 	"/>
	<polygon style="fill:#FFFFFF;" points="52.038,68.922 56.154,61.796 53.635,60.342 50.36,66.016 	"/>
	<path style="fill:#FFFFFF;" d="M48.684,92.367c-2.111,0-4.029-1.309-5.399-3.687L27.339,61.068l14.766-25.567l2.518,1.455
		L30.695,61.068L45.8,87.227c0.819,1.418,1.87,2.231,2.884,2.231V92.367z"/>
	<path style="fill:#FFFFFF;" d="M41.956,92.367c-2.111,0-4.028-1.309-5.399-3.687L20.611,61.068l14.768-25.567l2.518,1.455
		L23.969,61.068l15.104,26.159c0.817,1.418,1.87,2.231,2.882,2.231V92.367z"/>
	<path style="fill:#FFFFFF;" d="M35.232,92.367c-2.112,0-4.03-1.309-5.4-3.687L13.886,61.068l14.767-25.567l2.518,1.455
		L17.243,61.068l15.107,26.159c0.817,1.418,1.868,2.231,2.883,2.231V92.367z"/>
</g>
<g>
	<path style="fill:#FFFFFF;" d="M13.999,17.199h3.032c2.791,0,4.25,1.7,4.25,4.02c0,2.355-1.447,3.986-4.238,3.986h-3.044V17.199z
		 M16.929,23.597c2.021,0,2.573-1.057,2.573-2.378c0-1.355-0.552-2.412-2.585-2.412h-1.149v4.79H16.929z"/>
	<path style="fill:#FFFFFF;" d="M24.14,17.199h5.468v1.608h-3.699v1.505h3.457v1.573h-3.457v1.712h3.779v1.608H24.14V17.199z"/>
	<path style="fill:#FFFFFF;" d="M33.259,22.678c0.379,0.632,1.08,1.057,2.01,1.057c0.885,0,1.194-0.413,1.194-0.793
		c0-0.7-0.896-0.873-2.01-1.286c-1.149-0.413-1.941-1.034-1.941-2.32c0-1.436,1.241-2.263,2.665-2.263
		c1.344,0,2.182,0.632,2.665,1.309l-1.183,0.896c-0.287-0.368-0.747-0.62-1.436-0.62c-0.598,0-0.965,0.276-0.965,0.655
		c0,0.666,0.632,0.689,1.929,1.195c1.447,0.551,2.045,1.229,2.045,2.378c0,1.413-0.942,2.446-2.975,2.446
		c-1.723,0-2.791-0.804-3.285-1.769L33.259,22.678z"/>
	<path style="fill:#FFFFFF;" d="M41.033,17.199h1.769v8.006h-1.769V17.199z"/>
	<path style="fill:#FFFFFF;" d="M50.015,17.073c1.229,0,2.309,0.482,3.101,1.298l-1.194,1.045c-0.482-0.482-1.172-0.735-1.907-0.735
		c-1.424,0-2.539,1.08-2.539,2.527c0,1.447,1.114,2.515,2.539,2.515c0.689,0,1.298-0.218,1.746-0.62v-1.08h-2.102v-1.562h3.756V23.7
		c-0.735,0.977-1.975,1.631-3.4,1.631c-2.378,0-4.307-1.734-4.307-4.124C45.708,18.819,47.637,17.073,50.015,17.073z"/>
	<path style="fill:#FFFFFF;" d="M56.365,17.199h1.574l3.836,4.973v-4.973h1.711v8.006h-1.447l-3.963-5.111v5.111h-1.711V17.199z"/>
	<path style="fill:#FFFFFF;" d="M66.713,17.199h5.467v1.608h-3.699v1.505h3.457v1.573h-3.457v1.712h3.779v1.608h-5.548V17.199z"/>
	<path style="fill:#FFFFFF;" d="M75.234,17.199h3.032c2.791,0,4.25,1.7,4.25,4.02c0,2.355-1.447,3.986-4.238,3.986h-3.044V17.199z
		 M78.163,23.597c2.021,0,2.573-1.057,2.573-2.378c0-1.355-0.552-2.412-2.585-2.412h-1.148v4.79H78.163z"/>
	<path style="fill:#FFFFFF;" d="M94.378,17.199h1.574l3.308,8.006h-1.883l-0.539-1.344h-3.343l-0.539,1.344h-1.884L94.378,17.199z
		 M96.332,22.448l-1.16-2.906l-1.173,2.906H96.332z"/>
	<path style="fill:#FFFFFF;" d="M101.877,17.199h1.573l3.837,4.973v-4.973h1.712v8.006h-1.448l-3.962-5.111v5.111h-1.712V17.199z"/>
	<path style="fill:#FFFFFF;" d="M112.225,17.199h3.032c2.792,0,4.25,1.7,4.25,4.02c0,2.355-1.447,3.986-4.237,3.986h-3.044V17.199z
		 M115.154,23.597c2.022,0,2.572-1.057,2.572-2.378c0-1.355-0.551-2.412-2.584-2.412h-1.149v4.79H115.154z"/>
	<path style="fill:#FFFFFF;" d="M128.67,17.199h3.181c1.275,0,2.286,0.862,2.286,2.044c0,0.77-0.379,1.379-1.022,1.608
		c1.056,0.183,1.608,0.987,1.608,1.987c0,1.355-1.034,2.366-2.436,2.366h-3.617V17.199z M131.565,20.392
		c0.505,0,0.862-0.356,0.862-0.85c0-0.471-0.357-0.827-0.85-0.827h-1.171v1.677H131.565z M131.933,23.677
		c0.598,0,1.034-0.425,1.034-0.976c0-0.54-0.426-0.942-1.046-0.942h-1.516v1.918H131.933z"/>
	<path style="fill:#FFFFFF;" d="M137.467,17.199h1.769v4.583c0,1.401,0.655,1.941,1.643,1.941c0.977,0,1.631-0.539,1.631-1.941
		v-4.583h1.768v4.767c0,2.263-1.539,3.366-3.399,3.366c-1.872,0-3.411-1.103-3.411-3.366V17.199z"/>
	<path style="fill:#FFFFFF;" d="M147.47,17.199h1.769v8.006h-1.769V17.199z"/>
	<path style="fill:#FFFFFF;" d="M152.523,17.199h1.769v6.398h3.124v1.608h-4.893V17.199z"/>
	<path style="fill:#FFFFFF;" d="M161.699,18.807h-2.171v-1.608h6.077v1.608h-2.137v6.398h-1.769V18.807z"/>
	<path style="fill:#FFFFFF;" d="M174.504,17.199h3.181c1.275,0,2.286,0.862,2.286,2.044c0,0.77-0.379,1.379-1.022,1.608
		c1.056,0.183,1.608,0.987,1.608,1.987c0,1.355-1.034,2.366-2.436,2.366h-3.617V17.199z M177.399,20.392
		c0.505,0,0.862-0.356,0.862-0.85c0-0.471-0.357-0.827-0.85-0.827h-1.171v1.677H177.399z M177.767,23.677
		c0.598,0,1.034-0.425,1.034-0.976c0-0.54-0.426-0.942-1.046-0.942h-1.516v1.918H177.767z"/>
	<path style="fill:#FFFFFF;" d="M185.193,22.218l-2.94-5.019h1.919l1.907,3.331l1.907-3.331h1.918l-2.94,5.019v2.986h-1.769V22.218z
		"/>
</g>
</svg>
