<?xml version="1.0" encoding="iso-8859-1"?>
<!-- Generator: Adobe Illustrator 17.1.0, SVG Export Plug-In . SVG Version: 6.00 Build 0)  -->
<!DOCTYPE svg PUBLIC "-//W3C//DTD SVG 1.1//EN" "http://www.w3.org/Graphics/SVG/1.1/DTD/svg11.dtd">
<svg version="1.1" id="Layer_1" xmlns="http://www.w3.org/2000/svg" xmlns:xlink="http://www.w3.org/1999/xlink" x="0px" y="0px"
	 viewBox="206 637 953.333 42" style="enable-background:new 206 637 953.333 42;" xml:space="preserve">
<g>
	<path style="fill:#FFFFFF;" d="M212.203,644.541h10.153c9.342,0,14.228,5.691,14.228,13.459c0,7.88-4.844,13.343-14.189,13.343
		h-10.188v-26.801H212.203z M222.006,665.957c6.768,0,8.614-3.536,8.614-7.957c0-4.539-1.847-8.076-8.653-8.076h-3.844v16.032
		H222.006z"/>
	<path style="fill:#FFFFFF;" d="M246.169,644.541h18.302v5.383H252.09v5.036h11.574v5.267H252.09v5.729h12.65v5.383h-18.571
		L246.169,644.541L246.169,644.541z"/>
	<path style="fill:#FFFFFF;" d="M276.714,662.883c1.27,2.116,3.613,3.539,6.729,3.539c2.959,0,3.997-1.385,3.997-2.654
		c0-2.343-2.997-2.924-6.729-4.305c-3.844-1.385-6.498-3.46-6.498-7.765c0-4.809,4.152-7.575,8.918-7.575
		c4.498,0,7.307,2.116,8.922,4.382l-3.959,3c-0.962-1.231-2.501-2.078-4.806-2.078c-2,0-3.231,0.923-3.231,2.193
		c0,2.231,2.116,2.308,6.46,4.001c4.844,1.847,6.844,4.114,6.844,7.957c0,4.732-3.152,8.191-9.958,8.191
		c-5.768,0-9.342-2.69-10.996-5.921L276.714,662.883z"/>
	<path style="fill:#FFFFFF;" d="M302.762,644.541h5.921v26.797h-5.921V644.541z"/>
	<path style="fill:#FFFFFF;" d="M332.836,644.118c4.114,0,7.729,1.613,10.381,4.344l-3.997,3.498
		c-1.616-1.613-3.921-2.462-6.383-2.462c-4.767,0-8.498,3.613-8.498,8.46s3.732,8.419,8.498,8.419c2.305,0,4.344-0.731,5.844-2.074
		v-3.613h-7.037v-5.229h12.574v10.842c-2.462,3.27-6.613,5.46-11.381,5.46c-7.961,0-14.42-5.806-14.42-13.805
		C318.417,649.96,324.876,644.118,332.836,644.118z"/>
	<path style="fill:#FFFFFF;" d="M354.117,644.541h5.267l12.843,16.648v-16.648h5.729v26.797h-4.844l-13.266-17.11v17.11h-5.729
		V644.541z"/>
	<path style="fill:#FFFFFF;" d="M388.778,644.541h18.302v5.383h-12.381v5.036h11.574v5.267h-11.574v5.729h12.65v5.383h-18.571
		V644.541L388.778,644.541z"/>
	<path style="fill:#FFFFFF;" d="M417.324,644.541h10.152c9.342,0,14.228,5.691,14.228,13.459c0,7.88-4.844,13.343-14.189,13.343
		h-10.188v-26.801H417.324z M427.13,665.957c6.768,0,8.615-3.536,8.615-7.957c0-4.539-1.847-8.076-8.653-8.076h-3.844v16.032H427.13
		z"/>
	<path style="fill:#FFFFFF;" d="M481.447,644.541h5.27l11.073,26.797h-6.305l-1.805-4.498h-11.188l-1.805,4.498h-6.306
		L481.447,644.541z M487.984,662.114l-3.882-9.727l-3.921,9.727H487.984z"/>
	<path style="fill:#FFFFFF;" d="M506.574,644.541h5.267l12.843,16.648v-16.648h5.729v26.797h-4.844l-13.266-17.11v17.11h-5.729
		V644.541L506.574,644.541z"/>
	<path style="fill:#FFFFFF;" d="M541.237,644.541h10.152c9.342,0,14.228,5.691,14.228,13.459c0,7.88-4.844,13.343-14.189,13.343
		H541.24v-26.801H541.237z M551.04,665.957c6.768,0,8.615-3.536,8.615-7.957c0-4.539-1.847-8.076-8.653-8.076h-3.844v16.032H551.04z
		"/>
	<path style="fill:#FFFFFF;" d="M596.326,644.541h10.65c4.27,0,7.653,2.882,7.653,6.844c0,2.577-1.27,4.613-3.42,5.383
		c3.539,0.616,5.383,3.305,5.383,6.653c0,4.536-3.463,7.922-8.152,7.922h-12.111L596.326,644.541L596.326,644.541z M606.015,655.23
		c1.692,0,2.882-1.193,2.882-2.844c0-1.577-1.193-2.77-2.844-2.77h-3.924v5.613L606.015,655.23L606.015,655.23z M607.245,666.226
		c2,0,3.462-1.423,3.462-3.27c0-1.805-1.423-3.152-3.501-3.152h-5.075v6.422H607.245z"/>
	<path style="fill:#FFFFFF;" d="M625.792,644.541h5.921v15.34c0,4.69,2.193,6.498,5.498,6.498c3.27,0,5.46-1.805,5.46-6.498v-15.34
		h5.921v15.956c0,7.575-5.152,11.266-11.381,11.266c-6.267,0-11.419-3.69-11.419-11.266V644.541L625.792,644.541z"/>
	<path style="fill:#FFFFFF;" d="M659.303,644.541h5.921v26.797h-5.921V644.541z"/>
	<path style="fill:#FFFFFF;" d="M676.226,644.541h5.921v21.415h10.457v5.383h-16.378L676.226,644.541L676.226,644.541z"/>
	<path style="fill:#FFFFFF;" d="M706.964,649.924h-7.267v-5.383h20.341v5.383h-7.152v21.415h-5.921L706.964,649.924L706.964,649.924
		z"/>
	<path style="fill:#FFFFFF;" d="M749.858,644.541h10.65c4.27,0,7.653,2.882,7.653,6.844c0,2.577-1.27,4.613-3.42,5.383
		c3.539,0.616,5.383,3.305,5.383,6.653c0,4.536-3.462,7.922-8.152,7.922H749.86L749.858,644.541L749.858,644.541z M759.549,655.23
		c1.692,0,2.882-1.193,2.882-2.844c0-1.577-1.193-2.77-2.844-2.77h-3.924v5.613L759.549,655.23L759.549,655.23z M760.778,666.226
		c2,0,3.463-1.423,3.463-3.27c0-1.805-1.423-3.152-3.501-3.152h-5.075v6.422H760.778z"/>
	<path style="fill:#FFFFFF;" d="M787.248,661.344l-9.842-16.802h6.422l6.383,11.15l6.383-11.15h6.422l-9.842,16.802v9.996h-5.921
		v-9.996H787.248z"/>
	<path style="fill:#FFFFFF;" d="M845.913,644.118c4.344,0,8.188,1.924,10.842,4.998l-4.036,3.42
		c-1.692-1.885-4.114-3.039-6.806-3.039c-4.768,0-8.499,3.613-8.499,8.46s3.732,8.419,8.499,8.419c2.69,0,5.152-1.151,6.844-3.074
		l4.036,3.42c-2.654,3.116-6.537,5.036-10.881,5.036c-7.961,0-14.42-5.806-14.42-13.805S837.952,644.118,845.913,644.118z"/>
	<path style="fill:#FFFFFF;" d="M878.767,644.118c7.957,0,14.301,6.114,14.301,13.882c0,7.806-6.345,13.882-14.301,13.882
		c-7.922,0-14.301-6.075-14.301-13.882C864.461,650.232,870.844,644.118,878.767,644.118z M878.767,666.495
		c4.69,0,8.383-3.767,8.383-8.495c0-4.651-3.654-8.498-8.383-8.498c-4.728,0-8.383,3.809-8.383,8.498
		C870.383,662.806,874.037,666.495,878.767,666.495z"/>
	<path style="fill:#FFFFFF;" d="M902.625,644.541h5.921v21.415h10.457v5.383h-16.378L902.625,644.541L902.625,644.541z"/>
	<path style="fill:#FFFFFF;" d="M927.938,644.541h5.921v15.34c0,4.69,2.193,6.498,5.498,6.498c3.27,0,5.46-1.805,5.46-6.498v-15.34
		h5.921v15.956c0,7.575-5.152,11.266-11.381,11.266c-6.267,0-11.419-3.69-11.419-11.266V644.541L927.938,644.541z"/>
	<path style="fill:#FFFFFF;" d="M961.289,644.541h4.959l9.188,13.727l9.191-13.727h4.959v26.797h-5.575v-16.34l-8.576,12.689
		l-8.615-12.689v16.34h-5.536v-26.797H961.289z"/>
	<path style="fill:#FFFFFF;" d="M1000.413,644.541h5.267l12.843,16.648v-16.648h5.729v26.797h-4.844l-13.266-17.11v17.11h-5.729
		L1000.413,644.541L1000.413,644.541z"/>
	<path style="fill:#FFFFFF;" d="M1056.195,644.541h17.645v5.383h-11.724v5.498h10.688v5.267h-10.688v10.65h-5.921V644.541z"/>
	<path style="fill:#FFFFFF;" d="M1083.701,644.541h5.921v26.797h-5.921V644.541z"/>
	<path style="fill:#FFFFFF;" d="M1098.589,644.541h6.306l7.306,18.148l7.268-18.148h6.305l-10.958,26.797h-5.232L1098.589,644.541z"
		/>
	<path style="fill:#FFFFFF;" d="M1134.559,644.541h18.302v5.383h-12.381v5.036h11.573v5.267h-11.573v5.729h12.65v5.383h-18.571
		V644.541L1134.559,644.541z"/>
</g>
</svg>
