<?xml version="1.0" encoding="utf-8"?>
<!-- Generator: Adobe Illustrator 17.1.0, SVG Export Plug-In . SVG Version: 6.00 Build 0)  -->
<!DOCTYPE svg PUBLIC "-//W3C//DTD SVG 1.1//EN" "http://www.w3.org/Graphics/SVG/1.1/DTD/svg11.dtd">
<svg version="1.1" id="Layer_1" xmlns="http://www.w3.org/2000/svg" xmlns:xlink="http://www.w3.org/1999/xlink" x="0px" y="0px"
	 viewBox="0 0 111 61" enable-background="new 0 0 111 61" xml:space="preserve">
<g id="Cannes_Logo_5_">
	<g>
		<g>
			<path fill="#FFF8D9" d="M25.2,55.4v1.1h2v0.6h-2V59h-0.8v-4.3h2.8v0.6h-2V55.4z"/>
			<path fill="#FFF8D9" d="M28.1,58.9v-4.2H31v0.6h-2.1v1.1h2V57h-2v1.2H31v0.6C31,58.9,28.1,58.9,28.1,58.9z"/>
			<path fill="#FFF8D9" d="M33.4,59c-1,0-1.7-0.2-1.7-1.2h0.8c0,0.4,0.2,0.5,1,0.5c0.9,0,1-0.2,1-0.6c0-0.4-0.1-0.4-0.4-0.5
				c-1-0.1-2.1,0.2-2.1-1.2c0-1,0.5-1.3,1.6-1.3c1,0,1.6,0.2,1.6,1.2h-0.8c0-0.5-0.3-0.5-1-0.5c-0.9,0-1,0.1-1,0.6
				c0,0.4,0.2,0.4,0.4,0.4c1,0.1,2.1-0.2,2.1,1.2C35,58.5,34.4,59,33.4,59z"/>
			<path fill="#FFF8D9" d="M37.3,55.4V59h-0.6v-3.5h-1.3v-0.8h3.3v0.6h-1.4V55.4z"/>
			<path fill="#FFF8D9" d="M39.3,58.9v-4.2H40v4.2H39.3z"/>
			<path fill="#FFF8D9" d="M42.7,58.9h-0.6l-1.6-4.2h0.8l1.2,3.2l1.2-3.2h0.8L42.7,58.9z"/>
			<path fill="#FFF8D9" d="M47.2,58.9l-0.4-1.1h-1.6l-0.4,1.1H44l1.6-4.2h0.8l1.6,4.2H47.2z M46,55.5l-0.5,1.6h1.2L46,55.5z"/>
			<path fill="#FFF8D9" d="M48.5,58.9v-4.2h0.8v3.5h2v0.6C51.3,58.9,48.5,58.9,48.5,58.9z"/>
			<path fill="#FFF8D9" d="M56.4,58.3c-0.3,0.4-0.8,0.5-1.5,0.5h-1.5v-4.2h1.5c0.8,0,1.2,0.1,1.5,0.5c0.2,0.3,0.3,0.8,0.3,1.5
				C56.7,57.7,56.6,58,56.4,58.3z M54.7,55.4H54v2.9h0.8c0.9,0,1.1,0,1.1-1.4C55.9,55.4,55.6,55.4,54.7,55.4z"/>
			<path fill="#FFF8D9" d="M57.5,58.9v-4.2h2.8v0.6h-2.1v1.1h2.1V57h-2v1.2h2.1v0.6C60.4,58.9,57.5,58.9,57.5,58.9z"/>
			<path fill="#FFF8D9" d="M65.2,55.9c0-0.4-0.2-0.5-0.9-0.5c-0.9,0-1,0.3-1,1.5c0,1.2,0.1,1.5,1,1.5c0.8,0,0.9-0.1,0.9-0.5h0.8
				c0,1-0.6,1.2-1.6,1.2c-1.7,0-1.7-1-1.7-2.1s0-2.1,1.7-2.1c1,0,1.6,0.2,1.6,1.2H65.2z"/>
			<path fill="#FFF8D9" d="M69.4,58.9l-0.4-1.1h-1.6l-0.4,1.1h-0.8l1.7-4.2h0.8l1.6,4.2H69.4z M68.2,55.5l-0.5,1.6h1.2L68.2,55.5z"
				/>
			<path fill="#FFF8D9" d="M73.1,58.9l-1.7-3v3h-0.6v-4.2h0.8l1.7,3v-3h0.6v4.2H73.1z"/>
			<path fill="#FFF8D9" d="M77.5,58.9l-1.7-3v3h-0.6v-4.2h0.8l1.7,3v-3h0.6v4.2H77.5z"/>
			<path fill="#FFF8D9" d="M79.6,58.9v-4.2h2.9v0.6h-2.1v1.1h2V57h-2v1.2h2.1v0.6C82.5,58.9,79.6,58.9,79.6,58.9z"/>
			<path fill="#FFF8D9" d="M84.8,59c-1,0-1.7-0.2-1.7-1.2H84c0,0.4,0.2,0.5,1,0.5c0.9,0,1-0.2,1-0.6c0-0.4-0.1-0.4-0.4-0.5
				c-1-0.1-2.1,0.2-2.1-1.2c0-1,0.5-1.3,1.6-1.3c1,0,1.6,0.2,1.6,1.2h-0.8c0-0.5-0.3-0.5-1-0.5c-0.9,0-1,0.1-1,0.6
				c0,0.4,0.2,0.4,0.4,0.4c1,0.1,2.1-0.2,2.1,1.2C86.6,58.5,86,59,84.8,59z"/>
		</g>
		<g>
			<g>
				<path fill="#FFF8D9" d="M56.1,50.3c-1.8,0-3-0.4-3-2.1h1.3c0,0.8,0.3,1,1.7,1c1.5,0,1.7-0.3,1.7-1.2c0-0.8-0.3-0.9-0.9-0.9
					c-1.6-0.1-3.9,0.3-3.9-2.1c0-1.7,1-2.3,3-2.3c1.8,0,3,0.4,3,2.1h-1.3c0-0.9-0.5-1-1.7-1c-1.5,0-1.6,0.3-1.6,1.1
					c0,0.8,0.3,0.8,0.9,0.9c1.6,0.1,3.9-0.3,3.9,2.1C59.1,49.5,58.2,50.3,56.1,50.3z"/>
				<path fill="#FFF8D9" d="M60.8,50.2v-7.5h5.2v1.2h-3.9v1.9h3.8v1.2h-3.8v2h3.9v1.2C65.9,50.2,60.8,50.2,60.8,50.2z"/>
				<path fill="#FFF8D9" d="M67.6,50.2v-7.5h1.3V49h3.8v1.2H67.6z"/>
				<path fill="#FFF8D9" d="M73.8,50.2v-7.5h5.2v1.2h-3.9v1.9h3.8v1.2h-3.8v2h3.9v1.2C78.9,50.2,73.8,50.2,73.8,50.2z"/>
				<path fill="#FFF8D9" d="M85.2,44.8c0-0.8-0.3-1-1.6-1c-1.5,0-1.7,0.5-1.7,2.7c0,2.1,0.2,2.6,1.7,2.6c1.3,0,1.6-0.2,1.6-1h1.3
					c0,1.7-1.1,2.1-2.8,2.1c-3.1,0-3.2-1.7-3.2-3.9c0-2.1,0-3.9,3.2-3.9c1.7,0,2.8,0.5,2.8,2.1h-1.3V44.8z"/>
				<path fill="#FFF8D9" d="M90.8,43.8v6.3h-1.3v-6.3h-2.3v-1.2h5.9v1.2H90.8z"/>
				<path fill="#FFF8D9" d="M94.4,50.2v-7.5h1.3v7.5H94.4z"/>
				<path fill="#FFF8D9" d="M100.5,50.3c-3.1,0-3.1-1.6-3.1-3.9c0-2.1,0-3.9,3.1-3.9c3.1,0,3.1,1.6,3.1,3.9
					C103.6,48.8,103.4,50.3,100.5,50.3z M100.5,43.8c-1.5,0-1.7,0.4-1.7,2.7c0,2.1,0.2,2.6,1.7,2.6c1.5,0,1.7-0.4,1.7-2.7
					C102.2,44.3,102,43.8,100.5,43.8z"/>
				<path fill="#FFF8D9" d="M109.7,50.2l-3.1-5.4v5.4h-1.3v-7.5h1.4l3.1,5.4v-5.4h1.3v7.5H109.7z"/>
			</g>
			<g>
				<path fill="#FFF8D9" d="M3.2,50.4c-3.1,0-3.1-1.7-3.1-3.9c0-2.3,0-3.9,3.1-3.9s3.1,1.6,3.1,3.9C6.3,48.9,6.1,50.4,3.2,50.4z
					 M3.1,43.8c-1.5,0-1.8,0.4-1.8,2.7c0,2.3,0.2,2.7,1.8,2.7c1.5,0,1.8-0.4,1.8-2.7C4.9,44.3,4.7,43.8,3.1,43.8z"/>
				<path fill="#FFF8D9" d="M9.2,43.8v1.9h3.7v1.2H9.2v3.3H7.8v-7.6h5.2v1.2C12.9,43.8,9.2,43.8,9.2,43.8z"/>
				<path fill="#FFF8D9" d="M15.8,43.8v1.9h3.7v1.2h-3.7v3.3h-1.4v-7.6h5.2v1.2C19.6,43.8,15.8,43.8,15.8,43.8z"/>
				<path fill="#FFF8D9" d="M21.2,50.3v-7.6h1.4v7.6H21.2z"/>
				<path fill="#FFF8D9" d="M29,44.8c0-0.8-0.3-1-1.6-1c-1.5,0-1.7,0.5-1.7,2.7c0,2.1,0.2,2.7,1.7,2.7c1.3,0,1.6-0.2,1.6-1h1.3
					c0,1.7-1.1,2.3-2.9,2.3c-3.2,0-3.2-1.7-3.2-3.9c0-2.1,0-3.9,3.2-3.9c1.7,0,2.9,0.5,2.9,2.3H29V44.8z"/>
				<path fill="#FFF8D9" d="M31.9,50.3v-7.6h1.4v7.6H31.9z"/>
				<path fill="#FFF8D9" d="M40.2,50.3l-0.8-1.9h-3l-0.6,1.9h-1.4l2.9-7.6h1.4l2.9,7.6H40.2z M38,44.1l-1.1,3h2.1L38,44.1z"/>
				<path fill="#FFF8D9" d="M42.9,50.3v-7.6h1.4v6.4h3.8v1.2H42.9z"/>
			</g>
		</g>
		<g>
			<path fill="#FFF8D9" d="M55.5,2C38.3,2,24.4,9.7,24.4,19s13.6,17,31.1,17c17.3,0,31.1-7.6,31.1-17S72.7,2,55.5,2z M55.5,35
				c-15.8,0-29.4-7.3-29.4-16.1c0-8.7,13.9-16.2,29.4-16.2c15.8,0,29.3,7.5,29.3,16.2C84.8,27.7,71.2,35,55.5,35z"/>
			<path fill="#FFF8D9" d="M78.9,16.9c-1,0.2-1.8,0.5-2.8,0.8c-0.5,0.2-1.2,0.3-1.8,0.4h-0.2l0.1-0.2c0.1-0.1,0.2-0.2,0.2-0.3
				c0.9-0.9,1.9-1.6,2.9-2.6c0.3-0.3,1-0.6,0.8-1.3c-0.2-0.1-0.8,0.1-1,0.2c-1.8,1-3.5,2-5.2,3.5l-0.1,0.1c-0.9,0.6-1.1,2.3-2.4,2.1
				c-0.9-0.1-1-0.1-1.3-0.2c1.4-1.1,4-4.5,4.2-5.4c0,0,0.2-0.8-0.1-0.8c-1.2,0.8-2.4,1.8-3.3,2.7c0.1-0.4,0.8-1.2,0.4-1.7
				c-2.1,0.4-5.2,3.3-5.2,3.3c-0.6,0.4-0.8,1.6-1.7,1.5c-0.5-0.1-1.3-0.1-1.6-0.3c0.5-0.3,1.2-0.8,1.6-1.2c1.3-1,2.4-2,3.5-3.1
				c0.1-0.1,0.4-0.3,0.2-0.5c-0.3-0.3-0.9,0.1-1.2,0.2c-1.8,0.9-3.1,1.9-4.3,3.4c-0.2,0.3-0.5,0.6-0.8,1c-0.9-0.1-1.4-0.1-1.8-0.3
				c0.2-0.2,0.5-0.4,0.8-0.6c1.4-1.2,2.9-2.3,4-4c-0.1-0.5-0.6-0.1-1,0c-1.9,1-3.5,2.1-4.8,4.1c0.1,0.1,0,0.3,0,0.4
				c-0.9,0-1.6-0.2-2.4-0.3l0,0v-0.1c1.8-1,3.5-2.6,4.8-4.5c0,0,1.1-1.9-1.3-0.3c-1.7,1.2-3.3,2.6-4.5,4.7c0,0-1.2,0-1.2-0.1
				c1.2-1.4,2.5-3.2,3.1-5.1c0.1-0.3,0.2-0.9-0.2-1c-1.6,0.6-2.6,2.5-3.4,4.3c-0.2,0.5-0.4,1.2-0.6,1.6c-1.1,0-1.8,0-2.8-0.2
				c1.3-1.1,2.7-2,3.9-3.3c0.2-0.3,1.5-1.3,1.5-2.4c-0.4-0.2-0.9,0-1.1,0.2l-3.5,2.8h-0.2c0.5-1,1.8-2.5,2.4-3.5
				c0.2-0.3,0.4-0.6,0.3-1.1l-0.3-0.1c-2.6,1.1-4.8,3.7-5.7,6.9c-0.2,0.3-0.3,0.9-0.8,0.8c-0.1-0.9-0.3-1.7-0.6-2.5
				c-1.1-2.4-2.7-4-4.7-5.3c-0.3-0.2-0.5,0.2-0.4,0.4c0.3,1.6,1.3,2.7,1.9,3.9c0.9,1.3,1.9,2.5,2.9,3.5c-0.3,0.1-7.6,1.8-9,2.9
				c-0.6,0.4-1.8,1.3-1.7,3.2c0.1,0.5,0.4,1.1,1,1.3c0.4,0.1,0.9,0.1,1.1-0.1c1.4-1.7,2.9-3.3,4.6-4.4c1.2-0.6,2-1.3,3.4-1.4
				c0.5,0.5,1,1.2,1.7,1.8c1.5,1.4,2.9,2.4,4.9,2.7l0.2-0.1l-0.1-0.2c-1.1-1.6-2.8-2.7-4.5-3.4c-0.3-0.2-1.1-0.6-1.1-1.1
				c1.1-0.3,2.5-0.4,3.8-0.1c1.5,2.7,3.2,5.6,5.7,7.3c0.2,0,0.3-0.2,0.2-0.4c-1.7-4.2-2.8-4.5-4.5-6.4c-0.1-0.1-0.2-0.4,0-0.5h1.6
				c0.5,0.1,1.3-0.1,1.4,0.1c0.1,2.8,1.8,4.8,2.9,7c0,0,0.3,0.2,0.3-0.2l0,0c-0.4-4.8-2.3-6-2.6-6.8c0.3,0,0.5,0,0.9,0.1
				c1.2,2.4,2.7,4.1,4.8,5.5c0,0,0.3,0.1,0.1-0.3c-0.6-2-2.5-3-3.7-4.6l-0.2-0.4h0.2c0.5,0.1,1.2,0.2,1.6,0.4
				c0.6,1.3,1.6,2.4,2.6,3.2c0.9,0.8,1.5,1.6,2.8,1.8h0.1v-0.1v-0.1c-0.8-2-2.8-2.8-4.3-4.3c-0.1-0.1-0.3-0.4,0-0.5l2.4,0.3
				c3.5,4.7,4.8,4.5,4.8,4.5s1.1,0.2,0.5-0.5c-1.2-1.2-2.1-1.7-3.5-2.8c-0.2-0.2-0.9-0.6-0.8-1.1c0.5,0.1,0.5,0.1,1.6,0.2
				c0.3,0,0.8,0.1,1,0.2c1.8,0.9,2,3.4,6.4,4c0.1,0,0.2-0.2,0.1-0.3c-1.3-1-4.6-3.2-4.8-3.4c0.4,0,2.3,0.3,2.5,0.4
				c2.3,1.2,3.7,2.1,6.9,1.7c0.3-0.4-0.2-0.5-0.5-0.8l-1.8-0.8c-0.2-0.1-1.3-0.3-1.6-0.4c1.9-0.6,4.5-1.3,6.1-2.4
				c0.2-0.2,0.5-0.3,0.9-0.6C78.7,17.4,78.8,17.2,78.9,16.9C79.4,16.7,78.9,16.9,78.9,16.9z M46.6,17.2c-0.2-0.1,0-0.3,0-0.4
				c0.1-0.1,0.8-1.3,1.4-1C48.1,16.1,47,17.3,46.6,17.2z M67.7,17.6c-0.3,0.5-0.1,1.4-0.5,1.8l-3-0.4c1.7-0.6,3.1-1.8,4-2.3
				L67.7,17.6z M71,20c0-0.3,0.3-0.6,0.5-0.9c1-0.9,1.2,0,1.2,0C72.3,19.4,71.6,19.9,71,20z"/>
		</g>
	</g>
</g>
</svg>
