<?xml version="1.0" encoding="iso-8859-1"?>
<!-- Generator: Adobe Illustrator 17.1.0, SVG Export Plug-In . SVG Version: 6.00 Build 0)  -->
<!DOCTYPE svg PUBLIC "-//W3C//DTD SVG 1.1//EN" "http://www.w3.org/Graphics/SVG/1.1/DTD/svg11.dtd">
<svg version="1.1" id="Layer_1" xmlns="http://www.w3.org/2000/svg" xmlns:xlink="http://www.w3.org/1999/xlink" x="0px" y="0px"
	 viewBox="0 0 59.282 11.877" style="enable-background:new 0 0 59.282 11.877;" xml:space="preserve">
<g>
	<path style="fill:#FFFFFF;" d="M0,11.717V0.16h1.985v9.828h3.121v1.729H0z"/>
	<path style="fill:#FFFFFF;" d="M8.224,2.961C8.224,1.328,9.185,0,11.265,0c2.081,0,3.042,1.328,3.042,2.961v5.954
		c0,1.633-0.96,2.962-3.042,2.962c-2.081,0-3.041-1.329-3.041-2.962V2.961z M10.209,8.867c0,0.864,0.256,1.28,1.056,1.28
		s1.057-0.416,1.057-1.28V3.009c0-0.864-0.256-1.28-1.057-1.28s-1.056,0.416-1.056,1.28V8.867z"/>
	<path style="fill:#FFFFFF;" d="M19.28,11.717h-1.921L19.488,0.16h2.465l2.128,11.557h-1.92L21.81,9.155h-2.177L19.28,11.717z
		 M19.92,7.427h1.601l-0.785-4.962h-0.032L19.92,7.427z"/>
	<path style="fill:#FFFFFF;" d="M27.136,0.16h2.945c2.049,0,3.137,1.12,3.137,3.489v4.578c0,2.368-1.088,3.489-3.137,3.489h-2.945
		V0.16z M29.121,10.084h0.688c1.057,0,1.425-0.4,1.425-1.617V3.409c0-1.217-0.368-1.616-1.425-1.616h-0.688V10.084z"/>
	<path style="fill:#FFFFFF;" d="M37.312,11.717V0.16h1.985v11.557H37.312z"/>
	<path style="fill:#FFFFFF;" d="M43.392,11.717V0.16h1.841l2.417,6.61h0.032V0.16h1.793v11.557h-1.729l-2.529-7.219h-0.032v7.219
		H43.392z"/>
	<path style="fill:#FFFFFF;" d="M56.033,5.858h3.25v5.858h-0.96l-0.368-0.864c-0.592,0.704-1.072,1.024-2,1.024
		c-1.569,0-2.657-1.121-2.657-2.962V2.961c0-1.633,0.96-2.961,2.913-2.961c1.985,0,2.977,1.44,2.977,3.169v0.736h-1.889
		c0-1.729-0.352-2.177-1.136-2.177c-0.48,0-0.88,0.288-0.88,1.265v5.938c0,0.736,0.24,1.216,0.928,1.216
		c0.8,0,1.088-0.447,1.088-1.601v-1.12h-1.265V5.858z"/>
</g>
</svg>
