<?xml version="1.0" encoding="iso-8859-1"?>
<!-- Generator: Adobe Illustrator 17.1.0, SVG Export Plug-In . SVG Version: 6.00 Build 0)  -->
<!DOCTYPE svg PUBLIC "-//W3C//DTD SVG 1.1//EN" "http://www.w3.org/Graphics/SVG/1.1/DTD/svg11.dtd">
<svg version="1.1" id="Layer_1" xmlns="http://www.w3.org/2000/svg" xmlns:xlink="http://www.w3.org/1999/xlink" x="0px" y="0px"
	 viewBox="0 0 960 560" style="enable-background:new 0 0 960 560;" xml:space="preserve">
<g id="Layer_1_1_">
	<g>
		<path style="fill:#FFFFFF;" d="M79.986,169.524l3.292-5.919h2.528l-2.338,5.919h2.15v5.632h-5.632
			C79.986,175.156,79.986,169.524,79.986,169.524z M88.815,169.524l3.292-5.919h2.531l-2.341,5.919h2.15v5.632h-5.632V169.524z"/>
		<path style="fill:#FFFFFF;" d="M124.888,164.086v34.457h-5.155v-26.92h-0.095l-5.346,26.919h-2.862l-5.346-26.919h-0.095v26.919
			h-5.155v-34.456h7.779l4.198,20.141h0.095l4.198-20.141H124.888z"/>
		<path style="fill:#FFFFFF;" d="M131.603,198.542v-34.456h5.919v34.457h-5.919V198.542z"/>
		<path style="fill:#FFFFFF;" d="M156.464,175.586v-2.675c0-2.91-1.336-4.154-2.865-4.154c-2.385,0-3.149,1.243-3.149,3.82v17.467
			c0,2.576,0.763,3.817,3.149,3.817c2.15,0,2.865-1.24,2.865-3.483v-4.151h5.916v3.963c0,4.869-2.862,8.829-8.781,8.829
			c-6.202,0-9.067-3.963-9.067-8.829v-17.753c0-4.869,2.865-8.829,9.067-8.829c5.919,0,8.781,4.294,8.781,9.449v2.528
			C162.38,175.586,156.464,175.586,156.464,175.586z"/>
		<path style="fill:#FFFFFF;" d="M168.862,198.542v-34.456h5.919v14.032h6.297v-14.032h5.919v34.457h-5.919V183.27h-6.297v15.272
			H168.862z"/>
		<path style="fill:#FFFFFF;" d="M193.193,172.437c0-4.869,2.862-8.829,9.067-8.829s9.067,3.963,9.067,8.829v17.753
			c0,4.869-2.862,8.829-9.067,8.829s-9.067-3.963-9.067-8.829V172.437z M199.633,155.397h5.251l4.583,6.873h-4.392l-2.815-4.246
			l-2.815,4.246h-4.392L199.633,155.397z M199.108,190.047c0,2.576,0.763,3.817,3.152,3.817c2.385,0,3.152-1.24,3.152-3.817V172.58
			c0-2.576-0.766-3.82-3.152-3.82c-2.388,0-3.152,1.243-3.152,3.82V190.047z"/>
		<path style="fill:#FFFFFF;" d="M217.523,164.086h8.781c6.11,0,9.354,3.342,9.354,10.403v13.65c0,7.064-3.244,10.403-9.354,10.403
			h-8.781V164.086z M223.442,193.673h2.051c3.152,0,4.249-1.193,4.249-4.821v-15.079c0-3.629-1.097-4.821-4.249-4.821h-2.051
			V193.673L223.442,193.673z"/>
		<path style="fill:#FFFFFF;" d="M247.105,169.715l-3.292,5.919h-2.531l2.338-5.919h-2.147v-5.629h5.632L247.105,169.715
			L247.105,169.715z"/>
		<path style="fill:#FFFFFF;" d="M263.704,172.58c-0.236-2.958-1.81-3.82-3.149-3.82c-1.911,0-2.961,1.243-2.961,3.39
			c0,5.871,12.028,8.686,12.028,18.039c0,5.68-3.817,8.829-9.357,8.829c-5.489,0-8.635-4.392-8.877-9.544l5.632-0.811
			c0.239,3.483,1.622,5.203,3.533,5.203c2.051,0,3.435-1.097,3.435-3.149c0-6.825-12.028-8.638-12.028-18.516
			c0-5.489,3.342-8.59,9.163-8.59c4.821,0,7.684,3.483,8.212,8.352L263.704,172.58z"/>
		<path style="fill:#FFFFFF;" d="M296.431,172.58c-0.236-2.958-1.81-3.82-3.149-3.82c-1.911,0-2.961,1.243-2.961,3.39
			c0,5.871,12.028,8.686,12.028,18.039c0,5.68-3.817,8.829-9.357,8.829c-5.489,0-8.635-4.392-8.877-9.544l5.632-0.811
			c0.239,3.483,1.622,5.203,3.533,5.203c2.051,0,3.435-1.097,3.435-3.149c0-6.825-12.028-8.638-12.028-18.516
			c0-5.489,3.342-8.59,9.163-8.59c4.821,0,7.684,3.483,8.212,8.352L296.431,172.58z"/>
		<path style="fill:#FFFFFF;" d="M310.741,169.238h-5.728v-5.152h17.371v5.155h-5.728v29.304h-5.916L310.741,169.238
			L310.741,169.238z"/>
		<path style="fill:#FFFFFF;" d="M337.027,198.542h-5.916v-14.318l-7.159-20.141h6.014l4.154,13.125h0.095l3.963-13.125h6.014
			l-7.159,20.141v14.318H337.027z"/>
		<path style="fill:#FFFFFF;" d="M347.708,198.542v-34.456h5.919v29.304h9.306v5.155h-15.225V198.542z"/>
		<path style="fill:#FFFFFF;" d="M367.032,198.542v-34.456h15.842v5.155h-9.926v8.877h7.639v5.155h-7.639v10.12h10.597v5.155
			h-16.513L367.032,198.542L367.032,198.542z"/>
		<path style="fill:#FFFFFF;" d="M410.541,172.58c-0.236-2.958-1.81-3.82-3.149-3.82c-1.911,0-2.961,1.243-2.961,3.39
			c0,5.871,12.028,8.686,12.028,18.039c0,5.68-3.817,8.829-9.357,8.829c-5.489,0-8.635-4.392-8.877-9.544l5.632-0.811
			c0.239,3.483,1.622,5.203,3.533,5.203c2.051,0,3.435-1.097,3.435-3.149c0-6.825-12.028-8.638-12.028-18.516
			c0-5.489,3.342-8.59,9.163-8.59c4.821,0,7.684,3.483,8.212,8.352L410.541,172.58z"/>
		<path style="fill:#FFFFFF;" d="M421.412,164.086h5.919v26.012c0,2.528,1.002,3.769,3.149,3.769c2.15,0,3.152-1.24,3.152-3.769
			v-26.012h5.919v25.774c0,5.919-3.438,9.163-9.07,9.163c-5.632,0-9.067-3.244-9.067-9.163v-25.774H421.412z"/>
		<path style="fill:#FFFFFF;" d="M445.743,164.086h8.781c6.348,0,9.163,3.244,9.163,9.115c0,2.961-1.243,6.062-4.106,7.207
			c3.009,1.336,4.774,3.724,4.774,8.161c0,5.68-2.531,9.974-9.258,9.974h-9.354V164.086L445.743,164.086z M451.662,178.21h2.15
			c2.242,0,3.96-1.527,3.96-4.392c0-3.196-1.24-4.866-3.867-4.866h-2.242L451.662,178.21L451.662,178.21z M451.662,193.673h2.481
			c3.152,0,4.297-1.813,4.297-5.296c0-3.533-1.336-5.298-4.869-5.298h-1.911v10.594C451.66,193.673,451.662,193.673,451.662,193.673
			z"/>
		<path style="fill:#FFFFFF;" d="M482.15,164.086h5.82l-7.207,34.46h-5.916l-7.207-34.46h5.82l4.297,23.91h0.092L482.15,164.086z"/>
		<path style="fill:#FFFFFF;" d="M491.733,198.542v-34.456h15.842v5.155h-9.926v8.877h7.639v5.155h-7.639v10.12h10.597v5.155
			h-16.513L491.733,198.542L491.733,198.542z"/>
		<path style="fill:#FFFFFF;" d="M519.308,198.542h-5.919v-34.456h8.304c6.634,0,10.021,2.815,10.021,10.165
			c0,5.537-2.147,7.779-4.154,8.689l5.012,15.606h-6.014l-4.198-14.27c-0.766,0.095-2.007,0.143-3.053,0.143L519.308,198.542
			L519.308,198.542z M519.308,179.549h2.099c3.196,0,4.392-1.193,4.392-5.298c0-4.103-1.193-5.296-4.392-5.296h-2.099V179.549z"/>
		<path style="fill:#FFFFFF;" d="M541.155,169.238h-5.728v-5.152h17.374v5.155h-5.728v29.304h-5.919L541.155,169.238
			L541.155,169.238z"/>
		<path style="fill:#FFFFFF;" d="M567.54,172.58c-0.236-2.958-1.81-3.82-3.149-3.82c-1.911,0-2.961,1.243-2.961,3.39
			c0,5.871,12.028,8.686,12.028,18.039c0,5.68-3.817,8.829-9.357,8.829c-5.489,0-8.635-4.392-8.877-9.544l5.633-0.811
			c0.239,3.483,1.622,5.203,3.533,5.203c2.051,0,3.435-1.097,3.435-3.149c0-6.825-12.028-8.638-12.028-18.516
			c0-5.489,3.342-8.59,9.163-8.59c4.821,0,7.684,3.483,8.212,8.352L567.54,172.58z"/>
		<path style="fill:#FFFFFF;" d="M592.917,169.238h-5.728v-5.152h17.371v5.155h-5.728v29.304h-5.916v-29.307H592.917z"/>
		<path style="fill:#FFFFFF;" d="M608.514,198.542v-34.456h5.916v14.032h6.3v-14.032h5.916v34.457h-5.916V183.27h-6.3v15.272
			H608.514z"/>
		<path style="fill:#FFFFFF;" d="M632.842,198.542v-34.456h15.845v5.155h-9.926v8.877h7.636v5.155h-7.636v10.12h10.594v5.155
			h-16.513L632.842,198.542L632.842,198.542z"/>
		<path style="fill:#FFFFFF;" d="M669.004,169.238h-5.728v-5.152h17.374v5.155h-5.728v29.304h-5.919L669.004,169.238
			L669.004,169.238z"/>
		<path style="fill:#FFFFFF;" d="M695.294,198.542h-5.916v-14.318l-7.159-20.141h6.014l4.154,13.125h0.095l3.963-13.125h6.014
			l-7.159,20.141v14.318H695.294z"/>
		<path style="fill:#FFFFFF;" d="M706.261,198.542v-34.456h8.495c7.302,0,10.692,2.815,10.692,10.165
			c0,7.35-3.39,10.168-10.692,10.168h-2.576v14.127h-5.919V198.542z M712.179,179.549h2.293c3.867,0,5.057-1.193,5.057-5.298
			c0-4.103-1.19-5.296-5.057-5.296h-2.293V179.549z"/>
		<path style="fill:#FFFFFF;" d="M731.402,198.542v-34.456h5.919v34.457h-5.919V198.542z"/>
		<path style="fill:#FFFFFF;" d="M756.264,175.586v-2.675c0-2.91-1.336-4.154-2.865-4.154c-2.385,0-3.149,1.243-3.149,3.82v17.467
			c0,2.576,0.763,3.817,3.149,3.817c2.15,0,2.865-1.24,2.865-3.483v-4.151h5.916v3.963c0,4.869-2.862,8.829-8.781,8.829
			c-6.202,0-9.067-3.963-9.067-8.829v-17.753c0-4.869,2.865-8.829,9.067-8.829c5.919,0,8.781,4.294,8.781,9.449v2.528
			C762.18,175.586,756.264,175.586,756.264,175.586z"/>
		<path style="fill:#FFFFFF;" d="M772.097,198.542h-5.728l6.348-34.46h7.353l6.345,34.46h-5.725l-1.053-7.636h-6.491
			L772.097,198.542z M774.008,185.754h4.774l-2.338-14.795h-0.095L774.008,185.754z"/>
		<path style="fill:#FFFFFF;" d="M790.035,198.542v-34.456h5.916v29.304h9.306v5.155h-15.222V198.542z"/>
		<path style="fill:#FFFFFF;" d="M820.421,198.542v-34.456h5.489l7.207,19.712h0.092v-19.712h5.346v34.457H833.4l-7.541-21.525
			h-0.095v21.525h-5.343V198.542z"/>
		<path style="fill:#FFFFFF;" d="M844.755,172.437c0-4.869,2.862-8.829,9.067-8.829s9.067,3.963,9.067,8.829v17.753
			c0,4.869-2.862,8.829-9.067,8.829s-9.067-3.963-9.067-8.829V172.437z M850.671,190.047c0,2.576,0.763,3.817,3.152,3.817
			c2.385,0,3.152-1.24,3.152-3.817V172.58c0-2.576-0.766-3.82-3.152-3.82c-2.388,0-3.152,1.243-3.152,3.82V190.047z"/>
		<path style="fill:#FFFFFF;" d="M868.319,187.9v-4.392h11.694v4.392H868.319z"/>
		<path style="fill:#FFFFFF;" d="M140.214,228.872h-5.728v-5.155h17.371v5.155h-5.728v29.304h-5.916L140.214,228.872
			L140.214,228.872z"/>
		<path style="fill:#FFFFFF;" d="M156.622,258.176V223.72h5.919v34.457h-5.919V258.176z"/>
		<path style="fill:#FFFFFF;" d="M169.551,232.071c0-4.869,2.865-8.829,9.067-8.829c6.205,0,9.07,3.963,9.07,8.829v17.753
			c0,4.869-2.865,8.829-9.07,8.829c-6.202,0-9.067-3.963-9.067-8.829L169.551,232.071L169.551,232.071z M175.473,249.681
			c0,2.576,0.763,3.817,3.149,3.817c2.388,0,3.152-1.24,3.152-3.817v-17.467c0-2.576-0.763-3.82-3.152-3.82
			c-2.385,0-3.149,1.243-3.149,3.82V249.681z"/>
		<path style="fill:#FFFFFF;" d="M193.882,258.176V223.72h5.489l7.207,19.712h0.095V223.72h5.346v34.457h-5.155l-7.538-21.525
			h-0.095v21.525h-5.349V258.176z"/>
		<path style="fill:#FFFFFF;" d="M229,232.215c-0.236-2.958-1.81-3.82-3.149-3.82c-1.911,0-2.961,1.243-2.961,3.39
			c0,5.871,12.028,8.686,12.028,18.039c0,5.68-3.817,8.829-9.357,8.829c-5.489,0-8.635-4.392-8.877-9.544l5.632-0.811
			c0.239,3.483,1.622,5.203,3.533,5.203c2.051,0,3.435-1.097,3.435-3.149c0-6.825-12.028-8.638-12.028-18.516
			c0-5.489,3.342-8.59,9.163-8.59c4.821,0,7.684,3.483,8.212,8.352L229,232.215z"/>
		<path style="fill:#FFFFFF;" d="M250.939,232.071c0-4.869,2.862-8.829,9.067-8.829s9.067,3.963,9.067,8.829v17.753
			c0,4.869-2.862,8.829-9.067,8.829c-6.205,0-9.067-3.963-9.067-8.829L250.939,232.071L250.939,232.071z M256.858,249.681
			c0,2.576,0.763,3.817,3.152,3.817c2.385,0,3.152-1.24,3.152-3.817v-17.467c0-2.576-0.766-3.82-3.152-3.82
			c-2.388,0-3.152,1.243-3.152,3.82V249.681z"/>
		<path style="fill:#FFFFFF;" d="M275.27,258.176V223.72h16.513v5.155h-10.597v8.88h7.922v5.155h-7.922v15.272h-5.916V258.176z"/>
		<path style="fill:#FFFFFF;" d="M318.779,232.215c-0.236-2.958-1.81-3.82-3.149-3.82c-1.911,0-2.961,1.243-2.961,3.39
			c0,5.871,12.028,8.686,12.028,18.039c0,5.68-3.817,8.829-9.357,8.829c-5.489,0-8.635-4.392-8.877-9.544l5.632-0.811
			c0.239,3.483,1.622,5.203,3.533,5.203c2.051,0,3.435-1.097,3.435-3.149c0-6.825-12.028-8.638-12.028-18.516
			c0-5.489,3.342-8.59,9.163-8.59c4.821,0,7.684,3.483,8.212,8.352L318.779,232.215z"/>
		<path style="fill:#FFFFFF;" d="M333.088,228.872h-5.728v-5.155h17.374v5.155h-5.728v29.304h-5.919L333.088,228.872
			L333.088,228.872z"/>
		<path style="fill:#FFFFFF;" d="M354.604,258.176h-5.916V223.72h8.304c6.634,0,10.022,2.815,10.022,10.165
			c0,5.537-2.15,7.779-4.154,8.689l5.012,15.606h-6.017l-4.198-14.27c-0.763,0.095-2.004,0.143-3.053,0.143V258.176L354.604,258.176
			z M354.604,239.183h2.099c3.196,0,4.392-1.193,4.392-5.298c0-4.103-1.193-5.296-4.392-5.296h-2.099V239.183z"/>
		<path style="fill:#FFFFFF;" d="M376.454,258.176h-5.728l6.348-34.46h7.35l6.348,34.46h-5.728l-1.05-7.636H377.5L376.454,258.176z
			 M378.363,245.388h4.774l-2.338-14.795h-0.092L378.363,245.388z"/>
		<path style="fill:#FFFFFF;" d="M395.487,258.176V223.72h5.919v34.457h-5.919V258.176z"/>
		<path style="fill:#FFFFFF;" d="M416.576,240.709h9.691v17.467h-2.865l-1.097-2.576c-1.765,2.099-3.196,3.053-5.963,3.053
			c-4.678,0-7.922-3.342-7.922-8.829v-17.753c0-4.869,2.862-8.829,8.686-8.829c5.916,0,8.877,4.294,8.877,9.449v2.195h-5.632
			c0-5.155-1.05-6.491-3.387-6.491c-1.431,0-2.627,0.862-2.627,3.772v17.705c0,2.195,0.716,3.626,2.77,3.626
			c2.385,0,3.244-1.336,3.244-4.774v-3.34h-3.772v-4.675H416.576z"/>
		<path style="fill:#FFFFFF;" d="M432.746,258.176V223.72h5.919v14.032h6.297V223.72h5.919v34.457h-5.919v-15.272h-6.297v15.272
			h-5.919V258.176z"/>
		<path style="fill:#FFFFFF;" d="M460.512,228.872h-5.728v-5.155h17.374v5.155h-5.728v29.304h-5.919L460.512,228.872
			L460.512,228.872z"/>
		<path style="fill:#FFFFFF;" d="M476.112,258.176V223.72h16.513v5.155h-10.594v8.88h7.919v5.155h-7.919v15.272h-5.919V258.176z"/>
		<path style="fill:#FFFFFF;" d="M497.768,232.071c0-4.869,2.862-8.829,9.067-8.829s9.067,3.963,9.067,8.829v17.753
			c0,4.869-2.862,8.829-9.067,8.829s-9.067-3.963-9.067-8.829V232.071z M503.687,249.681c0,2.576,0.763,3.817,3.152,3.817
			c2.385,0,3.152-1.24,3.152-3.817v-17.467c0-2.576-0.766-3.82-3.152-3.82c-2.388,0-3.152,1.243-3.152,3.82V249.681z"/>
		<path style="fill:#FFFFFF;" d="M528.017,258.176h-5.916V223.72h8.304c6.634,0,10.022,2.815,10.022,10.165
			c0,5.537-2.15,7.779-4.154,8.689l5.012,15.606h-6.017l-4.198-14.27c-0.763,0.095-2.004,0.143-3.053,0.143V258.176z
			 M528.017,239.183h2.099c3.196,0,4.392-1.193,4.392-5.298c0-4.103-1.193-5.296-4.392-5.296h-2.099V239.183z"/>
		<path style="fill:#FFFFFF;" d="M556.692,223.72h4.869l4.007,21.954h0.095l3.292-21.954h5.534l-6.059,34.46h-4.965l-4.294-22.765
			h-0.095l-4.01,22.765h-4.962l-6.539-34.46h5.537l3.626,21.954h0.095L556.692,223.72z"/>
		<path style="fill:#FFFFFF;" d="M582.162,258.176h-5.728l6.348-34.46h7.353l6.345,34.46h-5.725l-1.052-7.636h-6.491
			L582.162,258.176z M584.073,245.388h4.774l-2.338-14.795h-0.095L584.073,245.388z"/>
		<path style="fill:#FFFFFF;" d="M606.305,258.176h-5.919V223.72h8.304c6.634,0,10.021,2.815,10.021,10.165
			c0,5.537-2.147,7.779-4.154,8.689l5.012,15.606h-6.014l-4.198-14.27c-0.766,0.095-2.007,0.143-3.053,0.143L606.305,258.176
			L606.305,258.176z M606.305,239.183h2.099c3.196,0,4.392-1.193,4.392-5.298c0-4.103-1.193-5.296-4.392-5.296h-2.099V239.183z"/>
		<path style="fill:#FFFFFF;" d="M624.717,223.72h8.781c6.109,0,9.357,3.342,9.357,10.403v13.65c0,7.064-3.247,10.403-9.357,10.403
			h-8.781V223.72z M630.636,253.307h2.051c3.152,0,4.249-1.193,4.249-4.821v-15.081c0-3.629-1.097-4.821-4.249-4.821h-2.051V253.307
			z"/>
		<path style="fill:#FFFFFF;" d="M672.046,235.22v-2.672c0-2.91-1.336-4.154-2.862-4.154c-2.388,0-3.152,1.243-3.152,3.82v17.467
			c0,2.576,0.763,3.817,3.152,3.817c2.147,0,2.862-1.24,2.862-3.483v-4.154h5.919v3.963c0,4.869-2.865,8.829-8.781,8.829
			c-6.205,0-9.067-3.963-9.067-8.829v-17.753c0-4.869,2.862-8.829,9.067-8.829c5.916,0,8.781,4.294,8.781,9.449v2.528h-5.919V235.22
			z"/>
		<path style="fill:#FFFFFF;" d="M685.255,258.176V223.72h5.919v34.457h-5.919V258.176z"/>
		<path style="fill:#FFFFFF;" d="M698.183,258.176V223.72h5.489l7.207,19.712h0.095V223.72h5.346v34.457h-5.155l-7.538-21.525
			h-0.095v21.525h-5.349V258.176z"/>
		<path style="fill:#FFFFFF;" d="M722.514,258.176V223.72h15.845v5.155h-9.926v8.88h7.636v5.155h-7.636v10.12h10.594v5.155h-16.513
			L722.514,258.176L722.514,258.176z"/>
		<path style="fill:#FFFFFF;" d="M767.893,223.72v34.457h-5.155v-26.919h-0.095l-5.343,26.919h-2.865l-5.346-26.919h-0.092v26.919
			h-5.155V223.72h7.779l4.198,20.141h0.095l4.201-20.141C760.113,223.72,767.893,223.72,767.893,223.72z"/>
		<path style="fill:#FFFFFF;" d="M777.234,258.176h-5.728l6.348-34.46h7.353l6.345,34.46h-5.725l-1.053-7.636h-6.491
			L777.234,258.176z M779.146,245.388h4.774l-2.338-14.795h-0.095L779.146,245.388z"/>
		<path style="fill:#FFFFFF;" d="M795.077,258.176v-5.632h5.632v5.632H795.077z"/>
		<path style="fill:#FFFFFF;" d="M812.684,229.349l-3.292,5.919h-2.531l2.341-5.919h-2.15v-5.632h5.632V229.349z M821.513,229.349
			l-3.292,5.919h-2.529l2.338-5.919h-2.15v-5.632h5.632L821.513,229.349L821.513,229.349z"/>
		<path style="fill:#FFF8DA;" d="M379.09,323.774v-25.819h12.371v3.861h-7.937v6.649h5.937v3.861h-5.937v11.444h-4.434V323.774z"/>
		<path style="fill:#FFF8DA;" d="M395.764,323.774v-25.819h4.434v25.819H395.764z"/>
		<path style="fill:#FFF8DA;" d="M409.712,323.774h-4.431v-25.819h6.223c4.971,0,7.511,2.111,7.511,7.618
			c0,4.148-1.61,5.829-3.113,6.509l3.757,11.694h-4.508l-3.149-10.692c-0.57,0.072-1.5,0.107-2.29,0.107L409.712,323.774
			L409.712,323.774z M409.712,309.542h1.574c2.397,0,3.292-0.895,3.292-3.969c0-3.077-0.895-3.972-3.292-3.972h-1.574V309.542
			L409.712,309.542z"/>
		<path style="fill:#FFF8DA;" d="M431.431,304.321c-0.182-2.218-1.36-2.859-2.362-2.859c-1.428,0-2.215,0.93-2.215,2.54
			c0,4.398,9.011,6.509,9.011,13.519c0,4.255-2.862,6.616-7.013,6.616c-4.112,0-6.47-3.292-6.649-7.153l4.219-0.608
			c0.182,2.609,1.217,3.897,2.648,3.897c1.539,0,2.573-0.823,2.573-2.361c0-5.114-9.011-6.473-9.011-13.874
			c0-4.112,2.505-6.438,6.867-6.438c3.614,0,5.761,2.609,6.151,6.259L431.431,304.321z"/>
		<path style="fill:#FFF8DA;" d="M441.986,301.816h-4.288v-3.861h13.015v3.861h-4.291v21.957h-4.434v-21.957H441.986
			L441.986,301.816z"/>
		<path style="fill:#FFF8DA;" d="M469.713,304.321c-0.179-2.218-1.36-2.859-2.359-2.859c-1.431,0-2.218,0.93-2.218,2.54
			c0,4.398,9.011,6.509,9.011,13.519c0,4.255-2.859,6.616-7.01,6.616c-4.112,0-6.473-3.292-6.649-7.153l4.219-0.608
			c0.179,2.609,1.214,3.897,2.648,3.897c1.539,0,2.573-0.823,2.573-2.361c0-5.114-9.011-6.473-9.011-13.874
			c0-4.112,2.505-6.438,6.867-6.438c3.611,0,5.758,2.609,6.148,6.259L469.713,304.321z"/>
		<path style="fill:#FFF8DA;" d="M477.698,323.774v-25.819h4.431v10.514h4.723v-10.514h4.431v25.819h-4.431V312.33h-4.723v11.444
			H477.698z"/>
		<path style="fill:#FFF8DA;" d="M495.767,304.214c0-3.647,2.147-6.616,6.795-6.616s6.792,2.97,6.792,6.616v13.304
			c0,3.647-2.147,6.616-6.792,6.616c-4.651,0-6.795-2.97-6.795-6.616V304.214z M500.201,317.408c0,1.929,0.569,2.859,2.362,2.859
			c1.789,0,2.359-0.93,2.359-2.859v-13.09c0-1.929-0.569-2.859-2.359-2.859c-1.792,0-2.362,0.93-2.362,2.859V317.408z"/>
		<path style="fill:#FFF8DA;" d="M521.523,297.955h3.65l3.003,16.45h0.072l2.466-16.45h4.151l-4.541,25.819h-3.718l-3.217-17.058
			h-0.072l-3.003,17.058h-3.721l-4.899-25.819h4.148l2.719,16.45h0.069L521.523,297.955z"/>
		<path style="fill:#FFF8DA;" d="M538.489,323.774v-25.819h4.434v25.819H538.489z"/>
		<path style="fill:#FFF8DA;" d="M548.007,323.774v-25.819h4.112l5.4,14.768h0.072v-14.768h4.004v25.819h-3.861l-5.65-16.128h-0.072
			v16.128H548.007z"/>
		<path style="fill:#FFF8DA;" d="M572.188,310.684h7.26v13.09h-2.147l-0.82-1.929c-1.321,1.571-2.397,2.29-4.47,2.29
			c-3.506,0-5.937-2.505-5.937-6.616v-13.304c0-3.647,2.147-6.616,6.509-6.616c4.434,0,6.652,3.22,6.652,7.082v1.646h-4.222
			c0-3.861-0.787-4.863-2.54-4.863c-1.07,0-1.965,0.644-1.965,2.824v13.269c0,1.646,0.537,2.719,2.072,2.719
			c1.789,0,2.43-1.002,2.43-3.575v-2.505h-2.824L572.188,310.684L572.188,310.684z"/>
	</g>
</g>
<g id="nyt_x5F_exporter_x5F_info" style="display:none;">
</g>
</svg>
