<?xml version="1.0" encoding="iso-8859-1"?>
<!-- Generator: Adobe Illustrator 17.1.0, SVG Export Plug-In . SVG Version: 6.00 Build 0)  -->
<!DOCTYPE svg PUBLIC "-//W3C//DTD SVG 1.1//EN" "http://www.w3.org/Graphics/SVG/1.1/DTD/svg11.dtd">
<svg version="1.1" xmlns="http://www.w3.org/2000/svg" xmlns:xlink="http://www.w3.org/1999/xlink" x="0px" y="0px"
	 viewBox="0 0 300 168" style="enable-background:new 0 0 300 168;" xml:space="preserve">
<g id="Layer_1">
	<g>
		<path style="fill:#FFFFFF;" d="M28.859,0.16h1.505v4.386h-1.505V0.16z M31.404,0.16h1.505v4.386h-1.505V0.16z"/>
		<path style="fill:#FFFFFF;" d="M35.819,1.889h-1.921V0.16h5.826v1.729h-1.921v9.828h-1.984V1.889z"/>
		<path style="fill:#FFFFFF;" d="M41.05,11.717V0.16h1.984v4.706h2.113V0.16h1.984v11.557h-1.984V6.595h-2.113v5.122H41.05z"/>
		<path style="fill:#FFFFFF;" d="M49.21,11.717V0.16h5.313v1.729h-3.329v2.978h2.562v1.729h-2.562v3.394h3.554v1.729H49.21z"/>
		<path style="fill:#FFFFFF;" d="M62.17,11.717h-1.985V0.16h2.785c2.225,0,3.361,0.944,3.361,3.409c0,1.857-0.72,2.609-1.393,2.914
			l1.681,5.234h-2.017l-1.408-4.786c-0.257,0.032-0.673,0.048-1.024,0.048V11.717z M62.17,5.346h0.704
			c1.072,0,1.473-0.4,1.473-1.777c0-1.376-0.4-1.776-1.473-1.776H62.17V5.346z"/>
		<path style="fill:#FFFFFF;" d="M68.345,2.961C68.345,1.329,69.306,0,71.386,0c2.081,0,3.042,1.329,3.042,2.961v5.954
			c0,1.633-0.961,2.961-3.042,2.961c-2.08,0-3.041-1.329-3.041-2.961V2.961z M70.33,8.868c0,0.864,0.256,1.28,1.056,1.28
			c0.801,0,1.057-0.416,1.057-1.28V3.009c0-0.864-0.256-1.281-1.057-1.281c-0.8,0-1.056,0.417-1.056,1.281V8.868z"/>
		<path style="fill:#FFFFFF;" d="M80.555,0.16h1.952L80.09,11.717h-1.984L75.689,0.16h1.952l1.441,8.019h0.031L80.555,0.16z"/>
		<path style="fill:#FFFFFF;" d="M83.769,11.717V0.16h5.313v1.729h-3.329v2.978h2.562v1.729h-2.562v3.394h3.554v1.729H83.769z"/>
		<path style="fill:#FFFFFF;" d="M93.017,11.717h-1.984V0.16h2.785c2.225,0,3.361,0.944,3.361,3.409
			c0,1.857-0.721,2.609-1.393,2.914l1.681,5.234H95.45l-1.409-4.786c-0.256,0.032-0.672,0.048-1.024,0.048V11.717z M93.017,5.346
			h0.704c1.072,0,1.473-0.4,1.473-1.777c0-1.376-0.4-1.776-1.473-1.776h-0.704V5.346z"/>
		<path style="fill:#FFFFFF;" d="M102.904,11.717V0.16h5.538v1.729h-3.553v2.978h2.656v1.729h-2.656v5.122H102.904z"/>
		<path style="fill:#FFFFFF;" d="M110.167,0.16h1.985v8.724c0,0.848,0.336,1.264,1.056,1.264c0.721,0,1.057-0.416,1.057-1.264V0.16
			h1.985v8.644c0,1.985-1.152,3.073-3.042,3.073c-1.889,0-3.041-1.088-3.041-3.073V0.16z"/>
		<path style="fill:#FFFFFF;" d="M120.313,11.717h-1.985V0.16h2.785c2.225,0,3.361,0.944,3.361,3.409
			c0,1.857-0.72,2.609-1.393,2.914l1.681,5.234h-2.017l-1.408-4.786c-0.257,0.032-0.673,0.048-1.024,0.048V11.717z M120.313,5.346
			h0.704c1.072,0,1.473-0.4,1.473-1.777c0-1.376-0.4-1.776-1.473-1.776h-0.704V5.346z"/>
		<path style="fill:#FFFFFF;" d="M127.64,1.889h-1.921V0.16h5.826v1.729h-1.921v9.828h-1.984V1.889z"/>
		<path style="fill:#FFFFFF;" d="M132.871,11.717V0.16h1.984v4.706h2.113V0.16h1.984v11.557h-1.984V6.595h-2.113v5.122H132.871z"/>
		<path style="fill:#FFFFFF;" d="M141.031,11.717V0.16h5.313v1.729h-3.329v2.978h2.562v1.729h-2.562v3.394h3.554v1.729H141.031z"/>
		<path style="fill:#FFFFFF;" d="M150.28,11.717h-1.985V0.16h2.785c2.225,0,3.361,0.944,3.361,3.409c0,1.857-0.72,2.609-1.393,2.914
			l1.681,5.234h-2.017l-1.408-4.786c-0.257,0.032-0.673,0.048-1.024,0.048V11.717z M150.28,5.346h0.704
			c1.072,0,1.473-0.4,1.473-1.777c0-1.376-0.4-1.776-1.473-1.776h-0.704V5.346z"/>
		<path style="fill:#FFFFFF;" d="M160.166,11.717V0.16h5.314v1.729h-3.329v2.978h2.561v1.729h-2.561v3.394h3.553v1.729H160.166z"/>
		<path style="fill:#FFFFFF;" d="M171.047,3.009c-0.08-0.992-0.608-1.281-1.057-1.281c-0.64,0-0.992,0.417-0.992,1.137
			c0,1.969,4.033,2.913,4.033,6.05c0,1.905-1.28,2.961-3.137,2.961c-1.841,0-2.897-1.473-2.978-3.201l1.889-0.272
			c0.08,1.168,0.545,1.745,1.185,1.745c0.688,0,1.152-0.368,1.152-1.056c0-2.289-4.033-2.897-4.033-6.21
			c0-1.841,1.12-2.881,3.073-2.881c1.616,0,2.577,1.168,2.753,2.801L171.047,3.009z"/>
		<path style="fill:#FFFFFF;" d="M175.846,1.889h-1.921V0.16h5.826v1.729h-1.921v9.828h-1.984V1.889z"/>
		<path style="fill:#FFFFFF;" d="M182.23,11.717h-1.921l2.129-11.557h2.465l2.129,11.557h-1.921l-0.352-2.561h-2.178L182.23,11.717z
			 M182.869,7.427h1.602l-0.785-4.962h-0.031L182.869,7.427z"/>
		<path style="fill:#FFFFFF;" d="M188.34,0.16h2.945c2.129,0,3.073,1.088,3.073,3.057c0,0.993-0.416,2.033-1.377,2.417
			c1.009,0.448,1.602,1.249,1.602,2.737c0,1.905-0.849,3.345-3.105,3.345h-3.138V0.16z M190.325,4.898h0.72
			c0.753,0,1.329-0.512,1.329-1.473c0-1.072-0.417-1.632-1.297-1.632h-0.752V4.898z M190.325,10.084h0.832
			c1.057,0,1.44-0.608,1.44-1.776c0-1.185-0.448-1.777-1.633-1.777h-0.64V10.084z"/>
		<path style="fill:#FFFFFF;" d="M196.405,11.717V0.16h1.984v9.828h3.121v1.729H196.405z"/>
		<path style="fill:#FFFFFF;" d="M203.156,11.717V0.16h1.984v11.557H203.156z"/>
		<path style="fill:#FFFFFF;" d="M211.11,3.009c-0.08-0.992-0.608-1.281-1.057-1.281c-0.64,0-0.992,0.417-0.992,1.137
			c0,1.969,4.033,2.913,4.033,6.05c0,1.905-1.28,2.961-3.137,2.961c-1.841,0-2.897-1.473-2.978-3.201l1.889-0.272
			c0.08,1.168,0.545,1.745,1.185,1.745c0.688,0,1.152-0.368,1.152-1.056c0-2.289-4.033-2.897-4.033-6.21
			c0-1.841,1.12-2.881,3.073-2.881c1.616,0,2.577,1.168,2.753,2.801L211.11,3.009z"/>
		<path style="fill:#FFFFFF;" d="M214.756,11.717V0.16h1.984v4.706h2.113V0.16h1.984v11.557h-1.984V6.595h-2.113v5.122H214.756z"/>
		<path style="fill:#FFFFFF;" d="M222.916,11.717V0.16h5.313v1.729h-3.329v2.978h2.562v1.729h-2.562v3.394h3.554v1.729H222.916z"/>
		<path style="fill:#FFFFFF;" d="M233.796,3.009c-0.079-0.992-0.607-1.281-1.056-1.281c-0.641,0-0.993,0.417-0.993,1.137
			c0,1.969,4.034,2.913,4.034,6.05c0,1.905-1.28,2.961-3.138,2.961c-1.841,0-2.896-1.473-2.977-3.201l1.889-0.272
			c0.08,1.168,0.544,1.745,1.185,1.745c0.688,0,1.152-0.368,1.152-1.056c0-2.289-4.034-2.897-4.034-6.21
			c0-1.841,1.121-2.881,3.073-2.881c1.617,0,2.577,1.168,2.754,2.801L233.796,3.009z"/>
		<path style="fill:#FFFFFF;" d="M241.155,0.16h2.945c2.049,0,3.138,1.121,3.138,3.489v4.578c0,2.369-1.089,3.489-3.138,3.489
			h-2.945V0.16z M243.14,10.084h0.688c1.057,0,1.425-0.4,1.425-1.617V3.41c0-1.217-0.368-1.617-1.425-1.617h-0.688V10.084z"/>
		<path style="fill:#FFFFFF;" d="M250.467,11.717h-1.921l2.129-11.557h2.465l2.129,11.557h-1.921l-0.352-2.561h-2.178
			L250.467,11.717z M251.107,7.427h1.602l-0.785-4.962h-0.031L251.107,7.427z"/>
		<path style="fill:#FFFFFF;" d="M260.628,0.16h1.952l-2.417,11.557h-1.984L255.762,0.16h1.952l1.441,8.019h0.031L260.628,0.16z"/>
		<path style="fill:#FFFFFF;" d="M264.114,11.717V0.16h1.985v11.557H264.114z"/>
		<path style="fill:#FFFFFF;" d="M268.449,0.16h2.945c2.049,0,3.138,1.121,3.138,3.489v4.578c0,2.369-1.089,3.489-3.138,3.489
			h-2.945V0.16z M270.435,10.084h0.688c1.057,0,1.425-0.4,1.425-1.617V3.41c0-1.217-0.368-1.617-1.425-1.617h-0.688V10.084z"/>
		<path style="fill:#FFFFFF;" d="M126.284,20.16v11.557h-1.729v-9.028h-0.032l-1.793,9.028h-0.96l-1.793-9.028h-0.032v9.028h-1.729
			V20.16h2.609l1.408,6.755h0.032l1.408-6.755H126.284z"/>
		<path style="fill:#FFFFFF;" d="M128.537,31.717V20.16h1.984v11.557H128.537z"/>
		<path style="fill:#FFFFFF;" d="M136.874,24.018v-0.896c0-0.976-0.448-1.393-0.96-1.393c-0.801,0-1.057,0.417-1.057,1.281v5.858
			c0,0.864,0.256,1.28,1.057,1.28c0.72,0,0.96-0.416,0.96-1.168v-1.393h1.985v1.329c0,1.633-0.961,2.961-2.945,2.961
			c-2.081,0-3.041-1.329-3.041-2.961v-5.954c0-1.633,0.96-2.961,3.041-2.961c1.984,0,2.945,1.44,2.945,3.169v0.848H136.874z"/>
		<path style="fill:#FFFFFF;" d="M141.033,31.717V20.16h1.984v4.706h2.113V20.16h1.984v11.557h-1.984v-5.122h-2.113v5.122H141.033z"
			/>
		<path style="fill:#FFFFFF;" d="M149.194,22.961c0-1.633,0.96-2.961,3.041-2.961s3.041,1.329,3.041,2.961v5.954
			c0,1.633-0.96,2.961-3.041,2.961s-3.041-1.329-3.041-2.961V22.961z M151.354,17.247h1.761l1.537,2.305h-1.473l-0.944-1.424
			l-0.944,1.424h-1.473L151.354,17.247z M151.178,28.868c0,0.864,0.256,1.28,1.057,1.28c0.8,0,1.057-0.416,1.057-1.28v-5.858
			c0-0.864-0.257-1.281-1.057-1.281c-0.801,0-1.057,0.417-1.057,1.281V28.868z"/>
		<path style="fill:#FFFFFF;" d="M157.353,20.16h2.945c2.049,0,3.138,1.121,3.138,3.489v4.578c0,2.369-1.089,3.489-3.138,3.489
			h-2.945V20.16z M159.338,30.084h0.688c1.057,0,1.425-0.4,1.425-1.617V23.41c0-1.217-0.368-1.617-1.425-1.617h-0.688V30.084z"/>
		<path style="fill:#FFFFFF;" d="M170.377,31.717h-1.921l2.129-11.557h2.466l2.129,11.557h-1.921l-0.353-2.561h-2.177
			L170.377,31.717z M171.018,27.427h1.601l-0.784-4.962h-0.032L171.018,27.427z"/>
		<path style="fill:#FFFFFF;" d="M180.106,23.009c-0.08-0.992-0.608-1.281-1.057-1.281c-0.64,0-0.992,0.417-0.992,1.137
			c0,1.969,4.033,2.913,4.033,6.05c0,1.905-1.28,2.961-3.137,2.961c-1.841,0-2.897-1.473-2.978-3.201l1.889-0.272
			c0.08,1.168,0.545,1.745,1.185,1.745c0.688,0,1.152-0.368,1.152-1.056c0-2.289-4.033-2.897-4.033-6.21
			c0-1.841,1.12-2.881,3.073-2.881c1.616,0,2.577,1.168,2.753,2.801L180.106,23.009z"/>
		<path style="fill:#FFF8DA;" d="M36.944,46.027c0-3.671,2.16-6.659,6.84-6.659c4.679,0,6.839,2.988,6.839,6.659v13.39
			c0,3.672-2.16,6.659-6.839,6.659c-4.68,0-6.84-2.987-6.84-6.659V46.027z M41.407,59.31c0,1.944,0.576,2.88,2.376,2.88
			s2.375-0.936,2.375-2.88V46.135c0-1.944-0.575-2.879-2.375-2.879s-2.376,0.936-2.376,2.879V59.31z"/>
		<path style="fill:#FFF8DA;" d="M55.124,65.717V39.728h4.14l5.435,14.866h0.072V39.728h4.031v25.989h-3.887l-5.688-16.234h-0.072
			v16.234H55.124z"/>
		<path style="fill:#FFF8DA;" d="M73.304,65.717V39.728h11.95v3.888h-7.487v6.695h5.76v3.888h-5.76v7.631h7.991v3.888H73.304z"/>
		<path style="fill:#FFF8DA;" d="M97.639,46.027c0-3.671,2.159-6.659,6.839-6.659s6.839,2.988,6.839,6.659v13.39
			c0,3.672-2.159,6.659-6.839,6.659s-6.839-2.987-6.839-6.659V46.027z M102.102,59.31c0,1.944,0.576,2.88,2.376,2.88
			s2.376-0.936,2.376-2.88V46.135c0-1.944-0.576-2.879-2.376-2.879s-2.376,0.936-2.376,2.879V59.31z"/>
		<path style="fill:#FFF8DA;" d="M115.819,65.717V39.728h12.454v3.888h-7.991v6.695h5.976v3.888h-5.976v11.519H115.819z"/>
		<path style="fill:#FFF8DA;" d="M142.744,43.616h-4.319v-3.888h13.103v3.888h-4.319v22.101h-4.464V43.616z"/>
		<path style="fill:#FFF8DA;" d="M154.337,65.717V39.728h4.463v10.583h4.752V39.728h4.463v25.989h-4.463V54.198H158.8v11.519
			H154.337z"/>
		<path style="fill:#FFF8DA;" d="M172.517,65.717V39.728h11.951v3.888h-7.487v6.695h5.759v3.888h-5.759v7.631h7.991v3.888H172.517z"
			/>
		<path style="fill:#FFF8DA;" d="M214.741,39.728v25.989h-3.888V45.416h-0.072l-4.031,20.301h-2.159l-4.032-20.301h-0.071v20.301
			H196.6V39.728h5.867l3.168,15.19h0.071l3.168-15.19H214.741z"/>
		<path style="fill:#FFF8DA;" d="M219.028,46.027c0-3.671,2.159-6.659,6.839-6.659s6.839,2.988,6.839,6.659v13.39
			c0,3.672-2.159,6.659-6.839,6.659s-6.839-2.987-6.839-6.659V46.027z M223.49,59.31c0,1.944,0.576,2.88,2.376,2.88
			s2.376-0.936,2.376-2.88V46.135c0-1.944-0.576-2.879-2.376-2.879s-2.376,0.936-2.376,2.879V59.31z"/>
		<path style="fill:#FFF8DA;" d="M245.342,46.135c-0.18-2.232-1.368-2.879-2.376-2.879c-1.439,0-2.231,0.936-2.231,2.556
			c0,4.427,9.071,6.551,9.071,13.606c0,4.284-2.88,6.659-7.056,6.659c-4.14,0-6.515-3.312-6.695-7.199l4.248-0.612
			c0.18,2.628,1.224,3.924,2.663,3.924c1.548,0,2.592-0.828,2.592-2.376c0-5.147-9.07-6.515-9.07-13.966
			c0-4.139,2.52-6.479,6.911-6.479c3.635,0,5.795,2.627,6.19,6.299L245.342,46.135z"/>
		<path style="fill:#FFF8DA;" d="M255.962,43.616h-4.319v-3.888h13.103v3.888h-4.319v22.101h-4.464V43.616z"/>
		<path style="fill:#FFF8DA;" d="M63.348,86.542h7.308v13.174h-2.16l-0.828-1.944c-1.331,1.584-2.411,2.304-4.499,2.304
			c-3.527,0-5.976-2.52-5.976-6.659v-13.39c0-3.671,2.16-6.659,6.552-6.659c4.463,0,6.695,3.24,6.695,7.127v1.656h-4.248
			c0-3.887-0.792-4.895-2.556-4.895c-1.08,0-1.979,0.647-1.979,2.843v13.354c0,1.656,0.54,2.736,2.088,2.736
			c1.8,0,2.447-1.008,2.447-3.6v-2.52h-2.844V86.542z"/>
		<path style="fill:#FFF8DA;" d="M75.985,99.717V73.728h4.464v25.989H75.985z"/>
		<path style="fill:#FFF8DA;" d="M85.561,99.717V73.728h12.454v3.888h-7.991v6.695h5.976v3.888h-5.976v11.519H85.561z"/>
		<path style="fill:#FFF8DA;" d="M104.316,77.616h-4.319v-3.888h13.103v3.888h-4.319v22.101h-4.464V77.616z"/>
		<path style="fill:#FFF8DA;" d="M115.908,99.717V73.728h11.95v3.888h-7.487v6.695h5.76v3.888h-5.76v7.631h7.991v3.888H115.908z"/>
		<path style="fill:#FFF8DA;" d="M132.072,73.728h6.623c4.607,0,7.055,2.52,7.055,7.847V91.87c0,5.328-2.447,7.847-7.055,7.847
			h-6.623V73.728z M136.534,96.045h1.548c2.376,0,3.204-0.9,3.204-3.636V81.035c0-2.736-0.828-3.636-3.204-3.636h-1.548V96.045z"/>
		<path style="fill:#FFF8DA;" d="M166.486,99.717h-4.464V88.918l-5.399-15.19h4.536l3.131,9.899h0.072l2.987-9.899h4.536
			l-5.399,15.19V99.717z"/>
		<path style="fill:#FFF8DA;" d="M174.586,80.027c0-3.671,2.159-6.659,6.839-6.659s6.839,2.988,6.839,6.659v13.39
			c0,3.672-2.159,6.659-6.839,6.659s-6.839-2.987-6.839-6.659V80.027z M179.049,93.31c0,1.944,0.576,2.88,2.376,2.88
			s2.376-0.936,2.376-2.88V80.135c0-1.944-0.576-2.879-2.376-2.879s-2.376,0.936-2.376,2.879V93.31z"/>
		<path style="fill:#FFF8DA;" d="M192.766,73.728h4.464v19.618c0,1.908,0.756,2.844,2.376,2.844c1.619,0,2.375-0.936,2.375-2.844
			V73.728h4.464v19.438c0,4.463-2.592,6.911-6.839,6.911c-4.248,0-6.84-2.448-6.84-6.911V73.728z"/>
		<path style="fill:#FFF8DA;" d="M210.946,99.717V73.728h4.14l5.436,14.866h0.072V73.728h4.031v25.989h-3.888l-5.688-16.234h-0.071
			v16.234H210.946z"/>
		<path style="fill:#FFF8DA;" d="M235.281,86.542h7.307v13.174h-2.159l-0.828-1.944c-1.332,1.584-2.412,2.304-4.5,2.304
			c-3.527,0-5.975-2.52-5.975-6.659v-13.39c0-3.671,2.159-6.659,6.551-6.659c4.464,0,6.695,3.24,6.695,7.127v1.656h-4.247
			c0-3.887-0.792-4.895-2.556-4.895c-1.08,0-1.98,0.647-1.98,2.843v13.354c0,1.656,0.54,2.736,2.088,2.736
			c1.8,0,2.448-1.008,2.448-3.6v-2.52h-2.844V86.542z"/>
		<path style="fill:#FFF8DA;" d="M14.749,107.728h6.623c4.607,0,7.055,2.52,7.055,7.847v10.294c0,5.328-2.447,7.847-7.055,7.847
			h-6.623V107.728z M19.212,130.045h1.548c2.376,0,3.204-0.9,3.204-3.636v-11.375c0-2.736-0.828-3.636-3.204-3.636h-1.548V130.045z"
			/>
		<path style="fill:#FFF8DA;" d="M33.541,133.717v-25.989h4.463v25.989H33.541z"/>
		<path style="fill:#FFF8DA;" d="M47.58,133.717h-4.464v-25.989h6.264c5.003,0,7.559,2.124,7.559,7.667
			c0,4.176-1.619,5.867-3.131,6.551l3.779,11.771h-4.535l-3.168-10.763c-0.576,0.072-1.512,0.108-2.304,0.108V133.717z
			 M47.58,119.391h1.584c2.411,0,3.312-0.9,3.312-3.996s-0.9-3.996-3.312-3.996H47.58V119.391z"/>
		<path style="fill:#FFF8DA;" d="M61.297,133.717v-25.989h11.95v3.888H65.76v6.695h5.76v3.888h-5.76v7.631h7.991v3.888H61.297z"/>
		<path style="fill:#FFF8DA;" d="M86.459,116.403v-2.016c0-2.196-1.008-3.131-2.159-3.131c-1.8,0-2.376,0.936-2.376,2.879v13.174
			c0,1.944,0.576,2.88,2.376,2.88c1.619,0,2.159-0.936,2.159-2.628v-3.131h4.464v2.987c0,3.672-2.16,6.659-6.623,6.659
			c-4.68,0-6.84-2.987-6.84-6.659v-13.39c0-3.671,2.16-6.659,6.84-6.659c4.463,0,6.623,3.24,6.623,7.127v1.908H86.459z"/>
		<path style="fill:#FFF8DA;" d="M98.232,111.616h-4.319v-3.888h13.103v3.888h-4.319v22.101h-4.464V111.616z"/>
		<path style="fill:#FFF8DA;" d="M109.824,114.027c0-3.671,2.159-6.659,6.839-6.659s6.839,2.988,6.839,6.659v13.39
			c0,3.672-2.159,6.659-6.839,6.659s-6.839-2.987-6.839-6.659V114.027z M114.287,127.31c0,1.944,0.576,2.88,2.376,2.88
			s2.376-0.936,2.376-2.88v-13.174c0-1.944-0.576-2.879-2.376-2.879s-2.376,0.936-2.376,2.879V127.31z"/>
		<path style="fill:#FFF8DA;" d="M132.467,133.717h-4.463v-25.989h6.263c5.004,0,7.56,2.124,7.56,7.667
			c0,4.176-1.62,5.867-3.132,6.551l3.779,11.771h-4.535l-3.168-10.763c-0.575,0.072-1.512,0.108-2.304,0.108V133.717z
			 M132.467,119.391h1.584c2.412,0,3.312-0.9,3.312-3.996s-0.899-3.996-3.312-3.996h-1.584V119.391z"/>
		<path style="fill:#FFF8DA;" d="M154.32,114.135c-0.181-2.232-1.368-2.879-2.376-2.879c-1.44,0-2.231,0.936-2.231,2.556
			c0,4.427,9.07,6.551,9.07,13.606c0,4.284-2.88,6.659-7.055,6.659c-4.14,0-6.516-3.312-6.695-7.199l4.247-0.612
			c0.181,2.628,1.224,3.924,2.664,3.924c1.548,0,2.592-0.828,2.592-2.376c0-5.147-9.071-6.515-9.071-13.966
			c0-4.139,2.52-6.479,6.911-6.479c3.636,0,5.795,2.627,6.191,6.299L154.32,114.135z"/>
		<path style="fill:#FFF8DA;" d="M173.111,133.717h-4.319l4.787-25.989h5.544l4.787,25.989h-4.319l-0.792-5.759h-4.896
			L173.111,133.717z M174.551,124.07h3.6l-1.765-11.158h-0.071L174.551,124.07z"/>
		<path style="fill:#FFF8DA;" d="M191.146,133.717h-4.463v-25.989h6.263c5.004,0,7.56,2.124,7.56,7.667
			c0,4.176-1.62,5.867-3.132,6.551l3.779,11.771h-4.535l-3.168-10.763c-0.575,0.072-1.512,0.108-2.304,0.108V133.717z
			 M191.146,119.391h1.584c2.412,0,3.312-0.9,3.312-3.996s-0.899-3.996-3.312-3.996h-1.584V119.391z"/>
		<path style="fill:#FFF8DA;" d="M204.863,114.027c0-3.671,2.16-6.659,6.84-6.659c4.679,0,6.839,2.988,6.839,6.659v13.39
			c0,3.672-2.16,6.659-6.839,6.659c-4.68,0-6.84-2.987-6.84-6.659V114.027z M209.326,127.31c0,1.944,0.576,2.88,2.376,2.88
			s2.375-0.936,2.375-2.88v-13.174c0-1.944-0.575-2.879-2.375-2.879s-2.376,0.936-2.376,2.879V127.31z"/>
		<path style="fill:#FFF8DA;" d="M223.042,107.728h4.464v19.618c0,1.908,0.756,2.844,2.376,2.844c1.619,0,2.375-0.936,2.375-2.844
			v-19.618h4.464v19.438c0,4.463-2.592,6.911-6.839,6.911c-4.248,0-6.84-2.448-6.84-6.911V107.728z"/>
		<path style="fill:#FFF8DA;" d="M241.223,133.717v-25.989h4.14l5.435,14.866h0.072v-14.866h4.031v25.989h-3.887l-5.688-16.234
			h-0.072v16.234H241.223z"/>
		<path style="fill:#FFF8DA;" d="M259.403,107.728h6.623c4.607,0,7.056,2.52,7.056,7.847v10.294c0,5.328-2.448,7.847-7.056,7.847
			h-6.623V107.728z M263.866,130.045h1.548c2.376,0,3.203-0.9,3.203-3.636v-11.375c0-2.736-0.827-3.636-3.203-3.636h-1.548V130.045z
			"/>
		<path style="fill:#FFF8DA;" d="M276.863,107.728h3.384v9.863h-3.384V107.728z M282.586,107.728h3.384v9.863h-3.384V107.728z"/>
		<path style="fill:#FFF8DA;" d="M135.916,147.058h1.464l-1.812,8.659h-1.487l-1.811-8.659h1.463l1.079,6.009h0.024L135.916,147.058
			z"/>
		<path style="fill:#FFF8DA;" d="M139.133,155.717h-1.438l1.595-8.659h1.847l1.596,8.659h-1.439l-0.264-1.919h-1.631
			L139.133,155.717z M139.614,152.502h1.199l-0.588-3.718H140.2L139.614,152.502z"/>
		<path style="fill:#FFF8DA;" d="M145.145,155.717h-1.487v-8.659h2.087c1.667,0,2.519,0.708,2.519,2.555
			c0,1.391-0.54,1.955-1.043,2.183l1.259,3.922h-1.511l-1.056-3.586c-0.191,0.024-0.504,0.036-0.768,0.036V155.717z
			 M145.145,150.943h0.527c0.804,0,1.104-0.3,1.104-1.331c0-1.032-0.3-1.332-1.104-1.332h-0.527V150.943z"/>
		<path style="fill:#FFF8DA;" d="M149.921,155.717v-8.659h1.487v8.659H149.921z"/>
		<path style="fill:#FFF8DA;" d="M153.114,155.717v-8.659h3.982v1.295h-2.495v2.23h1.919v1.295h-1.919v2.542h2.662v1.295H153.114z"
			/>
		<path style="fill:#FFF8DA;" d="M159.365,148.353h-1.439v-1.295h4.366v1.295h-1.439v7.364h-1.487V148.353z"/>
		<path style="fill:#FFF8DA;" d="M165.915,155.717h-1.487v-3.598l-1.799-5.061h1.512l1.043,3.298h0.024l0.995-3.298h1.511
			l-1.799,5.061V155.717z"/>
	</g>
</g>
<g id="nyt_x5F_exporter_x5F_info" style="display:none;">
</g>
</svg>
