<?xml version="1.0" encoding="iso-8859-1"?>
<!-- Generator: Adobe Illustrator 17.1.0, SVG Export Plug-In . SVG Version: 6.00 Build 0)  -->
<!DOCTYPE svg PUBLIC "-//W3C//DTD SVG 1.1//EN" "http://www.w3.org/Graphics/SVG/1.1/DTD/svg11.dtd">
<svg version="1.1" xmlns="http://www.w3.org/2000/svg" xmlns:xlink="http://www.w3.org/1999/xlink" x="0px" y="0px"
	 viewBox="0 0 300 130.014" style="enable-background:new 0 0 300 130.014;" xml:space="preserve">
<g id="Layer_1">
	<g>
		<path style="fill:#FFF8DA;" d="M53.538,4.463L56.023,0h1.907l-1.764,4.463h1.62v4.248h-4.248V4.463z M60.198,4.463L62.682,0h1.907
			l-1.764,4.463h1.62v4.248h-4.248V4.463z"/>
		<path style="fill:#FFF8DA;" d="M75.497,13.174h7.307v13.174h-2.159l-0.828-1.944c-1.332,1.584-2.412,2.304-4.5,2.304
			c-3.527,0-5.975-2.52-5.975-6.659V6.659C69.342,2.988,71.501,0,75.893,0c4.464,0,6.695,3.24,6.695,7.127v1.656h-4.247
			c0-3.887-0.792-4.895-2.556-4.895c-1.08,0-1.98,0.647-1.98,2.843v13.354c0,1.656,0.54,2.736,2.088,2.736
			c1.8,0,2.448-1.008,2.448-3.6v-2.52h-2.844V13.174z"/>
		<path style="fill:#FFF8DA;" d="M91.986,26.349h-4.464V0.36h6.264c5.003,0,7.559,2.124,7.559,7.667
			c0,4.176-1.619,5.867-3.131,6.551l3.779,11.771h-4.535l-3.168-10.763c-0.576,0.072-1.512,0.108-2.304,0.108V26.349z
			 M91.986,12.022h1.584c2.411,0,3.312-0.9,3.312-3.996s-0.9-3.996-3.312-3.996h-1.584V12.022z"/>
		<path style="fill:#FFF8DA;" d="M106.314,26.349V0.36h4.464v25.989H106.314z"/>
		<path style="fill:#FFF8DA;" d="M115.89,26.349V0.36h6.407c5.507,0,8.062,2.124,8.062,7.667s-2.556,7.667-8.062,7.667h-1.944
			v10.655H115.89z M120.353,12.022h1.729c2.915,0,3.815-0.9,3.815-3.996s-0.9-3.996-3.815-3.996h-1.729V12.022z"/>
		<path style="fill:#FFF8DA;" d="M134.07,26.349V0.36h6.407c5.508,0,8.063,2.124,8.063,7.667s-2.556,7.667-8.063,7.667h-1.943
			v10.655H134.07z M138.533,12.022h1.728c2.916,0,3.815-0.9,3.815-3.996s-0.899-3.996-3.815-3.996h-1.728V12.022z"/>
		<path style="fill:#FFF8DA;" d="M152.862,26.349V0.36h4.463v25.989H152.862z"/>
		<path style="fill:#FFF8DA;" d="M162.438,26.349V0.36h4.14l5.435,14.866h0.072V0.36h4.031v25.989h-3.887l-5.688-16.234h-0.072
			v16.234H162.438z"/>
		<path style="fill:#FFF8DA;" d="M186.773,13.174h7.308v13.174h-2.16l-0.828-1.944c-1.331,1.584-2.411,2.304-4.499,2.304
			c-3.527,0-5.976-2.52-5.976-6.659V6.659c0-3.671,2.16-6.659,6.552-6.659c4.463,0,6.695,3.24,6.695,7.127v1.656h-4.248
			c0-3.887-0.792-4.895-2.556-4.895c-1.08,0-1.979,0.647-1.979,2.843v13.354c0,1.656,0.54,2.736,2.088,2.736
			c1.8,0,2.447-1.008,2.447-3.6v-2.52h-2.844V13.174z"/>
		<path style="fill:#FFF8DA;" d="M209.561,26.349h-4.319l4.787-25.989h5.543l4.788,25.989h-4.32l-0.792-5.759h-4.895L209.561,26.349
			z M211,16.702h3.6l-1.764-11.158h-0.072L211,16.702z"/>
		<path style="fill:#FFF8DA;" d="M223.132,26.349V0.36h4.14l5.436,14.866h0.072V0.36h4.031v25.989h-3.888l-5.688-16.234h-0.071
			v16.234H223.132z"/>
		<path style="fill:#FFF8DA;" d="M241.312,0.36h6.623c4.607,0,7.056,2.52,7.056,7.847v10.294c0,5.328-2.448,7.847-7.056,7.847
			h-6.623V0.36z M245.776,22.677h1.548c2.376,0,3.203-0.9,3.203-3.636V7.667c0-2.736-0.827-3.636-3.203-3.636h-1.548V22.677z"/>
		<path style="fill:#FFF8DA;" d="M57.786,60.349h-4.319l4.787-25.989h5.544l4.787,25.989h-4.319l-0.792-5.759h-4.896L57.786,60.349z
			 M59.227,50.702h3.6l-1.765-11.158H60.99L59.227,50.702z"/>
		<path style="fill:#FFF8DA;" d="M73.95,38.248h-4.319V34.36h13.102v3.888h-4.319v22.101H73.95V38.248z"/>
		<path style="fill:#FFF8DA;" d="M103.432,34.36v25.989h-3.888V40.047h-0.072l-4.031,20.301h-2.159l-4.032-20.301h-0.071v20.301
			H85.29V34.36h5.867l3.168,15.19h0.071l3.168-15.19H103.432z"/>
		<path style="fill:#FFF8DA;" d="M107.718,40.659c0-3.671,2.159-6.659,6.839-6.659s6.839,2.988,6.839,6.659v13.39
			c0,3.672-2.159,6.659-6.839,6.659s-6.839-2.987-6.839-6.659V40.659z M112.181,53.941c0,1.944,0.576,2.88,2.376,2.88
			s2.376-0.936,2.376-2.88V40.767c0-1.944-0.576-2.879-2.376-2.879s-2.376,0.936-2.376,2.879V53.941z"/>
		<path style="fill:#FFF8DA;" d="M134.033,40.767c-0.181-2.232-1.368-2.879-2.376-2.879c-1.44,0-2.231,0.936-2.231,2.556
			c0,4.427,9.07,6.551,9.07,13.606c0,4.284-2.88,6.659-7.055,6.659c-4.14,0-6.516-3.312-6.695-7.199l4.247-0.612
			c0.181,2.628,1.224,3.924,2.664,3.924c1.548,0,2.592-0.828,2.592-2.376c0-5.147-9.071-6.515-9.071-13.966
			c0-4.139,2.52-6.479,6.911-6.479c3.636,0,5.795,2.627,6.191,6.299L134.033,40.767z"/>
		<path style="fill:#FFF8DA;" d="M142.061,60.349V34.36h6.407c5.508,0,8.063,2.124,8.063,7.667s-2.556,7.667-8.063,7.667h-1.943
			v10.655H142.061z M146.525,46.022h1.728c2.916,0,3.815-0.9,3.815-3.996s-0.899-3.996-3.815-3.996h-1.728V46.022z"/>
		<path style="fill:#FFF8DA;" d="M160.241,60.349V34.36h4.463v10.583h4.752V34.36h4.463v25.989h-4.463V48.83h-4.752v11.519H160.241z
			"/>
		<path style="fill:#FFF8DA;" d="M178.421,60.349V34.36h11.95v3.888h-7.487v6.695h5.76v3.888h-5.76v7.631h7.991v3.888H178.421z"/>
		<path style="fill:#FFF8DA;" d="M199.048,60.349h-4.464V34.36h6.264c5.003,0,7.559,2.124,7.559,7.667
			c0,4.176-1.619,5.867-3.131,6.551l3.779,11.771h-4.535l-3.168-10.763c-0.576,0.072-1.512,0.108-2.304,0.108V60.349z
			 M199.048,46.022h1.584c2.411,0,3.312-0.9,3.312-3.996s-0.9-3.996-3.312-3.996h-1.584V46.022z"/>
		<path style="fill:#FFF8DA;" d="M213.376,60.349V34.36h4.464v25.989H213.376z"/>
		<path style="fill:#FFF8DA;" d="M231.951,43.035v-2.016c0-2.196-1.008-3.131-2.16-3.131c-1.8,0-2.376,0.936-2.376,2.879v13.174
			c0,1.944,0.576,2.88,2.376,2.88c1.62,0,2.16-0.936,2.16-2.628v-3.131h4.463v2.987c0,3.672-2.159,6.659-6.623,6.659
			c-4.68,0-6.839-2.987-6.839-6.659v-13.39c0-3.671,2.159-6.659,6.839-6.659c4.464,0,6.623,3.24,6.623,7.127v1.908H231.951z"/>
		<path style="fill:#FFF8DA;" d="M240.844,60.349v-4.248h4.248v4.248H240.844z"/>
		<path style="fill:#FFFFFF;" d="M13.404,80.349h-1.921l2.129-11.557h2.465l2.129,11.557h-1.921l-0.352-2.561h-2.178L13.404,80.349z
			 M14.043,76.059h1.602l-0.785-4.962h-0.031L14.043,76.059z"/>
		<path style="fill:#FFFFFF;" d="M27.228,72.649v-0.896c0-0.976-0.448-1.393-0.96-1.393c-0.801,0-1.057,0.417-1.057,1.281V77.5
			c0,0.864,0.256,1.28,1.057,1.28c0.72,0,0.96-0.416,0.96-1.168v-1.393h1.985v1.329c0,1.633-0.961,2.961-2.945,2.961
			c-2.081,0-3.041-1.329-3.041-2.961v-5.954c0-1.633,0.96-2.961,3.041-2.961c1.984,0,2.945,1.44,2.945,3.169v0.848H27.228z"/>
		<path style="fill:#FFFFFF;" d="M31.387,71.593c0-1.633,0.96-2.961,3.041-2.961s3.041,1.329,3.041,2.961v5.954
			c0,1.633-0.96,2.961-3.041,2.961s-3.041-1.329-3.041-2.961V71.593z M33.371,77.5c0,0.864,0.256,1.28,1.057,1.28
			c0.8,0,1.057-0.416,1.057-1.28v-5.858c0-0.864-0.257-1.281-1.057-1.281c-0.801,0-1.057,0.417-1.057,1.281V77.5z"/>
		<path style="fill:#FFFFFF;" d="M47.502,68.792v11.557h-1.729v-9.028h-0.032l-1.793,9.028h-0.96l-1.793-9.028h-0.032v9.028h-1.729
			V68.792h2.609l1.408,6.755h0.032l1.408-6.755H47.502z"/>
		<path style="fill:#FFFFFF;" d="M49.483,80.349V68.792h2.849c2.449,0,3.586,0.944,3.586,3.409c0,2.465-1.137,3.41-3.586,3.41
			h-0.864v4.738H49.483z M51.467,73.978h0.769c1.297,0,1.696-0.4,1.696-1.777c0-1.376-0.399-1.776-1.696-1.776h-0.769V73.978z"/>
		<path style="fill:#FFFFFF;" d="M57.643,80.349V68.792h5.313v1.729h-3.329v2.978h2.562v1.729h-2.562v3.394h3.554v1.729H57.643z"/>
		<path style="fill:#FFFFFF;" d="M64.811,80.349V68.792h1.984v9.828h3.121v1.729H64.811z"/>
		<path style="fill:#FFFFFF;" d="M71.194,80.349V68.792h1.985v9.828H76.3v1.729H71.194z"/>
		<path style="fill:#FFFFFF;" d="M77.946,80.349V68.792h1.985v11.557H77.946z"/>
		<path style="fill:#FFFFFF;" d="M82.282,80.349V68.792h1.841l2.417,6.611h0.031v-6.611h1.793v11.557h-1.729l-2.529-7.219h-0.032
			v7.219H82.282z"/>
		<path style="fill:#FFFFFF;" d="M93.179,74.49h3.249v5.858h-0.96L95.1,79.484c-0.593,0.704-1.072,1.024-2.001,1.024
			c-1.568,0-2.657-1.121-2.657-2.961v-5.954c0-1.633,0.961-2.961,2.913-2.961c1.985,0,2.978,1.44,2.978,3.169v0.736h-1.889
			c0-1.729-0.353-2.177-1.137-2.177c-0.48,0-0.88,0.289-0.88,1.265v5.938c0,0.736,0.239,1.216,0.928,1.216
			c0.801,0,1.089-0.448,1.089-1.601v-1.12h-1.265V74.49z"/>
		<path style="fill:#FFFFFF;" d="M98.506,80.349V68.792h1.984v9.828h3.121v1.729H98.506z"/>
		<path style="fill:#FFFFFF;" d="M108.572,80.349h-1.985v-4.802l-2.4-6.755h2.017l1.393,4.402h0.032l1.328-4.402h2.017l-2.4,6.755
			V80.349z"/>
		<path style="fill:#FFFFFF;" d="M115.961,80.349V68.792h1.841l2.417,6.611h0.031v-6.611h1.793v11.557h-1.729l-2.529-7.219h-0.032
			v7.219H115.961z"/>
		<path style="fill:#FFFFFF;" d="M125.274,80.349h-1.921l2.129-11.557h2.465l2.129,11.557h-1.921l-0.352-2.561h-2.178
			L125.274,80.349z M125.913,76.059h1.602l-0.785-4.962h-0.031L125.913,76.059z"/>
		<path style="fill:#FFFFFF;" d="M135.002,71.641c-0.08-0.992-0.608-1.281-1.057-1.281c-0.64,0-0.992,0.417-0.992,1.137
			c0,1.969,4.033,2.913,4.033,6.05c0,1.905-1.28,2.961-3.137,2.961c-1.841,0-2.897-1.473-2.978-3.201l1.889-0.272
			c0.08,1.168,0.545,1.745,1.185,1.745c0.688,0,1.152-0.368,1.152-1.056c0-2.289-4.033-2.897-4.033-6.21
			c0-1.841,1.12-2.881,3.073-2.881c1.616,0,2.577,1.168,2.753,2.801L135.002,71.641z"/>
		<path style="fill:#FFFFFF;" d="M139.8,70.521h-1.921v-1.729h5.827v1.729h-1.921v9.828H139.8V70.521z"/>
		<path style="fill:#FFFFFF;" d="M148.617,80.349h-1.985v-4.802l-2.4-6.755h2.017l1.393,4.402h0.032l1.328-4.402h2.017l-2.4,6.755
			V80.349z"/>
		<path style="fill:#FFFFFF;" d="M160.057,68.792h1.952l-2.417,11.557h-1.984l-2.417-11.557h1.952l1.441,8.019h0.031L160.057,68.792
			z"/>
		<path style="fill:#FFFFFF;" d="M163.542,80.349V68.792h1.985v11.557H163.542z"/>
		<path style="fill:#FFFFFF;" d="M171.496,71.641c-0.08-0.992-0.608-1.281-1.057-1.281c-0.64,0-0.992,0.417-0.992,1.137
			c0,1.969,4.033,2.913,4.033,6.05c0,1.905-1.28,2.961-3.137,2.961c-1.841,0-2.897-1.473-2.978-3.201l1.889-0.272
			c0.08,1.168,0.545,1.745,1.185,1.745c0.688,0,1.152-0.368,1.152-1.056c0-2.289-4.033-2.897-4.033-6.21
			c0-1.841,1.12-2.881,3.073-2.881c1.616,0,2.577,1.168,2.753,2.801L171.496,71.641z"/>
		<path style="fill:#FFFFFF;" d="M175.414,80.349V68.792h1.984v11.557H175.414z"/>
		<path style="fill:#FFFFFF;" d="M179.75,71.593c0-1.633,0.961-2.961,3.041-2.961c2.081,0,3.042,1.329,3.042,2.961v5.954
			c0,1.633-0.961,2.961-3.042,2.961c-2.08,0-3.041-1.329-3.041-2.961V71.593z M181.736,77.5c0,0.864,0.256,1.28,1.056,1.28
			c0.801,0,1.057-0.416,1.057-1.28v-5.858c0-0.864-0.256-1.281-1.057-1.281c-0.8,0-1.056,0.417-1.056,1.281V77.5z"/>
		<path style="fill:#FFFFFF;" d="M187.91,80.349V68.792h1.841l2.417,6.611h0.032v-6.611h1.793v11.557h-1.729l-2.528-7.219h-0.032
			v7.219H187.91z"/>
		<path style="fill:#FFFFFF;" d="M199.782,71.593c0-1.633,0.96-2.961,3.041-2.961s3.041,1.329,3.041,2.961v5.954
			c0,1.633-0.96,2.961-3.041,2.961s-3.041-1.329-3.041-2.961V71.593z M201.767,77.5c0,0.864,0.256,1.28,1.057,1.28
			c0.8,0,1.057-0.416,1.057-1.28v-5.858c0-0.864-0.257-1.281-1.057-1.281c-0.801,0-1.057,0.417-1.057,1.281V77.5z"/>
		<path style="fill:#FFFFFF;" d="M207.943,80.349V68.792h5.538v1.729h-3.554v2.978h2.657v1.729h-2.657v5.122H207.943z"/>
		<path style="fill:#FFFFFF;" d="M220.07,70.521h-1.921v-1.729h5.827v1.729h-1.921v9.828h-1.985V70.521z"/>
		<path style="fill:#FFFFFF;" d="M225.301,80.349V68.792h1.985v4.706h2.112v-4.706h1.985v11.557h-1.985v-5.122h-2.112v5.122H225.301
			z"/>
		<path style="fill:#FFFFFF;" d="M233.461,80.349V68.792h5.313v1.729h-3.329v2.978h2.562v1.729h-2.562v3.394h3.554v1.729H233.461z"
			/>
		<path style="fill:#FFFFFF;" d="M244.437,80.349V68.792h5.538v1.729h-3.554v2.978h2.657v1.729h-2.657v5.122H244.437z"/>
		<path style="fill:#FFFFFF;" d="M251.699,68.792h1.985v8.724c0,0.848,0.336,1.264,1.056,1.264c0.721,0,1.057-0.416,1.057-1.264
			v-8.724h1.985v8.644c0,1.985-1.152,3.073-3.042,3.073c-1.889,0-3.041-1.088-3.041-3.073V68.792z"/>
		<path style="fill:#FFFFFF;" d="M261.012,70.521h-1.921v-1.729h5.827v1.729h-1.921v9.828h-1.985V70.521z"/>
		<path style="fill:#FFFFFF;" d="M266.243,68.792h1.985v8.724c0,0.848,0.336,1.264,1.056,1.264c0.721,0,1.057-0.416,1.057-1.264
			v-8.724h1.985v8.644c0,1.985-1.152,3.073-3.042,3.073c-1.889,0-3.041-1.088-3.041-3.073V68.792z"/>
		<path style="fill:#FFFFFF;" d="M276.389,80.349h-1.985V68.792h2.785c2.225,0,3.361,0.944,3.361,3.409
			c0,1.857-0.72,2.609-1.393,2.914l1.681,5.234h-2.017l-1.408-4.786c-0.257,0.032-0.673,0.048-1.024,0.048V80.349z M276.389,73.978
			h0.704c1.072,0,1.473-0.4,1.473-1.777c0-1.376-0.4-1.776-1.473-1.776h-0.704V73.978z"/>
		<path style="fill:#FFFFFF;" d="M282.564,80.349V68.792h5.313v1.729h-3.329v2.978h2.562v1.729h-2.562v3.394h3.554v1.729H282.564z"
			/>
		<path style="fill:#FFFFFF;" d="M38.46,88.792h1.633l1.344,7.363h0.032l1.104-7.363h1.856l-2.032,11.557h-1.665l-1.44-7.635H39.26
			l-1.345,7.635h-1.664l-2.193-11.557h1.857l1.216,7.363h0.032L38.46,88.792z"/>
		<path style="fill:#FFFFFF;" d="M46.122,100.349V88.792h1.985v11.557H46.122z"/>
		<path style="fill:#FFFFFF;" d="M51.611,90.521H49.69v-1.729h5.826v1.729h-1.921v9.828h-1.984V90.521z"/>
		<path style="fill:#FFFFFF;" d="M56.842,100.349V88.792h1.984v4.706h2.113v-4.706h1.984v11.557H60.94v-5.122h-2.113v5.122H56.842z"
			/>
		<path style="fill:#FFFFFF;" d="M68.713,100.349V88.792h2.85c2.448,0,3.585,0.944,3.585,3.409c0,2.465-1.137,3.41-3.585,3.41
			h-0.864v4.738H68.713z M70.698,93.978h0.768c1.297,0,1.697-0.4,1.697-1.777c0-1.376-0.4-1.776-1.697-1.776h-0.768V93.978z"/>
		<path style="fill:#FFFFFF;" d="M76.778,100.349V88.792h1.984v9.828h3.121v1.729H76.778z"/>
		<path style="fill:#FFFFFF;" d="M83.257,100.349V88.792h5.314v1.729h-3.329v2.978h2.561v1.729h-2.561v3.394h3.553v1.729H83.257z"/>
		<path style="fill:#FFFFFF;" d="M90.521,100.349V88.792h1.841l2.417,6.611h0.031v-6.611h1.793v11.557h-1.729l-2.529-7.219h-0.032
			v7.219H90.521z"/>
		<path style="fill:#FFFFFF;" d="M99.833,90.521h-1.921v-1.729h5.826v1.729h-1.921v9.828h-1.984V90.521z"/>
		<path style="fill:#FFFFFF;" d="M108.65,100.349h-1.984v-4.802l-2.401-6.755h2.017l1.393,4.402h0.032l1.329-4.402h2.017
			l-2.401,6.755V100.349z"/>
		<path style="fill:#FFFFFF;" d="M117.192,90.521h-1.921v-1.729h5.827v1.729h-1.921v9.828h-1.985V90.521z"/>
		<path style="fill:#FFFFFF;" d="M122.423,91.593c0-1.633,0.961-2.961,3.041-2.961c2.081,0,3.042,1.329,3.042,2.961v5.954
			c0,1.633-0.961,2.961-3.042,2.961c-2.08,0-3.041-1.329-3.041-2.961V91.593z M124.408,97.5c0,0.864,0.256,1.28,1.056,1.28
			c0.801,0,1.057-0.416,1.057-1.28v-5.858c0-0.864-0.256-1.281-1.057-1.281c-0.8,0-1.056,0.417-1.056,1.281V97.5z"/>
		<path style="fill:#FFFFFF;" d="M137.912,91.641c-0.08-0.992-0.608-1.281-1.057-1.281c-0.64,0-0.992,0.417-0.992,1.137
			c0,1.969,4.033,2.913,4.033,6.05c0,1.905-1.28,2.961-3.137,2.961c-1.841,0-2.897-1.473-2.978-3.201l1.889-0.272
			c0.08,1.168,0.545,1.745,1.185,1.745c0.688,0,1.152-0.368,1.152-1.056c0-2.289-4.033-2.897-4.033-6.21
			c0-1.841,1.12-2.881,3.073-2.881c1.616,0,2.577,1.168,2.753,2.801L137.912,91.641z"/>
		<path style="fill:#FFFFFF;" d="M142.711,100.349h-1.921l2.129-11.557h2.465l2.129,11.557h-1.921l-0.352-2.561h-2.178
			L142.711,100.349z M143.351,96.059h1.602l-0.785-4.962h-0.031L143.351,96.059z"/>
		<path style="fill:#FFFFFF;" d="M152.407,100.349h-1.984v-4.802l-2.401-6.755h2.017l1.393,4.402h0.032l1.329-4.402h2.017
			l-2.401,6.755V100.349z"/>
		<path style="fill:#FFFFFF;" d="M160.949,100.349h-1.921l2.129-11.557h2.466l2.129,11.557h-1.921l-0.353-2.561h-2.177
			L160.949,100.349z M161.59,96.059h1.601l-0.784-4.962h-0.032L161.59,96.059z"/>
		<path style="fill:#FFFFFF;" d="M167.061,88.792h2.945c2.129,0,3.073,1.088,3.073,3.057c0,0.993-0.416,2.033-1.377,2.417
			c1.009,0.448,1.602,1.249,1.602,2.737c0,1.905-0.849,3.345-3.105,3.345h-3.138V88.792z M169.046,93.53h0.72
			c0.753,0,1.329-0.512,1.329-1.473c0-1.072-0.417-1.632-1.297-1.632h-0.752V93.53z M169.046,98.716h0.832
			c1.057,0,1.44-0.608,1.44-1.776c0-1.185-0.448-1.777-1.633-1.777h-0.64V98.716z"/>
		<path style="fill:#FFFFFF;" d="M175.221,91.593c0-1.633,0.96-2.961,3.041-2.961s3.041,1.329,3.041,2.961v5.954
			c0,1.633-0.96,2.961-3.041,2.961s-3.041-1.329-3.041-2.961V91.593z M177.205,97.5c0,0.864,0.256,1.28,1.057,1.28
			c0.8,0,1.057-0.416,1.057-1.28v-5.858c0-0.864-0.257-1.281-1.057-1.281c-0.801,0-1.057,0.417-1.057,1.281V97.5z"/>
		<path style="fill:#FFFFFF;" d="M183.381,88.792h1.984v8.724c0,0.848,0.336,1.264,1.057,1.264c0.72,0,1.057-0.416,1.057-1.264
			v-8.724h1.984v8.644c0,1.985-1.152,3.073-3.041,3.073s-3.041-1.088-3.041-3.073V88.792z"/>
		<path style="fill:#FFFFFF;" d="M192.694,90.521h-1.921v-1.729h5.826v1.729h-1.921v9.828h-1.984V90.521z"/>
		<path style="fill:#FFFFFF;" d="M201.636,100.349V88.792h1.985v4.706h2.112v-4.706h1.985v11.557h-1.985v-5.122h-2.112v5.122
			H201.636z"/>
		<path style="fill:#FFFFFF;" d="M209.796,88.792h1.985v8.724c0,0.848,0.336,1.264,1.056,1.264c0.721,0,1.057-0.416,1.057-1.264
			v-8.724h1.985v8.644c0,1.985-1.152,3.073-3.042,3.073c-1.889,0-3.041-1.088-3.041-3.073V88.792z"/>
		<path style="fill:#FFFFFF;" d="M225.911,88.792v11.557h-1.729v-9.028h-0.032l-1.793,9.028h-0.96l-1.793-9.028h-0.032v9.028h-1.729
			V88.792h2.609l1.408,6.755h0.032l1.408-6.755H225.911z"/>
		<path style="fill:#FFFFFF;" d="M229.044,100.349h-1.921l2.129-11.557h2.466l2.129,11.557h-1.921l-0.353-2.561h-2.177
			L229.044,100.349z M229.685,96.059h1.601l-0.784-4.962h-0.032L229.685,96.059z"/>
		<path style="fill:#FFFFFF;" d="M235.156,100.349V88.792h1.841l2.417,6.611h0.031v-6.611h1.793v11.557h-1.729l-2.529-7.219h-0.032
			v7.219H235.156z"/>
		<path style="fill:#FFFFFF;" d="M243.588,100.349V88.792h1.984v11.557H243.588z"/>
		<path style="fill:#FFFFFF;" d="M249.076,90.521h-1.921v-1.729h5.827v1.729h-1.921v9.828h-1.985V90.521z"/>
		<path style="fill:#FFFFFF;" d="M257.894,100.349h-1.985v-4.802l-2.4-6.755h2.017l1.393,4.402h0.032l1.328-4.402h2.017l-2.4,6.755
			V100.349z"/>
		<path style="fill:#FFFFFF;" d="M261.251,88.792h1.505v4.386h-1.505V88.792z M263.796,88.792h1.505v4.386h-1.505V88.792z"/>
		<path style="fill:#FFF8DA;" d="M116.7,122.349v-8.659h3.981v1.295h-2.494v2.23h1.919v1.295h-1.919v2.542h2.662v1.295H116.7z"/>
		<path style="fill:#FFF8DA;" d="M128.048,113.689v8.659h-1.295v-6.764h-0.024l-1.343,6.764h-0.72l-1.343-6.764h-0.024v6.764h-1.295
			v-8.659h1.955l1.055,5.061h0.024l1.056-5.061H128.048z"/>
		<path style="fill:#FFF8DA;" d="M129.48,122.349v-8.659h2.135c1.835,0,2.687,0.708,2.687,2.555c0,1.847-0.852,2.555-2.687,2.555
			h-0.647v3.55H129.48z M130.967,117.575h0.576c0.971,0,1.271-0.3,1.271-1.331c0-1.032-0.3-1.332-1.271-1.332h-0.576V117.575z"/>
		<path style="fill:#FFF8DA;" d="M135.743,122.349v-8.659h1.487v8.659H135.743z"/>
		<path style="fill:#FFF8DA;" d="M140.423,122.349h-1.487v-8.659h2.087c1.667,0,2.519,0.708,2.519,2.555
			c0,1.391-0.54,1.955-1.043,2.183l1.259,3.922h-1.511l-1.056-3.586c-0.191,0.024-0.504,0.036-0.768,0.036V122.349z
			 M140.423,117.575h0.527c0.804,0,1.104-0.3,1.104-1.331c0-1.032-0.3-1.332-1.104-1.332h-0.527V117.575z"/>
		<path style="fill:#FFF8DA;" d="M144.995,122.349v-8.659h3.982v1.295h-2.495v2.23h1.919v1.295h-1.919v2.542h2.662v1.295H144.995z"
			/>
		<path style="fill:#FFF8DA;" d="M153.108,115.788c0-1.223,0.72-2.219,2.278-2.219c1.56,0,2.279,0.996,2.279,2.219v4.462
			c0,1.223-0.72,2.219-2.279,2.219c-1.559,0-2.278-0.996-2.278-2.219V115.788z M154.595,120.214c0,0.647,0.191,0.959,0.791,0.959
			s0.792-0.312,0.792-0.959v-4.39c0-0.647-0.192-0.959-0.792-0.959s-0.791,0.312-0.791,0.959V120.214z"/>
		<path style="fill:#FFF8DA;" d="M159.167,122.349v-8.659h1.379l1.812,4.953h0.024v-4.953h1.343v8.659h-1.295l-1.896-5.409h-0.023
			v5.409H159.167z"/>
		<path style="fill:#FFF8DA;" d="M165.156,122.349v-8.659h1.487v7.364h2.339v1.295H165.156z"/>
		<path style="fill:#FFF8DA;" d="M170.159,122.349v-8.659h1.487v8.659H170.159z"/>
		<path style="fill:#FFF8DA;" d="M173.352,122.349v-8.659h1.379l1.811,4.953h0.024v-4.953h1.344v8.659h-1.296l-1.895-5.409h-0.024
			v5.409H173.352z"/>
		<path style="fill:#FFF8DA;" d="M179.411,122.349v-8.659h3.982v1.295h-2.495v2.23h1.919v1.295h-1.919v2.542h2.662v1.295H179.411z"
			/>
	</g>
</g>
<g id="nyt_x5F_exporter_x5F_info" style="display:none;">
</g>
</svg>
