<?xml version="1.0" encoding="iso-8859-1"?>
<!-- Generator: Adobe Illustrator 17.1.0, SVG Export Plug-In . SVG Version: 6.00 Build 0)  -->
<!DOCTYPE svg PUBLIC "-//W3C//DTD SVG 1.1//EN" "http://www.w3.org/Graphics/SVG/1.1/DTD/svg11.dtd">
<svg version="1.1" id="Layer_1" xmlns="http://www.w3.org/2000/svg" xmlns:xlink="http://www.w3.org/1999/xlink" x="0px" y="0px"
	 viewBox="0 0 960 560" style="enable-background:new 0 0 960 560;" xml:space="preserve">
<g id="nyt_x5F_exporter_x5F_info" style="display:none;">
</g>
<g>
	<path style="fill:#FFFFFF;" d="M118.873,169.524l3.293-5.918h2.528l-2.338,5.918h2.149v5.632h-5.632V169.524z M127.702,169.524
		l3.293-5.918h2.53l-2.341,5.918h2.149v5.632h-5.632V169.524z"/>
	<path style="fill:#FFFFFF;" d="M163.775,164.083v34.46h-5.154v-26.919h-0.096l-5.346,26.919h-2.862l-5.346-26.919h-0.096v26.919
		h-5.154v-34.46h7.781l4.199,20.142h0.096l4.199-20.142H163.775z"/>
	<path style="fill:#FFFFFF;" d="M170.49,198.543v-34.46h5.92v34.46H170.49z"/>
	<path style="fill:#FFFFFF;" d="M195.352,175.585v-2.673c0-2.91-1.337-4.152-2.865-4.152c-2.385,0-3.148,1.242-3.148,3.819v17.469
		c0,2.577,0.763,3.818,3.148,3.818c2.149,0,2.865-1.24,2.865-3.484v-4.152h5.917v3.962c0,4.869-2.862,8.83-8.782,8.83
		c-6.202,0-9.068-3.962-9.068-8.83v-17.754c0-4.869,2.865-8.83,9.068-8.83c5.92,0,8.782,4.295,8.782,9.451v2.529H195.352z"/>
	<path style="fill:#FFFFFF;" d="M207.751,198.543v-34.46h5.92v14.033h6.298v-14.033h5.92v34.46h-5.92V183.27h-6.298v15.273H207.751z
		"/>
	<path style="fill:#FFFFFF;" d="M232.083,172.436c0-4.869,2.862-8.83,9.068-8.83s9.068,3.962,9.068,8.83v17.754
		c0,4.869-2.862,8.83-9.068,8.83s-9.068-3.962-9.068-8.83V172.436z M238.524,155.397h5.25l4.583,6.872h-4.391l-2.816-4.247
		l-2.816,4.247h-4.391L238.524,155.397z M238,190.047c0,2.577,0.763,3.818,3.151,3.818c2.385,0,3.151-1.24,3.151-3.818v-17.469
		c0-2.577-0.766-3.819-3.151-3.819c-2.388,0-3.151,1.242-3.151,3.819V190.047z"/>
	<path style="fill:#FFFFFF;" d="M256.415,164.083h8.782c6.109,0,9.353,3.341,9.353,10.404v13.651c0,7.063-3.244,10.404-9.353,10.404
		h-8.782V164.083z M262.332,193.674h2.053c3.151,0,4.248-1.192,4.248-4.821v-15.081c0-3.628-1.098-4.821-4.248-4.821h-2.053V193.674
		z"/>
	<path style="fill:#FFFFFF;" d="M285.997,169.715l-3.293,5.918h-2.53l2.338-5.918h-2.146v-5.632h5.632V169.715z"/>
	<path style="fill:#FFFFFF;" d="M302.598,172.579c-0.236-2.959-1.811-3.819-3.148-3.819c-1.91,0-2.961,1.242-2.961,3.389
		c0,5.87,12.029,8.686,12.029,18.041c0,5.68-3.818,8.83-9.356,8.83c-5.489,0-8.637-4.391-8.876-9.545l5.632-0.812
		c0.239,3.484,1.622,5.202,3.532,5.202c2.05,0,3.436-1.098,3.436-3.149c0-6.826-12.029-8.64-12.029-18.518
		c0-5.489,3.343-8.592,9.164-8.592c4.822,0,7.685,3.484,8.212,8.353L302.598,172.579z"/>
	<path style="fill:#FFFFFF;" d="M335.325,172.579c-0.236-2.959-1.811-3.819-3.148-3.819c-1.91,0-2.961,1.242-2.961,3.389
		c0,5.87,12.029,8.686,12.029,18.041c0,5.68-3.818,8.83-9.356,8.83c-5.489,0-8.637-4.391-8.876-9.545l5.632-0.812
		c0.239,3.484,1.622,5.202,3.532,5.202c2.05,0,3.436-1.098,3.436-3.149c0-6.826-12.029-8.64-12.029-18.518
		c0-5.489,3.343-8.592,9.164-8.592c4.822,0,7.685,3.484,8.212,8.353L335.325,172.579z"/>
	<path style="fill:#FFFFFF;" d="M349.634,169.237h-5.728v-5.154h17.373v5.154h-5.728v29.306h-5.917V169.237z"/>
	<path style="fill:#FFFFFF;" d="M375.923,198.543h-5.917v-14.318l-7.16-20.142h6.013l4.152,13.125h0.096l3.963-13.125h6.013
		l-7.16,20.142V198.543z"/>
	<path style="fill:#FFFFFF;" d="M386.604,198.543v-34.46h5.92v29.306h9.307v5.154H386.604z"/>
	<path style="fill:#FFFFFF;" d="M405.927,198.543v-34.46h15.844v5.154h-9.927v8.878h7.638v5.154h-7.638v10.119h10.596v5.154H405.927
		z"/>
	<path style="fill:#FFFFFF;" d="M449.437,172.579c-0.236-2.959-1.811-3.819-3.148-3.819c-1.91,0-2.961,1.242-2.961,3.389
		c0,5.87,12.029,8.686,12.029,18.041c0,5.68-3.818,8.83-9.356,8.83c-5.489,0-8.637-4.391-8.876-9.545l5.632-0.812
		c0.239,3.484,1.622,5.202,3.532,5.202c2.05,0,3.436-1.098,3.436-3.149c0-6.826-12.029-8.64-12.029-18.518
		c0-5.489,3.343-8.592,9.164-8.592c4.822,0,7.685,3.484,8.212,8.353L449.437,172.579z"/>
	<path style="fill:#FFFFFF;" d="M460.311,164.083h5.92v26.012c0,2.529,1.002,3.769,3.148,3.769c2.149,0,3.151-1.24,3.151-3.769
		v-26.012h5.92v25.773c0,5.918-3.439,9.164-9.071,9.164s-9.068-3.245-9.068-9.164V164.083z"/>
	<path style="fill:#FFFFFF;" d="M484.643,164.083h8.782c6.348,0,9.164,3.245,9.164,9.116c0,2.96-1.243,6.061-4.106,7.207
		c3.008,1.337,4.773,3.723,4.773,8.162c0,5.68-2.53,9.975-9.26,9.975h-9.353V164.083z M490.56,178.21h2.149
		c2.242,0,3.96-1.527,3.96-4.391c0-3.197-1.24-4.867-3.867-4.867h-2.242V178.21z M490.56,193.674h2.481
		c3.151,0,4.298-1.813,4.298-5.297c0-3.532-1.337-5.298-4.869-5.298h-1.91V193.674z"/>
	<path style="fill:#FFFFFF;" d="M521.05,164.083h5.821l-7.207,34.46h-5.917l-7.207-34.46h5.821l4.298,23.911h0.093L521.05,164.083z"
		/>
	<path style="fill:#FFFFFF;" d="M530.633,198.543v-34.46h15.844v5.154h-9.927v8.878h7.638v5.154h-7.638v10.119h10.596v5.154H530.633
		z"/>
	<path style="fill:#FFFFFF;" d="M558.209,198.543h-5.92v-34.46h8.305c6.633,0,10.023,2.816,10.023,10.166
		c0,5.537-2.146,7.781-4.152,8.688l5.011,15.606h-6.013l-4.199-14.271c-0.766,0.096-2.006,0.144-3.055,0.144V198.543z
		 M558.209,179.547h2.099c3.197,0,4.391-1.192,4.391-5.298c0-4.104-1.194-5.297-4.391-5.297h-2.099V179.547z"/>
	<path style="fill:#FFFFFF;" d="M580.057,169.237h-5.728v-5.154h17.375v5.154h-5.728v29.306h-5.92V169.237z"/>
	<path style="fill:#FFFFFF;" d="M606.442,172.579c-0.236-2.959-1.811-3.819-3.148-3.819c-1.91,0-2.961,1.242-2.961,3.389
		c0,5.87,12.029,8.686,12.029,18.041c0,5.68-3.818,8.83-9.356,8.83c-5.489,0-8.637-4.391-8.876-9.545l5.632-0.812
		c0.239,3.484,1.622,5.202,3.532,5.202c2.05,0,3.436-1.098,3.436-3.149c0-6.826-12.029-8.64-12.029-18.518
		c0-5.489,3.343-8.592,9.164-8.592c4.822,0,7.685,3.484,8.212,8.353L606.442,172.579z"/>
	<path style="fill:#FFFFFF;" d="M631.82,169.237h-5.728v-5.154h17.373v5.154h-5.728v29.306h-5.917V169.237z"/>
	<path style="fill:#FFFFFF;" d="M647.419,198.543v-34.46h5.917v14.033h6.301v-14.033h5.917v34.46h-5.917V183.27h-6.301v15.273
		H647.419z"/>
	<path style="fill:#FFFFFF;" d="M671.748,198.543v-34.46h15.847v5.154h-9.927v8.878h7.635v5.154h-7.635v10.119h10.594v5.154H671.748
		z"/>
	<path style="fill:#FFFFFF;" d="M707.911,169.237h-5.728v-5.154h17.375v5.154h-5.728v29.306h-5.92V169.237z"/>
	<path style="fill:#FFFFFF;" d="M734.2,198.543h-5.917v-14.318l-7.16-20.142h6.013l4.152,13.125h0.096l3.963-13.125h6.013
		l-7.16,20.142V198.543z"/>
	<path style="fill:#FFFFFF;" d="M745.169,198.543v-34.46h8.494c7.303,0,10.693,2.816,10.693,10.166
		c0,7.351-3.389,10.167-10.693,10.167h-2.577v14.127H745.169z M751.086,179.547h2.292c3.867,0,5.058-1.192,5.058-5.298
		c0-4.104-1.191-5.297-5.058-5.297h-2.292V179.547z"/>
	<path style="fill:#FFFFFF;" d="M770.311,198.543v-34.46h5.92v34.46H770.311z"/>
	<path style="fill:#FFFFFF;" d="M795.173,175.585v-2.673c0-2.91-1.337-4.152-2.865-4.152c-2.385,0-3.148,1.242-3.148,3.819v17.469
		c0,2.577,0.763,3.818,3.148,3.818c2.149,0,2.865-1.24,2.865-3.484v-4.152h5.917v3.962c0,4.869-2.862,8.83-8.782,8.83
		c-6.202,0-9.068-3.962-9.068-8.83v-17.754c0-4.869,2.865-8.83,9.068-8.83c5.92,0,8.782,4.295,8.782,9.451v2.529H795.173z"/>
	<path style="fill:#FFFFFF;" d="M811.008,198.543h-5.728l6.348-34.46h7.353l6.345,34.46h-5.725l-1.051-7.637h-6.491L811.008,198.543
		z M812.918,185.752h4.773l-2.338-14.797h-0.096L812.918,185.752z"/>
	<path style="fill:#FFFFFF;" d="M828.945,198.543v-34.46h5.917v29.306h9.307v5.154H828.945z"/>
	<path style="fill:#FFFFFF;" d="M113.288,258.179v-34.46h5.489l7.207,19.712h0.096v-19.712h5.346v34.46h-5.157l-7.539-21.525h-0.096
		v21.525H113.288z"/>
	<path style="fill:#FFFFFF;" d="M137.62,232.072c0-4.869,2.865-8.83,9.068-8.83c6.205,0,9.071,3.962,9.071,8.83v17.754
		c0,4.869-2.865,8.83-9.071,8.83c-6.202,0-9.068-3.962-9.068-8.83V232.072z M143.54,249.684c0,2.577,0.763,3.818,3.148,3.818
		c2.388,0,3.151-1.24,3.151-3.818v-17.469c0-2.577-0.763-3.819-3.151-3.819c-2.385,0-3.148,1.242-3.148,3.819V249.684z"/>
	<path style="fill:#FFFFFF;" d="M165.388,228.874h-5.728v-5.154h17.373v5.154h-5.728v29.306h-5.917V228.874z"/>
	<path style="fill:#FFFFFF;" d="M181.8,258.179v-34.46h5.917v34.46H181.8z"/>
	<path style="fill:#FFFFFF;" d="M194.729,232.072c0-4.869,2.865-8.83,9.068-8.83c6.205,0,9.071,3.962,9.071,8.83v17.754
		c0,4.869-2.865,8.83-9.071,8.83c-6.202,0-9.068-3.962-9.068-8.83V232.072z M200.649,249.684c0,2.577,0.763,3.818,3.148,3.818
		c2.388,0,3.151-1.24,3.151-3.818v-17.469c0-2.577-0.763-3.819-3.151-3.819c-2.385,0-3.148,1.242-3.148,3.819V249.684z"/>
	<path style="fill:#FFFFFF;" d="M219.061,258.179v-34.46h5.489l7.207,19.712h0.093v-19.712h5.346v34.46h-5.154l-7.542-21.525h-0.096
		v21.525H219.061z"/>
	<path style="fill:#FFFFFF;" d="M254.179,232.215c-0.239-2.959-1.814-3.819-3.151-3.819c-1.907,0-2.959,1.242-2.959,3.389
		c0,5.87,12.026,8.686,12.026,18.041c0,5.68-3.818,8.83-9.353,8.83c-5.489,0-8.64-4.391-8.878-9.545l5.632-0.812
		c0.239,3.484,1.625,5.202,3.532,5.202c2.053,0,3.436-1.098,3.436-3.149c0-6.826-12.026-8.64-12.026-18.518
		c0-5.489,3.34-8.592,9.164-8.592c4.819,0,7.685,3.484,8.209,8.353L254.179,232.215z"/>
	<path style="fill:#FFFFFF;" d="M276.117,232.072c0-4.869,2.865-8.83,9.068-8.83c6.205,0,9.071,3.962,9.071,8.83v17.754
		c0,4.869-2.865,8.83-9.071,8.83c-6.202,0-9.068-3.962-9.068-8.83V232.072z M282.037,249.684c0,2.577,0.763,3.818,3.148,3.818
		c2.388,0,3.151-1.24,3.151-3.818v-17.469c0-2.577-0.763-3.819-3.151-3.819c-2.385,0-3.148,1.242-3.148,3.819V249.684z"/>
	<path style="fill:#FFFFFF;" d="M300.449,258.179v-34.46h16.513v5.154h-10.594v8.878h7.92v5.154h-7.92v15.273H300.449z"/>
	<path style="fill:#FFFFFF;" d="M343.962,232.215c-0.239-2.959-1.814-3.819-3.151-3.819c-1.907,0-2.958,1.242-2.958,3.389
		c0,5.87,12.026,8.686,12.026,18.041c0,5.68-3.818,8.83-9.353,8.83c-5.489,0-8.64-4.391-8.878-9.545l5.632-0.812
		c0.239,3.484,1.625,5.202,3.532,5.202c2.053,0,3.436-1.098,3.436-3.149c0-6.826-12.026-8.64-12.026-18.518
		c0-5.489,3.34-8.592,9.164-8.592c4.819,0,7.685,3.484,8.209,8.353L343.962,232.215z"/>
	<path style="fill:#FFFFFF;" d="M358.271,228.874h-5.728v-5.154h17.372v5.154h-5.728v29.306h-5.917V228.874z"/>
	<path style="fill:#FFFFFF;" d="M379.787,258.179h-5.917v-34.46h8.305c6.633,0,10.023,2.816,10.023,10.166
		c0,5.537-2.149,7.781-4.152,8.688l5.011,15.606h-6.016l-4.199-14.271c-0.763,0.096-2.003,0.144-3.055,0.144V258.179z
		 M379.787,239.183h2.099c3.197,0,4.391-1.192,4.391-5.298c0-4.104-1.194-5.297-4.391-5.297h-2.099V239.183z"/>
	<path style="fill:#FFFFFF;" d="M401.638,258.179h-5.728l6.348-34.46h7.35l6.348,34.46h-5.728l-1.048-7.637h-6.494L401.638,258.179z
		 M403.546,245.388h4.773l-2.338-14.797h-0.093L403.546,245.388z"/>
	<path style="fill:#FFFFFF;" d="M420.671,258.179v-34.46h5.917v34.46H420.671z"/>
	<path style="fill:#FFFFFF;" d="M441.762,240.71h9.688v17.469h-2.862l-1.098-2.577c-1.768,2.1-3.197,3.055-5.967,3.055
		c-4.677,0-7.923-3.341-7.923-8.83v-17.754c0-4.869,2.865-8.83,8.686-8.83c5.92,0,8.878,4.295,8.878,9.451v2.196h-5.632
		c0-5.156-1.051-6.492-3.389-6.492c-1.433,0-2.624,0.86-2.624,3.771v17.707c0,2.196,0.713,3.627,2.766,3.627
		c2.388,0,3.247-1.335,3.247-4.773v-3.34h-3.771V240.71z"/>
	<path style="fill:#FFFFFF;" d="M457.931,258.179v-34.46h5.92v14.033h6.298v-14.033h5.92v34.46h-5.92v-15.273h-6.298v15.273H457.931
		z"/>
	<path style="fill:#FFFFFF;" d="M485.7,228.874h-5.728v-5.154h17.373v5.154h-5.728v29.306H485.7V228.874z"/>
	<path style="fill:#FFFFFF;" d="M501.299,258.179v-34.46h16.513v5.154h-10.596v8.878h7.923v5.154h-7.923v15.273H501.299z"/>
	<path style="fill:#FFFFFF;" d="M522.958,232.072c0-4.869,2.862-8.83,9.068-8.83c6.205,0,9.068,3.962,9.068,8.83v17.754
		c0,4.869-2.862,8.83-9.068,8.83c-6.205,0-9.068-3.962-9.068-8.83V232.072z M528.875,249.684c0,2.577,0.763,3.818,3.151,3.818
		c2.385,0,3.151-1.24,3.151-3.818v-17.469c0-2.577-0.766-3.819-3.151-3.819c-2.388,0-3.151,1.242-3.151,3.819V249.684z"/>
	<path style="fill:#FFFFFF;" d="M553.207,258.179h-5.92v-34.46h8.305c6.633,0,10.023,2.816,10.023,10.166
		c0,5.537-2.146,7.781-4.152,8.688l5.011,15.606h-6.013l-4.199-14.271c-0.766,0.096-2.006,0.144-3.055,0.144V258.179z
		 M553.207,239.183h2.099c3.197,0,4.391-1.192,4.391-5.298c0-4.104-1.194-5.297-4.391-5.297h-2.099V239.183z"/>
	<path style="fill:#FFFFFF;" d="M581.88,223.719h4.869l4.01,21.954h0.096l3.293-21.954h5.536l-6.063,34.46h-4.962l-4.298-22.767
		h-0.093l-4.01,22.767h-4.965l-6.537-34.46h5.536l3.628,21.954h0.096L581.88,223.719z"/>
	<path style="fill:#FFFFFF;" d="M607.354,258.179h-5.728l6.348-34.46h7.353l6.345,34.46h-5.725l-1.051-7.637h-6.491L607.354,258.179
		z M609.264,245.388h4.773l-2.338-14.797h-0.096L609.264,245.388z"/>
	<path style="fill:#FFFFFF;" d="M631.494,258.179h-5.917v-34.46h8.305c6.633,0,10.023,2.816,10.023,10.166
		c0,5.537-2.149,7.781-4.152,8.688l5.011,15.606h-6.016l-4.199-14.271c-0.763,0.096-2.003,0.144-3.055,0.144V258.179z
		 M631.494,239.183h2.1c3.197,0,4.391-1.192,4.391-5.298c0-4.104-1.194-5.297-4.391-5.297h-2.1V239.183z"/>
	<path style="fill:#FFFFFF;" d="M649.909,223.719h8.782c6.109,0,9.353,3.341,9.353,10.404v13.651c0,7.063-3.244,10.404-9.353,10.404
		h-8.782V223.719z M655.826,253.31h2.053c3.151,0,4.248-1.192,4.248-4.821v-15.081c0-3.628-1.098-4.821-4.248-4.821h-2.053V253.31z"
		/>
	<path style="fill:#FFFFFF;" d="M697.239,235.221v-2.673c0-2.91-1.337-4.152-2.865-4.152c-2.385,0-3.148,1.242-3.148,3.819v17.469
		c0,2.577,0.763,3.818,3.148,3.818c2.149,0,2.865-1.24,2.865-3.484v-4.152h5.917v3.962c0,4.869-2.862,8.83-8.782,8.83
		c-6.202,0-9.068-3.962-9.068-8.83v-17.754c0-4.869,2.865-8.83,9.068-8.83c5.92,0,8.782,4.295,8.782,9.451v2.529H697.239z"/>
	<path style="fill:#FFFFFF;" d="M710.45,258.179v-34.46h5.917v34.46H710.45z"/>
	<path style="fill:#FFFFFF;" d="M723.379,258.179v-34.46h5.489l7.207,19.712h0.096v-19.712h5.346v34.46h-5.157l-7.539-21.525h-0.096
		v21.525H723.379z"/>
	<path style="fill:#FFFFFF;" d="M747.711,258.179v-34.46h15.844v5.154h-9.927v8.878h7.638v5.154h-7.638v10.119h10.596v5.154H747.711
		z"/>
	<path style="fill:#FFFFFF;" d="M793.091,223.719v34.46h-5.154V231.26h-0.096l-5.346,26.919h-2.862l-5.346-26.919h-0.096v26.919
		h-5.154v-34.46h7.781l4.199,20.142h0.096l4.199-20.142H793.091z"/>
	<path style="fill:#FFFFFF;" d="M802.432,258.179h-5.728l6.348-34.46h7.353l6.345,34.46h-5.725l-1.051-7.637h-6.491L802.432,258.179
		z M804.342,245.388h4.773l-2.338-14.797h-0.096L804.342,245.388z"/>
	<path style="fill:#FFFFFF;" d="M820.273,258.179v-5.632h5.632v5.632H820.273z"/>
	<path style="fill:#FFFFFF;" d="M837.882,229.351l-3.293,5.918h-2.53l2.338-5.918h-2.149v-5.632h5.635V229.351z M846.711,229.351
		l-3.293,5.918h-2.53l2.338-5.918h-2.146v-5.632h5.632V229.351z"/>
	<path style="fill:#FFF8DA;" d="M379.939,323.779v-25.82h12.373v3.863h-7.938v6.651h5.937v3.863h-5.937v11.444H379.939z"/>
	<path style="fill:#FFF8DA;" d="M396.612,323.779v-25.82h4.435v25.82H396.612z"/>
	<path style="fill:#FFF8DA;" d="M410.563,323.779h-4.432v-25.82h6.223c4.971,0,7.51,2.11,7.51,7.618c0,4.148-1.61,5.828-3.113,6.508
		l3.756,11.694H416l-3.148-10.693c-0.571,0.071-1.5,0.108-2.289,0.108V323.779z M410.563,309.545h1.575
		c2.397,0,3.29-0.894,3.29-3.969c0-3.076-0.894-3.97-3.29-3.97h-1.575V309.545z"/>
	<path style="fill:#FFF8DA;" d="M432.283,304.324c-0.181-2.217-1.36-2.861-2.362-2.861c-1.43,0-2.216,0.93-2.216,2.539
		c0,4.398,9.012,6.508,9.012,13.519c0,4.254-2.862,6.616-7.012,6.616c-4.112,0-6.47-3.29-6.651-7.153l4.219-0.607
		c0.181,2.611,1.217,3.898,2.647,3.898c1.537,0,2.574-0.823,2.574-2.36c0-5.115-9.012-6.473-9.012-13.875
		c0-4.113,2.504-6.438,6.866-6.438c3.614,0,5.76,2.611,6.153,6.259L432.283,304.324z"/>
	<path style="fill:#FFF8DA;" d="M442.839,301.822h-4.289v-3.863h13.016v3.863h-4.292v21.957h-4.435V301.822z"/>
	<path style="fill:#FFF8DA;" d="M470.566,304.324c-0.178-2.217-1.36-2.861-2.359-2.861c-1.433,0-2.219,0.93-2.219,2.539
		c0,4.398,9.012,6.508,9.012,13.519c0,4.254-2.859,6.616-7.009,6.616c-4.112,0-6.473-3.29-6.651-7.153l4.219-0.607
		c0.178,2.611,1.214,3.898,2.647,3.898c1.538,0,2.574-0.823,2.574-2.36c0-5.115-9.012-6.473-9.012-13.875
		c0-4.113,2.504-6.438,6.866-6.438c3.611,0,5.757,2.611,6.15,6.259L470.566,304.324z"/>
	<path style="fill:#FFF8DA;" d="M478.551,323.779v-25.82h4.432v10.513h4.723v-10.513h4.432v25.82h-4.432v-11.444h-4.723v11.444
		H478.551z"/>
	<path style="fill:#FFF8DA;" d="M496.619,304.217c0-3.647,2.146-6.616,6.796-6.616c4.647,0,6.794,2.969,6.794,6.616v13.305
		c0,3.647-2.146,6.616-6.794,6.616c-4.65,0-6.796-2.969-6.796-6.616V304.217z M501.054,317.413c0,1.931,0.571,2.861,2.362,2.861
		c1.788,0,2.359-0.93,2.359-2.861v-13.089c0-1.931-0.571-2.861-2.359-2.861c-1.791,0-2.362,0.93-2.362,2.861V317.413z"/>
	<path style="fill:#FFF8DA;" d="M522.378,297.959h3.649l3.002,16.451h0.073l2.466-16.451h4.15l-4.543,25.82h-3.719l-3.218-17.058
		h-0.073l-3.002,17.058h-3.721l-4.898-25.82h4.147l2.72,16.451h0.07L522.378,297.959z"/>
	<path style="fill:#FFF8DA;" d="M539.343,323.779v-25.82h4.435v25.82H539.343z"/>
	<path style="fill:#FFF8DA;" d="M548.862,323.779v-25.82h4.112l5.399,14.769h0.073v-14.769h4.004v25.82h-3.861l-5.649-16.129h-0.073
		v16.129H548.862z"/>
	<path style="fill:#FFF8DA;" d="M573.046,310.69h7.259v13.089h-2.146l-0.821-1.931c-1.322,1.572-2.396,2.289-4.47,2.289
		c-3.506,0-5.937-2.504-5.937-6.616v-13.305c0-3.647,2.146-6.616,6.508-6.616c4.435,0,6.654,3.219,6.654,7.082v1.645h-4.222
		c0-3.863-0.786-4.864-2.539-4.864c-1.072,0-1.966,0.644-1.966,2.825v13.268c0,1.645,0.536,2.718,2.073,2.718
		c1.788,0,2.431-1.002,2.431-3.576v-2.504h-2.825V310.69z"/>
</g>
</svg>
