<?xml version="1.0" encoding="iso-8859-1"?>
<!-- Generator: Adobe Illustrator 17.1.0, SVG Export Plug-In . SVG Version: 6.00 Build 0)  -->
<!DOCTYPE svg PUBLIC "-//W3C//DTD SVG 1.1//EN" "http://www.w3.org/Graphics/SVG/1.1/DTD/svg11.dtd">
<svg version="1.1" xmlns="http://www.w3.org/2000/svg" xmlns:xlink="http://www.w3.org/1999/xlink" x="0px" y="0px"
	 viewBox="0 0 300 103.389" style="enable-background:new 0 0 300 103.389;" xml:space="preserve">
<g id="Layer_1">
	<g>
		<path style="fill:#FFFFFF;" d="M4.5,4.738l1.104-1.985h0.848L5.668,4.738h0.72v1.889H4.5V4.738z M7.46,4.738l1.104-1.985h0.849
			L8.629,4.738h0.72v1.889H7.46V4.738z"/>
		<path style="fill:#FFFFFF;" d="M11.603,2.913h2.945c2.049,0,3.137,1.121,3.137,3.489v4.578c0,2.369-1.088,3.489-3.137,3.489
			h-2.945V2.913z M13.588,12.837h0.688c1.057,0,1.425-0.4,1.425-1.617V6.163c0-1.217-0.368-1.617-1.425-1.617h-0.688V12.837z"/>
		<path style="fill:#FFFFFF;" d="M20.916,14.47h-1.921l2.129-11.557h2.465l2.128,11.557h-1.92l-0.352-2.561h-2.177L20.916,14.47z
			 M21.556,10.18h1.601l-0.785-4.962H22.34L21.556,10.18z"/>
		<path style="fill:#FFFFFF;" d="M31.077,2.913h1.953L30.612,14.47h-1.985L26.21,2.913h1.953l1.441,8.019h0.032L31.077,2.913z"/>
		<path style="fill:#FFFFFF;" d="M34.562,14.47V2.913h1.985V14.47H34.562z"/>
		<path style="fill:#FFFFFF;" d="M38.898,2.913h2.945c2.049,0,3.137,1.121,3.137,3.489v4.578c0,2.369-1.088,3.489-3.137,3.489
			h-2.945V2.913z M40.883,12.837h0.688c1.057,0,1.425-0.4,1.425-1.617V6.163c0-1.217-0.368-1.617-1.425-1.617h-0.688V12.837z"/>
		<path style="fill:#FFFFFF;" d="M58.725,2.913V14.47h-1.729V5.442h-0.032l-1.792,9.028h-0.96l-1.793-9.028h-0.032v9.028h-1.729
			V2.913h2.609l1.408,6.755h0.032l1.409-6.755H58.725z"/>
		<path style="fill:#FFFFFF;" d="M60.978,14.47V2.913h1.985V14.47H60.978z"/>
		<path style="fill:#FFFFFF;" d="M69.315,6.771V5.874c0-0.976-0.448-1.393-0.96-1.393c-0.8,0-1.056,0.417-1.056,1.281v5.858
			c0,0.864,0.256,1.28,1.056,1.28c0.72,0,0.96-0.416,0.96-1.168V10.34H71.3v1.329c0,1.633-0.96,2.961-2.945,2.961
			c-2.081,0-3.041-1.329-3.041-2.961V5.714c0-1.633,0.96-2.961,3.041-2.961c1.985,0,2.945,1.44,2.945,3.169v0.848H69.315z"/>
		<path style="fill:#FFFFFF;" d="M73.474,14.47V2.913h1.985v4.706h2.113V2.913h1.985V14.47h-1.985V9.348h-2.113v5.122H73.474z"/>
		<path style="fill:#FFFFFF;" d="M81.634,5.714c0-1.633,0.96-2.961,3.041-2.961c2.081,0,3.042,1.329,3.042,2.961v5.954
			c0,1.633-0.96,2.961-3.042,2.961c-2.081,0-3.041-1.329-3.041-2.961V5.714z M83.794,0h1.761l1.537,2.305h-1.473L84.675,0.88
			L83.73,2.305h-1.473L83.794,0z M83.619,11.621c0,0.864,0.256,1.28,1.056,1.28s1.057-0.416,1.057-1.28V5.762
			c0-0.864-0.256-1.281-1.057-1.281s-1.056,0.417-1.056,1.281V11.621z"/>
		<path style="fill:#FFFFFF;" d="M89.794,2.913h2.945c2.049,0,3.137,1.121,3.137,3.489v4.578c0,2.369-1.088,3.489-3.137,3.489
			h-2.945V2.913z M91.779,12.837h0.688c1.057,0,1.425-0.4,1.425-1.617V6.163c0-1.217-0.368-1.617-1.425-1.617h-0.688V12.837z"/>
		<path style="fill:#FFFFFF;" d="M101.938,14.47V2.913h1.985V14.47H101.938z"/>
		<path style="fill:#FFFFFF;" d="M109.891,5.762c-0.08-0.992-0.608-1.281-1.056-1.281c-0.64,0-0.993,0.417-0.993,1.137
			c0,1.969,4.034,2.913,4.034,6.05c0,1.905-1.28,2.961-3.137,2.961c-1.841,0-2.897-1.473-2.977-3.201l1.889-0.272
			c0.08,1.168,0.544,1.745,1.185,1.745c0.688,0,1.152-0.368,1.152-1.056c0-2.289-4.034-2.897-4.034-6.21
			c0-1.841,1.121-2.881,3.073-2.881c1.617,0,2.577,1.168,2.753,2.801L109.891,5.762z"/>
		<path style="fill:#FFFFFF;" d="M117.249,5.714c0-1.633,0.96-2.961,3.041-2.961c2.081,0,3.042,1.329,3.042,2.961v5.954
			c0,1.633-0.96,2.961-3.042,2.961c-2.081,0-3.041-1.329-3.041-2.961V5.714z M119.234,11.621c0,0.864,0.256,1.28,1.056,1.28
			s1.057-0.416,1.057-1.28V5.762c0-0.864-0.256-1.281-1.057-1.281s-1.056,0.417-1.056,1.281V11.621z"/>
		<path style="fill:#FFFFFF;" d="M125.409,14.47V2.913h1.841l2.417,6.611h0.032V2.913h1.793V14.47h-1.729l-2.529-7.219h-0.032v7.219
			H125.409z"/>
		<path style="fill:#FFFFFF;" d="M133.569,14.47V2.913h5.314v1.729h-3.329v2.978h2.561v1.729h-2.561v3.394h3.553v1.729H133.569z"/>
		<path style="fill:#FFFFFF;" d="M144.544,5.714c0-1.633,0.96-2.961,3.041-2.961c2.081,0,3.042,1.329,3.042,2.961v5.954
			c0,1.633-0.96,2.961-3.042,2.961c-2.081,0-3.041-1.329-3.041-2.961V5.714z M146.529,11.621c0,0.864,0.256,1.28,1.056,1.28
			s1.057-0.416,1.057-1.28V5.762c0-0.864-0.256-1.281-1.057-1.281s-1.056,0.417-1.056,1.281V11.621z"/>
		<path style="fill:#FFFFFF;" d="M152.705,14.47V2.913h5.538v1.729h-3.553v2.978h2.657v1.729h-2.657v5.122H152.705z"/>
		<path style="fill:#FFFFFF;" d="M164.832,4.642h-1.921V2.913h5.827v1.729h-1.921v9.828h-1.985V4.642z"/>
		<path style="fill:#FFFFFF;" d="M170.063,14.47V2.913h1.985v4.706h2.113V2.913h1.985V14.47h-1.985V9.348h-2.113v5.122H170.063z"/>
		<path style="fill:#FFFFFF;" d="M178.223,5.714c0-1.633,0.96-2.961,3.041-2.961c2.081,0,3.042,1.329,3.042,2.961v5.954
			c0,1.633-0.96,2.961-3.042,2.961c-2.081,0-3.041-1.329-3.041-2.961V5.714z M180.208,11.621c0,0.864,0.256,1.28,1.056,1.28
			s1.057-0.416,1.057-1.28V5.762c0-0.864-0.256-1.281-1.057-1.281s-1.056,0.417-1.056,1.281V11.621z"/>
		<path style="fill:#FFFFFF;" d="M190,5.762c-0.08-0.992-0.608-1.281-1.056-1.281c-0.64,0-0.993,0.417-0.993,1.137
			c0,1.969,4.034,2.913,4.034,6.05c0,1.905-1.28,2.961-3.137,2.961c-1.841,0-2.897-1.473-2.977-3.201l1.889-0.272
			c0.08,1.168,0.544,1.745,1.185,1.745c0.688,0,1.152-0.368,1.152-1.056c0-2.289-4.034-2.897-4.034-6.21
			c0-1.841,1.121-2.881,3.073-2.881c1.617,0,2.577,1.168,2.753,2.801L190,5.762z"/>
		<path style="fill:#FFFFFF;" d="M193.647,14.47V2.913h5.314v1.729h-3.329v2.978h2.561v1.729h-2.561v3.394h3.553v1.729H193.647z"/>
		<path style="fill:#FFFFFF;" d="M206.607,14.47h-1.985V2.913h2.785c2.225,0,3.361,0.944,3.361,3.409
			c0,1.857-0.72,2.609-1.393,2.914l1.681,5.234h-2.017l-1.408-4.786c-0.256,0.032-0.672,0.048-1.024,0.048V14.47z M206.607,8.099
			h0.704c1.072,0,1.473-0.4,1.473-1.777c0-1.376-0.4-1.776-1.473-1.776h-0.704V8.099z"/>
		<path style="fill:#FFFFFF;" d="M213.935,14.47h-1.921l2.129-11.557h2.465l2.129,11.557h-1.921l-0.352-2.561h-2.177L213.935,14.47z
			 M214.575,10.18h1.601l-0.784-4.962h-0.032L214.575,10.18z"/>
		<path style="fill:#FFFFFF;" d="M222.03,14.47h-1.985V2.913h2.785c2.225,0,3.361,0.944,3.361,3.409c0,1.857-0.72,2.609-1.393,2.914
			l1.681,5.234h-2.017l-1.409-4.786c-0.256,0.032-0.672,0.048-1.024,0.048V14.47z M222.03,8.099h0.704
			c1.072,0,1.473-0.4,1.473-1.777c0-1.376-0.4-1.776-1.473-1.776h-0.704V8.099z"/>
		<path style="fill:#FFFFFF;" d="M228.206,14.47V2.913h5.314v1.729h-3.329v2.978h2.561v1.729h-2.561v3.394h3.553v1.729H228.206z"/>
		<path style="fill:#FFFFFF;" d="M239.181,14.47V2.913h5.538v1.729h-3.553v2.978h2.657v1.729h-2.657v5.122H239.181z"/>
		<path style="fill:#FFFFFF;" d="M246.716,14.47V2.913h1.985V14.47H246.716z"/>
		<path style="fill:#FFFFFF;" d="M250.957,14.47V2.913h1.985v9.828h3.121v1.729H250.957z"/>
		<path style="fill:#FFFFFF;" d="M265.392,2.913V14.47h-1.729V5.442h-0.032l-1.792,9.028h-0.96l-1.793-9.028h-0.032v9.028h-1.729
			V2.913h2.609l1.409,6.755h0.032l1.409-6.755H265.392z"/>
		<path style="fill:#FFFFFF;" d="M275.327,2.913V14.47h-1.729V5.442h-0.032l-1.792,9.028h-0.96l-1.793-9.028h-0.032v9.028h-1.729
			V2.913h2.609l1.409,6.755h0.032l1.409-6.755H275.327z"/>
		<path style="fill:#FFFFFF;" d="M278.46,14.47h-1.921l2.129-11.557h2.465l2.128,11.557h-1.92l-0.352-2.561h-2.177L278.46,14.47z
			 M279.101,10.18h1.601l-0.785-4.962h-0.032L279.101,10.18z"/>
		<path style="fill:#FFFFFF;" d="M284.476,14.47V2.913h1.985v4.274h0.032l2.081-4.274h1.985l-2.145,4.306l2.417,7.251h-2.017
			l-1.617-5.378h-0.032l-0.704,1.28v4.098H284.476z"/>
		<path style="fill:#FFFFFF;" d="M291.579,10.9V9.428h3.922V10.9H291.579z"/>
		<path style="fill:#FFFFFF;" d="M12.5,34.47V22.913h5.314v1.729h-3.329v2.978h2.561v1.729h-2.561v3.394h3.553v1.729H12.5z"/>
		<path style="fill:#FFFFFF;" d="M21.749,34.47h-1.985V22.913h2.785c2.225,0,3.361,0.944,3.361,3.409
			c0,1.857-0.72,2.609-1.393,2.914l1.681,5.234h-2.017l-1.408-4.786c-0.256,0.032-0.672,0.048-1.024,0.048V34.47z M21.749,28.099
			h0.704c1.072,0,1.473-0.4,1.473-1.777c0-1.376-0.4-1.776-1.473-1.776h-0.704V28.099z"/>
		<path style="fill:#FFFFFF;" d="M31.541,25.762c-0.08-0.992-0.608-1.281-1.056-1.281c-0.64,0-0.993,0.417-0.993,1.137
			c0,1.969,4.034,2.913,4.034,6.05c0,1.905-1.28,2.961-3.137,2.961c-1.841,0-2.897-1.473-2.977-3.201l1.889-0.272
			c0.08,1.168,0.544,1.745,1.185,1.745c0.688,0,1.152-0.368,1.152-1.056c0-2.289-4.034-2.897-4.034-6.21
			c0-1.841,1.121-2.881,3.073-2.881c1.617,0,2.577,1.168,2.753,2.801L31.541,25.762z"/>
		<path style="fill:#FFFFFF;" d="M42.34,22.913h1.633l1.344,7.363h0.032l1.104-7.363h1.856L46.278,34.47h-1.665l-1.441-7.635h-0.032
			l-1.345,7.635h-1.665l-2.193-11.557h1.857l1.216,7.363h0.032L42.34,22.913z"/>
		<path style="fill:#FFFFFF;" d="M49.73,34.47V22.913h1.985v4.706h2.113v-4.706h1.985V34.47h-1.985v-5.122h-2.113v5.122H49.73z"/>
		<path style="fill:#FFFFFF;" d="M57.891,25.714c0-1.633,0.96-2.961,3.041-2.961c2.081,0,3.042,1.329,3.042,2.961v5.954
			c0,1.633-0.96,2.961-3.042,2.961c-2.081,0-3.041-1.329-3.041-2.961V25.714z M59.875,31.621c0,0.864,0.256,1.28,1.056,1.28
			s1.057-0.416,1.057-1.28v-5.858c0-0.864-0.256-1.281-1.057-1.281s-1.056,0.417-1.056,1.281V31.621z"/>
		<path style="fill:#FFFFFF;" d="M69.668,25.762c-0.08-0.992-0.608-1.281-1.056-1.281c-0.64,0-0.993,0.417-0.993,1.137
			c0,1.969,4.034,2.913,4.034,6.05c0,1.905-1.28,2.961-3.137,2.961c-1.841,0-2.897-1.473-2.977-3.201l1.889-0.272
			c0.08,1.168,0.544,1.745,1.185,1.745c0.688,0,1.152-0.368,1.152-1.056c0-2.289-4.034-2.897-4.034-6.21
			c0-1.841,1.121-2.881,3.073-2.881c1.617,0,2.577,1.168,2.753,2.801L69.668,25.762z"/>
		<path style="fill:#FFFFFF;" d="M73.314,34.47V22.913h5.314v1.729h-3.329v2.978h2.561v1.729h-2.561v3.394h3.553v1.729H73.314z"/>
		<path style="fill:#FFFFFF;" d="M87.907,25.762c-0.08-0.992-0.608-1.281-1.056-1.281c-0.64,0-0.993,0.417-0.993,1.137
			c0,1.969,4.034,2.913,4.034,6.05c0,1.905-1.28,2.961-3.137,2.961c-1.841,0-2.897-1.473-2.977-3.201l1.889-0.272
			c0.08,1.168,0.544,1.745,1.185,1.745c0.688,0,1.152-0.368,1.152-1.056c0-2.289-4.034-2.897-4.034-6.21
			c0-1.841,1.121-2.881,3.073-2.881c1.617,0,2.577,1.168,2.753,2.801L87.907,25.762z"/>
		<path style="fill:#FFFFFF;" d="M92.705,24.642h-1.921v-1.729h5.827v1.729H94.69v9.828h-1.985V24.642z"/>
		<path style="fill:#FFFFFF;" d="M101.522,34.47h-1.985v-4.802l-2.401-6.755h2.017l1.393,4.402h0.032l1.329-4.402h2.017
			l-2.401,6.755V34.47z"/>
		<path style="fill:#FFFFFF;" d="M105.104,34.47V22.913h1.985v9.828h3.121v1.729H105.104z"/>
		<path style="fill:#FFFFFF;" d="M111.584,34.47V22.913h5.314v1.729h-3.329v2.978h2.561v1.729h-2.561v3.394h3.553v1.729H111.584z"/>
		<path style="fill:#FFFFFF;" d="M126.176,25.762c-0.08-0.992-0.608-1.281-1.056-1.281c-0.64,0-0.993,0.417-0.993,1.137
			c0,1.969,4.034,2.913,4.034,6.05c0,1.905-1.28,2.961-3.137,2.961c-1.841,0-2.897-1.473-2.977-3.201l1.889-0.272
			c0.08,1.168,0.544,1.745,1.185,1.745c0.688,0,1.152-0.368,1.152-1.056c0-2.289-4.034-2.897-4.034-6.21
			c0-1.841,1.121-2.881,3.073-2.881c1.617,0,2.577,1.168,2.753,2.801L126.176,25.762z"/>
		<path style="fill:#FFFFFF;" d="M129.823,22.913h1.985v8.724c0,0.848,0.336,1.264,1.056,1.264s1.057-0.416,1.057-1.264v-8.724
			h1.985v8.644c0,1.985-1.153,3.073-3.042,3.073s-3.041-1.088-3.041-3.073V22.913z"/>
		<path style="fill:#FFFFFF;" d="M137.982,22.913h2.945c2.129,0,3.073,1.088,3.073,3.057c0,0.993-0.417,2.033-1.377,2.417
			c1.009,0.448,1.601,1.249,1.601,2.737c0,1.905-0.849,3.345-3.105,3.345h-3.137V22.913z M139.967,27.651h0.72
			c0.752,0,1.329-0.512,1.329-1.473c0-1.072-0.417-1.632-1.297-1.632h-0.752V27.651z M139.967,32.837h0.832
			c1.057,0,1.441-0.608,1.441-1.776c0-1.185-0.448-1.777-1.633-1.777h-0.64V32.837z"/>
		<path style="fill:#FFFFFF;" d="M150.192,22.913h1.953l-2.417,11.557h-1.985l-2.417-11.557h1.953l1.441,8.019h0.032L150.192,22.913
			z"/>
		<path style="fill:#FFFFFF;" d="M153.406,34.47V22.913h5.314v1.729h-3.329v2.978h2.561v1.729h-2.561v3.394h3.553v1.729H153.406z"/>
		<path style="fill:#FFFFFF;" d="M162.654,34.47h-1.985V22.913h2.785c2.225,0,3.361,0.944,3.361,3.409
			c0,1.857-0.72,2.609-1.393,2.914l1.681,5.234h-2.017l-1.409-4.786c-0.256,0.032-0.672,0.048-1.024,0.048V34.47z M162.654,28.099
			h0.704c1.072,0,1.473-0.4,1.473-1.777c0-1.376-0.4-1.776-1.473-1.776h-0.704V28.099z"/>
		<path style="fill:#FFFFFF;" d="M169.982,24.642h-1.921v-1.729h5.827v1.729h-1.921v9.828h-1.985V24.642z"/>
		<path style="fill:#FFFFFF;" d="M178.831,25.762c-0.08-0.992-0.608-1.281-1.056-1.281c-0.64,0-0.993,0.417-0.993,1.137
			c0,1.969,4.034,2.913,4.034,6.05c0,1.905-1.28,2.961-3.137,2.961c-1.841,0-2.897-1.473-2.977-3.201l1.889-0.272
			c0.08,1.168,0.544,1.745,1.185,1.745c0.688,0,1.152-0.368,1.152-1.056c0-2.289-4.034-2.897-4.034-6.21
			c0-1.841,1.121-2.881,3.073-2.881c1.617,0,2.577,1.168,2.753,2.801L178.831,25.762z"/>
		<path style="fill:#FFFFFF;" d="M187.341,24.642h-1.921v-1.729h5.827v1.729h-1.921v9.828h-1.985V24.642z"/>
		<path style="fill:#FFFFFF;" d="M192.572,34.47V22.913h1.985v4.706h2.113v-4.706h1.985V34.47h-1.985v-5.122h-2.113v5.122H192.572z"
			/>
		<path style="fill:#FFFFFF;" d="M200.732,34.47V22.913h5.314v1.729h-3.329v2.978h2.561v1.729h-2.561v3.394h3.553v1.729H200.732z"/>
		<path style="fill:#FFFFFF;" d="M212.86,24.642h-1.921v-1.729h5.827v1.729h-1.921v9.828h-1.985V24.642z"/>
		<path style="fill:#FFFFFF;" d="M221.676,34.47h-1.985v-4.802l-2.401-6.755h2.017l1.393,4.402h0.032l1.329-4.402h2.017
			l-2.401,6.755V34.47z"/>
		<path style="fill:#FFFFFF;" d="M225.354,34.47V22.913h2.849c2.449,0,3.585,0.944,3.585,3.409c0,2.465-1.137,3.41-3.585,3.41
			h-0.864v4.738H225.354z M227.339,28.099h0.768c1.297,0,1.697-0.4,1.697-1.777c0-1.376-0.4-1.776-1.697-1.776h-0.768V28.099z"/>
		<path style="fill:#FFFFFF;" d="M233.787,34.47V22.913h1.985V34.47H233.787z"/>
		<path style="fill:#FFFFFF;" d="M242.124,26.771v-0.896c0-0.976-0.448-1.393-0.96-1.393c-0.8,0-1.056,0.417-1.056,1.281v5.858
			c0,0.864,0.256,1.28,1.056,1.28c0.72,0,0.96-0.416,0.96-1.168V30.34h1.985v1.329c0,1.633-0.96,2.961-2.945,2.961
			c-2.081,0-3.041-1.329-3.041-2.961v-5.954c0-1.633,0.96-2.961,3.041-2.961c1.985,0,2.945,1.44,2.945,3.169v0.848H242.124z"/>
		<path style="fill:#FFFFFF;" d="M247.435,34.47h-1.921l2.129-11.557h2.465l2.128,11.557h-1.92l-0.352-2.561h-2.177L247.435,34.47z
			 M248.075,30.18h1.601l-0.785-4.962h-0.032L248.075,30.18z"/>
		<path style="fill:#FFFFFF;" d="M253.45,34.47V22.913h1.985v9.828h3.121v1.729H253.45z"/>
		<path style="fill:#FFFFFF;" d="M263.642,34.47V22.913h1.841l2.417,6.611h0.032v-6.611h1.793V34.47h-1.729l-2.529-7.219h-0.032
			v7.219H263.642z"/>
		<path style="fill:#FFFFFF;" d="M271.802,25.714c0-1.633,0.96-2.961,3.041-2.961c2.081,0,3.042,1.329,3.042,2.961v5.954
			c0,1.633-0.96,2.961-3.042,2.961c-2.081,0-3.041-1.329-3.041-2.961V25.714z M273.787,31.621c0,0.864,0.256,1.28,1.056,1.28
			s1.057-0.416,1.057-1.28v-5.858c0-0.864-0.256-1.281-1.057-1.281s-1.056,0.417-1.056,1.281V31.621z"/>
		<path style="fill:#FFFFFF;" d="M279.706,30.9v-1.473h3.922V30.9H279.706z"/>
		<path style="fill:#FFFFFF;" d="M6.443,44.642H4.522v-1.729h5.827v1.729H8.428v9.828H6.443V44.642z"/>
		<path style="fill:#FFFFFF;" d="M11.947,54.47V42.913h1.985V54.47H11.947z"/>
		<path style="fill:#FFFFFF;" d="M16.283,45.714c0-1.633,0.96-2.961,3.041-2.961c2.081,0,3.042,1.329,3.042,2.961v5.954
			c0,1.633-0.96,2.961-3.042,2.961c-2.081,0-3.041-1.329-3.041-2.961V45.714z M18.268,51.621c0,0.864,0.256,1.28,1.056,1.28
			s1.057-0.416,1.057-1.28v-5.858c0-0.864-0.256-1.281-1.057-1.281s-1.056,0.417-1.056,1.281V51.621z"/>
		<path style="fill:#FFFFFF;" d="M24.443,54.47V42.913h1.841l2.417,6.611h0.032v-6.611h1.793V54.47h-1.729l-2.529-7.219h-0.032
			v7.219H24.443z"/>
		<path style="fill:#FFFFFF;" d="M36.22,45.762c-0.08-0.992-0.608-1.281-1.056-1.281c-0.64,0-0.993,0.417-0.993,1.137
			c0,1.969,4.034,2.913,4.034,6.05c0,1.905-1.28,2.961-3.137,2.961c-1.841,0-2.897-1.473-2.977-3.201l1.889-0.272
			c0.08,1.168,0.544,1.745,1.185,1.745c0.688,0,1.152-0.368,1.152-1.056c0-2.289-4.034-2.897-4.034-6.21
			c0-1.841,1.121-2.881,3.073-2.881c1.617,0,2.577,1.168,2.753,2.801L36.22,45.762z"/>
		<path style="fill:#FFFFFF;" d="M43.578,45.714c0-1.633,0.96-2.961,3.041-2.961c2.081,0,3.042,1.329,3.042,2.961v5.954
			c0,1.633-0.96,2.961-3.042,2.961c-2.081,0-3.041-1.329-3.041-2.961V45.714z M45.563,51.621c0,0.864,0.256,1.28,1.056,1.28
			s1.057-0.416,1.057-1.28v-5.858c0-0.864-0.256-1.281-1.057-1.281s-1.056,0.417-1.056,1.281V51.621z"/>
		<path style="fill:#FFFFFF;" d="M51.738,54.47V42.913h5.538v1.729h-3.553v2.978h2.657v1.729h-2.657v5.122H51.738z"/>
		<path style="fill:#FFFFFF;" d="M66.331,45.762c-0.08-0.992-0.608-1.281-1.056-1.281c-0.64,0-0.993,0.417-0.993,1.137
			c0,1.969,4.034,2.913,4.034,6.05c0,1.905-1.28,2.961-3.137,2.961c-1.841,0-2.897-1.473-2.977-3.201l1.889-0.272
			c0.08,1.168,0.544,1.745,1.185,1.745c0.688,0,1.152-0.368,1.152-1.056c0-2.289-4.034-2.897-4.034-6.21
			c0-1.841,1.121-2.881,3.073-2.881c1.617,0,2.577,1.168,2.753,2.801L66.331,45.762z"/>
		<path style="fill:#FFFFFF;" d="M71.129,44.642h-1.921v-1.729h5.827v1.729h-1.921v9.828h-1.985V44.642z"/>
		<path style="fill:#FFFFFF;" d="M78.345,54.47H76.36V42.913h2.785c2.225,0,3.361,0.944,3.361,3.409c0,1.857-0.72,2.609-1.393,2.914
			l1.681,5.234h-2.017l-1.408-4.786c-0.256,0.032-0.672,0.048-1.024,0.048V54.47z M78.345,48.099h0.704
			c1.072,0,1.473-0.4,1.473-1.777c0-1.376-0.4-1.776-1.473-1.776h-0.704V48.099z"/>
		<path style="fill:#FFFFFF;" d="M85.673,54.47h-1.921l2.129-11.557h2.465l2.129,11.557h-1.921l-0.352-2.561h-2.177L85.673,54.47z
			 M86.313,50.18h1.601l-0.784-4.962h-0.032L86.313,50.18z"/>
		<path style="fill:#FFFFFF;" d="M92.056,54.47V42.913h1.985V54.47H92.056z"/>
		<path style="fill:#FFFFFF;" d="M99.129,48.611h3.25v5.858h-0.96l-0.368-0.864c-0.592,0.704-1.072,1.024-2,1.024
			c-1.569,0-2.657-1.121-2.657-2.961v-5.954c0-1.633,0.96-2.961,2.913-2.961c1.985,0,2.977,1.44,2.977,3.169v0.736h-1.889
			c0-1.729-0.352-2.177-1.136-2.177c-0.48,0-0.88,0.289-0.88,1.265v5.938c0,0.736,0.24,1.216,0.928,1.216
			c0.8,0,1.088-0.448,1.088-1.601v-1.12h-1.265V48.611z"/>
		<path style="fill:#FFFFFF;" d="M104.552,54.47V42.913h1.985v4.706h2.113v-4.706h1.985V54.47h-1.985v-5.122h-2.113v5.122H104.552z"
			/>
		<path style="fill:#FFFFFF;" d="M113.865,44.642h-1.921v-1.729h5.827v1.729h-1.921v9.828h-1.985V44.642z"/>
		<path style="fill:#FFFFFF;" d="M119.096,54.47V42.913h5.538v1.729h-3.553v2.978h2.657v1.729h-2.657v5.122H119.096z"/>
		<path style="fill:#FFFFFF;" d="M126.359,45.714c0-1.633,0.96-2.961,3.041-2.961c2.081,0,3.042,1.329,3.042,2.961v5.954
			c0,1.633-0.96,2.961-3.042,2.961c-2.081,0-3.041-1.329-3.041-2.961V45.714z M128.344,51.621c0,0.864,0.256,1.28,1.056,1.28
			s1.057-0.416,1.057-1.28v-5.858c0-0.864-0.256-1.281-1.057-1.281s-1.056,0.417-1.056,1.281V51.621z"/>
		<path style="fill:#FFFFFF;" d="M136.504,54.47h-1.985V42.913h2.785c2.225,0,3.361,0.944,3.361,3.409
			c0,1.857-0.72,2.609-1.393,2.914l1.681,5.234h-2.017l-1.408-4.786c-0.256,0.032-0.672,0.048-1.024,0.048V54.47z M136.504,48.099
			h0.704c1.072,0,1.473-0.4,1.473-1.777c0-1.376-0.4-1.776-1.473-1.776h-0.704V48.099z"/>
		<path style="fill:#FFFFFF;" d="M146.121,42.913h1.633l1.344,7.363h0.032l1.104-7.363h1.856l-2.033,11.557h-1.665l-1.441-7.635
			h-0.032l-1.345,7.635h-1.665l-2.193-11.557h1.857l1.216,7.363h0.032L146.121,42.913z"/>
		<path style="fill:#FFFFFF;" d="M154.664,54.47h-1.921l2.129-11.557h2.465l2.128,11.557h-1.92l-0.352-2.561h-2.177L154.664,54.47z
			 M155.304,50.18h1.601l-0.785-4.962h-0.032L155.304,50.18z"/>
		<path style="fill:#FFFFFF;" d="M162.76,54.47h-1.985V42.913h2.785c2.225,0,3.361,0.944,3.361,3.409
			c0,1.857-0.72,2.609-1.393,2.914l1.681,5.234h-2.017l-1.409-4.786c-0.256,0.032-0.672,0.048-1.024,0.048V54.47z M162.76,48.099
			h0.704c1.072,0,1.473-0.4,1.473-1.777c0-1.376-0.4-1.776-1.473-1.776h-0.704V48.099z"/>
		<path style="fill:#FFFFFF;" d="M168.935,42.913h2.945c2.049,0,3.137,1.121,3.137,3.489v4.578c0,2.369-1.088,3.489-3.137,3.489
			h-2.945V42.913z M170.92,52.837h0.688c1.057,0,1.425-0.4,1.425-1.617v-5.058c0-1.217-0.368-1.617-1.425-1.617h-0.688V52.837z"/>
		<path style="fill:#FFFFFF;" d="M184.808,46.771v-0.896c0-0.976-0.448-1.393-0.96-1.393c-0.8,0-1.056,0.417-1.056,1.281v5.858
			c0,0.864,0.256,1.28,1.056,1.28c0.72,0,0.96-0.416,0.96-1.168V50.34h1.985v1.329c0,1.633-0.96,2.961-2.945,2.961
			c-2.081,0-3.041-1.329-3.041-2.961v-5.954c0-1.633,0.96-2.961,3.041-2.961c1.985,0,2.945,1.44,2.945,3.169v0.848H184.808z"/>
		<path style="fill:#FFFFFF;" d="M189.239,54.47V42.913h1.985V54.47H189.239z"/>
		<path style="fill:#FFFFFF;" d="M193.575,54.47V42.913h1.841l2.417,6.611h0.032v-6.611h1.793V54.47h-1.729l-2.529-7.219h-0.032
			v7.219H193.575z"/>
		<path style="fill:#FFFFFF;" d="M201.735,54.47V42.913h5.314v1.729h-3.329v2.978h2.561v1.729h-2.561v3.394h3.553v1.729H201.735z"/>
		<path style="fill:#FFFFFF;" d="M216.954,42.913V54.47h-1.729v-9.028h-0.032L213.4,54.47h-0.96l-1.793-9.028h-0.032v9.028h-1.729
			V42.913h2.609l1.408,6.755h0.032l1.409-6.755H216.954z"/>
		<path style="fill:#FFFFFF;" d="M220.086,54.47h-1.921l2.129-11.557h2.465l2.128,11.557h-1.92l-0.352-2.561h-2.177L220.086,54.47z
			 M220.727,50.18h1.601l-0.785-4.962h-0.032L220.727,50.18z"/>
		<path style="fill:#FFFFFF;" d="M231.062,54.47h-1.921l2.129-11.557h2.465l2.129,11.557h-1.921l-0.352-2.561h-2.177L231.062,54.47z
			 M231.703,50.18h1.601l-0.784-4.962h-0.032L231.703,50.18z"/>
		<path style="fill:#FFFFFF;" d="M237.173,54.47V42.913h1.841l2.417,6.611h0.032v-6.611h1.793V54.47h-1.729l-2.529-7.219h-0.032
			v7.219H237.173z"/>
		<path style="fill:#FFFFFF;" d="M245.333,42.913h2.945c2.049,0,3.137,1.121,3.137,3.489v4.578c0,2.369-1.088,3.489-3.137,3.489
			h-2.945V42.913z M247.318,52.837h0.688c1.057,0,1.425-0.4,1.425-1.617v-5.058c0-1.217-0.368-1.617-1.425-1.617h-0.688V52.837z"/>
		<path style="fill:#FFFFFF;" d="M261.207,46.771v-0.896c0-0.976-0.448-1.393-0.96-1.393c-0.8,0-1.056,0.417-1.056,1.281v5.858
			c0,0.864,0.256,1.28,1.056,1.28c0.72,0,0.96-0.416,0.96-1.168V50.34h1.985v1.329c0,1.633-0.96,2.961-2.945,2.961
			c-2.081,0-3.041-1.329-3.041-2.961v-5.954c0-1.633,0.96-2.961,3.041-2.961c1.985,0,2.945,1.44,2.945,3.169v0.848H261.207z"/>
		<path style="fill:#FFFFFF;" d="M265.365,54.47V42.913h1.985v4.706h2.113v-4.706h1.985V54.47h-1.985v-5.122h-2.113v5.122H265.365z"
			/>
		<path style="fill:#FFFFFF;" d="M274.678,54.47h-1.921l2.129-11.557h2.465l2.129,11.557h-1.921l-0.352-2.561h-2.177L274.678,54.47z
			 M275.318,50.18h1.601l-0.784-4.962h-0.032L275.318,50.18z"/>
		<path style="fill:#FFFFFF;" d="M280.693,54.47V42.913h1.985v9.828h3.121v1.729H280.693z"/>
		<path style="fill:#FFFFFF;" d="M286.916,50.9v-1.473h3.922V50.9H286.916z"/>
		<path style="fill:#FFFFFF;" d="M37.034,74.47V62.913h1.985v9.828h3.121v1.729H37.034z"/>
		<path style="fill:#FFFFFF;" d="M43.515,74.47V62.913h5.314v1.729H45.5v2.978h2.561v1.729H45.5v3.394h3.553v1.729H43.515z"/>
		<path style="fill:#FFFFFF;" d="M50.778,74.47V62.913h1.841l2.417,6.611h0.032v-6.611h1.793V74.47h-1.729l-2.529-7.219H52.57v7.219
			H50.778z"/>
		<path style="fill:#FFFFFF;" d="M61.675,68.611h3.25v5.858h-0.96l-0.368-0.864c-0.592,0.704-1.072,1.024-2,1.024
			c-1.569,0-2.657-1.121-2.657-2.961v-5.954c0-1.633,0.96-2.961,2.913-2.961c1.985,0,2.977,1.44,2.977,3.169v0.736h-1.889
			c0-1.729-0.352-2.177-1.136-2.177c-0.48,0-0.88,0.289-0.88,1.265v5.938c0,0.736,0.24,1.216,0.928,1.216
			c0.8,0,1.088-0.448,1.088-1.601v-1.12h-1.265V68.611z"/>
		<path style="fill:#FFFFFF;" d="M67.098,74.47V62.913h5.314v1.729h-3.329v2.978h2.561v1.729h-2.561v3.394h3.553v1.729H67.098z"/>
		<path style="fill:#FFFFFF;" d="M77.979,65.762c-0.08-0.992-0.608-1.281-1.056-1.281c-0.64,0-0.993,0.417-0.993,1.137
			c0,1.969,4.034,2.913,4.034,6.05c0,1.905-1.28,2.961-3.137,2.961c-1.841,0-2.897-1.473-2.977-3.201l1.889-0.272
			c0.08,1.168,0.544,1.745,1.185,1.745c0.688,0,1.152-0.368,1.152-1.056c0-2.289-4.034-2.897-4.034-6.21
			c0-1.841,1.121-2.881,3.073-2.881c1.617,0,2.577,1.168,2.753,2.801L77.979,65.762z"/>
		<path style="fill:#FFFFFF;" d="M86.489,74.47h-1.921l2.129-11.557h2.465l2.129,11.557h-1.921l-0.352-2.561h-2.177L86.489,74.47z
			 M87.129,70.18h1.601l-0.784-4.962h-0.032L87.129,70.18z"/>
		<path style="fill:#FFFFFF;" d="M92.6,62.913h1.985v8.724c0,0.848,0.336,1.264,1.056,1.264s1.057-0.416,1.057-1.264v-8.724h1.985
			v8.644c0,1.985-1.153,3.073-3.042,3.073S92.6,73.542,92.6,71.557V62.913z"/>
		<path style="fill:#FFFFFF;" d="M100.76,62.913h2.945c2.049,0,3.137,1.121,3.137,3.489v4.578c0,2.369-1.088,3.489-3.137,3.489
			h-2.945V62.913z M102.745,72.837h0.688c1.057,0,1.425-0.4,1.425-1.617v-5.058c0-1.217-0.368-1.617-1.425-1.617h-0.688V72.837z"/>
		<path style="fill:#FFFFFF;" d="M109.192,74.47V62.913h1.985V74.47H109.192z"/>
		<path style="fill:#FFFFFF;" d="M113.528,74.47V62.913h5.314v1.729h-3.329v2.978h2.561v1.729h-2.561v3.394h3.553v1.729H113.528z"/>
		<path style="fill:#FFFFFF;" d="M120.792,74.47V62.913h1.841l2.417,6.611h0.032v-6.611h1.793V74.47h-1.729l-2.529-7.219h-0.032
			v7.219H120.792z"/>
		<path style="fill:#FFFFFF;" d="M132.954,66.771v-0.896c0-0.976-0.448-1.393-0.96-1.393c-0.8,0-1.056,0.417-1.056,1.281v5.858
			c0,0.864,0.256,1.28,1.056,1.28c0.72,0,0.96-0.416,0.96-1.168V70.34h1.985v1.329c0,1.633-0.96,2.961-2.945,2.961
			c-2.081,0-3.041-1.329-3.041-2.961v-5.954c0-1.633,0.96-2.961,3.041-2.961c1.985,0,2.945,1.44,2.945,3.169v0.848H132.954z"/>
		<path style="fill:#FFFFFF;" d="M137.112,74.47V62.913h5.314v1.729h-3.329v2.978h2.561v1.729h-2.561v3.394h3.553v1.729H137.112z"/>
		<path style="fill:#FFFFFF;" d="M147.993,65.762c-0.08-0.992-0.608-1.281-1.056-1.281c-0.64,0-0.993,0.417-0.993,1.137
			c0,1.969,4.034,2.913,4.034,6.05c0,1.905-1.28,2.961-3.137,2.961c-1.841,0-2.897-1.473-2.977-3.201l1.889-0.272
			c0.08,1.168,0.544,1.745,1.185,1.745c0.688,0,1.152-0.368,1.152-1.056c0-2.289-4.034-2.897-4.034-6.21
			c0-1.841,1.121-2.881,3.073-2.881c1.617,0,2.577,1.168,2.753,2.801L147.993,65.762z"/>
		<path style="fill:#FFFFFF;" d="M156.503,64.642h-1.921v-1.729h5.827v1.729h-1.921v9.828h-1.985V64.642z"/>
		<path style="fill:#FFFFFF;" d="M161.734,65.714c0-1.633,0.96-2.961,3.041-2.961c2.081,0,3.042,1.329,3.042,2.961v5.954
			c0,1.633-0.96,2.961-3.042,2.961c-2.081,0-3.041-1.329-3.041-2.961V65.714z M163.719,71.621c0,0.864,0.256,1.28,1.056,1.28
			s1.057-0.416,1.057-1.28v-5.858c0-0.864-0.256-1.281-1.057-1.281s-1.056,0.417-1.056,1.281V71.621z"/>
		<path style="fill:#FFFFFF;" d="M173.51,74.47V62.913h1.985v9.828h3.121v1.729H173.51z"/>
		<path style="fill:#FFFFFF;" d="M179.99,65.714c0-1.633,0.96-2.961,3.041-2.961c2.081,0,3.042,1.329,3.042,2.961v5.954
			c0,1.633-0.96,2.961-3.042,2.961c-2.081,0-3.041-1.329-3.041-2.961V65.714z M181.975,71.621c0,0.864,0.256,1.28,1.056,1.28
			s1.057-0.416,1.057-1.28v-5.858c0-0.864-0.256-1.281-1.057-1.281s-1.056,0.417-1.056,1.281V71.621z"/>
		<path style="fill:#FFFFFF;" d="M188.15,65.714c0-1.633,0.96-2.961,3.041-2.961c2.081,0,3.042,1.329,3.042,2.961v5.954
			c0,1.633-0.96,2.961-3.042,2.961c-2.081,0-3.041-1.329-3.041-2.961V65.714z M190.135,71.621c0,0.864,0.256,1.28,1.056,1.28
			s1.057-0.416,1.057-1.28v-5.858c0-0.864-0.256-1.281-1.057-1.281s-1.056,0.417-1.056,1.281V71.621z"/>
		<path style="fill:#FFFFFF;" d="M196.214,74.47V62.913h1.985v4.274h0.032l2.081-4.274h1.985l-2.145,4.306l2.417,7.251h-2.017
			l-1.617-5.378h-0.032l-0.704,1.28v4.098H196.214z"/>
		<path style="fill:#FFFFFF;" d="M207.285,62.913h2.945c2.049,0,3.137,1.121,3.137,3.489v4.578c0,2.369-1.088,3.489-3.137,3.489
			h-2.945V62.913z M209.27,72.837h0.688c1.057,0,1.425-0.4,1.425-1.617v-5.058c0-1.217-0.368-1.617-1.425-1.617h-0.688V72.837z"/>
		<path style="fill:#FFFFFF;" d="M215.445,74.47V62.913h5.314v1.729h-3.329v2.978h2.561v1.729h-2.561v3.394h3.553v1.729H215.445z"/>
		<path style="fill:#FFFFFF;" d="M222.708,74.47V62.913h5.314v1.729h-3.329v2.978h2.561v1.729h-2.561v3.394h3.553v1.729H222.708z"/>
		<path style="fill:#FFFFFF;" d="M229.972,74.47V62.913h2.849c2.449,0,3.585,0.944,3.585,3.409c0,2.465-1.137,3.41-3.585,3.41
			h-0.864v4.738H229.972z M231.957,68.099h0.768c1.297,0,1.697-0.4,1.697-1.777c0-1.376-0.4-1.776-1.697-1.776h-0.768V68.099z"/>
		<path style="fill:#FFFFFF;" d="M238.132,74.47V62.913h5.314v1.729h-3.329v2.978h2.561v1.729h-2.561v3.394h3.553v1.729H238.132z"/>
		<path style="fill:#FFFFFF;" d="M247.38,74.47h-1.985V62.913h2.785c2.225,0,3.361,0.944,3.361,3.409
			c0,1.857-0.72,2.609-1.393,2.914l1.681,5.234h-2.017l-1.408-4.786c-0.256,0.032-0.672,0.048-1.024,0.048V74.47z M247.38,68.099
			h0.704c1.072,0,1.473-0.4,1.473-1.777c0-1.376-0.4-1.776-1.473-1.776h-0.704V68.099z"/>
		<path style="fill:#FFFFFF;" d="M255.621,64.802l-1.104,1.985h-0.849l0.785-1.985h-0.721v-1.889h1.889V64.802z M258.582,64.802
			l-1.104,1.985h-0.848l0.784-1.985h-0.72v-1.889h1.889V64.802z"/>
		<path style="fill:#FFF8DA;" d="M114.3,96.47v-8.659h4.149v1.295h-2.662v2.23h1.991v1.295h-1.991v3.838H114.3z"/>
		<path style="fill:#FFF8DA;" d="M119.892,96.47v-8.659h1.487v8.659H119.892z"/>
		<path style="fill:#FFF8DA;" d="M124.571,96.47h-1.487v-8.659h2.087c1.667,0,2.519,0.708,2.519,2.555
			c0,1.391-0.54,1.955-1.043,2.183l1.259,3.922h-1.511l-1.056-3.586c-0.191,0.024-0.503,0.036-0.768,0.036V96.47z M124.571,91.696
			h0.528c0.804,0,1.104-0.3,1.104-1.331c0-1.032-0.3-1.332-1.104-1.332h-0.528V91.696z"/>
		<path style="fill:#FFF8DA;" d="M131.854,89.945c-0.06-0.744-0.456-0.959-0.792-0.959c-0.48,0-0.744,0.312-0.744,0.852
			c0,1.475,3.022,2.183,3.022,4.534c0,1.427-0.959,2.219-2.351,2.219c-1.379,0-2.17-1.104-2.23-2.399l1.415-0.204
			c0.06,0.875,0.408,1.307,0.888,1.307c0.516,0,0.863-0.276,0.863-0.792c0-1.715-3.022-2.171-3.022-4.653
			c0-1.379,0.84-2.159,2.303-2.159c1.211,0,1.931,0.875,2.063,2.099L131.854,89.945z"/>
		<path style="fill:#FFF8DA;" d="M135.395,89.106h-1.439v-1.295h4.366v1.295h-1.439v7.364h-1.487V89.106z"/>
		<path style="fill:#FFF8DA;" d="M144.694,89.945c-0.06-0.744-0.456-0.959-0.792-0.959c-0.48,0-0.744,0.312-0.744,0.852
			c0,1.475,3.022,2.183,3.022,4.534c0,1.427-0.959,2.219-2.351,2.219c-1.379,0-2.17-1.104-2.23-2.399l1.415-0.204
			c0.06,0.875,0.408,1.307,0.888,1.307c0.516,0,0.863-0.276,0.863-0.792c0-1.715-3.022-2.171-3.022-4.653
			c0-1.379,0.839-2.159,2.303-2.159c1.211,0,1.931,0.875,2.062,2.099L144.694,89.945z"/>
		<path style="fill:#FFF8DA;" d="M147.371,96.47v-8.659h1.487v3.526h1.583v-3.526h1.487v8.659h-1.487v-3.838h-1.583v3.838H147.371z"
			/>
		<path style="fill:#FFF8DA;" d="M153.431,89.909c0-1.223,0.72-2.219,2.279-2.219s2.279,0.996,2.279,2.219v4.462
			c0,1.223-0.72,2.219-2.279,2.219s-2.279-0.996-2.279-2.219V89.909z M154.918,94.335c0,0.647,0.191,0.959,0.792,0.959
			c0.6,0,0.792-0.312,0.792-0.959v-4.39c0-0.647-0.192-0.959-0.792-0.959c-0.6,0-0.792,0.312-0.792,0.959V94.335z"/>
		<path style="fill:#FFF8DA;" d="M162.07,87.811h1.223l1.007,5.517h0.024l0.828-5.517h1.392l-1.523,8.659h-1.247l-1.08-5.721h-0.024
			l-1.007,5.721h-1.248l-1.643-8.659h1.391l0.912,5.517h0.024L162.07,87.811z"/>
		<path style="fill:#FFF8DA;" d="M167.759,96.47v-8.659h1.487v8.659H167.759z"/>
		<path style="fill:#FFF8DA;" d="M170.951,96.47v-8.659h1.379l1.811,4.953h0.024v-4.953h1.343v8.659h-1.295l-1.895-5.409h-0.024
			v5.409H170.951z"/>
		<path style="fill:#FFF8DA;" d="M179.062,92.08h2.435v4.39h-0.72l-0.276-0.647c-0.443,0.527-0.803,0.768-1.499,0.768
			c-1.175,0-1.991-0.84-1.991-2.219v-4.462c0-1.223,0.72-2.219,2.183-2.219c1.487,0,2.231,1.08,2.231,2.375v0.552h-1.416
			c0-1.295-0.264-1.631-0.852-1.631c-0.359,0-0.659,0.216-0.659,0.947v4.45c0,0.552,0.18,0.912,0.695,0.912
			c0.6,0,0.815-0.336,0.815-1.199v-0.84h-0.947V92.08z"/>
	</g>
</g>
<g id="nyt_x5F_exporter_x5F_info" style="display:none;">
</g>
</svg>
