<?xml version="1.0" encoding="iso-8859-1"?>
<!-- Generator: Adobe Illustrator 17.1.0, SVG Export Plug-In . SVG Version: 6.00 Build 0)  -->
<!DOCTYPE svg PUBLIC "-//W3C//DTD SVG 1.1//EN" "http://www.w3.org/Graphics/SVG/1.1/DTD/svg11.dtd">
<svg version="1.1" xmlns="http://www.w3.org/2000/svg" xmlns:xlink="http://www.w3.org/1999/xlink" x="0px" y="0px"
	 viewBox="0 0 300 187.812" style="enable-background:new 0 0 300 187.812;" xml:space="preserve">
<g id="Layer_1">
	<g>
		<path style="fill:#FFFFFF;" d="M9.5,6.548l1.104-1.985h0.848l-0.784,1.985h0.721v1.889H9.5V6.548z M12.461,6.548l1.104-1.985
			h0.849l-0.785,1.985h0.721v1.889h-1.889V6.548z"/>
		<path style="fill:#FFFFFF;" d="M16.604,16.28V4.724h5.538v1.729h-3.554V9.43h2.657v1.729h-2.657v5.122H16.604z"/>
		<path style="fill:#FFFFFF;" d="M23.866,4.724h1.985v8.724c0,0.848,0.336,1.264,1.056,1.264c0.721,0,1.057-0.416,1.057-1.264V4.724
			h1.985v8.644c0,1.985-1.153,3.073-3.042,3.073s-3.041-1.088-3.041-3.073V4.724z"/>
		<path style="fill:#FFFFFF;" d="M34.012,16.28h-1.985V4.724h2.785c2.225,0,3.361,0.944,3.361,3.409c0,1.857-0.72,2.609-1.393,2.914
			l1.681,5.234h-2.017l-1.408-4.786c-0.257,0.032-0.673,0.048-1.024,0.048V16.28z M34.012,9.91h0.704c1.072,0,1.473-0.4,1.473-1.777
			c0-1.376-0.4-1.776-1.473-1.776h-0.704V9.91z"/>
		<path style="fill:#FFFFFF;" d="M41.339,6.452h-1.921V4.724h5.827v1.729h-1.921v9.828h-1.985V6.452z"/>
		<path style="fill:#FFFFFF;" d="M46.57,16.28V4.724h1.984V9.43h2.113V4.724h1.984V16.28h-1.984v-5.122h-2.113v5.122H46.57z"/>
		<path style="fill:#FFFFFF;" d="M54.73,16.28V4.724h5.313v1.729h-3.329V9.43h2.562v1.729h-2.562v3.394h3.554v1.729H54.73z"/>
		<path style="fill:#FFFFFF;" d="M63.979,16.28h-1.984V4.724h2.785c2.225,0,3.361,0.944,3.361,3.409
			c0,1.857-0.721,2.609-1.393,2.914l1.681,5.234h-2.018l-1.408-4.786c-0.256,0.032-0.672,0.048-1.024,0.048V16.28z M63.979,9.91
			h0.704c1.072,0,1.473-0.4,1.473-1.777c0-1.376-0.4-1.776-1.473-1.776h-0.704V9.91z"/>
		<path style="fill:#FFFFFF;" d="M73.865,16.28V4.724h5.314v1.729h-3.329V9.43h2.561v1.729h-2.561v3.394h3.553v1.729H73.865z"/>
		<path style="fill:#FFFFFF;" d="M84.746,7.573c-0.079-0.992-0.607-1.281-1.056-1.281c-0.641,0-0.993,0.417-0.993,1.137
			c0,1.969,4.034,2.913,4.034,6.05c0,1.905-1.28,2.961-3.138,2.961c-1.841,0-2.896-1.473-2.977-3.201l1.889-0.272
			c0.08,1.168,0.544,1.745,1.185,1.745c0.688,0,1.152-0.368,1.152-1.056c0-2.289-4.034-2.897-4.034-6.21
			c0-1.841,1.121-2.881,3.073-2.881c1.617,0,2.577,1.168,2.754,2.801L84.746,7.573z"/>
		<path style="fill:#FFFFFF;" d="M89.545,6.452h-1.921V4.724h5.826v1.729h-1.921v9.828h-1.984V6.452z"/>
		<path style="fill:#FFFFFF;" d="M95.929,16.28h-1.921l2.129-11.557h2.465l2.129,11.557H98.81l-0.352-2.561H96.28L95.929,16.28z
			 M96.568,11.991h1.601l-0.784-4.962h-0.031L96.568,11.991z"/>
		<path style="fill:#FFFFFF;" d="M102.04,4.724h2.945c2.129,0,3.073,1.088,3.073,3.057c0,0.993-0.417,2.033-1.377,2.417
			c1.009,0.448,1.601,1.249,1.601,2.737c0,1.905-0.849,3.345-3.105,3.345h-3.137V4.724z M104.024,9.461h0.721
			c0.752,0,1.328-0.512,1.328-1.473c0-1.072-0.416-1.632-1.297-1.632h-0.752V9.461z M104.024,14.647h0.832
			c1.057,0,1.441-0.608,1.441-1.776c0-1.185-0.448-1.777-1.633-1.777h-0.641V14.647z"/>
		<path style="fill:#FFFFFF;" d="M110.104,16.28V4.724h1.985v9.828h3.121v1.729H110.104z"/>
		<path style="fill:#FFFFFF;" d="M116.855,16.28V4.724h1.984V16.28H116.855z"/>
		<path style="fill:#FFFFFF;" d="M124.809,7.573c-0.079-0.992-0.607-1.281-1.056-1.281c-0.641,0-0.993,0.417-0.993,1.137
			c0,1.969,4.034,2.913,4.034,6.05c0,1.905-1.28,2.961-3.138,2.961c-1.841,0-2.896-1.473-2.977-3.201l1.889-0.272
			c0.08,1.168,0.544,1.745,1.185,1.745c0.688,0,1.152-0.368,1.152-1.056c0-2.289-4.034-2.897-4.034-6.21
			c0-1.841,1.121-2.881,3.073-2.881c1.617,0,2.577,1.168,2.754,2.801L124.809,7.573z"/>
		<path style="fill:#FFFFFF;" d="M128.455,16.28V4.724h1.985V9.43h2.112V4.724h1.985V16.28h-1.985v-5.122h-2.112v5.122H128.455z"/>
		<path style="fill:#FFFFFF;" d="M136.615,16.28V4.724h5.313v1.729H138.6V9.43h2.562v1.729H138.6v3.394h3.554v1.729H136.615z"/>
		<path style="fill:#FFFFFF;" d="M147.496,7.573c-0.08-0.992-0.608-1.281-1.057-1.281c-0.64,0-0.992,0.417-0.992,1.137
			c0,1.969,4.033,2.913,4.033,6.05c0,1.905-1.28,2.961-3.137,2.961c-1.841,0-2.897-1.473-2.978-3.201l1.889-0.272
			c0.08,1.168,0.545,1.745,1.185,1.745c0.688,0,1.152-0.368,1.152-1.056c0-2.289-4.033-2.897-4.033-6.21
			c0-1.841,1.12-2.881,3.073-2.881c1.616,0,2.577,1.168,2.753,2.801L147.496,7.573z"/>
		<path style="fill:#FFFFFF;" d="M162.809,4.724V16.28h-1.729V7.252h-0.032l-1.792,9.028h-0.961l-1.793-9.028h-0.031v9.028h-1.729
			V4.724h2.609l1.408,6.755h0.032l1.409-6.755H162.809z"/>
		<path style="fill:#FFFFFF;" d="M165.062,16.28V4.724h1.985V16.28H165.062z"/>
		<path style="fill:#FFFFFF;" d="M173.399,8.581V7.684c0-0.976-0.448-1.393-0.961-1.393c-0.8,0-1.056,0.417-1.056,1.281v5.858
			c0,0.864,0.256,1.28,1.056,1.28c0.721,0,0.961-0.416,0.961-1.168V12.15h1.984v1.329c0,1.633-0.96,2.961-2.945,2.961
			c-2.08,0-3.041-1.329-3.041-2.961V7.525c0-1.633,0.961-2.961,3.041-2.961c1.985,0,2.945,1.44,2.945,3.169v0.848H173.399z"/>
		<path style="fill:#FFFFFF;" d="M177.558,16.28V4.724h1.984V9.43h2.113V4.724h1.984V16.28h-1.984v-5.122h-2.113v5.122H177.558z"/>
		<path style="fill:#FFFFFF;" d="M185.718,7.525c0-1.633,0.96-2.961,3.041-2.961s3.041,1.329,3.041,2.961v5.954
			c0,1.633-0.96,2.961-3.041,2.961s-3.041-1.329-3.041-2.961V7.525z M187.702,13.431c0,0.864,0.256,1.28,1.057,1.28
			c0.8,0,1.057-0.416,1.057-1.28V7.573c0-0.864-0.257-1.281-1.057-1.281c-0.801,0-1.057,0.417-1.057,1.281V13.431z"/>
		<path style="fill:#FFFFFF;" d="M193.878,4.724h2.945c2.049,0,3.137,1.121,3.137,3.489v4.578c0,2.369-1.088,3.489-3.137,3.489
			h-2.945V4.724z M195.862,14.647h0.688c1.057,0,1.425-0.4,1.425-1.617V7.973c0-1.217-0.368-1.617-1.425-1.617h-0.688V14.647z"/>
		<path style="fill:#FFFFFF;" d="M206.901,16.28h-1.921l2.129-11.557h2.466l2.128,11.557h-1.92l-0.353-2.561h-2.177L206.901,16.28z
			 M207.542,11.991h1.601l-0.784-4.962h-0.032L207.542,11.991z"/>
		<path style="fill:#FFFFFF;" d="M216.63,7.573c-0.079-0.992-0.607-1.281-1.056-1.281c-0.641,0-0.993,0.417-0.993,1.137
			c0,1.969,4.034,2.913,4.034,6.05c0,1.905-1.28,2.961-3.138,2.961c-1.841,0-2.896-1.473-2.977-3.201l1.889-0.272
			c0.08,1.168,0.544,1.745,1.185,1.745c0.688,0,1.152-0.368,1.152-1.056c0-2.289-4.034-2.897-4.034-6.21
			c0-1.841,1.121-2.881,3.073-2.881c1.617,0,2.577,1.168,2.754,2.801L216.63,7.573z"/>
		<path style="fill:#FFFFFF;" d="M223.988,7.525c0-1.633,0.96-2.961,3.041-2.961s3.041,1.329,3.041,2.961v5.954
			c0,1.633-0.96,2.961-3.041,2.961s-3.041-1.329-3.041-2.961V7.525z M225.973,13.431c0,0.864,0.256,1.28,1.057,1.28
			c0.8,0,1.057-0.416,1.057-1.28V7.573c0-0.864-0.257-1.281-1.057-1.281c-0.801,0-1.057,0.417-1.057,1.281V13.431z"/>
		<path style="fill:#FFFFFF;" d="M232.148,16.28V4.724h1.841l2.417,6.611h0.031V4.724h1.793V16.28h-1.729l-2.529-7.219h-0.032v7.219
			H232.148z"/>
		<path style="fill:#FFFFFF;" d="M240.308,16.28V4.724h5.314v1.729h-3.329V9.43h2.561v1.729h-2.561v3.394h3.553v1.729H240.308z"/>
		<path style="fill:#FFFFFF;" d="M251.283,7.525c0-1.633,0.961-2.961,3.041-2.961c2.081,0,3.042,1.329,3.042,2.961v5.954
			c0,1.633-0.961,2.961-3.042,2.961c-2.08,0-3.041-1.329-3.041-2.961V7.525z M253.269,13.431c0,0.864,0.256,1.28,1.056,1.28
			c0.801,0,1.057-0.416,1.057-1.28V7.573c0-0.864-0.256-1.281-1.057-1.281c-0.8,0-1.056,0.417-1.056,1.281V13.431z"/>
		<path style="fill:#FFFFFF;" d="M259.443,16.28V4.724h5.538v1.729h-3.554V9.43h2.657v1.729h-2.657v5.122H259.443z"/>
		<path style="fill:#FFFFFF;" d="M271.571,6.452h-1.921V4.724h5.826v1.729h-1.921v9.828h-1.984V6.452z"/>
		<path style="fill:#FFFFFF;" d="M276.803,16.28V4.724h1.984V9.43h2.113V4.724h1.984V16.28H280.9v-5.122h-2.113v5.122H276.803z"/>
		<path style="fill:#FFFFFF;" d="M284.962,16.28V4.724h5.314v1.729h-3.329V9.43h2.561v1.729h-2.561v3.394h3.553v1.729H284.962z"/>
		<path style="fill:#FFFFFF;" d="M31.894,24.724V36.28h-1.729v-9.028h-0.032l-1.792,9.028H27.38l-1.793-9.028h-0.031v9.028h-1.729
			V24.724h2.609l1.408,6.755h0.032l1.409-6.755H31.894z"/>
		<path style="fill:#FFFFFF;" d="M33.875,27.525c0-1.633,0.96-2.961,3.041-2.961s3.041,1.329,3.041,2.961v5.954
			c0,1.633-0.96,2.961-3.041,2.961s-3.041-1.329-3.041-2.961V27.525z M35.859,33.431c0,0.864,0.256,1.28,1.057,1.28
			c0.8,0,1.057-0.416,1.057-1.28v-5.858c0-0.864-0.257-1.281-1.057-1.281c-0.801,0-1.057,0.417-1.057,1.281V33.431z"/>
		<path style="fill:#FFFFFF;" d="M45.651,27.573c-0.079-0.992-0.607-1.281-1.056-1.281c-0.641,0-0.993,0.417-0.993,1.137
			c0,1.969,4.034,2.913,4.034,6.05c0,1.905-1.28,2.961-3.138,2.961c-1.841,0-2.896-1.473-2.977-3.201l1.889-0.272
			c0.08,1.168,0.544,1.745,1.185,1.745c0.688,0,1.152-0.368,1.152-1.056c0-2.289-4.034-2.897-4.034-6.21
			c0-1.841,1.121-2.881,3.073-2.881c1.617,0,2.577,1.168,2.754,2.801L45.651,27.573z"/>
		<path style="fill:#FFFFFF;" d="M50.45,26.452h-1.921v-1.729h5.827v1.729h-1.921v9.828H50.45V26.452z"/>
		<path style="fill:#FFFFFF;" d="M62.13,30.422h3.25v5.858h-0.961l-0.368-0.864c-0.592,0.704-1.072,1.024-2,1.024
			c-1.569,0-2.657-1.121-2.657-2.961v-5.954c0-1.633,0.96-2.961,2.913-2.961c1.984,0,2.977,1.44,2.977,3.169v0.736h-1.889
			c0-1.729-0.352-2.177-1.136-2.177c-0.48,0-0.881,0.289-0.881,1.265v5.938c0,0.736,0.24,1.216,0.929,1.216
			c0.8,0,1.088-0.448,1.088-1.601v-1.12H62.13V30.422z"/>
		<path style="fill:#FFFFFF;" d="M67.825,36.28V24.724h1.985V36.28H67.825z"/>
		<path style="fill:#FFFFFF;" d="M72.162,36.28V24.724H77.7v1.729h-3.554v2.978h2.657v1.729h-2.657v5.122H72.162z"/>
		<path style="fill:#FFFFFF;" d="M80.577,26.452h-1.921v-1.729h5.827v1.729h-1.921v9.828h-1.985V26.452z"/>
		<path style="fill:#FFFFFF;" d="M85.809,36.28V24.724h5.314v1.729h-3.329v2.978h2.561v1.729h-2.561v3.394h3.553v1.729H85.809z"/>
		<path style="fill:#FFFFFF;" d="M93.072,24.724h2.945c2.049,0,3.138,1.121,3.138,3.489v4.578c0,2.369-1.089,3.489-3.138,3.489
			h-2.945V24.724z M95.058,34.647h0.688c1.057,0,1.425-0.4,1.425-1.617v-5.058c0-1.217-0.368-1.617-1.425-1.617h-0.688V34.647z"/>
		<path style="fill:#FFFFFF;" d="M108.529,36.28h-1.984v-4.802l-2.401-6.755h2.017l1.393,4.402h0.032l1.329-4.402h2.017
			l-2.401,6.755V36.28z"/>
		<path style="fill:#FFFFFF;" d="M112.208,27.525c0-1.633,0.96-2.961,3.041-2.961s3.041,1.329,3.041,2.961v5.954
			c0,1.633-0.96,2.961-3.041,2.961s-3.041-1.329-3.041-2.961V27.525z M114.192,33.431c0,0.864,0.256,1.28,1.057,1.28
			c0.8,0,1.057-0.416,1.057-1.28v-5.858c0-0.864-0.257-1.281-1.057-1.281c-0.801,0-1.057,0.417-1.057,1.281V33.431z"/>
		<path style="fill:#FFFFFF;" d="M120.368,24.724h1.984v8.724c0,0.848,0.336,1.264,1.057,1.264c0.72,0,1.057-0.416,1.057-1.264
			v-8.724h1.984v8.644c0,1.985-1.152,3.073-3.041,3.073s-3.041-1.088-3.041-3.073V24.724z"/>
		<path style="fill:#FFFFFF;" d="M128.527,36.28V24.724h1.841l2.417,6.611h0.032v-6.611h1.793V36.28h-1.729l-2.528-7.219h-0.032
			v7.219H128.527z"/>
		<path style="fill:#FFFFFF;" d="M139.425,30.422h3.249v5.858h-0.96l-0.368-0.864c-0.593,0.704-1.072,1.024-2.001,1.024
			c-1.568,0-2.657-1.121-2.657-2.961v-5.954c0-1.633,0.961-2.961,2.913-2.961c1.985,0,2.978,1.44,2.978,3.169v0.736h-1.889
			c0-1.729-0.353-2.177-1.137-2.177c-0.48,0-0.88,0.289-0.88,1.265v5.938c0,0.736,0.239,1.216,0.928,1.216
			c0.801,0,1.089-0.448,1.089-1.601v-1.12h-1.265V30.422z"/>
		<path style="fill:#FFFFFF;" d="M148.56,24.724h2.945c2.049,0,3.137,1.121,3.137,3.489v4.578c0,2.369-1.088,3.489-3.137,3.489
			h-2.945V24.724z M150.544,34.647h0.688c1.057,0,1.425-0.4,1.425-1.617v-5.058c0-1.217-0.368-1.617-1.425-1.617h-0.688V34.647z"/>
		<path style="fill:#FFFFFF;" d="M156.991,36.28V24.724h1.985V36.28H156.991z"/>
		<path style="fill:#FFFFFF;" d="M163.312,36.28h-1.984V24.724h2.785c2.225,0,3.361,0.944,3.361,3.409
			c0,1.857-0.721,2.609-1.393,2.914l1.681,5.234h-2.018l-1.408-4.786c-0.256,0.032-0.672,0.048-1.024,0.048V36.28z M163.312,29.91
			h0.704c1.072,0,1.473-0.4,1.473-1.777c0-1.376-0.4-1.776-1.473-1.776h-0.704V29.91z"/>
		<path style="fill:#FFFFFF;" d="M169.487,36.28V24.724h5.314v1.729h-3.329v2.978h2.561v1.729h-2.561v3.394h3.553v1.729H169.487z"/>
		<path style="fill:#FFFFFF;" d="M180.753,28.581v-0.896c0-0.976-0.448-1.393-0.961-1.393c-0.8,0-1.056,0.417-1.056,1.281v5.858
			c0,0.864,0.256,1.28,1.056,1.28c0.721,0,0.961-0.416,0.961-1.168V32.15h1.984v1.329c0,1.633-0.96,2.961-2.945,2.961
			c-2.08,0-3.041-1.329-3.041-2.961v-5.954c0-1.633,0.961-2.961,3.041-2.961c1.985,0,2.945,1.44,2.945,3.169v0.848H180.753z"/>
		<path style="fill:#FFFFFF;" d="M186.063,26.452h-1.921v-1.729h5.827v1.729h-1.921v9.828h-1.985V26.452z"/>
		<path style="fill:#FFFFFF;" d="M191.295,27.525c0-1.633,0.96-2.961,3.041-2.961s3.041,1.329,3.041,2.961v5.954
			c0,1.633-0.96,2.961-3.041,2.961s-3.041-1.329-3.041-2.961V27.525z M193.279,33.431c0,0.864,0.256,1.28,1.057,1.28
			c0.8,0,1.057-0.416,1.057-1.28v-5.858c0-0.864-0.257-1.281-1.057-1.281c-0.801,0-1.057,0.417-1.057,1.281V33.431z"/>
		<path style="fill:#FFFFFF;" d="M201.439,36.28h-1.984V24.724h2.785c2.225,0,3.361,0.944,3.361,3.409
			c0,1.857-0.721,2.609-1.393,2.914l1.681,5.234h-2.018l-1.408-4.786c-0.256,0.032-0.672,0.048-1.024,0.048V36.28z M201.439,29.91
			h0.704c1.072,0,1.473-0.4,1.473-1.777c0-1.376-0.4-1.776-1.473-1.776h-0.704V29.91z"/>
		<path style="fill:#FFFFFF;" d="M211.232,27.573c-0.08-0.992-0.608-1.281-1.057-1.281c-0.64,0-0.992,0.417-0.992,1.137
			c0,1.969,4.033,2.913,4.033,6.05c0,1.905-1.28,2.961-3.137,2.961c-1.841,0-2.897-1.473-2.978-3.201l1.889-0.272
			c0.08,1.168,0.545,1.745,1.185,1.745c0.688,0,1.152-0.368,1.152-1.056c0-2.289-4.033-2.897-4.033-6.21
			c0-1.841,1.12-2.881,3.073-2.881c1.616,0,2.577,1.168,2.753,2.801L211.232,27.573z"/>
		<path style="fill:#FFFFFF;" d="M219.742,36.28h-1.921l2.129-11.557h2.466l2.128,11.557h-1.92l-0.353-2.561h-2.177L219.742,36.28z
			 M220.383,31.991h1.601l-0.784-4.962h-0.032L220.383,31.991z"/>
		<path style="fill:#FFFFFF;" d="M227.839,36.28h-1.985V24.724h2.785c2.225,0,3.361,0.944,3.361,3.409
			c0,1.857-0.72,2.609-1.393,2.914l1.681,5.234h-2.017l-1.408-4.786c-0.257,0.032-0.673,0.048-1.024,0.048V36.28z M227.839,29.91
			h0.704c1.072,0,1.473-0.4,1.473-1.777c0-1.376-0.4-1.776-1.473-1.776h-0.704V29.91z"/>
		<path style="fill:#FFFFFF;" d="M234.014,27.525c0-1.633,0.96-2.961,3.041-2.961s3.041,1.329,3.041,2.961v5.954
			c0,1.633-0.96,2.961-3.041,2.961s-3.041-1.329-3.041-2.961V27.525z M235.998,33.431c0,0.864,0.256,1.28,1.057,1.28
			c0.8,0,1.057-0.416,1.057-1.28v-5.858c0-0.864-0.257-1.281-1.057-1.281c-0.801,0-1.057,0.417-1.057,1.281V33.431z"/>
		<path style="fill:#FFFFFF;" d="M242.174,24.724h1.984v8.724c0,0.848,0.336,1.264,1.057,1.264c0.72,0,1.057-0.416,1.057-1.264
			v-8.724h1.984v8.644c0,1.985-1.152,3.073-3.041,3.073s-3.041-1.088-3.041-3.073V24.724z"/>
		<path style="fill:#FFFFFF;" d="M250.334,36.28V24.724h1.841l2.417,6.611h0.031v-6.611h1.793V36.28h-1.729l-2.529-7.219h-0.032
			v7.219H250.334z"/>
		<path style="fill:#FFFFFF;" d="M258.493,24.724h2.945c2.049,0,3.138,1.121,3.138,3.489v4.578c0,2.369-1.089,3.489-3.138,3.489
			h-2.945V24.724z M260.479,34.647h0.688c1.057,0,1.425-0.4,1.425-1.617v-5.058c0-1.217-0.368-1.617-1.425-1.617h-0.688V34.647z"/>
		<path style="fill:#FFFFFF;" d="M266.525,36.28v-1.889h1.889v1.889H266.525z"/>
		<path style="fill:#FFFFFF;" d="M272.431,26.612l-1.104,1.985h-0.849l0.784-1.985h-0.721v-1.889h1.89V26.612z M275.392,26.612
			l-1.104,1.985h-0.849l0.784-1.985h-0.72v-1.889h1.889V26.612z"/>
		<path style="fill:#FFF8DA;" d="M135.661,49.621h1.463l-1.811,8.659h-1.487l-1.812-8.659h1.464l1.079,6.009h0.023L135.661,49.621z"
			/>
		<path style="fill:#FFF8DA;" d="M138.878,58.28h-1.439l1.596-8.659h1.847l1.595,8.659h-1.439l-0.264-1.919h-1.631L138.878,58.28z
			 M139.357,55.066h1.199l-0.588-3.718h-0.023L139.357,55.066z"/>
		<path style="fill:#FFF8DA;" d="M144.889,58.28h-1.486v-8.659h2.087c1.667,0,2.519,0.708,2.519,2.555
			c0,1.391-0.54,1.955-1.044,2.183l1.26,3.922h-1.512l-1.056-3.586c-0.191,0.024-0.503,0.036-0.768,0.036V58.28z M144.889,53.507
			h0.528c0.804,0,1.104-0.3,1.104-1.331c0-1.032-0.3-1.332-1.104-1.332h-0.528V53.507z"/>
		<path style="fill:#FFF8DA;" d="M149.666,58.28v-8.659h1.487v8.659H149.666z"/>
		<path style="fill:#FFF8DA;" d="M152.858,58.28v-8.659h3.981v1.295h-2.495v2.23h1.919v1.295h-1.919v2.542h2.663v1.295H152.858z"/>
		<path style="fill:#FFF8DA;" d="M159.108,50.916h-1.438v-1.295h4.365v1.295h-1.439v7.364h-1.487V50.916z"/>
		<path style="fill:#FFF8DA;" d="M165.66,58.28h-1.487v-3.598l-1.799-5.061h1.511l1.043,3.298h0.024l0.995-3.298h1.512l-1.799,5.061
			V58.28z"/>
	</g>
</g>
<g id="nyt_x5F_exporter_x5F_info" style="display:none;">
</g>
</svg>
