<?xml version="1.0" encoding="iso-8859-1"?>
<!-- Generator: Adobe Illustrator 17.1.0, SVG Export Plug-In . SVG Version: 6.00 Build 0)  -->
<!DOCTYPE svg PUBLIC "-//W3C//DTD SVG 1.1//EN" "http://www.w3.org/Graphics/SVG/1.1/DTD/svg11.dtd">
<svg version="1.1" xmlns="http://www.w3.org/2000/svg" xmlns:xlink="http://www.w3.org/1999/xlink" x="0px" y="0px"
	 viewBox="0 0 300 81.506" style="enable-background:new 0 0 300 81.506;" xml:space="preserve">
<g id="Layer_1">
	<g>
		<path style="fill:#FFF8DA;" d="M7.893,4.463L10.377,0h1.908l-1.764,4.463h1.62v4.248H7.893V4.463z M14.552,4.463L17.036,0h1.908
			L17.18,4.463h1.62v4.248h-4.248V4.463z"/>
		<path style="fill:#FFF8DA;" d="M23.696,0.36h6.623c4.788,0,6.911,2.448,6.911,6.875c0,2.232-0.936,4.572-3.095,5.436
			c2.268,1.008,3.599,2.808,3.599,6.155c0,4.283-1.908,7.523-6.983,7.523h-7.055V0.36z M28.159,11.015h1.62
			c1.691,0,2.987-1.152,2.987-3.312c0-2.412-0.936-3.672-2.916-3.672h-1.692V11.015z M28.159,22.677h1.872
			c2.375,0,3.239-1.368,3.239-3.996c0-2.664-1.008-3.996-3.671-3.996h-1.44V22.677z"/>
		<path style="fill:#FFF8DA;" d="M46.34,26.349h-4.463V0.36h6.263c5.003,0,7.559,2.124,7.559,7.667c0,4.176-1.62,5.867-3.131,6.551
			l3.779,11.771h-4.535l-3.168-10.763c-0.576,0.072-1.512,0.108-2.304,0.108V26.349z M46.34,12.022h1.584
			c2.412,0,3.312-0.9,3.312-3.996s-0.9-3.996-3.312-3.996H46.34V12.022z"/>
		<path style="fill:#FFF8DA;" d="M60.056,0.36h4.463v19.618c0,1.908,0.756,2.844,2.376,2.844c1.62,0,2.375-0.936,2.375-2.844V0.36
			h4.463v19.438c0,4.463-2.591,6.911-6.839,6.911s-6.839-2.448-6.839-6.911V0.36z"/>
		<path style="fill:#FFF8DA;" d="M80.828,4.248h-4.319V0.36h13.102v3.888h-4.319v22.101h-4.463V4.248z"/>
		<path style="fill:#FFF8DA;" d="M95.012,26.349h-4.319L95.48,0.36h5.543l4.787,25.989h-4.319l-0.792-5.759h-4.895L95.012,26.349z
			 M96.452,16.702h3.6L98.287,5.543h-0.072L96.452,16.702z"/>
		<path style="fill:#FFF8DA;" d="M108.367,26.349V0.36h4.463v22.101h7.019v3.888H108.367z"/>
		<path style="fill:#FFF8DA;" d="M122.552,26.349V0.36h4.463v22.101h7.019v3.888H122.552z"/>
		<path style="fill:#FFF8DA;" d="M145.014,26.349h-4.463V15.55l-5.399-15.19h4.536l3.131,9.899h0.072l2.987-9.899h4.536
			l-5.399,15.19V26.349z"/>
		<path style="fill:#FFF8DA;" d="M161.286,0.36h6.623c4.788,0,6.911,2.448,6.911,6.875c0,2.232-0.936,4.572-3.095,5.436
			c2.268,1.008,3.599,2.808,3.599,6.155c0,4.283-1.908,7.523-6.983,7.523h-7.055V0.36z M165.749,11.015h1.62
			c1.691,0,2.987-1.152,2.987-3.312c0-2.412-0.936-3.672-2.916-3.672h-1.692V11.015z M165.749,22.677h1.872
			c2.375,0,3.239-1.368,3.239-3.996c0-2.664-1.008-3.996-3.671-3.996h-1.44V22.677z"/>
		<path style="fill:#FFF8DA;" d="M183.929,26.349h-4.463V0.36h6.263c5.003,0,7.559,2.124,7.559,7.667
			c0,4.176-1.62,5.867-3.131,6.551l3.779,11.771h-4.535l-3.168-10.763c-0.576,0.072-1.512,0.108-2.304,0.108V26.349z
			 M183.929,12.022h1.584c2.412,0,3.312-0.9,3.312-3.996s-0.9-3.996-3.312-3.996h-1.584V12.022z"/>
		<path style="fill:#FFF8DA;" d="M198.258,26.349V0.36h4.463v25.989H198.258z"/>
		<path style="fill:#FFF8DA;" d="M207.618,26.349V0.36h4.463v22.101h7.019v3.888H207.618z"/>
		<path style="fill:#FFF8DA;" d="M221.802,26.349V0.36h4.463v22.101h7.019v3.888H221.802z"/>
		<path style="fill:#FFF8DA;" d="M236.813,26.349V0.36h4.463v25.989H236.813z"/>
		<path style="fill:#FFF8DA;" d="M248.981,26.349h-4.319l4.787-25.989h5.543l4.788,25.989h-4.32l-0.792-5.759h-4.895L248.981,26.349
			z M250.421,16.702h3.599l-1.764-11.158h-0.072L250.421,16.702z"/>
		<path style="fill:#FFF8DA;" d="M262.553,26.349V0.36h4.14l5.435,14.866h0.072V0.36h4.031v25.989h-3.887l-5.688-16.234h-0.072
			v16.234H262.553z"/>
		<path style="fill:#FFF8DA;" d="M283.324,4.248h-4.319V0.36h13.102v3.888h-4.319v22.101h-4.463V4.248z"/>
		<path style="fill:#FFFFFF;" d="M68.811,46.349H66.89l2.129-11.557h2.465l2.128,11.557h-1.92l-0.352-2.561h-2.177L68.811,46.349z
			 M69.451,42.059h1.601l-0.785-4.962h-0.032L69.451,42.059z"/>
		<path style="fill:#FFFFFF;" d="M74.923,46.349V34.792h1.841l2.417,6.611h0.032v-6.611h1.793v11.557h-1.729l-2.529-7.219h-0.032
			v7.219H74.923z"/>
		<path style="fill:#FFFFFF;" d="M83.083,34.792h2.945c2.049,0,3.137,1.121,3.137,3.489v4.578c0,2.369-1.088,3.489-3.137,3.489
			h-2.945V34.792z M85.068,44.716h0.688c1.057,0,1.425-0.4,1.425-1.617v-5.058c0-1.217-0.368-1.617-1.425-1.617h-0.688V44.716z"/>
		<path style="fill:#FFFFFF;" d="M94.955,34.792H97.9c2.129,0,3.073,1.088,3.073,3.057c0,0.993-0.417,2.033-1.377,2.417
			c1.009,0.448,1.601,1.249,1.601,2.737c0,1.905-0.849,3.345-3.105,3.345h-3.137V34.792z M96.94,39.53h0.72
			c0.752,0,1.329-0.512,1.329-1.473c0-1.072-0.417-1.632-1.297-1.632H96.94V39.53z M96.94,44.716h0.832
			c1.057,0,1.441-0.608,1.441-1.776c0-1.185-0.448-1.777-1.633-1.777h-0.64V44.716z"/>
		<path style="fill:#FFFFFF;" d="M105.099,46.349h-1.985V34.792h2.785c2.225,0,3.361,0.944,3.361,3.409
			c0,1.857-0.72,2.609-1.393,2.914l1.681,5.234h-2.017l-1.408-4.786c-0.256,0.032-0.672,0.048-1.024,0.048V46.349z M105.099,39.978
			h0.704c1.072,0,1.473-0.4,1.473-1.777c0-1.376-0.4-1.776-1.473-1.776h-0.704V39.978z"/>
		<path style="fill:#FFFFFF;" d="M111.547,46.349V34.792h1.985v11.557H111.547z"/>
		<path style="fill:#FFFFFF;" d="M115.787,46.349V34.792h1.985v9.828h3.121v1.729H115.787z"/>
		<path style="fill:#FFFFFF;" d="M122.17,46.349V34.792h1.985v9.828h3.121v1.729H122.17z"/>
		<path style="fill:#FFFFFF;" d="M128.922,46.349V34.792h1.985v11.557H128.922z"/>
		<path style="fill:#FFFFFF;" d="M134.411,46.349h-1.921l2.129-11.557h2.465l2.128,11.557h-1.92l-0.352-2.561h-2.177L134.411,46.349
			z M135.051,42.059h1.601l-0.785-4.962h-0.032L135.051,42.059z"/>
		<path style="fill:#FFFFFF;" d="M140.522,46.349V34.792h1.841l2.417,6.611h0.032v-6.611h1.793v11.557h-1.729l-2.529-7.219h-0.032
			v7.219H140.522z"/>
		<path style="fill:#FFFFFF;" d="M149.834,36.521h-1.921v-1.729h5.827v1.729h-1.921v9.828h-1.985V36.521z"/>
		<path style="fill:#FFFFFF;" d="M154.969,46.349V34.792h1.985v9.828h3.121v1.729H154.969z"/>
		<path style="fill:#FFFFFF;" d="M165.035,46.349h-1.985v-4.802l-2.401-6.755h2.017l1.393,4.402h0.032l1.329-4.402h2.017
			l-2.401,6.755V46.349z"/>
		<path style="fill:#FFFFFF;" d="M172.425,34.792h2.945c2.129,0,3.073,1.088,3.073,3.057c0,0.993-0.417,2.033-1.377,2.417
			c1.009,0.448,1.601,1.249,1.601,2.737c0,1.905-0.849,3.345-3.105,3.345h-3.137V34.792z M174.409,39.53h0.72
			c0.752,0,1.329-0.512,1.329-1.473c0-1.072-0.417-1.632-1.297-1.632h-0.752V39.53z M174.409,44.716h0.832
			c1.057,0,1.441-0.608,1.441-1.776c0-1.185-0.448-1.777-1.633-1.777h-0.64V44.716z"/>
		<path style="fill:#FFFFFF;" d="M182.57,46.349h-1.985V34.792h2.785c2.225,0,3.361,0.944,3.361,3.409
			c0,1.857-0.72,2.609-1.393,2.914l1.681,5.234h-2.017l-1.409-4.786c-0.256,0.032-0.672,0.048-1.024,0.048V46.349z M182.57,39.978
			h0.704c1.072,0,1.473-0.4,1.473-1.777c0-1.376-0.4-1.776-1.473-1.776h-0.704V39.978z"/>
		<path style="fill:#FFFFFF;" d="M188.744,34.792h1.985v8.724c0,0.848,0.336,1.264,1.056,1.264s1.057-0.416,1.057-1.264v-8.724
			h1.985v8.644c0,1.985-1.152,3.073-3.042,3.073c-1.889,0-3.041-1.088-3.041-3.073V34.792z"/>
		<path style="fill:#FFFFFF;" d="M198.057,36.521h-1.921v-1.729h5.827v1.729h-1.921v9.828h-1.985V36.521z"/>
		<path style="fill:#FFFFFF;" d="M204.441,46.349h-1.921l2.129-11.557h2.465l2.129,11.557h-1.921l-0.352-2.561h-2.177
			L204.441,46.349z M205.081,42.059h1.601l-0.784-4.962h-0.032L205.081,42.059z"/>
		<path style="fill:#FFFFFF;" d="M210.455,46.349V34.792h1.985v9.828h3.121v1.729H210.455z"/>
		<path style="fill:#FFFFFF;" d="M219,36.681l-1.104,1.985h-0.849l0.785-1.985h-0.721v-1.889H219V36.681z M221.961,36.681
			l-1.104,1.985h-0.848l0.784-1.985h-0.72v-1.889h1.889V36.681z"/>
		<path style="fill:#FFF8DA;" d="M124.267,60.985h-1.439v-1.295h4.365v1.295h-1.439v7.364h-1.487V60.985z"/>
		<path style="fill:#FFF8DA;" d="M128.132,68.349v-8.659h1.487v3.526h1.583v-3.526h1.487v8.659h-1.487v-3.838h-1.583v3.838H128.132z
			"/>
		<path style="fill:#FFF8DA;" d="M134.192,68.349v-8.659h3.982v1.295h-2.495v2.23h1.919v1.295h-1.919v2.542h2.663v1.295H134.192z"/>
		<path style="fill:#FFF8DA;" d="M144.882,59.689h1.223l1.007,5.517h0.024l0.828-5.517h1.391l-1.523,8.659h-1.247l-1.08-5.721
			h-0.024l-1.007,5.721h-1.248l-1.643-8.659h1.391l0.912,5.517h0.024L144.882,59.689z"/>
		<path style="fill:#FFF8DA;" d="M151.854,68.349h-1.487v-8.659h2.087c1.667,0,2.519,0.708,2.519,2.555
			c0,1.391-0.54,1.955-1.043,2.183l1.259,3.922h-1.511l-1.055-3.586c-0.192,0.024-0.504,0.036-0.768,0.036V68.349z M151.854,63.575
			h0.527c0.804,0,1.104-0.3,1.104-1.331c0-1.032-0.3-1.332-1.104-1.332h-0.527V63.575z"/>
		<path style="fill:#FFF8DA;" d="M157.29,68.349h-1.439l1.595-8.659h1.847l1.595,8.659h-1.439l-0.264-1.919h-1.631L157.29,68.349z
			 M157.77,65.134h1.199l-0.588-3.718h-0.024L157.77,65.134z"/>
		<path style="fill:#FFF8DA;" d="M161.815,68.349v-8.659h2.135c1.835,0,2.687,0.708,2.687,2.555c0,1.847-0.852,2.555-2.687,2.555
			h-0.648v3.55H161.815z M163.302,63.575h0.576c0.971,0,1.271-0.3,1.271-1.331c0-1.032-0.3-1.332-1.271-1.332h-0.576V63.575z"/>
	</g>
</g>
<g id="nyt_x5F_exporter_x5F_info" style="display:none;">
</g>
</svg>
