<?xml version="1.0" encoding="iso-8859-1"?>
<!-- Generator: Adobe Illustrator 17.1.0, SVG Export Plug-In . SVG Version: 6.00 Build 0)  -->
<!DOCTYPE svg PUBLIC "-//W3C//DTD SVG 1.1//EN" "http://www.w3.org/Graphics/SVG/1.1/DTD/svg11.dtd">
<svg version="1.1" xmlns="http://www.w3.org/2000/svg" xmlns:xlink="http://www.w3.org/1999/xlink" x="0px" y="0px"
	 viewBox="0 0 300 187.812" style="enable-background:new 0 0 300 187.812;" xml:space="preserve">
<g id="Layer_1">
	<g>
		<path style="fill:#FFF8DA;" d="M12.484,10.994l2.484-4.463h1.908l-1.764,4.463h1.62v4.248h-4.248V10.994z M19.143,10.994
			l2.484-4.463h1.908l-1.764,4.463h1.62v4.248h-4.248V10.994z"/>
		<path style="fill:#FFF8DA;" d="M30.879,32.88H26.56l4.787-25.989h5.543l4.787,25.989h-4.319l-0.792-5.759h-4.895L30.879,32.88z
			 M32.319,23.233h3.6l-1.764-11.158h-0.072L32.319,23.233z"/>
		<path style="fill:#FFF8DA;" d="M70.512,6.891V32.88h-3.887V12.578h-0.072L62.521,32.88h-2.16L56.33,12.578h-0.072V32.88H52.37
			V6.891h5.867l3.167,15.19h0.072l3.167-15.19H70.512z"/>
		<path style="fill:#FFF8DA;" d="M74.798,13.19c0-3.671,2.16-6.659,6.839-6.659c4.679,0,6.839,2.988,6.839,6.659v13.39
			c0,3.672-2.16,6.659-6.839,6.659c-4.68,0-6.839-2.987-6.839-6.659V13.19z M79.261,26.473c0,1.944,0.576,2.88,2.376,2.88
			s2.375-0.936,2.375-2.88V13.298c0-1.944-0.576-2.879-2.375-2.879s-2.376,0.936-2.376,2.879V26.473z"/>
		<path style="fill:#FFF8DA;" d="M101.113,13.298c-0.18-2.232-1.368-2.879-2.376-2.879c-1.44,0-2.231,0.936-2.231,2.556
			c0,4.427,9.071,6.551,9.071,13.606c0,4.284-2.88,6.659-7.055,6.659c-4.14,0-6.515-3.312-6.695-7.199l4.248-0.612
			c0.18,2.628,1.224,3.924,2.664,3.924c1.548,0,2.592-0.828,2.592-2.376c0-5.147-9.071-6.515-9.071-13.966
			c0-4.139,2.52-6.479,6.911-6.479c3.635,0,5.795,2.627,6.191,6.299L101.113,13.298z"/>
		<path style="fill:#FFF8DA;" d="M111.733,10.779h-4.319V6.891h13.102v3.888h-4.319V32.88h-4.463V10.779z"/>
		<path style="fill:#FFF8DA;" d="M132.109,32.88V6.891h4.463V32.88H132.109z"/>
		<path style="fill:#FFF8DA;" d="M159.574,6.891V32.88h-3.887V12.578h-0.072l-4.031,20.301h-2.16l-4.032-20.301h-0.072V32.88h-3.888
			V6.891h5.867l3.167,15.19h0.072l3.167-15.19H159.574z"/>
		<path style="fill:#FFF8DA;" d="M163.86,32.88V6.891h6.407c5.507,0,8.063,2.124,8.063,7.667s-2.556,7.667-8.063,7.667h-1.944V32.88
			H163.86z M168.323,18.554h1.728c2.916,0,3.815-0.9,3.815-3.996s-0.9-3.996-3.815-3.996h-1.728V18.554z"/>
		<path style="fill:#FFF8DA;" d="M186.504,32.88h-4.463V6.891h6.263c5.003,0,7.559,2.124,7.559,7.667
			c0,4.176-1.62,5.867-3.131,6.551l3.779,11.771h-4.535l-3.168-10.763c-0.576,0.072-1.512,0.108-2.304,0.108V32.88z M186.504,18.554
			h1.584c2.412,0,3.312-0.9,3.312-3.996s-0.9-3.996-3.312-3.996h-1.584V18.554z"/>
		<path style="fill:#FFF8DA;" d="M200.22,32.88V6.891h11.951v3.888h-7.487v6.695h5.759v3.888h-5.759v7.631h7.991v3.888H200.22z"/>
		<path style="fill:#FFF8DA;" d="M224.519,13.298c-0.18-2.232-1.368-2.879-2.376-2.879c-1.44,0-2.231,0.936-2.231,2.556
			c0,4.427,9.071,6.551,9.071,13.606c0,4.284-2.88,6.659-7.055,6.659c-4.14,0-6.515-3.312-6.695-7.199l4.248-0.612
			c0.18,2.628,1.224,3.924,2.664,3.924c1.548,0,2.592-0.828,2.592-2.376c0-5.147-9.071-6.515-9.071-13.966
			c0-4.139,2.52-6.479,6.911-6.479c3.635,0,5.795,2.627,6.191,6.299L224.519,13.298z"/>
		<path style="fill:#FFF8DA;" d="M240.682,13.298c-0.18-2.232-1.368-2.879-2.376-2.879c-1.44,0-2.231,0.936-2.231,2.556
			c0,4.427,9.071,6.551,9.071,13.606c0,4.284-2.88,6.659-7.055,6.659c-4.14,0-6.515-3.312-6.695-7.199l4.248-0.612
			c0.18,2.628,1.224,3.924,2.664,3.924c1.548,0,2.592-0.828,2.592-2.376c0-5.147-9.071-6.515-9.071-13.966
			c0-4.139,2.52-6.479,6.911-6.479c3.635,0,5.795,2.627,6.191,6.299L240.682,13.298z"/>
		<path style="fill:#FFF8DA;" d="M249.323,32.88V6.891h4.463V32.88H249.323z"/>
		<path style="fill:#FFF8DA;" d="M268.005,6.891h4.392l-5.436,25.989h-4.463l-5.436-25.989h4.392l3.24,18.034h0.072L268.005,6.891z"
			/>
		<path style="fill:#FFF8DA;" d="M275.062,32.88V6.891h11.951v3.888h-7.487v6.695h5.759v3.888h-5.759v7.631h7.991v3.888H275.062z"/>
		<path style="fill:#FFF8DA;" d="M90.98,66.88V40.891h6.407c5.507,0,8.063,2.124,8.063,7.667s-2.556,7.667-8.063,7.667h-1.944V66.88
			H90.98z M95.443,52.554h1.728c2.916,0,3.815-0.9,3.815-3.996s-0.9-3.996-3.815-3.996h-1.728V52.554z"/>
		<path style="fill:#FFF8DA;" d="M109.772,66.88V40.891h4.463V66.88H109.772z"/>
		<path style="fill:#FFF8DA;" d="M119.347,66.88V40.891h11.951v3.888h-7.487v6.695h5.759v3.888h-5.759v7.631h7.991v3.888H119.347z"
			/>
		<path style="fill:#FFF8DA;" d="M144.51,49.566V47.55c0-2.196-1.008-3.131-2.16-3.131c-1.8,0-2.376,0.936-2.376,2.879v13.174
			c0,1.944,0.576,2.88,2.376,2.88c1.62,0,2.16-0.936,2.16-2.628v-3.131h4.463v2.987c0,3.672-2.16,6.659-6.623,6.659
			c-4.68,0-6.839-2.987-6.839-6.659V47.19c0-3.671,2.16-6.659,6.839-6.659c4.463,0,6.623,3.24,6.623,7.127v1.908H144.51z"/>
		<path style="fill:#FFF8DA;" d="M153.691,66.88V40.891h11.951v3.888h-7.487v6.695h5.759v3.888h-5.759v7.631h7.991v3.888H153.691z"
			/>
		<path style="fill:#FFF8DA;" d="M178.026,47.19c0-3.671,2.16-6.659,6.839-6.659c4.679,0,6.839,2.988,6.839,6.659v13.39
			c0,3.672-2.16,6.659-6.839,6.659c-4.68,0-6.839-2.987-6.839-6.659V47.19z M182.489,60.473c0,1.944,0.576,2.88,2.376,2.88
			s2.375-0.936,2.375-2.88V47.298c0-1.944-0.576-2.879-2.375-2.879s-2.376,0.936-2.376,2.879V60.473z"/>
		<path style="fill:#FFF8DA;" d="M196.205,66.88V40.891h12.455v3.888h-7.991v6.695h5.976v3.888h-5.976V66.88H196.205z"/>
		<path style="fill:#FFF8DA;" d="M65.708,100.88V74.891h12.455v3.888h-7.991v6.695h5.976v3.888h-5.976v11.519H65.708z"/>
		<path style="fill:#FFF8DA;" d="M82.484,100.88V74.891h4.463v25.989H82.484z"/>
		<path style="fill:#FFF8DA;" d="M91.844,100.88V74.891h4.463v22.101h7.019v3.888H91.844z"/>
		<path style="fill:#FFF8DA;" d="M124.133,74.891v25.989h-3.887V80.578h-0.072l-4.031,20.301h-2.16l-4.032-20.301h-0.072v20.301
			h-3.888V74.891h5.867l3.167,15.19h0.072l3.167-15.19H124.133z"/>
		<path style="fill:#FFF8DA;" d="M146.309,74.891v25.989h-3.887V80.578h-0.072l-4.031,20.301h-2.16l-4.032-20.301h-0.072v20.301
			h-3.888V74.891h5.867l3.167,15.19h0.072l3.167-15.19H146.309z"/>
		<path style="fill:#FFF8DA;" d="M153.186,100.88h-4.319l4.787-25.989h5.543l4.788,25.989h-4.32l-0.792-5.759h-4.895L153.186,100.88
			z M154.626,91.233h3.599l-1.764-11.158h-0.072L154.626,91.233z"/>
		<path style="fill:#FFF8DA;" d="M166.542,100.88V74.891h4.463v9.611h0.072l4.68-9.611h4.463l-4.823,9.683l5.435,16.306h-4.535
			l-3.636-12.095h-0.072l-1.584,2.88v9.215H166.542z"/>
		<path style="fill:#FFF8DA;" d="M183.533,100.88V74.891h4.463v25.989H183.533z"/>
		<path style="fill:#FFF8DA;" d="M193.109,100.88V74.891h4.14l5.435,14.866h0.072V74.891h4.031v25.989H202.9l-5.688-16.234h-0.072
			v16.234H193.109z"/>
		<path style="fill:#FFF8DA;" d="M217.445,87.705h7.307v13.174h-2.16l-0.828-1.944c-1.332,1.584-2.412,2.304-4.5,2.304
			c-3.527,0-5.975-2.52-5.975-6.659V81.19c0-3.671,2.16-6.659,6.551-6.659c4.463,0,6.695,3.24,6.695,7.127v1.656h-4.248
			c0-3.887-0.792-4.895-2.556-4.895c-1.08,0-1.98,0.647-1.98,2.843v13.354c0,1.656,0.54,2.736,2.088,2.736
			c1.8,0,2.448-1.008,2.448-3.6v-2.52h-2.844V87.705z"/>
		<path style="fill:#FFF8DA;" d="M233.428,100.88l-2.483,4.463h-1.908l1.764-4.463h-1.62v-4.248h4.248V100.88z"/>
		<path style="fill:#FFFFFF;" d="M24.612,111.052h-1.921v-1.729h5.827v1.729h-1.921v9.828h-1.985V111.052z"/>
		<path style="fill:#FFFFFF;" d="M29.844,120.88v-11.557h5.314v1.729h-3.329v2.978h2.561v1.729h-2.561v3.394h3.553v1.729H29.844z"/>
		<path style="fill:#FFFFFF;" d="M37.107,120.88v-11.557h1.841l2.417,6.611h0.032v-6.611h1.793v11.557h-1.729l-2.529-7.219H38.9
			v7.219H37.107z"/>
		<path style="fill:#FFFFFF;" d="M48.885,112.172c-0.08-0.992-0.608-1.281-1.056-1.281c-0.64,0-0.993,0.417-0.993,1.137
			c0,1.969,4.034,2.913,4.034,6.05c0,1.905-1.28,2.961-3.137,2.961c-1.841,0-2.897-1.473-2.977-3.201l1.889-0.272
			c0.08,1.168,0.544,1.745,1.185,1.745c0.688,0,1.152-0.368,1.152-1.056c0-2.289-4.034-2.897-4.034-6.21
			c0-1.841,1.121-2.881,3.073-2.881c1.617,0,2.577,1.168,2.753,2.801L48.885,112.172z"/>
		<path style="fill:#FFFFFF;" d="M52.531,120.88v-11.557h5.314v1.729h-3.329v2.978h2.561v1.729h-2.561v3.394h3.553v1.729H52.531z"/>
		<path style="fill:#FFFFFF;" d="M64.658,120.88h-1.921l2.129-11.557h2.465l2.129,11.557H67.54l-0.352-2.561H65.01L64.658,120.88z
			 M65.299,116.59h1.601l-0.784-4.962h-0.032L65.299,116.59z"/>
		<path style="fill:#FFFFFF;" d="M70.77,120.88v-11.557h1.841l2.417,6.611h0.032v-6.611h1.793v11.557h-1.729l-2.529-7.219h-0.032
			v7.219H70.77z"/>
		<path style="fill:#FFFFFF;" d="M78.929,109.323h2.945c2.049,0,3.137,1.121,3.137,3.489v4.578c0,2.369-1.088,3.489-3.137,3.489
			h-2.945V109.323z M80.914,119.247h0.688c1.057,0,1.425-0.4,1.425-1.617v-5.058c0-1.217-0.368-1.617-1.425-1.617h-0.688V119.247z"
			/>
		<path style="fill:#FFFFFF;" d="M90.802,109.323h1.985v8.724c0,0.848,0.336,1.264,1.056,1.264s1.057-0.416,1.057-1.264v-8.724
			h1.985v8.644c0,1.985-1.153,3.073-3.042,3.073s-3.041-1.088-3.041-3.073V109.323z"/>
		<path style="fill:#FFFFFF;" d="M98.961,120.88v-11.557h1.841l2.417,6.611h0.032v-6.611h1.793v11.557h-1.729l-2.529-7.219h-0.032
			v7.219H98.961z"/>
		<path style="fill:#FFFFFF;" d="M109.106,120.88h-1.985v-11.557h2.785c2.225,0,3.361,0.944,3.361,3.409
			c0,1.857-0.72,2.609-1.393,2.914l1.681,5.234h-2.017l-1.408-4.786c-0.256,0.032-0.672,0.048-1.024,0.048V120.88z M109.106,114.509
			h0.704c1.072,0,1.473-0.4,1.473-1.777c0-1.376-0.4-1.776-1.473-1.776h-0.704V114.509z"/>
		<path style="fill:#FFFFFF;" d="M115.281,120.88v-11.557h5.314v1.729h-3.329v2.978h2.561v1.729h-2.561v3.394h3.553v1.729H115.281z"
			/>
		<path style="fill:#FFFFFF;" d="M122.449,120.88v-11.557h1.985v9.828h3.121v1.729H122.449z"/>
		<path style="fill:#FFFFFF;" d="M128.928,120.88v-11.557h5.314v1.729h-3.329v2.978h2.561v1.729h-2.561v3.394h3.553v1.729H128.928z"
			/>
		<path style="fill:#FFFFFF;" d="M136.192,120.88v-11.557h1.841l2.417,6.611h0.032v-6.611h1.793v11.557h-1.729l-2.529-7.219h-0.032
			v7.219H136.192z"/>
		<path style="fill:#FFFFFF;" d="M145.505,111.052h-1.921v-1.729h5.827v1.729h-1.921v9.828h-1.985V111.052z"/>
		<path style="fill:#FFFFFF;" d="M151.008,120.88v-11.557h1.985v11.557H151.008z"/>
		<path style="fill:#FFFFFF;" d="M155.344,120.88v-11.557h1.841l2.417,6.611h0.032v-6.611h1.793v11.557h-1.729l-2.529-7.219h-0.032
			v7.219H155.344z"/>
		<path style="fill:#FFFFFF;" d="M166.241,115.021h3.25v5.858h-0.96l-0.368-0.864c-0.592,0.704-1.072,1.024-2,1.024
			c-1.569,0-2.657-1.121-2.657-2.961v-5.954c0-1.633,0.96-2.961,2.913-2.961c1.985,0,2.977,1.44,2.977,3.169v0.736h-1.889
			c0-1.729-0.352-2.177-1.136-2.177c-0.48,0-0.88,0.289-0.88,1.265v5.938c0,0.736,0.24,1.216,0.928,1.216
			c0.8,0,1.088-0.448,1.088-1.601v-1.12h-1.265V115.021z"/>
		<path style="fill:#FFFFFF;" d="M173.425,120.88l-1.104,1.985h-0.849l0.785-1.985h-0.72v-1.889h1.889V120.88z"/>
		<path style="fill:#FFFFFF;" d="M180.24,111.052h-1.921v-1.729h5.827v1.729h-1.921v9.828h-1.985V111.052z"/>
		<path style="fill:#FFFFFF;" d="M185.471,120.88v-11.557h1.985v4.706h2.113v-4.706h1.985v11.557h-1.985v-5.122h-2.113v5.122
			H185.471z"/>
		<path style="fill:#FFFFFF;" d="M194.783,120.88h-1.921l2.129-11.557h2.465l2.129,11.557h-1.921l-0.352-2.561h-2.177
			L194.783,120.88z M195.424,116.59h1.601l-0.784-4.962h-0.032L195.424,116.59z"/>
		<path style="fill:#FFFFFF;" d="M202.047,111.052h-1.921v-1.729h5.827v1.729h-1.921v9.828h-1.985V111.052z"/>
		<path style="fill:#FFFFFF;" d="M214.991,113.181v-0.896c0-0.976-0.448-1.393-0.96-1.393c-0.8,0-1.056,0.417-1.056,1.281v5.858
			c0,0.864,0.256,1.28,1.056,1.28c0.72,0,0.96-0.416,0.96-1.168v-1.393h1.985v1.329c0,1.633-0.96,2.961-2.945,2.961
			c-2.081,0-3.041-1.329-3.041-2.961v-5.954c0-1.633,0.96-2.961,3.041-2.961c1.985,0,2.945,1.44,2.945,3.169v0.848H214.991z"/>
		<path style="fill:#FFFFFF;" d="M219.15,120.88v-11.557h1.985v4.706h2.113v-4.706h1.985v11.557h-1.985v-5.122h-2.113v5.122H219.15z
			"/>
		<path style="fill:#FFFFFF;" d="M227.582,120.88v-11.557h1.985v11.557H227.582z"/>
		<path style="fill:#FFFFFF;" d="M231.822,120.88v-11.557h1.985v9.828h3.121v1.729H231.822z"/>
		<path style="fill:#FFFFFF;" d="M238.206,120.88v-11.557h1.985v9.828h3.121v1.729H238.206z"/>
		<path style="fill:#FFFFFF;" d="M248.302,112.172c-0.08-0.992-0.608-1.281-1.056-1.281c-0.64,0-0.993,0.417-0.993,1.137
			c0,1.969,4.034,2.913,4.034,6.05c0,1.905-1.28,2.961-3.137,2.961c-1.841,0-2.897-1.473-2.977-3.201l1.889-0.272
			c0.08,1.168,0.544,1.745,1.185,1.745c0.688,0,1.152-0.368,1.152-1.056c0-2.289-4.034-2.897-4.034-6.21
			c0-1.841,1.121-2.881,3.073-2.881c1.617,0,2.577,1.168,2.753,2.801L248.302,112.172z"/>
		<path style="fill:#FFFFFF;" d="M256.813,111.052h-1.921v-1.729h5.827v1.729h-1.921v9.828h-1.985V111.052z"/>
		<path style="fill:#FFFFFF;" d="M262.044,120.88v-11.557h1.985v4.706h2.113v-4.706h1.985v11.557h-1.985v-5.122h-2.113v5.122
			H262.044z"/>
		<path style="fill:#FFFFFF;" d="M270.204,120.88v-11.557h5.314v1.729h-3.329v2.978h2.561v1.729h-2.561v3.394h3.553v1.729H270.204z"
			/>
		<path style="fill:#FFFFFF;" d="M62.196,129.323h2.945c2.129,0,3.073,1.088,3.073,3.057c0,0.993-0.417,2.033-1.377,2.417
			c1.009,0.448,1.601,1.249,1.601,2.737c0,1.905-0.849,3.345-3.105,3.345h-3.137V129.323z M64.18,134.061h0.72
			c0.752,0,1.329-0.512,1.329-1.473c0-1.072-0.417-1.632-1.297-1.632H64.18V134.061z M64.18,139.247h0.832
			c1.057,0,1.441-0.608,1.441-1.776c0-1.185-0.448-1.777-1.633-1.777h-0.64V139.247z"/>
		<path style="fill:#FFFFFF;" d="M70.26,140.88v-11.557h1.985v9.828h3.121v1.729H70.26z"/>
		<path style="fill:#FFFFFF;" d="M76.739,132.124c0-1.633,0.96-2.961,3.041-2.961c2.081,0,3.042,1.329,3.042,2.961v5.954
			c0,1.633-0.96,2.961-3.042,2.961c-2.081,0-3.041-1.329-3.041-2.961V132.124z M78.724,138.031c0,0.864,0.256,1.28,1.056,1.28
			s1.057-0.416,1.057-1.28v-5.858c0-0.864-0.256-1.281-1.057-1.281s-1.056,0.417-1.056,1.281V138.031z"/>
		<path style="fill:#FFFFFF;" d="M84.899,132.124c0-1.633,0.96-2.961,3.041-2.961c2.081,0,3.042,1.329,3.042,2.961v5.954
			c0,1.633-0.96,2.961-3.042,2.961c-2.081,0-3.041-1.329-3.041-2.961V132.124z M86.884,138.031c0,0.864,0.256,1.28,1.056,1.28
			s1.057-0.416,1.057-1.28v-5.858c0-0.864-0.256-1.281-1.057-1.281s-1.056,0.417-1.056,1.281V138.031z"/>
		<path style="fill:#FFFFFF;" d="M93.059,129.323h2.945c2.049,0,3.137,1.121,3.137,3.489v4.578c0,2.369-1.088,3.489-3.137,3.489
			h-2.945V129.323z M95.044,139.247h0.688c1.057,0,1.425-0.4,1.425-1.617v-5.058c0-1.217-0.368-1.617-1.425-1.617h-0.688V139.247z"
			/>
		<path style="fill:#FFFFFF;" d="M106.083,140.88h-1.921l2.129-11.557h2.465l2.129,11.557h-1.921l-0.352-2.561h-2.177
			L106.083,140.88z M106.723,136.59h1.601l-0.784-4.962h-0.032L106.723,136.59z"/>
		<path style="fill:#FFFFFF;" d="M115.812,132.172c-0.08-0.992-0.608-1.281-1.056-1.281c-0.64,0-0.993,0.417-0.993,1.137
			c0,1.969,4.034,2.913,4.034,6.05c0,1.905-1.28,2.961-3.137,2.961c-1.841,0-2.897-1.473-2.977-3.201l1.889-0.272
			c0.08,1.168,0.544,1.745,1.185,1.745c0.688,0,1.152-0.368,1.152-1.056c0-2.289-4.034-2.897-4.034-6.21
			c0-1.841,1.121-2.881,3.073-2.881c1.617,0,2.577,1.168,2.753,2.801L115.812,132.172z"/>
		<path style="fill:#FFFFFF;" d="M126.611,129.323h1.633l1.344,7.363h0.032l1.104-7.363h1.856l-2.033,11.557h-1.665l-1.441-7.635
			h-0.032l-1.345,7.635h-1.665l-2.193-11.557h1.857l1.216,7.363h0.032L126.611,129.323z"/>
		<path style="fill:#FFFFFF;" d="M134.002,140.88v-11.557h5.314v1.729h-3.329v2.978h2.561v1.729h-2.561v3.394h3.553v1.729H134.002z"
			/>
		<path style="fill:#FFFFFF;" d="M141.169,140.88v-11.557h1.985v9.828h3.121v1.729H141.169z"/>
		<path style="fill:#FFFFFF;" d="M147.552,140.88v-11.557h1.985v9.828h3.121v1.729H147.552z"/>
		<path style="fill:#FFFFFF;" d="M158.897,140.88h-1.921l2.129-11.557h2.465l2.129,11.557h-1.921l-0.352-2.561h-2.177
			L158.897,140.88z M159.537,136.59h1.601l-0.784-4.962h-0.032L159.537,136.59z"/>
		<path style="fill:#FFFFFF;" d="M168.625,132.172c-0.08-0.992-0.608-1.281-1.056-1.281c-0.64,0-0.993,0.417-0.993,1.137
			c0,1.969,4.034,2.913,4.034,6.05c0,1.905-1.28,2.961-3.137,2.961c-1.841,0-2.897-1.473-2.977-3.201l1.889-0.272
			c0.08,1.168,0.544,1.745,1.185,1.745c0.688,0,1.152-0.368,1.152-1.056c0-2.289-4.034-2.897-4.034-6.21
			c0-1.841,1.121-2.881,3.073-2.881c1.617,0,2.577,1.168,2.753,2.801L168.625,132.172z"/>
		<path style="fill:#FFFFFF;" d="M177.135,131.052h-1.921v-1.729h5.827v1.729h-1.921v9.828h-1.985V131.052z"/>
		<path style="fill:#FFFFFF;" d="M182.366,140.88v-11.557h1.985v4.706h2.113v-4.706h1.985v11.557h-1.985v-5.122h-2.113v5.122
			H182.366z"/>
		<path style="fill:#FFFFFF;" d="M190.527,140.88v-11.557h5.314v1.729h-3.329v2.978h2.561v1.729h-2.561v3.394h3.553v1.729H190.527z"
			/>
		<path style="fill:#FFFFFF;" d="M205.119,132.172c-0.08-0.992-0.608-1.281-1.056-1.281c-0.64,0-0.993,0.417-0.993,1.137
			c0,1.969,4.034,2.913,4.034,6.05c0,1.905-1.28,2.961-3.137,2.961c-1.841,0-2.897-1.473-2.977-3.201l1.889-0.272
			c0.08,1.168,0.544,1.745,1.185,1.745c0.688,0,1.152-0.368,1.152-1.056c0-2.289-4.034-2.897-4.034-6.21
			c0-1.841,1.121-2.881,3.073-2.881c1.617,0,2.577,1.168,2.753,2.801L205.119,132.172z"/>
		<path style="fill:#FFFFFF;" d="M208.765,132.124c0-1.633,0.96-2.961,3.041-2.961c2.081,0,3.042,1.329,3.042,2.961v5.954
			c0,1.633-0.96,2.961-3.042,2.961c-2.081,0-3.041-1.329-3.041-2.961V132.124z M210.75,138.031c0,0.864,0.256,1.28,1.056,1.28
			s1.057-0.416,1.057-1.28v-5.858c0-0.864-0.256-1.281-1.057-1.281s-1.056,0.417-1.056,1.281V138.031z"/>
		<path style="fill:#FFFFFF;" d="M216.926,129.323h1.985v8.724c0,0.848,0.336,1.264,1.056,1.264s1.057-0.416,1.057-1.264v-8.724
			h1.985v8.644c0,1.985-1.153,3.073-3.042,3.073s-3.041-1.088-3.041-3.073V129.323z"/>
		<path style="fill:#FFFFFF;" d="M224.989,140.88v-11.557h1.985v9.828h3.121v1.729H224.989z"/>
		<path style="fill:#FFFFFF;" d="M233.534,131.212l-1.104,1.985h-0.849l0.785-1.985h-0.721v-1.889h1.889V131.212z M236.495,131.212
			l-1.104,1.985h-0.848l0.784-1.985h-0.72v-1.889h1.889V131.212z"/>
		<path style="fill:#FFF8DA;" d="M106.946,162.88v-8.659h1.487v7.364h2.339v1.295H106.946z"/>
		<path style="fill:#FFF8DA;" d="M111.746,156.319c0-1.223,0.72-2.219,2.279-2.219s2.279,0.996,2.279,2.219v4.462
			c0,1.223-0.72,2.219-2.279,2.219s-2.279-0.996-2.279-2.219V156.319z M113.233,160.745c0,0.647,0.191,0.959,0.792,0.959
			c0.6,0,0.792-0.312,0.792-0.959v-4.39c0-0.647-0.192-0.959-0.792-0.959c-0.6,0-0.792,0.312-0.792,0.959V160.745z"/>
		<path style="fill:#FFF8DA;" d="M120.516,156.355c-0.06-0.744-0.456-0.959-0.792-0.959c-0.48,0-0.744,0.312-0.744,0.852
			c0,1.475,3.022,2.183,3.022,4.534c0,1.427-0.959,2.219-2.351,2.219c-1.379,0-2.17-1.104-2.23-2.399l1.415-0.204
			c0.06,0.875,0.408,1.307,0.888,1.307c0.516,0,0.863-0.276,0.863-0.792c0-1.715-3.022-2.171-3.022-4.653
			c0-1.379,0.839-2.159,2.303-2.159c1.211,0,1.931,0.875,2.062,2.099L120.516,156.355z"/>
		<path style="fill:#FFF8DA;" d="M126.781,162.88h-1.439l1.595-8.659h1.847l1.595,8.659h-1.439l-0.264-1.919h-1.631L126.781,162.88z
			 M127.261,159.665h1.199l-0.588-3.718h-0.024L127.261,159.665z"/>
		<path style="fill:#FFF8DA;" d="M131.305,162.88v-8.659h1.379l1.811,4.953h0.024v-4.953h1.343v8.659h-1.295l-1.895-5.409h-0.024
			v5.409H131.305z"/>
		<path style="fill:#FFF8DA;" d="M139.416,158.49h2.435v4.39h-0.72l-0.276-0.647c-0.443,0.527-0.803,0.768-1.499,0.768
			c-1.175,0-1.991-0.84-1.991-2.219v-4.462c0-1.223,0.72-2.219,2.183-2.219c1.487,0,2.231,1.08,2.231,2.375v0.552h-1.416
			c0-1.295-0.264-1.631-0.852-1.631c-0.359,0-0.659,0.216-0.659,0.947v4.45c0,0.552,0.18,0.912,0.695,0.912
			c0.6,0,0.815-0.336,0.815-1.199v-0.84h-0.947V158.49z"/>
		<path style="fill:#FFF8DA;" d="M143.425,162.88v-8.659h3.982v1.295h-2.495v2.23h1.919v1.295h-1.919v2.542h2.663v1.295H143.425z"/>
		<path style="fill:#FFF8DA;" d="M148.74,162.88v-8.659h1.487v7.364h2.339v1.295H148.74z"/>
		<path style="fill:#FFF8DA;" d="M153.541,162.88v-8.659h3.981v1.295h-2.494v2.23h1.919v1.295h-1.919v2.542h2.662v1.295H153.541z"/>
		<path style="fill:#FFF8DA;" d="M161.639,156.355c-0.06-0.744-0.456-0.959-0.792-0.959c-0.48,0-0.744,0.312-0.744,0.852
			c0,1.475,3.022,2.183,3.022,4.534c0,1.427-0.959,2.219-2.351,2.219c-1.379,0-2.17-1.104-2.23-2.399l1.415-0.204
			c0.06,0.875,0.408,1.307,0.888,1.307c0.516,0,0.863-0.276,0.863-0.792c0-1.715-3.022-2.171-3.022-4.653
			c0-1.379,0.84-2.159,2.303-2.159c1.211,0,1.931,0.875,2.063,2.099L161.639,156.355z"/>
		<path style="fill:#FFF8DA;" d="M167.904,155.516h-1.439v-1.295h4.365v1.295h-1.439v7.364h-1.487V155.516z"/>
		<path style="fill:#FFF8DA;" d="M171.971,162.88v-8.659h1.487v8.659H171.971z"/>
		<path style="fill:#FFF8DA;" d="M181.124,154.221v8.659h-1.295v-6.764h-0.024l-1.343,6.764h-0.719l-1.343-6.764h-0.024v6.764
			h-1.295v-8.659h1.955l1.055,5.061h0.024l1.056-5.061H181.124z"/>
		<path style="fill:#FFF8DA;" d="M182.556,162.88v-8.659h3.982v1.295h-2.495v2.23h1.919v1.295h-1.919v2.542h2.663v1.295H182.556z"/>
		<path style="fill:#FFF8DA;" d="M190.654,156.355c-0.06-0.744-0.456-0.959-0.792-0.959c-0.48,0-0.744,0.312-0.744,0.852
			c0,1.475,3.022,2.183,3.022,4.534c0,1.427-0.959,2.219-2.351,2.219c-1.379,0-2.17-1.104-2.23-2.399l1.415-0.204
			c0.06,0.875,0.408,1.307,0.888,1.307c0.516,0,0.863-0.276,0.863-0.792c0-1.715-3.022-2.171-3.022-4.653
			c0-1.379,0.839-2.159,2.303-2.159c1.211,0,1.931,0.875,2.062,2.099L190.654,156.355z"/>
	</g>
</g>
<g id="nyt_x5F_exporter_x5F_info" style="display:none;">
</g>
</svg>
