<?xml version="1.0" encoding="iso-8859-1"?>
<!-- Generator: Adobe Illustrator 17.1.0, SVG Export Plug-In . SVG Version: 6.00 Build 0)  -->
<!DOCTYPE svg PUBLIC "-//W3C//DTD SVG 1.1//EN" "http://www.w3.org/Graphics/SVG/1.1/DTD/svg11.dtd">
<svg version="1.1" xmlns="http://www.w3.org/2000/svg" xmlns:xlink="http://www.w3.org/1999/xlink" x="0px" y="0px"
	 viewBox="0 0 300 163.012" style="enable-background:new 0 0 300 163.012;" xml:space="preserve">
<g id="Layer_1">
	<g>
		<path style="fill:#FFF8DA;" d="M80.845,4.463L83.329,0h1.908l-1.764,4.463h1.62v4.248h-4.248V4.463z M87.505,4.463L89.989,0h1.908
			l-1.764,4.463h1.62v4.248h-4.248V4.463z"/>
		<path style="fill:#FFF8DA;" d="M99.241,26.349h-4.319L99.709,0.36h5.543l4.787,25.989h-4.319l-0.792-5.759h-4.895L99.241,26.349z
			 M100.681,16.702h3.6l-1.764-11.158h-0.072L100.681,16.702z"/>
		<path style="fill:#FFF8DA;" d="M129.983,9.035V7.019c0-2.196-1.008-3.131-2.16-3.131c-1.8,0-2.376,0.936-2.376,2.879v13.174
			c0,1.944,0.576,2.88,2.376,2.88c1.62,0,2.16-0.936,2.16-2.628v-3.131h4.463v2.987c0,3.672-2.16,6.659-6.623,6.659
			c-4.68,0-6.839-2.987-6.839-6.659V6.659c0-3.671,2.16-6.659,6.839-6.659c4.463,0,6.623,3.24,6.623,7.127v1.908H129.983z"/>
		<path style="fill:#FFF8DA;" d="M141.756,26.349h-4.319l4.787-25.989h5.543l4.788,25.989h-4.32l-0.792-5.759h-4.895L141.756,26.349
			z M143.196,16.702h3.599l-1.764-11.158h-0.072L143.196,16.702z"/>
		<path style="fill:#FFF8DA;" d="M159.791,26.349h-4.463V0.36h6.263c5.003,0,7.559,2.124,7.559,7.667
			c0,4.176-1.62,5.867-3.131,6.551l3.779,11.771h-4.536l-3.167-10.763c-0.576,0.072-1.512,0.108-2.304,0.108V26.349z
			 M159.791,12.022h1.584c2.412,0,3.312-0.9,3.312-3.996s-0.9-3.996-3.312-3.996h-1.584V12.022z"/>
		<path style="fill:#FFF8DA;" d="M173.508,26.349V0.36h11.951v3.888h-7.487v6.695h5.759v3.888h-5.759v7.631h7.991v3.888H173.508z"/>
		<path style="fill:#FFF8DA;" d="M189.671,26.349V0.36h11.951v3.888h-7.487v6.695h5.759v3.888h-5.759v7.631h7.991v3.888H189.671z"/>
		<path style="fill:#FFF8DA;" d="M210.298,26.349h-4.463V0.36h6.263c5.003,0,7.559,2.124,7.559,7.667
			c0,4.176-1.62,5.867-3.131,6.551l3.779,11.771h-4.536l-3.167-10.763c-0.576,0.072-1.512,0.108-2.304,0.108V26.349z
			 M210.298,12.022h1.584c2.412,0,3.312-0.9,3.312-3.996s-0.9-3.996-3.312-3.996h-1.584V12.022z"/>
		<path style="fill:#FFF8DA;" d="M76.83,60.349h-4.463V34.36h6.263c5.003,0,7.559,2.124,7.559,7.667c0,4.176-1.62,5.867-3.131,6.551
			l3.779,11.771h-4.535l-3.168-10.763c-0.576,0.072-1.512,0.108-2.304,0.108V60.349z M76.83,46.022h1.584
			c2.412,0,3.312-0.9,3.312-3.996s-0.9-3.996-3.312-3.996H76.83V46.022z"/>
		<path style="fill:#FFF8DA;" d="M90.547,60.349V34.36h11.951v3.888H95.01v6.695h5.759v3.888H95.01v7.631h7.991v3.888H90.547z"/>
		<path style="fill:#FFF8DA;" d="M106.71,34.36h6.623c4.607,0,7.055,2.52,7.055,7.847v10.294c0,5.328-2.448,7.847-7.055,7.847
			h-6.623V34.36z M111.174,56.677h1.548c2.376,0,3.204-0.9,3.204-3.636V41.667c0-2.736-0.828-3.636-3.204-3.636h-1.548V56.677z"/>
		<path style="fill:#FFF8DA;" d="M124.89,60.349V34.36h11.951v3.888h-7.487v6.695h5.759v3.888h-5.759v7.631h7.991v3.888H124.89z"/>
		<path style="fill:#FFF8DA;" d="M141.054,60.349V34.36h12.455v3.888h-7.991v6.695h5.976v3.888h-5.976v11.519H141.054z"/>
		<path style="fill:#FFF8DA;" d="M157.829,60.349V34.36h4.463v25.989H157.829z"/>
		<path style="fill:#FFF8DA;" d="M167.405,60.349V34.36h4.14l5.435,14.866h0.072V34.36h4.031v25.989h-3.887l-5.688-16.234h-0.072
			v16.234H167.405z"/>
		<path style="fill:#FFF8DA;" d="M186.197,60.349V34.36h4.463v25.989H186.197z"/>
		<path style="fill:#FFF8DA;" d="M195.773,60.349V34.36h4.14l5.435,14.866h0.072V34.36h4.031v25.989h-3.887l-5.688-16.234h-0.072
			v16.234H195.773z"/>
		<path style="fill:#FFF8DA;" d="M220.108,47.174h7.307v13.174h-2.16l-0.828-1.944c-1.332,1.584-2.412,2.304-4.5,2.304
			c-3.527,0-5.975-2.52-5.975-6.659v-13.39c0-3.671,2.16-6.659,6.551-6.659c4.463,0,6.695,3.24,6.695,7.127v1.656h-4.248
			c0-3.887-0.792-4.895-2.556-4.895c-1.08,0-1.98,0.647-1.98,2.843v13.354c0,1.656,0.54,2.736,2.088,2.736
			c1.8,0,2.448-1.008,2.448-3.6v-2.52h-2.844V47.174z"/>
		<path style="fill:#FFF8DA;" d="M54.295,94.349V68.36h6.407c5.507,0,8.063,2.124,8.063,7.667s-2.556,7.667-8.063,7.667h-1.944
			v10.655H54.295z M58.759,80.022h1.728c2.916,0,3.815-0.9,3.815-3.996s-0.9-3.996-3.815-3.996h-1.728V80.022z"/>
		<path style="fill:#FFF8DA;" d="M72.475,94.349V68.36h11.951v3.888h-7.487v6.695h5.759v3.888h-5.759v7.631h7.991v3.888H72.475z"/>
		<path style="fill:#FFF8DA;" d="M93.102,94.349h-4.463V68.36h6.263c5.003,0,7.559,2.124,7.559,7.667
			c0,4.176-1.62,5.867-3.131,6.551l3.779,11.771h-4.535l-3.168-10.763c-0.576,0.072-1.512,0.108-2.304,0.108V94.349z M93.102,80.022
			h1.584c2.412,0,3.312-0.9,3.312-3.996s-0.9-3.996-3.312-3.996h-1.584V80.022z"/>
		<path style="fill:#FFF8DA;" d="M106.819,94.349V68.36h12.455v3.888h-7.991v6.695h5.976v3.888h-5.976v11.519H106.819z"/>
		<path style="fill:#FFF8DA;" d="M122.982,74.659c0-3.671,2.16-6.659,6.839-6.659c4.679,0,6.839,2.988,6.839,6.659v13.39
			c0,3.672-2.16,6.659-6.839,6.659c-4.68,0-6.839-2.987-6.839-6.659V74.659z M127.446,87.941c0,1.944,0.576,2.88,2.376,2.88
			s2.375-0.936,2.375-2.88V74.767c0-1.944-0.576-2.879-2.375-2.879s-2.376,0.936-2.376,2.879V87.941z"/>
		<path style="fill:#FFF8DA;" d="M145.625,94.349h-4.463V68.36h6.263c5.003,0,7.559,2.124,7.559,7.667
			c0,4.176-1.62,5.867-3.131,6.551l3.779,11.771h-4.535l-3.168-10.763c-0.576,0.072-1.512,0.108-2.304,0.108V94.349z
			 M145.625,80.022h1.584c2.412,0,3.312-0.9,3.312-3.996s-0.9-3.996-3.312-3.996h-1.584V80.022z"/>
		<path style="fill:#FFF8DA;" d="M177.232,68.36v25.989h-3.887V74.047h-0.072l-4.031,20.301h-2.16l-4.032-20.301h-0.072v20.301
			h-3.888V68.36h5.867l3.168,15.19h0.072l3.167-15.19H177.232z"/>
		<path style="fill:#FFF8DA;" d="M184.109,94.349h-4.319l4.787-25.989h5.543l4.787,25.989h-4.319l-0.792-5.759h-4.895
			L184.109,94.349z M185.549,84.702h3.6l-1.764-11.158h-0.072L185.549,84.702z"/>
		<path style="fill:#FFF8DA;" d="M197.681,94.349V68.36h4.14l5.435,14.866h0.072V68.36h4.031v25.989h-3.887l-5.688-16.234h-0.072
			v16.234H197.681z"/>
		<path style="fill:#FFF8DA;" d="M224.86,77.035v-2.016c0-2.196-1.008-3.131-2.16-3.131c-1.8,0-2.376,0.936-2.376,2.879v13.174
			c0,1.944,0.576,2.88,2.376,2.88c1.62,0,2.16-0.936,2.16-2.628v-3.131h4.463v2.987c0,3.672-2.16,6.659-6.623,6.659
			c-4.68,0-6.839-2.987-6.839-6.659v-13.39c0-3.671,2.16-6.659,6.839-6.659c4.463,0,6.623,3.24,6.623,7.127v1.908H224.86z"/>
		<path style="fill:#FFF8DA;" d="M234.041,94.349V68.36h11.951v3.888h-7.487v6.695h5.759v3.888h-5.759v7.631h7.991v3.888H234.041z"
			/>
		<path style="fill:#FFFFFF;" d="M16.403,102.792h2.945c2.129,0,3.073,1.088,3.073,3.057c0,0.993-0.417,2.033-1.377,2.417
			c1.009,0.448,1.601,1.249,1.601,2.737c0,1.905-0.849,3.345-3.105,3.345h-3.137V102.792z M18.388,107.53h0.72
			c0.752,0,1.329-0.512,1.329-1.473c0-1.072-0.417-1.632-1.297-1.632h-0.752V107.53z M18.388,112.716h0.832
			c1.057,0,1.441-0.608,1.441-1.776c0-1.185-0.448-1.777-1.633-1.777h-0.64V112.716z"/>
		<path style="fill:#FFFFFF;" d="M28.149,114.349h-1.985v-4.802l-2.401-6.755h2.017l1.393,4.402h0.032l1.329-4.402h2.017
			l-2.401,6.755V114.349z"/>
		<path style="fill:#FFFFFF;" d="M37.523,114.349h-1.985v-11.557h2.785c2.225,0,3.361,0.944,3.361,3.409
			c0,1.857-0.72,2.609-1.393,2.914l1.681,5.234h-2.017l-1.409-4.786c-0.256,0.032-0.672,0.048-1.024,0.048V114.349z M37.523,107.978
			h0.704c1.072,0,1.473-0.4,1.473-1.777c0-1.376-0.4-1.776-1.473-1.776h-0.704V107.978z"/>
		<path style="fill:#FFFFFF;" d="M43.698,105.593c0-1.633,0.96-2.961,3.041-2.961c2.081,0,3.042,1.329,3.042,2.961v5.954
			c0,1.633-0.96,2.961-3.042,2.961c-2.081,0-3.041-1.329-3.041-2.961V105.593z M45.683,111.5c0,0.864,0.256,1.28,1.056,1.28
			s1.057-0.416,1.057-1.28v-5.858c0-0.864-0.256-1.281-1.057-1.281s-1.056,0.417-1.056,1.281V111.5z"/>
		<path style="fill:#FFFFFF;" d="M51.858,102.792h2.945c2.129,0,3.073,1.088,3.073,3.057c0,0.993-0.417,2.033-1.377,2.417
			c1.009,0.448,1.601,1.249,1.601,2.737c0,1.905-0.849,3.345-3.105,3.345h-3.137V102.792z M53.843,107.53h0.72
			c0.752,0,1.329-0.512,1.329-1.473c0-1.072-0.417-1.632-1.297-1.632h-0.752V107.53z M53.843,112.716h0.832
			c1.057,0,1.441-0.608,1.441-1.776c0-1.185-0.448-1.777-1.633-1.777h-0.64V112.716z"/>
		<path style="fill:#FFFFFF;" d="M60.018,114.349v-11.557h5.314v1.729h-3.329v2.978h2.561v1.729h-2.561v3.394h3.553v1.729H60.018z"
			/>
		<path style="fill:#FFFFFF;" d="M69.267,114.349h-1.985v-11.557h2.785c2.225,0,3.361,0.944,3.361,3.409
			c0,1.857-0.72,2.609-1.393,2.914l1.681,5.234h-2.017l-1.408-4.786c-0.256,0.032-0.672,0.048-1.024,0.048V114.349z M69.267,107.978
			h0.704c1.072,0,1.473-0.4,1.473-1.777c0-1.376-0.4-1.776-1.473-1.776h-0.704V107.978z"/>
		<path style="fill:#FFFFFF;" d="M76.594,104.521h-1.921v-1.729H80.5v1.729h-1.921v9.828h-1.985V104.521z"/>
		<path style="fill:#FFFFFF;" d="M85.537,114.349v-11.557h2.849c2.449,0,3.585,0.944,3.585,3.409c0,2.465-1.137,3.41-3.585,3.41
			h-0.864v4.738H85.537z M87.522,107.978h0.768c1.297,0,1.697-0.4,1.697-1.777c0-1.376-0.4-1.776-1.697-1.776h-0.768V107.978z"/>
		<path style="fill:#FFFFFF;" d="M94.849,114.349h-1.921l2.129-11.557h2.465l2.129,11.557h-1.921l-0.352-2.561h-2.177
			L94.849,114.349z M95.49,110.059h1.601l-0.784-4.962h-0.032L95.49,110.059z"/>
		<path style="fill:#FFFFFF;" d="M102.113,104.521h-1.921v-1.729h5.827v1.729h-1.921v9.828h-1.985V104.521z"/>
		<path style="fill:#FFFFFF;" d="M108.497,104.521h-1.921v-1.729h5.827v1.729h-1.921v9.828h-1.985V104.521z"/>
		<path style="fill:#FFFFFF;" d="M114,114.349v-11.557h1.985v11.557H114z"/>
		<path style="fill:#FFFFFF;" d="M118.336,114.349v-11.557h1.841l2.417,6.611h0.032v-6.611h1.793v11.557h-1.729l-2.529-7.219h-0.032
			v7.219H118.336z"/>
		<path style="fill:#FFFFFF;" d="M130.114,105.641c-0.08-0.992-0.608-1.281-1.056-1.281c-0.64,0-0.993,0.417-0.993,1.137
			c0,1.969,4.034,2.913,4.034,6.05c0,1.905-1.28,2.961-3.137,2.961c-1.841,0-2.897-1.473-2.977-3.201l1.889-0.272
			c0.08,1.168,0.544,1.745,1.185,1.745c0.688,0,1.152-0.368,1.152-1.056c0-2.289-4.034-2.897-4.034-6.21
			c0-1.841,1.121-2.881,3.073-2.881c1.617,0,2.577,1.168,2.753,2.801L130.114,105.641z"/>
		<path style="fill:#FFFFFF;" d="M133.76,105.593c0-1.633,0.96-2.961,3.041-2.961c2.081,0,3.042,1.329,3.042,2.961v5.954
			c0,1.633-0.96,2.961-3.042,2.961c-2.081,0-3.041-1.329-3.041-2.961V105.593z M135.745,111.5c0,0.864,0.256,1.28,1.056,1.28
			s1.057-0.416,1.057-1.28v-5.858c0-0.864-0.256-1.281-1.057-1.281s-1.056,0.417-1.056,1.281V111.5z"/>
		<path style="fill:#FFFFFF;" d="M141.92,114.349v-11.557h1.841l2.417,6.611h0.032v-6.611h1.793v11.557h-1.729l-2.529-7.219h-0.032
			v7.219H141.92z"/>
		<path style="fill:#FFFFFF;" d="M154.944,104.521h-1.921v-1.729h5.827v1.729h-1.921v9.828h-1.985V104.521z"/>
		<path style="fill:#FFFFFF;" d="M160.175,114.349v-11.557h1.985v4.706h2.113v-4.706h1.985v11.557h-1.985v-5.122h-2.113v5.122
			H160.175z"/>
		<path style="fill:#FFFFFF;" d="M169.488,114.349h-1.921l2.129-11.557h2.465l2.128,11.557h-1.92l-0.352-2.561h-2.177
			L169.488,114.349z M170.128,110.059h1.601l-0.785-4.962h-0.032L170.128,110.059z"/>
		<path style="fill:#FFFFFF;" d="M176.751,104.521h-1.921v-1.729h5.827v1.729h-1.921v9.828h-1.985V104.521z"/>
		<path style="fill:#FFFFFF;" d="M187.679,114.349h-1.985v-11.557h2.785c2.225,0,3.361,0.944,3.361,3.409
			c0,1.857-0.72,2.609-1.393,2.914l1.681,5.234h-2.017l-1.408-4.786c-0.256,0.032-0.672,0.048-1.024,0.048V114.349z
			 M187.679,107.978h0.704c1.072,0,1.473-0.4,1.473-1.777c0-1.376-0.4-1.776-1.473-1.776h-0.704V107.978z"/>
		<path style="fill:#FFFFFF;" d="M193.854,114.349v-11.557h5.314v1.729h-3.329v2.978h2.561v1.729h-2.561v3.394h3.553v1.729H193.854z
			"/>
		<path style="fill:#FFFFFF;" d="M205.167,102.792h1.953l-2.417,11.557h-1.985l-2.417-11.557h1.953l1.441,8.019h0.032
			L205.167,102.792z"/>
		<path style="fill:#FFFFFF;" d="M208.381,114.349v-11.557h5.314v1.729h-3.329v2.978h2.561v1.729h-2.561v3.394h3.553v1.729H208.381z
			"/>
		<path style="fill:#FFFFFF;" d="M216.797,114.349h-1.921l2.129-11.557h2.465l2.128,11.557h-1.92l-0.352-2.561h-2.177
			L216.797,114.349z M217.437,110.059h1.601l-0.785-4.962h-0.032L217.437,110.059z"/>
		<path style="fill:#FFFFFF;" d="M222.812,114.349v-11.557h1.985v9.828h3.121v1.729H222.812z"/>
		<path style="fill:#FFFFFF;" d="M232.909,105.641c-0.08-0.992-0.608-1.281-1.056-1.281c-0.64,0-0.993,0.417-0.993,1.137
			c0,1.969,4.034,2.913,4.034,6.05c0,1.905-1.28,2.961-3.137,2.961c-1.841,0-2.897-1.473-2.977-3.201l1.889-0.272
			c0.08,1.168,0.544,1.745,1.185,1.745c0.688,0,1.152-0.368,1.152-1.056c0-2.289-4.034-2.897-4.034-6.21
			c0-1.841,1.121-2.881,3.073-2.881c1.617,0,2.577,1.168,2.753,2.801L232.909,105.641z"/>
		<path style="fill:#FFFFFF;" d="M240.267,102.792h1.985v8.724c0,0.848,0.336,1.264,1.056,1.264s1.057-0.416,1.057-1.264v-8.724
			h1.985v8.644c0,1.985-1.153,3.073-3.042,3.073s-3.041-1.088-3.041-3.073V102.792z"/>
		<path style="fill:#FFFFFF;" d="M248.427,114.349v-11.557h1.841l2.417,6.611h0.032v-6.611h1.793v11.557h-1.729l-2.529-7.219h-0.032
			v7.219H248.427z"/>
		<path style="fill:#FFFFFF;" d="M257.74,104.521h-1.921v-1.729h5.827v1.729h-1.921v9.828h-1.985V104.521z"/>
		<path style="fill:#FFFFFF;" d="M262.97,105.593c0-1.633,0.96-2.961,3.041-2.961c2.081,0,3.042,1.329,3.042,2.961v5.954
			c0,1.633-0.96,2.961-3.042,2.961c-2.081,0-3.041-1.329-3.041-2.961V105.593z M264.955,111.5c0,0.864,0.256,1.28,1.056,1.28
			s1.057-0.416,1.057-1.28v-5.858c0-0.864-0.256-1.281-1.057-1.281s-1.056,0.417-1.056,1.281V111.5z"/>
		<path style="fill:#FFFFFF;" d="M271.034,114.349v-11.557h1.985v9.828h3.121v1.729H271.034z"/>
		<path style="fill:#FFFFFF;" d="M277.514,102.792h2.945c2.049,0,3.137,1.121,3.137,3.489v4.578c0,2.369-1.088,3.489-3.137,3.489
			h-2.945V102.792z M279.499,112.716h0.688c1.057,0,1.425-0.4,1.425-1.617v-5.058c0-1.217-0.368-1.617-1.425-1.617h-0.688V112.716z"
			/>
		<path style="fill:#FFFFFF;" d="M37.699,122.792h2.945c2.049,0,3.137,1.121,3.137,3.489v4.578c0,2.369-1.088,3.489-3.137,3.489
			h-2.945V122.792z M39.684,132.716h0.688c1.057,0,1.425-0.4,1.425-1.617v-5.058c0-1.217-0.368-1.617-1.425-1.617h-0.688V132.716z"
			/>
		<path style="fill:#FFFFFF;" d="M45.859,134.349v-11.557h5.314v1.729h-3.329v2.978h2.561v1.729h-2.561v3.394h3.553v1.729H45.859z"
			/>
		<path style="fill:#FFFFFF;" d="M53.122,134.349v-11.557h2.849c2.449,0,3.585,0.944,3.585,3.409c0,2.465-1.137,3.41-3.585,3.41
			h-0.864v4.738H53.122z M55.107,127.978h0.768c1.297,0,1.697-0.4,1.697-1.777c0-1.376-0.4-1.776-1.697-1.776h-0.768V127.978z"/>
		<path style="fill:#FFFFFF;" d="M62.435,124.521h-1.921v-1.729h5.827v1.729H64.42v9.828h-1.985V124.521z"/>
		<path style="fill:#FFFFFF;" d="M67.666,134.349v-11.557h1.985v4.706h2.113v-4.706h1.985v11.557h-1.985v-5.122h-2.113v5.122H67.666
			z"/>
		<path style="fill:#FFFFFF;" d="M79.443,125.641c-0.08-0.992-0.608-1.281-1.056-1.281c-0.64,0-0.993,0.417-0.993,1.137
			c0,1.969,4.034,2.913,4.034,6.05c0,1.905-1.28,2.961-3.137,2.961c-1.841,0-2.897-1.473-2.977-3.201l1.889-0.272
			c0.08,1.168,0.544,1.745,1.185,1.745c0.688,0,1.152-0.368,1.152-1.056c0-2.289-4.034-2.897-4.034-6.21
			c0-1.841,1.121-2.881,3.073-2.881c1.617,0,2.577,1.168,2.753,2.801L79.443,125.641z"/>
		<path style="fill:#FFFFFF;" d="M86.802,125.593c0-1.633,0.96-2.961,3.041-2.961c2.081,0,3.042,1.329,3.042,2.961v5.954
			c0,1.633-0.96,2.961-3.042,2.961c-2.081,0-3.041-1.329-3.041-2.961V125.593z M88.786,131.5c0,0.864,0.256,1.28,1.056,1.28
			s1.057-0.416,1.057-1.28v-5.858c0-0.864-0.256-1.281-1.057-1.281s-1.056,0.417-1.056,1.281V131.5z"/>
		<path style="fill:#FFFFFF;" d="M94.961,134.349v-11.557h5.538v1.729h-3.553v2.978h2.657v1.729h-2.657v5.122H94.961z"/>
		<path style="fill:#FFFFFF;" d="M109.554,125.641c-0.08-0.992-0.608-1.281-1.056-1.281c-0.64,0-0.993,0.417-0.993,1.137
			c0,1.969,4.034,2.913,4.034,6.05c0,1.905-1.28,2.961-3.137,2.961c-1.841,0-2.897-1.473-2.977-3.201l1.889-0.272
			c0.08,1.168,0.544,1.745,1.185,1.745c0.688,0,1.152-0.368,1.152-1.056c0-2.289-4.034-2.897-4.034-6.21
			c0-1.841,1.121-2.881,3.073-2.881c1.617,0,2.577,1.168,2.753,2.801L109.554,125.641z"/>
		<path style="fill:#FFFFFF;" d="M113.2,134.349v-11.557h5.314v1.729h-3.329v2.978h2.561v1.729h-2.561v3.394h3.553v1.729H113.2z"/>
		<path style="fill:#FFFFFF;" d="M120.464,134.349v-11.557h1.841l2.417,6.611h0.032v-6.611h1.793v11.557h-1.729l-2.529-7.219h-0.032
			v7.219H120.464z"/>
		<path style="fill:#FFFFFF;" d="M132.241,125.641c-0.08-0.992-0.608-1.281-1.056-1.281c-0.64,0-0.993,0.417-0.993,1.137
			c0,1.969,4.034,2.913,4.034,6.05c0,1.905-1.28,2.961-3.137,2.961c-1.841,0-2.897-1.473-2.977-3.201l1.889-0.272
			c0.08,1.168,0.544,1.745,1.185,1.745c0.688,0,1.152-0.368,1.152-1.056c0-2.289-4.034-2.897-4.034-6.21
			c0-1.841,1.121-2.881,3.073-2.881c1.617,0,2.577,1.168,2.753,2.801L132.241,125.641z"/>
		<path style="fill:#FFFFFF;" d="M136.159,134.349v-11.557h1.985v11.557H136.159z"/>
		<path style="fill:#FFFFFF;" d="M141.648,124.521h-1.921v-1.729h5.827v1.729h-1.921v9.828h-1.985V124.521z"/>
		<path style="fill:#FFFFFF;" d="M147.151,134.349v-11.557h1.985v11.557H147.151z"/>
		<path style="fill:#FFFFFF;" d="M155.537,122.792h1.953l-2.417,11.557h-1.985l-2.417-11.557h1.953l1.441,8.019h0.032
			L155.537,122.792z"/>
		<path style="fill:#FFFFFF;" d="M159.023,134.349v-11.557h1.985v11.557H159.023z"/>
		<path style="fill:#FFFFFF;" d="M164.511,124.521h-1.921v-1.729h5.827v1.729h-1.921v9.828h-1.985V124.521z"/>
		<path style="fill:#FFFFFF;" d="M173.328,134.349h-1.985v-4.802l-2.401-6.755h2.017l1.393,4.402h0.032l1.329-4.402h2.017
			l-2.401,6.755V134.349z"/>
		<path style="fill:#FFFFFF;" d="M181.87,134.349h-1.921l2.129-11.557h2.465l2.128,11.557h-1.92l-0.352-2.561h-2.177L181.87,134.349
			z M182.51,130.059h1.601l-0.785-4.962h-0.032L182.51,130.059z"/>
		<path style="fill:#FFFFFF;" d="M187.982,134.349v-11.557h1.841l2.417,6.611h0.032v-6.611h1.793v11.557h-1.729l-2.529-7.219h-0.032
			v7.219H187.982z"/>
		<path style="fill:#FFFFFF;" d="M196.141,122.792h2.945c2.049,0,3.137,1.121,3.137,3.489v4.578c0,2.369-1.088,3.489-3.137,3.489
			h-2.945V122.792z M198.126,132.716h0.688c1.057,0,1.425-0.4,1.425-1.617v-5.058c0-1.217-0.368-1.617-1.425-1.617h-0.688V132.716z"
			/>
		<path style="fill:#FFFFFF;" d="M208.013,134.349v-11.557h5.538v1.729h-3.553v2.978h2.657v1.729h-2.657v5.122H208.013z"/>
		<path style="fill:#FFFFFF;" d="M215.277,134.349v-11.557h5.314v1.729h-3.329v2.978h2.561v1.729h-2.561v3.394h3.553v1.729H215.277z
			"/>
		<path style="fill:#FFFFFF;" d="M222.54,134.349v-11.557h5.314v1.729h-3.329v2.978h2.561v1.729h-2.561v3.394h3.553v1.729H222.54z"
			/>
		<path style="fill:#FFFFFF;" d="M229.708,134.349v-11.557h1.985v9.828h3.121v1.729H229.708z"/>
		<path style="fill:#FFFFFF;" d="M236.459,134.349v-11.557h1.985v11.557H236.459z"/>
		<path style="fill:#FFFFFF;" d="M240.796,134.349v-11.557h1.841l2.417,6.611h0.032v-6.611h1.793v11.557h-1.729l-2.529-7.219h-0.032
			v7.219H240.796z"/>
		<path style="fill:#FFFFFF;" d="M251.693,128.49h3.25v5.858h-0.96l-0.368-0.864c-0.592,0.704-1.072,1.024-2,1.024
			c-1.569,0-2.657-1.121-2.657-2.961v-5.954c0-1.633,0.96-2.961,2.913-2.961c1.985,0,2.977,1.44,2.977,3.169v0.736h-1.889
			c0-1.729-0.352-2.177-1.136-2.177c-0.48,0-0.88,0.289-0.88,1.265v5.938c0,0.736,0.24,1.216,0.928,1.216
			c0.8,0,1.088-0.448,1.088-1.601v-1.12h-1.265V128.49z"/>
		<path style="fill:#FFFFFF;" d="M259.18,124.681l-1.104,1.985h-0.849l0.785-1.985h-0.721v-1.889h1.889V124.681z M262.141,124.681
			l-1.104,1.985h-0.848l0.784-1.985h-0.72v-1.889h1.889V124.681z"/>
		<path style="fill:#FFF8DA;" d="M135.917,147.689h1.463l-1.811,8.659h-1.487l-1.811-8.659h1.463l1.079,6.009h0.024L135.917,147.689
			z"/>
		<path style="fill:#FFF8DA;" d="M139.134,156.349h-1.439l1.595-8.659h1.847l1.595,8.659h-1.439l-0.264-1.919h-1.631
			L139.134,156.349z M139.614,153.134h1.199l-0.588-3.718h-0.024L139.614,153.134z"/>
		<path style="fill:#FFF8DA;" d="M145.145,156.349h-1.487v-8.659h2.087c1.667,0,2.519,0.708,2.519,2.555
			c0,1.391-0.54,1.955-1.043,2.183l1.259,3.922h-1.511l-1.056-3.586c-0.191,0.024-0.503,0.036-0.768,0.036V156.349z
			 M145.145,151.575h0.528c0.804,0,1.104-0.3,1.104-1.331c0-1.032-0.3-1.332-1.104-1.332h-0.528V151.575z"/>
		<path style="fill:#FFF8DA;" d="M149.922,156.349v-8.659h1.487v8.659H149.922z"/>
		<path style="fill:#FFF8DA;" d="M153.114,156.349v-8.659h3.982v1.295h-2.495v2.23h1.919v1.295h-1.919v2.542h2.663v1.295H153.114z"
			/>
		<path style="fill:#FFF8DA;" d="M159.365,148.985h-1.439v-1.295h4.366v1.295h-1.439v7.364h-1.487V148.985z"/>
		<path style="fill:#FFF8DA;" d="M165.916,156.349h-1.487v-3.598l-1.799-5.061h1.511l1.043,3.298h0.024l0.995-3.298h1.511
			l-1.799,5.061V156.349z"/>
	</g>
</g>
<g id="nyt_x5F_exporter_x5F_info" style="display:none;">
</g>
</svg>
