<?xml version="1.0" encoding="iso-8859-1"?>
<!-- Generator: Adobe Illustrator 17.1.0, SVG Export Plug-In . SVG Version: 6.00 Build 0)  -->
<!DOCTYPE svg PUBLIC "-//W3C//DTD SVG 1.1//EN" "http://www.w3.org/Graphics/SVG/1.1/DTD/svg11.dtd">
<svg version="1.1" xmlns="http://www.w3.org/2000/svg" xmlns:xlink="http://www.w3.org/1999/xlink" x="0px" y="0px"
	 viewBox="0 0 300 88.555" style="enable-background:new 0 0 300 88.555;" xml:space="preserve">
<g id="Layer_1">
	<g>
		<path style="fill:#FFFFFF;" d="M22.955,1.985L24.06,0h0.848l-0.784,1.985h0.72v1.889h-1.889V1.985z M25.916,1.985L27.021,0h0.849
			l-0.785,1.985h0.72v1.889h-1.889V1.985z"/>
		<path style="fill:#FFFFFF;" d="M30.059,11.717V0.16h2.849c2.449,0,3.585,0.944,3.585,3.409c0,2.465-1.137,3.41-3.585,3.41h-0.864
			v4.738H30.059z M32.044,5.346h0.768c1.297,0,1.697-0.4,1.697-1.777c0-1.376-0.4-1.776-1.697-1.776h-0.768V5.346z"/>
		<path style="fill:#FFFFFF;" d="M38.219,11.717V0.16h5.314v1.729h-3.329v2.978h2.561v1.729h-2.561v3.394h3.553v1.729H38.219z"/>
		<path style="fill:#FFFFFF;" d="M46.635,11.717h-1.921L46.843,0.16h2.465l2.128,11.557h-1.92l-0.352-2.561h-2.177L46.635,11.717z
			 M47.275,7.427h1.601l-0.785-4.962H48.06L47.275,7.427z"/>
		<path style="fill:#FFFFFF;" d="M54.731,11.717h-1.985V0.16h2.785c2.225,0,3.361,0.944,3.361,3.409c0,1.857-0.72,2.609-1.393,2.914
			l1.681,5.234h-2.017l-1.408-4.786c-0.256,0.032-0.672,0.048-1.024,0.048V11.717z M54.731,5.346h0.704
			c1.072,0,1.473-0.4,1.473-1.777c0-1.376-0.4-1.776-1.473-1.776h-0.704V5.346z"/>
		<path style="fill:#FFFFFF;" d="M64.907,4.018V3.121c0-0.976-0.448-1.393-0.96-1.393c-0.8,0-1.056,0.417-1.056,1.281v5.858
			c0,0.864,0.256,1.28,1.056,1.28c0.72,0,0.96-0.416,0.96-1.168V7.587h1.985v1.329c0,1.633-0.96,2.961-2.945,2.961
			c-2.081,0-3.041-1.329-3.041-2.961V2.961c0-1.633,0.96-2.961,3.041-2.961c1.985,0,2.945,1.44,2.945,3.169v0.848H64.907z"/>
		<path style="fill:#FFFFFF;" d="M69.066,11.717V0.16h5.314v1.729h-3.329v2.978h2.561v1.729h-2.561v3.394h3.553v1.729H69.066z"/>
		<path style="fill:#FFFFFF;" d="M82.778,5.858h3.25v5.858h-0.96l-0.368-0.864c-0.592,0.704-1.072,1.024-2,1.024
			c-1.569,0-2.657-1.121-2.657-2.961V2.961c0-1.633,0.96-2.961,2.913-2.961c1.985,0,2.977,1.44,2.977,3.169v0.736h-1.889
			c0-1.729-0.352-2.177-1.136-2.177c-0.48,0-0.88,0.289-0.88,1.265v5.938c0,0.736,0.24,1.216,0.928,1.216
			c0.8,0,1.088-0.448,1.088-1.601v-1.12h-1.265V5.858z"/>
		<path style="fill:#FFFFFF;" d="M88.473,11.717V0.16h1.985v11.557H88.473z"/>
		<path style="fill:#FFFFFF;" d="M96.859,0.16h1.953l-2.417,11.557H94.41L91.993,0.16h1.953l1.441,8.019h0.032L96.859,0.16z"/>
		<path style="fill:#FFFFFF;" d="M100.073,11.717V0.16h5.314v1.729h-3.329v2.978h2.561v1.729h-2.561v3.394h3.553v1.729H100.073z"/>
		<path style="fill:#FFFFFF;" d="M110.954,3.009c-0.08-0.992-0.608-1.281-1.056-1.281c-0.64,0-0.993,0.417-0.993,1.137
			c0,1.969,4.034,2.913,4.034,6.05c0,1.905-1.28,2.961-3.137,2.961c-1.841,0-2.897-1.473-2.977-3.201l1.889-0.272
			c0.08,1.168,0.544,1.745,1.185,1.745c0.688,0,1.152-0.368,1.152-1.056c0-2.289-4.034-2.897-4.034-6.21
			c0-1.841,1.121-2.881,3.073-2.881c1.617,0,2.577,1.168,2.753,2.801L110.954,3.009z"/>
		<path style="fill:#FFFFFF;" d="M118.312,11.717V0.16h5.314v1.729h-3.329v2.978h2.561v1.729h-2.561v3.394h3.553v1.729H118.312z"/>
		<path style="fill:#FFFFFF;" d="M127.56,11.717h-1.985V0.16h2.785c2.225,0,3.361,0.944,3.361,3.409c0,1.857-0.72,2.609-1.393,2.914
			l1.681,5.234h-2.017l-1.409-4.786c-0.256,0.032-0.672,0.048-1.024,0.048V11.717z M127.56,5.346h0.704
			c1.072,0,1.473-0.4,1.473-1.777c0-1.376-0.4-1.776-1.473-1.776h-0.704V5.346z"/>
		<path style="fill:#FFFFFF;" d="M134.008,11.717V0.16h1.985v11.557H134.008z"/>
		<path style="fill:#FFFFFF;" d="M142.345,4.018V3.121c0-0.976-0.448-1.393-0.96-1.393c-0.8,0-1.056,0.417-1.056,1.281v5.858
			c0,0.864,0.256,1.28,1.056,1.28c0.72,0,0.96-0.416,0.96-1.168V7.587h1.985v1.329c0,1.633-0.96,2.961-2.945,2.961
			c-2.081,0-3.041-1.329-3.041-2.961V2.961c0-1.633,0.96-2.961,3.041-2.961c1.985,0,2.945,1.44,2.945,3.169v0.848H142.345z"/>
		<path style="fill:#FFFFFF;" d="M151.368,11.717h-1.921l2.129-11.557h2.465l2.129,11.557h-1.921l-0.352-2.561h-2.177
			L151.368,11.717z M152.008,7.427h1.601l-0.784-4.962h-0.032L152.008,7.427z"/>
		<path style="fill:#FFFFFF;" d="M157.383,11.717V0.16h1.985v9.828h3.121v1.729H157.383z"/>
		<path style="fill:#FFFFFF;" d="M163.766,11.717V0.16h1.985v9.828h3.121v1.729H163.766z"/>
		<path style="fill:#FFFFFF;" d="M175.11,1.889h-1.921V0.16h5.827v1.729h-1.921v9.828h-1.985V1.889z"/>
		<path style="fill:#FFFFFF;" d="M180.342,11.717V0.16h1.985v4.706h2.113V0.16h1.985v11.557h-1.985V6.595h-2.113v5.122H180.342z"/>
		<path style="fill:#FFFFFF;" d="M188.502,11.717V0.16h5.314v1.729h-3.329v2.978h2.561v1.729h-2.561v3.394h3.553v1.729H188.502z"/>
		<path style="fill:#FFFFFF;" d="M203.478,4.018V3.121c0-0.976-0.448-1.393-0.96-1.393c-0.8,0-1.056,0.417-1.056,1.281v5.858
			c0,0.864,0.256,1.28,1.056,1.28c0.72,0,0.96-0.416,0.96-1.168V7.587h1.985v1.329c0,1.633-0.96,2.961-2.945,2.961
			c-2.081,0-3.041-1.329-3.041-2.961V2.961c0-1.633,0.96-2.961,3.041-2.961c1.985,0,2.945,1.44,2.945,3.169v0.848H203.478z"/>
		<path style="fill:#FFFFFF;" d="M207.637,2.961c0-1.633,0.96-2.961,3.041-2.961c2.081,0,3.042,1.329,3.042,2.961v5.954
			c0,1.633-0.96,2.961-3.042,2.961c-2.081,0-3.041-1.329-3.041-2.961V2.961z M209.622,8.868c0,0.864,0.256,1.28,1.056,1.28
			s1.057-0.416,1.057-1.28V3.009c0-0.864-0.256-1.281-1.057-1.281s-1.056,0.417-1.056,1.281V8.868z"/>
		<path style="fill:#FFFFFF;" d="M215.7,11.717V0.16h1.985v9.828h3.121v1.729H215.7z"/>
		<path style="fill:#FFFFFF;" d="M222.18,0.16h2.945c2.049,0,3.137,1.121,3.137,3.489v4.578c0,2.369-1.088,3.489-3.137,3.489h-2.945
			V0.16z M224.165,10.084h0.688c1.057,0,1.425-0.4,1.425-1.617V3.41c0-1.217-0.368-1.617-1.425-1.617h-0.688V10.084z"/>
		<path style="fill:#FFFFFF;" d="M230.341,11.717V0.16h1.985v4.706h2.113V0.16h1.985v11.557h-1.985V6.595h-2.113v5.122H230.341z"/>
		<path style="fill:#FFFFFF;" d="M238.5,11.717V0.16h5.314v1.729h-3.329v2.978h2.561v1.729h-2.561v3.394h3.553v1.729H238.5z"/>
		<path style="fill:#FFFFFF;" d="M246.916,11.717h-1.921l2.129-11.557h2.465l2.128,11.557h-1.92l-0.352-2.561h-2.177L246.916,11.717
			z M247.556,7.427h1.601l-0.785-4.962h-0.032L247.556,7.427z"/>
		<path style="fill:#FFFFFF;" d="M255.012,11.717h-1.985V0.16h2.785c2.225,0,3.361,0.944,3.361,3.409
			c0,1.857-0.72,2.609-1.393,2.914l1.681,5.234h-2.017l-1.409-4.786c-0.256,0.032-0.672,0.048-1.024,0.048V11.717z M255.012,5.346
			h0.704c1.072,0,1.473-0.4,1.473-1.777c0-1.376-0.4-1.776-1.473-1.776h-0.704V5.346z"/>
		<path style="fill:#FFFFFF;" d="M262.34,1.889h-1.921V0.16h5.827v1.729h-1.921v9.828h-1.985V1.889z"/>
		<path style="fill:#FFFFFF;" d="M267.571,11.717V0.16h5.314v1.729h-3.329v2.978h2.561v1.729h-2.561v3.394h3.553v1.729H267.571z"/>
		<path style="fill:#FFFFFF;" d="M274.835,0.16h2.945c2.049,0,3.137,1.121,3.137,3.489v4.578c0,2.369-1.088,3.489-3.137,3.489
			h-2.945V0.16z M276.82,10.084h0.688c1.057,0,1.425-0.4,1.425-1.617V3.41c0-1.217-0.368-1.617-1.425-1.617h-0.688V10.084z"/>
		<path style="fill:#FFFFFF;" d="M14.861,31.717h-1.985V20.16h2.785c2.225,0,3.361,0.944,3.361,3.409
			c0,1.857-0.72,2.609-1.393,2.914l1.681,5.234h-2.017l-1.408-4.786c-0.256,0.032-0.672,0.048-1.024,0.048V31.717z M14.861,25.346
			h0.704c1.072,0,1.473-0.4,1.473-1.777c0-1.376-0.4-1.776-1.473-1.776h-0.704V25.346z"/>
		<path style="fill:#FFFFFF;" d="M21.036,31.717V20.16h5.314v1.729h-3.329v2.978h2.561v1.729h-2.561v3.394h3.553v1.729H21.036z"/>
		<path style="fill:#FFFFFF;" d="M36.254,20.16v11.557h-1.729v-9.028h-0.032l-1.792,9.028h-0.96l-1.793-9.028h-0.032v9.028h-1.729
			V20.16h2.609l1.408,6.755h0.032l1.409-6.755H36.254z"/>
		<path style="fill:#FFFFFF;" d="M38.235,22.961c0-1.633,0.96-2.961,3.041-2.961c2.081,0,3.042,1.329,3.042,2.961v5.954
			c0,1.633-0.96,2.961-3.042,2.961c-2.081,0-3.041-1.329-3.041-2.961V22.961z M40.22,28.868c0,0.864,0.256,1.28,1.056,1.28
			s1.057-0.416,1.057-1.28v-5.858c0-0.864-0.256-1.281-1.057-1.281s-1.056,0.417-1.056,1.281V28.868z"/>
		<path style="fill:#FFFFFF;" d="M48.38,31.717h-1.985V20.16h2.785c2.225,0,3.361,0.944,3.361,3.409c0,1.857-0.72,2.609-1.393,2.914
			l1.681,5.234h-2.017l-1.408-4.786c-0.256,0.032-0.672,0.048-1.024,0.048V31.717z M48.38,25.346h0.704
			c1.072,0,1.473-0.4,1.473-1.777c0-1.376-0.4-1.776-1.473-1.776H48.38V25.346z"/>
		<path style="fill:#FFFFFF;" d="M58.172,23.009c-0.08-0.992-0.608-1.281-1.056-1.281c-0.64,0-0.993,0.417-0.993,1.137
			c0,1.969,4.034,2.913,4.034,6.05c0,1.905-1.28,2.961-3.137,2.961c-1.841,0-2.897-1.473-2.977-3.201l1.889-0.272
			c0.08,1.168,0.544,1.745,1.185,1.745c0.688,0,1.152-0.368,1.152-1.056c0-2.289-4.034-2.897-4.034-6.21
			c0-1.841,1.121-2.881,3.073-2.881c1.617,0,2.577,1.168,2.753,2.801L58.172,23.009z"/>
		<path style="fill:#FFFFFF;" d="M61.819,31.717V20.16h5.314v1.729h-3.329v2.978h2.561v1.729h-2.561v3.394h3.553v1.729H61.819z"/>
		<path style="fill:#FFFFFF;" d="M68.987,31.717V20.16h1.985v9.828h3.121v1.729H68.987z"/>
		<path style="fill:#FFFFFF;" d="M75.466,31.717V20.16h5.314v1.729h-3.329v2.978h2.561v1.729h-2.561v3.394h3.553v1.729H75.466z"/>
		<path style="fill:#FFFFFF;" d="M86.347,23.009c-0.08-0.992-0.608-1.281-1.056-1.281c-0.64,0-0.993,0.417-0.993,1.137
			c0,1.969,4.034,2.913,4.034,6.05c0,1.905-1.28,2.961-3.137,2.961c-1.841,0-2.897-1.473-2.977-3.201l1.889-0.272
			c0.08,1.168,0.544,1.745,1.185,1.745c0.688,0,1.152-0.368,1.152-1.056c0-2.289-4.034-2.897-4.034-6.21
			c0-1.841,1.121-2.881,3.073-2.881c1.617,0,2.577,1.168,2.753,2.801L86.347,23.009z"/>
		<path style="fill:#FFFFFF;" d="M93.611,23.009c-0.08-0.992-0.608-1.281-1.056-1.281c-0.64,0-0.993,0.417-0.993,1.137
			c0,1.969,4.034,2.913,4.034,6.05c0,1.905-1.28,2.961-3.137,2.961c-1.841,0-2.897-1.473-2.977-3.201l1.889-0.272
			c0.08,1.168,0.544,1.745,1.185,1.745c0.688,0,1.152-0.368,1.152-1.056c0-2.289-4.034-2.897-4.034-6.21
			c0-1.841,1.121-2.881,3.073-2.881c1.617,0,2.577,1.168,2.753,2.801L93.611,23.009z"/>
		<path style="fill:#FFFFFF;" d="M97.257,31.717V20.16h1.841l2.417,6.611h0.032V20.16h1.793v11.557h-1.729l-2.529-7.219h-0.032
			v7.219H97.257z"/>
		<path style="fill:#FFFFFF;" d="M105.417,31.717V20.16h5.314v1.729h-3.329v2.978h2.561v1.729h-2.561v3.394h3.553v1.729H105.417z"/>
		<path style="fill:#FFFFFF;" d="M116.298,23.009c-0.08-0.992-0.608-1.281-1.056-1.281c-0.64,0-0.993,0.417-0.993,1.137
			c0,1.969,4.034,2.913,4.034,6.05c0,1.905-1.28,2.961-3.137,2.961c-1.841,0-2.897-1.473-2.977-3.201l1.889-0.272
			c0.08,1.168,0.544,1.745,1.185,1.745c0.688,0,1.152-0.368,1.152-1.056c0-2.289-4.034-2.897-4.034-6.21
			c0-1.841,1.121-2.881,3.073-2.881c1.617,0,2.577,1.168,2.753,2.801L116.298,23.009z"/>
		<path style="fill:#FFFFFF;" d="M123.561,23.009c-0.08-0.992-0.608-1.281-1.056-1.281c-0.64,0-0.993,0.417-0.993,1.137
			c0,1.969,4.034,2.913,4.034,6.05c0,1.905-1.28,2.961-3.137,2.961c-1.841,0-2.897-1.473-2.977-3.201l1.889-0.272
			c0.08,1.168,0.544,1.745,1.185,1.745c0.688,0,1.152-0.368,1.152-1.056c0-2.289-4.034-2.897-4.034-6.21
			c0-1.841,1.121-2.881,3.073-2.881c1.617,0,2.577,1.168,2.753,2.801L123.561,23.009z"/>
		<path style="fill:#FFFFFF;" d="M130.919,22.961c0-1.633,0.96-2.961,3.041-2.961c2.081,0,3.042,1.329,3.042,2.961v5.954
			c0,1.633-0.96,2.961-3.042,2.961c-2.081,0-3.041-1.329-3.041-2.961V22.961z M132.904,28.868c0,0.864,0.256,1.28,1.056,1.28
			s1.057-0.416,1.057-1.28v-5.858c0-0.864-0.256-1.281-1.057-1.281s-1.056,0.417-1.056,1.281V28.868z"/>
		<path style="fill:#FFFFFF;" d="M139.079,31.717V20.16h5.538v1.729h-3.553v2.978h2.657v1.729h-2.657v5.122H139.079z"/>
		<path style="fill:#FFFFFF;" d="M151.207,31.717h-1.921l2.129-11.557h2.465l2.129,11.557h-1.921l-0.352-2.561h-2.177
			L151.207,31.717z M151.847,27.427h1.601l-0.784-4.962h-0.032L151.847,27.427z"/>
		<path style="fill:#FFFFFF;" d="M165.031,24.018v-0.896c0-0.976-0.448-1.393-0.96-1.393c-0.8,0-1.056,0.417-1.056,1.281v5.858
			c0,0.864,0.256,1.28,1.056,1.28c0.72,0,0.96-0.416,0.96-1.168v-1.393h1.985v1.329c0,1.633-0.96,2.961-2.945,2.961
			c-2.081,0-3.041-1.329-3.041-2.961v-5.954c0-1.633,0.96-2.961,3.041-2.961c1.985,0,2.945,1.44,2.945,3.169v0.848H165.031z"/>
		<path style="fill:#FFFFFF;" d="M169.093,31.717V20.16h1.985v9.828h3.121v1.729H169.093z"/>
		<path style="fill:#FFFFFF;" d="M176.726,31.717h-1.921l2.129-11.557h2.465l2.128,11.557h-1.92l-0.352-2.561h-2.177L176.726,31.717
			z M177.366,27.427h1.601l-0.785-4.962h-0.032L177.366,27.427z"/>
		<path style="fill:#FFFFFF;" d="M186.454,23.009c-0.08-0.992-0.608-1.281-1.056-1.281c-0.64,0-0.993,0.417-0.993,1.137
			c0,1.969,4.034,2.913,4.034,6.05c0,1.905-1.28,2.961-3.137,2.961c-1.841,0-2.897-1.473-2.977-3.201l1.889-0.272
			c0.08,1.168,0.544,1.745,1.185,1.745c0.688,0,1.152-0.368,1.152-1.056c0-2.289-4.034-2.897-4.034-6.21
			c0-1.841,1.121-2.881,3.073-2.881c1.617,0,2.577,1.168,2.753,2.801L186.454,23.009z"/>
		<path style="fill:#FFFFFF;" d="M193.717,23.009c-0.08-0.992-0.608-1.281-1.056-1.281c-0.64,0-0.993,0.417-0.993,1.137
			c0,1.969,4.034,2.913,4.034,6.05c0,1.905-1.28,2.961-3.137,2.961c-1.841,0-2.897-1.473-2.977-3.201l1.889-0.272
			c0.08,1.168,0.544,1.745,1.185,1.745c0.688,0,1.152-0.368,1.152-1.056c0-2.289-4.034-2.897-4.034-6.21
			c0-1.841,1.121-2.881,3.073-2.881c1.617,0,2.577,1.168,2.753,2.801L193.717,23.009z"/>
		<path style="fill:#FFFFFF;" d="M197.636,31.717V20.16h1.985v11.557H197.636z"/>
		<path style="fill:#FFFFFF;" d="M205.973,24.018v-0.896c0-0.976-0.448-1.393-0.96-1.393c-0.8,0-1.056,0.417-1.056,1.281v5.858
			c0,0.864,0.256,1.28,1.056,1.28c0.72,0,0.96-0.416,0.96-1.168v-1.393h1.985v1.329c0,1.633-0.96,2.961-2.945,2.961
			c-2.081,0-3.041-1.329-3.041-2.961v-5.954c0-1.633,0.96-2.961,3.041-2.961c1.985,0,2.945,1.44,2.945,3.169v0.848H205.973z"/>
		<path style="fill:#FFFFFF;" d="M217.285,20.16h1.633l1.344,7.363h0.032l1.104-7.363h1.856l-2.033,11.557h-1.665l-1.441-7.635
			h-0.032l-1.345,7.635h-1.665l-2.193-11.557h1.857l1.216,7.363h0.032L217.285,20.16z"/>
		<path style="fill:#FFFFFF;" d="M224.676,31.717V20.16h5.314v1.729h-3.329v2.978h2.561v1.729h-2.561v3.394h3.553v1.729H224.676z"/>
		<path style="fill:#FFFFFF;" d="M235.556,23.009c-0.08-0.992-0.608-1.281-1.056-1.281c-0.64,0-0.993,0.417-0.993,1.137
			c0,1.969,4.034,2.913,4.034,6.05c0,1.905-1.28,2.961-3.137,2.961c-1.841,0-2.897-1.473-2.977-3.201l1.889-0.272
			c0.08,1.168,0.544,1.745,1.185,1.745c0.688,0,1.152-0.368,1.152-1.056c0-2.289-4.034-2.897-4.034-6.21
			c0-1.841,1.121-2.881,3.073-2.881c1.617,0,2.577,1.168,2.753,2.801L235.556,23.009z"/>
		<path style="fill:#FFFFFF;" d="M240.355,21.889h-1.921V20.16h5.827v1.729h-1.921v9.828h-1.985V21.889z"/>
		<path style="fill:#FFFFFF;" d="M245.586,31.717V20.16h5.314v1.729h-3.329v2.978h2.561v1.729h-2.561v3.394h3.553v1.729H245.586z"/>
		<path style="fill:#FFFFFF;" d="M254.835,31.717h-1.985V20.16h2.785c2.225,0,3.361,0.944,3.361,3.409
			c0,1.857-0.72,2.609-1.393,2.914l1.681,5.234h-2.017l-1.409-4.786c-0.256,0.032-0.672,0.048-1.024,0.048V31.717z M254.835,25.346
			h0.704c1.072,0,1.473-0.4,1.473-1.777c0-1.376-0.4-1.776-1.473-1.776h-0.704V25.346z"/>
		<path style="fill:#FFFFFF;" d="M261.01,31.717V20.16h1.841l2.417,6.611h0.032V20.16h1.793v11.557h-1.729l-2.529-7.219h-0.032
			v7.219H261.01z"/>
		<path style="fill:#FFFFFF;" d="M272.882,22.961c0-1.633,0.96-2.961,3.041-2.961c2.081,0,3.042,1.329,3.042,2.961v5.954
			c0,1.633-0.96,2.961-3.042,2.961c-2.081,0-3.041-1.329-3.041-2.961V22.961z M274.866,28.868c0,0.864,0.256,1.28,1.056,1.28
			s1.057-0.416,1.057-1.28v-5.858c0-0.864-0.256-1.281-1.057-1.281s-1.056,0.417-1.056,1.281V28.868z"/>
		<path style="fill:#FFFFFF;" d="M283.027,31.717h-1.985V20.16h2.785c2.225,0,3.361,0.944,3.361,3.409
			c0,1.857-0.72,2.609-1.393,2.914l1.681,5.234h-2.017l-1.408-4.786c-0.256,0.032-0.672,0.048-1.024,0.048V31.717z M283.027,25.346
			h0.704c1.072,0,1.473-0.4,1.473-1.777c0-1.376-0.4-1.776-1.473-1.776h-0.704V25.346z"/>
		<path style="fill:#FFFFFF;" d="M85.978,51.717V40.16h5.538v1.729h-3.553v2.978h2.657v1.729h-2.657v5.122H85.978z"/>
		<path style="fill:#FFFFFF;" d="M93.514,51.717V40.16h1.985v11.557H93.514z"/>
		<path style="fill:#FFFFFF;" d="M97.754,51.717V40.16h1.985v9.828h3.121v1.729H97.754z"/>
		<path style="fill:#FFFFFF;" d="M112.189,40.16v11.557h-1.729v-9.028h-0.032l-1.792,9.028h-0.96l-1.793-9.028h-0.032v9.028h-1.729
			V40.16h2.609l1.408,6.755h0.032l1.409-6.755H112.189z"/>
		<path style="fill:#FFFFFF;" d="M117.881,51.717V40.16h1.841l2.417,6.611h0.032V40.16h1.793v11.557h-1.729l-2.529-7.219h-0.032
			v7.219H117.881z"/>
		<path style="fill:#FFFFFF;" d="M126.041,42.961c0-1.633,0.96-2.961,3.041-2.961c2.081,0,3.042,1.329,3.042,2.961v5.954
			c0,1.633-0.96,2.961-3.042,2.961c-2.081,0-3.041-1.329-3.041-2.961V42.961z M128.026,48.868c0,0.864,0.256,1.28,1.056,1.28
			s1.057-0.416,1.057-1.28v-5.858c0-0.864-0.256-1.281-1.057-1.281s-1.056,0.417-1.056,1.281V48.868z"/>
		<path style="fill:#FFFFFF;" d="M134.473,51.717V40.16h1.985v11.557H134.473z"/>
		<path style="fill:#FFFFFF;" d="M140.794,51.717h-1.985V40.16h2.785c2.225,0,3.361,0.944,3.361,3.409
			c0,1.857-0.72,2.609-1.393,2.914l1.681,5.234h-2.017l-1.409-4.786c-0.256,0.032-0.672,0.048-1.024,0.048V51.717z M140.794,45.346
			h0.704c1.072,0,1.473-0.4,1.473-1.777c0-1.376-0.4-1.776-1.473-1.776h-0.704V45.346z"/>
		<path style="fill:#FFFFFF;" d="M151.833,51.717h-1.921l2.129-11.557h2.465l2.128,11.557h-1.92l-0.352-2.561h-2.177L151.833,51.717
			z M152.473,47.427h1.601l-0.785-4.962h-0.032L152.473,47.427z"/>
		<path style="fill:#FFFFFF;" d="M157.944,51.717V40.16h1.841l2.417,6.611h0.032V40.16h1.793v11.557h-1.729l-2.529-7.219h-0.032
			v7.219H157.944z"/>
		<path style="fill:#FFFFFF;" d="M167.257,41.889h-1.921V40.16h5.827v1.729h-1.921v9.828h-1.985V41.889z"/>
		<path style="fill:#FFFFFF;" d="M172.76,51.717V40.16h1.985v11.557H172.76z"/>
		<path style="fill:#FFFFFF;" d="M177.096,51.717V40.16h1.985v4.706h2.113V40.16h1.985v11.557h-1.985v-5.122h-2.113v5.122H177.096z"
			/>
		<path style="fill:#FFFFFF;" d="M185.256,51.717V40.16h5.314v1.729h-3.329v2.978h2.561v1.729h-2.561v3.394h3.553v1.729H185.256z"/>
		<path style="fill:#FFFFFF;" d="M194.505,51.717h-1.985V40.16h2.785c2.225,0,3.361,0.944,3.361,3.409
			c0,1.857-0.72,2.609-1.393,2.914l1.681,5.234h-2.017l-1.409-4.786c-0.256,0.032-0.672,0.048-1.024,0.048V51.717z M194.505,45.346
			h0.704c1.072,0,1.473-0.4,1.473-1.777c0-1.376-0.4-1.776-1.473-1.776h-0.704V45.346z"/>
		<path style="fill:#FFFFFF;" d="M200.68,42.961c0-1.633,0.96-2.961,3.041-2.961c2.081,0,3.042,1.329,3.042,2.961v5.954
			c0,1.633-0.96,2.961-3.042,2.961c-2.081,0-3.041-1.329-3.041-2.961V42.961z M202.665,48.868c0,0.864,0.256,1.28,1.056,1.28
			s1.057-0.416,1.057-1.28v-5.858c0-0.864-0.256-1.281-1.057-1.281s-1.056,0.417-1.056,1.281V48.868z"/>
		<path style="fill:#FFFFFF;" d="M210.905,42.049l-1.104,1.985h-0.849l0.785-1.985h-0.721V40.16h1.889V42.049z M213.865,42.049
			l-1.104,1.985h-0.848l0.784-1.985h-0.72V40.16h1.889V42.049z"/>
		<path style="fill:#FFF8DA;" d="M91.296,66.353h-1.439v-1.295h4.366v1.295h-1.439v7.364h-1.487V66.353z"/>
		<path style="fill:#FFF8DA;" d="M95.161,73.717v-8.659h1.487v3.526h1.583v-3.526h1.487v8.659h-1.487v-3.838h-1.583v3.838H95.161z"
			/>
		<path style="fill:#FFF8DA;" d="M101.221,73.717v-8.659h3.981v1.295h-2.494v2.23h1.919v1.295h-1.919v2.542h2.662v1.295H101.221z"/>
		<path style="fill:#FFF8DA;" d="M109.332,73.717v-8.659h1.487v3.526h1.583v-3.526h1.487v8.659h-1.487v-3.838h-1.583v3.838H109.332z
			"/>
		<path style="fill:#FFF8DA;" d="M115.392,67.156c0-1.223,0.72-2.219,2.279-2.219s2.279,0.996,2.279,2.219v4.462
			c0,1.223-0.72,2.219-2.279,2.219s-2.279-0.996-2.279-2.219V67.156z M116.879,71.582c0,0.647,0.191,0.959,0.792,0.959
			c0.6,0,0.792-0.312,0.792-0.959v-4.39c0-0.647-0.192-0.959-0.792-0.959c-0.6,0-0.792,0.312-0.792,0.959V71.582z"/>
		<path style="fill:#FFF8DA;" d="M121.38,73.717v-8.659h1.487v7.364h2.339v1.295H121.38z"/>
		<path style="fill:#FFF8DA;" d="M126.108,73.717v-8.659h1.487v7.364h2.339v1.295H126.108z"/>
		<path style="fill:#FFF8DA;" d="M133.594,73.717h-1.487v-3.598l-1.799-5.061h1.511l1.043,3.298h0.024l0.995-3.298h1.511
			l-1.799,5.061V73.717z"/>
		<path style="fill:#FFF8DA;" d="M138.874,65.058h1.223l1.007,5.517h0.024l0.828-5.517h1.392l-1.523,8.659h-1.247l-1.08-5.721
			h-0.024l-1.007,5.721h-1.248l-1.643-8.659h1.391l0.912,5.517h0.024L138.874,65.058z"/>
		<path style="fill:#FFF8DA;" d="M144.36,67.156c0-1.223,0.72-2.219,2.279-2.219s2.279,0.996,2.279,2.219v4.462
			c0,1.223-0.72,2.219-2.279,2.219s-2.279-0.996-2.279-2.219V67.156z M145.847,71.582c0,0.647,0.191,0.959,0.792,0.959
			c0.6,0,0.792-0.312,0.792-0.959v-4.39c0-0.647-0.192-0.959-0.792-0.959c-0.6,0-0.792,0.312-0.792,0.959V71.582z"/>
		<path style="fill:#FFF8DA;" d="M150.42,67.156c0-1.223,0.719-2.219,2.279-2.219c1.559,0,2.278,0.996,2.278,2.219v4.462
			c0,1.223-0.719,2.219-2.278,2.219c-1.56,0-2.279-0.996-2.279-2.219V67.156z M151.906,71.582c0,0.647,0.192,0.959,0.792,0.959
			s0.792-0.312,0.792-0.959v-4.39c0-0.647-0.192-0.959-0.792-0.959s-0.792,0.312-0.792,0.959V71.582z"/>
		<path style="fill:#FFF8DA;" d="M156.48,65.058h2.207c1.535,0,2.351,0.839,2.351,2.614v3.43c0,1.775-0.816,2.615-2.351,2.615
			h-2.207V65.058z M157.967,72.494h0.516c0.792,0,1.067-0.3,1.067-1.211v-3.79c0-0.912-0.276-1.211-1.067-1.211h-0.516V72.494z"/>
		<path style="fill:#FFF8DA;" d="M166.75,73.717h-1.487v-8.659h2.087c1.667,0,2.519,0.708,2.519,2.555
			c0,1.391-0.54,1.955-1.043,2.183l1.259,3.922h-1.511l-1.055-3.586c-0.192,0.024-0.504,0.036-0.768,0.036V73.717z M166.75,68.943
			h0.527c0.804,0,1.104-0.3,1.104-1.331c0-1.032-0.3-1.332-1.104-1.332h-0.527V68.943z"/>
		<path style="fill:#FFF8DA;" d="M171.323,73.717v-8.659h3.982v1.295h-2.495v2.23h1.919v1.295h-1.919v2.542h2.663v1.295H171.323z"/>
		<path style="fill:#FFF8DA;" d="M176.711,73.717v-8.659h2.135c1.835,0,2.687,0.708,2.687,2.555c0,1.847-0.852,2.555-2.687,2.555
			h-0.648v3.55H176.711z M178.197,68.943h0.576c0.971,0,1.271-0.3,1.271-1.331c0-1.032-0.3-1.332-1.271-1.332h-0.576V68.943z"/>
		<path style="fill:#FFF8DA;" d="M182.771,67.156c0-1.223,0.72-2.219,2.279-2.219s2.279,0.996,2.279,2.219v4.462
			c0,1.223-0.72,2.219-2.279,2.219s-2.279-0.996-2.279-2.219V67.156z M184.258,71.582c0,0.647,0.191,0.959,0.792,0.959
			c0.6,0,0.792-0.312,0.792-0.959v-4.39c0-0.647-0.192-0.959-0.792-0.959c-0.6,0-0.792,0.312-0.792,0.959V71.582z"/>
		<path style="fill:#FFF8DA;" d="M190.318,73.717h-1.487v-8.659h2.087c1.667,0,2.519,0.708,2.519,2.555
			c0,1.391-0.54,1.955-1.043,2.183l1.259,3.922h-1.511l-1.056-3.586c-0.191,0.024-0.503,0.036-0.768,0.036V73.717z M190.318,68.943
			h0.528c0.804,0,1.104-0.3,1.104-1.331c0-1.032-0.3-1.332-1.104-1.332h-0.528V68.943z"/>
		<path style="fill:#FFF8DA;" d="M195.754,66.353h-1.439v-1.295h4.366v1.295h-1.439v7.364h-1.487V66.353z"/>
		<path style="fill:#FFF8DA;" d="M199.619,73.717v-8.659h3.982v1.295h-2.495v2.23h1.919v1.295h-1.919v2.542h2.663v1.295H199.619z"/>
		<path style="fill:#FFF8DA;" d="M206.493,73.717h-1.487v-8.659h2.087c1.667,0,2.519,0.708,2.519,2.555
			c0,1.391-0.54,1.955-1.043,2.183l1.259,3.922h-1.511l-1.055-3.586c-0.192,0.024-0.504,0.036-0.768,0.036V73.717z M206.493,68.943
			h0.527c0.804,0,1.104-0.3,1.104-1.331c0-1.032-0.3-1.332-1.104-1.332h-0.527V68.943z"/>
	</g>
</g>
<g id="nyt_x5F_exporter_x5F_info" style="display:none;">
</g>
</svg>
