<?xml version="1.0" encoding="iso-8859-1"?>
<!-- Generator: Adobe Illustrator 17.1.0, SVG Export Plug-In . SVG Version: 6.00 Build 0)  -->
<!DOCTYPE svg PUBLIC "-//W3C//DTD SVG 1.1//EN" "http://www.w3.org/Graphics/SVG/1.1/DTD/svg11.dtd">
<svg version="1.1" xmlns="http://www.w3.org/2000/svg" xmlns:xlink="http://www.w3.org/1999/xlink" x="0px" y="0px"
	 viewBox="0 0 300 187.812" style="enable-background:new 0 0 300 187.812;" xml:space="preserve">
<g id="Layer_1">
	<g>
		<path style="fill:#FFFFFF;" d="M54.522,60.738l1.104-1.985h0.849l-0.784,1.985h0.72v1.889h-1.889V60.738z M57.483,60.738
			l1.104-1.985h0.849l-0.784,1.985h0.72v1.889h-1.889V60.738z"/>
		<path style="fill:#FFFFFF;" d="M69.581,58.913V70.47h-1.729v-9.028H67.82l-1.792,9.028h-0.961l-1.793-9.028h-0.031v9.028h-1.729
			V58.913h2.609l1.409,6.755h0.031l1.409-6.755H69.581z"/>
		<path style="fill:#FFFFFF;" d="M71.834,70.47V58.913h1.984V70.47H71.834z"/>
		<path style="fill:#FFFFFF;" d="M80.171,62.771v-0.896c0-0.976-0.448-1.393-0.96-1.393c-0.801,0-1.057,0.417-1.057,1.281v5.858
			c0,0.864,0.256,1.28,1.057,1.28c0.72,0,0.96-0.416,0.96-1.168V66.34h1.985v1.329c0,1.633-0.961,2.961-2.945,2.961
			c-2.081,0-3.041-1.329-3.041-2.961v-5.954c0-1.633,0.96-2.961,3.041-2.961c1.984,0,2.945,1.44,2.945,3.169v0.848H80.171z"/>
		<path style="fill:#FFFFFF;" d="M84.33,70.47V58.913h1.984v4.706h2.113v-4.706h1.984V70.47h-1.984v-5.122h-2.113v5.122H84.33z"/>
		<path style="fill:#FFFFFF;" d="M92.489,61.714c0-1.633,0.961-2.961,3.041-2.961c2.081,0,3.042,1.329,3.042,2.961v5.954
			c0,1.633-0.961,2.961-3.042,2.961c-2.08,0-3.041-1.329-3.041-2.961V61.714z M94.65,56h1.761l1.536,2.305h-1.473L95.53,56.88
			l-0.944,1.424h-1.473L94.65,56z M94.475,67.621c0,0.864,0.256,1.28,1.056,1.28c0.801,0,1.057-0.416,1.057-1.28v-5.858
			c0-0.864-0.256-1.281-1.057-1.281c-0.8,0-1.056,0.417-1.056,1.281V67.621z"/>
		<path style="fill:#FFFFFF;" d="M100.649,58.913h2.945c2.049,0,3.138,1.121,3.138,3.489v4.578c0,2.369-1.089,3.489-3.138,3.489
			h-2.945V58.913z M102.635,68.837h0.688c1.057,0,1.425-0.4,1.425-1.617v-5.058c0-1.217-0.368-1.617-1.425-1.617h-0.688V68.837z"/>
		<path style="fill:#FFFFFF;" d="M110.57,60.802l-1.104,1.985h-0.848l0.784-1.985h-0.721v-1.889h1.889V60.802z"/>
		<path style="fill:#FFFFFF;" d="M116.139,61.762c-0.08-0.992-0.608-1.281-1.057-1.281c-0.64,0-0.992,0.417-0.992,1.137
			c0,1.969,4.033,2.913,4.033,6.05c0,1.905-1.28,2.961-3.137,2.961c-1.841,0-2.897-1.473-2.978-3.201l1.889-0.272
			c0.08,1.168,0.545,1.745,1.185,1.745c0.688,0,1.152-0.368,1.152-1.056c0-2.289-4.033-2.897-4.033-6.21
			c0-1.841,1.12-2.881,3.073-2.881c1.616,0,2.577,1.168,2.753,2.801L116.139,61.762z"/>
		<path style="fill:#FFFFFF;" d="M127.114,61.762c-0.08-0.992-0.608-1.281-1.057-1.281c-0.64,0-0.992,0.417-0.992,1.137
			c0,1.969,4.033,2.913,4.033,6.05c0,1.905-1.28,2.961-3.137,2.961c-1.841,0-2.897-1.473-2.978-3.201l1.889-0.272
			c0.08,1.168,0.545,1.745,1.185,1.745c0.688,0,1.152-0.368,1.152-1.056c0-2.289-4.033-2.897-4.033-6.21
			c0-1.841,1.12-2.881,3.073-2.881c1.616,0,2.577,1.168,2.753,2.801L127.114,61.762z"/>
		<path style="fill:#FFFFFF;" d="M131.912,60.642h-1.921v-1.729h5.827v1.729h-1.921v9.828h-1.985V60.642z"/>
		<path style="fill:#FFFFFF;" d="M140.729,70.47h-1.985v-4.802l-2.4-6.755h2.017l1.393,4.402h0.032l1.328-4.402h2.017l-2.4,6.755
			V70.47z"/>
		<path style="fill:#FFFFFF;" d="M144.312,70.47V58.913h1.984v9.828h3.121v1.729H144.312z"/>
		<path style="fill:#FFFFFF;" d="M150.791,70.47V58.913h5.314v1.729h-3.329v2.978h2.561v1.729h-2.561v3.394h3.553v1.729H150.791z"/>
		<path style="fill:#FFFFFF;" d="M165.384,61.762c-0.08-0.992-0.608-1.281-1.057-1.281c-0.64,0-0.992,0.417-0.992,1.137
			c0,1.969,4.033,2.913,4.033,6.05c0,1.905-1.28,2.961-3.137,2.961c-1.841,0-2.897-1.473-2.978-3.201l1.889-0.272
			c0.08,1.168,0.545,1.745,1.185,1.745c0.688,0,1.152-0.368,1.152-1.056c0-2.289-4.033-2.897-4.033-6.21
			c0-1.841,1.12-2.881,3.073-2.881c1.616,0,2.577,1.168,2.753,2.801L165.384,61.762z"/>
		<path style="fill:#FFFFFF;" d="M169.03,58.913h1.984v8.724c0,0.848,0.336,1.264,1.057,1.264c0.72,0,1.057-0.416,1.057-1.264
			v-8.724h1.984v8.644c0,1.985-1.152,3.073-3.041,3.073s-3.041-1.088-3.041-3.073V58.913z"/>
		<path style="fill:#FFFFFF;" d="M177.189,58.913h2.945c2.129,0,3.073,1.088,3.073,3.057c0,0.993-0.416,2.033-1.377,2.417
			c1.009,0.448,1.602,1.249,1.602,2.737c0,1.905-0.849,3.345-3.105,3.345h-3.138V58.913z M179.175,63.651h0.72
			c0.753,0,1.329-0.512,1.329-1.473c0-1.072-0.417-1.632-1.297-1.632h-0.752V63.651z M179.175,68.837h0.832
			c1.057,0,1.44-0.608,1.44-1.776c0-1.185-0.448-1.777-1.633-1.777h-0.64V68.837z"/>
		<path style="fill:#FFFFFF;" d="M189.399,58.913h1.953l-2.417,11.557h-1.985l-2.417-11.557h1.953l1.44,8.019h0.032L189.399,58.913z
			"/>
		<path style="fill:#FFFFFF;" d="M192.613,70.47V58.913h5.314v1.729h-3.329v2.978h2.561v1.729h-2.561v3.394h3.553v1.729H192.613z"/>
		<path style="fill:#FFFFFF;" d="M201.861,70.47h-1.984V58.913h2.785c2.225,0,3.361,0.944,3.361,3.409
			c0,1.857-0.721,2.609-1.393,2.914l1.681,5.234h-2.017l-1.409-4.786c-0.256,0.032-0.672,0.048-1.024,0.048V70.47z M201.861,64.099
			h0.704c1.072,0,1.473-0.4,1.473-1.777c0-1.376-0.4-1.776-1.473-1.776h-0.704V64.099z"/>
		<path style="fill:#FFFFFF;" d="M209.189,60.642h-1.921v-1.729h5.826v1.729h-1.921v9.828h-1.984V60.642z"/>
		<path style="fill:#FFFFFF;" d="M218.038,61.762c-0.08-0.992-0.608-1.281-1.057-1.281c-0.64,0-0.992,0.417-0.992,1.137
			c0,1.969,4.033,2.913,4.033,6.05c0,1.905-1.28,2.961-3.137,2.961c-1.841,0-2.897-1.473-2.978-3.201l1.889-0.272
			c0.08,1.168,0.545,1.745,1.185,1.745c0.688,0,1.152-0.368,1.152-1.056c0-2.289-4.033-2.897-4.033-6.21
			c0-1.841,1.12-2.881,3.073-2.881c1.616,0,2.577,1.168,2.753,2.801L218.038,61.762z"/>
		<path style="fill:#FFFFFF;" d="M226.548,60.642h-1.921v-1.729h5.827v1.729h-1.921v9.828h-1.985V60.642z"/>
		<path style="fill:#FFFFFF;" d="M231.779,70.47V58.913h1.985v4.706h2.112v-4.706h1.985V70.47h-1.985v-5.122h-2.112v5.122H231.779z"
			/>
		<path style="fill:#FFFFFF;" d="M239.939,70.47V58.913h5.313v1.729h-3.329v2.978h2.562v1.729h-2.562v3.394h3.554v1.729H239.939z"/>
		<path style="fill:#FFFFFF;" d="M58.162,80.642h-1.921v-1.729h5.827v1.729h-1.921v9.828h-1.985V80.642z"/>
		<path style="fill:#FFFFFF;" d="M66.979,90.47h-1.985v-4.802l-2.4-6.755h2.017l1.393,4.402h0.032l1.328-4.402h2.017l-2.4,6.755
			V90.47z"/>
		<path style="fill:#FFFFFF;" d="M70.657,90.47V78.913h2.849c2.449,0,3.586,0.944,3.586,3.409c0,2.465-1.137,3.41-3.586,3.41h-0.864
			v4.738H70.657z M72.642,84.099h0.769c1.297,0,1.696-0.4,1.696-1.777c0-1.376-0.399-1.776-1.696-1.776h-0.769V84.099z"/>
		<path style="fill:#FFFFFF;" d="M79.089,90.47V78.913h1.985V90.47H79.089z"/>
		<path style="fill:#FFFFFF;" d="M87.427,82.771v-0.896c0-0.976-0.448-1.393-0.96-1.393c-0.801,0-1.057,0.417-1.057,1.281v5.858
			c0,0.864,0.256,1.28,1.057,1.28c0.72,0,0.96-0.416,0.96-1.168V86.34h1.985v1.329c0,1.633-0.961,2.961-2.945,2.961
			c-2.081,0-3.041-1.329-3.041-2.961v-5.954c0-1.633,0.96-2.961,3.041-2.961c1.984,0,2.945,1.44,2.945,3.169v0.848H87.427z"/>
		<path style="fill:#FFFFFF;" d="M92.737,90.47h-1.921l2.129-11.557h2.466L97.54,90.47h-1.921l-0.353-2.561H93.09L92.737,90.47z
			 M93.378,86.18h1.601l-0.784-4.962h-0.032L93.378,86.18z"/>
		<path style="fill:#FFFFFF;" d="M98.753,90.47V78.913h1.984v9.828h3.121v1.729H98.753z"/>
		<path style="fill:#FFFFFF;" d="M108.944,90.47V78.913h1.841l2.417,6.611h0.031v-6.611h1.793V90.47h-1.729l-2.529-7.219h-0.032
			v7.219H108.944z"/>
		<path style="fill:#FFFFFF;" d="M117.104,81.714c0-1.633,0.96-2.961,3.041-2.961s3.041,1.329,3.041,2.961v5.954
			c0,1.633-0.96,2.961-3.041,2.961s-3.041-1.329-3.041-2.961V81.714z M119.089,87.621c0,0.864,0.256,1.28,1.057,1.28
			c0.8,0,1.057-0.416,1.057-1.28v-5.858c0-0.864-0.257-1.281-1.057-1.281c-0.801,0-1.057,0.417-1.057,1.281V87.621z"/>
		<path style="fill:#FFFFFF;" d="M126.417,80.642h-1.921v-1.729h5.826v1.729h-1.921v9.828h-1.984V80.642z"/>
		<path style="fill:#FFFFFF;" d="M131.92,90.47V78.913h1.984V90.47H131.92z"/>
		<path style="fill:#FFFFFF;" d="M136.256,81.714c0-1.633,0.961-2.961,3.041-2.961c2.081,0,3.042,1.329,3.042,2.961v5.954
			c0,1.633-0.961,2.961-3.042,2.961c-2.08,0-3.041-1.329-3.041-2.961V81.714z M138.241,87.621c0,0.864,0.256,1.28,1.056,1.28
			c0.801,0,1.057-0.416,1.057-1.28v-5.858c0-0.864-0.256-1.281-1.057-1.281c-0.8,0-1.056,0.417-1.056,1.281V87.621z"/>
		<path style="fill:#FFFFFF;" d="M144.416,90.47V78.913h1.841l2.417,6.611h0.032v-6.611h1.793V90.47h-1.729l-2.528-7.219h-0.032
			v7.219H144.416z"/>
		<path style="fill:#FFFFFF;" d="M156.193,81.762c-0.079-0.992-0.607-1.281-1.056-1.281c-0.641,0-0.993,0.417-0.993,1.137
			c0,1.969,4.034,2.913,4.034,6.05c0,1.905-1.28,2.961-3.138,2.961c-1.841,0-2.896-1.473-2.977-3.201l1.889-0.272
			c0.08,1.168,0.544,1.745,1.185,1.745c0.688,0,1.152-0.368,1.152-1.056c0-2.289-4.034-2.897-4.034-6.21
			c0-1.841,1.121-2.881,3.073-2.881c1.617,0,2.577,1.168,2.754,2.801L156.193,81.762z"/>
		<path style="fill:#FFFFFF;" d="M163.552,81.714c0-1.633,0.96-2.961,3.041-2.961s3.041,1.329,3.041,2.961v5.954
			c0,1.633-0.96,2.961-3.041,2.961s-3.041-1.329-3.041-2.961V81.714z M165.536,87.621c0,0.864,0.256,1.28,1.057,1.28
			c0.8,0,1.057-0.416,1.057-1.28v-5.858c0-0.864-0.257-1.281-1.057-1.281c-0.801,0-1.057,0.417-1.057,1.281V87.621z"/>
		<path style="fill:#FFFFFF;" d="M171.712,90.47V78.913h5.538v1.729h-3.554v2.978h2.657v1.729h-2.657v5.122H171.712z"/>
		<path style="fill:#FFFFFF;" d="M186.304,81.762c-0.079-0.992-0.607-1.281-1.056-1.281c-0.641,0-0.993,0.417-0.993,1.137
			c0,1.969,4.034,2.913,4.034,6.05c0,1.905-1.28,2.961-3.138,2.961c-1.841,0-2.896-1.473-2.977-3.201l1.889-0.272
			c0.08,1.168,0.544,1.745,1.185,1.745c0.688,0,1.152-0.368,1.152-1.056c0-2.289-4.034-2.897-4.034-6.21
			c0-1.841,1.121-2.881,3.073-2.881c1.617,0,2.577,1.168,2.754,2.801L186.304,81.762z"/>
		<path style="fill:#FFFFFF;" d="M191.103,80.642h-1.921v-1.729h5.827v1.729h-1.921v9.828h-1.985V80.642z"/>
		<path style="fill:#FFFFFF;" d="M198.318,90.47h-1.984V78.913h2.785c2.225,0,3.361,0.944,3.361,3.409
			c0,1.857-0.721,2.609-1.393,2.914l1.681,5.234h-2.017l-1.409-4.786c-0.256,0.032-0.672,0.048-1.024,0.048V90.47z M198.318,84.099
			h0.704c1.072,0,1.473-0.4,1.473-1.777c0-1.376-0.4-1.776-1.473-1.776h-0.704V84.099z"/>
		<path style="fill:#FFFFFF;" d="M205.646,90.47h-1.921l2.129-11.557h2.465l2.129,11.557h-1.921l-0.352-2.561h-2.178L205.646,90.47z
			 M206.286,86.18h1.602l-0.785-4.962h-0.031L206.286,86.18z"/>
		<path style="fill:#FFFFFF;" d="M212.029,90.47V78.913h1.985V90.47H212.029z"/>
		<path style="fill:#FFFFFF;" d="M219.103,84.611h3.249v5.858h-0.96l-0.368-0.864c-0.593,0.704-1.072,1.024-2.001,1.024
			c-1.568,0-2.657-1.121-2.657-2.961v-5.954c0-1.633,0.961-2.961,2.913-2.961c1.985,0,2.978,1.44,2.978,3.169v0.736h-1.889
			c0-1.729-0.353-2.177-1.137-2.177c-0.48,0-0.88,0.289-0.88,1.265v5.938c0,0.736,0.239,1.216,0.928,1.216
			c0.801,0,1.089-0.448,1.089-1.601v-1.12h-1.265V84.611z"/>
		<path style="fill:#FFFFFF;" d="M224.525,90.47V78.913h1.985v4.706h2.112v-4.706h1.985V90.47h-1.985v-5.122h-2.112v5.122H224.525z"
			/>
		<path style="fill:#FFFFFF;" d="M233.838,80.642h-1.921v-1.729h5.827v1.729h-1.921v9.828h-1.985V80.642z"/>
		<path style="fill:#FFFFFF;" d="M238.812,86.9v-1.473h3.922V86.9H238.812z"/>
		<path style="fill:#FFFFFF;" d="M91.745,110.47V98.913h5.538v1.729H93.73v2.978h2.656v1.729H93.73v5.122H91.745z"/>
		<path style="fill:#FFFFFF;" d="M99.009,101.714c0-1.633,0.961-2.961,3.041-2.961c2.081,0,3.042,1.329,3.042,2.961v5.954
			c0,1.633-0.961,2.961-3.042,2.961c-2.08,0-3.041-1.329-3.041-2.961V101.714z M100.994,107.621c0,0.864,0.256,1.28,1.056,1.28
			c0.801,0,1.057-0.416,1.057-1.28v-5.858c0-0.864-0.256-1.281-1.057-1.281c-0.8,0-1.056,0.417-1.056,1.281V107.621z"/>
		<path style="fill:#FFFFFF;" d="M109.153,110.47h-1.984V98.913h2.785c2.225,0,3.361,0.944,3.361,3.409
			c0,1.857-0.721,2.609-1.393,2.914l1.681,5.234h-2.017l-1.409-4.786c-0.256,0.032-0.672,0.048-1.024,0.048V110.47z
			 M109.153,104.099h0.704c1.072,0,1.473-0.4,1.473-1.777c0-1.376-0.4-1.776-1.473-1.776h-0.704V104.099z"/>
		<path style="fill:#FFFFFF;" d="M118.771,98.913h1.633l1.344,7.363h0.032l1.104-7.363h1.856l-2.032,11.557h-1.665l-1.44-7.635
			h-0.032l-1.345,7.635h-1.664l-2.193-11.557h1.857l1.216,7.363h0.032L118.771,98.913z"/>
		<path style="fill:#FFFFFF;" d="M127.313,110.47h-1.921l2.129-11.557h2.465l2.129,11.557h-1.921l-0.352-2.561h-2.178
			L127.313,110.47z M127.953,106.18h1.602l-0.785-4.962h-0.031L127.953,106.18z"/>
		<path style="fill:#FFFFFF;" d="M135.409,110.47h-1.985V98.913h2.785c2.225,0,3.361,0.944,3.361,3.409
			c0,1.857-0.72,2.609-1.393,2.914l1.681,5.234h-2.017l-1.408-4.786c-0.257,0.032-0.673,0.048-1.024,0.048V110.47z M135.409,104.099
			h0.704c1.072,0,1.473-0.4,1.473-1.777c0-1.376-0.4-1.776-1.473-1.776h-0.704V104.099z"/>
		<path style="fill:#FFFFFF;" d="M141.584,98.913h2.945c2.049,0,3.138,1.121,3.138,3.489v4.578c0,2.369-1.089,3.489-3.138,3.489
			h-2.945V98.913z M143.569,108.837h0.688c1.057,0,1.425-0.4,1.425-1.617v-5.058c0-1.217-0.368-1.617-1.425-1.617h-0.688V108.837z"
			/>
		<path style="fill:#FFFFFF;" d="M157.457,102.771v-0.896c0-0.976-0.448-1.393-0.96-1.393c-0.801,0-1.057,0.417-1.057,1.281v5.858
			c0,0.864,0.256,1.28,1.057,1.28c0.72,0,0.96-0.416,0.96-1.168v-1.393h1.985v1.329c0,1.633-0.961,2.961-2.945,2.961
			c-2.081,0-3.041-1.329-3.041-2.961v-5.954c0-1.633,0.96-2.961,3.041-2.961c1.984,0,2.945,1.44,2.945,3.169v0.848H157.457z"/>
		<path style="fill:#FFFFFF;" d="M161.888,110.47V98.913h1.985v11.557H161.888z"/>
		<path style="fill:#FFFFFF;" d="M166.225,110.47V98.913h1.841l2.417,6.611h0.031v-6.611h1.793v11.557h-1.729l-2.529-7.219h-0.032
			v7.219H166.225z"/>
		<path style="fill:#FFFFFF;" d="M174.384,110.47V98.913h5.314v1.729h-3.329v2.978h2.561v1.729h-2.561v3.394h3.553v1.729H174.384z"
			/>
		<path style="fill:#FFFFFF;" d="M189.603,98.913v11.557h-1.729v-9.028h-0.032l-1.792,9.028h-0.961l-1.793-9.028h-0.031v9.028
			h-1.729V98.913h2.609l1.409,6.755h0.031l1.409-6.755H189.603z"/>
		<path style="fill:#FFFFFF;" d="M192.736,110.47h-1.921l2.129-11.557h2.465l2.129,11.557h-1.921l-0.352-2.561h-2.178
			L192.736,110.47z M193.376,106.18h1.602l-0.785-4.962h-0.031L193.376,106.18z"/>
		<path style="fill:#FFFFFF;" d="M198.72,110.47v-1.889h1.889v1.889H198.72z"/>
		<path style="fill:#FFFFFF;" d="M204.624,100.802l-1.104,1.985h-0.849l0.785-1.985h-0.721v-1.889h1.889V100.802z M207.585,100.802
			l-1.104,1.985h-0.848l0.784-1.985h-0.721v-1.889h1.889V100.802z"/>
		<path style="fill:#FFF8DA;" d="M116.108,132.47v-8.659h4.149v1.295h-2.662v2.23h1.99v1.295h-1.99v3.838H116.108z"/>
		<path style="fill:#FFF8DA;" d="M121.699,132.47v-8.659h1.487v8.659H121.699z"/>
		<path style="fill:#FFF8DA;" d="M126.379,132.47h-1.487v-8.659h2.087c1.667,0,2.519,0.708,2.519,2.555
			c0,1.391-0.54,1.955-1.043,2.183l1.259,3.922h-1.511l-1.056-3.586c-0.191,0.024-0.504,0.036-0.768,0.036V132.47z M126.379,127.696
			h0.527c0.804,0,1.104-0.3,1.104-1.331c0-1.032-0.3-1.332-1.104-1.332h-0.527V127.696z"/>
		<path style="fill:#FFF8DA;" d="M133.662,125.945c-0.06-0.744-0.455-0.959-0.791-0.959c-0.48,0-0.744,0.312-0.744,0.852
			c0,1.475,3.022,2.183,3.022,4.534c0,1.427-0.959,2.219-2.351,2.219c-1.379,0-2.171-1.104-2.23-2.399l1.415-0.204
			c0.06,0.875,0.407,1.307,0.888,1.307c0.516,0,0.863-0.276,0.863-0.792c0-1.715-3.022-2.171-3.022-4.653
			c0-1.379,0.84-2.159,2.303-2.159c1.211,0,1.931,0.875,2.062,2.099L133.662,125.945z"/>
		<path style="fill:#FFF8DA;" d="M137.203,125.106h-1.439v-1.295h4.366v1.295h-1.439v7.364h-1.487V125.106z"/>
		<path style="fill:#FFF8DA;" d="M146.502,125.945c-0.061-0.744-0.456-0.959-0.792-0.959c-0.479,0-0.743,0.312-0.743,0.852
			c0,1.475,3.022,2.183,3.022,4.534c0,1.427-0.96,2.219-2.352,2.219c-1.379,0-2.17-1.104-2.23-2.399l1.415-0.204
			c0.061,0.875,0.408,1.307,0.888,1.307c0.516,0,0.863-0.276,0.863-0.792c0-1.715-3.021-2.171-3.021-4.653
			c0-1.379,0.839-2.159,2.303-2.159c1.211,0,1.931,0.875,2.062,2.099L146.502,125.945z"/>
		<path style="fill:#FFF8DA;" d="M149.179,132.47v-8.659h1.487v3.526h1.583v-3.526h1.487v8.659h-1.487v-3.838h-1.583v3.838H149.179z
			"/>
		<path style="fill:#FFF8DA;" d="M155.239,125.909c0-1.223,0.72-2.219,2.278-2.219c1.56,0,2.279,0.996,2.279,2.219v4.462
			c0,1.223-0.72,2.219-2.279,2.219c-1.559,0-2.278-0.996-2.278-2.219V125.909z M156.727,130.335c0,0.647,0.191,0.959,0.791,0.959
			s0.792-0.312,0.792-0.959v-4.39c0-0.647-0.192-0.959-0.792-0.959s-0.791,0.312-0.791,0.959V130.335z"/>
		<path style="fill:#FFF8DA;" d="M163.878,123.811h1.223l1.008,5.517h0.023l0.828-5.517h1.392l-1.523,8.659h-1.247l-1.08-5.721
			h-0.023l-1.008,5.721h-1.247l-1.644-8.659h1.392l0.911,5.517h0.024L163.878,123.811z"/>
		<path style="fill:#FFF8DA;" d="M169.566,132.47v-8.659h1.487v8.659H169.566z"/>
		<path style="fill:#FFF8DA;" d="M172.759,132.47v-8.659h1.379l1.812,4.953h0.024v-4.953h1.343v8.659h-1.295l-1.896-5.409h-0.023
			v5.409H172.759z"/>
		<path style="fill:#FFF8DA;" d="M180.87,128.08h2.435v4.39h-0.72l-0.276-0.647c-0.443,0.527-0.803,0.768-1.499,0.768
			c-1.175,0-1.99-0.84-1.99-2.219v-4.462c0-1.223,0.72-2.219,2.183-2.219c1.487,0,2.23,1.08,2.23,2.375v0.552h-1.415
			c0-1.295-0.264-1.631-0.852-1.631c-0.359,0-0.659,0.216-0.659,0.947v4.45c0,0.552,0.18,0.912,0.695,0.912
			c0.6,0,0.815-0.336,0.815-1.199v-0.84h-0.947V128.08z"/>
	</g>
</g>
<g id="nyt_x5F_exporter_x5F_info" style="display:none;">
</g>
</svg>
