<?xml version="1.0" encoding="iso-8859-1"?>
<!-- Generator: Adobe Illustrator 17.1.0, SVG Export Plug-In . SVG Version: 6.00 Build 0)  -->
<!DOCTYPE svg PUBLIC "-//W3C//DTD SVG 1.1//EN" "http://www.w3.org/Graphics/SVG/1.1/DTD/svg11.dtd">
<svg version="1.1" id="Layer_1" xmlns="http://www.w3.org/2000/svg" xmlns:xlink="http://www.w3.org/1999/xlink" x="0px" y="0px"
	 viewBox="0 0 960 560" style="enable-background:new 0 0 960 560;" xml:space="preserve">
<g id="Layer_1_1_">
	<g>
		<path style="fill:#FFFFFF;" d="M221.743,169.524l3.292-5.919h2.531l-2.338,5.919h2.147v5.632h-5.632L221.743,169.524
			L221.743,169.524z M230.571,169.524l3.292-5.919h2.531l-2.338,5.919h2.147v5.632h-5.632L230.571,169.524L230.571,169.524z"/>
		<path style="fill:#FFFFFF;" d="M251.086,181.075h9.691v17.467h-2.865l-1.097-2.576c-1.765,2.099-3.196,3.053-5.963,3.053
			c-4.678,0-7.922-3.342-7.922-8.829v-17.753c0-4.869,2.862-8.829,8.686-8.829c5.916,0,8.877,4.294,8.877,9.449v2.195h-5.632
			c0-5.155-1.05-6.491-3.387-6.491c-1.431,0-2.627,0.862-2.627,3.772v17.705c0,2.195,0.716,3.626,2.77,3.626
			c2.385,0,3.244-1.336,3.244-4.774v-3.34h-3.772L251.086,181.075L251.086,181.075z"/>
		<path style="fill:#FFFFFF;" d="M267.255,164.086h5.919v26.012c0,2.528,1.002,3.769,3.149,3.769c2.15,0,3.152-1.24,3.152-3.769
			v-26.012h5.919v25.774c0,5.919-3.438,9.163-9.07,9.163s-9.067-3.244-9.067-9.163v-25.774H267.255z"/>
		<path style="fill:#FFFFFF;" d="M302.278,198.542h-5.919v-14.318l-7.156-20.141h6.014l4.154,13.125h0.095l3.96-13.125h6.014
			l-7.156,20.141v14.318H302.278z"/>
		<path style="fill:#FFFFFF;" d="M324.313,198.542v-34.456h8.495c7.302,0,10.692,2.815,10.692,10.165
			c0,7.35-3.39,10.168-10.692,10.168h-2.579v14.127h-5.916V198.542z M330.229,179.549h2.293c3.867,0,5.057-1.193,5.057-5.298
			c0-4.103-1.19-5.296-5.057-5.296h-2.293V179.549z"/>
		<path style="fill:#FFFFFF;" d="M348.644,198.542v-34.456h15.842v5.155h-9.926v8.877h7.639v5.155h-7.639v10.12h10.597v5.155
			h-16.513L348.644,198.542L348.644,198.542z"/>
		<path style="fill:#FFFFFF;" d="M373.738,198.542h-5.728l6.348-34.46h7.35l6.348,34.46h-5.728l-1.05-7.636h-6.494L373.738,198.542z
			 M375.643,185.754h4.774l-2.338-14.795h-0.092L375.643,185.754z"/>
		<path style="fill:#FFFFFF;" d="M397.878,198.542h-5.919v-34.456h8.304c6.634,0,10.021,2.815,10.021,10.165
			c0,5.537-2.147,7.779-4.154,8.689l5.012,15.606h-6.014l-4.198-14.27c-0.766,0.095-2.007,0.143-3.053,0.143v14.123H397.878z
			 M397.878,179.549h2.099c3.196,0,4.392-1.193,4.392-5.298c0-4.103-1.193-5.296-4.392-5.296h-2.099V179.549z"/>
		<path style="fill:#FFFFFF;" d="M428.22,175.586v-2.675c0-2.91-1.336-4.154-2.865-4.154c-2.385,0-3.149,1.243-3.149,3.82v17.467
			c0,2.576,0.763,3.817,3.149,3.817c2.15,0,2.865-1.24,2.865-3.483v-4.151h5.916v3.963c0,4.869-2.862,8.829-8.781,8.829
			c-6.202,0-9.067-3.963-9.067-8.829v-17.753c0-4.869,2.865-8.829,9.067-8.829c5.919,0,8.781,4.294,8.781,9.449v2.528
			C434.135,175.586,428.22,175.586,428.22,175.586z"/>
		<path style="fill:#FFFFFF;" d="M440.618,198.542v-34.456h15.845v5.155h-9.926v8.877h7.636v5.155h-7.636v10.12h10.594v5.155
			h-16.513V198.542z"/>
		<path style="fill:#FFFFFF;" d="M474.156,198.542v-34.456h5.919v34.457h-5.919V198.542z"/>
		<path style="fill:#FFFFFF;" d="M497.872,172.58c-0.239-2.958-1.813-3.82-3.152-3.82c-1.908,0-2.958,1.243-2.958,3.39
			c0,5.871,12.025,8.686,12.025,18.039c0,5.68-3.817,8.829-9.354,8.829c-5.489,0-8.638-4.392-8.879-9.544l5.632-0.811
			c0.239,3.483,1.625,5.203,3.533,5.203c2.051,0,3.435-1.097,3.435-3.149c0-6.825-12.025-8.638-12.025-18.516
			c0-5.489,3.339-8.59,9.163-8.59c4.818,0,7.684,3.483,8.209,8.352L497.872,172.58z"/>
		<path style="fill:#FFFFFF;" d="M519.809,198.542v-34.456h15.845v5.155h-9.926v8.877h7.636v5.155h-7.636v10.12h10.594v5.155
			h-16.513L519.809,198.542L519.809,198.542z"/>
		<path style="fill:#FFFFFF;" d="M546.051,180.503l-6.3-16.417h5.823l3.626,10.931h0.095l3.292-10.931h5.823l-5.966,16.417
			l6.682,18.039h-5.823l-4.01-12.55h-0.095l-4.103,12.55h-5.823L546.051,180.503z"/>
		<path style="fill:#FFFFFF;" d="M575.057,175.586v-2.675c0-2.91-1.336-4.154-2.865-4.154c-2.385,0-3.149,1.243-3.149,3.82v17.467
			c0,2.576,0.763,3.817,3.149,3.817c2.15,0,2.865-1.24,2.865-3.483v-4.151h5.916v3.963c0,4.869-2.862,8.829-8.781,8.829
			c-6.202,0-9.067-3.963-9.067-8.829v-17.753c0-4.869,2.865-8.829,9.067-8.829c5.919,0,8.781,4.294,8.781,9.449v2.528
			C580.972,175.586,575.057,175.586,575.057,175.586z"/>
		<path style="fill:#FFFFFF;" d="M587.458,198.542v-34.456H603.3v5.155h-9.926v8.877h7.639v5.155h-7.639v10.12h10.597v5.155h-16.513
			L587.458,198.542L587.458,198.542z"/>
		<path style="fill:#FFFFFF;" d="M608.828,198.542v-34.456h5.919v29.304h9.306v5.155h-15.225V198.542z"/>
		<path style="fill:#FFFFFF;" d="M627.86,198.542v-34.456h5.919v29.304h9.306v5.155H627.86V198.542z"/>
		<path style="fill:#FFFFFF;" d="M647.181,198.542v-34.456h15.845v5.155H653.1v8.877h7.636v5.155H653.1v10.12h10.594v5.155h-16.513
			L647.181,198.542L647.181,198.542z"/>
		<path style="fill:#FFFFFF;" d="M668.84,198.542v-34.456h5.489l7.207,19.712h0.095v-19.712h5.346v34.457h-5.155l-7.538-21.525
			h-0.095v21.525h-5.349V198.542z"/>
		<path style="fill:#FFFFFF;" d="M696.606,169.238h-5.728v-5.152h17.374v5.155h-5.728v29.304h-5.919L696.606,169.238
			L696.606,169.238z"/>
		<path style="fill:#FFFFFF;" d="M711.825,198.542v-5.632h5.632v5.632C717.457,198.542,711.825,198.542,711.825,198.542z"/>
		<path style="fill:#FFFFFF;" d="M729.429,169.715l-3.292,5.919h-2.531l2.341-5.919h-2.15v-5.629h5.632V169.715L729.429,169.715z
			 M738.257,169.715l-3.292,5.919h-2.529l2.338-5.919h-2.15v-5.629h5.633V169.715z"/>
		<path style="fill:#FFF8DA;" d="M418.508,242.182h-4.291v-3.861h13.015v3.861h-4.288v21.957h-4.434v-21.957H418.508z"/>
		<path style="fill:#FFF8DA;" d="M430.033,264.14v-25.819h4.434v10.513h4.72v-10.513h4.434v25.819h-4.434v-11.444h-4.72v11.444
			H430.033z"/>
		<path style="fill:#FFF8DA;" d="M448.102,264.14v-25.819h11.87v3.861h-7.439v6.649h5.722v3.861h-5.722v7.579h7.94v3.861h-12.371
			L448.102,264.14L448.102,264.14z"/>
		<path style="fill:#FFF8DA;" d="M479.979,238.321h3.647l3.006,16.45h0.069l2.469-16.45h4.148l-4.538,25.819h-3.718l-3.22-17.058
			h-0.069l-3.006,17.058h-3.718l-4.902-25.819h4.151l2.716,16.45h0.072L479.979,238.321z"/>
		<path style="fill:#FFF8DA;" d="M500.765,264.14h-4.434v-25.819h6.223c4.971,0,7.511,2.111,7.511,7.618
			c0,4.148-1.61,5.829-3.11,6.509l3.754,11.694h-4.505l-3.149-10.692c-0.573,0.072-1.503,0.107-2.29,0.107V264.14z M500.765,249.908
			h1.571c2.397,0,3.292-0.895,3.292-3.969c0-3.077-0.895-3.972-3.292-3.972h-1.571V249.908z"/>
		<path style="fill:#FFF8DA;" d="M516.976,264.14h-4.291l4.759-25.819h5.507l4.756,25.819h-4.291l-0.787-5.722h-4.863
			L516.976,264.14z M518.404,254.556h3.575l-1.753-11.086h-0.069L518.404,254.556z"/>
		<path style="fill:#FFF8DA;" d="M530.465,264.14v-25.819h6.366c5.471,0,8.012,2.111,8.012,7.618c0,5.507-2.54,7.618-8.012,7.618
			h-1.932v10.585h-4.434V264.14z M534.899,249.908h1.717c2.898,0,3.79-0.895,3.79-3.969c0-3.077-0.895-3.972-3.79-3.972h-1.717
			V249.908z"/>
	</g>
</g>
<g id="nyt_x5F_exporter_x5F_info" style="display:none;">
</g>
</svg>
