<?xml version="1.0" encoding="iso-8859-1"?>
<!-- Generator: Adobe Illustrator 17.1.0, SVG Export Plug-In . SVG Version: 6.00 Build 0)  -->
<!DOCTYPE svg PUBLIC "-//W3C//DTD SVG 1.1//EN" "http://www.w3.org/Graphics/SVG/1.1/DTD/svg11.dtd">
<svg version="1.1" xmlns="http://www.w3.org/2000/svg" xmlns:xlink="http://www.w3.org/1999/xlink" x="0px" y="0px"
	 viewBox="0 0 300 187.812" style="enable-background:new 0 0 300 187.812;" xml:space="preserve">
<g id="Layer_1">
	<g>
		<path style="fill:#FFFFFF;" d="M6.482,6.548l1.104-1.985h0.849L7.651,6.548h0.72v1.889H6.482V6.548z M9.443,6.548l1.104-1.985
			h0.849l-0.784,1.985h0.72v1.889H9.443V6.548z"/>
		<path style="fill:#FFFFFF;" d="M14.739,16.28h-1.921l2.129-11.557h2.465l2.129,11.557H17.62l-0.352-2.561h-2.178L14.739,16.28z
			 M15.379,11.991h1.601l-0.784-4.962h-0.031L15.379,11.991z"/>
		<path style="fill:#FFFFFF;" d="M24.562,4.724h2.945c2.049,0,3.138,1.121,3.138,3.489v4.578c0,2.369-1.089,3.489-3.138,3.489
			h-2.945V4.724z M26.547,14.647h0.688c1.057,0,1.425-0.4,1.425-1.617V7.973c0-1.217-0.368-1.617-1.425-1.617h-0.688V14.647z"/>
		<path style="fill:#FFFFFF;" d="M32.994,16.28V4.724h1.984V16.28H32.994z"/>
		<path style="fill:#FFFFFF;" d="M40.947,7.573c-0.08-0.992-0.608-1.281-1.057-1.281c-0.64,0-0.992,0.417-0.992,1.137
			c0,1.969,4.033,2.913,4.033,6.05c0,1.905-1.28,2.961-3.137,2.961c-1.841,0-2.897-1.473-2.978-3.201l1.889-0.272
			c0.08,1.168,0.545,1.745,1.185,1.745c0.688,0,1.152-0.368,1.152-1.056c0-2.289-4.033-2.897-4.033-6.21
			c0-1.841,1.12-2.881,3.073-2.881c1.616,0,2.577,1.168,2.753,2.801L40.947,7.573z"/>
		<path style="fill:#FFFFFF;" d="M45.746,6.452h-1.921V4.724h5.826v1.729H47.73v9.828h-1.984V6.452z"/>
		<path style="fill:#FFFFFF;" d="M51.249,16.28V4.724h1.985V16.28H51.249z"/>
		<path style="fill:#FFFFFF;" d="M55.585,16.28V4.724h1.841l2.417,6.611h0.032V4.724h1.793V16.28h-1.729L57.41,9.061h-0.032v7.219
			H55.585z"/>
		<path style="fill:#FFFFFF;" d="M67.747,8.581V7.684c0-0.976-0.448-1.393-0.961-1.393c-0.8,0-1.056,0.417-1.056,1.281v5.858
			c0,0.864,0.256,1.28,1.056,1.28c0.721,0,0.961-0.416,0.961-1.168V12.15h1.984v1.329c0,1.633-0.96,2.961-2.945,2.961
			c-2.08,0-3.041-1.329-3.041-2.961V7.525c0-1.633,0.961-2.961,3.041-2.961c1.985,0,2.945,1.44,2.945,3.169v0.848H67.747z"/>
		<path style="fill:#FFFFFF;" d="M73.058,6.452h-1.921V4.724h5.827v1.729h-1.921v9.828h-1.985V6.452z"/>
		<path style="fill:#FFFFFF;" d="M78.561,16.28V4.724h1.985V16.28H78.561z"/>
		<path style="fill:#FFFFFF;" d="M86.947,4.724h1.952L86.482,16.28h-1.984L82.081,4.724h1.952l1.441,8.019h0.031L86.947,4.724z"/>
		<path style="fill:#FFFFFF;" d="M90.161,16.28V4.724h5.313v1.729h-3.329V9.43h2.562v1.729h-2.562v3.394h3.554v1.729H90.161z"/>
		<path style="fill:#FFFFFF;" d="M102.288,6.452h-1.921V4.724h5.827v1.729h-1.921v9.828h-1.985V6.452z"/>
		<path style="fill:#FFFFFF;" d="M107.52,7.525c0-1.633,0.961-2.961,3.041-2.961c2.081,0,3.042,1.329,3.042,2.961v5.954
			c0,1.633-0.961,2.961-3.042,2.961c-2.08,0-3.041-1.329-3.041-2.961V7.525z M109.505,13.431c0,0.864,0.256,1.28,1.056,1.28
			c0.801,0,1.057-0.416,1.057-1.28V7.573c0-0.864-0.256-1.281-1.057-1.281c-0.8,0-1.056,0.417-1.056,1.281V13.431z"/>
		<path style="fill:#FFFFFF;" d="M115.68,16.28V4.724h1.841l2.417,6.611h0.032V4.724h1.793V16.28h-1.729l-2.528-7.219h-0.032v7.219
			H115.68z"/>
		<path style="fill:#FFFFFF;" d="M123.84,16.28V4.724h5.313v1.729h-3.329V9.43h2.562v1.729h-2.562v3.394h3.554v1.729H123.84z"/>
		<path style="fill:#FFFFFF;" d="M132.864,16.28l-1.104,1.985h-0.849l0.784-1.985h-0.72v-1.889h1.889V16.28z"/>
		<path style="fill:#FFFFFF;" d="M138.526,16.28V4.724h5.314v1.729h-3.329V9.43h2.561v1.729h-2.561v3.394h3.553v1.729H138.526z"/>
		<path style="fill:#FFFFFF;" d="M145.79,4.724h2.945c2.049,0,3.138,1.121,3.138,3.489v4.578c0,2.369-1.089,3.489-3.138,3.489
			h-2.945V4.724z M147.775,14.647h0.688c1.057,0,1.425-0.4,1.425-1.617V7.973c0-1.217-0.368-1.617-1.425-1.617h-0.688V14.647z"/>
		<path style="fill:#FFFFFF;" d="M156.688,10.422h3.249v5.858h-0.96l-0.368-0.864c-0.593,0.704-1.072,1.024-2.001,1.024
			c-1.568,0-2.657-1.121-2.657-2.961V7.525c0-1.633,0.961-2.961,2.913-2.961c1.985,0,2.978,1.44,2.978,3.169v0.736h-1.889
			c0-1.729-0.353-2.177-1.137-2.177c-0.48,0-0.88,0.289-0.88,1.265v5.938c0,0.736,0.239,1.216,0.928,1.216
			c0.801,0,1.089-0.448,1.089-1.601v-1.12h-1.265V10.422z"/>
		<path style="fill:#FFFFFF;" d="M165.695,16.28h-1.984v-4.802l-2.401-6.755h2.017l1.393,4.402h0.032l1.329-4.402h2.017
			l-2.401,6.755V16.28z"/>
		<path style="fill:#FFFFFF;" d="M173.086,16.28V4.724h2.849c2.449,0,3.586,0.944,3.586,3.409c0,2.465-1.137,3.41-3.586,3.41h-0.864
			v4.738H173.086z M175.07,9.91h0.769c1.297,0,1.696-0.4,1.696-1.777c0-1.376-0.399-1.776-1.696-1.776h-0.769V9.91z"/>
		<path style="fill:#FFFFFF;" d="M181.245,16.28V4.724h5.314v1.729h-3.329V9.43h2.561v1.729h-2.561v3.394h3.553v1.729H181.245z"/>
		<path style="fill:#FFFFFF;" d="M190.494,16.28h-1.985V4.724h2.785c2.225,0,3.361,0.944,3.361,3.409
			c0,1.857-0.72,2.609-1.393,2.914l1.681,5.234h-2.017l-1.408-4.786c-0.257,0.032-0.673,0.048-1.024,0.048V16.28z M190.494,9.91
			h0.704c1.072,0,1.473-0.4,1.473-1.777c0-1.376-0.4-1.776-1.473-1.776h-0.704V9.91z"/>
		<path style="fill:#FFFFFF;" d="M196.669,16.28V4.724h5.538v1.729h-3.553V9.43h2.656v1.729h-2.656v5.122H196.669z"/>
		<path style="fill:#FFFFFF;" d="M203.933,7.525c0-1.633,0.96-2.961,3.041-2.961s3.041,1.329,3.041,2.961v5.954
			c0,1.633-0.96,2.961-3.041,2.961s-3.041-1.329-3.041-2.961V7.525z M205.917,13.431c0,0.864,0.256,1.28,1.057,1.28
			c0.8,0,1.057-0.416,1.057-1.28V7.573c0-0.864-0.257-1.281-1.057-1.281c-0.801,0-1.057,0.417-1.057,1.281V13.431z"/>
		<path style="fill:#FFFFFF;" d="M214.077,16.28h-1.984V4.724h2.785c2.225,0,3.361,0.944,3.361,3.409
			c0,1.857-0.721,2.609-1.393,2.914l1.681,5.234h-2.018l-1.408-4.786c-0.256,0.032-0.672,0.048-1.024,0.048V16.28z M214.077,9.91
			h0.704c1.072,0,1.473-0.4,1.473-1.777c0-1.376-0.4-1.776-1.473-1.776h-0.704V9.91z"/>
		<path style="fill:#FFFFFF;" d="M228.208,4.724V16.28h-1.729V7.252h-0.032l-1.793,9.028h-0.96l-1.793-9.028h-0.032v9.028h-1.729
			V4.724h2.609l1.408,6.755h0.032l1.408-6.755H228.208z"/>
		<path style="fill:#FFFFFF;" d="M231.341,16.28h-1.921l2.129-11.557h2.465l2.129,11.557h-1.921l-0.352-2.561h-2.178L231.341,16.28z
			 M231.98,11.991h1.601l-0.784-4.962h-0.031L231.98,11.991z"/>
		<path style="fill:#FFFFFF;" d="M237.452,16.28V4.724h1.841l2.417,6.611h0.032V4.724h1.793V16.28h-1.729l-2.528-7.219h-0.032v7.219
			H237.452z"/>
		<path style="fill:#FFFFFF;" d="M249.614,8.581V7.684c0-0.976-0.448-1.393-0.961-1.393c-0.8,0-1.056,0.417-1.056,1.281v5.858
			c0,0.864,0.256,1.28,1.056,1.28c0.721,0,0.961-0.416,0.961-1.168V12.15h1.984v1.329c0,1.633-0.96,2.961-2.945,2.961
			c-2.08,0-3.041-1.329-3.041-2.961V7.525c0-1.633,0.961-2.961,3.041-2.961c1.985,0,2.945,1.44,2.945,3.169v0.848H249.614z"/>
		<path style="fill:#FFFFFF;" d="M253.772,16.28V4.724h5.313v1.729h-3.329V9.43h2.562v1.729h-2.562v3.394h3.554v1.729H253.772z"/>
		<path style="fill:#FFFFFF;" d="M264.653,7.573c-0.08-0.992-0.608-1.281-1.057-1.281c-0.64,0-0.992,0.417-0.992,1.137
			c0,1.969,4.033,2.913,4.033,6.05c0,1.905-1.28,2.961-3.137,2.961c-1.841,0-2.897-1.473-2.978-3.201l1.889-0.272
			c0.08,1.168,0.545,1.745,1.185,1.745c0.688,0,1.152-0.368,1.152-1.056c0-2.289-4.033-2.897-4.033-6.21
			c0-1.841,1.12-2.881,3.073-2.881c1.616,0,2.577,1.168,2.753,2.801L264.653,7.573z"/>
		<path style="fill:#FFFFFF;" d="M273.164,16.28h-1.921l2.129-11.557h2.465l2.129,11.557h-1.921l-0.352-2.561h-2.178L273.164,16.28z
			 M273.804,11.991h1.601l-0.784-4.962h-0.031L273.804,11.991z"/>
		<path style="fill:#FFFFFF;" d="M279.274,16.28V4.724h1.841l2.417,6.611h0.032V4.724h1.793V16.28h-1.729L281.1,9.061h-0.032v7.219
			H279.274z"/>
		<path style="fill:#FFFFFF;" d="M287.435,4.724h2.945c2.049,0,3.138,1.121,3.138,3.489v4.578c0,2.369-1.089,3.489-3.138,3.489
			h-2.945V4.724z M289.42,14.647h0.688c1.057,0,1.425-0.4,1.425-1.617V7.973c0-1.217-0.368-1.617-1.425-1.617h-0.688V14.647z"/>
		<path style="fill:#FFFFFF;" d="M63.714,27.573c-0.079-0.992-0.607-1.281-1.056-1.281c-0.641,0-0.993,0.417-0.993,1.137
			c0,1.969,4.034,2.913,4.034,6.05c0,1.905-1.28,2.961-3.138,2.961c-1.841,0-2.896-1.473-2.977-3.201l1.889-0.272
			c0.08,1.168,0.544,1.745,1.185,1.745c0.688,0,1.152-0.368,1.152-1.056c0-2.289-4.034-2.897-4.034-6.21
			c0-1.841,1.121-2.881,3.073-2.881c1.617,0,2.577,1.168,2.754,2.801L63.714,27.573z"/>
		<path style="fill:#FFFFFF;" d="M67.361,24.724h1.984v8.724c0,0.848,0.336,1.264,1.057,1.264c0.72,0,1.057-0.416,1.057-1.264
			v-8.724h1.984v8.644c0,1.985-1.152,3.073-3.041,3.073s-3.041-1.088-3.041-3.073V24.724z"/>
		<path style="fill:#FFFFFF;" d="M75.521,36.28V24.724h2.85c2.448,0,3.585,0.944,3.585,3.409c0,2.465-1.137,3.41-3.585,3.41h-0.864
			v4.738H75.521z M77.506,29.91h0.768c1.297,0,1.697-0.4,1.697-1.777c0-1.376-0.4-1.776-1.697-1.776h-0.768V29.91z"/>
		<path style="fill:#FFFFFF;" d="M83.681,36.28V24.724h5.314v1.729h-3.329v2.978h2.561v1.729h-2.561v3.394h3.553v1.729H83.681z"/>
		<path style="fill:#FFFFFF;" d="M92.93,36.28h-1.985V24.724h2.785c2.225,0,3.361,0.944,3.361,3.409c0,1.857-0.72,2.609-1.393,2.914
			l1.681,5.234h-2.017l-1.408-4.786c-0.257,0.032-0.673,0.048-1.024,0.048V36.28z M92.93,29.91h0.704c1.072,0,1.473-0.4,1.473-1.777
			c0-1.376-0.4-1.776-1.473-1.776H92.93V29.91z"/>
		<path style="fill:#FFFFFF;" d="M99.376,36.28V24.724h1.985V36.28H99.376z"/>
		<path style="fill:#FFFFFF;" d="M103.713,27.525c0-1.633,0.96-2.961,3.041-2.961s3.041,1.329,3.041,2.961v5.954
			c0,1.633-0.96,2.961-3.041,2.961s-3.041-1.329-3.041-2.961V27.525z M105.697,33.431c0,0.864,0.256,1.28,1.057,1.28
			c0.8,0,1.057-0.416,1.057-1.28v-5.858c0-0.864-0.257-1.281-1.057-1.281c-0.801,0-1.057,0.417-1.057,1.281V33.431z"/>
		<path style="fill:#FFFFFF;" d="M113.857,36.28h-1.984V24.724h2.785c2.225,0,3.361,0.944,3.361,3.409
			c0,1.857-0.721,2.609-1.393,2.914l1.681,5.234h-2.018l-1.408-4.786c-0.256,0.032-0.672,0.048-1.024,0.048V36.28z M113.857,29.91
			h0.704c1.072,0,1.473-0.4,1.473-1.777c0-1.376-0.4-1.776-1.473-1.776h-0.704V29.91z"/>
		<path style="fill:#FFFFFF;" d="M127.746,28.581v-0.896c0-0.976-0.448-1.393-0.961-1.393c-0.8,0-1.056,0.417-1.056,1.281v5.858
			c0,0.864,0.256,1.28,1.056,1.28c0.721,0,0.961-0.416,0.961-1.168V32.15h1.984v1.329c0,1.633-0.96,2.961-2.945,2.961
			c-2.08,0-3.041-1.329-3.041-2.961v-5.954c0-1.633,0.961-2.961,3.041-2.961c1.985,0,2.945,1.44,2.945,3.169v0.848H127.746z"/>
		<path style="fill:#FFFFFF;" d="M132.177,36.28V24.724h1.984V36.28H132.177z"/>
		<path style="fill:#FFFFFF;" d="M136.513,36.28V24.724h1.841l2.417,6.611h0.031v-6.611h1.793V36.28h-1.729l-2.529-7.219h-0.032
			v7.219H136.513z"/>
		<path style="fill:#FFFFFF;" d="M144.673,36.28V24.724h5.313v1.729h-3.329v2.978h2.562v1.729h-2.562v3.394h3.554v1.729H144.673z"/>
		<path style="fill:#FFFFFF;" d="M159.892,24.724V36.28h-1.729v-9.028h-0.032l-1.793,9.028h-0.96l-1.793-9.028h-0.032v9.028h-1.729
			V24.724h2.609l1.408,6.755h0.032l1.408-6.755H159.892z"/>
		<path style="fill:#FFFFFF;" d="M163.024,36.28h-1.921l2.129-11.557h2.466l2.128,11.557h-1.92l-0.353-2.561h-2.177L163.024,36.28z
			 M163.665,31.991h1.601l-0.784-4.962h-0.032L163.665,31.991z"/>
		<path style="fill:#FFFFFF;" d="M170.288,26.452h-1.921v-1.729h5.827v1.729h-1.921v9.828h-1.985V26.452z"/>
		<path style="fill:#FFFFFF;" d="M175.52,27.525c0-1.633,0.961-2.961,3.041-2.961c2.081,0,3.042,1.329,3.042,2.961v5.954
			c0,1.633-0.961,2.961-3.042,2.961c-2.08,0-3.041-1.329-3.041-2.961V27.525z M177.505,33.431c0,0.864,0.256,1.28,1.056,1.28
			c0.801,0,1.057-0.416,1.057-1.28v-5.858c0-0.864-0.256-1.281-1.057-1.281c-0.8,0-1.056,0.417-1.056,1.281V33.431z"/>
		<path style="fill:#FFFFFF;" d="M186.417,30.422h3.249v5.858h-0.96l-0.368-0.864c-0.593,0.704-1.072,1.024-2.001,1.024
			c-1.568,0-2.657-1.121-2.657-2.961v-5.954c0-1.633,0.961-2.961,2.913-2.961c1.985,0,2.978,1.44,2.978,3.169v0.736h-1.889
			c0-1.729-0.353-2.177-1.137-2.177c-0.48,0-0.88,0.289-0.88,1.265v5.938c0,0.736,0.239,1.216,0.928,1.216
			c0.801,0,1.089-0.448,1.089-1.601v-1.12h-1.265V30.422z"/>
		<path style="fill:#FFFFFF;" d="M193.824,36.28h-1.984V24.724h2.785c2.225,0,3.361,0.944,3.361,3.409
			c0,1.857-0.721,2.609-1.393,2.914l1.681,5.234h-2.018l-1.408-4.786c-0.256,0.032-0.672,0.048-1.024,0.048V36.28z M193.824,29.91
			h0.704c1.072,0,1.473-0.4,1.473-1.777c0-1.376-0.4-1.776-1.473-1.776h-0.704V29.91z"/>
		<path style="fill:#FFFFFF;" d="M201.152,36.28h-1.921l2.129-11.557h2.465l2.129,11.557h-1.921l-0.352-2.561h-2.178L201.152,36.28z
			 M201.792,31.991h1.601l-0.784-4.962h-0.031L201.792,31.991z"/>
		<path style="fill:#FFFFFF;" d="M207.264,36.28V24.724h2.849c2.449,0,3.586,0.944,3.586,3.409c0,2.465-1.137,3.41-3.586,3.41
			h-0.864v4.738H207.264z M209.248,29.91h0.769c1.297,0,1.696-0.4,1.696-1.777c0-1.376-0.399-1.776-1.696-1.776h-0.769V29.91z"/>
		<path style="fill:#FFFFFF;" d="M215.423,36.28V24.724h1.985v4.706h2.112v-4.706h1.985V36.28h-1.985v-5.122h-2.112v5.122H215.423z"
			/>
		<path style="fill:#FFFFFF;" d="M227.169,36.28h-1.985v-4.802l-2.4-6.755h2.017l1.393,4.402h0.032l1.328-4.402h2.017l-2.4,6.755
			V36.28z"/>
		<path style="fill:#FFFFFF;" d="M230.719,36.28v-1.889h1.889v1.889H230.719z"/>
		<path style="fill:#FFFFFF;" d="M236.623,26.612l-1.104,1.985h-0.849l0.785-1.985h-0.721v-1.889h1.889V26.612z M239.584,26.612
			l-1.104,1.985h-0.848l0.784-1.985h-0.721v-1.889h1.889V26.612z"/>
		<path style="fill:#FFF8DA;" d="M91.215,50.916h-1.438v-1.295h4.365v1.295h-1.439v7.364h-1.487V50.916z"/>
		<path style="fill:#FFF8DA;" d="M95.08,58.28v-8.659h1.486v3.526h1.584v-3.526h1.486v8.659H98.15v-3.838h-1.584v3.838H95.08z"/>
		<path style="fill:#FFF8DA;" d="M101.14,58.28v-8.659h3.981v1.295h-2.494v2.23h1.919v1.295h-1.919v2.542h2.662v1.295H101.14z"/>
		<path style="fill:#FFF8DA;" d="M109.251,58.28v-8.659h1.487v3.526h1.583v-3.526h1.487v8.659h-1.487v-3.838h-1.583v3.838H109.251z"
			/>
		<path style="fill:#FFF8DA;" d="M115.311,51.72c0-1.223,0.72-2.219,2.279-2.219c1.559,0,2.278,0.996,2.278,2.219v4.462
			c0,1.223-0.72,2.219-2.278,2.219c-1.56,0-2.279-0.996-2.279-2.219V51.72z M116.798,56.145c0,0.647,0.191,0.959,0.792,0.959
			c0.6,0,0.791-0.312,0.791-0.959v-4.39c0-0.647-0.191-0.959-0.791-0.959c-0.601,0-0.792,0.312-0.792,0.959V56.145z"/>
		<path style="fill:#FFF8DA;" d="M121.299,58.28v-8.659h1.487v7.364h2.339v1.295H121.299z"/>
		<path style="fill:#FFF8DA;" d="M126.026,58.28v-8.659h1.487v7.364h2.339v1.295H126.026z"/>
		<path style="fill:#FFF8DA;" d="M133.514,58.28h-1.487v-3.598l-1.799-5.061h1.511l1.043,3.298h0.024l0.995-3.298h1.512
			l-1.799,5.061V58.28z"/>
		<path style="fill:#FFF8DA;" d="M138.793,49.621h1.224l1.007,5.517h0.024l0.827-5.517h1.392l-1.523,8.659h-1.247l-1.079-5.721
			h-0.024l-1.007,5.721h-1.248l-1.643-8.659h1.391l0.912,5.517h0.023L138.793,49.621z"/>
		<path style="fill:#FFF8DA;" d="M144.278,51.72c0-1.223,0.72-2.219,2.279-2.219c1.559,0,2.278,0.996,2.278,2.219v4.462
			c0,1.223-0.72,2.219-2.278,2.219c-1.56,0-2.279-0.996-2.279-2.219V51.72z M145.766,56.145c0,0.647,0.191,0.959,0.792,0.959
			c0.6,0,0.791-0.312,0.791-0.959v-4.39c0-0.647-0.191-0.959-0.791-0.959c-0.601,0-0.792,0.312-0.792,0.959V56.145z"/>
		<path style="fill:#FFF8DA;" d="M150.339,51.72c0-1.223,0.719-2.219,2.278-2.219s2.278,0.996,2.278,2.219v4.462
			c0,1.223-0.719,2.219-2.278,2.219s-2.278-0.996-2.278-2.219V51.72z M151.825,56.145c0,0.647,0.192,0.959,0.792,0.959
			s0.792-0.312,0.792-0.959v-4.39c0-0.647-0.192-0.959-0.792-0.959s-0.792,0.312-0.792,0.959V56.145z"/>
		<path style="fill:#FFF8DA;" d="M156.398,49.621h2.207c1.535,0,2.351,0.839,2.351,2.614v3.43c0,1.775-0.815,2.615-2.351,2.615
			h-2.207V49.621z M157.886,57.057h0.516c0.792,0,1.067-0.3,1.067-1.211v-3.79c0-0.912-0.275-1.211-1.067-1.211h-0.516V57.057z"/>
		<path style="fill:#FFF8DA;" d="M166.669,58.28h-1.487v-8.659h2.087c1.667,0,2.519,0.708,2.519,2.555
			c0,1.391-0.54,1.955-1.043,2.183l1.259,3.922h-1.511l-1.056-3.586c-0.192,0.024-0.504,0.036-0.768,0.036V58.28z M166.669,53.507
			h0.527c0.804,0,1.104-0.3,1.104-1.331c0-1.032-0.3-1.332-1.104-1.332h-0.527V53.507z"/>
		<path style="fill:#FFF8DA;" d="M171.242,58.28v-8.659h3.981v1.295h-2.495v2.23h1.919v1.295h-1.919v2.542h2.663v1.295H171.242z"/>
		<path style="fill:#FFF8DA;" d="M176.63,58.28v-8.659h2.135c1.835,0,2.687,0.708,2.687,2.555c0,1.847-0.852,2.555-2.687,2.555
			h-0.648v3.55H176.63z M178.116,53.507h0.576c0.972,0,1.271-0.3,1.271-1.331c0-1.032-0.3-1.332-1.271-1.332h-0.576V53.507z"/>
		<path style="fill:#FFF8DA;" d="M182.689,51.72c0-1.223,0.72-2.219,2.279-2.219c1.559,0,2.278,0.996,2.278,2.219v4.462
			c0,1.223-0.72,2.219-2.278,2.219c-1.56,0-2.279-0.996-2.279-2.219V51.72z M184.177,56.145c0,0.647,0.191,0.959,0.792,0.959
			c0.6,0,0.791-0.312,0.791-0.959v-4.39c0-0.647-0.191-0.959-0.791-0.959c-0.601,0-0.792,0.312-0.792,0.959V56.145z"/>
		<path style="fill:#FFF8DA;" d="M190.236,58.28h-1.486v-8.659h2.087c1.667,0,2.519,0.708,2.519,2.555
			c0,1.391-0.54,1.955-1.044,2.183l1.26,3.922h-1.512l-1.056-3.586c-0.191,0.024-0.503,0.036-0.768,0.036V58.28z M190.236,53.507
			h0.528c0.804,0,1.104-0.3,1.104-1.331c0-1.032-0.3-1.332-1.104-1.332h-0.528V53.507z"/>
		<path style="fill:#FFF8DA;" d="M195.673,50.916h-1.438v-1.295h4.365v1.295h-1.439v7.364h-1.487V50.916z"/>
		<path style="fill:#FFF8DA;" d="M199.538,58.28v-8.659h3.981v1.295h-2.495v2.23h1.919v1.295h-1.919v2.542h2.663v1.295H199.538z"/>
		<path style="fill:#FFF8DA;" d="M206.412,58.28h-1.487v-8.659h2.087c1.667,0,2.519,0.708,2.519,2.555
			c0,1.391-0.54,1.955-1.043,2.183l1.259,3.922h-1.511l-1.056-3.586c-0.192,0.024-0.504,0.036-0.768,0.036V58.28z M206.412,53.507
			h0.527c0.804,0,1.104-0.3,1.104-1.331c0-1.032-0.3-1.332-1.104-1.332h-0.527V53.507z"/>
	</g>
</g>
<g id="nyt_x5F_exporter_x5F_info" style="display:none;">
</g>
</svg>
