<?xml version="1.0" encoding="iso-8859-1"?>
<!-- Generator: Adobe Illustrator 17.1.0, SVG Export Plug-In . SVG Version: 6.00 Build 0)  -->
<!DOCTYPE svg PUBLIC "-//W3C//DTD SVG 1.1//EN" "http://www.w3.org/Graphics/SVG/1.1/DTD/svg11.dtd">
<svg version="1.1" id="Layer_1" xmlns="http://www.w3.org/2000/svg" xmlns:xlink="http://www.w3.org/1999/xlink" x="0px" y="0px"
	 viewBox="0 0 960 560" style="enable-background:new 0 0 960 560;" xml:space="preserve">
<g id="Layer_1_1_">
	<g>
		<path style="fill:#FFFFFF;" d="M67.353,169.524l3.292-5.919h2.528l-2.338,5.919h2.15v5.632h-5.632
			C67.353,175.157,67.353,169.524,67.353,169.524z M76.182,169.524l3.292-5.919h2.531l-2.341,5.919h2.15v5.632h-5.632
			C76.182,175.157,76.182,169.524,76.182,169.524z"/>
		<path style="fill:#FFFFFF;" d="M94.451,198.542h-5.916v-34.456h8.304c6.634,0,10.022,2.815,10.022,10.165
			c0,5.537-2.15,7.779-4.154,8.689l5.012,15.606h-6.017l-4.198-14.27c-0.763,0.095-2.004,0.143-3.053,0.143
			C94.451,184.418,94.451,198.542,94.451,198.542z M94.451,179.549h2.099c3.196,0,4.392-1.193,4.392-5.298
			c0-4.103-1.193-5.296-4.392-5.296h-2.099V179.549z"/>
		<path style="fill:#FFFFFF;" d="M112.863,172.437c0-4.869,2.865-8.829,9.067-8.829c6.205,0,9.07,3.963,9.07,8.829v17.753
			c0,4.869-2.865,8.829-9.07,8.829c-6.202,0-9.067-3.963-9.067-8.829V172.437z M118.781,190.047c0,2.576,0.763,3.817,3.149,3.817
			c2.388,0,3.152-1.24,3.152-3.817V172.58c0-2.576-0.763-3.82-3.152-3.82c-2.385,0-3.149,1.243-3.149,3.82V190.047z"/>
		<path style="fill:#FFFFFF;" d="M137.193,164.086h8.781c6.348,0,9.163,3.244,9.163,9.115c0,2.961-1.24,6.062-4.106,7.207
			c3.009,1.336,4.777,3.724,4.777,8.161c0,5.68-2.531,9.974-9.258,9.974h-9.357V164.086z M143.115,178.21h2.147
			c2.245,0,3.963-1.527,3.963-4.392c0-3.196-1.243-4.866-3.867-4.866h-2.242L143.115,178.21L143.115,178.21z M143.115,193.673h2.481
			c3.152,0,4.294-1.813,4.294-5.296c0-3.533-1.336-5.298-4.869-5.298h-1.908v10.594
			C143.113,193.673,143.115,193.673,143.115,193.673z"/>
		<path style="fill:#FFFFFF;" d="M161.524,198.542v-34.456h15.845v5.155h-9.926v8.877h7.636v5.155h-7.636v10.12h10.594v5.155
			h-16.513V198.542z"/>
		<path style="fill:#FFFFFF;" d="M189.099,198.542h-5.916v-34.456h8.304c6.634,0,10.022,2.815,10.022,10.165
			c0,5.537-2.15,7.779-4.154,8.689l5.012,15.606h-6.017l-4.198-14.27c-0.763,0.095-2.004,0.143-3.053,0.143V198.542L189.099,198.542
			z M189.099,179.549h2.099c3.196,0,4.392-1.193,4.392-5.298c0-4.103-1.193-5.296-4.392-5.296h-2.099V179.549z"/>
		<path style="fill:#FFFFFF;" d="M210.952,169.238h-5.728v-5.152h17.371v5.155h-5.728v29.304h-5.916L210.952,169.238
			L210.952,169.238z"/>
		<path style="fill:#FFFFFF;" d="M237.614,198.542v-34.456h8.498c7.299,0,10.689,2.815,10.689,10.165
			c0,7.35-3.39,10.168-10.689,10.168h-2.576v14.127h-5.922V198.542z M243.533,179.549h2.29c3.867,0,5.06-1.193,5.06-5.298
			c0-4.103-1.193-5.296-5.06-5.296h-2.29V179.549z"/>
		<path style="fill:#FFFFFF;" d="M265.38,198.542h-5.728L266,164.083h7.353l6.345,34.46h-5.725l-1.053-7.636h-6.491L265.38,198.542z
			 M267.291,185.754h4.774l-2.338-14.795h-0.095L267.291,185.754z"/>
		<path style="fill:#FFFFFF;" d="M287.039,169.238h-5.728v-5.152h17.374v5.155h-5.728v29.304h-5.919L287.039,169.238
			L287.039,169.238z"/>
		<path style="fill:#FFFFFF;" d="M306.074,169.238h-5.728v-5.152h17.371v5.155h-5.728v29.304h-5.916L306.074,169.238
			L306.074,169.238z"/>
		<path style="fill:#FFFFFF;" d="M322.482,198.542v-34.456h5.919v34.457h-5.919V198.542z"/>
		<path style="fill:#FFFFFF;" d="M335.414,198.542v-34.456h5.489l7.207,19.712h0.092v-19.712h5.346v34.457h-5.155l-7.541-21.525
			h-0.095v21.525h-5.343V198.542z"/>
		<path style="fill:#FFFFFF;" d="M370.53,172.58c-0.239-2.958-1.813-3.82-3.152-3.82c-1.908,0-2.958,1.243-2.958,3.39
			c0,5.871,12.025,8.686,12.025,18.039c0,5.68-3.817,8.829-9.354,8.829c-5.489,0-8.638-4.392-8.88-9.544l5.632-0.811
			c0.239,3.483,1.625,5.203,3.533,5.203c2.051,0,3.435-1.097,3.435-3.149c0-6.825-12.025-8.638-12.025-18.516
			c0-5.489,3.34-8.59,9.163-8.59c4.818,0,7.684,3.483,8.209,8.352L370.53,172.58z"/>
		<path style="fill:#FFFFFF;" d="M381.401,172.437c0-4.869,2.865-8.829,9.067-8.829c6.205,0,9.07,3.963,9.07,8.829v17.753
			c0,4.869-2.865,8.829-9.07,8.829c-6.202,0-9.067-3.963-9.067-8.829V172.437z M387.32,190.047c0,2.576,0.763,3.817,3.149,3.817
			c2.388,0,3.152-1.24,3.152-3.817V172.58c0-2.576-0.763-3.82-3.152-3.82c-2.385,0-3.149,1.243-3.149,3.82V190.047z"/>
		<path style="fill:#FFFFFF;" d="M405.732,198.542v-34.456h5.489l7.207,19.712h0.095v-19.712h5.346v34.457h-5.155l-7.538-21.525
			h-0.095v21.525h-5.349V198.542z"/>
		<path style="fill:#FFFFFF;" d="M435.313,169.715l-3.292,5.919h-2.531l2.341-5.919h-2.15v-5.629h5.632V169.715L435.313,169.715z"/>
		<path style="fill:#FFFFFF;" d="M451.915,172.58c-0.239-2.958-1.813-3.82-3.152-3.82c-1.908,0-2.958,1.243-2.958,3.39
			c0,5.871,12.025,8.686,12.025,18.039c0,5.68-3.817,8.829-9.354,8.829c-5.489,0-8.638-4.392-8.88-9.544l5.632-0.811
			c0.239,3.483,1.625,5.203,3.533,5.203c2.051,0,3.435-1.097,3.435-3.149c0-6.825-12.025-8.638-12.025-18.516
			c0-5.489,3.34-8.59,9.163-8.59c4.818,0,7.684,3.483,8.209,8.352L451.915,172.58z"/>
		<path style="fill:#FFFFFF;" d="M473.855,198.542v-34.456h8.495c7.302,0,10.692,2.815,10.692,10.165
			c0,7.35-3.39,10.168-10.692,10.168h-2.576v14.127h-5.919V198.542z M479.773,179.549h2.293c3.867,0,5.057-1.193,5.057-5.298
			c0-4.103-1.19-5.296-5.057-5.296h-2.293V179.549z"/>
		<path style="fill:#FFFFFF;" d="M498.185,198.542v-34.456h15.845v5.155h-9.926v8.877h7.636v5.155h-7.636v10.12h10.594v5.155
			h-16.513V198.542z"/>
		<path style="fill:#FFFFFF;" d="M525.763,198.542h-5.919v-34.456h8.304c6.634,0,10.021,2.815,10.021,10.165
			c0,5.537-2.147,7.779-4.154,8.689l5.012,15.606h-6.014l-4.198-14.27c-0.766,0.095-2.007,0.143-3.053,0.143L525.763,198.542
			L525.763,198.542z M525.763,179.549h2.099c3.196,0,4.392-1.193,4.392-5.298c0-4.103-1.193-5.296-4.392-5.296h-2.099V179.549z"/>
		<path style="fill:#FFFFFF;" d="M544.172,198.542v-34.456h16.513v5.155h-10.594v8.877h7.919v5.155h-7.919v15.272h-5.919V198.542z"
			/>
		<path style="fill:#FFFFFF;" d="M565.831,172.437c0-4.869,2.862-8.829,9.067-8.829s9.067,3.963,9.067,8.829v17.753
			c0,4.869-2.862,8.829-9.067,8.829s-9.067-3.963-9.067-8.829V172.437z M571.75,190.047c0,2.576,0.763,3.817,3.152,3.817
			c2.385,0,3.152-1.24,3.152-3.817V172.58c0-2.576-0.766-3.82-3.152-3.82c-2.388,0-3.152,1.243-3.152,3.82V190.047z"/>
		<path style="fill:#FFFFFF;" d="M596.081,198.542h-5.916v-34.456h8.304c6.634,0,10.021,2.815,10.021,10.165
			c0,5.537-2.15,7.779-4.154,8.689l5.012,15.606h-6.017l-4.198-14.27c-0.763,0.095-2.004,0.143-3.053,0.143L596.081,198.542
			L596.081,198.542z M596.081,179.549h2.099c3.196,0,4.392-1.193,4.392-5.298c0-4.103-1.193-5.296-4.392-5.296h-2.099V179.549z"/>
		<path style="fill:#FFFFFF;" d="M638.215,164.086v34.457h-5.155v-26.92h-0.095l-5.346,26.919h-2.862l-5.346-26.919h-0.095v26.919
			h-5.155v-34.456h7.779l4.198,20.141h0.095l4.198-20.141H638.215z"/>
		<path style="fill:#FFFFFF;" d="M647.554,198.542h-5.728l6.348-34.46h7.35l6.348,34.46h-5.728l-1.05-7.636H648.6L647.554,198.542z
			 M649.462,185.754h4.774l-2.338-14.795h-0.092L649.462,185.754z"/>
		<path style="fill:#FFFFFF;" d="M665.778,198.542v-34.456h5.489l7.207,19.712h0.095v-19.712h5.346v34.457h-5.155l-7.538-21.525
			h-0.095v21.525h-5.349V198.542z"/>
		<path style="fill:#FFFFFF;" d="M702.042,175.586v-2.675c0-2.91-1.336-4.154-2.865-4.154c-2.385,0-3.149,1.243-3.149,3.82v17.467
			c0,2.576,0.763,3.817,3.149,3.817c2.15,0,2.865-1.24,2.865-3.483v-4.151h5.916v3.963c0,4.869-2.862,8.829-8.781,8.829
			c-6.202,0-9.067-3.963-9.067-8.829v-17.753c0-4.869,2.865-8.829,9.067-8.829c5.919,0,8.781,4.294,8.781,9.449v2.528
			C707.957,175.586,702.042,175.586,702.042,175.586z"/>
		<path style="fill:#FFFFFF;" d="M714.44,198.542v-34.456h15.842v5.155h-9.926v8.877h7.639v5.155h-7.639v10.12h10.597v5.155H714.44
			V198.542z"/>
		<path style="fill:#FFFFFF;" d="M753.082,198.542h-5.916v-34.456h8.304c6.634,0,10.022,2.815,10.022,10.165
			c0,5.537-2.15,7.779-4.154,8.689l5.012,15.606h-6.017l-4.198-14.27c-0.763,0.095-2.004,0.143-3.053,0.143V198.542z
			 M753.082,179.549h2.099c3.196,0,4.392-1.193,4.392-5.298c0-4.103-1.193-5.296-4.392-5.296h-2.099V179.549z"/>
		<path style="fill:#FFFFFF;" d="M771.495,198.542v-34.456h15.845v5.155h-9.926v8.877h7.636v5.155h-7.636v10.12h10.594v5.155
			h-16.513L771.495,198.542L771.495,198.542z"/>
		<path style="fill:#FFFFFF;" d="M805.227,164.086h5.823l-7.207,34.457h-5.919l-7.207-34.46h5.823l4.294,23.91h0.095
			L805.227,164.086z"/>
		<path style="fill:#FFFFFF;" d="M814.81,198.542v-34.456h15.845v5.155h-9.926v8.877h7.636v5.155h-7.636v10.12h10.594v5.155H814.81
			V198.542z"/>
		<path style="fill:#FFFFFF;" d="M839.904,198.542h-5.728l6.348-34.46h7.35l6.348,34.46h-5.728l-1.05-7.636h-6.494L839.904,198.542z
			 M841.812,185.754h4.774l-2.338-14.795h-0.092L841.812,185.754z"/>
		<path style="fill:#FFFFFF;" d="M857.839,198.542v-34.456h5.919v29.304h9.306v5.155h-15.225V198.542z"/>
		<path style="fill:#FFFFFF;" d="M887.945,172.58c-0.238-2.958-1.813-3.82-3.152-3.82c-1.908,0-2.958,1.243-2.958,3.39
			c0,5.871,12.025,8.686,12.025,18.039c0,5.68-3.817,8.829-9.354,8.829c-5.489,0-8.638-4.392-8.88-9.544l5.632-0.811
			c0.239,3.483,1.625,5.203,3.533,5.203c2.051,0,3.435-1.097,3.435-3.149c0-6.825-12.025-8.638-12.025-18.516
			c0-5.489,3.339-8.59,9.163-8.59c4.818,0,7.684,3.483,8.209,8.352L887.945,172.58z"/>
		<path style="fill:#FFFFFF;" d="M66.136,223.72h5.919v26.012c0,2.528,1.002,3.769,3.149,3.769c2.15,0,3.152-1.24,3.152-3.769
			V223.72h5.919v25.774c0,5.919-3.438,9.163-9.07,9.163s-9.067-3.244-9.067-9.163C66.136,249.494,66.136,223.72,66.136,223.72z"/>
		<path style="fill:#FFFFFF;" d="M90.467,258.176V223.72h5.489l7.207,19.712h0.095V223.72h5.346v34.457h-5.155l-7.538-21.525h-0.095
			v21.525h-5.349V258.176z"/>
		<path style="fill:#FFFFFF;" d="M118.236,228.872h-5.728v-5.155h17.371v5.155h-5.728v29.304h-5.916L118.236,228.872
			L118.236,228.872z"/>
		<path style="fill:#FFFFFF;" d="M133.833,232.071c0-4.869,2.865-8.829,9.067-8.829c6.205,0,9.07,3.963,9.07,8.829v17.753
			c0,4.869-2.865,8.829-9.07,8.829c-6.202,0-9.067-3.963-9.067-8.829V232.071z M139.755,249.681c0,2.576,0.763,3.817,3.149,3.817
			c2.388,0,3.152-1.24,3.152-3.817v-17.467c0-2.576-0.763-3.82-3.152-3.82c-2.385,0-3.149,1.243-3.149,3.82V249.681z"/>
		<path style="fill:#FFFFFF;" d="M157.88,258.176V223.72h5.916v29.304h9.306v5.155H157.88V258.176z"/>
		<path style="fill:#FFFFFF;" d="M177.199,223.72h8.781c6.11,0,9.354,3.342,9.354,10.403v13.65c0,7.064-3.244,10.403-9.354,10.403
			h-8.781V223.72z M183.118,253.307h2.051c3.152,0,4.249-1.193,4.249-4.821v-15.081c0-3.629-1.097-4.821-4.249-4.821h-2.051V253.307
			z"/>
		<path style="fill:#FFFFFF;" d="M212.598,223.72h8.781c6.11,0,9.354,3.342,9.354,10.403v13.65c0,7.064-3.244,10.403-9.354,10.403
			h-8.781V223.72z M218.516,253.307h2.051c3.152,0,4.249-1.193,4.249-4.821v-15.081c0-3.629-1.097-4.821-4.249-4.821h-2.051V253.307
			z"/>
		<path style="fill:#FFFFFF;" d="M236.928,258.176V223.72h15.845v5.155h-9.926v8.88h7.636v5.155h-7.636v10.12h10.594v5.155h-16.513
			V258.176z"/>
		<path style="fill:#FFFFFF;" d="M258.585,258.176V223.72h8.498c7.299,0,10.689,2.815,10.689,10.165
			c0,7.35-3.39,10.168-10.689,10.168h-2.576v14.127h-5.922V258.176z M264.506,239.183h2.29c3.867,0,5.06-1.193,5.06-5.298
			c0-4.103-1.193-5.296-5.06-5.296h-2.29V239.183z"/>
		<path style="fill:#FFFFFF;" d="M286.353,228.872h-5.728v-5.155H298v5.155h-5.728v29.304h-5.919V228.872z"/>
		<path style="fill:#FFFFFF;" d="M301.95,258.176V223.72h5.916v14.032h6.3V223.72h5.916v34.457h-5.916v-15.272h-6.3v15.272h-5.916
			V258.176z"/>
		<path style="fill:#FFFFFF;" d="M337.066,232.215c-0.239-2.958-1.813-3.82-3.152-3.82c-1.908,0-2.958,1.243-2.958,3.39
			c0,5.871,12.025,8.686,12.025,18.039c0,5.68-3.817,8.829-9.354,8.829c-5.489,0-8.638-4.392-8.88-9.544l5.632-0.811
			c0.239,3.483,1.625,5.203,3.533,5.203c2.051,0,3.435-1.097,3.435-3.149c0-6.825-12.025-8.638-12.025-18.516
			c0-5.489,3.34-8.59,9.163-8.59c4.818,0,7.684,3.483,8.209,8.352L337.066,232.215z"/>
		<path style="fill:#FFFFFF;" d="M359.008,232.071c0-4.869,2.862-8.829,9.067-8.829s9.067,3.963,9.067,8.829v17.753
			c0,4.869-2.862,8.829-9.067,8.829s-9.067-3.963-9.067-8.829V232.071z M364.924,249.681c0,2.576,0.763,3.817,3.152,3.817
			c2.385,0,3.152-1.24,3.152-3.817v-17.467c0-2.576-0.766-3.82-3.152-3.82c-2.388,0-3.152,1.243-3.152,3.82V249.681z"/>
		<path style="fill:#FFFFFF;" d="M383.336,258.176V223.72h16.513v5.155h-10.594v8.88h7.919v5.155h-7.919v15.272h-5.919V258.176z"/>
		<path style="fill:#FFFFFF;" d="M426.848,232.215c-0.236-2.958-1.81-3.82-3.149-3.82c-1.911,0-2.961,1.243-2.961,3.39
			c0,5.871,12.028,8.686,12.028,18.039c0,5.68-3.817,8.829-9.357,8.829c-5.489,0-8.635-4.392-8.877-9.544l5.632-0.811
			c0.239,3.483,1.622,5.203,3.533,5.203c2.051,0,3.435-1.097,3.435-3.149c0-6.825-12.028-8.638-12.028-18.516
			c0-5.489,3.342-8.59,9.163-8.59c4.821,0,7.684,3.483,8.212,8.352L426.848,232.215z"/>
		<path style="fill:#FFFFFF;" d="M437.719,258.176V223.72h15.842v5.155h-9.926v8.88h7.639v5.155h-7.639v10.12h10.597v5.155h-16.513
			V258.176z"/>
		<path style="fill:#FFFFFF;" d="M459.379,258.176V223.72h5.489l7.207,19.712h0.092V223.72h5.346v34.457h-5.155l-7.541-21.525
			h-0.095v21.525h-5.343V258.176z"/>
		<path style="fill:#FFFFFF;" d="M494.494,232.215c-0.239-2.958-1.813-3.82-3.152-3.82c-1.908,0-2.958,1.243-2.958,3.39
			c0,5.871,12.025,8.686,12.025,18.039c0,5.68-3.817,8.829-9.354,8.829c-5.489,0-8.638-4.392-8.88-9.544l5.632-0.811
			c0.239,3.483,1.625,5.203,3.533,5.203c2.051,0,3.435-1.097,3.435-3.149c0-6.825-12.025-8.638-12.025-18.516
			c0-5.489,3.339-8.59,9.163-8.59c4.818,0,7.684,3.483,8.209,8.352L494.494,232.215z"/>
		<path style="fill:#FFFFFF;" d="M506.176,258.176V223.72h5.916v34.457h-5.916V258.176z"/>
		<path style="fill:#FFFFFF;" d="M522.543,228.872h-5.728v-5.155h17.374v5.155h-5.728v29.304h-5.919v-29.304H522.543z"/>
		<path style="fill:#FFFFFF;" d="M538.951,258.176V223.72h5.916v34.457h-5.916V258.176z"/>
		<path style="fill:#FFFFFF;" d="M563.956,223.72h5.82l-7.207,34.46h-5.916l-7.207-34.46h5.82l4.297,23.91h0.092L563.956,223.72z"/>
		<path style="fill:#FFFFFF;" d="M574.35,258.176V223.72h5.919v34.457h-5.919V258.176z"/>
		<path style="fill:#FFFFFF;" d="M590.717,228.872h-5.728v-5.155h17.371v5.155h-5.728v29.304h-5.916v-29.304H590.717z"/>
		<path style="fill:#FFFFFF;" d="M617.003,258.176h-5.919v-14.318l-7.156-20.141h6.014l4.154,13.125h0.095l3.96-13.125h6.014
			l-7.156,20.141v14.318L617.003,258.176L617.003,258.176z"/>
		<path style="fill:#FFFFFF;" d="M642.473,258.176h-5.728l6.348-34.46h7.353l6.345,34.46h-5.725l-1.052-7.636h-6.491
			L642.473,258.176z M644.384,245.388h4.774l-2.338-14.795h-0.095L644.384,245.388z"/>
		<path style="fill:#FFFFFF;" d="M660.697,258.176V223.72h5.489l7.207,19.712h0.092V223.72h5.346v34.457h-5.155l-7.541-21.525
			h-0.095v21.525h-5.343V258.176z"/>
		<path style="fill:#FFFFFF;" d="M685.028,223.72h8.781c6.109,0,9.354,3.342,9.354,10.403v13.65c0,7.064-3.244,10.403-9.354,10.403
			h-8.781V223.72z M690.944,253.307h2.051c3.152,0,4.249-1.193,4.249-4.821v-15.081c0-3.629-1.097-4.821-4.249-4.821h-2.051V253.307
			z"/>
		<path style="fill:#FFFFFF;" d="M720.424,258.176V223.72h16.513v5.155h-10.594v8.88h7.919v5.155h-7.919v15.272h-5.919V258.176z"/>
		<path style="fill:#FFFFFF;" d="M742.08,258.176V223.72h15.845v5.155h-9.926v8.88h7.636v5.155h-7.636v10.12h10.594v5.155H742.08
			V258.176z"/>
		<path style="fill:#FFFFFF;" d="M763.739,258.176V223.72h15.845v5.155h-9.926v8.88h7.636v5.155h-7.636v10.12h10.594v5.155h-16.513
			L763.739,258.176L763.739,258.176z"/>
		<path style="fill:#FFFFFF;" d="M785.109,258.176V223.72h5.919v29.304h9.306v5.155h-15.225V258.176z"/>
		<path style="fill:#FFFFFF;" d="M805.241,258.176V223.72h5.919v34.457h-5.919V258.176z"/>
		<path style="fill:#FFFFFF;" d="M818.173,258.176V223.72h5.489l7.207,19.712h0.092V223.72h5.346v34.457h-5.155l-7.541-21.525
			h-0.095v21.525h-5.343V258.176z"/>
		<path style="fill:#FFFFFF;" d="M850.662,240.709h9.69v17.467h-2.865l-1.097-2.576c-1.765,2.099-3.196,3.053-5.963,3.053
			c-4.678,0-7.922-3.342-7.922-8.829v-17.753c0-4.869,2.862-8.829,8.686-8.829c5.916,0,8.877,4.294,8.877,9.449v2.195h-5.633
			c0-5.155-1.049-6.491-3.387-6.491c-1.431,0-2.627,0.862-2.627,3.772v17.705c0,2.195,0.716,3.626,2.77,3.626
			c2.385,0,3.244-1.336,3.244-4.774v-3.34h-3.772L850.662,240.709L850.662,240.709z"/>
		<path style="fill:#FFFFFF;" d="M866.45,258.176v-5.632h5.633v5.632H866.45z"/>
		<path style="fill:#FFFFFF;" d="M884.06,229.349l-3.292,5.919h-2.531l2.338-5.919h-2.15v-5.632h5.635V229.349z M892.889,229.349
			l-3.292,5.919h-2.531l2.338-5.919h-2.147v-5.632h5.633v5.632H892.889z"/>
		<path style="fill:#FFF8DA;" d="M437.758,297.955h4.362l-5.4,25.819h-4.434l-5.403-25.819h4.365l3.217,17.917h0.069
			L437.758,297.955z"/>
		<path style="fill:#FFF8DA;" d="M447.35,323.774h-4.291l4.759-25.819h5.507l4.756,25.819h-4.291l-0.787-5.722h-4.863
			L447.35,323.774z M448.779,314.191h3.575l-1.753-11.086h-0.069L448.779,314.191z"/>
		<path style="fill:#FFF8DA;" d="M465.273,323.774h-4.431v-25.819h6.223c4.971,0,7.511,2.111,7.511,7.618
			c0,4.148-1.61,5.829-3.113,6.509l3.757,11.694h-4.508l-3.149-10.692c-0.569,0.072-1.5,0.107-2.29,0.107L465.273,323.774
			L465.273,323.774z M465.273,309.542h1.574c2.397,0,3.292-0.895,3.292-3.969c0-3.077-0.895-3.972-3.292-3.972h-1.574V309.542z"/>
		<path style="fill:#FFF8DA;" d="M479.517,323.774v-25.819h4.434v25.819H479.517z"/>
		<path style="fill:#FFF8DA;" d="M489.035,323.774v-25.819h11.87v3.861h-7.439v6.649h5.722v3.861h-5.722v7.579h7.94v3.861h-12.371
			V323.774z"/>
		<path style="fill:#FFF8DA;" d="M507.67,301.816h-4.288v-3.861h13.015v3.861h-4.291v21.957h-4.434v-21.957H507.67L507.67,301.816z"
			/>
		<path style="fill:#FFF8DA;" d="M527.206,323.774h-4.434v-10.728l-5.364-15.09h4.505l3.11,9.834h0.072l2.967-9.834h4.508
			l-5.364,15.09L527.206,323.774L527.206,323.774z"/>
	</g>
</g>
<g id="nyt_x5F_exporter_x5F_info" style="display:none;">
</g>
</svg>
