<?xml version="1.0" encoding="iso-8859-1"?>
<!-- Generator: Adobe Illustrator 17.1.0, SVG Export Plug-In . SVG Version: 6.00 Build 0)  -->
<!DOCTYPE svg PUBLIC "-//W3C//DTD SVG 1.1//EN" "http://www.w3.org/Graphics/SVG/1.1/DTD/svg11.dtd">
<svg version="1.1" xmlns="http://www.w3.org/2000/svg" xmlns:xlink="http://www.w3.org/1999/xlink" x="0px" y="0px"
	 viewBox="0 0 300 187.812" style="enable-background:new 0 0 300 187.812;" xml:space="preserve">
<g id="Layer_1">
	<g>
		<path style="fill:#FFFFFF;" d="M63.386,6.548l1.104-1.985h0.849l-0.784,1.985h0.72v1.889h-1.889V6.548z M66.347,6.548l1.104-1.985
			H68.3l-0.784,1.985h0.72v1.889h-1.889V6.548z"/>
		<path style="fill:#FFFFFF;" d="M73.227,10.422h3.25v5.858h-0.961l-0.368-0.864c-0.592,0.704-1.072,1.024-2,1.024
			c-1.569,0-2.657-1.121-2.657-2.961V7.525c0-1.633,0.96-2.961,2.913-2.961c1.984,0,2.977,1.44,2.977,3.169v0.736h-1.889
			c0-1.729-0.352-2.177-1.136-2.177c-0.48,0-0.881,0.289-0.881,1.265v5.938c0,0.736,0.24,1.216,0.929,1.216
			c0.8,0,1.088-0.448,1.088-1.601v-1.12h-1.265V10.422z"/>
		<path style="fill:#FFFFFF;" d="M78.65,4.724h1.985v8.724c0,0.848,0.336,1.264,1.056,1.264c0.721,0,1.057-0.416,1.057-1.264V4.724
			h1.985v8.644c0,1.985-1.153,3.073-3.042,3.073s-3.041-1.088-3.041-3.073V4.724z"/>
		<path style="fill:#FFFFFF;" d="M90.396,16.28h-1.985v-4.802l-2.4-6.755h2.017l1.393,4.402h0.032l1.328-4.402h2.017l-2.4,6.755
			V16.28z"/>
		<path style="fill:#FFFFFF;" d="M97.786,16.28V4.724h2.849c2.449,0,3.586,0.944,3.586,3.409c0,2.465-1.137,3.41-3.586,3.41H99.77
			v4.738H97.786z M99.77,9.91h0.769c1.297,0,1.696-0.4,1.696-1.777c0-1.376-0.399-1.776-1.696-1.776H99.77V9.91z"/>
		<path style="fill:#FFFFFF;" d="M105.946,16.28V4.724h5.313v1.729h-3.329V9.43h2.562v1.729h-2.562v3.394h3.554v1.729H105.946z"/>
		<path style="fill:#FFFFFF;" d="M114.362,16.28h-1.921l2.129-11.557h2.465l2.129,11.557h-1.921l-0.352-2.561h-2.178L114.362,16.28z
			 M115.001,11.991h1.601l-0.784-4.962h-0.031L115.001,11.991z"/>
		<path style="fill:#FFFFFF;" d="M122.458,16.28h-1.985V4.724h2.785c2.225,0,3.361,0.944,3.361,3.409
			c0,1.857-0.72,2.609-1.393,2.914l1.681,5.234h-2.017l-1.408-4.786c-0.257,0.032-0.673,0.048-1.024,0.048V16.28z M122.458,9.91
			h0.704c1.072,0,1.473-0.4,1.473-1.777c0-1.376-0.4-1.776-1.473-1.776h-0.704V9.91z"/>
		<path style="fill:#FFFFFF;" d="M132.634,8.581V7.684c0-0.976-0.448-1.393-0.961-1.393c-0.8,0-1.056,0.417-1.056,1.281v5.858
			c0,0.864,0.256,1.28,1.056,1.28c0.721,0,0.961-0.416,0.961-1.168V12.15h1.984v1.329c0,1.633-0.96,2.961-2.945,2.961
			c-2.08,0-3.041-1.329-3.041-2.961V7.525c0-1.633,0.961-2.961,3.041-2.961c1.985,0,2.945,1.44,2.945,3.169v0.848H132.634z"/>
		<path style="fill:#FFFFFF;" d="M136.792,16.28V4.724h5.314v1.729h-3.329V9.43h2.561v1.729h-2.561v3.394h3.553v1.729H136.792z"/>
		<path style="fill:#FFFFFF;" d="M148.04,16.28V4.724h1.985V16.28H148.04z"/>
		<path style="fill:#FFFFFF;" d="M155.994,7.573c-0.08-0.992-0.608-1.281-1.057-1.281c-0.64,0-0.992,0.417-0.992,1.137
			c0,1.969,4.033,2.913,4.033,6.05c0,1.905-1.28,2.961-3.137,2.961c-1.841,0-2.897-1.473-2.978-3.201l1.889-0.272
			c0.08,1.168,0.545,1.745,1.185,1.745c0.688,0,1.152-0.368,1.152-1.056c0-2.289-4.033-2.897-4.033-6.21
			c0-1.841,1.12-2.881,3.073-2.881c1.616,0,2.577,1.168,2.753,2.801L155.994,7.573z"/>
		<path style="fill:#FFFFFF;" d="M163.351,16.28V4.724h5.314v1.729h-3.329V9.43h2.561v1.729h-2.561v3.394h3.553v1.729H163.351z"/>
		<path style="fill:#FFFFFF;" d="M172.152,10.23l-2.113-5.506h1.953l1.216,3.666h0.032l1.104-3.666h1.953l-2.001,5.506l2.241,6.05
			h-1.953l-1.345-4.209h-0.032l-1.376,4.209h-1.953L172.152,10.23z"/>
		<path style="fill:#FFFFFF;" d="M181.88,8.581V7.684c0-0.976-0.448-1.393-0.961-1.393c-0.8,0-1.056,0.417-1.056,1.281v5.858
			c0,0.864,0.256,1.28,1.056,1.28c0.721,0,0.961-0.416,0.961-1.168V12.15h1.984v1.329c0,1.633-0.96,2.961-2.945,2.961
			c-2.08,0-3.041-1.329-3.041-2.961V7.525c0-1.633,0.961-2.961,3.041-2.961c1.985,0,2.945,1.44,2.945,3.169v0.848H181.88z"/>
		<path style="fill:#FFFFFF;" d="M186.039,16.28V4.724h5.313v1.729h-3.329V9.43h2.562v1.729h-2.562v3.394h3.554v1.729H186.039z"/>
		<path style="fill:#FFFFFF;" d="M193.206,16.28V4.724h1.985v9.828h3.121v1.729H193.206z"/>
		<path style="fill:#FFFFFF;" d="M199.589,16.28V4.724h1.985v9.828h3.121v1.729H199.589z"/>
		<path style="fill:#FFFFFF;" d="M206.069,16.28V4.724h5.314v1.729h-3.329V9.43h2.561v1.729h-2.561v3.394h3.553v1.729H206.069z"/>
		<path style="fill:#FFFFFF;" d="M213.333,16.28V4.724h1.841l2.417,6.611h0.032V4.724h1.793V16.28h-1.729l-2.528-7.219h-0.032v7.219
			H213.333z"/>
		<path style="fill:#FFFFFF;" d="M222.645,6.452h-1.921V4.724h5.827v1.729h-1.921v9.828h-1.985V6.452z"/>
		<path style="fill:#FFFFFF;" d="M227.749,16.28v-1.889h1.889v1.889H227.749z"/>
		<path style="fill:#FFFFFF;" d="M233.653,6.612l-1.104,1.985H231.7l0.785-1.985h-0.721V4.724h1.889V6.612z M236.614,6.612
			l-1.104,1.985h-0.848l0.784-1.985h-0.721V4.724h1.889V6.612z"/>
		<path style="fill:#FFF8DA;" d="M129.377,30.916h-1.439v-1.295h4.365v1.295h-1.438v7.364h-1.487V30.916z"/>
		<path style="fill:#FFF8DA;" d="M133.242,38.28v-8.659h1.487v3.526h1.583v-3.526h1.487v8.659h-1.487v-3.838h-1.583v3.838H133.242z"
			/>
		<path style="fill:#FFF8DA;" d="M139.302,38.28v-8.659h3.981v1.295h-2.495v2.23h1.919v1.295h-1.919v2.542h2.663v1.295H139.302z"/>
		<path style="fill:#FFF8DA;" d="M149.993,29.621h1.223l1.008,5.517h0.023l0.828-5.517h1.391l-1.522,8.659h-1.247l-1.08-5.721
			h-0.023l-1.008,5.721h-1.247l-1.644-8.659h1.392l0.911,5.517h0.024L149.993,29.621z"/>
		<path style="fill:#FFF8DA;" d="M156.964,38.28h-1.487v-8.659h2.087c1.667,0,2.519,0.708,2.519,2.555
			c0,1.391-0.54,1.955-1.043,2.183l1.259,3.922h-1.511l-1.056-3.586c-0.192,0.024-0.504,0.036-0.768,0.036V38.28z M156.964,33.507
			h0.527c0.804,0,1.104-0.3,1.104-1.331c0-1.032-0.3-1.332-1.104-1.332h-0.527V33.507z"/>
		<path style="fill:#FFF8DA;" d="M162.401,38.28h-1.439l1.596-8.659h1.847l1.595,8.659h-1.439l-0.264-1.919h-1.631L162.401,38.28z
			 M162.88,35.066h1.199l-0.588-3.718h-0.023L162.88,35.066z"/>
		<path style="fill:#FFF8DA;" d="M166.925,38.28v-8.659h2.135c1.835,0,2.687,0.708,2.687,2.555c0,1.847-0.852,2.555-2.687,2.555
			h-0.648v3.55H166.925z M168.412,33.507h0.576c0.972,0,1.271-0.3,1.271-1.331c0-1.032-0.3-1.332-1.271-1.332h-0.576V33.507z"/>
	</g>
</g>
<g id="nyt_x5F_exporter_x5F_info" style="display:none;">
</g>
</svg>
