<?xml version="1.0" encoding="iso-8859-1"?>
<!-- Generator: Adobe Illustrator 17.1.0, SVG Export Plug-In . SVG Version: 6.00 Build 0)  -->
<!DOCTYPE svg PUBLIC "-//W3C//DTD SVG 1.1//EN" "http://www.w3.org/Graphics/SVG/1.1/DTD/svg11.dtd">
<svg version="1.1" xmlns="http://www.w3.org/2000/svg" xmlns:xlink="http://www.w3.org/1999/xlink" x="0px" y="0px"
	 viewBox="0 0 300 187.812" style="enable-background:new 0 0 300 187.812;" xml:space="preserve">
<g id="Layer_1">
	<g>
		<path style="fill:#FFFFFF;" d="M15.844,6.548l1.104-1.985h0.848l-0.784,1.985h0.721v1.889h-1.889V6.548z M18.805,6.548
			l1.104-1.985h0.849l-0.785,1.985h0.721v1.889h-1.889V6.548z"/>
		<path style="fill:#FFFFFF;" d="M30.903,4.724V16.28h-1.729V7.252h-0.032l-1.793,9.028h-0.96l-1.793-9.028h-0.032v9.028h-1.729
			V4.724h2.609l1.408,6.755h0.032l1.408-6.755H30.903z"/>
		<path style="fill:#FFFFFF;" d="M33.155,16.28V4.724h1.985V16.28H33.155z"/>
		<path style="fill:#FFFFFF;" d="M41.493,8.581V7.684c0-0.976-0.448-1.393-0.961-1.393c-0.8,0-1.056,0.417-1.056,1.281v5.858
			c0,0.864,0.256,1.28,1.056,1.28c0.721,0,0.961-0.416,0.961-1.168V12.15h1.984v1.329c0,1.633-0.96,2.961-2.945,2.961
			c-2.08,0-3.041-1.329-3.041-2.961V7.525c0-1.633,0.961-2.961,3.041-2.961c1.985,0,2.945,1.44,2.945,3.169v0.848H41.493z"/>
		<path style="fill:#FFFFFF;" d="M45.651,16.28V4.724h1.985V9.43h2.112V4.724h1.985V16.28h-1.985v-5.122h-2.112v5.122H45.651z"/>
		<path style="fill:#FFFFFF;" d="M53.811,7.525c0-1.633,0.96-2.961,3.041-2.961s3.041,1.329,3.041,2.961v5.954
			c0,1.633-0.96,2.961-3.041,2.961s-3.041-1.329-3.041-2.961V7.525z M55.971,1.81h1.761l1.537,2.305h-1.473l-0.944-1.424
			l-0.944,1.424h-1.473L55.971,1.81z M55.795,13.431c0,0.864,0.256,1.28,1.057,1.28c0.8,0,1.057-0.416,1.057-1.28V7.573
			c0-0.864-0.257-1.281-1.057-1.281c-0.801,0-1.057,0.417-1.057,1.281V13.431z"/>
		<path style="fill:#FFFFFF;" d="M61.971,4.724h2.945c2.049,0,3.137,1.121,3.137,3.489v4.578c0,2.369-1.088,3.489-3.137,3.489
			h-2.945V4.724z M63.956,14.647h0.688c1.057,0,1.425-0.4,1.425-1.617V7.973c0-1.217-0.368-1.617-1.425-1.617h-0.688V14.647z"/>
		<path style="fill:#FFFFFF;" d="M71.892,6.612l-1.104,1.985h-0.849l0.784-1.985h-0.72V4.724h1.889V6.612z"/>
		<path style="fill:#FFFFFF;" d="M77.459,7.573c-0.079-0.992-0.607-1.281-1.056-1.281c-0.641,0-0.993,0.417-0.993,1.137
			c0,1.969,4.034,2.913,4.034,6.05c0,1.905-1.28,2.961-3.138,2.961c-1.841,0-2.896-1.473-2.977-3.201l1.889-0.272
			c0.08,1.168,0.544,1.745,1.185,1.745c0.688,0,1.152-0.368,1.152-1.056c0-2.289-4.034-2.897-4.034-6.21
			c0-1.841,1.121-2.881,3.073-2.881c1.617,0,2.577,1.168,2.754,2.801L77.459,7.573z"/>
		<path style="fill:#FFFFFF;" d="M88.435,7.573c-0.079-0.992-0.607-1.281-1.056-1.281c-0.641,0-0.993,0.417-0.993,1.137
			c0,1.969,4.034,2.913,4.034,6.05c0,1.905-1.28,2.961-3.138,2.961c-1.841,0-2.896-1.473-2.977-3.201l1.889-0.272
			c0.08,1.168,0.544,1.745,1.185,1.745c0.688,0,1.152-0.368,1.152-1.056c0-2.289-4.034-2.897-4.034-6.21
			c0-1.841,1.121-2.881,3.073-2.881c1.617,0,2.577,1.168,2.754,2.801L88.435,7.573z"/>
		<path style="fill:#FFFFFF;" d="M93.234,6.452h-1.921V4.724h5.826v1.729h-1.921v9.828h-1.984V6.452z"/>
		<path style="fill:#FFFFFF;" d="M102.05,16.28h-1.984v-4.802l-2.401-6.755h2.017l1.393,4.402h0.032l1.329-4.402h2.017l-2.401,6.755
			V16.28z"/>
		<path style="fill:#FFFFFF;" d="M105.632,16.28V4.724h1.985v9.828h3.121v1.729H105.632z"/>
		<path style="fill:#FFFFFF;" d="M112.113,16.28V4.724h5.313v1.729h-3.329V9.43h2.562v1.729h-2.562v3.394h3.554v1.729H112.113z"/>
		<path style="fill:#FFFFFF;" d="M126.705,7.573c-0.079-0.992-0.607-1.281-1.056-1.281c-0.641,0-0.993,0.417-0.993,1.137
			c0,1.969,4.034,2.913,4.034,6.05c0,1.905-1.28,2.961-3.138,2.961c-1.841,0-2.896-1.473-2.977-3.201l1.889-0.272
			c0.08,1.168,0.544,1.745,1.185,1.745c0.688,0,1.152-0.368,1.152-1.056c0-2.289-4.034-2.897-4.034-6.21
			c0-1.841,1.121-2.881,3.073-2.881c1.617,0,2.577,1.168,2.754,2.801L126.705,7.573z"/>
		<path style="fill:#FFFFFF;" d="M130.351,4.724h1.985v8.724c0,0.848,0.336,1.264,1.056,1.264c0.721,0,1.057-0.416,1.057-1.264
			V4.724h1.985v8.644c0,1.985-1.153,3.073-3.042,3.073s-3.041-1.088-3.041-3.073V4.724z"/>
		<path style="fill:#FFFFFF;" d="M138.511,4.724h2.945c2.129,0,3.073,1.088,3.073,3.057c0,0.993-0.417,2.033-1.377,2.417
			c1.009,0.448,1.601,1.249,1.601,2.737c0,1.905-0.849,3.345-3.105,3.345h-3.137V4.724z M140.496,9.461h0.721
			c0.752,0,1.328-0.512,1.328-1.473c0-1.072-0.416-1.632-1.297-1.632h-0.752V9.461z M140.496,14.647h0.832
			c1.057,0,1.441-0.608,1.441-1.776c0-1.185-0.448-1.777-1.633-1.777h-0.641V14.647z"/>
		<path style="fill:#FFFFFF;" d="M150.721,4.724h1.952l-2.417,11.557h-1.984l-2.417-11.557h1.952l1.441,8.019h0.031L150.721,4.724z"
			/>
		<path style="fill:#FFFFFF;" d="M153.935,16.28V4.724h5.313v1.729h-3.329V9.43h2.562v1.729h-2.562v3.394h3.554v1.729H153.935z"/>
		<path style="fill:#FFFFFF;" d="M163.183,16.28h-1.985V4.724h2.785c2.225,0,3.361,0.944,3.361,3.409
			c0,1.857-0.72,2.609-1.393,2.914l1.681,5.234h-2.017l-1.408-4.786c-0.257,0.032-0.673,0.048-1.024,0.048V16.28z M163.183,9.91
			h0.704c1.072,0,1.473-0.4,1.473-1.777c0-1.376-0.4-1.776-1.473-1.776h-0.704V9.91z"/>
		<path style="fill:#FFFFFF;" d="M170.51,6.452h-1.921V4.724h5.827v1.729h-1.921v9.828h-1.985V6.452z"/>
		<path style="fill:#FFFFFF;" d="M179.359,7.573c-0.079-0.992-0.607-1.281-1.056-1.281c-0.641,0-0.993,0.417-0.993,1.137
			c0,1.969,4.034,2.913,4.034,6.05c0,1.905-1.28,2.961-3.138,2.961c-1.841,0-2.896-1.473-2.977-3.201l1.889-0.272
			c0.08,1.168,0.544,1.745,1.185,1.745c0.688,0,1.152-0.368,1.152-1.056c0-2.289-4.034-2.897-4.034-6.21
			c0-1.841,1.121-2.881,3.073-2.881c1.617,0,2.577,1.168,2.754,2.801L179.359,7.573z"/>
		<path style="fill:#FFFFFF;" d="M187.87,6.452h-1.921V4.724h5.826v1.729h-1.921v9.828h-1.984V6.452z"/>
		<path style="fill:#FFFFFF;" d="M193.101,16.28V4.724h1.984V9.43h2.113V4.724h1.984V16.28h-1.984v-5.122h-2.113v5.122H193.101z"/>
		<path style="fill:#FFFFFF;" d="M201.26,16.28V4.724h5.314v1.729h-3.329V9.43h2.561v1.729h-2.561v3.394h3.553v1.729H201.26z"/>
		<path style="fill:#FFFFFF;" d="M213.388,6.452h-1.921V4.724h5.827v1.729h-1.921v9.828h-1.985V6.452z"/>
		<path style="fill:#FFFFFF;" d="M222.205,16.28h-1.984v-4.802l-2.401-6.755h2.017l1.393,4.402h0.032l1.329-4.402h2.017
			l-2.401,6.755V16.28z"/>
		<path style="fill:#FFFFFF;" d="M225.883,16.28V4.724h2.849c2.449,0,3.586,0.944,3.586,3.409c0,2.465-1.137,3.41-3.586,3.41h-0.864
			v4.738H225.883z M227.868,9.91h0.769c1.297,0,1.696-0.4,1.696-1.777c0-1.376-0.399-1.776-1.696-1.776h-0.769V9.91z"/>
		<path style="fill:#FFFFFF;" d="M234.315,16.28V4.724h1.985V16.28H234.315z"/>
		<path style="fill:#FFFFFF;" d="M242.653,8.581V7.684c0-0.976-0.448-1.393-0.961-1.393c-0.8,0-1.056,0.417-1.056,1.281v5.858
			c0,0.864,0.256,1.28,1.056,1.28c0.721,0,0.961-0.416,0.961-1.168V12.15h1.984v1.329c0,1.633-0.96,2.961-2.945,2.961
			c-2.08,0-3.041-1.329-3.041-2.961V7.525c0-1.633,0.961-2.961,3.041-2.961c1.985,0,2.945,1.44,2.945,3.169v0.848H242.653z"/>
		<path style="fill:#FFFFFF;" d="M247.963,16.28h-1.921l2.129-11.557h2.466l2.128,11.557h-1.92l-0.353-2.561h-2.177L247.963,16.28z
			 M248.604,11.991h1.601l-0.784-4.962h-0.032L248.604,11.991z"/>
		<path style="fill:#FFFFFF;" d="M253.979,16.28V4.724h1.984v9.828h3.121v1.729H253.979z"/>
		<path style="fill:#FFFFFF;" d="M264.17,16.28V4.724h1.841l2.417,6.611h0.031V4.724h1.793V16.28h-1.729l-2.529-7.219h-0.032v7.219
			H264.17z"/>
		<path style="fill:#FFFFFF;" d="M272.331,7.525c0-1.633,0.96-2.961,3.041-2.961s3.041,1.329,3.041,2.961v5.954
			c0,1.633-0.96,2.961-3.041,2.961s-3.041-1.329-3.041-2.961V7.525z M274.315,13.431c0,0.864,0.256,1.28,1.057,1.28
			c0.8,0,1.057-0.416,1.057-1.28V7.573c0-0.864-0.257-1.281-1.057-1.281c-0.801,0-1.057,0.417-1.057,1.281V13.431z"/>
		<path style="fill:#FFFFFF;" d="M280.234,12.711v-1.473h3.922v1.473H280.234z"/>
		<path style="fill:#FFFFFF;" d="M36.043,26.452h-1.921v-1.729h5.826v1.729h-1.921v9.828h-1.984V26.452z"/>
		<path style="fill:#FFFFFF;" d="M41.546,36.28V24.724h1.985V36.28H41.546z"/>
		<path style="fill:#FFFFFF;" d="M45.882,27.525c0-1.633,0.961-2.961,3.041-2.961c2.081,0,3.042,1.329,3.042,2.961v5.954
			c0,1.633-0.961,2.961-3.042,2.961c-2.08,0-3.041-1.329-3.041-2.961V27.525z M47.868,33.431c0,0.864,0.256,1.28,1.056,1.28
			c0.801,0,1.057-0.416,1.057-1.28v-5.858c0-0.864-0.256-1.281-1.057-1.281c-0.8,0-1.056,0.417-1.056,1.281V33.431z"/>
		<path style="fill:#FFFFFF;" d="M54.042,36.28V24.724h1.841l2.417,6.611h0.032v-6.611h1.793V36.28h-1.729l-2.528-7.219h-0.032
			v7.219H54.042z"/>
		<path style="fill:#FFFFFF;" d="M65.82,27.573c-0.079-0.992-0.607-1.281-1.056-1.281c-0.641,0-0.993,0.417-0.993,1.137
			c0,1.969,4.034,2.913,4.034,6.05c0,1.905-1.28,2.961-3.138,2.961c-1.841,0-2.896-1.473-2.977-3.201l1.889-0.272
			c0.08,1.168,0.544,1.745,1.185,1.745c0.688,0,1.152-0.368,1.152-1.056c0-2.289-4.034-2.897-4.034-6.21
			c0-1.841,1.121-2.881,3.073-2.881c1.617,0,2.577,1.168,2.754,2.801L65.82,27.573z"/>
		<path style="fill:#FFFFFF;" d="M73.178,27.525c0-1.633,0.96-2.961,3.041-2.961s3.041,1.329,3.041,2.961v5.954
			c0,1.633-0.96,2.961-3.041,2.961s-3.041-1.329-3.041-2.961V27.525z M75.163,33.431c0,0.864,0.256,1.28,1.057,1.28
			c0.8,0,1.057-0.416,1.057-1.28v-5.858c0-0.864-0.257-1.281-1.057-1.281c-0.801,0-1.057,0.417-1.057,1.281V33.431z"/>
		<path style="fill:#FFFFFF;" d="M81.338,36.28V24.724h5.538v1.729h-3.554v2.978h2.657v1.729h-2.657v5.122H81.338z"/>
		<path style="fill:#FFFFFF;" d="M95.93,27.573c-0.079-0.992-0.607-1.281-1.056-1.281c-0.641,0-0.993,0.417-0.993,1.137
			c0,1.969,4.034,2.913,4.034,6.05c0,1.905-1.28,2.961-3.138,2.961c-1.841,0-2.896-1.473-2.977-3.201l1.889-0.272
			c0.08,1.168,0.544,1.745,1.185,1.745c0.688,0,1.152-0.368,1.152-1.056c0-2.289-4.034-2.897-4.034-6.21
			c0-1.841,1.121-2.881,3.073-2.881c1.617,0,2.577,1.168,2.754,2.801L95.93,27.573z"/>
		<path style="fill:#FFFFFF;" d="M100.729,26.452h-1.921v-1.729h5.827v1.729h-1.921v9.828h-1.985V26.452z"/>
		<path style="fill:#FFFFFF;" d="M107.945,36.28h-1.984V24.724h2.785c2.225,0,3.361,0.944,3.361,3.409
			c0,1.857-0.721,2.609-1.393,2.914l1.681,5.234h-2.018l-1.408-4.786c-0.256,0.032-0.672,0.048-1.024,0.048V36.28z M107.945,29.91
			h0.704c1.072,0,1.473-0.4,1.473-1.777c0-1.376-0.4-1.776-1.473-1.776h-0.704V29.91z"/>
		<path style="fill:#FFFFFF;" d="M115.273,36.28h-1.921l2.129-11.557h2.465l2.129,11.557h-1.921l-0.352-2.561h-2.178L115.273,36.28z
			 M115.913,31.991h1.601l-0.784-4.962h-0.031L115.913,31.991z"/>
		<path style="fill:#FFFFFF;" d="M121.656,36.28V24.724h1.985V36.28H121.656z"/>
		<path style="fill:#FFFFFF;" d="M128.729,30.422h3.25v5.858h-0.961l-0.368-0.864c-0.592,0.704-1.072,1.024-2,1.024
			c-1.569,0-2.657-1.121-2.657-2.961v-5.954c0-1.633,0.96-2.961,2.913-2.961c1.984,0,2.977,1.44,2.977,3.169v0.736h-1.889
			c0-1.729-0.352-2.177-1.136-2.177c-0.48,0-0.881,0.289-0.881,1.265v5.938c0,0.736,0.24,1.216,0.929,1.216
			c0.8,0,1.088-0.448,1.088-1.601v-1.12h-1.265V30.422z"/>
		<path style="fill:#FFFFFF;" d="M134.152,36.28V24.724h1.985v4.706h2.112v-4.706h1.985V36.28h-1.985v-5.122h-2.112v5.122H134.152z"
			/>
		<path style="fill:#FFFFFF;" d="M143.464,26.452h-1.921v-1.729h5.827v1.729h-1.921v9.828h-1.985V26.452z"/>
		<path style="fill:#FFFFFF;" d="M148.696,36.28V24.724h5.538v1.729h-3.553v2.978h2.656v1.729h-2.656v5.122H148.696z"/>
		<path style="fill:#FFFFFF;" d="M155.959,27.525c0-1.633,0.96-2.961,3.041-2.961s3.041,1.329,3.041,2.961v5.954
			c0,1.633-0.96,2.961-3.041,2.961s-3.041-1.329-3.041-2.961V27.525z M157.944,33.431c0,0.864,0.256,1.28,1.057,1.28
			c0.8,0,1.057-0.416,1.057-1.28v-5.858c0-0.864-0.257-1.281-1.057-1.281c-0.801,0-1.057,0.417-1.057,1.281V33.431z"/>
		<path style="fill:#FFFFFF;" d="M166.104,36.28h-1.984V24.724h2.785c2.225,0,3.361,0.944,3.361,3.409
			c0,1.857-0.721,2.609-1.393,2.914l1.681,5.234h-2.018l-1.408-4.786c-0.256,0.032-0.672,0.048-1.024,0.048V36.28z M166.104,29.91
			h0.704c1.072,0,1.473-0.4,1.473-1.777c0-1.376-0.4-1.776-1.473-1.776h-0.704V29.91z"/>
		<path style="fill:#FFFFFF;" d="M175.721,24.724h1.633l1.344,7.363h0.032l1.104-7.363h1.856l-2.032,11.557h-1.665l-1.44-7.635
			h-0.032l-1.345,7.635h-1.664l-2.193-11.557h1.857l1.216,7.363h0.032L175.721,24.724z"/>
		<path style="fill:#FFFFFF;" d="M184.263,36.28h-1.921l2.129-11.557h2.466l2.128,11.557h-1.92l-0.353-2.561h-2.177L184.263,36.28z
			 M184.904,31.991h1.601l-0.784-4.962h-0.032L184.904,31.991z"/>
		<path style="fill:#FFFFFF;" d="M192.36,36.28h-1.985V24.724h2.785c2.225,0,3.361,0.944,3.361,3.409
			c0,1.857-0.72,2.609-1.393,2.914l1.681,5.234h-2.017l-1.408-4.786c-0.257,0.032-0.673,0.048-1.024,0.048V36.28z M192.36,29.91
			h0.704c1.072,0,1.473-0.4,1.473-1.777c0-1.376-0.4-1.776-1.473-1.776h-0.704V29.91z"/>
		<path style="fill:#FFFFFF;" d="M198.535,24.724h2.945c2.049,0,3.138,1.121,3.138,3.489v4.578c0,2.369-1.089,3.489-3.138,3.489
			h-2.945V24.724z M200.52,34.647h0.688c1.057,0,1.425-0.4,1.425-1.617v-5.058c0-1.217-0.368-1.617-1.425-1.617h-0.688V34.647z"/>
		<path style="fill:#FFFFFF;" d="M214.408,28.581v-0.896c0-0.976-0.448-1.393-0.96-1.393c-0.801,0-1.057,0.417-1.057,1.281v5.858
			c0,0.864,0.256,1.28,1.057,1.28c0.72,0,0.96-0.416,0.96-1.168V32.15h1.985v1.329c0,1.633-0.961,2.961-2.945,2.961
			c-2.081,0-3.041-1.329-3.041-2.961v-5.954c0-1.633,0.96-2.961,3.041-2.961c1.984,0,2.945,1.44,2.945,3.169v0.848H214.408z"/>
		<path style="fill:#FFFFFF;" d="M218.838,36.28V24.724h1.985V36.28H218.838z"/>
		<path style="fill:#FFFFFF;" d="M223.174,36.28V24.724h1.841l2.417,6.611h0.032v-6.611h1.793V36.28h-1.729L225,29.061h-0.032v7.219
			H223.174z"/>
		<path style="fill:#FFFFFF;" d="M231.334,36.28V24.724h5.314v1.729h-3.329v2.978h2.561v1.729h-2.561v3.394h3.553v1.729H231.334z"/>
		<path style="fill:#FFFFFF;" d="M246.553,24.724V36.28h-1.729v-9.028h-0.032L243,36.28h-0.961l-1.793-9.028h-0.031v9.028h-1.729
			V24.724h2.609l1.408,6.755h0.032l1.409-6.755H246.553z"/>
		<path style="fill:#FFFFFF;" d="M249.686,36.28h-1.921l2.129-11.557h2.466l2.128,11.557h-1.92l-0.353-2.561h-2.177L249.686,36.28z
			 M250.327,31.991h1.601l-0.784-4.962h-0.032L250.327,31.991z"/>
		<path style="fill:#FFFFFF;" d="M255.67,36.28v-1.889h1.889v1.889H255.67z"/>
		<path style="fill:#FFFFFF;" d="M261.575,26.612l-1.104,1.985h-0.849l0.785-1.985h-0.721v-1.889h1.889V26.612z M264.536,26.612
			l-1.104,1.985h-0.848l0.784-1.985h-0.721v-1.889h1.889V26.612z"/>
		<path style="fill:#FFF8DA;" d="M116.157,58.28v-8.659h4.149v1.295h-2.662v2.23h1.991v1.295h-1.991v3.838H116.157z"/>
		<path style="fill:#FFF8DA;" d="M121.749,58.28v-8.659h1.487v8.659H121.749z"/>
		<path style="fill:#FFF8DA;" d="M126.427,58.28h-1.486v-8.659h2.087c1.667,0,2.519,0.708,2.519,2.555
			c0,1.391-0.54,1.955-1.044,2.183l1.26,3.922h-1.512l-1.056-3.586c-0.191,0.024-0.503,0.036-0.768,0.036V58.28z M126.427,53.507
			h0.528c0.804,0,1.104-0.3,1.104-1.331c0-1.032-0.3-1.332-1.104-1.332h-0.528V53.507z"/>
		<path style="fill:#FFF8DA;" d="M133.711,51.756c-0.061-0.744-0.456-0.959-0.792-0.959c-0.479,0-0.743,0.312-0.743,0.852
			c0,1.475,3.022,2.183,3.022,4.534c0,1.427-0.96,2.219-2.352,2.219c-1.379,0-2.17-1.104-2.23-2.399l1.415-0.204
			c0.061,0.875,0.408,1.307,0.888,1.307c0.516,0,0.863-0.276,0.863-0.792c0-1.715-3.022-2.171-3.022-4.653
			c0-1.379,0.84-2.159,2.303-2.159c1.212,0,1.932,0.875,2.063,2.099L133.711,51.756z"/>
		<path style="fill:#FFF8DA;" d="M137.251,50.916h-1.438v-1.295h4.365v1.295h-1.439v7.364h-1.487V50.916z"/>
		<path style="fill:#FFF8DA;" d="M146.55,51.756c-0.06-0.744-0.456-0.959-0.791-0.959c-0.48,0-0.744,0.312-0.744,0.852
			c0,1.475,3.022,2.183,3.022,4.534c0,1.427-0.959,2.219-2.351,2.219c-1.379,0-2.171-1.104-2.23-2.399l1.415-0.204
			c0.06,0.875,0.407,1.307,0.888,1.307c0.516,0,0.863-0.276,0.863-0.792c0-1.715-3.022-2.171-3.022-4.653
			c0-1.379,0.84-2.159,2.303-2.159c1.211,0,1.931,0.875,2.062,2.099L146.55,51.756z"/>
		<path style="fill:#FFF8DA;" d="M149.228,58.28v-8.659h1.486v3.526h1.584v-3.526h1.486v8.659h-1.486v-3.838h-1.584v3.838H149.228z"
			/>
		<path style="fill:#FFF8DA;" d="M155.288,51.72c0-1.223,0.72-2.219,2.279-2.219c1.559,0,2.278,0.996,2.278,2.219v4.462
			c0,1.223-0.72,2.219-2.278,2.219c-1.56,0-2.279-0.996-2.279-2.219V51.72z M156.775,56.145c0,0.647,0.191,0.959,0.792,0.959
			c0.6,0,0.791-0.312,0.791-0.959v-4.39c0-0.647-0.191-0.959-0.791-0.959c-0.601,0-0.792,0.312-0.792,0.959V56.145z"/>
		<path style="fill:#FFF8DA;" d="M163.926,49.621h1.224l1.007,5.517h0.024l0.827-5.517h1.392l-1.523,8.659h-1.247l-1.079-5.721
			h-0.024l-1.007,5.721h-1.248l-1.643-8.659h1.391l0.912,5.517h0.023L163.926,49.621z"/>
		<path style="fill:#FFF8DA;" d="M169.616,58.28v-8.659h1.487v8.659H169.616z"/>
		<path style="fill:#FFF8DA;" d="M172.808,58.28v-8.659h1.379l1.811,4.953h0.024v-4.953h1.343v8.659h-1.295l-1.895-5.409h-0.024
			v5.409H172.808z"/>
		<path style="fill:#FFF8DA;" d="M180.918,53.89h2.435v4.39h-0.72l-0.275-0.647c-0.443,0.527-0.804,0.768-1.499,0.768
			c-1.176,0-1.991-0.84-1.991-2.219V51.72c0-1.223,0.72-2.219,2.183-2.219c1.487,0,2.231,1.08,2.231,2.375v0.552h-1.416
			c0-1.295-0.264-1.631-0.852-1.631c-0.359,0-0.659,0.216-0.659,0.947v4.45c0,0.552,0.18,0.912,0.695,0.912
			c0.6,0,0.815-0.336,0.815-1.199v-0.84h-0.947V53.89z"/>
	</g>
</g>
<g id="nyt_x5F_exporter_x5F_info" style="display:none;">
</g>
</svg>
