<?xml version="1.0" encoding="iso-8859-1"?>
<!-- Generator: Adobe Illustrator 17.1.0, SVG Export Plug-In . SVG Version: 6.00 Build 0)  -->
<!DOCTYPE svg PUBLIC "-//W3C//DTD SVG 1.1//EN" "http://www.w3.org/Graphics/SVG/1.1/DTD/svg11.dtd">
<svg version="1.1" xmlns="http://www.w3.org/2000/svg" xmlns:xlink="http://www.w3.org/1999/xlink" x="0px" y="0px"
	 viewBox="0 0 300 187.812" style="enable-background:new 0 0 300 187.812;" xml:space="preserve">
<g id="Layer_1">
	<g>
		<path style="fill:#FFFFFF;" d="M59.603,7.985L60.707,6h0.848l-0.784,1.985h0.721v1.889h-1.889V7.985z M62.563,7.985L63.668,6
			h0.849l-0.785,1.985h0.721v1.889h-1.889V7.985z"/>
		<path style="fill:#FFFFFF;" d="M69.442,11.858h3.25v5.858h-0.961l-0.368-0.864c-0.592,0.704-1.072,1.024-2,1.024
			c-1.569,0-2.657-1.121-2.657-2.961V8.961c0-1.633,0.96-2.961,2.913-2.961c1.984,0,2.977,1.44,2.977,3.169v0.736h-1.889
			c0-1.729-0.352-2.177-1.136-2.177c-0.48,0-0.881,0.289-0.881,1.265v5.938c0,0.736,0.24,1.216,0.929,1.216
			c0.8,0,1.088-0.448,1.088-1.601v-1.12h-1.265V11.858z"/>
		<path style="fill:#FFFFFF;" d="M74.865,6.16h1.985v8.724c0,0.848,0.336,1.264,1.056,1.264c0.721,0,1.057-0.416,1.057-1.264V6.16
			h1.985v8.644c0,1.985-1.153,3.073-3.042,3.073s-3.041-1.088-3.041-3.073V6.16z"/>
		<path style="fill:#FFFFFF;" d="M86.611,17.717h-1.985v-4.802l-2.4-6.755h2.017l1.393,4.402h0.032l1.328-4.402h2.017l-2.4,6.755
			V17.717z"/>
		<path style="fill:#FFFFFF;" d="M94.001,17.717V6.16h2.849c2.449,0,3.586,0.944,3.586,3.409c0,2.465-1.137,3.41-3.586,3.41h-0.864
			v4.738H94.001z M95.985,11.346h0.769c1.297,0,1.696-0.4,1.696-1.777c0-1.376-0.399-1.776-1.696-1.776h-0.769V11.346z"/>
		<path style="fill:#FFFFFF;" d="M102.161,17.717V6.16h5.313v1.729h-3.329v2.978h2.562v1.729h-2.562v3.394h3.554v1.729H102.161z"/>
		<path style="fill:#FFFFFF;" d="M110.577,17.717h-1.921l2.129-11.557h2.465l2.129,11.557h-1.921l-0.352-2.561h-2.178
			L110.577,17.717z M111.217,13.427h1.601l-0.784-4.962h-0.031L111.217,13.427z"/>
		<path style="fill:#FFFFFF;" d="M118.673,17.717h-1.985V6.16h2.785c2.225,0,3.361,0.944,3.361,3.409
			c0,1.857-0.72,2.609-1.393,2.914l1.681,5.234h-2.017l-1.408-4.786c-0.257,0.032-0.673,0.048-1.024,0.048V17.717z M118.673,11.346
			h0.704c1.072,0,1.473-0.4,1.473-1.777c0-1.376-0.4-1.776-1.473-1.776h-0.704V11.346z"/>
		<path style="fill:#FFFFFF;" d="M128.85,10.018V9.121c0-0.976-0.448-1.393-0.961-1.393c-0.8,0-1.056,0.417-1.056,1.281v5.858
			c0,0.864,0.256,1.28,1.056,1.28c0.721,0,0.961-0.416,0.961-1.168v-1.393h1.984v1.329c0,1.633-0.96,2.961-2.945,2.961
			c-2.08,0-3.041-1.329-3.041-2.961V8.961c0-1.633,0.961-2.961,3.041-2.961c1.985,0,2.945,1.44,2.945,3.169v0.848H128.85z"/>
		<path style="fill:#FFFFFF;" d="M133.008,17.717V6.16h5.314v1.729h-3.329v2.978h2.561v1.729h-2.561v3.394h3.553v1.729H133.008z"/>
		<path style="fill:#FFFFFF;" d="M144.255,17.717V6.16h1.985v11.557H144.255z"/>
		<path style="fill:#FFFFFF;" d="M152.209,9.009c-0.08-0.992-0.608-1.281-1.057-1.281c-0.64,0-0.992,0.417-0.992,1.137
			c0,1.969,4.033,2.913,4.033,6.05c0,1.905-1.28,2.961-3.137,2.961c-1.841,0-2.897-1.473-2.978-3.201l1.889-0.272
			c0.08,1.168,0.545,1.745,1.185,1.745c0.688,0,1.152-0.368,1.152-1.056c0-2.289-4.033-2.897-4.033-6.21
			c0-1.841,1.12-2.881,3.073-2.881c1.616,0,2.577,1.168,2.753,2.801L152.209,9.009z"/>
		<path style="fill:#FFFFFF;" d="M159.566,17.717V6.16h5.314v1.729h-3.329v2.978h2.561v1.729h-2.561v3.394h3.553v1.729H159.566z"/>
		<path style="fill:#FFFFFF;" d="M168.367,11.667l-2.113-5.506h1.953l1.216,3.666h0.032l1.104-3.666h1.953l-2.001,5.506l2.241,6.05
			H170.8l-1.345-4.209h-0.032l-1.376,4.209h-1.953L168.367,11.667z"/>
		<path style="fill:#FFFFFF;" d="M178.096,10.018V9.121c0-0.976-0.448-1.393-0.961-1.393c-0.8,0-1.056,0.417-1.056,1.281v5.858
			c0,0.864,0.256,1.28,1.056,1.28c0.721,0,0.961-0.416,0.961-1.168v-1.393h1.984v1.329c0,1.633-0.96,2.961-2.945,2.961
			c-2.08,0-3.041-1.329-3.041-2.961V8.961c0-1.633,0.961-2.961,3.041-2.961c1.985,0,2.945,1.44,2.945,3.169v0.848H178.096z"/>
		<path style="fill:#FFFFFF;" d="M182.254,17.717V6.16h5.313v1.729h-3.329v2.978h2.562v1.729h-2.562v3.394h3.554v1.729H182.254z"/>
		<path style="fill:#FFFFFF;" d="M189.518,17.717V6.16h2.849c2.449,0,3.586,0.944,3.586,3.409c0,2.465-1.137,3.41-3.586,3.41h-0.864
			v4.738H189.518z M191.502,11.346h0.769c1.297,0,1.696-0.4,1.696-1.777c0-1.376-0.399-1.776-1.696-1.776h-0.769V11.346z"/>
		<path style="fill:#FFFFFF;" d="M198.83,7.889h-1.921V6.16h5.826v1.729h-1.921v9.828h-1.984V7.889z"/>
		<path style="fill:#FFFFFF;" d="M204.333,17.717V6.16h1.984v11.557H204.333z"/>
		<path style="fill:#FFFFFF;" d="M208.669,8.961c0-1.633,0.961-2.961,3.041-2.961c2.081,0,3.042,1.329,3.042,2.961v5.954
			c0,1.633-0.961,2.961-3.042,2.961c-2.08,0-3.041-1.329-3.041-2.961V8.961z M210.654,14.868c0,0.864,0.256,1.28,1.056,1.28
			c0.801,0,1.057-0.416,1.057-1.28V9.009c0-0.864-0.256-1.281-1.057-1.281c-0.8,0-1.056,0.417-1.056,1.281V14.868z"/>
		<path style="fill:#FFFFFF;" d="M216.829,17.717V6.16h1.841l2.417,6.611h0.032V6.16h1.793v11.557h-1.729l-2.528-7.219h-0.032v7.219
			H216.829z"/>
		<path style="fill:#FFFFFF;" d="M226.142,17.717h-1.921L226.35,6.16h2.465l2.129,11.557h-1.921l-0.352-2.561h-2.178L226.142,17.717
			z M226.781,13.427h1.601l-0.784-4.962h-0.031L226.781,13.427z"/>
		<path style="fill:#FFFFFF;" d="M232.156,17.717V6.16h1.985v9.828h3.121v1.729H232.156z"/>
		<path style="fill:#FFFFFF;" d="M240.397,17.717l-1.104,1.985h-0.849l0.784-1.985h-0.72v-1.889h1.889V17.717z"/>
		<path style="fill:#FFFFFF;" d="M73.338,37.717h-1.921l2.129-11.557h2.465l2.129,11.557h-1.921l-0.352-2.561h-2.178L73.338,37.717z
			 M73.978,33.427h1.601l-0.784-4.962h-0.031L73.978,33.427z"/>
		<path style="fill:#FFFFFF;" d="M79.449,37.717V26.16h1.841l2.417,6.611h0.031V26.16h1.793v11.557h-1.729l-2.529-7.219h-0.032
			v7.219H79.449z"/>
		<path style="fill:#FFFFFF;" d="M87.608,26.16h2.945c2.049,0,3.138,1.121,3.138,3.489v4.578c0,2.369-1.089,3.489-3.138,3.489
			h-2.945V26.16z M89.594,36.084h0.688c1.057,0,1.425-0.4,1.425-1.617V29.41c0-1.217-0.368-1.617-1.425-1.617h-0.688V36.084z"/>
		<path style="fill:#FFFFFF;" d="M101.466,37.717H99.48V26.16h2.785c2.225,0,3.361,0.944,3.361,3.409
			c0,1.857-0.72,2.609-1.393,2.914l1.681,5.234h-2.017l-1.408-4.786c-0.257,0.032-0.673,0.048-1.024,0.048V37.717z M101.466,31.346
			h0.704c1.072,0,1.473-0.4,1.473-1.777c0-1.376-0.4-1.776-1.473-1.776h-0.704V31.346z"/>
		<path style="fill:#FFFFFF;" d="M107.641,28.961c0-1.633,0.96-2.961,3.041-2.961s3.041,1.329,3.041,2.961v5.954
			c0,1.633-0.96,2.961-3.041,2.961s-3.041-1.329-3.041-2.961V28.961z M109.625,34.868c0,0.864,0.256,1.28,1.057,1.28
			c0.8,0,1.057-0.416,1.057-1.28v-5.858c0-0.864-0.257-1.281-1.057-1.281c-0.801,0-1.057,0.417-1.057,1.281V34.868z"/>
		<path style="fill:#FFFFFF;" d="M115.801,26.16h2.945c2.129,0,3.073,1.088,3.073,3.057c0,0.993-0.417,2.033-1.377,2.417
			c1.009,0.448,1.601,1.249,1.601,2.737c0,1.905-0.849,3.345-3.105,3.345h-3.137V26.16z M117.785,30.898h0.721
			c0.752,0,1.328-0.512,1.328-1.473c0-1.072-0.416-1.632-1.297-1.632h-0.752V30.898z M117.785,36.084h0.832
			c1.057,0,1.441-0.608,1.441-1.776c0-1.185-0.448-1.777-1.633-1.777h-0.641V36.084z"/>
		<path style="fill:#FFFFFF;" d="M123.961,37.717V26.16h5.313v1.729h-3.329v2.978h2.562v1.729h-2.562v3.394h3.554v1.729H123.961z"/>
		<path style="fill:#FFFFFF;" d="M133.209,37.717h-1.985V26.16h2.785c2.225,0,3.361,0.944,3.361,3.409
			c0,1.857-0.72,2.609-1.393,2.914l1.681,5.234h-2.017l-1.408-4.786c-0.257,0.032-0.673,0.048-1.024,0.048V37.717z M133.209,31.346
			h0.704c1.072,0,1.473-0.4,1.473-1.777c0-1.376-0.4-1.776-1.473-1.776h-0.704V31.346z"/>
		<path style="fill:#FFFFFF;" d="M140.536,27.889h-1.921V26.16h5.827v1.729h-1.921v9.828h-1.985V27.889z"/>
		<path style="fill:#FFFFFF;" d="M149.479,37.717V26.16h2.849c2.449,0,3.586,0.944,3.586,3.409c0,2.465-1.137,3.41-3.586,3.41
			h-0.864v4.738H149.479z M151.464,31.346h0.769c1.297,0,1.696-0.4,1.696-1.777c0-1.376-0.399-1.776-1.696-1.776h-0.769V31.346z"/>
		<path style="fill:#FFFFFF;" d="M158.792,37.717h-1.921L159,26.16h2.465l2.129,11.557h-1.921l-0.352-2.561h-2.178L158.792,37.717z
			 M159.432,33.427h1.601l-0.784-4.962h-0.031L159.432,33.427z"/>
		<path style="fill:#FFFFFF;" d="M166.056,27.889h-1.921V26.16h5.826v1.729h-1.921v9.828h-1.984V27.889z"/>
		<path style="fill:#FFFFFF;" d="M172.439,27.889h-1.921V26.16h5.826v1.729h-1.921v9.828h-1.984V27.889z"/>
		<path style="fill:#FFFFFF;" d="M177.942,37.717V26.16h1.984v11.557H177.942z"/>
		<path style="fill:#FFFFFF;" d="M182.278,37.717V26.16h1.841l2.417,6.611h0.032V26.16h1.793v11.557h-1.729l-2.528-7.219h-0.032
			v7.219H182.278z"/>
		<path style="fill:#FFFFFF;" d="M194.056,29.009c-0.079-0.992-0.607-1.281-1.056-1.281c-0.641,0-0.993,0.417-0.993,1.137
			c0,1.969,4.034,2.913,4.034,6.05c0,1.905-1.28,2.961-3.138,2.961c-1.841,0-2.896-1.473-2.977-3.201l1.889-0.272
			c0.08,1.168,0.544,1.745,1.185,1.745c0.688,0,1.152-0.368,1.152-1.056c0-2.289-4.034-2.897-4.034-6.21
			c0-1.841,1.121-2.881,3.073-2.881c1.617,0,2.577,1.168,2.754,2.801L194.056,29.009z"/>
		<path style="fill:#FFFFFF;" d="M197.702,28.961c0-1.633,0.96-2.961,3.041-2.961s3.041,1.329,3.041,2.961v5.954
			c0,1.633-0.96,2.961-3.041,2.961s-3.041-1.329-3.041-2.961V28.961z M199.687,34.868c0,0.864,0.256,1.28,1.057,1.28
			c0.8,0,1.057-0.416,1.057-1.28v-5.858c0-0.864-0.257-1.281-1.057-1.281c-0.801,0-1.057,0.417-1.057,1.281V34.868z"/>
		<path style="fill:#FFFFFF;" d="M205.862,37.717V26.16h1.841l2.417,6.611h0.031V26.16h1.793v11.557h-1.729l-2.529-7.219h-0.032
			v7.219H205.862z"/>
		<path style="fill:#FFFFFF;" d="M218.006,37.717V26.16h1.984v11.557H218.006z"/>
		<path style="fill:#FFFFFF;" d="M225.959,29.009c-0.079-0.992-0.607-1.281-1.056-1.281c-0.641,0-0.993,0.417-0.993,1.137
			c0,1.969,4.034,2.913,4.034,6.05c0,1.905-1.28,2.961-3.138,2.961c-1.841,0-2.896-1.473-2.977-3.201l1.889-0.272
			c0.08,1.168,0.544,1.745,1.185,1.745c0.688,0,1.152-0.368,1.152-1.056c0-2.289-4.034-2.897-4.034-6.21
			c0-1.841,1.121-2.881,3.073-2.881c1.617,0,2.577,1.168,2.754,2.801L225.959,29.009z"/>
		<path style="fill:#FFFFFF;" d="M105.617,57.717h-1.921l2.129-11.557h2.466l2.128,11.557h-1.92l-0.353-2.561h-2.177L105.617,57.717
			z M106.258,53.427h1.601l-0.784-4.962h-0.032L106.258,53.427z"/>
		<path style="fill:#FFFFFF;" d="M117.426,57.717h-1.985V46.16h2.785c2.225,0,3.361,0.944,3.361,3.409
			c0,1.857-0.72,2.609-1.393,2.914l1.681,5.234h-2.017l-1.408-4.786c-0.257,0.032-0.673,0.048-1.024,0.048V57.717z M117.426,51.346
			h0.704c1.072,0,1.473-0.4,1.473-1.777c0-1.376-0.4-1.776-1.473-1.776h-0.704V51.346z"/>
		<path style="fill:#FFFFFF;" d="M123.601,57.717V46.16h5.314v1.729h-3.329v2.978h2.561v1.729h-2.561v3.394h3.553v1.729H123.601z"/>
		<path style="fill:#FFFFFF;" d="M134.914,46.16h1.953l-2.417,11.557h-1.985l-2.417-11.557h1.953l1.44,8.019h0.032L134.914,46.16z"
			/>
		<path style="fill:#FFFFFF;" d="M138.128,57.717V46.16h5.313v1.729h-3.329v2.978h2.562v1.729h-2.562v3.394h3.554v1.729H138.128z"/>
		<path style="fill:#FFFFFF;" d="M145.295,57.717V46.16h1.985v9.828h3.121v1.729H145.295z"/>
		<path style="fill:#FFFFFF;" d="M152.928,57.717h-1.921l2.129-11.557h2.465l2.129,11.557h-1.921l-0.352-2.561h-2.178
			L152.928,57.717z M153.567,53.427h1.601l-0.784-4.962h-0.031L153.567,53.427z"/>
		<path style="fill:#FFFFFF;" d="M160.19,47.889h-1.921V46.16h5.827v1.729h-1.921v9.828h-1.985V47.889z"/>
		<path style="fill:#FFFFFF;" d="M165.694,57.717V46.16h1.984v11.557H165.694z"/>
		<path style="fill:#FFFFFF;" d="M170.03,48.961c0-1.633,0.961-2.961,3.041-2.961c2.081,0,3.042,1.329,3.042,2.961v5.954
			c0,1.633-0.961,2.961-3.042,2.961c-2.08,0-3.041-1.329-3.041-2.961V48.961z M172.016,54.868c0,0.864,0.256,1.28,1.056,1.28
			c0.801,0,1.057-0.416,1.057-1.28v-5.858c0-0.864-0.256-1.281-1.057-1.281c-0.8,0-1.056,0.417-1.056,1.281V54.868z"/>
		<path style="fill:#FFFFFF;" d="M178.19,57.717V46.16h1.841l2.417,6.611h0.031V46.16h1.793v11.557h-1.729l-2.529-7.219h-0.032
			v7.219H178.19z"/>
		<path style="fill:#FFFFFF;" d="M186.223,57.717v-1.889h1.889v1.889H186.223z"/>
		<path style="fill:#FFFFFF;" d="M192.127,48.049l-1.104,1.985h-0.849l0.785-1.985h-0.721V46.16h1.889V48.049z M195.088,48.049
			l-1.104,1.985h-0.848l0.784-1.985h-0.721V46.16h1.889V48.049z"/>
		<path style="fill:#FFF8DA;" d="M107.376,79.717v-8.659h1.487v7.364h2.339v1.295H107.376z"/>
		<path style="fill:#FFF8DA;" d="M112.177,73.156c0-1.223,0.719-2.219,2.278-2.219s2.278,0.996,2.278,2.219v4.462
			c0,1.223-0.719,2.219-2.278,2.219s-2.278-0.996-2.278-2.219V73.156z M113.663,77.582c0,0.647,0.192,0.959,0.792,0.959
			s0.792-0.312,0.792-0.959v-4.39c0-0.647-0.192-0.959-0.792-0.959s-0.792,0.312-0.792,0.959V77.582z"/>
		<path style="fill:#FFF8DA;" d="M120.947,73.192c-0.061-0.744-0.456-0.959-0.792-0.959c-0.479,0-0.743,0.312-0.743,0.852
			c0,1.475,3.022,2.183,3.022,4.534c0,1.427-0.96,2.219-2.352,2.219c-1.379,0-2.17-1.104-2.23-2.399l1.415-0.204
			c0.061,0.875,0.408,1.307,0.888,1.307c0.516,0,0.863-0.276,0.863-0.792c0-1.715-3.022-2.171-3.022-4.653
			c0-1.379,0.84-2.159,2.303-2.159c1.212,0,1.932,0.875,2.063,2.099L120.947,73.192z"/>
		<path style="fill:#FFF8DA;" d="M127.211,79.717h-1.438l1.595-8.659h1.847l1.596,8.659h-1.439l-0.264-1.919h-1.631L127.211,79.717z
			 M127.691,76.502h1.199l-0.588-3.718h-0.024L127.691,76.502z"/>
		<path style="fill:#FFF8DA;" d="M131.735,79.717v-8.659h1.379l1.811,4.953h0.024v-4.953h1.343v8.659h-1.295l-1.895-5.409h-0.024
			v5.409H131.735z"/>
		<path style="fill:#FFF8DA;" d="M139.846,75.327h2.435v4.39h-0.72l-0.275-0.647c-0.443,0.527-0.804,0.768-1.499,0.768
			c-1.176,0-1.991-0.84-1.991-2.219v-4.462c0-1.223,0.72-2.219,2.183-2.219c1.487,0,2.231,1.08,2.231,2.375v0.552h-1.416
			c0-1.295-0.264-1.631-0.852-1.631c-0.359,0-0.659,0.216-0.659,0.947v4.45c0,0.552,0.18,0.912,0.695,0.912
			c0.6,0,0.815-0.336,0.815-1.199v-0.84h-0.947V75.327z"/>
		<path style="fill:#FFF8DA;" d="M143.855,79.717v-8.659h3.981v1.295h-2.495v2.23h1.919v1.295h-1.919v2.542h2.663v1.295H143.855z"/>
		<path style="fill:#FFF8DA;" d="M149.171,79.717v-8.659h1.487v7.364h2.339v1.295H149.171z"/>
		<path style="fill:#FFF8DA;" d="M153.971,79.717v-8.659h3.981v1.295h-2.494v2.23h1.919v1.295h-1.919v2.542h2.662v1.295H153.971z"/>
		<path style="fill:#FFF8DA;" d="M162.069,73.192c-0.061-0.744-0.456-0.959-0.792-0.959c-0.479,0-0.743,0.312-0.743,0.852
			c0,1.475,3.022,2.183,3.022,4.534c0,1.427-0.96,2.219-2.352,2.219c-1.379,0-2.17-1.104-2.23-2.399l1.415-0.204
			c0.061,0.875,0.408,1.307,0.888,1.307c0.516,0,0.863-0.276,0.863-0.792c0-1.715-3.022-2.171-3.022-4.653
			c0-1.379,0.84-2.159,2.303-2.159c1.212,0,1.932,0.875,2.063,2.099L162.069,73.192z"/>
		<path style="fill:#FFF8DA;" d="M168.334,72.353h-1.439v-1.295h4.365v1.295h-1.438v7.364h-1.487V72.353z"/>
		<path style="fill:#FFF8DA;" d="M172.401,79.717v-8.659h1.487v8.659H172.401z"/>
		<path style="fill:#FFF8DA;" d="M181.555,71.058v8.659h-1.295v-6.764h-0.024l-1.344,6.764h-0.719l-1.344-6.764h-0.023v6.764h-1.296
			v-8.659h1.955l1.056,5.061h0.023l1.056-5.061H181.555z"/>
		<path style="fill:#FFF8DA;" d="M182.986,79.717v-8.659h3.981v1.295h-2.495v2.23h1.919v1.295h-1.919v2.542h2.663v1.295H182.986z"/>
		<path style="fill:#FFF8DA;" d="M191.084,73.192c-0.06-0.744-0.456-0.959-0.791-0.959c-0.48,0-0.744,0.312-0.744,0.852
			c0,1.475,3.022,2.183,3.022,4.534c0,1.427-0.959,2.219-2.351,2.219c-1.379,0-2.171-1.104-2.23-2.399l1.415-0.204
			c0.06,0.875,0.407,1.307,0.888,1.307c0.516,0,0.863-0.276,0.863-0.792c0-1.715-3.022-2.171-3.022-4.653
			c0-1.379,0.84-2.159,2.303-2.159c1.211,0,1.931,0.875,2.062,2.099L191.084,73.192z"/>
	</g>
</g>
<g id="nyt_x5F_exporter_x5F_info" style="display:none;">
</g>
</svg>
