<?xml version="1.0" encoding="iso-8859-1"?>
<!-- Generator: Adobe Illustrator 17.1.0, SVG Export Plug-In . SVG Version: 6.00 Build 0)  -->
<!DOCTYPE svg PUBLIC "-//W3C//DTD SVG 1.1//EN" "http://www.w3.org/Graphics/SVG/1.1/DTD/svg11.dtd">
<svg version="1.1" xmlns="http://www.w3.org/2000/svg" xmlns:xlink="http://www.w3.org/1999/xlink" x="0px" y="0px"
	 viewBox="0 0 300 132.444" style="enable-background:new 0 0 300 132.444;" xml:space="preserve">
<g id="Layer_1">
	<g>
		<path style="fill:#FFFFFF;" d="M2.002,1.985L3.107,0h0.848L3.171,1.985h0.72v1.889H2.002V1.985z M4.963,1.985L6.068,0h0.849
			L6.132,1.985h0.72v1.889H4.963V1.985z"/>
		<path style="fill:#FFFFFF;" d="M9.106,0.16h2.945c2.049,0,3.137,1.121,3.137,3.489v4.578c0,2.369-1.088,3.489-3.137,3.489H9.106
			V0.16z M11.091,10.084h0.688c1.057,0,1.425-0.4,1.425-1.617V3.41c0-1.217-0.368-1.617-1.425-1.617h-0.688V10.084z"/>
		<path style="fill:#FFFFFF;" d="M17.537,11.717V0.16h1.985v11.557H17.537z"/>
		<path style="fill:#FFFFFF;" d="M25.491,3.009c-0.08-0.992-0.608-1.281-1.056-1.281c-0.64,0-0.993,0.417-0.993,1.137
			c0,1.969,4.034,2.913,4.034,6.05c0,1.905-1.28,2.961-3.137,2.961c-1.841,0-2.897-1.473-2.977-3.201l1.889-0.272
			c0.08,1.168,0.544,1.745,1.185,1.745c0.688,0,1.152-0.368,1.152-1.056c0-2.289-4.034-2.897-4.034-6.21
			C21.553,1.041,22.674,0,24.627,0c1.617,0,2.577,1.168,2.753,2.801L25.491,3.009z"/>
		<path style="fill:#FFFFFF;" d="M30.29,1.889h-1.921V0.16h5.827v1.729h-1.921v9.828H30.29V1.889z"/>
		<path style="fill:#FFFFFF;" d="M35.793,11.717V0.16h1.985v11.557H35.793z"/>
		<path style="fill:#FFFFFF;" d="M40.129,11.717V0.16h1.841l2.417,6.611h0.032V0.16h1.793v11.557h-1.729l-2.529-7.219h-0.032v7.219
			H40.129z"/>
		<path style="fill:#FFFFFF;" d="M52.291,4.018V3.121c0-0.976-0.448-1.393-0.96-1.393c-0.8,0-1.056,0.417-1.056,1.281v5.858
			c0,0.864,0.256,1.28,1.056,1.28c0.72,0,0.96-0.416,0.96-1.168V7.587h1.985v1.329c0,1.633-0.96,2.961-2.945,2.961
			c-2.081,0-3.041-1.329-3.041-2.961V2.961C48.289,1.329,49.25,0,51.33,0c1.985,0,2.945,1.44,2.945,3.169v0.848H52.291z"/>
		<path style="fill:#FFFFFF;" d="M57.601,1.889H55.68V0.16h5.827v1.729h-1.921v9.828h-1.985V1.889z"/>
		<path style="fill:#FFFFFF;" d="M63.105,11.717V0.16h1.985v11.557H63.105z"/>
		<path style="fill:#FFFFFF;" d="M71.491,0.16h1.953l-2.417,11.557h-1.985L66.625,0.16h1.953l1.441,8.019h0.032L71.491,0.16z"/>
		<path style="fill:#FFFFFF;" d="M74.704,11.717V0.16h5.314v1.729h-3.329v2.978h2.561v1.729h-2.561v3.394h3.553v1.729H74.704z"/>
		<path style="fill:#FFFFFF;" d="M86.832,11.717h-1.921L87.04,0.16h2.465l2.129,11.557h-1.921l-0.352-2.561h-2.177L86.832,11.717z
			 M87.472,7.427h1.601l-0.784-4.962h-0.032L87.472,7.427z"/>
		<path style="fill:#FFFFFF;" d="M92.944,11.717V0.16h1.841l2.417,6.611h0.032V0.16h1.793v11.557h-1.729l-2.529-7.219h-0.032v7.219
			H92.944z"/>
		<path style="fill:#FFFFFF;" d="M101.103,0.16h2.945c2.049,0,3.137,1.121,3.137,3.489v4.578c0,2.369-1.088,3.489-3.137,3.489
			h-2.945V0.16z M103.088,10.084h0.688c1.057,0,1.425-0.4,1.425-1.617V3.41c0-1.217-0.368-1.617-1.425-1.617h-0.688V10.084z"/>
		<path style="fill:#FFFFFF;" d="M116.977,4.018V3.121c0-0.976-0.448-1.393-0.96-1.393c-0.8,0-1.056,0.417-1.056,1.281v5.858
			c0,0.864,0.256,1.28,1.056,1.28c0.72,0,0.96-0.416,0.96-1.168V7.587h1.985v1.329c0,1.633-0.96,2.961-2.945,2.961
			c-2.081,0-3.041-1.329-3.041-2.961V2.961c0-1.633,0.96-2.961,3.041-2.961c1.985,0,2.945,1.44,2.945,3.169v0.848H116.977z"/>
		<path style="fill:#FFFFFF;" d="M121.135,2.961c0-1.633,0.96-2.961,3.041-2.961c2.081,0,3.042,1.329,3.042,2.961v5.954
			c0,1.633-0.96,2.961-3.042,2.961c-2.081,0-3.041-1.329-3.041-2.961V2.961z M123.12,8.868c0,0.864,0.256,1.28,1.056,1.28
			s1.057-0.416,1.057-1.28V3.009c0-0.864-0.256-1.281-1.057-1.281s-1.056,0.417-1.056,1.281V8.868z"/>
		<path style="fill:#FFFFFF;" d="M137.25,0.16v11.557h-1.729V2.689h-0.032l-1.792,9.028h-0.96l-1.793-9.028h-0.032v9.028h-1.729
			V0.16h2.609l1.409,6.755h0.032l1.409-6.755H137.25z"/>
		<path style="fill:#FFFFFF;" d="M139.231,11.717V0.16h2.849c2.449,0,3.585,0.944,3.585,3.409c0,2.465-1.137,3.41-3.585,3.41h-0.864
			v4.738H139.231z M141.216,5.346h0.768c1.297,0,1.697-0.4,1.697-1.777c0-1.376-0.4-1.776-1.697-1.776h-0.768V5.346z"/>
		<path style="fill:#FFFFFF;" d="M147.391,11.717V0.16h5.314v1.729h-3.329v2.978h2.561v1.729h-2.561v3.394h3.553v1.729H147.391z"/>
		<path style="fill:#FFFFFF;" d="M154.559,11.717V0.16h1.985v9.828h3.121v1.729H154.559z"/>
		<path style="fill:#FFFFFF;" d="M160.943,11.717V0.16h1.985v9.828h3.121v1.729H160.943z"/>
		<path style="fill:#FFFFFF;" d="M167.694,11.717V0.16h1.985v11.557H167.694z"/>
		<path style="fill:#FFFFFF;" d="M172.031,11.717V0.16h1.841l2.417,6.611h0.032V0.16h1.793v11.557h-1.729l-2.529-7.219h-0.032v7.219
			H172.031z"/>
		<path style="fill:#FFFFFF;" d="M182.927,5.858h3.25v5.858h-0.96l-0.368-0.864c-0.592,0.704-1.072,1.024-2,1.024
			c-1.569,0-2.657-1.121-2.657-2.961V2.961c0-1.633,0.96-2.961,2.913-2.961c1.985,0,2.977,1.44,2.977,3.169v0.736h-1.889
			c0-1.729-0.352-2.177-1.136-2.177c-0.48,0-0.88,0.289-0.88,1.265v5.938c0,0.736,0.24,1.216,0.928,1.216
			c0.8,0,1.088-0.448,1.088-1.601v-1.12h-1.265V5.858z"/>
		<path style="fill:#FFFFFF;" d="M189.151,11.717V9.828h1.825v1.889H189.151z M194.481,11.717V9.828h1.825v1.889H194.481z
			 M199.811,11.717V9.828h1.825v1.889H199.811z"/>
		<path style="fill:#FFFFFF;" d="M209.375,1.889h-1.921V0.16h5.827v1.729h-1.921v9.828h-1.985V1.889z"/>
		<path style="fill:#FFFFFF;" d="M214.606,11.717V0.16h1.985v4.706h2.113V0.16h1.985v11.557h-1.985V6.595h-2.113v5.122H214.606z"/>
		<path style="fill:#FFFFFF;" d="M222.766,11.717V0.16h5.314v1.729h-3.329v2.978h2.561v1.729h-2.561v3.394h3.553v1.729H222.766z"/>
		<path style="fill:#FFFFFF;" d="M235.726,11.717h-1.985V0.16h2.785c2.225,0,3.361,0.944,3.361,3.409
			c0,1.857-0.72,2.609-1.393,2.914l1.681,5.234h-2.017l-1.409-4.786c-0.256,0.032-0.672,0.048-1.024,0.048V11.717z M235.726,5.346
			h0.704c1.072,0,1.473-0.4,1.473-1.777c0-1.376-0.4-1.776-1.473-1.776h-0.704V5.346z"/>
		<path style="fill:#FFFFFF;" d="M241.901,2.961c0-1.633,0.96-2.961,3.041-2.961c2.081,0,3.042,1.329,3.042,2.961v5.954
			c0,1.633-0.96,2.961-3.042,2.961c-2.081,0-3.041-1.329-3.041-2.961V2.961z M243.886,8.868c0,0.864,0.256,1.28,1.056,1.28
			s1.057-0.416,1.057-1.28V3.009c0-0.864-0.256-1.281-1.057-1.281s-1.056,0.417-1.056,1.281V8.868z"/>
		<path style="fill:#FFFFFF;" d="M254.111,0.16h1.953l-2.417,11.557h-1.985L249.245,0.16h1.953l1.441,8.019h0.032L254.111,0.16z"/>
		<path style="fill:#FFFFFF;" d="M257.324,11.717V0.16h5.314v1.729h-3.329v2.978h2.561v1.729h-2.561v3.394h3.553v1.729H257.324z"/>
		<path style="fill:#FFFFFF;" d="M266.573,11.717h-1.985V0.16h2.785c2.225,0,3.361,0.944,3.361,3.409
			c0,1.857-0.72,2.609-1.393,2.914l1.681,5.234h-2.017l-1.408-4.786c-0.256,0.032-0.672,0.048-1.024,0.048V11.717z M266.573,5.346
			h0.704c1.072,0,1.473-0.4,1.473-1.777c0-1.376-0.4-1.776-1.473-1.776h-0.704V5.346z"/>
		<path style="fill:#FFFFFF;" d="M276.732,11.717V0.16h1.985v11.557H276.732z"/>
		<path style="fill:#FFFFFF;" d="M284.685,3.009c-0.08-0.992-0.608-1.281-1.056-1.281c-0.64,0-0.993,0.417-0.993,1.137
			c0,1.969,4.034,2.913,4.034,6.05c0,1.905-1.28,2.961-3.137,2.961c-1.841,0-2.897-1.473-2.977-3.201l1.889-0.272
			c0.08,1.168,0.544,1.745,1.185,1.745c0.688,0,1.152-0.368,1.152-1.056c0-2.289-4.034-2.897-4.034-6.21
			c0-1.841,1.121-2.881,3.073-2.881c1.617,0,2.577,1.168,2.753,2.801L284.685,3.009z"/>
		<path style="fill:#FFFFFF;" d="M293.196,11.717h-1.921l2.129-11.557h2.465l2.128,11.557h-1.92l-0.352-2.561h-2.177L293.196,11.717
			z M293.836,7.427h1.601l-0.785-4.962h-0.032L293.836,7.427z"/>
		<path style="fill:#FFFFFF;" d="M12.758,20.16v11.557h-1.729v-9.028h-0.032l-1.792,9.028h-0.96l-1.793-9.028H6.419v9.028H4.69
			V20.16H7.3l1.408,6.755H8.74l1.409-6.755H12.758z"/>
		<path style="fill:#FFFFFF;" d="M15.891,31.717H13.97l2.129-11.557h2.465l2.129,11.557h-1.921l-0.352-2.561h-2.177L15.891,31.717z
			 M16.531,27.427h1.601l-0.784-4.962h-0.032L16.531,27.427z"/>
		<path style="fill:#FFFFFF;" d="M23.987,31.717h-1.985V20.16h2.785c2.225,0,3.361,0.944,3.361,3.409
			c0,1.857-0.72,2.609-1.393,2.914l1.681,5.234H26.42l-1.409-4.786c-0.256,0.032-0.672,0.048-1.024,0.048V31.717z M23.987,25.346
			h0.704c1.072,0,1.473-0.4,1.473-1.777c0-1.376-0.4-1.776-1.473-1.776h-0.704V25.346z"/>
		<path style="fill:#FFFFFF;" d="M30.066,31.717V20.16h1.985v4.274h0.032l2.081-4.274h1.985l-2.145,4.306l2.417,7.251h-2.017
			l-1.617-5.378h-0.032l-0.704,1.28v4.098H30.066z"/>
		<path style="fill:#FFFFFF;" d="M41.137,22.961c0-1.633,0.96-2.961,3.041-2.961c2.081,0,3.042,1.329,3.042,2.961v5.954
			c0,1.633-0.96,2.961-3.042,2.961c-2.081,0-3.041-1.329-3.041-2.961V22.961z M43.122,28.868c0,0.864,0.256,1.28,1.056,1.28
			s1.057-0.416,1.057-1.28v-5.858c0-0.864-0.256-1.281-1.057-1.281s-1.056,0.417-1.056,1.281V28.868z"/>
		<path style="fill:#FFFFFF;" d="M49.297,31.717V20.16h5.538v1.729h-3.553v2.978h2.657v1.729h-2.657v5.122H49.297z"/>
		<path style="fill:#FFFFFF;" d="M59.36,30.148h0.417c0.768,0,1.04-0.32,1.04-0.96V20.16h1.985v9.252
			c0,1.472-0.592,2.465-2.785,2.465H59.36V30.148z"/>
		<path style="fill:#FFFFFF;" d="M64.881,20.16h1.985v8.724c0,0.848,0.336,1.264,1.056,1.264s1.057-0.416,1.057-1.264V20.16h1.985
			v8.644c0,1.985-1.153,3.073-3.042,3.073s-3.041-1.088-3.041-3.073V20.16z"/>
		<path style="fill:#FFFFFF;" d="M76.658,23.009c-0.08-0.992-0.608-1.281-1.056-1.281c-0.64,0-0.993,0.417-0.993,1.137
			c0,1.969,4.034,2.913,4.034,6.05c0,1.905-1.28,2.961-3.137,2.961c-1.841,0-2.897-1.473-2.977-3.201l1.889-0.272
			c0.08,1.168,0.544,1.745,1.185,1.745c0.688,0,1.152-0.368,1.152-1.056c0-2.289-4.034-2.897-4.034-6.21
			c0-1.841,1.121-2.881,3.073-2.881c1.617,0,2.577,1.168,2.753,2.801L76.658,23.009z"/>
		<path style="fill:#FFFFFF;" d="M81.456,21.889h-1.921V20.16h5.827v1.729h-1.921v9.828h-1.985V21.889z"/>
		<path style="fill:#FFFFFF;" d="M93.841,20.16h1.633l1.344,7.363h0.032l1.104-7.363h1.856l-2.033,11.557h-1.665l-1.441-7.635
			h-0.032l-1.345,7.635h-1.665L89.439,20.16h1.857l1.216,7.363h0.032L93.841,20.16z"/>
		<path style="fill:#FFFFFF;" d="M101.232,31.717V20.16h1.985v4.706h2.113V20.16h1.985v11.557h-1.985v-5.122h-2.113v5.122H101.232z"
			/>
		<path style="fill:#FFFFFF;" d="M110.544,31.717h-1.921l2.129-11.557h2.465l2.128,11.557h-1.92l-0.352-2.561h-2.177L110.544,31.717
			z M111.184,27.427h1.601L112,22.465h-0.032L111.184,27.427z"/>
		<path style="fill:#FFFFFF;" d="M117.807,21.889h-1.921V20.16h5.827v1.729h-1.921v9.828h-1.985V21.889z"/>
		<path style="fill:#FFFFFF;" d="M127.903,31.717h-1.921l2.129-11.557h2.465l2.129,11.557h-1.921l-0.352-2.561h-2.177
			L127.903,31.717z M128.543,27.427h1.601l-0.784-4.962h-0.032L128.543,27.427z"/>
		<path style="fill:#FFFFFF;" d="M138.878,21.889h-1.921V20.16h5.827v1.729h-1.921v9.828h-1.985V21.889z"/>
		<path style="fill:#FFFFFF;" d="M145.261,31.717h-1.921l2.129-11.557h2.465l2.128,11.557h-1.92l-0.352-2.561h-2.177L145.261,31.717
			z M145.902,27.427h1.601l-0.785-4.962h-0.032L145.902,27.427z"/>
		<path style="fill:#FFFFFF;" d="M151.277,31.717V20.16h1.985v9.828h3.121v1.729H151.277z"/>
		<path style="fill:#FFFFFF;" d="M157.757,31.717V20.16h5.314v1.729h-3.329v2.978h2.561v1.729h-2.561v3.394h3.553v1.729H157.757z"/>
		<path style="fill:#FFFFFF;" d="M165.02,31.717V20.16h1.841l2.417,6.611h0.032V20.16h1.793v11.557h-1.729l-2.529-7.219h-0.032
			v7.219H165.02z"/>
		<path style="fill:#FFFFFF;" d="M174.332,21.889h-1.921V20.16h5.827v1.729h-1.921v9.828h-1.985V21.889z"/>
		<path style="fill:#FFFFFF;" d="M183.275,20.16h2.945c2.049,0,3.137,1.121,3.137,3.489v4.578c0,2.369-1.088,3.489-3.137,3.489
			h-2.945V20.16z M185.26,30.084h0.688c1.057,0,1.425-0.4,1.425-1.617V23.41c0-1.217-0.368-1.617-1.425-1.617h-0.688V30.084z"/>
		<path style="fill:#FFFFFF;" d="M192.588,31.717h-1.921l2.129-11.557h2.465l2.128,11.557h-1.92l-0.352-2.561h-2.177L192.588,31.717
			z M193.228,27.427h1.601l-0.785-4.962h-0.032L193.228,27.427z"/>
		<path style="fill:#FFFFFF;" d="M202.749,20.16h1.953l-2.417,11.557H200.3l-2.417-11.557h1.953l1.441,8.019h0.032L202.749,20.16z"
			/>
		<path style="fill:#FFFFFF;" d="M206.234,31.717V20.16h1.985v11.557H206.234z"/>
		<path style="fill:#FFFFFF;" d="M210.571,20.16h2.945c2.049,0,3.137,1.121,3.137,3.489v4.578c0,2.369-1.088,3.489-3.137,3.489
			h-2.945V20.16z M212.555,30.084h0.688c1.057,0,1.425-0.4,1.425-1.617V23.41c0-1.217-0.368-1.617-1.425-1.617h-0.688V30.084z"/>
		<path style="fill:#FFFFFF;" d="M230.397,20.16v11.557h-1.729v-9.028h-0.032l-1.792,9.028h-0.96l-1.793-9.028h-0.032v9.028h-1.729
			V20.16h2.609l1.408,6.755h0.032l1.409-6.755H230.397z"/>
		<path style="fill:#FFFFFF;" d="M232.65,31.717V20.16h1.985v11.557H232.65z"/>
		<path style="fill:#FFFFFF;" d="M240.988,24.018v-0.896c0-0.976-0.448-1.393-0.96-1.393c-0.8,0-1.056,0.417-1.056,1.281v5.858
			c0,0.864,0.256,1.28,1.056,1.28c0.72,0,0.96-0.416,0.96-1.168v-1.393h1.985v1.329c0,1.633-0.96,2.961-2.945,2.961
			c-2.081,0-3.041-1.329-3.041-2.961v-5.954c0-1.633,0.96-2.961,3.041-2.961c1.985,0,2.945,1.44,2.945,3.169v0.848H240.988z"/>
		<path style="fill:#FFFFFF;" d="M245.146,31.717V20.16h1.985v4.706h2.113V20.16h1.985v11.557h-1.985v-5.122h-2.113v5.122H245.146z"
			/>
		<path style="fill:#FFFFFF;" d="M253.306,22.961c0-1.633,0.96-2.961,3.041-2.961c2.081,0,3.042,1.329,3.042,2.961v5.954
			c0,1.633-0.96,2.961-3.042,2.961c-2.081,0-3.041-1.329-3.041-2.961V22.961z M255.467,17.247h1.761l1.537,2.305h-1.473
			l-0.944-1.424l-0.944,1.424h-1.473L255.467,17.247z M255.291,28.868c0,0.864,0.256,1.28,1.056,1.28s1.057-0.416,1.057-1.28v-5.858
			c0-0.864-0.256-1.281-1.057-1.281s-1.056,0.417-1.056,1.281V28.868z"/>
		<path style="fill:#FFFFFF;" d="M261.466,20.16h2.945c2.049,0,3.137,1.121,3.137,3.489v4.578c0,2.369-1.088,3.489-3.137,3.489
			h-2.945V20.16z M263.451,30.084h0.688c1.057,0,1.425-0.4,1.425-1.617V23.41c0-1.217-0.368-1.617-1.425-1.617h-0.688V30.084z"/>
		<path style="fill:#FFFFFF;" d="M273.61,31.717V20.16h1.985v11.557H273.61z"/>
		<path style="fill:#FFFFFF;" d="M281.563,23.009c-0.08-0.992-0.608-1.281-1.056-1.281c-0.64,0-0.993,0.417-0.993,1.137
			c0,1.969,4.034,2.913,4.034,6.05c0,1.905-1.28,2.961-3.137,2.961c-1.841,0-2.897-1.473-2.977-3.201l1.889-0.272
			c0.08,1.168,0.544,1.745,1.185,1.745c0.688,0,1.152-0.368,1.152-1.056c0-2.289-4.034-2.897-4.034-6.21
			c0-1.841,1.121-2.881,3.073-2.881c1.617,0,2.577,1.168,2.753,2.801L281.563,23.009z"/>
		<path style="fill:#FFFFFF;" d="M285.082,31.717v-1.889h1.889v1.889H285.082z"/>
		<path style="fill:#FFFFFF;" d="M288.793,31.717v-1.889h1.889v1.889H288.793z"/>
		<path style="fill:#FFFFFF;" d="M292.505,31.717v-1.889h1.889v1.889H292.505z"/>
		<path style="fill:#FFF8DA;" d="M10.703,43.616H6.384v-3.888h13.102v3.888h-4.319v22.101h-4.463V43.616z"/>
		<path style="fill:#FFF8DA;" d="M22.295,65.717V39.728h4.463v10.583h4.751V39.728h4.463v25.989H31.51V54.198h-4.751v11.519H22.295z
			"/>
		<path style="fill:#FFF8DA;" d="M41.087,65.717V39.728h4.463v25.989H41.087z"/>
		<path style="fill:#FFF8DA;" d="M58.798,46.135c-0.18-2.232-1.368-2.879-2.376-2.879c-1.44,0-2.231,0.936-2.231,2.556
			c0,4.427,9.071,6.551,9.071,13.606c0,4.284-2.88,6.659-7.055,6.659c-4.14,0-6.515-3.312-6.695-7.199l4.248-0.612
			c0.18,2.628,1.224,3.924,2.664,3.924c1.548,0,2.592-0.828,2.592-2.376c0-5.147-9.071-6.515-9.071-13.966
			c0-4.139,2.52-6.479,6.911-6.479c3.635,0,5.795,2.627,6.191,6.299L58.798,46.135z"/>
		<path style="fill:#FFF8DA;" d="M75.61,65.717V39.728h4.463v25.989H75.61z"/>
		<path style="fill:#FFF8DA;" d="M93.321,46.135c-0.18-2.232-1.368-2.879-2.376-2.879c-1.44,0-2.231,0.936-2.231,2.556
			c0,4.427,9.071,6.551,9.071,13.606c0,4.284-2.88,6.659-7.055,6.659c-4.14,0-6.515-3.312-6.695-7.199l4.248-0.612
			c0.18,2.628,1.224,3.924,2.664,3.924c1.548,0,2.592-0.828,2.592-2.376c0-5.147-9.071-6.515-9.071-13.966
			c0-4.139,2.52-6.479,6.911-6.479c3.635,0,5.795,2.627,6.191,6.299L93.321,46.135z"/>
		<path style="fill:#FFF8DA;" d="M109.52,65.717V39.728h4.463v10.583h4.751V39.728h4.463v25.989h-4.463V54.198h-4.751v11.519H109.52
			z"/>
		<path style="fill:#FFF8DA;" d="M127.7,46.027c0-3.671,2.16-6.659,6.839-6.659c4.679,0,6.839,2.988,6.839,6.659v13.39
			c0,3.672-2.16,6.659-6.839,6.659c-4.68,0-6.839-2.987-6.839-6.659V46.027z M132.164,59.31c0,1.944,0.576,2.88,2.376,2.88
			s2.375-0.936,2.375-2.88V46.135c0-1.944-0.576-2.879-2.375-2.879s-2.376,0.936-2.376,2.879V59.31z"/>
		<path style="fill:#FFF8DA;" d="M153.619,39.728h3.671l3.023,16.558h0.072l2.483-16.558h4.176l-4.572,25.989h-3.743l-3.24-17.17
			h-0.072l-3.024,17.17h-3.744l-4.931-25.989h4.175l2.736,16.558h0.072L153.619,39.728z"/>
		<path style="fill:#FFF8DA;" d="M180.835,65.717h-4.319l4.787-25.989h5.543l4.787,25.989h-4.319l-0.792-5.759h-4.895
			L180.835,65.717z M182.275,56.07h3.6l-1.764-11.158h-0.072L182.275,56.07z"/>
		<path style="fill:#FFF8DA;" d="M194.406,39.728h4.463v19.618c0,1.908,0.756,2.844,2.376,2.844c1.62,0,2.375-0.936,2.375-2.844
			V39.728h4.463v19.438c0,4.463-2.592,6.911-6.839,6.911c-4.248,0-6.839-2.448-6.839-6.911V39.728z"/>
		<path style="fill:#FFF8DA;" d="M215.178,43.616h-4.319v-3.888h13.102v3.888h-4.319v22.101h-4.463V43.616z"/>
		<path style="fill:#FFF8DA;" d="M226.771,65.717V39.728h11.951v3.888h-7.487v6.695h5.759v3.888h-5.759v7.631h7.991v3.888H226.771z"
			/>
		<path style="fill:#FFF8DA;" d="M242.934,39.728h4.463v19.618c0,1.908,0.756,2.844,2.376,2.844c1.62,0,2.375-0.936,2.375-2.844
			V39.728h4.463v19.438c0,4.463-2.592,6.911-6.839,6.911c-4.248,0-6.839-2.448-6.839-6.911V39.728z"/>
		<path style="fill:#FFF8DA;" d="M265.577,65.717h-4.463V39.728h6.263c5.003,0,7.559,2.124,7.559,7.667
			c0,4.176-1.62,5.867-3.131,6.551l3.779,11.771h-4.536l-3.167-10.763c-0.576,0.072-1.512,0.108-2.304,0.108V65.717z
			 M265.577,51.391h1.584c2.412,0,3.312-0.9,3.312-3.996s-0.9-3.996-3.312-3.996h-1.584V51.391z"/>
		<path style="fill:#FFF8DA;" d="M287.429,46.135c-0.18-2.232-1.368-2.879-2.376-2.879c-1.44,0-2.231,0.936-2.231,2.556
			c0,4.427,9.071,6.551,9.071,13.606c0,4.284-2.88,6.659-7.055,6.659c-4.14,0-6.515-3.312-6.695-7.199l4.248-0.612
			c0.18,2.628,1.224,3.924,2.664,3.924c1.548,0,2.592-0.828,2.592-2.376c0-5.147-9.071-6.515-9.071-13.966
			c0-4.139,2.52-6.479,6.911-6.479c3.635,0,5.795,2.627,6.191,6.299L287.429,46.135z"/>
		<path style="fill:#FFF8DA;" d="M80.614,99.717h-4.319l4.787-25.989h5.543l4.788,25.989h-4.32l-0.792-5.759h-4.895L80.614,99.717z
			 M82.054,90.07h3.599l-1.764-11.158h-0.072L82.054,90.07z"/>
		<path style="fill:#FFF8DA;" d="M98.649,99.717h-4.463V73.728h6.263c5.003,0,7.559,2.124,7.559,7.667
			c0,4.176-1.62,5.867-3.131,6.551l3.779,11.771h-4.535l-3.168-10.763c-0.576,0.072-1.512,0.108-2.304,0.108V99.717z M98.649,85.391
			h1.584c2.412,0,3.312-0.9,3.312-3.996s-0.9-3.996-3.312-3.996h-1.584V85.391z"/>
		<path style="fill:#FFF8DA;" d="M112.365,99.717V73.728h11.951v3.888h-7.487v6.695h5.759v3.888h-5.759v7.631h7.991v3.888H112.365z"
			/>
		<path style="fill:#FFF8DA;" d="M154.591,73.728v25.989h-3.887V79.416h-0.072L146.6,99.717h-2.16l-4.032-20.301h-0.072v20.301
			h-3.888V73.728h5.867l3.168,15.19h0.072l3.167-15.19H154.591z"/>
		<path style="fill:#FFF8DA;" d="M161.468,99.717h-4.319l4.787-25.989h5.543l4.787,25.989h-4.319l-0.792-5.759h-4.895
			L161.468,99.717z M162.908,90.07h3.6l-1.764-11.158h-0.072L162.908,90.07z"/>
		<path style="fill:#FFF8DA;" d="M175.04,73.728h6.623c4.607,0,7.055,2.52,7.055,7.847V91.87c0,5.328-2.448,7.847-7.055,7.847
			h-6.623V73.728z M179.503,96.045h1.548c2.376,0,3.204-0.9,3.204-3.636V81.035c0-2.736-0.828-3.636-3.204-3.636h-1.548V96.045z"/>
		<path style="fill:#FFF8DA;" d="M193.219,99.717V73.728h11.951v3.888h-7.487v6.695h5.759v3.888h-5.759v7.631h7.991v3.888H193.219z"
			/>
		<path style="fill:#FFF8DA;" d="M214.027,77.976l-2.484,4.463h-1.908l1.764-4.463h-1.62v-4.248h4.248V77.976z M220.686,77.976
			l-2.484,4.463h-1.908l1.764-4.463h-1.62v-4.248h4.248V77.976z"/>
		<path style="fill:#FFF8DA;" d="M121.797,114.353h-1.439v-1.295h4.366v1.295h-1.439v7.364h-1.487V114.353z"/>
		<path style="fill:#FFF8DA;" d="M125.661,121.717v-8.659h1.487v3.526h1.583v-3.526h1.487v8.659h-1.487v-3.838h-1.583v3.838H125.661
			z"/>
		<path style="fill:#FFF8DA;" d="M131.721,121.717v-8.659h3.981v1.295h-2.494v2.23h1.919v1.295h-1.919v2.542h2.662v1.295H131.721z"
			/>
		<path style="fill:#FFF8DA;" d="M139.833,121.717v-8.659h2.135c1.835,0,2.687,0.708,2.687,2.555c0,1.847-0.852,2.555-2.687,2.555
			h-0.647v3.55H139.833z M141.32,116.943h0.575c0.972,0,1.271-0.3,1.271-1.331c0-1.032-0.3-1.332-1.271-1.332h-0.575V116.943z"/>
		<path style="fill:#FFF8DA;" d="M145.82,121.717v-8.659h1.487v7.364h2.339v1.295H145.82z"/>
		<path style="fill:#FFF8DA;" d="M151.484,121.717h-1.439l1.595-8.659h1.847l1.595,8.659h-1.439l-0.264-1.919h-1.631
			L151.484,121.717z M151.964,118.502h1.199l-0.588-3.718h-0.024L151.964,118.502z"/>
		<path style="fill:#FFF8DA;" d="M158.695,121.717h-1.487v-3.598l-1.799-5.061h1.511l1.043,3.298h0.024l0.995-3.298h1.511
			l-1.799,5.061V121.717z"/>
		<path style="fill:#FFF8DA;" d="M161.323,121.717v-8.659h1.487v7.364h2.339v1.295H161.323z"/>
		<path style="fill:#FFF8DA;" d="M166.327,121.717v-8.659h1.487v8.659H166.327z"/>
		<path style="fill:#FFF8DA;" d="M172.23,115.192c-0.06-0.744-0.456-0.959-0.792-0.959c-0.48,0-0.744,0.312-0.744,0.852
			c0,1.475,3.022,2.183,3.022,4.534c0,1.427-0.959,2.219-2.351,2.219c-1.379,0-2.17-1.104-2.23-2.399l1.415-0.204
			c0.06,0.875,0.408,1.307,0.888,1.307c0.516,0,0.863-0.276,0.863-0.792c0-1.715-3.022-2.171-3.022-4.653
			c0-1.379,0.839-2.159,2.303-2.159c1.211,0,1.931,0.875,2.062,2.099L172.23,115.192z"/>
		<path style="fill:#FFF8DA;" d="M175.771,114.353h-1.439v-1.295h4.365v1.295h-1.439v7.364h-1.487V114.353z"/>
	</g>
</g>
<g id="nyt_x5F_exporter_x5F_info" style="display:none;">
</g>
</svg>
