<?xml version="1.0" encoding="iso-8859-1"?>
<!-- Generator: Adobe Illustrator 17.1.0, SVG Export Plug-In . SVG Version: 6.00 Build 0)  -->
<!DOCTYPE svg PUBLIC "-//W3C//DTD SVG 1.1//EN" "http://www.w3.org/Graphics/SVG/1.1/DTD/svg11.dtd">
<svg version="1.1" xmlns="http://www.w3.org/2000/svg" xmlns:xlink="http://www.w3.org/1999/xlink" x="0px" y="0px"
	 viewBox="0 0 300 187.812" style="enable-background:new 0 0 300 187.812;" xml:space="preserve">
<g id="Layer_1">
	<g>
		<path style="fill:#FFFFFF;" d="M25.539,6.548l1.104-1.985h0.849l-0.784,1.985h0.72v1.889h-1.889V6.548z M28.5,6.548l1.104-1.985
			h0.849l-0.784,1.985h0.72v1.889H28.5V6.548z"/>
		<path style="fill:#FFFFFF;" d="M32.643,16.28V4.724h2.849c2.449,0,3.586,0.944,3.586,3.409c0,2.465-1.137,3.41-3.586,3.41h-0.864
			v4.738H32.643z M34.627,9.91h0.769c1.297,0,1.696-0.4,1.696-1.777c0-1.376-0.399-1.776-1.696-1.776h-0.769V9.91z"/>
		<path style="fill:#FFFFFF;" d="M40.802,16.28V4.724h5.314v1.729h-3.329V9.43h2.561v1.729h-2.561v3.394h3.553v1.729H40.802z"/>
		<path style="fill:#FFFFFF;" d="M49.218,16.28h-1.921l2.129-11.557h2.466L54.02,16.28H52.1l-0.353-2.561h-2.177L49.218,16.28z
			 M49.859,11.991h1.601l-0.784-4.962h-0.032L49.859,11.991z"/>
		<path style="fill:#FFFFFF;" d="M57.315,16.28H55.33V4.724h2.785c2.225,0,3.361,0.944,3.361,3.409c0,1.857-0.72,2.609-1.393,2.914
			l1.681,5.234h-2.017l-1.408-4.786c-0.257,0.032-0.673,0.048-1.024,0.048V16.28z M57.315,9.91h0.704c1.072,0,1.473-0.4,1.473-1.777
			c0-1.376-0.4-1.776-1.473-1.776h-0.704V9.91z"/>
		<path style="fill:#FFFFFF;" d="M67.491,8.581V7.684c0-0.976-0.448-1.393-0.96-1.393c-0.801,0-1.057,0.417-1.057,1.281v5.858
			c0,0.864,0.256,1.28,1.057,1.28c0.72,0,0.96-0.416,0.96-1.168V12.15h1.985v1.329c0,1.633-0.961,2.961-2.945,2.961
			c-2.081,0-3.041-1.329-3.041-2.961V7.525c0-1.633,0.96-2.961,3.041-2.961c1.984,0,2.945,1.44,2.945,3.169v0.848H67.491z"/>
		<path style="fill:#FFFFFF;" d="M71.65,16.28V4.724h5.313v1.729h-3.329V9.43h2.562v1.729h-2.562v3.394h3.554v1.729H71.65z"/>
		<path style="fill:#FFFFFF;" d="M82.897,16.28V4.724h1.984V16.28H82.897z"/>
		<path style="fill:#FFFFFF;" d="M90.85,7.573c-0.079-0.992-0.607-1.281-1.056-1.281c-0.641,0-0.993,0.417-0.993,1.137
			c0,1.969,4.034,2.913,4.034,6.05c0,1.905-1.28,2.961-3.138,2.961c-1.841,0-2.896-1.473-2.977-3.201l1.889-0.272
			c0.08,1.168,0.544,1.745,1.185,1.745c0.688,0,1.152-0.368,1.152-1.056c0-2.289-4.034-2.897-4.034-6.21
			c0-1.841,1.121-2.881,3.073-2.881c1.617,0,2.577,1.168,2.754,2.801L90.85,7.573z"/>
		<path style="fill:#FFFFFF;" d="M98.208,16.28V4.724h5.313v1.729h-3.329V9.43h2.562v1.729h-2.562v3.394h3.554v1.729H98.208z"/>
		<path style="fill:#FFFFFF;" d="M107.008,10.23l-2.112-5.506h1.952l1.217,3.666h0.032l1.104-3.666h1.952l-2,5.506l2.24,6.05h-1.952
			l-1.345-4.209h-0.032l-1.377,4.209h-1.952L107.008,10.23z"/>
		<path style="fill:#FFFFFF;" d="M116.737,8.581V7.684c0-0.976-0.448-1.393-0.96-1.393c-0.801,0-1.057,0.417-1.057,1.281v5.858
			c0,0.864,0.256,1.28,1.057,1.28c0.72,0,0.96-0.416,0.96-1.168V12.15h1.985v1.329c0,1.633-0.961,2.961-2.945,2.961
			c-2.081,0-3.041-1.329-3.041-2.961V7.525c0-1.633,0.96-2.961,3.041-2.961c1.984,0,2.945,1.44,2.945,3.169v0.848H116.737z"/>
		<path style="fill:#FFFFFF;" d="M120.896,16.28V4.724h5.313v1.729h-3.329V9.43h2.562v1.729h-2.562v3.394h3.554v1.729H120.896z"/>
		<path style="fill:#FFFFFF;" d="M128.159,16.28V4.724h2.85c2.448,0,3.585,0.944,3.585,3.409c0,2.465-1.137,3.41-3.585,3.41h-0.864
			v4.738H128.159z M130.144,9.91h0.768c1.297,0,1.697-0.4,1.697-1.777c0-1.376-0.4-1.776-1.697-1.776h-0.768V9.91z"/>
		<path style="fill:#FFFFFF;" d="M137.471,6.452h-1.921V4.724h5.827v1.729h-1.921v9.828h-1.985V6.452z"/>
		<path style="fill:#FFFFFF;" d="M142.975,16.28V4.724h1.984V16.28H142.975z"/>
		<path style="fill:#FFFFFF;" d="M147.311,7.525c0-1.633,0.96-2.961,3.041-2.961s3.041,1.329,3.041,2.961v5.954
			c0,1.633-0.96,2.961-3.041,2.961s-3.041-1.329-3.041-2.961V7.525z M149.295,13.431c0,0.864,0.256,1.28,1.057,1.28
			c0.8,0,1.057-0.416,1.057-1.28V7.573c0-0.864-0.257-1.281-1.057-1.281c-0.801,0-1.057,0.417-1.057,1.281V13.431z"/>
		<path style="fill:#FFFFFF;" d="M155.471,16.28V4.724h1.841l2.417,6.611h0.031V4.724h1.793V16.28h-1.729l-2.529-7.219h-0.032v7.219
			H155.471z"/>
		<path style="fill:#FFFFFF;" d="M164.784,16.28h-1.921l2.129-11.557h2.465l2.129,11.557h-1.921l-0.352-2.561h-2.178L164.784,16.28z
			 M165.423,11.991h1.601l-0.784-4.962h-0.031L165.423,11.991z"/>
		<path style="fill:#FFFFFF;" d="M170.798,16.28V4.724h1.984v9.828h3.121v1.729H170.798z"/>
		<path style="fill:#FFFFFF;" d="M179.039,16.28l-1.104,1.985h-0.849l0.785-1.985h-0.721v-1.889h1.889V16.28z"/>
		<path style="fill:#FFFFFF;" d="M185.854,16.28h-1.921l2.129-11.557h2.465l2.129,11.557h-1.921l-0.352-2.561h-2.178L185.854,16.28z
			 M186.494,11.991h1.601l-0.784-4.962h-0.031L186.494,11.991z"/>
		<path style="fill:#FFFFFF;" d="M191.965,16.28V4.724h1.841l2.417,6.611h0.031V4.724h1.793V16.28h-1.729l-2.529-7.219h-0.032v7.219
			H191.965z"/>
		<path style="fill:#FFFFFF;" d="M200.125,4.724h2.945c2.049,0,3.137,1.121,3.137,3.489v4.578c0,2.369-1.088,3.489-3.137,3.489
			h-2.945V4.724z M202.11,14.647h0.688c1.057,0,1.425-0.4,1.425-1.617V7.973c0-1.217-0.368-1.617-1.425-1.617h-0.688V14.647z"/>
		<path style="fill:#FFFFFF;" d="M211.997,16.28V4.724h2.85c2.448,0,3.585,0.944,3.585,3.409c0,2.465-1.137,3.41-3.585,3.41h-0.864
			v4.738H211.997z M213.982,9.91h0.768c1.297,0,1.697-0.4,1.697-1.777c0-1.376-0.4-1.776-1.697-1.776h-0.768V9.91z"/>
		<path style="fill:#FFFFFF;" d="M221.309,16.28h-1.921l2.129-11.557h2.466l2.128,11.557h-1.92l-0.353-2.561h-2.177L221.309,16.28z
			 M221.95,11.991h1.601l-0.784-4.962h-0.032L221.95,11.991z"/>
		<path style="fill:#FFFFFF;" d="M228.573,6.452h-1.921V4.724h5.826v1.729h-1.921v9.828h-1.984V6.452z"/>
		<path style="fill:#FFFFFF;" d="M234.957,6.452h-1.921V4.724h5.826v1.729h-1.921v9.828h-1.984V6.452z"/>
		<path style="fill:#FFFFFF;" d="M240.459,16.28V4.724h1.985V16.28H240.459z"/>
		<path style="fill:#FFFFFF;" d="M244.795,16.28V4.724h1.841l2.417,6.611h0.032V4.724h1.793V16.28h-1.729l-2.528-7.219h-0.032v7.219
			H244.795z"/>
		<path style="fill:#FFFFFF;" d="M256.573,7.573c-0.079-0.992-0.607-1.281-1.056-1.281c-0.641,0-0.993,0.417-0.993,1.137
			c0,1.969,4.034,2.913,4.034,6.05c0,1.905-1.28,2.961-3.138,2.961c-1.841,0-2.896-1.473-2.977-3.201l1.889-0.272
			c0.08,1.168,0.544,1.745,1.185,1.745c0.688,0,1.152-0.368,1.152-1.056c0-2.289-4.034-2.897-4.034-6.21
			c0-1.841,1.121-2.881,3.073-2.881c1.617,0,2.577,1.168,2.754,2.801L256.573,7.573z"/>
		<path style="fill:#FFFFFF;" d="M260.219,7.525c0-1.633,0.961-2.961,3.041-2.961c2.081,0,3.042,1.329,3.042,2.961v5.954
			c0,1.633-0.961,2.961-3.042,2.961c-2.08,0-3.041-1.329-3.041-2.961V7.525z M262.205,13.431c0,0.864,0.256,1.28,1.056,1.28
			c0.801,0,1.057-0.416,1.057-1.28V7.573c0-0.864-0.256-1.281-1.057-1.281c-0.8,0-1.056,0.417-1.056,1.281V13.431z"/>
		<path style="fill:#FFFFFF;" d="M268.379,16.28V4.724h1.841l2.417,6.611h0.031V4.724h1.793V16.28h-1.729l-2.529-7.219h-0.032v7.219
			H268.379z"/>
		<path style="fill:#FFFFFF;" d="M97.009,36.28V24.724h1.985V36.28H97.009z"/>
		<path style="fill:#FFFFFF;" d="M104.963,27.573c-0.08-0.992-0.608-1.281-1.057-1.281c-0.64,0-0.992,0.417-0.992,1.137
			c0,1.969,4.033,2.913,4.033,6.05c0,1.905-1.28,2.961-3.137,2.961c-1.841,0-2.897-1.473-2.978-3.201l1.889-0.272
			c0.08,1.168,0.545,1.745,1.185,1.745c0.688,0,1.152-0.368,1.152-1.056c0-2.289-4.033-2.897-4.033-6.21
			c0-1.841,1.12-2.881,3.073-2.881c1.616,0,2.577,1.168,2.753,2.801L104.963,27.573z"/>
		<path style="fill:#FFFFFF;" d="M113.473,36.28h-1.921l2.129-11.557h2.466l2.128,11.557h-1.92l-0.353-2.561h-2.177L113.473,36.28z
			 M114.114,31.991h1.601l-0.784-4.962h-0.032L114.114,31.991z"/>
		<path style="fill:#FFFFFF;" d="M125.281,36.28h-1.984V24.724h2.785c2.225,0,3.361,0.944,3.361,3.409
			c0,1.857-0.721,2.609-1.393,2.914l1.681,5.234h-2.018l-1.408-4.786c-0.256,0.032-0.672,0.048-1.024,0.048V36.28z M125.281,29.91
			h0.704c1.072,0,1.473-0.4,1.473-1.777c0-1.376-0.4-1.776-1.473-1.776h-0.704V29.91z"/>
		<path style="fill:#FFFFFF;" d="M131.457,36.28V24.724h5.313v1.729h-3.329v2.978h2.562v1.729h-2.562v3.394h3.554v1.729H131.457z"/>
		<path style="fill:#FFFFFF;" d="M142.77,24.724h1.952l-2.417,11.557h-1.984l-2.417-11.557h1.952l1.441,8.019h0.031L142.77,24.724z"
			/>
		<path style="fill:#FFFFFF;" d="M145.983,36.28V24.724h5.314v1.729h-3.329v2.978h2.561v1.729h-2.561v3.394h3.553v1.729H145.983z"/>
		<path style="fill:#FFFFFF;" d="M153.151,36.28V24.724h1.984v9.828h3.121v1.729H153.151z"/>
		<path style="fill:#FFFFFF;" d="M160.783,36.28h-1.921l2.129-11.557h2.466l2.128,11.557h-1.92l-0.353-2.561h-2.177L160.783,36.28z
			 M161.423,31.991h1.601l-0.784-4.962h-0.032L161.423,31.991z"/>
		<path style="fill:#FFFFFF;" d="M168.046,26.452h-1.921v-1.729h5.826v1.729h-1.921v9.828h-1.984V26.452z"/>
		<path style="fill:#FFFFFF;" d="M173.549,36.28V24.724h1.985V36.28H173.549z"/>
		<path style="fill:#FFFFFF;" d="M177.886,27.525c0-1.633,0.96-2.961,3.041-2.961s3.041,1.329,3.041,2.961v5.954
			c0,1.633-0.96,2.961-3.041,2.961s-3.041-1.329-3.041-2.961V27.525z M179.871,33.431c0,0.864,0.256,1.28,1.057,1.28
			c0.8,0,1.057-0.416,1.057-1.28v-5.858c0-0.864-0.257-1.281-1.057-1.281c-0.801,0-1.057,0.417-1.057,1.281V33.431z"/>
		<path style="fill:#FFFFFF;" d="M186.046,36.28V24.724h1.841l2.417,6.611h0.031v-6.611h1.793V36.28H190.4l-2.529-7.219h-0.032
			v7.219H186.046z"/>
		<path style="fill:#FFFFFF;" d="M194.078,36.28v-1.889h1.889v1.889H194.078z"/>
		<path style="fill:#FFFFFF;" d="M199.983,26.612l-1.104,1.985h-0.849l0.784-1.985h-0.721v-1.889h1.89V26.612z M202.944,26.612
			l-1.104,1.985h-0.849l0.784-1.985h-0.72v-1.889h1.889V26.612z"/>
		<path style="fill:#FFF8DA;" d="M107.44,58.28v-8.659h1.487v7.364h2.339v1.295H107.44z"/>
		<path style="fill:#FFF8DA;" d="M112.241,51.72c0-1.223,0.719-2.219,2.278-2.219s2.278,0.996,2.278,2.219v4.462
			c0,1.223-0.719,2.219-2.278,2.219s-2.278-0.996-2.278-2.219V51.72z M113.727,56.145c0,0.647,0.192,0.959,0.792,0.959
			s0.792-0.312,0.792-0.959v-4.39c0-0.647-0.192-0.959-0.792-0.959s-0.792,0.312-0.792,0.959V56.145z"/>
		<path style="fill:#FFF8DA;" d="M121.011,51.756c-0.061-0.744-0.456-0.959-0.792-0.959c-0.479,0-0.743,0.312-0.743,0.852
			c0,1.475,3.022,2.183,3.022,4.534c0,1.427-0.96,2.219-2.352,2.219c-1.379,0-2.17-1.104-2.23-2.399l1.415-0.204
			c0.061,0.875,0.408,1.307,0.888,1.307c0.516,0,0.863-0.276,0.863-0.792c0-1.715-3.022-2.171-3.022-4.653
			c0-1.379,0.84-2.159,2.303-2.159c1.212,0,1.932,0.875,2.063,2.099L121.011,51.756z"/>
		<path style="fill:#FFF8DA;" d="M127.275,58.28h-1.438l1.595-8.659h1.847l1.596,8.659h-1.439l-0.264-1.919h-1.631L127.275,58.28z
			 M127.755,55.066h1.199l-0.588-3.718h-0.024L127.755,55.066z"/>
		<path style="fill:#FFF8DA;" d="M131.799,58.28v-8.659h1.379l1.811,4.953h0.024v-4.953h1.343v8.659h-1.295l-1.895-5.409h-0.024
			v5.409H131.799z"/>
		<path style="fill:#FFF8DA;" d="M139.91,53.89h2.435v4.39h-0.72l-0.275-0.647c-0.443,0.527-0.804,0.768-1.499,0.768
			c-1.176,0-1.991-0.84-1.991-2.219V51.72c0-1.223,0.72-2.219,2.183-2.219c1.487,0,2.231,1.08,2.231,2.375v0.552h-1.416
			c0-1.295-0.264-1.631-0.852-1.631c-0.359,0-0.659,0.216-0.659,0.947v4.45c0,0.552,0.18,0.912,0.695,0.912
			c0.6,0,0.815-0.336,0.815-1.199v-0.84h-0.947V53.89z"/>
		<path style="fill:#FFF8DA;" d="M143.919,58.28v-8.659h3.981v1.295h-2.495v2.23h1.919v1.295h-1.919v2.542h2.663v1.295H143.919z"/>
		<path style="fill:#FFF8DA;" d="M149.235,58.28v-8.659h1.487v7.364h2.339v1.295H149.235z"/>
		<path style="fill:#FFF8DA;" d="M154.035,58.28v-8.659h3.981v1.295h-2.494v2.23h1.919v1.295h-1.919v2.542h2.662v1.295H154.035z"/>
		<path style="fill:#FFF8DA;" d="M162.133,51.756c-0.061-0.744-0.456-0.959-0.792-0.959c-0.479,0-0.743,0.312-0.743,0.852
			c0,1.475,3.022,2.183,3.022,4.534c0,1.427-0.96,2.219-2.352,2.219c-1.379,0-2.17-1.104-2.23-2.399l1.415-0.204
			c0.061,0.875,0.408,1.307,0.888,1.307c0.516,0,0.863-0.276,0.863-0.792c0-1.715-3.022-2.171-3.022-4.653
			c0-1.379,0.84-2.159,2.303-2.159c1.212,0,1.932,0.875,2.063,2.099L162.133,51.756z"/>
		<path style="fill:#FFF8DA;" d="M168.398,50.916h-1.439v-1.295h4.365v1.295h-1.438v7.364h-1.487V50.916z"/>
		<path style="fill:#FFF8DA;" d="M172.465,58.28v-8.659h1.487v8.659H172.465z"/>
		<path style="fill:#FFF8DA;" d="M181.619,49.621v8.659h-1.295v-6.764h-0.024l-1.344,6.764h-0.719l-1.344-6.764h-0.023v6.764h-1.296
			v-8.659h1.955l1.056,5.061h0.023l1.056-5.061H181.619z"/>
		<path style="fill:#FFF8DA;" d="M183.05,58.28v-8.659h3.981v1.295h-2.495v2.23h1.919v1.295h-1.919v2.542h2.663v1.295H183.05z"/>
		<path style="fill:#FFF8DA;" d="M191.148,51.756c-0.06-0.744-0.456-0.959-0.791-0.959c-0.48,0-0.744,0.312-0.744,0.852
			c0,1.475,3.022,2.183,3.022,4.534c0,1.427-0.959,2.219-2.351,2.219c-1.379,0-2.171-1.104-2.23-2.399l1.415-0.204
			c0.06,0.875,0.407,1.307,0.888,1.307c0.516,0,0.863-0.276,0.863-0.792c0-1.715-3.022-2.171-3.022-4.653
			c0-1.379,0.84-2.159,2.303-2.159c1.211,0,1.931,0.875,2.062,2.099L191.148,51.756z"/>
	</g>
</g>
<g id="nyt_x5F_exporter_x5F_info" style="display:none;">
</g>
</svg>
