<?xml version="1.0" encoding="iso-8859-1"?>
<!-- Generator: Adobe Illustrator 17.1.0, SVG Export Plug-In . SVG Version: 6.00 Build 0)  -->
<!DOCTYPE svg PUBLIC "-//W3C//DTD SVG 1.1//EN" "http://www.w3.org/Graphics/SVG/1.1/DTD/svg11.dtd">
<svg version="1.1" xmlns="http://www.w3.org/2000/svg" xmlns:xlink="http://www.w3.org/1999/xlink" x="0px" y="0px"
	 viewBox="0 0 300 81.506" style="enable-background:new 0 0 300 81.506;" xml:space="preserve">
<g id="Layer_1">
	<g>
		<path style="fill:#FFFFFF;" d="M5.508,1.985L6.613,0H7.46L6.676,1.985h0.721v1.889H5.508V1.985z M8.469,1.985L9.573,0h0.849
			L9.637,1.985h0.721v1.889H8.469V1.985z"/>
		<path style="fill:#FFFFFF;" d="M12.883,11.717V0.16h1.985v11.557H12.883z"/>
		<path style="fill:#FFFFFF;" d="M17.22,11.717V0.16h5.538v1.729h-3.554v2.978h2.657v1.729h-2.657v5.122H17.22z"/>
		<path style="fill:#FFFFFF;" d="M29.347,1.889h-1.921V0.16h5.827v1.729h-1.921v9.828h-1.985V1.889z"/>
		<path style="fill:#FFFFFF;" d="M34.578,11.717V0.16h1.985v4.706h2.112V0.16h1.985v11.557h-1.985V6.595h-2.112v5.122H34.578z"/>
		<path style="fill:#FFFFFF;" d="M42.739,11.717V0.16h5.314v1.729h-3.329v2.978h2.561v1.729h-2.561v3.394h3.553v1.729H42.739z"/>
		<path style="fill:#FFFFFF;" d="M51.987,11.717h-1.984V0.16h2.785c2.225,0,3.361,0.944,3.361,3.409
			c0,1.857-0.721,2.609-1.393,2.914l1.681,5.234H54.42l-1.409-4.786c-0.256,0.032-0.672,0.048-1.024,0.048V11.717z M51.987,5.346
			h0.704c1.072,0,1.473-0.4,1.473-1.777c0-1.376-0.4-1.776-1.473-1.776h-0.704V5.346z"/>
		<path style="fill:#FFFFFF;" d="M58.162,11.717V0.16h5.313v1.729h-3.329v2.978h2.562v1.729h-2.562v3.394H63.7v1.729H58.162z"/>
		<path style="fill:#FFFFFF;" d="M67.187,2.049l-1.104,1.985h-0.849l0.784-1.985h-0.72V0.16h1.889V2.049z"/>
		<path style="fill:#FFFFFF;" d="M72.754,3.009c-0.079-0.992-0.607-1.281-1.056-1.281c-0.641,0-0.993,0.417-0.993,1.137
			c0,1.969,4.034,2.913,4.034,6.05c0,1.905-1.28,2.961-3.138,2.961c-1.841,0-2.896-1.473-2.977-3.201l1.889-0.272
			c0.08,1.168,0.544,1.745,1.185,1.745c0.688,0,1.152-0.368,1.152-1.056c0-2.289-4.034-2.897-4.034-6.21
			C68.817,1.041,69.938,0,71.89,0c1.617,0,2.577,1.168,2.754,2.801L72.754,3.009z"/>
		<path style="fill:#FFFFFF;" d="M80.113,2.961C80.113,1.329,81.073,0,83.154,0c2.081,0,3.042,1.329,3.042,2.961v5.954
			c0,1.633-0.961,2.961-3.042,2.961c-2.08,0-3.041-1.329-3.041-2.961V2.961z M82.098,8.868c0,0.864,0.256,1.28,1.056,1.28
			c0.801,0,1.057-0.416,1.057-1.28V3.009c0-0.864-0.256-1.281-1.057-1.281c-0.8,0-1.056,0.417-1.056,1.281V8.868z"/>
		<path style="fill:#FFFFFF;" d="M88.273,11.717V0.16h1.841l2.417,6.611h0.032V0.16h1.793v11.557h-1.729l-2.528-7.219h-0.032v7.219
			H88.273z"/>
		<path style="fill:#FFFFFF;" d="M96.433,11.717V0.16h5.313v1.729h-3.329v2.978h2.562v1.729h-2.562v3.394h3.554v1.729H96.433z"/>
		<path style="fill:#FFFFFF;" d="M108.561,1.889h-1.921V0.16h5.826v1.729h-1.921v9.828h-1.984V1.889z"/>
		<path style="fill:#FFFFFF;" d="M113.791,11.717V0.16h1.985v4.706h2.112V0.16h1.985v11.557h-1.985V6.595h-2.112v5.122H113.791z"/>
		<path style="fill:#FFFFFF;" d="M122.224,11.717V0.16h1.984v11.557H122.224z"/>
		<path style="fill:#FFFFFF;" d="M126.56,11.717V0.16h1.841l2.417,6.611h0.032V0.16h1.793v11.557h-1.729l-2.528-7.219h-0.032v7.219
			H126.56z"/>
		<path style="fill:#FFFFFF;" d="M137.456,5.858h3.25v5.858h-0.961l-0.368-0.864c-0.592,0.704-1.072,1.024-2,1.024
			c-1.569,0-2.657-1.121-2.657-2.961V2.961c0-1.633,0.96-2.961,2.913-2.961c1.984,0,2.977,1.44,2.977,3.169v0.736h-1.889
			c0-1.729-0.352-2.177-1.136-2.177c-0.48,0-0.881,0.289-0.881,1.265v5.938c0,0.736,0.24,1.216,0.929,1.216
			c0.8,0,1.088-0.448,1.088-1.601v-1.12h-1.265V5.858z"/>
		<path style="fill:#FFFFFF;" d="M147.744,1.889h-1.921V0.16h5.826v1.729h-1.921v9.828h-1.984V1.889z"/>
		<path style="fill:#FFFFFF;" d="M152.975,11.717V0.16h1.985v4.706h2.112V0.16h1.985v11.557h-1.985V6.595h-2.112v5.122H152.975z"/>
		<path style="fill:#FFFFFF;" d="M161.407,11.717V0.16h1.984v11.557H161.407z"/>
		<path style="fill:#FFFFFF;" d="M169.361,3.009c-0.079-0.992-0.607-1.281-1.056-1.281c-0.641,0-0.993,0.417-0.993,1.137
			c0,1.969,4.034,2.913,4.034,6.05c0,1.905-1.28,2.961-3.138,2.961c-1.841,0-2.896-1.473-2.977-3.201l1.889-0.272
			c0.08,1.168,0.544,1.745,1.185,1.745c0.688,0,1.152-0.368,1.152-1.056c0-2.289-4.034-2.897-4.034-6.21
			c0-1.841,1.121-2.881,3.073-2.881c1.617,0,2.577,1.168,2.754,2.801L169.361,3.009z"/>
		<path style="fill:#FFFFFF;" d="M180.769,0.16h1.952l-2.417,11.557h-1.984L175.903,0.16h1.952l1.441,8.019h0.031L180.769,0.16z"/>
		<path style="fill:#FFFFFF;" d="M184.254,11.717V0.16h1.985v11.557H184.254z"/>
		<path style="fill:#FFFFFF;" d="M188.59,2.961c0-1.633,0.961-2.961,3.041-2.961c2.081,0,3.042,1.329,3.042,2.961v5.954
			c0,1.633-0.961,2.961-3.042,2.961c-2.08,0-3.041-1.329-3.041-2.961V2.961z M190.575,8.868c0,0.864,0.256,1.28,1.056,1.28
			c0.801,0,1.057-0.416,1.057-1.28V3.009c0-0.864-0.256-1.281-1.057-1.281c-0.8,0-1.056,0.417-1.056,1.281V8.868z"/>
		<path style="fill:#FFFFFF;" d="M196.655,11.717V0.16h1.984v9.828h3.121v1.729H196.655z"/>
		<path style="fill:#FFFFFF;" d="M203.134,11.717V0.16h5.314v1.729h-3.329v2.978h2.561v1.729h-2.561v3.394h3.553v1.729H203.134z"/>
		<path style="fill:#FFFFFF;" d="M210.398,11.717V0.16h1.841l2.417,6.611h0.031V0.16h1.793v11.557h-1.729l-2.529-7.219h-0.032v7.219
			H210.398z"/>
		<path style="fill:#FFFFFF;" d="M219.71,1.889h-1.921V0.16h5.826v1.729h-1.921v9.828h-1.984V1.889z"/>
		<path style="fill:#FFFFFF;" d="M236.608,0.16v11.557h-1.729V2.689h-0.032l-1.792,9.028h-0.961l-1.793-9.028h-0.031v9.028h-1.729
			V0.16h2.609l1.409,6.755h0.031l1.409-6.755H236.608z"/>
		<path style="fill:#FFFFFF;" d="M238.589,11.717V0.16h5.313v1.729h-3.329v2.978h2.562v1.729h-2.562v3.394h3.554v1.729H238.589z"/>
		<path style="fill:#FFFFFF;" d="M247.005,1.889h-1.921V0.16h5.827v1.729h-1.921v9.828h-1.985V1.889z"/>
		<path style="fill:#FFFFFF;" d="M253.389,11.717h-1.921l2.129-11.557h2.466l2.129,11.557h-1.921l-0.353-2.561h-2.177
			L253.389,11.717z M254.03,7.427h1.601l-0.784-4.962h-0.032L254.03,7.427z"/>
		<path style="fill:#FFFFFF;" d="M259.5,11.717V0.16h2.849c2.449,0,3.586,0.944,3.586,3.409c0,2.465-1.137,3.41-3.586,3.41h-0.864
			v4.738H259.5z M261.485,5.346h0.769c1.297,0,1.696-0.4,1.696-1.777c0-1.376-0.399-1.776-1.696-1.776h-0.769V5.346z"/>
		<path style="fill:#FFFFFF;" d="M267.66,11.717V0.16h1.984v4.706h2.113V0.16h1.984v11.557h-1.984V6.595h-2.113v5.122H267.66z"/>
		<path style="fill:#FFFFFF;" d="M279.406,11.717h-1.984V6.915L275.02,0.16h2.017l1.393,4.402h0.032l1.329-4.402h2.017l-2.401,6.755
			V11.717z"/>
		<path style="fill:#FFFFFF;" d="M286.7,3.009c-0.079-0.992-0.607-1.281-1.056-1.281c-0.641,0-0.993,0.417-0.993,1.137
			c0,1.969,4.034,2.913,4.034,6.05c0,1.905-1.28,2.961-3.138,2.961c-1.841,0-2.896-1.473-2.977-3.201l1.889-0.272
			c0.08,1.168,0.544,1.745,1.185,1.745c0.688,0,1.152-0.368,1.152-1.056c0-2.289-4.034-2.897-4.034-6.21
			c0-1.841,1.121-2.881,3.073-2.881c1.617,0,2.577,1.168,2.754,2.801L286.7,3.009z"/>
		<path style="fill:#FFFFFF;" d="M290.619,11.717V0.16h1.984v11.557H290.619z"/>
		<path style="fill:#FFFFFF;" d="M294.699,8.147V6.675h3.922v1.473H294.699z"/>
		<path style="fill:#FFFFFF;" d="M23.901,24.018v-0.896c0-0.976-0.448-1.393-0.96-1.393c-0.801,0-1.057,0.417-1.057,1.281v5.858
			c0,0.864,0.256,1.28,1.057,1.28c0.72,0,0.96-0.416,0.96-1.168v-1.393h1.985v1.329c0,1.633-0.961,2.961-2.945,2.961
			c-2.081,0-3.041-1.329-3.041-2.961v-5.954c0-1.633,0.96-2.961,3.041-2.961c1.984,0,2.945,1.44,2.945,3.169v0.848H23.901z"/>
		<path style="fill:#FFFFFF;" d="M29.212,31.717h-1.921L29.42,20.16h2.465l2.129,11.557h-1.921l-0.352-2.561h-2.178L29.212,31.717z
			 M29.852,27.427h1.602l-0.785-4.962h-0.031L29.852,27.427z"/>
		<path style="fill:#FFFFFF;" d="M35.227,31.717V20.16h1.985v9.828h3.121v1.729H35.227z"/>
		<path style="fill:#FFFFFF;" d="M45.419,20.16h2.945c2.049,0,3.137,1.121,3.137,3.489v4.578c0,2.369-1.088,3.489-3.137,3.489
			h-2.945V20.16z M47.404,30.084h0.688c1.057,0,1.425-0.4,1.425-1.617V23.41c0-1.217-0.368-1.617-1.425-1.617h-0.688V30.084z"/>
		<path style="fill:#FFFFFF;" d="M55.564,31.717h-1.985V20.16h2.785c2.225,0,3.361,0.944,3.361,3.409
			c0,1.857-0.72,2.609-1.393,2.914l1.681,5.234h-2.017l-1.408-4.786c-0.257,0.032-0.673,0.048-1.024,0.048V31.717z M55.564,25.346
			h0.704c1.072,0,1.473-0.4,1.473-1.777c0-1.376-0.4-1.776-1.473-1.776h-0.704V25.346z"/>
		<path style="fill:#FFFFFF;" d="M62.891,31.717H60.97l2.129-11.557h2.466l2.129,11.557h-1.921l-0.353-2.561h-2.177L62.891,31.717z
			 M63.531,27.427h1.601l-0.784-4.962h-0.032L63.531,27.427z"/>
		<path style="fill:#FFFFFF;" d="M76.957,20.16v11.557h-1.729v-9.028h-0.032l-1.792,9.028h-0.961l-1.793-9.028h-0.031v9.028H68.89
			V20.16h2.609l1.409,6.755h0.031l1.409-6.755H76.957z"/>
		<path style="fill:#FFFFFF;" d="M80.09,31.717h-1.921l2.129-11.557h2.466l2.129,11.557h-1.921l-0.353-2.561h-2.177L80.09,31.717z
			 M80.731,27.427h1.601l-0.784-4.962h-0.032L80.731,27.427z"/>
		<path style="fill:#FFFFFF;" d="M89.914,31.717V20.16h5.313v1.729h-3.329v2.978h2.562v1.729h-2.562v3.394h3.554v1.729H89.914z"/>
		<path style="fill:#FFFFFF;" d="M105.132,20.16v11.557h-1.729v-9.028h-0.032l-1.792,9.028h-0.961l-1.793-9.028h-0.031v9.028h-1.729
			V20.16h2.609l1.409,6.755h0.031l1.409-6.755H105.132z"/>
		<path style="fill:#FFFFFF;" d="M107.114,31.717V20.16h2.849c2.449,0,3.586,0.944,3.586,3.409c0,2.465-1.137,3.41-3.586,3.41
			h-0.864v4.738H107.114z M109.098,25.346h0.769c1.297,0,1.696-0.4,1.696-1.777c0-1.376-0.399-1.776-1.696-1.776h-0.769V25.346z"/>
		<path style="fill:#FFFFFF;" d="M115.274,31.717V20.16h1.984v4.706h2.113V20.16h1.984v11.557h-1.984v-5.122h-2.113v5.122H115.274z"
			/>
		<path style="fill:#FFFFFF;" d="M124.586,31.717h-1.921l2.129-11.557h2.465l2.129,11.557h-1.921l-0.352-2.561h-2.178
			L124.586,31.717z M125.226,27.427h1.602l-0.785-4.962h-0.031L125.226,27.427z"/>
		<path style="fill:#FFFFFF;" d="M134.315,23.009c-0.08-0.992-0.608-1.281-1.057-1.281c-0.64,0-0.992,0.417-0.992,1.137
			c0,1.969,4.033,2.913,4.033,6.05c0,1.905-1.28,2.961-3.137,2.961c-1.841,0-2.897-1.473-2.978-3.201l1.889-0.272
			c0.08,1.168,0.545,1.745,1.185,1.745c0.688,0,1.152-0.368,1.152-1.056c0-2.289-4.033-2.897-4.033-6.21
			c0-1.841,1.12-2.881,3.073-2.881c1.616,0,2.577,1.168,2.753,2.801L134.315,23.009z"/>
		<path style="fill:#FFFFFF;" d="M138.233,31.717V20.16h1.985v11.557H138.233z"/>
		<path style="fill:#FFFFFF;" d="M142.761,21.889V20.16h5.251v1.889l-3.65,7.939h3.65v1.729h-5.699v-1.889l3.698-7.939H142.761z"/>
		<path style="fill:#FFFFFF;" d="M149.832,31.717V20.16h5.314v1.729h-3.329v2.978h2.561v1.729h-2.561v3.394h3.553v1.729H149.832z"/>
		<path style="fill:#FFFFFF;" d="M160.713,23.009c-0.079-0.992-0.607-1.281-1.056-1.281c-0.641,0-0.993,0.417-0.993,1.137
			c0,1.969,4.034,2.913,4.034,6.05c0,1.905-1.28,2.961-3.138,2.961c-1.841,0-2.896-1.473-2.977-3.201l1.889-0.272
			c0.08,1.168,0.544,1.745,1.185,1.745c0.688,0,1.152-0.368,1.152-1.056c0-2.289-4.034-2.897-4.034-6.21
			c0-1.841,1.121-2.881,3.073-2.881c1.617,0,2.577,1.168,2.754,2.801L160.713,23.009z"/>
		<path style="fill:#FFFFFF;" d="M168.343,31.717V20.16h1.985v11.557H168.343z"/>
		<path style="fill:#FFFFFF;" d="M173.832,21.889h-1.921V20.16h5.826v1.729h-1.921v9.828h-1.984V21.889z"/>
		<path style="fill:#FFFFFF;" d="M180.824,22.049l-1.104,1.985h-0.849l0.784-1.985h-0.72V20.16h1.889V22.049z"/>
		<path style="fill:#FFFFFF;" d="M186.392,23.009c-0.079-0.992-0.607-1.281-1.056-1.281c-0.641,0-0.993,0.417-0.993,1.137
			c0,1.969,4.034,2.913,4.034,6.05c0,1.905-1.28,2.961-3.138,2.961c-1.841,0-2.896-1.473-2.977-3.201l1.889-0.272
			c0.08,1.168,0.544,1.745,1.185,1.745c0.688,0,1.152-0.368,1.152-1.056c0-2.289-4.034-2.897-4.034-6.21
			c0-1.841,1.121-2.881,3.073-2.881c1.617,0,2.577,1.168,2.754,2.801L186.392,23.009z"/>
		<path style="fill:#FFFFFF;" d="M194.903,21.889h-1.921V20.16h5.827v1.729h-1.921v9.828h-1.985V21.889z"/>
		<path style="fill:#FFFFFF;" d="M200.134,31.717V20.16h1.984v4.706h2.113V20.16h1.984v11.557h-1.984v-5.122h-2.113v5.122H200.134z"
			/>
		<path style="fill:#FFFFFF;" d="M209.447,31.717h-1.921l2.129-11.557h2.465l2.129,11.557h-1.921l-0.352-2.561h-2.178
			L209.447,31.717z M210.086,27.427h1.602l-0.785-4.962h-0.031L210.086,27.427z"/>
		<path style="fill:#FFFFFF;" d="M216.71,21.889h-1.921V20.16h5.826v1.729h-1.921v9.828h-1.984V21.889z"/>
		<path style="fill:#FFFFFF;" d="M225.653,31.717V20.16h1.985v4.706h2.112V20.16h1.985v11.557h-1.985v-5.122h-2.112v5.122H225.653z"
			/>
		<path style="fill:#FFFFFF;" d="M233.813,31.717V20.16h5.314v1.729h-3.329v2.978h2.561v1.729h-2.561v3.394h3.553v1.729H233.813z"/>
		<path style="fill:#FFFFFF;" d="M242.229,31.717h-1.921l2.129-11.557h2.465l2.129,11.557h-1.921l-0.352-2.561h-2.178
			L242.229,31.717z M242.868,27.427h1.602l-0.785-4.962h-0.031L242.868,27.427z"/>
		<path style="fill:#FFFFFF;" d="M250.324,31.717h-1.984V20.16h2.785c2.225,0,3.361,0.944,3.361,3.409
			c0,1.857-0.721,2.609-1.393,2.914l1.681,5.234h-2.017l-1.409-4.786c-0.256,0.032-0.672,0.048-1.024,0.048V31.717z M250.324,25.346
			h0.704c1.072,0,1.473-0.4,1.473-1.777c0-1.376-0.4-1.776-1.473-1.776h-0.704V25.346z"/>
		<path style="fill:#FFFFFF;" d="M257.653,21.889h-1.921V20.16h5.826v1.729h-1.921v9.828h-1.984V21.889z"/>
		<path style="fill:#FFFFFF;" d="M266.867,31.717V20.16h1.984v11.557H266.867z"/>
		<path style="fill:#FFFFFF;" d="M274.821,23.009c-0.079-0.992-0.607-1.281-1.056-1.281c-0.641,0-0.993,0.417-0.993,1.137
			c0,1.969,4.034,2.913,4.034,6.05c0,1.905-1.28,2.961-3.138,2.961c-1.841,0-2.896-1.473-2.977-3.201l1.889-0.272
			c0.08,1.168,0.544,1.745,1.185,1.745c0.688,0,1.152-0.368,1.152-1.056c0-2.289-4.034-2.897-4.034-6.21
			c0-1.841,1.121-2.881,3.073-2.881c1.617,0,2.577,1.168,2.754,2.801L274.821,23.009z"/>
		<path style="fill:#FFFFFF;" d="M280.228,31.717l-1.104,1.985h-0.848l0.784-1.985h-0.721v-1.889h1.889V31.717z"/>
		<path style="fill:#FFFFFF;" d="M20.157,40.16h1.633l1.344,7.363h0.032l1.104-7.363h1.856l-2.032,11.557H22.43l-1.44-7.635h-0.032
			l-1.345,7.635h-1.664L15.755,40.16h1.857l1.216,7.363h0.032L20.157,40.16z"/>
		<path style="fill:#FFFFFF;" d="M27.548,51.717V40.16h1.984v4.706h2.113V40.16h1.984v11.557h-1.984v-5.122h-2.113v5.122H27.548z"/>
		<path style="fill:#FFFFFF;" d="M35.707,51.717V40.16h5.314v1.729h-3.329v2.978h2.561v1.729h-2.561v3.394h3.553v1.729H35.707z"/>
		<path style="fill:#FFFFFF;" d="M42.972,51.717V40.16h1.841l2.417,6.611h0.031V40.16h1.793v11.557h-1.729l-2.529-7.219h-0.032
			v7.219H42.972z"/>
		<path style="fill:#FFFFFF;" d="M55.995,51.717h-1.921l2.129-11.557h2.466l2.129,11.557h-1.921l-0.353-2.561h-2.177L55.995,51.717z
			 M56.636,47.427h1.601l-0.784-4.962H57.42L56.636,47.427z"/>
		<path style="fill:#FFFFFF;" d="M62.011,51.717V40.16h1.984v9.828h3.121v1.729H62.011z"/>
		<path style="fill:#FFFFFF;" d="M68.395,51.717V40.16h1.984v9.828H73.5v1.729H68.395z"/>
		<path style="fill:#FFFFFF;" d="M78.586,51.717V40.16H83.9v1.729h-3.329v2.978h2.562v1.729h-2.562v3.394h3.554v1.729H78.586z"/>
		<path style="fill:#FFFFFF;" d="M85.753,51.717V40.16h1.985v9.828h3.121v1.729H85.753z"/>
		<path style="fill:#FFFFFF;" d="M95.85,43.009c-0.079-0.992-0.607-1.281-1.056-1.281c-0.641,0-0.993,0.417-0.993,1.137
			c0,1.969,4.034,2.913,4.034,6.05c0,1.905-1.28,2.961-3.138,2.961c-1.841,0-2.896-1.473-2.977-3.201l1.889-0.272
			c0.08,1.168,0.544,1.745,1.185,1.745c0.688,0,1.152-0.368,1.152-1.056c0-2.289-4.034-2.897-4.034-6.21
			c0-1.841,1.121-2.881,3.073-2.881c1.617,0,2.577,1.168,2.754,2.801L95.85,43.009z"/>
		<path style="fill:#FFFFFF;" d="M99.496,51.717V40.16h5.314v1.729h-3.329v2.978h2.561v1.729h-2.561v3.394h3.553v1.729H99.496z"/>
		<path style="fill:#FFFFFF;" d="M110.472,51.717V40.16h5.538v1.729h-3.553v2.978h2.656v1.729h-2.656v5.122H110.472z"/>
		<path style="fill:#FFFFFF;" d="M118.888,51.717h-1.921l2.129-11.557h2.465l2.129,11.557h-1.921l-0.352-2.561h-2.178
			L118.888,51.717z M119.528,47.427h1.602l-0.785-4.962h-0.031L119.528,47.427z"/>
		<path style="fill:#FFFFFF;" d="M125.271,51.717V40.16h1.985v11.557H125.271z"/>
		<path style="fill:#FFFFFF;" d="M129.511,51.717V40.16h1.985v9.828h3.121v1.729H129.511z"/>
		<path style="fill:#FFFFFF;" d="M139.608,43.009c-0.079-0.992-0.607-1.281-1.056-1.281c-0.641,0-0.993,0.417-0.993,1.137
			c0,1.969,4.034,2.913,4.034,6.05c0,1.905-1.28,2.961-3.138,2.961c-1.841,0-2.896-1.473-2.977-3.201l1.889-0.272
			c0.08,1.168,0.544,1.745,1.185,1.745c0.688,0,1.152-0.368,1.152-1.056c0-2.289-4.034-2.897-4.034-6.21
			c0-1.841,1.121-2.881,3.073-2.881c1.617,0,2.577,1.168,2.754,2.801L139.608,43.009z"/>
		<path style="fill:#FFFFFF;" d="M145.015,51.717l-1.104,1.985h-0.848l0.784-1.985h-0.721v-1.889h1.889V51.717z"/>
		<path style="fill:#FFFFFF;" d="M151.83,51.717h-1.921l2.129-11.557h2.465l2.129,11.557h-1.921l-0.352-2.561h-2.178L151.83,51.717z
			 M152.47,47.427h1.602l-0.785-4.962h-0.031L152.47,47.427z"/>
		<path style="fill:#FFFFFF;" d="M169.609,40.16v11.557h-1.729v-9.028h-0.032l-1.793,9.028h-0.96l-1.793-9.028h-0.032v9.028h-1.729
			V40.16h2.609l1.408,6.755h0.032l1.408-6.755H169.609z"/>
		<path style="fill:#FFFFFF;" d="M172.741,51.717h-1.921l2.129-11.557h2.465l2.129,11.557h-1.921l-0.352-2.561h-2.178
			L172.741,51.717z M173.381,47.427h1.602l-0.785-4.962h-0.031L173.381,47.427z"/>
		<path style="fill:#FFFFFF;" d="M178.853,51.717V40.16h1.841l2.417,6.611h0.032V40.16h1.793v11.557h-1.729l-2.528-7.219h-0.032
			v7.219H178.853z"/>
		<path style="fill:#FFFFFF;" d="M188.774,42.049l-1.104,1.985h-0.848l0.784-1.985h-0.721V40.16h1.889V42.049z"/>
		<path style="fill:#FFFFFF;" d="M194.342,43.009c-0.08-0.992-0.608-1.281-1.057-1.281c-0.64,0-0.992,0.417-0.992,1.137
			c0,1.969,4.033,2.913,4.033,6.05c0,1.905-1.28,2.961-3.137,2.961c-1.841,0-2.897-1.473-2.978-3.201l1.889-0.272
			c0.08,1.168,0.545,1.745,1.185,1.745c0.688,0,1.152-0.368,1.152-1.056c0-2.289-4.033-2.897-4.033-6.21
			c0-1.841,1.12-2.881,3.073-2.881c1.616,0,2.577,1.168,2.753,2.801L194.342,43.009z"/>
		<path style="fill:#FFFFFF;" d="M201.7,40.16h2.945c2.129,0,3.073,1.088,3.073,3.057c0,0.993-0.417,2.033-1.377,2.417
			c1.009,0.448,1.601,1.249,1.601,2.737c0,1.905-0.849,3.345-3.105,3.345H201.7V40.16z M203.685,44.898h0.721
			c0.752,0,1.328-0.512,1.328-1.473c0-1.072-0.416-1.632-1.297-1.632h-0.752V44.898z M203.685,50.084h0.832
			c1.057,0,1.441-0.608,1.441-1.776c0-1.185-0.448-1.777-1.633-1.777h-0.641V50.084z"/>
		<path style="fill:#FFFFFF;" d="M209.86,51.717V40.16h5.314v1.729h-3.329v2.978h2.561v1.729h-2.561v3.394h3.553v1.729H209.86z"/>
		<path style="fill:#FFFFFF;" d="M220.74,43.009c-0.079-0.992-0.607-1.281-1.056-1.281c-0.641,0-0.993,0.417-0.993,1.137
			c0,1.969,4.034,2.913,4.034,6.05c0,1.905-1.28,2.961-3.138,2.961c-1.841,0-2.896-1.473-2.977-3.201l1.889-0.272
			c0.08,1.168,0.544,1.745,1.185,1.745c0.688,0,1.152-0.368,1.152-1.056c0-2.289-4.034-2.897-4.034-6.21
			c0-1.841,1.121-2.881,3.073-2.881c1.617,0,2.577,1.168,2.754,2.801L220.74,43.009z"/>
		<path style="fill:#FFFFFF;" d="M225.539,41.889h-1.921V40.16h5.827v1.729h-1.921v9.828h-1.985V41.889z"/>
		<path style="fill:#FFFFFF;" d="M234.483,51.717V40.16h5.538v1.729h-3.554v2.978h2.657v1.729h-2.657v5.122H234.483z"/>
		<path style="fill:#FFFFFF;" d="M243.731,51.717h-1.984V40.16h2.785c2.225,0,3.361,0.944,3.361,3.409
			c0,1.857-0.721,2.609-1.393,2.914l1.681,5.234h-2.017l-1.409-4.786c-0.256,0.032-0.672,0.048-1.024,0.048V51.717z M243.731,45.346
			h0.704c1.072,0,1.473-0.4,1.473-1.777c0-1.376-0.4-1.776-1.473-1.776h-0.704V45.346z"/>
		<path style="fill:#FFFFFF;" d="M250.178,51.717V40.16h1.984v11.557H250.178z"/>
		<path style="fill:#FFFFFF;" d="M254.514,51.717V40.16h5.314v1.729h-3.329v2.978h2.561v1.729h-2.561v3.394h3.553v1.729H254.514z"/>
		<path style="fill:#FFFFFF;" d="M261.778,51.717V40.16h1.841l2.417,6.611h0.032V40.16h1.793v11.557h-1.729l-2.528-7.219h-0.032
			v7.219H261.778z"/>
		<path style="fill:#FFFFFF;" d="M269.938,40.16h2.945c2.049,0,3.138,1.121,3.138,3.489v4.578c0,2.369-1.089,3.489-3.138,3.489
			h-2.945V40.16z M271.923,50.084h0.688c1.057,0,1.425-0.4,1.425-1.617V43.41c0-1.217-0.368-1.617-1.425-1.617h-0.688V50.084z"/>
		<path style="fill:#FFFFFF;" d="M280.162,42.049l-1.104,1.985h-0.849l0.785-1.985h-0.721V40.16h1.889V42.049z M283.123,42.049
			l-1.104,1.985h-0.848l0.784-1.985h-0.721V40.16h1.889V42.049z"/>
		<path style="fill:#FFF8DA;" d="M110.838,73.717v-8.659h1.487v7.364h2.339v1.295H110.838z"/>
		<path style="fill:#FFF8DA;" d="M115.842,73.717v-8.659h1.487v8.659H115.842z"/>
		<path style="fill:#FFF8DA;" d="M119.898,66.353h-1.438v-1.295h4.365v1.295h-1.439v7.364h-1.487V66.353z"/>
		<path style="fill:#FFF8DA;" d="M124.626,66.353h-1.439v-1.295h4.366v1.295h-1.439v7.364h-1.487V66.353z"/>
		<path style="fill:#FFF8DA;" d="M128.418,73.717v-8.659h1.487v7.364h2.339v1.295H128.418z"/>
		<path style="fill:#FFF8DA;" d="M133.218,73.717v-8.659h3.982v1.295h-2.495v2.23h1.919v1.295h-1.919v2.542h2.662v1.295H133.218z"/>
		<path style="fill:#FFF8DA;" d="M143.908,65.058h1.224l1.007,5.517h0.024l0.827-5.517h1.392l-1.523,8.659h-1.247l-1.079-5.721
			h-0.024l-1.007,5.721h-1.248l-1.643-8.659h1.391l0.912,5.517h0.023L143.908,65.058z"/>
		<path style="fill:#FFF8DA;" d="M149.394,73.717v-8.659h1.487v3.526h1.583v-3.526h1.487v8.659h-1.487v-3.838h-1.583v3.838H149.394z
			"/>
		<path style="fill:#FFF8DA;" d="M155.657,73.717v-8.659h1.487v8.659H155.657z"/>
		<path style="fill:#FFF8DA;" d="M159.713,66.353h-1.438v-1.295h4.365v1.295H161.2v7.364h-1.487V66.353z"/>
		<path style="fill:#FFF8DA;" d="M163.578,73.717v-8.659h3.981v1.295h-2.494v2.23h1.919v1.295h-1.919v2.542h2.662v1.295H163.578z"/>
		<path style="fill:#FFF8DA;" d="M171.616,73.717v-8.659h1.487v7.364h2.339v1.295H171.616z"/>
		<path style="fill:#FFF8DA;" d="M176.62,73.717v-8.659h1.487v8.659H176.62z"/>
		<path style="fill:#FFF8DA;" d="M179.813,73.717v-8.659h3.982v1.295H181.3v2.23h1.919v1.295H181.3v2.542h2.662v1.295H179.813z"/>
		<path style="fill:#FFF8DA;" d="M187.911,67.192c-0.061-0.744-0.456-0.959-0.792-0.959c-0.479,0-0.743,0.312-0.743,0.852
			c0,1.475,3.022,2.183,3.022,4.534c0,1.427-0.96,2.219-2.352,2.219c-1.379,0-2.17-1.104-2.23-2.399l1.415-0.204
			c0.061,0.875,0.408,1.307,0.888,1.307c0.516,0,0.863-0.276,0.863-0.792c0-1.715-3.021-2.171-3.021-4.653
			c0-1.379,0.839-2.159,2.303-2.159c1.211,0,1.931,0.875,2.062,2.099L187.911,67.192z"/>
	</g>
</g>
<g id="nyt_x5F_exporter_x5F_info" style="display:none;">
</g>
</svg>
