<?xml version="1.0" encoding="iso-8859-1"?>
<!-- Generator: Adobe Illustrator 17.1.0, SVG Export Plug-In . SVG Version: 6.00 Build 0)  -->
<!DOCTYPE svg PUBLIC "-//W3C//DTD SVG 1.1//EN" "http://www.w3.org/Graphics/SVG/1.1/DTD/svg11.dtd">
<svg version="1.1" xmlns="http://www.w3.org/2000/svg" xmlns:xlink="http://www.w3.org/1999/xlink" x="0px" y="0px"
	 viewBox="0 0 300 199.889" style="enable-background:new 0 0 300 199.889;" xml:space="preserve">
<g id="Layer_1">
	<g>
		<path style="fill:#FFF8DA;" d="M31.329,4.463L33.812,0h1.908l-1.764,4.463h1.62v4.248h-4.248V4.463z M37.988,4.463L40.472,0h1.908
			l-1.764,4.463h1.62v4.248h-4.248V4.463z"/>
		<path style="fill:#FFF8DA;" d="M47.132,26.349V0.36h6.407c5.507,0,8.063,2.124,8.063,7.667s-2.556,7.667-8.063,7.667h-1.944
			v10.655H47.132z M51.595,12.022h1.728c2.916,0,3.815-0.9,3.815-3.996s-0.9-3.996-3.815-3.996h-1.728V12.022z"/>
		<path style="fill:#FFF8DA;" d="M65.312,26.349V0.36h11.951v3.888h-7.487v6.695h5.759v3.888h-5.759v7.631h7.991v3.888H65.312z"/>
		<path style="fill:#FFF8DA;" d="M84.067,26.349h-4.319L84.535,0.36h5.543l4.788,25.989h-4.32l-0.792-5.759h-4.895L84.067,26.349z
			 M85.507,16.702h3.599L87.343,5.543h-0.072L85.507,16.702z"/>
		<path style="fill:#FFF8DA;" d="M102.102,26.349h-4.463V0.36h6.263c5.003,0,7.559,2.124,7.559,7.667
			c0,4.176-1.62,5.867-3.131,6.551l3.779,11.771h-4.536l-3.167-10.763c-0.576,0.072-1.512,0.108-2.304,0.108V26.349z
			 M102.102,12.022h1.584c2.412,0,3.312-0.9,3.312-3.996s-0.9-3.996-3.312-3.996h-1.584V12.022z"/>
		<path style="fill:#FFF8DA;" d="M124.818,9.035V7.019c0-2.196-1.008-3.131-2.16-3.131c-1.8,0-2.376,0.936-2.376,2.879v13.174
			c0,1.944,0.576,2.88,2.376,2.88c1.62,0,2.16-0.936,2.16-2.628v-3.131h4.463v2.987c0,3.672-2.16,6.659-6.623,6.659
			c-4.68,0-6.839-2.987-6.839-6.659V6.659c0-3.671,2.16-6.659,6.839-6.659c4.463,0,6.623,3.24,6.623,7.127v1.908H124.818z"/>
		<path style="fill:#FFF8DA;" d="M133.998,26.349V0.36h11.951v3.888h-7.487v6.695h5.759v3.888h-5.759v7.631h7.991v3.888H133.998z"/>
		<path style="fill:#FFF8DA;" d="M150.306,0.36h3.384v9.863h-3.384V0.36z"/>
		<path style="fill:#FFF8DA;" d="M166.469,6.767c-0.18-2.232-1.368-2.879-2.376-2.879c-1.44,0-2.231,0.936-2.231,2.556
			c0,4.427,9.071,6.551,9.071,13.606c0,4.284-2.88,6.659-7.055,6.659c-4.14,0-6.515-3.312-6.695-7.199l4.248-0.612
			c0.18,2.628,1.224,3.924,2.664,3.924c1.548,0,2.592-0.828,2.592-2.376c0-5.147-9.071-6.515-9.071-13.966
			c0-4.139,2.52-6.479,6.911-6.479c3.635,0,5.795,2.627,6.191,6.299L166.469,6.767z"/>
		<path style="fill:#FFF8DA;" d="M182.668,0.36h6.623c4.788,0,6.911,2.448,6.911,6.875c0,2.232-0.936,4.572-3.095,5.436
			c2.268,1.008,3.599,2.808,3.599,6.155c0,4.283-1.908,7.523-6.983,7.523h-7.055V0.36z M187.131,11.015h1.62
			c1.691,0,2.987-1.152,2.987-3.312c0-2.412-0.936-3.672-2.916-3.672h-1.692V11.015z M187.131,22.677h1.872
			c2.375,0,3.239-1.368,3.239-3.996c0-2.664-1.008-3.996-3.671-3.996h-1.44V22.677z"/>
		<path style="fill:#FFF8DA;" d="M203.44,26.349h-4.319l4.787-25.989h5.543l4.787,25.989h-4.319l-0.792-5.759h-4.895L203.44,26.349z
			 M204.88,16.702h3.6l-1.764-11.158h-0.072L204.88,16.702z"/>
		<path style="fill:#FFF8DA;" d="M221.475,26.349h-4.463V0.36h6.263c5.003,0,7.559,2.124,7.559,7.667
			c0,4.176-1.62,5.867-3.131,6.551l3.779,11.771h-4.535l-3.168-10.763c-0.576,0.072-1.512,0.108-2.304,0.108V26.349z
			 M221.475,12.022h1.584c2.412,0,3.312-0.9,3.312-3.996s-0.9-3.996-3.312-3.996h-1.584V12.022z"/>
		<path style="fill:#FFF8DA;" d="M235.191,26.349V0.36h11.951v3.888h-7.487v6.695h5.759v3.888h-5.759v7.631h7.991v3.888H235.191z"/>
		<path style="fill:#FFF8DA;" d="M251.139,26.349V0.36h4.463v22.101h7.019v3.888H251.139z"/>
		<path style="fill:#FFF8DA;" d="M273.602,26.349h-4.463V15.55l-5.399-15.19h4.536l3.131,9.899h0.072l2.987-9.899h4.536
			l-5.399,15.19V26.349z"/>
		<path style="fill:#FFF8DA;" d="M77.351,43.035v-2.016c0-2.196-1.008-3.131-2.16-3.131c-1.8,0-2.376,0.936-2.376,2.879v13.174
			c0,1.944,0.576,2.88,2.376,2.88c1.62,0,2.16-0.936,2.16-2.628v-3.131h4.463v2.987c0,3.672-2.16,6.659-6.623,6.659
			c-4.68,0-6.839-2.987-6.839-6.659v-13.39c0-3.671,2.16-6.659,6.839-6.659c4.463,0,6.623,3.24,6.623,7.127v1.908H77.351z"/>
		<path style="fill:#FFF8DA;" d="M86.533,40.659c0-3.671,2.16-6.659,6.839-6.659c4.679,0,6.839,2.988,6.839,6.659v13.39
			c0,3.672-2.16,6.659-6.839,6.659c-4.68,0-6.839-2.987-6.839-6.659V40.659z M90.996,53.941c0,1.944,0.576,2.88,2.376,2.88
			s2.375-0.936,2.375-2.88V40.767c0-1.944-0.576-2.879-2.375-2.879s-2.376,0.936-2.376,2.879V53.941z"/>
		<path style="fill:#FFF8DA;" d="M104.712,60.349V34.36h4.14l5.435,14.866h0.072V34.36h4.031v25.989h-3.887l-5.688-16.234h-0.072
			v16.234H104.712z"/>
		<path style="fill:#FFF8DA;" d="M125.484,38.248h-4.319V34.36h13.102v3.888h-4.319v22.101h-4.463V38.248z"/>
		<path style="fill:#FFF8DA;" d="M141.54,60.349h-4.463V34.36h6.263c5.003,0,7.559,2.124,7.559,7.667
			c0,4.176-1.62,5.867-3.131,6.551l3.779,11.771h-4.535l-3.168-10.763c-0.576,0.072-1.512,0.108-2.304,0.108V60.349z M141.54,46.022
			h1.584c2.412,0,3.312-0.9,3.312-3.996s-0.9-3.996-3.312-3.996h-1.584V46.022z"/>
		<path style="fill:#FFF8DA;" d="M155.256,40.659c0-3.671,2.16-6.659,6.839-6.659c4.679,0,6.839,2.988,6.839,6.659v13.39
			c0,3.672-2.16,6.659-6.839,6.659c-4.68,0-6.839-2.987-6.839-6.659V40.659z M159.72,53.941c0,1.944,0.576,2.88,2.376,2.88
			s2.375-0.936,2.375-2.88V40.767c0-1.944-0.576-2.879-2.375-2.879s-2.376,0.936-2.376,2.879V53.941z"/>
		<path style="fill:#FFF8DA;" d="M173.221,60.349V34.36h4.463v22.101h7.019v3.888H173.221z"/>
		<path style="fill:#FFF8DA;" d="M187.404,60.349V34.36h4.463v22.101h7.019v3.888H187.404z"/>
		<path style="fill:#FFF8DA;" d="M201.804,60.349V34.36h11.951v3.888h-7.487v6.695h5.759v3.888h-5.759v7.631h7.991v3.888H201.804z"
			/>
		<path style="fill:#FFF8DA;" d="M217.968,34.36h6.623c4.607,0,7.055,2.52,7.055,7.847v10.294c0,5.328-2.448,7.847-7.055,7.847
			h-6.623V34.36z M222.431,56.677h1.548c2.376,0,3.204-0.9,3.204-3.636V41.667c0-2.736-0.828-3.636-3.204-3.636h-1.548V56.677z"/>
		<path style="fill:#FFF8DA;" d="M15.597,94.349V68.36h12.455v3.888H20.06v6.695h5.976v3.888H20.06v11.519H15.597z"/>
		<path style="fill:#FFF8DA;" d="M31.76,94.349V68.36h11.951v3.888h-7.487v6.695h5.759v3.888h-5.759v7.631h7.991v3.888H31.76z"/>
		<path style="fill:#FFF8DA;" d="M52.387,94.349h-4.463V68.36h6.263c5.003,0,7.559,2.124,7.559,7.667
			c0,4.176-1.62,5.867-3.131,6.551l3.779,11.771h-4.535L54.69,83.586c-0.576,0.072-1.512,0.108-2.304,0.108V94.349z M52.387,80.022
			h1.584c2.412,0,3.312-0.9,3.312-3.996s-0.9-3.996-3.312-3.996h-1.584V80.022z"/>
		<path style="fill:#FFF8DA;" d="M66.103,74.659c0-3.671,2.16-6.659,6.839-6.659c4.679,0,6.839,2.988,6.839,6.659v13.39
			c0,3.672-2.16,6.659-6.839,6.659c-4.68,0-6.839-2.987-6.839-6.659V74.659z M70.567,87.941c0,1.944,0.576,2.88,2.376,2.88
			s2.375-0.936,2.375-2.88V74.767c0-1.944-0.576-2.879-2.375-2.879s-2.376,0.936-2.376,2.879V87.941z"/>
		<path style="fill:#FFF8DA;" d="M93.283,77.035v-2.016c0-2.196-1.008-3.131-2.16-3.131c-1.8,0-2.376,0.936-2.376,2.879v13.174
			c0,1.944,0.576,2.88,2.376,2.88c1.62,0,2.16-0.936,2.16-2.628v-3.131h4.463v2.987c0,3.672-2.16,6.659-6.623,6.659
			c-4.68,0-6.839-2.987-6.839-6.659v-13.39c0-3.671,2.16-6.659,6.839-6.659c4.463,0,6.623,3.24,6.623,7.127v1.908H93.283z"/>
		<path style="fill:#FFF8DA;" d="M103.075,94.349V68.36h4.463v25.989H103.075z"/>
		<path style="fill:#FFF8DA;" d="M115.243,72.248h-4.319V68.36h13.102v3.888h-4.319v22.101h-4.463V72.248z"/>
		<path style="fill:#FFF8DA;" d="M134.898,94.349h-4.463V83.55l-5.399-15.19h4.536l3.131,9.899h0.072l2.987-9.899h4.536
			l-5.399,15.19V94.349z"/>
		<path style="fill:#FFF8DA;" d="M153.762,94.349h-4.319l4.787-25.989h5.543l4.787,25.989h-4.319l-0.792-5.759h-4.895
			L153.762,94.349z M155.202,84.702h3.6l-1.764-11.158h-0.072L155.202,84.702z"/>
		<path style="fill:#FFF8DA;" d="M175.469,74.767c-0.18-2.232-1.368-2.879-2.376-2.879c-1.44,0-2.231,0.936-2.231,2.556
			c0,4.427,9.071,6.551,9.071,13.606c0,4.284-2.88,6.659-7.055,6.659c-4.14,0-6.515-3.312-6.695-7.199l4.248-0.612
			c0.18,2.628,1.224,3.924,2.664,3.924c1.548,0,2.592-0.828,2.592-2.376c0-5.147-9.071-6.515-9.071-13.966
			c0-4.139,2.52-6.479,6.911-6.479c3.635,0,5.795,2.627,6.191,6.299L175.469,74.767z"/>
		<path style="fill:#FFF8DA;" d="M191.668,94.349V68.36h11.951v3.888h-7.487v6.695h5.759v3.888h-5.759v7.631h7.991v3.888H191.668z"
			/>
		<path style="fill:#FFF8DA;" d="M212.295,94.349h-4.463V68.36h6.263c5.003,0,7.559,2.124,7.559,7.667
			c0,4.176-1.62,5.867-3.131,6.551l3.779,11.771h-4.535l-3.168-10.763c-0.576,0.072-1.512,0.108-2.304,0.108V94.349z
			 M212.295,80.022h1.584c2.412,0,3.312-0.9,3.312-3.996s-0.9-3.996-3.312-3.996h-1.584V80.022z"/>
		<path style="fill:#FFF8DA;" d="M226.623,94.349V68.36h4.463v25.989H226.623z"/>
		<path style="fill:#FFF8DA;" d="M245.199,77.035v-2.016c0-2.196-1.008-3.131-2.16-3.131c-1.8,0-2.376,0.936-2.376,2.879v13.174
			c0,1.944,0.576,2.88,2.376,2.88c1.62,0,2.16-0.936,2.16-2.628v-3.131h4.463v2.987c0,3.672-2.16,6.659-6.623,6.659
			c-4.68,0-6.839-2.987-6.839-6.659v-13.39c0-3.671,2.16-6.659,6.839-6.659c4.463,0,6.623,3.24,6.623,7.127v1.908H245.199z"/>
		<path style="fill:#FFF8DA;" d="M263.163,94.349V68.36h4.463v25.989H263.163z"/>
		<path style="fill:#FFF8DA;" d="M280.874,74.767c-0.18-2.232-1.368-2.879-2.376-2.879c-1.44,0-2.231,0.936-2.231,2.556
			c0,4.427,9.071,6.551,9.071,13.606c0,4.284-2.88,6.659-7.055,6.659c-4.14,0-6.515-3.312-6.695-7.199l4.248-0.612
			c0.18,2.628,1.224,3.924,2.664,3.924c1.548,0,2.592-0.828,2.592-2.376c0-5.147-9.071-6.515-9.071-13.966
			c0-4.139,2.52-6.479,6.911-6.479c3.635,0,5.795,2.627,6.191,6.299L280.874,74.767z"/>
		<path style="fill:#FFF8DA;" d="M60.199,128.349V102.36H72.15v3.888h-7.487v6.695h5.759v3.888h-5.759v7.631h7.991v3.888H60.199z"/>
		<path style="fill:#FFF8DA;" d="M79.818,114.742l-4.751-12.382h4.392l2.736,8.243h0.072l2.484-8.243h4.391l-4.5,12.382l5.04,13.606
			h-4.392l-3.023-9.467h-0.072l-3.096,9.467h-4.392L79.818,114.742z"/>
		<path style="fill:#FFF8DA;" d="M101.525,111.035v-2.016c0-2.196-1.008-3.131-2.16-3.131c-1.8,0-2.376,0.936-2.376,2.879v13.174
			c0,1.944,0.576,2.88,2.376,2.88c1.62,0,2.16-0.936,2.16-2.628v-3.131h4.463v2.987c0,3.672-2.16,6.659-6.623,6.659
			c-4.68,0-6.839-2.987-6.839-6.659v-13.39c0-3.671,2.16-6.659,6.839-6.659c4.463,0,6.623,3.24,6.623,7.127v1.908H101.525z"/>
		<path style="fill:#FFF8DA;" d="M110.706,128.349V102.36h11.951v3.888h-7.487v6.695h5.759v3.888h-5.759v7.631h7.991v3.888H110.706z
			"/>
		<path style="fill:#FFF8DA;" d="M126.87,128.349V102.36h6.407c5.507,0,8.063,2.124,8.063,7.667s-2.556,7.667-8.063,7.667h-1.944
			v10.655H126.87z M131.333,114.022h1.728c2.916,0,3.815-0.9,3.815-3.996s-0.9-3.996-3.815-3.996h-1.728V114.022z"/>
		<path style="fill:#FFF8DA;" d="M147.641,106.248h-4.319v-3.888h13.102v3.888h-4.319v22.101h-4.463V106.248z"/>
		<path style="fill:#FFF8DA;" d="M159.845,128.349V102.36h4.463v25.989H159.845z"/>
		<path style="fill:#FFF8DA;" d="M169.421,108.659c0-3.671,2.16-6.659,6.839-6.659c4.679,0,6.839,2.988,6.839,6.659v13.39
			c0,3.672-2.16,6.659-6.839,6.659c-4.68,0-6.839-2.987-6.839-6.659V108.659z M173.884,121.941c0,1.944,0.576,2.88,2.376,2.88
			s2.375-0.936,2.375-2.88v-13.174c0-1.944-0.576-2.879-2.375-2.879s-2.376,0.936-2.376,2.879V121.941z"/>
		<path style="fill:#FFF8DA;" d="M187.601,128.349V102.36h4.14l5.435,14.866h0.072V102.36h4.031v25.989h-3.887l-5.688-16.234h-0.072
			v16.234H187.601z"/>
		<path style="fill:#FFF8DA;" d="M208.373,128.349h-4.319l4.787-25.989h5.543l4.788,25.989h-4.32l-0.792-5.759h-4.895
			L208.373,128.349z M209.813,118.702h3.599l-1.764-11.158h-0.072L209.813,118.702z"/>
		<path style="fill:#FFF8DA;" d="M221.728,128.349V102.36h4.463v22.101h7.019v3.888H221.728z"/>
		<path style="fill:#FFF8DA;" d="M240.088,128.349l-2.483,4.463h-1.908l1.764-4.463h-1.62v-4.248h4.248V128.349z"/>
		<path style="fill:#FFFFFF;" d="M4.883,148.349H2.962l2.129-11.557h2.465l2.129,11.557H7.765l-0.352-2.561H5.235L4.883,148.349z
			 M5.523,144.059h1.601l-0.784-4.962H6.308L5.523,144.059z"/>
		<path style="fill:#FFFFFF;" d="M10.995,148.349v-11.557h1.841l2.417,6.611h0.032v-6.611h1.793v11.557h-1.729l-2.529-7.219h-0.032
			v7.219H10.995z"/>
		<path style="fill:#FFFFFF;" d="M19.154,136.792H22.1c2.049,0,3.137,1.121,3.137,3.489v4.578c0,2.369-1.088,3.489-3.137,3.489
			h-2.945V136.792z M21.139,146.716h0.688c1.057,0,1.425-0.4,1.425-1.617v-5.058c0-1.217-0.368-1.617-1.425-1.617h-0.688V146.716z"
			/>
		<path style="fill:#FFFFFF;" d="M31.026,148.349v-11.557h2.849c2.449,0,3.585,0.944,3.585,3.409c0,2.465-1.137,3.41-3.585,3.41
			h-0.864v4.738H31.026z M33.011,141.978h0.768c1.297,0,1.697-0.4,1.697-1.777c0-1.376-0.4-1.776-1.697-1.776h-0.768V141.978z"/>
		<path style="fill:#FFFFFF;" d="M40.338,148.349h-1.921l2.129-11.557h2.465l2.129,11.557H43.22l-0.352-2.561H40.69L40.338,148.349z
			 M40.978,144.059h1.601l-0.784-4.962h-0.032L40.978,144.059z"/>
		<path style="fill:#FFFFFF;" d="M47.602,138.521h-1.921v-1.729h5.827v1.729h-1.921v9.828h-1.985V138.521z"/>
		<path style="fill:#FFFFFF;" d="M53.986,138.521h-1.921v-1.729h5.827v1.729h-1.921v9.828h-1.985V138.521z"/>
		<path style="fill:#FFFFFF;" d="M59.489,148.349v-11.557h1.985v11.557H59.489z"/>
		<path style="fill:#FFFFFF;" d="M63.825,148.349v-11.557h1.841l2.417,6.611h0.032v-6.611h1.793v11.557h-1.729l-2.529-7.219h-0.032
			v7.219H63.825z"/>
		<path style="fill:#FFFFFF;" d="M75.602,139.641c-0.08-0.992-0.608-1.281-1.056-1.281c-0.64,0-0.993,0.417-0.993,1.137
			c0,1.969,4.034,2.913,4.034,6.05c0,1.905-1.28,2.961-3.137,2.961c-1.841,0-2.897-1.473-2.977-3.201l1.889-0.272
			c0.08,1.168,0.544,1.745,1.185,1.745c0.688,0,1.152-0.368,1.152-1.056c0-2.289-4.034-2.897-4.034-6.21
			c0-1.841,1.121-2.881,3.073-2.881c1.617,0,2.577,1.168,2.753,2.801L75.602,139.641z"/>
		<path style="fill:#FFFFFF;" d="M79.248,139.593c0-1.633,0.96-2.961,3.041-2.961c2.081,0,3.042,1.329,3.042,2.961v5.954
			c0,1.633-0.96,2.961-3.042,2.961c-2.081,0-3.041-1.329-3.041-2.961V139.593z M81.233,145.5c0,0.864,0.256,1.28,1.056,1.28
			s1.057-0.416,1.057-1.28v-5.858c0-0.864-0.256-1.281-1.057-1.281s-1.056,0.417-1.056,1.281V145.5z"/>
		<path style="fill:#FFFFFF;" d="M87.409,148.349v-11.557h1.841l2.417,6.611h0.032v-6.611h1.793v11.557h-1.729l-2.529-7.219h-0.032
			v7.219H87.409z"/>
		<path style="fill:#FFFFFF;" d="M95.633,136.792h1.504v4.386h-1.504V136.792z"/>
		<path style="fill:#FFFFFF;" d="M102.898,139.641c-0.08-0.992-0.608-1.281-1.056-1.281c-0.64,0-0.993,0.417-0.993,1.137
			c0,1.969,4.034,2.913,4.034,6.05c0,1.905-1.28,2.961-3.137,2.961c-1.841,0-2.897-1.473-2.977-3.201l1.889-0.272
			c0.08,1.168,0.544,1.745,1.185,1.745c0.688,0,1.152-0.368,1.152-1.056c0-2.289-4.034-2.897-4.034-6.21
			c0-1.841,1.121-2.881,3.073-2.881c1.617,0,2.577,1.168,2.753,2.801L102.898,139.641z"/>
		<path style="fill:#FFFFFF;" d="M110.256,136.792h1.985v8.724c0,0.848,0.336,1.264,1.056,1.264s1.057-0.416,1.057-1.264v-8.724
			h1.985v8.644c0,1.985-1.153,3.073-3.042,3.073s-3.041-1.088-3.041-3.073V136.792z"/>
		<path style="fill:#FFFFFF;" d="M118.416,148.349v-11.557h1.841l2.417,6.611h0.032v-6.611h1.793v11.557h-1.729l-2.529-7.219h-0.032
			v7.219H118.416z"/>
		<path style="fill:#FFFFFF;" d="M128.56,148.349h-1.985v-11.557h2.785c2.225,0,3.361,0.944,3.361,3.409
			c0,1.857-0.72,2.609-1.393,2.914l1.681,5.234h-2.017l-1.408-4.786c-0.256,0.032-0.672,0.048-1.024,0.048V148.349z M128.56,141.978
			h0.704c1.072,0,1.473-0.4,1.473-1.777c0-1.376-0.4-1.776-1.473-1.776h-0.704V141.978z"/>
		<path style="fill:#FFFFFF;" d="M134.736,148.349v-11.557h5.314v1.729h-3.329v2.978h2.561v1.729h-2.561v3.394h3.553v1.729H134.736z
			"/>
		<path style="fill:#FFFFFF;" d="M146.001,140.649v-0.896c0-0.976-0.448-1.393-0.96-1.393c-0.8,0-1.056,0.417-1.056,1.281v5.858
			c0,0.864,0.256,1.28,1.056,1.28c0.72,0,0.96-0.416,0.96-1.168v-1.393h1.985v1.329c0,1.633-0.96,2.961-2.945,2.961
			c-2.081,0-3.041-1.329-3.041-2.961v-5.954c0-1.633,0.96-2.961,3.041-2.961c1.985,0,2.945,1.44,2.945,3.169v0.848H146.001z"/>
		<path style="fill:#FFFFFF;" d="M150.159,139.593c0-1.633,0.96-2.961,3.041-2.961c2.081,0,3.042,1.329,3.042,2.961v5.954
			c0,1.633-0.96,2.961-3.042,2.961c-2.081,0-3.041-1.329-3.041-2.961V139.593z M152.144,145.5c0,0.864,0.256,1.28,1.056,1.28
			s1.057-0.416,1.057-1.28v-5.858c0-0.864-0.256-1.281-1.057-1.281s-1.056,0.417-1.056,1.281V145.5z"/>
		<path style="fill:#FFFFFF;" d="M161.056,142.49h3.25v5.858h-0.96l-0.368-0.864c-0.592,0.704-1.072,1.024-2,1.024
			c-1.569,0-2.657-1.121-2.657-2.961v-5.954c0-1.633,0.96-2.961,2.913-2.961c1.985,0,2.977,1.44,2.977,3.169v0.736h-1.889
			c0-1.729-0.352-2.177-1.136-2.177c-0.48,0-0.88,0.289-0.88,1.265v5.938c0,0.736,0.24,1.216,0.928,1.216
			c0.8,0,1.088-0.448,1.088-1.601v-1.12h-1.265V142.49z"/>
		<path style="fill:#FFFFFF;" d="M166.479,148.349v-11.557h1.841l2.417,6.611h0.032v-6.611h1.793v11.557h-1.729l-2.529-7.219h-0.032
			v7.219H166.479z"/>
		<path style="fill:#FFFFFF;" d="M174.911,148.349v-11.557h1.985v11.557H174.911z"/>
		<path style="fill:#FFFFFF;" d="M179.439,138.521v-1.729h5.25v1.889l-3.649,7.939h3.649v1.729h-5.698v-1.889l3.698-7.939H179.439z"
			/>
		<path style="fill:#FFFFFF;" d="M187.663,148.349h-1.921l2.129-11.557h2.465l2.129,11.557h-1.921l-0.352-2.561h-2.177
			L187.663,148.349z M188.304,144.059h1.601l-0.784-4.962h-0.032L188.304,144.059z"/>
		<path style="fill:#FFFFFF;" d="M193.774,136.792h2.945c2.129,0,3.073,1.088,3.073,3.057c0,0.993-0.417,2.033-1.377,2.417
			c1.009,0.448,1.601,1.249,1.601,2.737c0,1.905-0.849,3.345-3.105,3.345h-3.137V136.792z M195.759,141.53h0.72
			c0.752,0,1.329-0.512,1.329-1.473c0-1.072-0.417-1.632-1.297-1.632h-0.752V141.53z M195.759,146.716h0.832
			c1.057,0,1.441-0.608,1.441-1.776c0-1.185-0.448-1.777-1.633-1.777h-0.64V146.716z"/>
		<path style="fill:#FFFFFF;" d="M201.838,148.349v-11.557h1.985v9.828h3.121v1.729H201.838z"/>
		<path style="fill:#FFFFFF;" d="M208.318,148.349v-11.557h5.314v1.729h-3.329v2.978h2.561v1.729h-2.561v3.394h3.553v1.729H208.318z
			"/>
		<path style="fill:#FFFFFF;" d="M222.735,136.792h1.633l1.344,7.363h0.032l1.104-7.363h1.856l-2.033,11.557h-1.665l-1.441-7.635
			h-0.032l-1.345,7.635h-1.665l-2.193-11.557h1.857l1.216,7.363h0.032L222.735,136.792z"/>
		<path style="fill:#FFFFFF;" d="M230.125,139.593c0-1.633,0.96-2.961,3.041-2.961c2.081,0,3.042,1.329,3.042,2.961v5.954
			c0,1.633-0.96,2.961-3.042,2.961c-2.081,0-3.041-1.329-3.041-2.961V139.593z M232.11,145.5c0,0.864,0.256,1.28,1.056,1.28
			s1.057-0.416,1.057-1.28v-5.858c0-0.864-0.256-1.281-1.057-1.281s-1.056,0.417-1.056,1.281V145.5z"/>
		<path style="fill:#FFFFFF;" d="M240.27,148.349h-1.985v-11.557h2.785c2.225,0,3.361,0.944,3.361,3.409
			c0,1.857-0.72,2.609-1.393,2.914l1.681,5.234h-2.017l-1.409-4.786c-0.256,0.032-0.672,0.048-1.024,0.048V148.349z M240.27,141.978
			h0.704c1.072,0,1.473-0.4,1.473-1.777c0-1.376-0.4-1.776-1.473-1.776h-0.704V141.978z"/>
		<path style="fill:#FFFFFF;" d="M246.349,148.349v-11.557h1.985v4.274h0.032l2.081-4.274h1.985l-2.145,4.306l2.417,7.251h-2.017
			l-1.617-5.378h-0.032l-0.704,1.28v4.098H246.349z"/>
		<path style="fill:#FFFFFF;" d="M258.573,148.349h-1.921l2.129-11.557h2.465l2.129,11.557h-1.921l-0.352-2.561h-2.177
			L258.573,148.349z M259.213,144.059h1.601l-0.784-4.962h-0.032L259.213,144.059z"/>
		<path style="fill:#FFFFFF;" d="M268.301,139.641c-0.08-0.992-0.608-1.281-1.056-1.281c-0.64,0-0.993,0.417-0.993,1.137
			c0,1.969,4.034,2.913,4.034,6.05c0,1.905-1.28,2.961-3.137,2.961c-1.841,0-2.897-1.473-2.977-3.201l1.889-0.272
			c0.08,1.168,0.544,1.745,1.185,1.745c0.688,0,1.152-0.368,1.152-1.056c0-2.289-4.034-2.897-4.034-6.21
			c0-1.841,1.121-2.881,3.073-2.881c1.617,0,2.577,1.168,2.753,2.801L268.301,139.641z"/>
		<path style="fill:#FFFFFF;" d="M277.644,148.349h-1.985v-11.557h2.785c2.225,0,3.361,0.944,3.361,3.409
			c0,1.857-0.72,2.609-1.393,2.914l1.681,5.234h-2.017l-1.408-4.786c-0.256,0.032-0.672,0.048-1.024,0.048V148.349z
			 M277.644,141.978h0.704c1.072,0,1.473-0.4,1.473-1.777c0-1.376-0.4-1.776-1.473-1.776h-0.704V141.978z"/>
		<path style="fill:#FFFFFF;" d="M283.819,148.349v-11.557h5.314v1.729h-3.329v2.978h2.561v1.729h-2.561v3.394h3.553v1.729H283.819z
			"/>
		<path style="fill:#FFFFFF;" d="M294.668,148.349h-1.985v-4.802l-2.401-6.755h2.017l1.393,4.402h0.032l1.329-4.402h2.017
			l-2.401,6.755V148.349z"/>
		<path style="fill:#FFFFFF;" d="M98.946,168.349v-11.557h1.985v11.557H98.946z"/>
		<path style="fill:#FFFFFF;" d="M106.899,159.641c-0.08-0.992-0.608-1.281-1.056-1.281c-0.64,0-0.993,0.417-0.993,1.137
			c0,1.969,4.034,2.913,4.034,6.05c0,1.905-1.28,2.961-3.137,2.961c-1.841,0-2.897-1.473-2.977-3.201l1.889-0.272
			c0.08,1.168,0.544,1.745,1.185,1.745c0.688,0,1.152-0.368,1.152-1.056c0-2.289-4.034-2.897-4.034-6.21
			c0-1.841,1.121-2.881,3.073-2.881c1.617,0,2.577,1.168,2.753,2.801L106.899,159.641z"/>
		<path style="fill:#FFFFFF;" d="M115.409,168.349h-1.921l2.129-11.557h2.465l2.128,11.557h-1.92l-0.352-2.561h-2.177
			L115.409,168.349z M116.049,164.059h1.601l-0.785-4.962h-0.032L116.049,164.059z"/>
		<path style="fill:#FFFFFF;" d="M127.217,168.349h-1.985v-11.557h2.785c2.225,0,3.361,0.944,3.361,3.409
			c0,1.857-0.72,2.609-1.393,2.914l1.681,5.234h-2.017l-1.408-4.786c-0.256,0.032-0.672,0.048-1.024,0.048V168.349z
			 M127.217,161.978h0.704c1.072,0,1.473-0.4,1.473-1.777c0-1.376-0.4-1.776-1.473-1.776h-0.704V161.978z"/>
		<path style="fill:#FFFFFF;" d="M133.392,168.349v-11.557h5.314v1.729h-3.329v2.978h2.561v1.729h-2.561v3.394h3.553v1.729H133.392z
			"/>
		<path style="fill:#FFFFFF;" d="M144.705,156.792h1.953l-2.417,11.557h-1.985l-2.417-11.557h1.953l1.441,8.019h0.032
			L144.705,156.792z"/>
		<path style="fill:#FFFFFF;" d="M147.919,168.349v-11.557h5.314v1.729h-3.329v2.978h2.561v1.729h-2.561v3.394h3.553v1.729H147.919z
			"/>
		<path style="fill:#FFFFFF;" d="M155.086,168.349v-11.557h1.985v9.828h3.121v1.729H155.086z"/>
		<path style="fill:#FFFFFF;" d="M162.719,168.349h-1.921l2.129-11.557h2.465l2.128,11.557h-1.92l-0.352-2.561h-2.177
			L162.719,168.349z M163.359,164.059h1.601l-0.785-4.962h-0.032L163.359,164.059z"/>
		<path style="fill:#FFFFFF;" d="M169.982,158.521h-1.921v-1.729h5.827v1.729h-1.921v9.828h-1.985V158.521z"/>
		<path style="fill:#FFFFFF;" d="M175.485,168.349v-11.557h1.985v11.557H175.485z"/>
		<path style="fill:#FFFFFF;" d="M179.822,159.593c0-1.633,0.96-2.961,3.041-2.961c2.081,0,3.042,1.329,3.042,2.961v5.954
			c0,1.633-0.96,2.961-3.042,2.961c-2.081,0-3.041-1.329-3.041-2.961V159.593z M181.807,165.5c0,0.864,0.256,1.28,1.056,1.28
			s1.057-0.416,1.057-1.28v-5.858c0-0.864-0.256-1.281-1.057-1.281s-1.056,0.417-1.056,1.281V165.5z"/>
		<path style="fill:#FFFFFF;" d="M187.982,168.349v-11.557h1.841l2.417,6.611h0.032v-6.611h1.793v11.557h-1.729l-2.529-7.219h-0.032
			v7.219H187.982z"/>
		<path style="fill:#FFFFFF;" d="M198.206,158.681l-1.104,1.985h-0.849l0.785-1.985h-0.721v-1.889h1.889V158.681z M201.167,158.681
			l-1.104,1.985h-0.848l0.784-1.985h-0.72v-1.889h1.889V158.681z"/>
		<path style="fill:#FFF8DA;" d="M107.52,190.349v-8.659h1.487v7.364h2.339v1.295H107.52z"/>
		<path style="fill:#FFF8DA;" d="M112.321,183.788c0-1.223,0.719-2.219,2.279-2.219c1.559,0,2.278,0.996,2.278,2.219v4.462
			c0,1.223-0.719,2.219-2.278,2.219c-1.56,0-2.279-0.996-2.279-2.219V183.788z M113.808,188.214c0,0.647,0.192,0.959,0.792,0.959
			s0.792-0.312,0.792-0.959v-4.39c0-0.647-0.192-0.959-0.792-0.959s-0.792,0.312-0.792,0.959V188.214z"/>
		<path style="fill:#FFF8DA;" d="M121.091,183.824c-0.06-0.744-0.456-0.959-0.792-0.959c-0.48,0-0.744,0.312-0.744,0.852
			c0,1.475,3.022,2.183,3.022,4.534c0,1.427-0.959,2.219-2.351,2.219c-1.379,0-2.17-1.104-2.23-2.399l1.415-0.204
			c0.06,0.875,0.408,1.307,0.888,1.307c0.516,0,0.863-0.276,0.863-0.792c0-1.715-3.022-2.171-3.022-4.653
			c0-1.379,0.84-2.159,2.303-2.159c1.211,0,1.931,0.875,2.063,2.099L121.091,183.824z"/>
		<path style="fill:#FFF8DA;" d="M127.355,190.349h-1.439l1.595-8.659h1.847l1.595,8.659h-1.439l-0.264-1.919h-1.631
			L127.355,190.349z M127.835,187.134h1.199l-0.588-3.718h-0.024L127.835,187.134z"/>
		<path style="fill:#FFF8DA;" d="M131.879,190.349v-8.659h1.379l1.811,4.953h0.024v-4.953h1.343v8.659h-1.295l-1.895-5.409h-0.024
			v5.409H131.879z"/>
		<path style="fill:#FFF8DA;" d="M139.99,185.959h2.435v4.39h-0.72l-0.276-0.647c-0.443,0.527-0.803,0.768-1.499,0.768
			c-1.175,0-1.991-0.84-1.991-2.219v-4.462c0-1.223,0.72-2.219,2.183-2.219c1.487,0,2.231,1.08,2.231,2.375v0.552h-1.416
			c0-1.295-0.264-1.631-0.852-1.631c-0.359,0-0.659,0.216-0.659,0.947v4.45c0,0.552,0.18,0.912,0.695,0.912
			c0.6,0,0.815-0.336,0.815-1.199v-0.84h-0.947V185.959z"/>
		<path style="fill:#FFF8DA;" d="M143.999,190.349v-8.659h3.982v1.295h-2.495v2.23h1.919v1.295h-1.919v2.542h2.663v1.295H143.999z"
			/>
		<path style="fill:#FFF8DA;" d="M149.315,190.349v-8.659h1.487v7.364h2.339v1.295H149.315z"/>
		<path style="fill:#FFF8DA;" d="M154.115,190.349v-8.659h3.981v1.295h-2.494v2.23h1.919v1.295h-1.919v2.542h2.662v1.295H154.115z"
			/>
		<path style="fill:#FFF8DA;" d="M162.213,183.824c-0.06-0.744-0.456-0.959-0.792-0.959c-0.48,0-0.744,0.312-0.744,0.852
			c0,1.475,3.022,2.183,3.022,4.534c0,1.427-0.959,2.219-2.351,2.219c-1.379,0-2.17-1.104-2.23-2.399l1.415-0.204
			c0.06,0.875,0.408,1.307,0.888,1.307c0.516,0,0.863-0.276,0.863-0.792c0-1.715-3.022-2.171-3.022-4.653
			c0-1.379,0.84-2.159,2.303-2.159c1.211,0,1.931,0.875,2.063,2.099L162.213,183.824z"/>
		<path style="fill:#FFF8DA;" d="M168.478,182.985h-1.439v-1.295h4.365v1.295h-1.439v7.364h-1.487V182.985z"/>
		<path style="fill:#FFF8DA;" d="M172.546,190.349v-8.659h1.487v8.659H172.546z"/>
		<path style="fill:#FFF8DA;" d="M181.699,181.689v8.659h-1.295v-6.764h-0.024l-1.343,6.764h-0.719l-1.343-6.764h-0.024v6.764
			h-1.295v-8.659h1.955l1.055,5.061h0.024l1.056-5.061H181.699z"/>
		<path style="fill:#FFF8DA;" d="M183.13,190.349v-8.659h3.982v1.295h-2.495v2.23h1.919v1.295h-1.919v2.542h2.663v1.295H183.13z"/>
		<path style="fill:#FFF8DA;" d="M191.228,183.824c-0.06-0.744-0.456-0.959-0.792-0.959c-0.48,0-0.744,0.312-0.744,0.852
			c0,1.475,3.022,2.183,3.022,4.534c0,1.427-0.959,2.219-2.351,2.219c-1.379,0-2.17-1.104-2.23-2.399l1.415-0.204
			c0.06,0.875,0.408,1.307,0.888,1.307c0.516,0,0.863-0.276,0.863-0.792c0-1.715-3.022-2.171-3.022-4.653
			c0-1.379,0.839-2.159,2.303-2.159c1.211,0,1.931,0.875,2.062,2.099L191.228,183.824z"/>
	</g>
</g>
<g id="nyt_x5F_exporter_x5F_info" style="display:none;">
</g>
</svg>
