<?xml version="1.0" encoding="iso-8859-1"?>
<!-- Generator: Adobe Illustrator 17.1.0, SVG Export Plug-In . SVG Version: 6.00 Build 0)  -->
<!DOCTYPE svg PUBLIC "-//W3C//DTD SVG 1.1//EN" "http://www.w3.org/Graphics/SVG/1.1/DTD/svg11.dtd">
<svg version="1.1" xmlns="http://www.w3.org/2000/svg" xmlns:xlink="http://www.w3.org/1999/xlink" x="0px" y="0px"
	 viewBox="0 0 300 81.506" style="enable-background:new 0 0 300 81.506;" xml:space="preserve">
<g id="Layer_1">
	<g>
		<path style="fill:#FFFFFF;" d="M4.227,0.16h1.505v4.386H4.227V0.16z M6.772,0.16h1.505v4.386H6.772V0.16z"/>
		<path style="fill:#FFFFFF;" d="M11.188,1.889H9.267V0.16h5.827v1.729h-1.921v9.828h-1.985V1.889z"/>
		<path style="fill:#FFFFFF;" d="M16.419,11.717V0.16h1.984v4.706h2.113V0.16h1.984v11.557h-1.984V6.595h-2.113v5.122H16.419z"/>
		<path style="fill:#FFFFFF;" d="M24.579,11.717V0.16h5.313v1.729h-3.329v2.978h2.562v1.729h-2.562v3.394h3.554v1.729H24.579z"/>
		<path style="fill:#FFFFFF;" d="M37.539,11.717h-1.985V0.16h2.785c2.225,0,3.361,0.944,3.361,3.409c0,1.857-0.72,2.609-1.393,2.914
			l1.681,5.234h-2.017l-1.408-4.786c-0.257,0.032-0.673,0.048-1.024,0.048V11.717z M37.539,5.346h0.704
			c1.072,0,1.473-0.4,1.473-1.777c0-1.376-0.4-1.776-1.473-1.776h-0.704V5.346z"/>
		<path style="fill:#FFFFFF;" d="M43.714,2.961C43.714,1.329,44.675,0,46.755,0c2.081,0,3.042,1.329,3.042,2.961v5.954
			c0,1.633-0.961,2.961-3.042,2.961c-2.08,0-3.041-1.329-3.041-2.961V2.961z M45.699,8.868c0,0.864,0.256,1.28,1.056,1.28
			c0.801,0,1.057-0.416,1.057-1.28V3.009c0-0.864-0.256-1.281-1.057-1.281c-0.8,0-1.056,0.417-1.056,1.281V8.868z"/>
		<path style="fill:#FFFFFF;" d="M55.924,0.16h1.953L55.46,11.717h-1.985L51.058,0.16h1.953l1.44,8.019h0.032L55.924,0.16z"/>
		<path style="fill:#FFFFFF;" d="M59.138,11.717V0.16h5.313v1.729h-3.329v2.978h2.562v1.729h-2.562v3.394h3.554v1.729H59.138z"/>
		<path style="fill:#FFFFFF;" d="M68.386,11.717h-1.984V0.16h2.785c2.225,0,3.361,0.944,3.361,3.409
			c0,1.857-0.721,2.609-1.393,2.914l1.681,5.234H70.82L69.41,6.931c-0.256,0.032-0.672,0.048-1.024,0.048V11.717z M68.386,5.346
			h0.704c1.072,0,1.473-0.4,1.473-1.777c0-1.376-0.4-1.776-1.473-1.776h-0.704V5.346z"/>
		<path style="fill:#FFFFFF;" d="M79.425,11.717h-1.921L79.633,0.16h2.466l2.129,11.557h-1.921l-0.353-2.561h-2.177L79.425,11.717z
			 M80.066,7.427h1.601l-0.784-4.962H80.85L80.066,7.427z"/>
		<path style="fill:#FFFFFF;" d="M85.536,11.717V0.16h1.841l2.417,6.611h0.032V0.16h1.793v11.557H89.89l-2.528-7.219h-0.032v7.219
			H85.536z"/>
		<path style="fill:#FFFFFF;" d="M93.697,11.717V0.16h1.841l2.417,6.611h0.032V0.16h1.793v11.557H98.05l-2.528-7.219H95.49v7.219
			H93.697z"/>
		<path style="fill:#FFFFFF;" d="M101.857,2.961c0-1.633,0.961-2.961,3.041-2.961c2.081,0,3.042,1.329,3.042,2.961v5.954
			c0,1.633-0.961,2.961-3.042,2.961c-2.08,0-3.041-1.329-3.041-2.961V2.961z M103.842,8.868c0,0.864,0.256,1.28,1.056,1.28
			c0.801,0,1.057-0.416,1.057-1.28V3.009c0-0.864-0.256-1.281-1.057-1.281c-0.8,0-1.056,0.417-1.056,1.281V8.868z"/>
		<path style="fill:#FFFFFF;" d="M110.017,0.16h1.984v8.724c0,0.848,0.336,1.264,1.057,1.264c0.72,0,1.057-0.416,1.057-1.264V0.16
			h1.984v8.644c0,1.985-1.152,3.073-3.041,3.073s-3.041-1.088-3.041-3.073V0.16z"/>
		<path style="fill:#FFFFFF;" d="M118.177,11.717V0.16h1.841l2.417,6.611h0.031V0.16h1.793v11.557h-1.729l-2.529-7.219h-0.032v7.219
			H118.177z"/>
		<path style="fill:#FFFFFF;" d="M130.338,4.018V3.121c0-0.976-0.448-1.393-0.96-1.393c-0.801,0-1.057,0.417-1.057,1.281v5.858
			c0,0.864,0.256,1.28,1.057,1.28c0.72,0,0.96-0.416,0.96-1.168V7.587h1.985v1.329c0,1.633-0.961,2.961-2.945,2.961
			c-2.081,0-3.041-1.329-3.041-2.961V2.961c0-1.633,0.96-2.961,3.041-2.961c1.984,0,2.945,1.44,2.945,3.169v0.848H130.338z"/>
		<path style="fill:#FFFFFF;" d="M134.496,11.717V0.16h5.314v1.729h-3.329v2.978h2.561v1.729h-2.561v3.394h3.553v1.729H134.496z"/>
		<path style="fill:#FFFFFF;" d="M145.377,3.009c-0.079-0.992-0.607-1.281-1.056-1.281c-0.641,0-0.993,0.417-0.993,1.137
			c0,1.969,4.034,2.913,4.034,6.05c0,1.905-1.28,2.961-3.138,2.961c-1.841,0-2.896-1.473-2.977-3.201l1.889-0.272
			c0.08,1.168,0.544,1.745,1.185,1.745c0.688,0,1.152-0.368,1.152-1.056c0-2.289-4.034-2.897-4.034-6.21
			c0-1.841,1.121-2.881,3.073-2.881c1.617,0,2.577,1.168,2.754,2.801L145.377,3.009z"/>
		<path style="fill:#FFFFFF;" d="M152.736,11.717V0.16h2.849c2.449,0,3.586,0.944,3.586,3.409c0,2.465-1.137,3.41-3.586,3.41h-0.864
			v4.738H152.736z M154.72,5.346h0.769c1.297,0,1.696-0.4,1.696-1.777c0-1.376-0.399-1.776-1.696-1.776h-0.769V5.346z"/>
		<path style="fill:#FFFFFF;" d="M162.048,11.717h-1.921l2.129-11.557h2.465l2.129,11.557h-1.921l-0.352-2.561H162.4L162.048,11.717
			z M162.688,7.427h1.602l-0.785-4.962h-0.031L162.688,7.427z"/>
		<path style="fill:#FFFFFF;" d="M169.312,1.889h-1.921V0.16h5.826v1.729h-1.921v9.828h-1.984V1.889z"/>
		<path style="fill:#FFFFFF;" d="M175.695,1.889h-1.921V0.16h5.827v1.729h-1.921v9.828h-1.985V1.889z"/>
		<path style="fill:#FFFFFF;" d="M181.199,11.717V0.16h1.984v11.557H181.199z"/>
		<path style="fill:#FFFFFF;" d="M185.534,11.717V0.16h1.841l2.417,6.611h0.032V0.16h1.793v11.557h-1.729l-2.528-7.219h-0.032v7.219
			H185.534z"/>
		<path style="fill:#FFFFFF;" d="M197.312,3.009c-0.08-0.992-0.608-1.281-1.057-1.281c-0.64,0-0.992,0.417-0.992,1.137
			c0,1.969,4.033,2.913,4.033,6.05c0,1.905-1.28,2.961-3.137,2.961c-1.841,0-2.897-1.473-2.978-3.201l1.889-0.272
			c0.08,1.168,0.545,1.745,1.185,1.745c0.688,0,1.152-0.368,1.152-1.056c0-2.289-4.033-2.897-4.033-6.21
			c0-1.841,1.12-2.881,3.073-2.881c1.616,0,2.577,1.168,2.753,2.801L197.312,3.009z"/>
		<path style="fill:#FFFFFF;" d="M200.958,2.961c0-1.633,0.96-2.961,3.041-2.961s3.041,1.329,3.041,2.961v5.954
			c0,1.633-0.96,2.961-3.041,2.961s-3.041-1.329-3.041-2.961V2.961z M202.943,8.868c0,0.864,0.256,1.28,1.057,1.28
			c0.8,0,1.057-0.416,1.057-1.28V3.009c0-0.864-0.257-1.281-1.057-1.281c-0.801,0-1.057,0.417-1.057,1.281V8.868z"/>
		<path style="fill:#FFFFFF;" d="M209.118,11.717V0.16h1.841l2.417,6.611h0.031V0.16h1.793v11.557h-1.729l-2.529-7.219h-0.032v7.219
			H209.118z"/>
		<path style="fill:#FFFFFF;" d="M222.142,11.717h-1.921L222.35,0.16h2.466l2.129,11.557h-1.921l-0.353-2.561h-2.177L222.142,11.717
			z M222.782,7.427h1.601l-0.784-4.962h-0.032L222.782,7.427z"/>
		<path style="fill:#FFFFFF;" d="M231.87,3.009c-0.079-0.992-0.607-1.281-1.056-1.281c-0.641,0-0.993,0.417-0.993,1.137
			c0,1.969,4.034,2.913,4.034,6.05c0,1.905-1.28,2.961-3.138,2.961c-1.841,0-2.896-1.473-2.977-3.201l1.889-0.272
			c0.08,1.168,0.544,1.745,1.185,1.745c0.688,0,1.152-0.368,1.152-1.056c0-2.289-4.034-2.897-4.034-6.21
			c0-1.841,1.121-2.881,3.073-2.881c1.617,0,2.577,1.168,2.754,2.801L231.87,3.009z"/>
		<path style="fill:#FFFFFF;" d="M240.381,11.717h-1.921l2.129-11.557h2.465l2.129,11.557h-1.921l-0.352-2.561h-2.178
			L240.381,11.717z M241.021,7.427h1.602l-0.785-4.962h-0.031L241.021,7.427z"/>
		<path style="fill:#FFFFFF;" d="M251.356,1.889h-1.921V0.16h5.827v1.729h-1.921v9.828h-1.985V1.889z"/>
		<path style="fill:#FFFFFF;" d="M257.74,11.717h-1.921l2.129-11.557h2.466l2.129,11.557h-1.921l-0.353-2.561h-2.177L257.74,11.717z
			 M258.38,7.427h1.601l-0.784-4.962h-0.032L258.38,7.427z"/>
		<path style="fill:#FFFFFF;" d="M263.755,11.717V0.16h1.984v9.828h3.121v1.729H263.755z"/>
		<path style="fill:#FFFFFF;" d="M270.235,11.717V0.16h5.314v1.729h-3.329v2.978h2.561v1.729h-2.561v3.394h3.553v1.729H270.235z"/>
		<path style="fill:#FFFFFF;" d="M277.498,11.717V0.16h1.841l2.417,6.611h0.031V0.16h1.793v11.557h-1.729l-2.529-7.219h-0.032v7.219
			H277.498z"/>
		<path style="fill:#FFFFFF;" d="M286.811,1.889h-1.921V0.16h5.826v1.729h-1.921v9.828h-1.984V1.889z"/>
		<path style="fill:#FFFFFF;" d="M291.785,8.147V6.675h3.922v1.473H291.785z"/>
		<path style="fill:#FFFFFF;" d="M6.403,31.717V20.16h5.314v1.729H8.388v2.978h2.561v1.729H8.388v3.394h3.553v1.729H6.403z"/>
		<path style="fill:#FFFFFF;" d="M13.666,20.16h2.945c2.049,0,3.138,1.121,3.138,3.489v4.578c0,2.369-1.089,3.489-3.138,3.489
			h-2.945V20.16z M15.652,30.084h0.687c1.057,0,1.425-0.4,1.425-1.617V23.41c0-1.217-0.368-1.617-1.425-1.617h-0.687V30.084z"/>
		<path style="fill:#FFFFFF;" d="M26.691,31.717H24.77l2.129-11.557h2.465l2.129,11.557h-1.921l-0.352-2.561h-2.178L26.691,31.717z
			 M27.33,27.427h1.602l-0.785-4.962h-0.031L27.33,27.427z"/>
		<path style="fill:#FFFFFF;" d="M36.803,24.018v-0.896c0-0.976-0.448-1.393-0.96-1.393c-0.801,0-1.057,0.417-1.057,1.281v5.858
			c0,0.864,0.256,1.28,1.057,1.28c0.72,0,0.96-0.416,0.96-1.168v-1.393h1.985v1.329c0,1.633-0.961,2.961-2.945,2.961
			c-2.081,0-3.041-1.329-3.041-2.961v-5.954c0-1.633,0.96-2.961,3.041-2.961c1.984,0,2.945,1.44,2.945,3.169v0.848H36.803z"/>
		<path style="fill:#FFFFFF;" d="M42.114,21.889h-1.921V20.16h5.827v1.729h-1.921v9.828h-1.985V21.889z"/>
		<path style="fill:#FFFFFF;" d="M47.345,22.961c0-1.633,0.961-2.961,3.041-2.961c2.081,0,3.042,1.329,3.042,2.961v5.954
			c0,1.633-0.961,2.961-3.042,2.961c-2.08,0-3.041-1.329-3.041-2.961V22.961z M49.33,28.868c0,0.864,0.256,1.28,1.056,1.28
			c0.801,0,1.057-0.416,1.057-1.28v-5.858c0-0.864-0.256-1.281-1.057-1.281c-0.8,0-1.056,0.417-1.056,1.281V28.868z"/>
		<path style="fill:#FFFFFF;" d="M57.49,31.717h-1.985V20.16h2.785c2.225,0,3.361,0.944,3.361,3.409c0,1.857-0.72,2.609-1.393,2.914
			l1.681,5.234h-2.017l-1.408-4.786c-0.257,0.032-0.673,0.048-1.024,0.048V31.717z M57.49,25.346h0.704
			c1.072,0,1.473-0.4,1.473-1.777c0-1.376-0.4-1.776-1.473-1.776H57.49V25.346z"/>
		<path style="fill:#FFFFFF;" d="M67.377,22.961c0-1.633,0.96-2.961,3.041-2.961s3.041,1.329,3.041,2.961v5.954
			c0,1.633-0.96,2.961-3.041,2.961s-3.041-1.329-3.041-2.961V22.961z M69.362,28.868c0,0.864,0.256,1.28,1.057,1.28
			c0.8,0,1.057-0.416,1.057-1.28v-5.858c0-0.864-0.257-1.281-1.057-1.281c-0.801,0-1.057,0.417-1.057,1.281V28.868z"/>
		<path style="fill:#FFFFFF;" d="M75.537,31.717V20.16h5.538v1.729h-3.554v2.978h2.657v1.729h-2.657v5.122H75.537z"/>
		<path style="fill:#FFFFFF;" d="M88.497,31.717h-1.985V20.16h2.785c2.225,0,3.361,0.944,3.361,3.409
			c0,1.857-0.72,2.609-1.393,2.914l1.681,5.234H90.93l-1.408-4.786c-0.257,0.032-0.673,0.048-1.024,0.048V31.717z M88.497,25.346
			h0.704c1.072,0,1.473-0.4,1.473-1.777c0-1.376-0.4-1.776-1.473-1.776h-0.704V25.346z"/>
		<path style="fill:#FFFFFF;" d="M95.824,31.717h-1.921l2.129-11.557h2.466l2.129,11.557h-1.921l-0.353-2.561h-2.177L95.824,31.717z
			 M96.465,27.427h1.601l-0.784-4.962h-0.032L96.465,27.427z"/>
		<path style="fill:#FFFFFF;" d="M101.936,31.717V20.16h1.841l2.417,6.611h0.032V20.16h1.793v11.557h-1.729l-2.528-7.219h-0.032
			v7.219H101.936z"/>
		<path style="fill:#FFFFFF;" d="M112.832,25.858h3.25v5.858h-0.961l-0.368-0.864c-0.592,0.704-1.072,1.024-2,1.024
			c-1.569,0-2.657-1.121-2.657-2.961v-5.954c0-1.633,0.96-2.961,2.913-2.961c1.984,0,2.977,1.44,2.977,3.169v0.736h-1.889
			c0-1.729-0.352-2.177-1.136-2.177c-0.48,0-0.881,0.289-0.881,1.265v5.938c0,0.736,0.24,1.216,0.929,1.216
			c0.8,0,1.088-0.448,1.088-1.601v-1.12h-1.265V25.858z"/>
		<path style="fill:#FFFFFF;" d="M118.256,31.717V20.16h5.313v1.729h-3.329v2.978h2.562v1.729h-2.562v3.394h3.554v1.729H118.256z"/>
		<path style="fill:#FFFFFF;" d="M127.281,31.717l-1.104,1.985h-0.849l0.784-1.985h-0.72v-1.889h1.889V31.717z"/>
		<path style="fill:#FFFFFF;" d="M136.945,24.018v-0.896c0-0.976-0.448-1.393-0.961-1.393c-0.8,0-1.056,0.417-1.056,1.281v5.858
			c0,0.864,0.256,1.28,1.056,1.28c0.721,0,0.961-0.416,0.961-1.168v-1.393h1.984v1.329c0,1.633-0.96,2.961-2.945,2.961
			c-2.08,0-3.041-1.329-3.041-2.961v-5.954c0-1.633,0.961-2.961,3.041-2.961c1.985,0,2.945,1.44,2.945,3.169v0.848H136.945z"/>
		<path style="fill:#FFFFFF;" d="M142.255,31.717h-1.921l2.129-11.557h2.466l2.129,11.557h-1.921l-0.353-2.561h-2.177
			L142.255,31.717z M142.896,27.427h1.601l-0.784-4.962h-0.032L142.896,27.427z"/>
		<path style="fill:#FFFFFF;" d="M148.366,31.717V20.16h2.849c2.449,0,3.586,0.944,3.586,3.409c0,2.465-1.137,3.41-3.586,3.41
			h-0.864v4.738H148.366z M150.351,25.346h0.769c1.297,0,1.696-0.4,1.696-1.777c0-1.376-0.399-1.776-1.696-1.776h-0.769V25.346z"/>
		<path style="fill:#FFFFFF;" d="M157.679,31.717h-1.921l2.129-11.557h2.465l2.129,11.557h-1.921l-0.352-2.561h-2.178
			L157.679,31.717z M158.319,27.427h1.602l-0.785-4.962h-0.031L158.319,27.427z"/>
		<path style="fill:#FFFFFF;" d="M163.79,20.16h2.945c2.129,0,3.073,1.088,3.073,3.057c0,0.993-0.417,2.033-1.377,2.417
			c1.009,0.448,1.601,1.249,1.601,2.737c0,1.905-0.849,3.345-3.105,3.345h-3.137V20.16z M165.775,24.898h0.721
			c0.752,0,1.328-0.512,1.328-1.473c0-1.072-0.416-1.632-1.297-1.632h-0.752V24.898z M165.775,30.084h0.832
			c1.057,0,1.441-0.608,1.441-1.776c0-1.185-0.448-1.777-1.633-1.777h-0.641V30.084z"/>
		<path style="fill:#FFFFFF;" d="M171.854,31.717V20.16h1.984v9.828h3.121v1.729H171.854z"/>
		<path style="fill:#FFFFFF;" d="M178.333,31.717V20.16h5.314v1.729h-3.329v2.978h2.561v1.729h-2.561v3.394h3.553v1.729H178.333z"/>
		<path style="fill:#FFFFFF;" d="M189.309,22.961c0-1.633,0.96-2.961,3.041-2.961s3.041,1.329,3.041,2.961v5.954
			c0,1.633-0.96,2.961-3.041,2.961s-3.041-1.329-3.041-2.961V22.961z M191.293,28.868c0,0.864,0.256,1.28,1.057,1.28
			c0.8,0,1.057-0.416,1.057-1.28v-5.858c0-0.864-0.257-1.281-1.057-1.281c-0.801,0-1.057,0.417-1.057,1.281V28.868z"/>
		<path style="fill:#FFFFFF;" d="M197.469,31.717V20.16h5.538v1.729h-3.554v2.978h2.657v1.729h-2.657v5.122H197.469z"/>
		<path style="fill:#FFFFFF;" d="M208.444,20.16h2.945c2.049,0,3.138,1.121,3.138,3.489v4.578c0,2.369-1.089,3.489-3.138,3.489
			h-2.945V20.16z M210.429,30.084h0.688c1.057,0,1.425-0.4,1.425-1.617V23.41c0-1.217-0.368-1.617-1.425-1.617h-0.688V30.084z"/>
		<path style="fill:#FFFFFF;" d="M216.876,31.717V20.16h1.984v11.557H216.876z"/>
		<path style="fill:#FFFFFF;" d="M224.829,23.009c-0.079-0.992-0.607-1.281-1.056-1.281c-0.641,0-0.993,0.417-0.993,1.137
			c0,1.969,4.034,2.913,4.034,6.05c0,1.905-1.28,2.961-3.138,2.961c-1.841,0-2.896-1.473-2.977-3.201l1.889-0.272
			c0.08,1.168,0.544,1.745,1.185,1.745c0.688,0,1.152-0.368,1.152-1.056c0-2.289-4.034-2.897-4.034-6.21
			c0-1.841,1.121-2.881,3.073-2.881c1.617,0,2.577,1.168,2.754,2.801L224.829,23.009z"/>
		<path style="fill:#FFFFFF;" d="M229.628,31.717h-1.921l2.129-11.557h2.465l2.129,11.557h-1.921l-0.352-2.561h-2.178
			L229.628,31.717z M230.268,27.427h1.602l-0.785-4.962h-0.031L230.268,27.427z"/>
		<path style="fill:#FFFFFF;" d="M235.74,31.717V20.16h2.849c2.449,0,3.586,0.944,3.586,3.409c0,2.465-1.137,3.41-3.586,3.41h-0.864
			v4.738H235.74z M237.724,25.346h0.769c1.297,0,1.696-0.4,1.696-1.777c0-1.376-0.399-1.776-1.696-1.776h-0.769V25.346z"/>
		<path style="fill:#FFFFFF;" d="M243.9,31.717V20.16h2.849c2.449,0,3.586,0.944,3.586,3.409c0,2.465-1.137,3.41-3.586,3.41h-0.864
			v4.738H243.9z M245.884,25.346h0.769c1.297,0,1.696-0.4,1.696-1.777c0-1.376-0.399-1.776-1.696-1.776h-0.769V25.346z"/>
		<path style="fill:#FFFFFF;" d="M252.059,31.717V20.16h5.314v1.729h-3.329v2.978h2.561v1.729h-2.561v3.394h3.553v1.729H252.059z"/>
		<path style="fill:#FFFFFF;" d="M260.475,31.717h-1.921l2.129-11.557h2.466l2.129,11.557h-1.921l-0.353-2.561h-2.177
			L260.475,31.717z M261.116,27.427h1.601l-0.784-4.962H261.9L261.116,27.427z"/>
		<path style="fill:#FFFFFF;" d="M268.572,31.717h-1.985V20.16h2.785c2.225,0,3.361,0.944,3.361,3.409
			c0,1.857-0.72,2.609-1.393,2.914l1.681,5.234h-2.017l-1.408-4.786c-0.257,0.032-0.673,0.048-1.024,0.048V31.717z M268.572,25.346
			h0.704c1.072,0,1.473-0.4,1.473-1.777c0-1.376-0.4-1.776-1.473-1.776h-0.704V25.346z"/>
		<path style="fill:#FFFFFF;" d="M275.019,31.717V20.16h1.984v11.557H275.019z"/>
		<path style="fill:#FFFFFF;" d="M279.355,31.717V20.16h1.841l2.417,6.611h0.031V20.16h1.793v11.557h-1.729l-2.529-7.219h-0.032
			v7.219H279.355z"/>
		<path style="fill:#FFFFFF;" d="M290.251,25.858h3.25v5.858h-0.961l-0.368-0.864c-0.592,0.704-1.072,1.024-2,1.024
			c-1.569,0-2.657-1.121-2.657-2.961v-5.954c0-1.633,0.96-2.961,2.913-2.961c1.984,0,2.977,1.44,2.977,3.169v0.736h-1.889
			c0-1.729-0.352-2.177-1.136-2.177c-0.48,0-0.881,0.289-0.881,1.265v5.938c0,0.736,0.24,1.216,0.929,1.216
			c0.8,0,1.088-0.448,1.088-1.601v-1.12h-1.265V25.858z"/>
		<path style="fill:#FFFFFF;" d="M69.409,51.717V40.16h1.985v11.557H69.409z"/>
		<path style="fill:#FFFFFF;" d="M73.745,51.717V40.16h1.841l2.417,6.611h0.032V40.16h1.793v11.557h-1.729l-2.528-7.219h-0.032
			v7.219H73.745z"/>
		<path style="fill:#FFFFFF;" d="M83.058,41.889h-1.921V40.16h5.826v1.729h-1.921v9.828h-1.984V41.889z"/>
		<path style="fill:#FFFFFF;" d="M88.289,42.961c0-1.633,0.96-2.961,3.041-2.961s3.041,1.329,3.041,2.961v5.954
			c0,1.633-0.96,2.961-3.041,2.961s-3.041-1.329-3.041-2.961V42.961z M90.274,48.868c0,0.864,0.256,1.28,1.057,1.28
			c0.8,0,1.057-0.416,1.057-1.28v-5.858c0-0.864-0.257-1.281-1.057-1.281c-0.801,0-1.057,0.417-1.057,1.281V48.868z"/>
		<path style="fill:#FFFFFF;" d="M101.313,51.717h-1.921l2.129-11.557h2.466l2.129,11.557h-1.921l-0.353-2.561h-2.177
			L101.313,51.717z M101.953,47.427h1.601l-0.784-4.962h-0.032L101.953,47.427z"/>
		<path style="fill:#FFFFFF;" d="M115.138,44.018v-0.896c0-0.976-0.448-1.393-0.961-1.393c-0.8,0-1.056,0.417-1.056,1.281v5.858
			c0,0.864,0.256,1.28,1.056,1.28c0.721,0,0.961-0.416,0.961-1.168v-1.393h1.984v1.329c0,1.633-0.96,2.961-2.945,2.961
			c-2.08,0-3.041-1.329-3.041-2.961v-5.954c0-1.633,0.961-2.961,3.041-2.961c1.985,0,2.945,1.44,2.945,3.169v0.848H115.138z"/>
		<path style="fill:#FFFFFF;" d="M119.296,42.961c0-1.633,0.96-2.961,3.041-2.961s3.041,1.329,3.041,2.961v5.954
			c0,1.633-0.96,2.961-3.041,2.961s-3.041-1.329-3.041-2.961V42.961z M121.281,48.868c0,0.864,0.256,1.28,1.057,1.28
			c0.8,0,1.057-0.416,1.057-1.28v-5.858c0-0.864-0.257-1.281-1.057-1.281c-0.801,0-1.057,0.417-1.057,1.281V48.868z"/>
		<path style="fill:#FFFFFF;" d="M135.411,40.16v11.557h-1.729v-9.028h-0.032l-1.793,9.028h-0.96l-1.793-9.028h-0.032v9.028h-1.729
			V40.16h2.609l1.408,6.755h0.032l1.408-6.755H135.411z"/>
		<path style="fill:#FFFFFF;" d="M137.392,51.717V40.16h2.85c2.448,0,3.585,0.944,3.585,3.409c0,2.465-1.137,3.41-3.585,3.41h-0.864
			v4.738H137.392z M139.377,45.346h0.768c1.297,0,1.697-0.4,1.697-1.777c0-1.376-0.4-1.776-1.697-1.776h-0.768V45.346z"/>
		<path style="fill:#FFFFFF;" d="M145.455,51.717V40.16h1.985v9.828h3.121v1.729H145.455z"/>
		<path style="fill:#FFFFFF;" d="M152.208,51.717V40.16h1.984v11.557H152.208z"/>
		<path style="fill:#FFFFFF;" d="M160.546,44.018v-0.896c0-0.976-0.448-1.393-0.961-1.393c-0.8,0-1.056,0.417-1.056,1.281v5.858
			c0,0.864,0.256,1.28,1.056,1.28c0.721,0,0.961-0.416,0.961-1.168v-1.393h1.984v1.329c0,1.633-0.96,2.961-2.945,2.961
			c-2.08,0-3.041-1.329-3.041-2.961v-5.954c0-1.633,0.961-2.961,3.041-2.961c1.985,0,2.945,1.44,2.945,3.169v0.848H160.546z"/>
		<path style="fill:#FFFFFF;" d="M165.857,51.717h-1.921l2.129-11.557h2.466l2.129,11.557h-1.921l-0.353-2.561h-2.177
			L165.857,51.717z M166.497,47.427h1.601l-0.784-4.962h-0.032L166.497,47.427z"/>
		<path style="fill:#FFFFFF;" d="M173.12,41.889h-1.921V40.16h5.826v1.729h-1.921v9.828h-1.984V41.889z"/>
		<path style="fill:#FFFFFF;" d="M178.352,51.717V40.16h5.313v1.729h-3.329v2.978h2.562v1.729h-2.562v3.394h3.554v1.729H178.352z"/>
		<path style="fill:#FFFFFF;" d="M185.615,40.16h2.945c2.049,0,3.137,1.121,3.137,3.489v4.578c0,2.369-1.088,3.489-3.137,3.489
			h-2.945V40.16z M187.6,50.084h0.688c1.057,0,1.425-0.4,1.425-1.617V43.41c0-1.217-0.368-1.617-1.425-1.617H187.6V50.084z"/>
		<path style="fill:#FFFFFF;" d="M199.472,51.717h-1.985V40.16h2.785c2.225,0,3.361,0.944,3.361,3.409
			c0,1.857-0.72,2.609-1.393,2.914l1.681,5.234h-2.017l-1.408-4.786c-0.257,0.032-0.673,0.048-1.024,0.048V51.717z M199.472,45.346
			h0.704c1.072,0,1.473-0.4,1.473-1.777c0-1.376-0.4-1.776-1.473-1.776h-0.704V45.346z"/>
		<path style="fill:#FFFFFF;" d="M205.647,42.961c0-1.633,0.961-2.961,3.041-2.961c2.081,0,3.042,1.329,3.042,2.961v5.954
			c0,1.633-0.961,2.961-3.042,2.961c-2.08,0-3.041-1.329-3.041-2.961V42.961z M207.632,48.868c0,0.864,0.256,1.28,1.056,1.28
			c0.801,0,1.057-0.416,1.057-1.28v-5.858c0-0.864-0.256-1.281-1.057-1.281c-0.8,0-1.056,0.417-1.056,1.281V48.868z"/>
		<path style="fill:#FFFFFF;" d="M213.71,51.717V40.16h1.985v9.828h3.121v1.729H213.71z"/>
		<path style="fill:#FFFFFF;" d="M220.191,51.717V40.16h5.313v1.729h-3.329v2.978h2.562v1.729h-2.562v3.394h3.554v1.729H220.191z"/>
		<path style="fill:#FFFFFF;" d="M227.134,40.16h1.505v4.386h-1.505V40.16z M229.679,40.16h1.505v4.386h-1.505V40.16z"/>
		<path style="fill:#FFF8DA;" d="M109.488,73.717h-1.438l1.595-8.659h1.847l1.596,8.659h-1.439l-0.264-1.919h-1.631L109.488,73.717z
			 M109.968,70.502h1.199l-0.588-3.718h-0.024L109.968,70.502z"/>
		<path style="fill:#FFF8DA;" d="M116.723,67.192c-0.061-0.744-0.456-0.959-0.792-0.959c-0.479,0-0.743,0.312-0.743,0.852
			c0,1.475,3.022,2.183,3.022,4.534c0,1.427-0.96,2.219-2.352,2.219c-1.379,0-2.17-1.104-2.23-2.399l1.415-0.204
			c0.061,0.875,0.408,1.307,0.888,1.307c0.516,0,0.863-0.276,0.863-0.792c0-1.715-3.021-2.171-3.021-4.653
			c0-1.379,0.839-2.159,2.303-2.159c1.211,0,1.931,0.875,2.062,2.099L116.723,67.192z"/>
		<path style="fill:#FFF8DA;" d="M122.111,67.192c-0.061-0.744-0.456-0.959-0.792-0.959c-0.479,0-0.743,0.312-0.743,0.852
			c0,1.475,3.022,2.183,3.022,4.534c0,1.427-0.96,2.219-2.352,2.219c-1.379,0-2.17-1.104-2.23-2.399l1.415-0.204
			c0.061,0.875,0.408,1.307,0.888,1.307c0.516,0,0.863-0.276,0.863-0.792c0-1.715-3.021-2.171-3.021-4.653
			c0-1.379,0.839-2.159,2.303-2.159c1.211,0,1.931,0.875,2.062,2.099L122.111,67.192z"/>
		<path style="fill:#FFF8DA;" d="M124.787,67.156c0-1.223,0.72-2.219,2.279-2.219c1.559,0,2.278,0.996,2.278,2.219v4.462
			c0,1.223-0.72,2.219-2.278,2.219c-1.56,0-2.279-0.996-2.279-2.219V67.156z M126.275,71.582c0,0.647,0.192,0.959,0.792,0.959
			s0.791-0.312,0.791-0.959v-4.39c0-0.647-0.191-0.959-0.791-0.959s-0.792,0.312-0.792,0.959V71.582z"/>
		<path style="fill:#FFF8DA;" d="M133.846,67.948v-0.671c0-0.731-0.336-1.043-0.72-1.043c-0.6,0-0.791,0.312-0.791,0.959v4.39
			c0,0.647,0.191,0.959,0.791,0.959c0.54,0,0.72-0.312,0.72-0.875v-1.043h1.487v0.996c0,1.223-0.72,2.219-2.207,2.219
			c-1.559,0-2.278-0.996-2.278-2.219v-4.462c0-1.223,0.72-2.219,2.278-2.219c1.487,0,2.207,1.08,2.207,2.375v0.635H133.846z"/>
		<path style="fill:#FFF8DA;" d="M137.111,73.717v-8.659h1.487v8.659H137.111z"/>
		<path style="fill:#FFF8DA;" d="M141.166,73.717h-1.438l1.595-8.659h1.847l1.596,8.659h-1.439l-0.264-1.919h-1.631L141.166,73.717z
			 M141.647,70.502h1.199l-0.588-3.718h-0.024L141.647,70.502z"/>
		<path style="fill:#FFF8DA;" d="M146.554,66.353h-1.438v-1.295h4.365v1.295h-1.439v7.364h-1.487V66.353z"/>
		<path style="fill:#FFF8DA;" d="M150.419,73.717v-8.659h3.981v1.295h-2.494v2.23h1.919v1.295h-1.919v2.542h2.662v1.295H150.419z"/>
		<path style="fill:#FFF8DA;" d="M155.807,65.058h2.206c1.535,0,2.352,0.839,2.352,2.614v3.43c0,1.775-0.816,2.615-2.352,2.615
			h-2.206V65.058z M157.294,72.494h0.516c0.791,0,1.067-0.3,1.067-1.211v-3.79c0-0.912-0.276-1.211-1.067-1.211h-0.516V72.494z"/>
		<path style="fill:#FFF8DA;" d="M164.591,73.717v-8.659h2.135c1.835,0,2.687,0.708,2.687,2.555c0,1.847-0.852,2.555-2.687,2.555
			h-0.647v3.55H164.591z M166.078,68.943h0.575c0.972,0,1.271-0.3,1.271-1.331c0-1.032-0.3-1.332-1.271-1.332h-0.575V68.943z"/>
		<path style="fill:#FFF8DA;" d="M172.138,73.717h-1.487v-8.659h2.087c1.667,0,2.519,0.708,2.519,2.555
			c0,1.391-0.54,1.955-1.043,2.183l1.259,3.922h-1.511l-1.056-3.586c-0.191,0.024-0.504,0.036-0.768,0.036V73.717z M172.138,68.943
			h0.527c0.804,0,1.104-0.3,1.104-1.331c0-1.032-0.3-1.332-1.104-1.332h-0.527V68.943z"/>
		<path style="fill:#FFF8DA;" d="M176.71,73.717v-8.659h3.982v1.295h-2.495v2.23h1.919v1.295h-1.919v2.542h2.662v1.295H176.71z"/>
		<path style="fill:#FFF8DA;" d="M184.809,67.192c-0.061-0.744-0.456-0.959-0.792-0.959c-0.479,0-0.743,0.312-0.743,0.852
			c0,1.475,3.022,2.183,3.022,4.534c0,1.427-0.96,2.219-2.352,2.219c-1.379,0-2.17-1.104-2.23-2.399l1.415-0.204
			c0.061,0.875,0.408,1.307,0.888,1.307c0.516,0,0.863-0.276,0.863-0.792c0-1.715-3.021-2.171-3.021-4.653
			c0-1.379,0.839-2.159,2.303-2.159c1.211,0,1.931,0.875,2.062,2.099L184.809,67.192z"/>
		<path style="fill:#FFF8DA;" d="M190.197,67.192c-0.061-0.744-0.456-0.959-0.792-0.959c-0.479,0-0.743,0.312-0.743,0.852
			c0,1.475,3.022,2.183,3.022,4.534c0,1.427-0.96,2.219-2.352,2.219c-1.379,0-2.17-1.104-2.23-2.399l1.415-0.204
			c0.061,0.875,0.408,1.307,0.888,1.307c0.516,0,0.863-0.276,0.863-0.792c0-1.715-3.021-2.171-3.021-4.653
			c0-1.379,0.839-2.159,2.303-2.159c1.211,0,1.931,0.875,2.062,2.099L190.197,67.192z"/>
	</g>
</g>
<g id="nyt_x5F_exporter_x5F_info" style="display:none;">
</g>
</svg>
