<?xml version="1.0" encoding="iso-8859-1"?>
<!-- Generator: Adobe Illustrator 17.1.0, SVG Export Plug-In . SVG Version: 6.00 Build 0)  -->
<!DOCTYPE svg PUBLIC "-//W3C//DTD SVG 1.1//EN" "http://www.w3.org/Graphics/SVG/1.1/DTD/svg11.dtd">
<svg version="1.1" xmlns="http://www.w3.org/2000/svg" xmlns:xlink="http://www.w3.org/1999/xlink" x="0px" y="0px"
	 viewBox="0 0 300 187.812" style="enable-background:new 0 0 300 187.812;" xml:space="preserve">
<g id="Layer_1">
	<g>
		<path style="fill:#FFFFFF;" d="M69.497,7.985L70.602,6h0.848l-0.784,1.985h0.721v1.889h-1.889V7.985z M72.458,7.985L73.562,6
			h0.849l-0.785,1.985h0.721v1.889h-1.889V7.985z"/>
		<path style="fill:#FFFFFF;" d="M77.753,17.717h-1.921L77.961,6.16h2.465l2.129,11.557h-1.921l-0.352-2.561h-2.178L77.753,17.717z
			 M78.393,13.427h1.601l-0.784-4.962h-0.031L78.393,13.427z"/>
		<path style="fill:#FFFFFF;" d="M87.575,6.16h2.945c2.049,0,3.138,1.121,3.138,3.489v4.578c0,2.369-1.089,3.489-3.138,3.489h-2.945
			V6.16z M89.561,16.084h0.688c1.057,0,1.425-0.4,1.425-1.617V9.41c0-1.217-0.368-1.617-1.425-1.617h-0.688V16.084z"/>
		<path style="fill:#FFFFFF;" d="M96.008,17.717V6.16h1.984v11.557H96.008z"/>
		<path style="fill:#FFFFFF;" d="M103.961,9.009c-0.08-0.992-0.608-1.281-1.057-1.281c-0.64,0-0.992,0.417-0.992,1.137
			c0,1.969,4.033,2.913,4.033,6.05c0,1.905-1.28,2.961-3.137,2.961c-1.841,0-2.897-1.473-2.978-3.201l1.889-0.272
			c0.08,1.168,0.545,1.745,1.185,1.745c0.688,0,1.152-0.368,1.152-1.056c0-2.289-4.033-2.897-4.033-6.21
			c0-1.841,1.12-2.881,3.073-2.881c1.616,0,2.577,1.168,2.753,2.801L103.961,9.009z"/>
		<path style="fill:#FFFFFF;" d="M108.76,7.889h-1.921V6.16h5.826v1.729h-1.921v9.828h-1.984V7.889z"/>
		<path style="fill:#FFFFFF;" d="M114.263,17.717V6.16h1.985v11.557H114.263z"/>
		<path style="fill:#FFFFFF;" d="M118.599,17.717V6.16h1.841l2.417,6.611h0.032V6.16h1.793v11.557h-1.729l-2.528-7.219h-0.032v7.219
			H118.599z"/>
		<path style="fill:#FFFFFF;" d="M130.761,10.018V9.121c0-0.976-0.448-1.393-0.961-1.393c-0.8,0-1.056,0.417-1.056,1.281v5.858
			c0,0.864,0.256,1.28,1.056,1.28c0.721,0,0.961-0.416,0.961-1.168v-1.393h1.984v1.329c0,1.633-0.96,2.961-2.945,2.961
			c-2.08,0-3.041-1.329-3.041-2.961V8.961C126.759,7.329,127.72,6,129.8,6c1.985,0,2.945,1.44,2.945,3.169v0.848H130.761z"/>
		<path style="fill:#FFFFFF;" d="M136.071,7.889h-1.921V6.16h5.827v1.729h-1.921v9.828h-1.985V7.889z"/>
		<path style="fill:#FFFFFF;" d="M141.574,17.717V6.16h1.985v11.557H141.574z"/>
		<path style="fill:#FFFFFF;" d="M149.961,6.16h1.952l-2.417,11.557h-1.984L145.095,6.16h1.952l1.441,8.019h0.031L149.961,6.16z"/>
		<path style="fill:#FFFFFF;" d="M153.175,17.717V6.16h5.313v1.729h-3.329v2.978h2.562v1.729h-2.562v3.394h3.554v1.729H153.175z"/>
		<path style="fill:#FFFFFF;" d="M165.302,7.889h-1.921V6.16h5.827v1.729h-1.921v9.828h-1.985V7.889z"/>
		<path style="fill:#FFFFFF;" d="M170.533,8.961c0-1.633,0.961-2.961,3.041-2.961c2.081,0,3.042,1.329,3.042,2.961v5.954
			c0,1.633-0.961,2.961-3.042,2.961c-2.08,0-3.041-1.329-3.041-2.961V8.961z M172.519,14.868c0,0.864,0.256,1.28,1.056,1.28
			c0.801,0,1.057-0.416,1.057-1.28V9.009c0-0.864-0.256-1.281-1.057-1.281c-0.8,0-1.056,0.417-1.056,1.281V14.868z"/>
		<path style="fill:#FFFFFF;" d="M178.693,17.717V6.16h1.841l2.417,6.611h0.032V6.16h1.793v11.557h-1.729l-2.528-7.219h-0.032v7.219
			H178.693z"/>
		<path style="fill:#FFFFFF;" d="M186.854,17.717V6.16h5.313v1.729h-3.329v2.978h2.562v1.729h-2.562v3.394h3.554v1.729H186.854z"/>
		<path style="fill:#FFFFFF;" d="M195.878,17.717l-1.104,1.985h-0.849l0.784-1.985h-0.72v-1.889h1.889V17.717z"/>
		<path style="fill:#FFFFFF;" d="M201.54,17.717V6.16h5.314v1.729h-3.329v2.978h2.561v1.729h-2.561v3.394h3.553v1.729H201.54z"/>
		<path style="fill:#FFFFFF;" d="M208.804,6.16h2.945c2.049,0,3.138,1.121,3.138,3.489v4.578c0,2.369-1.089,3.489-3.138,3.489
			h-2.945V6.16z M210.789,16.084h0.688c1.057,0,1.425-0.4,1.425-1.617V9.41c0-1.217-0.368-1.617-1.425-1.617h-0.688V16.084z"/>
		<path style="fill:#FFFFFF;" d="M219.701,11.858h3.249v5.858h-0.96l-0.368-0.864c-0.593,0.704-1.072,1.024-2.001,1.024
			c-1.568,0-2.657-1.121-2.657-2.961V8.961c0-1.633,0.961-2.961,2.913-2.961c1.985,0,2.978,1.44,2.978,3.169v0.736h-1.889
			c0-1.729-0.353-2.177-1.137-2.177c-0.48,0-0.88,0.289-0.88,1.265v5.938c0,0.736,0.239,1.216,0.928,1.216
			c0.801,0,1.089-0.448,1.089-1.601v-1.12h-1.265V11.858z"/>
		<path style="fill:#FFFFFF;" d="M228.709,17.717h-1.984v-4.802l-2.401-6.755h2.017l1.393,4.402h0.032l1.329-4.402h2.017
			l-2.401,6.755V17.717z"/>
		<path style="fill:#FFFFFF;" d="M55.929,37.717V26.16h2.849c2.449,0,3.586,0.944,3.586,3.409c0,2.465-1.137,3.41-3.586,3.41h-0.864
			v4.738H55.929z M57.913,31.346h0.769c1.297,0,1.696-0.4,1.696-1.777c0-1.376-0.399-1.776-1.696-1.776h-0.769V31.346z"/>
		<path style="fill:#FFFFFF;" d="M64.089,37.717V26.16h5.313v1.729h-3.329v2.978h2.562v1.729h-2.562v3.394h3.554v1.729H64.089z"/>
		<path style="fill:#FFFFFF;" d="M73.337,37.717h-1.985V26.16h2.785c2.225,0,3.361,0.944,3.361,3.409
			c0,1.857-0.72,2.609-1.393,2.914l1.681,5.234H75.77l-1.408-4.786c-0.257,0.032-0.673,0.048-1.024,0.048V37.717z M73.337,31.346
			h0.704c1.072,0,1.473-0.4,1.473-1.777c0-1.376-0.4-1.776-1.473-1.776h-0.704V31.346z"/>
		<path style="fill:#FFFFFF;" d="M79.512,37.717V26.16h5.538v1.729h-3.553v2.978h2.656v1.729h-2.656v5.122H79.512z"/>
		<path style="fill:#FFFFFF;" d="M86.775,28.961c0-1.633,0.961-2.961,3.041-2.961c2.081,0,3.042,1.329,3.042,2.961v5.954
			c0,1.633-0.961,2.961-3.042,2.961c-2.08,0-3.041-1.329-3.041-2.961V28.961z M88.761,34.868c0,0.864,0.256,1.28,1.056,1.28
			c0.801,0,1.057-0.416,1.057-1.28v-5.858c0-0.864-0.256-1.281-1.057-1.281c-0.8,0-1.056,0.417-1.056,1.281V34.868z"/>
		<path style="fill:#FFFFFF;" d="M96.92,37.717h-1.984V26.16h2.785c2.225,0,3.361,0.944,3.361,3.409
			c0,1.857-0.721,2.609-1.393,2.914l1.681,5.234h-2.018l-1.408-4.786c-0.256,0.032-0.672,0.048-1.024,0.048V37.717z M96.92,31.346
			h0.704c1.072,0,1.473-0.4,1.473-1.777c0-1.376-0.4-1.776-1.473-1.776H96.92V31.346z"/>
		<path style="fill:#FFFFFF;" d="M111.051,26.16v11.557h-1.729v-9.028h-0.032l-1.793,9.028h-0.96l-1.793-9.028h-0.032v9.028h-1.729
			V26.16h2.609l1.408,6.755h0.032l1.408-6.755H111.051z"/>
		<path style="fill:#FFFFFF;" d="M114.184,37.717h-1.921l2.129-11.557h2.466l2.128,11.557h-1.92l-0.353-2.561h-2.177L114.184,37.717
			z M114.824,33.427h1.601l-0.784-4.962h-0.032L114.824,33.427z"/>
		<path style="fill:#FFFFFF;" d="M120.295,37.717V26.16h1.841l2.417,6.611h0.032V26.16h1.793v11.557h-1.729l-2.528-7.219h-0.032
			v7.219H120.295z"/>
		<path style="fill:#FFFFFF;" d="M132.457,30.018v-0.896c0-0.976-0.448-1.393-0.961-1.393c-0.8,0-1.056,0.417-1.056,1.281v5.858
			c0,0.864,0.256,1.28,1.056,1.28c0.721,0,0.961-0.416,0.961-1.168v-1.393h1.984v1.329c0,1.633-0.96,2.961-2.945,2.961
			c-2.08,0-3.041-1.329-3.041-2.961v-5.954c0-1.633,0.961-2.961,3.041-2.961c1.985,0,2.945,1.44,2.945,3.169v0.848H132.457z"/>
		<path style="fill:#FFFFFF;" d="M136.615,37.717V26.16h5.314v1.729h-3.329v2.978h2.561v1.729h-2.561v3.394h3.553v1.729H136.615z"/>
		<path style="fill:#FFFFFF;" d="M147.496,29.009c-0.08-0.992-0.608-1.281-1.057-1.281c-0.64,0-0.992,0.417-0.992,1.137
			c0,1.969,4.033,2.913,4.033,6.05c0,1.905-1.28,2.961-3.137,2.961c-1.841,0-2.897-1.473-2.978-3.201l1.889-0.272
			c0.08,1.168,0.545,1.745,1.185,1.745c0.688,0,1.152-0.368,1.152-1.056c0-2.289-4.033-2.897-4.033-6.21
			c0-1.841,1.12-2.881,3.073-2.881c1.616,0,2.577,1.168,2.753,2.801L147.496,29.009z"/>
		<path style="fill:#FFFFFF;" d="M152.903,37.717l-1.104,1.985h-0.849l0.784-1.985h-0.72v-1.889h1.889V37.717z"/>
		<path style="fill:#FFFFFF;" d="M159.719,37.717h-1.921l2.129-11.557h2.465l2.129,11.557H162.6l-0.352-2.561h-2.178L159.719,37.717
			z M160.358,33.427h1.601l-0.784-4.962h-0.031L160.358,33.427z"/>
		<path style="fill:#FFFFFF;" d="M165.829,37.717V26.16h1.841l2.417,6.611h0.032V26.16h1.793v11.557h-1.729l-2.528-7.219h-0.032
			v7.219H165.829z"/>
		<path style="fill:#FFFFFF;" d="M173.989,26.16h2.945c2.049,0,3.138,1.121,3.138,3.489v4.578c0,2.369-1.089,3.489-3.138,3.489
			h-2.945V26.16z M175.975,36.084h0.688c1.057,0,1.425-0.4,1.425-1.617V29.41c0-1.217-0.368-1.617-1.425-1.617h-0.688V36.084z"/>
		<path style="fill:#FFFFFF;" d="M189.479,29.009c-0.08-0.992-0.608-1.281-1.057-1.281c-0.64,0-0.992,0.417-0.992,1.137
			c0,1.969,4.033,2.913,4.033,6.05c0,1.905-1.28,2.961-3.137,2.961c-1.841,0-2.897-1.473-2.978-3.201l1.889-0.272
			c0.08,1.168,0.545,1.745,1.185,1.745c0.688,0,1.152-0.368,1.152-1.056c0-2.289-4.033-2.897-4.033-6.21
			c0-1.841,1.12-2.881,3.073-2.881c1.616,0,2.577,1.168,2.753,2.801L189.479,29.009z"/>
		<path style="fill:#FFFFFF;" d="M193.125,26.16h1.984v8.724c0,0.848,0.336,1.264,1.057,1.264c0.72,0,1.057-0.416,1.057-1.264V26.16
			h1.984v8.644c0,1.985-1.152,3.073-3.041,3.073s-3.041-1.088-3.041-3.073V26.16z"/>
		<path style="fill:#FFFFFF;" d="M201.285,37.717V26.16h2.849c2.449,0,3.586,0.944,3.586,3.409c0,2.465-1.137,3.41-3.586,3.41
			h-0.864v4.738H201.285z M203.27,31.346h0.769c1.297,0,1.696-0.4,1.696-1.777c0-1.376-0.399-1.776-1.696-1.776h-0.769V31.346z"/>
		<path style="fill:#FFFFFF;" d="M209.444,37.717V26.16h5.314v1.729h-3.329v2.978h2.561v1.729h-2.561v3.394h3.553v1.729H209.444z"/>
		<path style="fill:#FFFFFF;" d="M218.693,37.717h-1.985V26.16h2.785c2.225,0,3.361,0.944,3.361,3.409
			c0,1.857-0.72,2.609-1.393,2.914l1.681,5.234h-2.017l-1.408-4.786c-0.257,0.032-0.673,0.048-1.024,0.048V37.717z M218.693,31.346
			h0.704c1.072,0,1.473-0.4,1.473-1.777c0-1.376-0.4-1.776-1.473-1.776h-0.704V31.346z"/>
		<path style="fill:#FFFFFF;" d="M225.141,37.717V26.16h1.984v11.557H225.141z"/>
		<path style="fill:#FFFFFF;" d="M229.477,28.961c0-1.633,0.96-2.961,3.041-2.961s3.041,1.329,3.041,2.961v5.954
			c0,1.633-0.96,2.961-3.041,2.961s-3.041-1.329-3.041-2.961V28.961z M231.461,34.868c0,0.864,0.256,1.28,1.057,1.28
			c0.8,0,1.057-0.416,1.057-1.28v-5.858c0-0.864-0.257-1.281-1.057-1.281c-0.801,0-1.057,0.417-1.057,1.281V34.868z"/>
		<path style="fill:#FFFFFF;" d="M239.621,37.717h-1.984V26.16h2.785c2.225,0,3.361,0.944,3.361,3.409
			c0,1.857-0.721,2.609-1.393,2.914l1.681,5.234h-2.018l-1.408-4.786c-0.256,0.032-0.672,0.048-1.024,0.048V37.717z M239.621,31.346
			h0.704c1.072,0,1.473-0.4,1.473-1.777c0-1.376-0.4-1.776-1.473-1.776h-0.704V31.346z"/>
		<path style="fill:#FFFFFF;" d="M95.825,50.018v-0.896c0-0.976-0.448-1.393-0.96-1.393c-0.801,0-1.057,0.417-1.057,1.281v5.858
			c0,0.864,0.256,1.28,1.057,1.28c0.72,0,0.96-0.416,0.96-1.168v-1.393h1.985v1.329c0,1.633-0.961,2.961-2.945,2.961
			c-2.081,0-3.041-1.329-3.041-2.961v-5.954c0-1.633,0.96-2.961,3.041-2.961c1.984,0,2.945,1.44,2.945,3.169v0.848H95.825z"/>
		<path style="fill:#FFFFFF;" d="M100.256,57.717V46.16h1.985v11.557H100.256z"/>
		<path style="fill:#FFFFFF;" d="M104.592,57.717V46.16h1.841l2.417,6.611h0.032V46.16h1.793v11.557h-1.729l-2.528-7.219h-0.032
			v7.219H104.592z"/>
		<path style="fill:#FFFFFF;" d="M112.752,57.717V46.16h5.314v1.729h-3.329v2.978h2.561v1.729h-2.561v3.394h3.553v1.729H112.752z"/>
		<path style="fill:#FFFFFF;" d="M127.971,46.16v11.557h-1.729v-9.028h-0.032l-1.792,9.028h-0.961l-1.793-9.028h-0.031v9.028h-1.729
			V46.16h2.609l1.408,6.755h0.032l1.409-6.755H127.971z"/>
		<path style="fill:#FFFFFF;" d="M131.104,57.717h-1.921l2.129-11.557h2.466l2.128,11.557h-1.92l-0.353-2.561h-2.177L131.104,57.717
			z M131.744,53.427h1.601l-0.784-4.962h-0.032L131.744,53.427z"/>
		<path style="fill:#FFFFFF;" d="M138.368,47.889h-1.921V46.16h5.826v1.729h-1.921v9.828h-1.984V47.889z"/>
		<path style="fill:#FFFFFF;" d="M143.6,48.961c0-1.633,0.96-2.961,3.041-2.961s3.041,1.329,3.041,2.961v5.954
			c0,1.633-0.96,2.961-3.041,2.961s-3.041-1.329-3.041-2.961V48.961z M145.584,54.868c0,0.864,0.256,1.28,1.057,1.28
			c0.8,0,1.057-0.416,1.057-1.28v-5.858c0-0.864-0.257-1.281-1.057-1.281c-0.801,0-1.057,0.417-1.057,1.281V54.868z"/>
		<path style="fill:#FFFFFF;" d="M154.496,51.858h3.249v5.858h-0.96l-0.368-0.864c-0.593,0.704-1.072,1.024-2.001,1.024
			c-1.568,0-2.657-1.121-2.657-2.961v-5.954c0-1.633,0.961-2.961,2.913-2.961c1.985,0,2.978,1.44,2.978,3.169v0.736h-1.889
			c0-1.729-0.353-2.177-1.137-2.177c-0.48,0-0.88,0.289-0.88,1.265v5.938c0,0.736,0.239,1.216,0.928,1.216
			c0.801,0,1.089-0.448,1.089-1.601v-1.12h-1.265V51.858z"/>
		<path style="fill:#FFFFFF;" d="M161.904,57.717h-1.985V46.16h2.785c2.225,0,3.361,0.944,3.361,3.409
			c0,1.857-0.72,2.609-1.393,2.914l1.681,5.234h-2.017l-1.408-4.786c-0.257,0.032-0.673,0.048-1.024,0.048V57.717z M161.904,51.346
			h0.704c1.072,0,1.473-0.4,1.473-1.777c0-1.376-0.4-1.776-1.473-1.776h-0.704V51.346z"/>
		<path style="fill:#FFFFFF;" d="M169.231,57.717h-1.921l2.129-11.557h2.466l2.128,11.557h-1.92l-0.353-2.561h-2.177L169.231,57.717
			z M169.872,53.427h1.601l-0.784-4.962h-0.032L169.872,53.427z"/>
		<path style="fill:#FFFFFF;" d="M175.343,57.717V46.16h2.849c2.449,0,3.586,0.944,3.586,3.409c0,2.465-1.137,3.41-3.586,3.41
			h-0.864v4.738H175.343z M177.327,51.346h0.769c1.297,0,1.696-0.4,1.696-1.777c0-1.376-0.399-1.776-1.696-1.776h-0.769V51.346z"/>
		<path style="fill:#FFFFFF;" d="M183.503,57.717V46.16h1.984v4.706h2.113V46.16h1.984v11.557h-1.984v-5.122h-2.113v5.122H183.503z"
			/>
		<path style="fill:#FFFFFF;" d="M195.248,57.717h-1.984v-4.802l-2.401-6.755h2.017l1.393,4.402h0.032l1.329-4.402h2.017
			l-2.401,6.755V57.717z"/>
		<path style="fill:#FFFFFF;" d="M198.799,57.717v-1.889h1.889v1.889H198.799z"/>
		<path style="fill:#FFFFFF;" d="M204.703,48.049l-1.104,1.985h-0.849l0.784-1.985h-0.721V46.16h1.89V48.049z M207.664,48.049
			l-1.104,1.985h-0.849l0.784-1.985h-0.72V46.16h1.889V48.049z"/>
		<path style="fill:#FFF8DA;" d="M91.118,72.353H89.68v-1.295h4.365v1.295h-1.439v7.364h-1.487V72.353z"/>
		<path style="fill:#FFF8DA;" d="M94.983,79.717v-8.659h1.486v3.526h1.584v-3.526h1.486v8.659h-1.486v-3.838H96.47v3.838H94.983z"/>
		<path style="fill:#FFF8DA;" d="M101.043,79.717v-8.659h3.981v1.295h-2.494v2.23h1.919v1.295h-1.919v2.542h2.662v1.295H101.043z"/>
		<path style="fill:#FFF8DA;" d="M109.154,79.717v-8.659h1.487v3.526h1.583v-3.526h1.487v8.659h-1.487v-3.838h-1.583v3.838H109.154z
			"/>
		<path style="fill:#FFF8DA;" d="M115.214,73.156c0-1.223,0.72-2.219,2.279-2.219c1.559,0,2.278,0.996,2.278,2.219v4.462
			c0,1.223-0.72,2.219-2.278,2.219c-1.56,0-2.279-0.996-2.279-2.219V73.156z M116.701,77.582c0,0.647,0.191,0.959,0.792,0.959
			c0.6,0,0.791-0.312,0.791-0.959v-4.39c0-0.647-0.191-0.959-0.791-0.959c-0.601,0-0.792,0.312-0.792,0.959V77.582z"/>
		<path style="fill:#FFF8DA;" d="M121.202,79.717v-8.659h1.487v7.364h2.339v1.295H121.202z"/>
		<path style="fill:#FFF8DA;" d="M125.93,79.717v-8.659h1.487v7.364h2.339v1.295H125.93z"/>
		<path style="fill:#FFF8DA;" d="M133.417,79.717h-1.487v-3.598l-1.799-5.061h1.511l1.043,3.298h0.024l0.995-3.298h1.512
			l-1.799,5.061V79.717z"/>
		<path style="fill:#FFF8DA;" d="M138.696,71.058h1.224l1.007,5.517h0.024l0.827-5.517h1.392l-1.523,8.659h-1.247l-1.079-5.721
			h-0.024l-1.007,5.721h-1.248l-1.643-8.659h1.391l0.912,5.517h0.023L138.696,71.058z"/>
		<path style="fill:#FFF8DA;" d="M144.182,73.156c0-1.223,0.72-2.219,2.279-2.219c1.559,0,2.278,0.996,2.278,2.219v4.462
			c0,1.223-0.72,2.219-2.278,2.219c-1.56,0-2.279-0.996-2.279-2.219V73.156z M145.669,77.582c0,0.647,0.191,0.959,0.792,0.959
			c0.6,0,0.791-0.312,0.791-0.959v-4.39c0-0.647-0.191-0.959-0.791-0.959c-0.601,0-0.792,0.312-0.792,0.959V77.582z"/>
		<path style="fill:#FFF8DA;" d="M150.242,73.156c0-1.223,0.719-2.219,2.278-2.219s2.278,0.996,2.278,2.219v4.462
			c0,1.223-0.719,2.219-2.278,2.219s-2.278-0.996-2.278-2.219V73.156z M151.729,77.582c0,0.647,0.192,0.959,0.792,0.959
			s0.792-0.312,0.792-0.959v-4.39c0-0.647-0.192-0.959-0.792-0.959s-0.792,0.312-0.792,0.959V77.582z"/>
		<path style="fill:#FFF8DA;" d="M156.302,71.058h2.207c1.535,0,2.351,0.839,2.351,2.614v3.43c0,1.775-0.815,2.615-2.351,2.615
			h-2.207V71.058z M157.789,78.494h0.516c0.792,0,1.067-0.3,1.067-1.211v-3.79c0-0.912-0.275-1.211-1.067-1.211h-0.516V78.494z"/>
		<path style="fill:#FFF8DA;" d="M166.572,79.717h-1.487v-8.659h2.087c1.667,0,2.519,0.708,2.519,2.555
			c0,1.391-0.54,1.955-1.043,2.183l1.259,3.922h-1.511l-1.056-3.586c-0.192,0.024-0.504,0.036-0.768,0.036V79.717z M166.572,74.943
			h0.527c0.804,0,1.104-0.3,1.104-1.331c0-1.032-0.3-1.332-1.104-1.332h-0.527V74.943z"/>
		<path style="fill:#FFF8DA;" d="M171.146,79.717v-8.659h3.981v1.295h-2.495v2.23h1.919v1.295h-1.919v2.542h2.663v1.295H171.146z"/>
		<path style="fill:#FFF8DA;" d="M176.533,79.717v-8.659h2.135c1.835,0,2.687,0.708,2.687,2.555c0,1.847-0.852,2.555-2.687,2.555
			h-0.648v3.55H176.533z M178.02,74.943h0.576c0.972,0,1.271-0.3,1.271-1.331c0-1.032-0.3-1.332-1.271-1.332h-0.576V74.943z"/>
		<path style="fill:#FFF8DA;" d="M182.593,73.156c0-1.223,0.72-2.219,2.279-2.219c1.559,0,2.278,0.996,2.278,2.219v4.462
			c0,1.223-0.72,2.219-2.278,2.219c-1.56,0-2.279-0.996-2.279-2.219V73.156z M184.08,77.582c0,0.647,0.191,0.959,0.792,0.959
			c0.6,0,0.791-0.312,0.791-0.959v-4.39c0-0.647-0.191-0.959-0.791-0.959c-0.601,0-0.792,0.312-0.792,0.959V77.582z"/>
		<path style="fill:#FFF8DA;" d="M190.14,79.717h-1.486v-8.659h2.087c1.667,0,2.519,0.708,2.519,2.555
			c0,1.391-0.54,1.955-1.044,2.183l1.26,3.922h-1.512l-1.056-3.586c-0.191,0.024-0.503,0.036-0.768,0.036V79.717z M190.14,74.943
			h0.528c0.804,0,1.104-0.3,1.104-1.331c0-1.032-0.3-1.332-1.104-1.332h-0.528V74.943z"/>
		<path style="fill:#FFF8DA;" d="M195.576,72.353h-1.438v-1.295h4.365v1.295h-1.439v7.364h-1.487V72.353z"/>
		<path style="fill:#FFF8DA;" d="M199.441,79.717v-8.659h3.981v1.295h-2.495v2.23h1.919v1.295h-1.919v2.542h2.663v1.295H199.441z"/>
		<path style="fill:#FFF8DA;" d="M206.315,79.717h-1.487v-8.659h2.087c1.667,0,2.519,0.708,2.519,2.555
			c0,1.391-0.54,1.955-1.043,2.183l1.259,3.922h-1.511l-1.056-3.586c-0.192,0.024-0.504,0.036-0.768,0.036V79.717z M206.315,74.943
			h0.527c0.804,0,1.104-0.3,1.104-1.331c0-1.032-0.3-1.332-1.104-1.332h-0.527V74.943z"/>
	</g>
</g>
<g id="nyt_x5F_exporter_x5F_info" style="display:none;">
</g>
</svg>
