<?xml version="1.0" encoding="iso-8859-1"?>
<!-- Generator: Adobe Illustrator 17.1.0, SVG Export Plug-In . SVG Version: 6.00 Build 0)  -->
<!DOCTYPE svg PUBLIC "-//W3C//DTD SVG 1.1//EN" "http://www.w3.org/Graphics/SVG/1.1/DTD/svg11.dtd">
<svg version="1.1" xmlns="http://www.w3.org/2000/svg" xmlns:xlink="http://www.w3.org/1999/xlink" x="0px" y="0px"
	 viewBox="0 0 300 169.012" style="enable-background:new 0 0 300 169.012;" xml:space="preserve">
<g id="Layer_1">
	<g>
		<path style="fill:#FFF8DA;" d="M13.443,4.463L15.927,0h1.908l-1.764,4.463h1.62v4.248h-4.248V4.463z M20.102,4.463L22.586,0h1.908
			L22.73,4.463h1.62v4.248h-4.248V4.463z"/>
		<path style="fill:#FFF8DA;" d="M31.838,26.349h-4.319L32.306,0.36h5.543l4.788,25.989h-4.32l-0.792-5.759H32.63L31.838,26.349z
			 M33.278,16.702h3.599L35.114,5.543h-0.072L33.278,16.702z"/>
		<path style="fill:#FFF8DA;" d="M71.471,0.36v25.989h-3.887V6.047h-0.072L63.48,26.349h-2.16L57.289,6.047h-0.072v20.301h-3.888
			V0.36h5.867l3.167,15.19h0.072l3.167-15.19H71.471z"/>
		<path style="fill:#FFF8DA;" d="M75.757,6.659c0-3.671,2.16-6.659,6.839-6.659c4.679,0,6.839,2.988,6.839,6.659v13.39
			c0,3.672-2.16,6.659-6.839,6.659c-4.68,0-6.839-2.987-6.839-6.659V6.659z M80.22,19.941c0,1.944,0.576,2.88,2.376,2.88
			s2.375-0.936,2.375-2.88V6.767c0-1.944-0.576-2.879-2.375-2.879S80.22,4.823,80.22,6.767V19.941z"/>
		<path style="fill:#FFF8DA;" d="M102.072,6.767c-0.18-2.232-1.368-2.879-2.376-2.879c-1.44,0-2.231,0.936-2.231,2.556
			c0,4.427,9.071,6.551,9.071,13.606c0,4.284-2.88,6.659-7.055,6.659c-4.14,0-6.515-3.312-6.695-7.199l4.248-0.612
			c0.18,2.628,1.224,3.924,2.664,3.924c1.548,0,2.592-0.828,2.592-2.376c0-5.147-9.071-6.515-9.071-13.966
			c0-4.139,2.52-6.479,6.911-6.479c3.635,0,5.795,2.627,6.191,6.299L102.072,6.767z"/>
		<path style="fill:#FFF8DA;" d="M112.692,4.248h-4.319V0.36h13.102v3.888h-4.319v22.101h-4.463V4.248z"/>
		<path style="fill:#FFF8DA;" d="M133.067,26.349V0.36h4.463v25.989H133.067z"/>
		<path style="fill:#FFF8DA;" d="M160.533,0.36v25.989h-3.887V6.047h-0.072l-4.031,20.301h-2.16l-4.032-20.301h-0.072v20.301h-3.888
			V0.36h5.867l3.167,15.19h0.072l3.167-15.19H160.533z"/>
		<path style="fill:#FFF8DA;" d="M164.819,26.349V0.36h6.407c5.507,0,8.063,2.124,8.063,7.667s-2.556,7.667-8.063,7.667h-1.944
			v10.655H164.819z M169.282,12.022h1.728c2.916,0,3.815-0.9,3.815-3.996s-0.9-3.996-3.815-3.996h-1.728V12.022z"/>
		<path style="fill:#FFF8DA;" d="M187.462,26.349h-4.463V0.36h6.263c5.003,0,7.559,2.124,7.559,7.667
			c0,4.176-1.62,5.867-3.131,6.551l3.779,11.771h-4.535l-3.168-10.763c-0.576,0.072-1.512,0.108-2.304,0.108V26.349z
			 M187.462,12.022h1.584c2.412,0,3.312-0.9,3.312-3.996s-0.9-3.996-3.312-3.996h-1.584V12.022z"/>
		<path style="fill:#FFF8DA;" d="M201.179,26.349V0.36h11.951v3.888h-7.487v6.695h5.759v3.888h-5.759v7.631h7.991v3.888H201.179z"/>
		<path style="fill:#FFF8DA;" d="M225.478,6.767c-0.18-2.232-1.368-2.879-2.376-2.879c-1.44,0-2.231,0.936-2.231,2.556
			c0,4.427,9.071,6.551,9.071,13.606c0,4.284-2.88,6.659-7.055,6.659c-4.14,0-6.515-3.312-6.695-7.199l4.248-0.612
			c0.18,2.628,1.224,3.924,2.664,3.924c1.548,0,2.592-0.828,2.592-2.376c0-5.147-9.071-6.515-9.071-13.966
			c0-4.139,2.52-6.479,6.911-6.479c3.635,0,5.795,2.627,6.191,6.299L225.478,6.767z"/>
		<path style="fill:#FFF8DA;" d="M241.641,6.767c-0.18-2.232-1.368-2.879-2.376-2.879c-1.44,0-2.231,0.936-2.231,2.556
			c0,4.427,9.071,6.551,9.071,13.606c0,4.284-2.88,6.659-7.055,6.659c-4.14,0-6.515-3.312-6.695-7.199l4.248-0.612
			c0.18,2.628,1.224,3.924,2.664,3.924c1.548,0,2.592-0.828,2.592-2.376c0-5.147-9.071-6.515-9.071-13.966
			c0-4.139,2.52-6.479,6.911-6.479c3.635,0,5.795,2.627,6.191,6.299L241.641,6.767z"/>
		<path style="fill:#FFF8DA;" d="M250.281,26.349V0.36h4.463v25.989H250.281z"/>
		<path style="fill:#FFF8DA;" d="M268.964,0.36h4.392l-5.436,25.989h-4.463L258.021,0.36h4.392l3.24,18.034h0.072L268.964,0.36z"/>
		<path style="fill:#FFF8DA;" d="M276.021,26.349V0.36h11.951v3.888h-7.487v6.695h5.759v3.888h-5.759v7.631h7.991v3.888H276.021z"/>
		<path style="fill:#FFF8DA;" d="M91.939,60.349V34.36h6.407c5.507,0,8.063,2.124,8.063,7.667s-2.556,7.667-8.063,7.667h-1.944
			v10.655H91.939z M96.402,46.022h1.728c2.916,0,3.815-0.9,3.815-3.996s-0.9-3.996-3.815-3.996h-1.728V46.022z"/>
		<path style="fill:#FFF8DA;" d="M110.731,60.349V34.36h4.463v25.989H110.731z"/>
		<path style="fill:#FFF8DA;" d="M120.307,60.349V34.36h11.951v3.888h-7.487v6.695h5.759v3.888h-5.759v7.631h7.991v3.888H120.307z"
			/>
		<path style="fill:#FFF8DA;" d="M145.469,43.035v-2.016c0-2.196-1.008-3.131-2.16-3.131c-1.8,0-2.376,0.936-2.376,2.879v13.174
			c0,1.944,0.576,2.88,2.376,2.88c1.62,0,2.16-0.936,2.16-2.628v-3.131h4.463v2.987c0,3.672-2.16,6.659-6.623,6.659
			c-4.68,0-6.839-2.987-6.839-6.659v-13.39c0-3.671,2.16-6.659,6.839-6.659c4.463,0,6.623,3.24,6.623,7.127v1.908H145.469z"/>
		<path style="fill:#FFF8DA;" d="M154.65,60.349V34.36h11.951v3.888h-7.487v6.695h5.759v3.888h-5.759v7.631h7.991v3.888H154.65z"/>
		<path style="fill:#FFF8DA;" d="M178.985,40.659c0-3.671,2.16-6.659,6.839-6.659c4.679,0,6.839,2.988,6.839,6.659v13.39
			c0,3.672-2.16,6.659-6.839,6.659c-4.68,0-6.839-2.987-6.839-6.659V40.659z M183.449,53.941c0,1.944,0.576,2.88,2.376,2.88
			s2.375-0.936,2.375-2.88V40.767c0-1.944-0.576-2.879-2.375-2.879s-2.376,0.936-2.376,2.879V53.941z"/>
		<path style="fill:#FFF8DA;" d="M197.165,60.349V34.36h12.455v3.888h-7.991v6.695h5.976v3.888h-5.976v11.519H197.165z"/>
		<path style="fill:#FFF8DA;" d="M66.667,94.349V68.36h12.455v3.888h-7.991v6.695h5.976v3.888h-5.976v11.519H66.667z"/>
		<path style="fill:#FFF8DA;" d="M83.443,94.349V68.36h4.463v25.989H83.443z"/>
		<path style="fill:#FFF8DA;" d="M92.803,94.349V68.36h4.463v22.101h7.019v3.888H92.803z"/>
		<path style="fill:#FFF8DA;" d="M125.092,68.36v25.989h-3.887V74.047h-0.072l-4.031,20.301h-2.16l-4.032-20.301h-0.072v20.301
			h-3.888V68.36h5.867l3.168,15.19h0.072l3.167-15.19H125.092z"/>
		<path style="fill:#FFF8DA;" d="M147.268,68.36v25.989h-3.887V74.047h-0.072l-4.031,20.301h-2.16l-4.032-20.301h-0.072v20.301
			h-3.888V68.36h5.867l3.168,15.19h0.072l3.167-15.19H147.268z"/>
		<path style="fill:#FFF8DA;" d="M154.146,94.349h-4.319l4.787-25.989h5.543l4.787,25.989h-4.319l-0.792-5.759h-4.895
			L154.146,94.349z M155.585,84.702h3.6l-1.764-11.158h-0.072L155.585,84.702z"/>
		<path style="fill:#FFF8DA;" d="M167.501,94.349V68.36h4.463v9.611h0.072l4.68-9.611h4.463l-4.823,9.683l5.435,16.306h-4.535
			l-3.636-12.095h-0.072l-1.584,2.88v9.215H167.501z"/>
		<path style="fill:#FFF8DA;" d="M184.492,94.349V68.36h4.463v25.989H184.492z"/>
		<path style="fill:#FFF8DA;" d="M194.068,94.349V68.36h4.14l5.435,14.866h0.072V68.36h4.031v25.989h-3.887l-5.688-16.234H198.1
			v16.234H194.068z"/>
		<path style="fill:#FFF8DA;" d="M218.404,81.174h7.307v13.174h-2.16l-0.828-1.944c-1.332,1.584-2.412,2.304-4.5,2.304
			c-3.527,0-5.975-2.52-5.975-6.659v-13.39c0-3.671,2.16-6.659,6.551-6.659c4.463,0,6.695,3.24,6.695,7.127v1.656h-4.248
			c0-3.887-0.792-4.895-2.556-4.895c-1.08,0-1.98,0.647-1.98,2.843v13.354c0,1.656,0.54,2.736,2.088,2.736
			c1.8,0,2.448-1.008,2.448-3.6v-2.52h-2.844V81.174z"/>
		<path style="fill:#FFF8DA;" d="M234.388,94.349l-2.483,4.463h-1.908l1.764-4.463h-1.62v-4.248h4.248V94.349z"/>
		<path style="fill:#FFFFFF;" d="M4.204,104.521H2.283v-1.729h5.827v1.729H6.188v9.828H4.204V104.521z"/>
		<path style="fill:#FFFFFF;" d="M9.436,114.349v-11.557h5.314v1.729H11.42v2.978h2.561v1.729H11.42v3.394h3.553v1.729H9.436z"/>
		<path style="fill:#FFFFFF;" d="M16.699,114.349v-11.557h1.841l2.417,6.611h0.032v-6.611h1.793v11.557h-1.729l-2.529-7.219h-0.032
			v7.219H16.699z"/>
		<path style="fill:#FFFFFF;" d="M28.476,105.641c-0.08-0.992-0.608-1.281-1.056-1.281c-0.64,0-0.993,0.417-0.993,1.137
			c0,1.969,4.034,2.913,4.034,6.05c0,1.905-1.28,2.961-3.137,2.961c-1.841,0-2.897-1.473-2.977-3.201l1.889-0.272
			c0.08,1.168,0.544,1.745,1.185,1.745c0.688,0,1.152-0.368,1.152-1.056c0-2.289-4.034-2.897-4.034-6.21
			c0-1.841,1.121-2.881,3.073-2.881c1.617,0,2.577,1.168,2.753,2.801L28.476,105.641z"/>
		<path style="fill:#FFFFFF;" d="M32.123,114.349v-11.557h5.314v1.729h-3.329v2.978h2.561v1.729h-2.561v3.394h3.553v1.729H32.123z"
			/>
		<path style="fill:#FFFFFF;" d="M44.25,114.349h-1.921l2.129-11.557h2.465l2.129,11.557h-1.921l-0.352-2.561h-2.177L44.25,114.349z
			 M44.89,110.059h1.601l-0.784-4.962h-0.032L44.89,110.059z"/>
		<path style="fill:#FFFFFF;" d="M50.361,114.349v-11.557h1.841l2.417,6.611h0.032v-6.611h1.793v11.557h-1.729l-2.529-7.219h-0.032
			v7.219H50.361z"/>
		<path style="fill:#FFFFFF;" d="M58.521,102.792h2.945c2.049,0,3.137,1.121,3.137,3.489v4.578c0,2.369-1.088,3.489-3.137,3.489
			h-2.945V102.792z M60.506,112.716h0.688c1.057,0,1.425-0.4,1.425-1.617v-5.058c0-1.217-0.368-1.617-1.425-1.617h-0.688V112.716z"
			/>
		<path style="fill:#FFFFFF;" d="M70.393,102.792h1.985v8.724c0,0.848,0.336,1.264,1.056,1.264s1.057-0.416,1.057-1.264v-8.724
			h1.985v8.644c0,1.985-1.153,3.073-3.042,3.073s-3.041-1.088-3.041-3.073V102.792z"/>
		<path style="fill:#FFFFFF;" d="M78.553,114.349v-11.557h1.841l2.417,6.611h0.032v-6.611h1.793v11.557h-1.729l-2.529-7.219h-0.032
			v7.219H78.553z"/>
		<path style="fill:#FFFFFF;" d="M88.698,114.349h-1.985v-11.557h2.785c2.225,0,3.361,0.944,3.361,3.409
			c0,1.857-0.72,2.609-1.393,2.914l1.681,5.234H91.13l-1.408-4.786c-0.256,0.032-0.672,0.048-1.024,0.048V114.349z M88.698,107.978
			h0.704c1.072,0,1.473-0.4,1.473-1.777c0-1.376-0.4-1.776-1.473-1.776h-0.704V107.978z"/>
		<path style="fill:#FFFFFF;" d="M94.873,114.349v-11.557h5.314v1.729h-3.329v2.978h2.561v1.729h-2.561v3.394h3.553v1.729H94.873z"
			/>
		<path style="fill:#FFFFFF;" d="M102.041,114.349v-11.557h1.985v9.828h3.121v1.729H102.041z"/>
		<path style="fill:#FFFFFF;" d="M108.52,114.349v-11.557h5.314v1.729h-3.329v2.978h2.561v1.729h-2.561v3.394h3.553v1.729H108.52z"
			/>
		<path style="fill:#FFFFFF;" d="M115.784,114.349v-11.557h1.841l2.417,6.611h0.032v-6.611h1.793v11.557h-1.729l-2.529-7.219h-0.032
			v7.219H115.784z"/>
		<path style="fill:#FFFFFF;" d="M125.096,104.521h-1.921v-1.729h5.827v1.729h-1.921v9.828h-1.985V104.521z"/>
		<path style="fill:#FFFFFF;" d="M130.599,114.349v-11.557h1.985v11.557H130.599z"/>
		<path style="fill:#FFFFFF;" d="M134.936,114.349v-11.557h1.841l2.417,6.611h0.032v-6.611h1.793v11.557h-1.729l-2.529-7.219h-0.032
			v7.219H134.936z"/>
		<path style="fill:#FFFFFF;" d="M145.833,108.49h3.25v5.858h-0.96l-0.368-0.864c-0.592,0.704-1.072,1.024-2,1.024
			c-1.569,0-2.657-1.121-2.657-2.961v-5.954c0-1.633,0.96-2.961,2.913-2.961c1.985,0,2.977,1.44,2.977,3.169v0.736h-1.889
			c0-1.729-0.352-2.177-1.136-2.177c-0.48,0-0.88,0.289-0.88,1.265v5.938c0,0.736,0.24,1.216,0.928,1.216
			c0.8,0,1.088-0.448,1.088-1.601v-1.12h-1.265V108.49z"/>
		<path style="fill:#FFFFFF;" d="M153.016,114.349l-1.104,1.985h-0.849l0.785-1.985h-0.72v-1.889h1.889V114.349z"/>
		<path style="fill:#FFFFFF;" d="M159.832,104.521h-1.921v-1.729h5.827v1.729h-1.921v9.828h-1.985V104.521z"/>
		<path style="fill:#FFFFFF;" d="M165.062,114.349v-11.557h1.985v4.706h2.113v-4.706h1.985v11.557h-1.985v-5.122h-2.113v5.122
			H165.062z"/>
		<path style="fill:#FFFFFF;" d="M174.375,114.349h-1.921l2.129-11.557h2.465l2.129,11.557h-1.921l-0.352-2.561h-2.177
			L174.375,114.349z M175.015,110.059h1.601l-0.784-4.962H175.8L175.015,110.059z"/>
		<path style="fill:#FFFFFF;" d="M181.639,104.521h-1.921v-1.729h5.827v1.729h-1.921v9.828h-1.985V104.521z"/>
		<path style="fill:#FFFFFF;" d="M194.583,106.649v-0.896c0-0.976-0.448-1.393-0.96-1.393c-0.8,0-1.056,0.417-1.056,1.281v5.858
			c0,0.864,0.256,1.28,1.056,1.28c0.72,0,0.96-0.416,0.96-1.168v-1.393h1.985v1.329c0,1.633-0.96,2.961-2.945,2.961
			c-2.081,0-3.041-1.329-3.041-2.961v-5.954c0-1.633,0.96-2.961,3.041-2.961c1.985,0,2.945,1.44,2.945,3.169v0.848H194.583z"/>
		<path style="fill:#FFFFFF;" d="M198.742,114.349v-11.557h1.985v4.706h2.113v-4.706h1.985v11.557h-1.985v-5.122h-2.113v5.122
			H198.742z"/>
		<path style="fill:#FFFFFF;" d="M207.173,114.349v-11.557h1.985v11.557H207.173z"/>
		<path style="fill:#FFFFFF;" d="M211.414,114.349v-11.557h1.985v9.828h3.121v1.729H211.414z"/>
		<path style="fill:#FFFFFF;" d="M217.797,114.349v-11.557h1.985v9.828h3.121v1.729H217.797z"/>
		<path style="fill:#FFFFFF;" d="M227.894,105.641c-0.08-0.992-0.608-1.281-1.056-1.281c-0.64,0-0.993,0.417-0.993,1.137
			c0,1.969,4.034,2.913,4.034,6.05c0,1.905-1.28,2.961-3.137,2.961c-1.841,0-2.897-1.473-2.977-3.201l1.889-0.272
			c0.08,1.168,0.544,1.745,1.185,1.745c0.688,0,1.152-0.368,1.152-1.056c0-2.289-4.034-2.897-4.034-6.21
			c0-1.841,1.121-2.881,3.073-2.881c1.617,0,2.577,1.168,2.753,2.801L227.894,105.641z"/>
		<path style="fill:#FFFFFF;" d="M236.405,104.521h-1.921v-1.729h5.827v1.729h-1.921v9.828h-1.985V104.521z"/>
		<path style="fill:#FFFFFF;" d="M241.636,114.349v-11.557h1.985v4.706h2.113v-4.706h1.985v11.557h-1.985v-5.122h-2.113v5.122
			H241.636z"/>
		<path style="fill:#FFFFFF;" d="M249.796,114.349v-11.557h5.314v1.729h-3.329v2.978h2.561v1.729h-2.561v3.394h3.553v1.729H249.796z
			"/>
		<path style="fill:#FFFFFF;" d="M260.771,102.792h2.945c2.129,0,3.073,1.088,3.073,3.057c0,0.993-0.417,2.033-1.377,2.417
			c1.009,0.448,1.601,1.249,1.601,2.737c0,1.905-0.849,3.345-3.105,3.345h-3.137V102.792z M262.756,107.53h0.72
			c0.752,0,1.329-0.512,1.329-1.473c0-1.072-0.417-1.632-1.297-1.632h-0.752V107.53z M262.756,112.716h0.832
			c1.057,0,1.441-0.608,1.441-1.776c0-1.185-0.448-1.777-1.633-1.777h-0.64V112.716z"/>
		<path style="fill:#FFFFFF;" d="M268.835,114.349v-11.557h1.985v9.828h3.121v1.729H268.835z"/>
		<path style="fill:#FFFFFF;" d="M275.315,105.593c0-1.633,0.96-2.961,3.041-2.961c2.081,0,3.042,1.329,3.042,2.961v5.954
			c0,1.633-0.96,2.961-3.042,2.961c-2.081,0-3.041-1.329-3.041-2.961V105.593z M277.3,111.5c0,0.864,0.256,1.28,1.056,1.28
			s1.057-0.416,1.057-1.28v-5.858c0-0.864-0.256-1.281-1.057-1.281s-1.056,0.417-1.056,1.281V111.5z"/>
		<path style="fill:#FFFFFF;" d="M283.475,105.593c0-1.633,0.96-2.961,3.041-2.961c2.081,0,3.042,1.329,3.042,2.961v5.954
			c0,1.633-0.96,2.961-3.042,2.961c-2.081,0-3.041-1.329-3.041-2.961V105.593z M285.46,111.5c0,0.864,0.256,1.28,1.056,1.28
			s1.057-0.416,1.057-1.28v-5.858c0-0.864-0.256-1.281-1.057-1.281s-1.056,0.417-1.056,1.281V111.5z"/>
		<path style="fill:#FFFFFF;" d="M291.635,102.792h2.945c2.049,0,3.137,1.121,3.137,3.489v4.578c0,2.369-1.088,3.489-3.137,3.489
			h-2.945V102.792z M293.62,112.716h0.688c1.057,0,1.425-0.4,1.425-1.617v-5.058c0-1.217-0.368-1.617-1.425-1.617h-0.688V112.716z"
			/>
		<path style="fill:#FFFFFF;" d="M85.675,134.349h-1.921l2.129-11.557h2.465l2.129,11.557h-1.921l-0.352-2.561h-2.177
			L85.675,134.349z M86.315,130.059h1.601l-0.784-4.962H87.1L86.315,130.059z"/>
		<path style="fill:#FFFFFF;" d="M95.403,125.641c-0.08-0.992-0.608-1.281-1.056-1.281c-0.64,0-0.993,0.417-0.993,1.137
			c0,1.969,4.034,2.913,4.034,6.05c0,1.905-1.28,2.961-3.137,2.961c-1.841,0-2.897-1.473-2.977-3.201l1.889-0.272
			c0.08,1.168,0.544,1.745,1.185,1.745c0.688,0,1.152-0.368,1.152-1.056c0-2.289-4.034-2.897-4.034-6.21
			c0-1.841,1.121-2.881,3.073-2.881c1.617,0,2.577,1.168,2.753,2.801L95.403,125.641z"/>
		<path style="fill:#FFFFFF;" d="M106.203,122.792h1.633l1.344,7.363h0.032l1.104-7.363h1.856l-2.033,11.557h-1.665l-1.441-7.635
			h-0.032l-1.345,7.635h-1.665l-2.193-11.557h1.857l1.216,7.363h0.032L106.203,122.792z"/>
		<path style="fill:#FFFFFF;" d="M113.593,134.349v-11.557h5.314v1.729h-3.329v2.978h2.561v1.729h-2.561v3.394h3.553v1.729H113.593z
			"/>
		<path style="fill:#FFFFFF;" d="M120.76,134.349v-11.557h1.985v9.828h3.121v1.729H120.76z"/>
		<path style="fill:#FFFFFF;" d="M127.144,134.349v-11.557h1.985v9.828h3.121v1.729H127.144z"/>
		<path style="fill:#FFFFFF;" d="M138.488,134.349h-1.921l2.129-11.557h2.465l2.128,11.557h-1.92l-0.352-2.561h-2.177
			L138.488,134.349z M139.128,130.059h1.601l-0.785-4.962h-0.032L139.128,130.059z"/>
		<path style="fill:#FFFFFF;" d="M148.216,125.641c-0.08-0.992-0.608-1.281-1.056-1.281c-0.64,0-0.993,0.417-0.993,1.137
			c0,1.969,4.034,2.913,4.034,6.05c0,1.905-1.28,2.961-3.137,2.961c-1.841,0-2.897-1.473-2.977-3.201l1.889-0.272
			c0.08,1.168,0.544,1.745,1.185,1.745c0.688,0,1.152-0.368,1.152-1.056c0-2.289-4.034-2.897-4.034-6.21
			c0-1.841,1.121-2.881,3.073-2.881c1.617,0,2.577,1.168,2.753,2.801L148.216,125.641z"/>
		<path style="fill:#FFFFFF;" d="M156.727,124.521h-1.921v-1.729h5.827v1.729h-1.921v9.828h-1.985V124.521z"/>
		<path style="fill:#FFFFFF;" d="M161.958,134.349v-11.557h1.985v4.706h2.113v-4.706h1.985v11.557h-1.985v-5.122h-2.113v5.122
			H161.958z"/>
		<path style="fill:#FFFFFF;" d="M170.118,134.349v-11.557h5.314v1.729h-3.329v2.978h2.561v1.729h-2.561v3.394h3.553v1.729H170.118z
			"/>
		<path style="fill:#FFFFFF;" d="M184.71,125.641c-0.08-0.992-0.608-1.281-1.056-1.281c-0.64,0-0.993,0.417-0.993,1.137
			c0,1.969,4.034,2.913,4.034,6.05c0,1.905-1.28,2.961-3.137,2.961c-1.841,0-2.897-1.473-2.977-3.201l1.889-0.272
			c0.08,1.168,0.544,1.745,1.185,1.745c0.688,0,1.152-0.368,1.152-1.056c0-2.289-4.034-2.897-4.034-6.21
			c0-1.841,1.121-2.881,3.073-2.881c1.617,0,2.577,1.168,2.753,2.801L184.71,125.641z"/>
		<path style="fill:#FFFFFF;" d="M188.357,125.593c0-1.633,0.96-2.961,3.041-2.961c2.081,0,3.042,1.329,3.042,2.961v5.954
			c0,1.633-0.96,2.961-3.042,2.961c-2.081,0-3.041-1.329-3.041-2.961V125.593z M190.342,131.5c0,0.864,0.256,1.28,1.056,1.28
			s1.057-0.416,1.057-1.28v-5.858c0-0.864-0.256-1.281-1.057-1.281s-1.056,0.417-1.056,1.281V131.5z"/>
		<path style="fill:#FFFFFF;" d="M196.517,122.792h1.985v8.724c0,0.848,0.336,1.264,1.056,1.264s1.057-0.416,1.057-1.264v-8.724
			h1.985v8.644c0,1.985-1.153,3.073-3.042,3.073s-3.041-1.088-3.041-3.073V122.792z"/>
		<path style="fill:#FFFFFF;" d="M204.581,134.349v-11.557h1.985v9.828h3.121v1.729H204.581z"/>
		<path style="fill:#FFFFFF;" d="M213.125,124.681l-1.104,1.985h-0.849l0.785-1.985h-0.721v-1.889h1.889V124.681z M216.086,124.681
			l-1.104,1.985h-0.848l0.784-1.985h-0.72v-1.889h1.889V124.681z"/>
		<path style="fill:#FFF8DA;" d="M107.905,156.349v-8.659h1.487v7.364h2.339v1.295H107.905z"/>
		<path style="fill:#FFF8DA;" d="M112.705,149.788c0-1.223,0.719-2.219,2.279-2.219c1.559,0,2.278,0.996,2.278,2.219v4.462
			c0,1.223-0.719,2.219-2.278,2.219c-1.56,0-2.279-0.996-2.279-2.219V149.788z M114.192,154.214c0,0.647,0.192,0.959,0.792,0.959
			s0.792-0.312,0.792-0.959v-4.39c0-0.647-0.192-0.959-0.792-0.959s-0.792,0.312-0.792,0.959V154.214z"/>
		<path style="fill:#FFF8DA;" d="M121.476,149.824c-0.06-0.744-0.456-0.959-0.792-0.959c-0.48,0-0.744,0.312-0.744,0.852
			c0,1.475,3.022,2.183,3.022,4.534c0,1.427-0.959,2.219-2.351,2.219c-1.379,0-2.17-1.104-2.23-2.399l1.415-0.204
			c0.06,0.875,0.408,1.307,0.888,1.307c0.516,0,0.863-0.276,0.863-0.792c0-1.715-3.022-2.171-3.022-4.653
			c0-1.379,0.84-2.159,2.303-2.159c1.211,0,1.931,0.875,2.063,2.099L121.476,149.824z"/>
		<path style="fill:#FFF8DA;" d="M127.74,156.349h-1.439l1.595-8.659h1.847l1.595,8.659h-1.439l-0.264-1.919h-1.631L127.74,156.349z
			 M128.22,153.134h1.199l-0.588-3.718h-0.024L128.22,153.134z"/>
		<path style="fill:#FFF8DA;" d="M132.264,156.349v-8.659h1.379l1.811,4.953h0.024v-4.953h1.343v8.659h-1.295l-1.895-5.409h-0.024
			v5.409H132.264z"/>
		<path style="fill:#FFF8DA;" d="M140.375,151.959h2.435v4.39h-0.72l-0.276-0.647c-0.443,0.527-0.803,0.768-1.499,0.768
			c-1.175,0-1.991-0.84-1.991-2.219v-4.462c0-1.223,0.72-2.219,2.183-2.219c1.487,0,2.231,1.08,2.231,2.375v0.552h-1.416
			c0-1.295-0.264-1.631-0.852-1.631c-0.359,0-0.659,0.216-0.659,0.947v4.45c0,0.552,0.18,0.912,0.695,0.912
			c0.6,0,0.815-0.336,0.815-1.199v-0.84h-0.947V151.959z"/>
		<path style="fill:#FFF8DA;" d="M144.384,156.349v-8.659h3.982v1.295h-2.495v2.23h1.919v1.295h-1.919v2.542h2.663v1.295H144.384z"
			/>
		<path style="fill:#FFF8DA;" d="M149.699,156.349v-8.659h1.487v7.364h2.339v1.295H149.699z"/>
		<path style="fill:#FFF8DA;" d="M154.5,156.349v-8.659h3.981v1.295h-2.494v2.23h1.919v1.295h-1.919v2.542h2.662v1.295H154.5z"/>
		<path style="fill:#FFF8DA;" d="M162.598,149.824c-0.06-0.744-0.456-0.959-0.792-0.959c-0.48,0-0.744,0.312-0.744,0.852
			c0,1.475,3.022,2.183,3.022,4.534c0,1.427-0.959,2.219-2.351,2.219c-1.379,0-2.17-1.104-2.23-2.399l1.415-0.204
			c0.06,0.875,0.408,1.307,0.888,1.307c0.516,0,0.863-0.276,0.863-0.792c0-1.715-3.022-2.171-3.022-4.653
			c0-1.379,0.84-2.159,2.303-2.159c1.211,0,1.931,0.875,2.063,2.099L162.598,149.824z"/>
		<path style="fill:#FFF8DA;" d="M168.862,148.985h-1.439v-1.295h4.365v1.295h-1.439v7.364h-1.487V148.985z"/>
		<path style="fill:#FFF8DA;" d="M172.93,156.349v-8.659h1.487v8.659H172.93z"/>
		<path style="fill:#FFF8DA;" d="M182.083,147.689v8.659h-1.295v-6.764h-0.024l-1.343,6.764h-0.719l-1.343-6.764h-0.024v6.764
			h-1.295v-8.659h1.955l1.055,5.061h0.024l1.056-5.061H182.083z"/>
		<path style="fill:#FFF8DA;" d="M183.515,156.349v-8.659h3.982v1.295h-2.495v2.23h1.919v1.295h-1.919v2.542h2.663v1.295H183.515z"
			/>
		<path style="fill:#FFF8DA;" d="M191.613,149.824c-0.06-0.744-0.456-0.959-0.792-0.959c-0.48,0-0.744,0.312-0.744,0.852
			c0,1.475,3.022,2.183,3.022,4.534c0,1.427-0.959,2.219-2.351,2.219c-1.379,0-2.17-1.104-2.23-2.399l1.415-0.204
			c0.06,0.875,0.408,1.307,0.888,1.307c0.516,0,0.863-0.276,0.863-0.792c0-1.715-3.022-2.171-3.022-4.653
			c0-1.379,0.839-2.159,2.303-2.159c1.211,0,1.931,0.875,2.062,2.099L191.613,149.824z"/>
	</g>
</g>
<g id="nyt_x5F_exporter_x5F_info" style="display:none;">
</g>
</svg>
