<?xml version="1.0" encoding="iso-8859-1"?>
<!-- Generator: Adobe Illustrator 17.1.0, SVG Export Plug-In . SVG Version: 6.00 Build 0)  -->
<!DOCTYPE svg PUBLIC "-//W3C//DTD SVG 1.1//EN" "http://www.w3.org/Graphics/SVG/1.1/DTD/svg11.dtd">
<svg version="1.1" xmlns="http://www.w3.org/2000/svg" xmlns:xlink="http://www.w3.org/1999/xlink" x="0px" y="0px"
	 viewBox="0 0 300 187.812" style="enable-background:new 0 0 300 187.812;" xml:space="preserve">
<g id="Layer_1">
	<g>
		<path style="fill:#FFF8DA;" d="M33.208,7.106l2.483-4.463h1.908l-1.764,4.463h1.619v4.248h-4.247V7.106z M39.867,7.106
			l2.483-4.463h1.908l-1.764,4.463h1.619v4.248h-4.247V7.106z"/>
		<path style="fill:#FFF8DA;" d="M49.011,3.002h6.623c4.607,0,7.055,2.52,7.055,7.847v10.294c0,5.328-2.447,7.847-7.055,7.847
			h-6.623V3.002z M53.474,25.32h1.548c2.376,0,3.204-0.9,3.204-3.636V10.309c0-2.736-0.828-3.636-3.204-3.636h-1.548V25.32z"/>
		<path style="fill:#FFF8DA;" d="M67.802,28.991V3.002h4.464v25.989H67.802z"/>
		<path style="fill:#FFF8DA;" d="M85.514,9.41c-0.181-2.232-1.368-2.879-2.376-2.879c-1.44,0-2.231,0.936-2.231,2.556
			c0,4.427,9.07,6.551,9.07,13.606c0,4.284-2.88,6.659-7.055,6.659c-4.14,0-6.516-3.312-6.695-7.199l4.247-0.612
			c0.181,2.628,1.224,3.924,2.664,3.924c1.548,0,2.592-0.828,2.592-2.376c0-5.147-9.071-6.515-9.071-13.966
			c0-4.139,2.52-6.479,6.911-6.479c3.636,0,5.795,2.627,6.191,6.299L85.514,9.41z"/>
		<path style="fill:#FFF8DA;" d="M96.134,6.89h-4.319V3.002h13.102V6.89h-4.319v22.101h-4.463V6.89z"/>
		<path style="fill:#FFF8DA;" d="M108.337,28.991V3.002h4.464v25.989H108.337z"/>
		<path style="fill:#FFF8DA;" d="M117.914,28.991V3.002h4.14l5.436,14.866h0.072V3.002h4.031v25.989h-3.888l-5.688-16.234h-0.071
			v16.234H117.914z"/>
		<path style="fill:#FFF8DA;" d="M145.092,11.677V9.661c0-2.196-1.008-3.131-2.159-3.131c-1.8,0-2.376,0.936-2.376,2.879v13.174
			c0,1.944,0.576,2.88,2.376,2.88c1.619,0,2.159-0.936,2.159-2.628v-3.131h4.464v2.987c0,3.672-2.16,6.659-6.623,6.659
			c-4.68,0-6.84-2.987-6.84-6.659V9.302c0-3.671,2.16-6.659,6.84-6.659c4.463,0,6.623,3.24,6.623,7.127v1.908H145.092z"/>
		<path style="fill:#FFF8DA;" d="M156.866,6.89h-4.319V3.002h13.102V6.89h-4.319v22.101h-4.463V6.89z"/>
		<path style="fill:#FFF8DA;" d="M169.07,28.991V3.002h4.463v25.989H169.07z"/>
		<path style="fill:#FFF8DA;" d="M187.752,3.002h4.392l-5.436,25.989h-4.464l-5.436-25.989h4.392l3.24,18.034h0.071L187.752,3.002z"
			/>
		<path style="fill:#FFF8DA;" d="M194.809,28.991V3.002h11.95V6.89h-7.487v6.695h5.76v3.888h-5.76v7.631h7.991v3.888H194.809z"/>
		<path style="fill:#FFF8DA;" d="M221.735,28.991h-4.319l4.787-25.989h5.544l4.787,25.989h-4.319l-0.792-5.759h-4.896
			L221.735,28.991z M223.175,19.344h3.6L225.01,8.186h-0.071L223.175,19.344z"/>
		<path style="fill:#FFF8DA;" d="M235.307,28.991V3.002h4.14l5.435,14.866h0.072V3.002h4.031v25.989h-3.887l-5.688-16.234h-0.072
			v16.234H235.307z"/>
		<path style="fill:#FFF8DA;" d="M253.487,3.002h6.623c4.607,0,7.056,2.52,7.056,7.847v10.294c0,5.328-2.448,7.847-7.056,7.847
			h-6.623V3.002z M257.951,25.32h1.548c2.376,0,3.203-0.9,3.203-3.636V10.309c0-2.736-0.827-3.636-3.203-3.636h-1.548V25.32z"/>
		<path style="fill:#FFF8DA;" d="M59.269,45.677v-2.016c0-2.196-1.008-3.131-2.159-3.131c-1.8,0-2.376,0.936-2.376,2.879v13.174
			c0,1.944,0.576,2.88,2.376,2.88c1.619,0,2.159-0.936,2.159-2.628v-3.131h4.464v2.987c0,3.672-2.16,6.659-6.623,6.659
			c-4.68,0-6.84-2.987-6.84-6.659v-13.39c0-3.671,2.16-6.659,6.84-6.659c4.463,0,6.623,3.24,6.623,7.127v1.908H59.269z"/>
		<path style="fill:#FFF8DA;" d="M68.451,43.302c0-3.671,2.159-6.659,6.839-6.659s6.839,2.988,6.839,6.659v13.39
			c0,3.672-2.159,6.659-6.839,6.659s-6.839-2.987-6.839-6.659V43.302z M72.914,56.584c0,1.944,0.576,2.88,2.376,2.88
			s2.376-0.936,2.376-2.88V43.41c0-1.944-0.576-2.879-2.376-2.879s-2.376,0.936-2.376,2.879V56.584z"/>
		<path style="fill:#FFF8DA;" d="M104.52,37.002v25.989h-3.888V42.69h-0.072l-4.031,20.301H94.37L90.337,42.69h-0.071v20.301h-3.888
			V37.002h5.867l3.168,15.19h0.071l3.168-15.19H104.52z"/>
		<path style="fill:#FFF8DA;" d="M108.806,62.991V37.002h6.407c5.507,0,8.062,2.124,8.062,7.667s-2.556,7.667-8.062,7.667h-1.944
			v10.655H108.806z M113.269,48.665h1.729c2.915,0,3.815-0.9,3.815-3.996s-0.9-3.996-3.815-3.996h-1.729V48.665z"/>
		<path style="fill:#FFF8DA;" d="M126.986,62.991V37.002h11.951v3.888h-7.487v6.695h5.759v3.888h-5.759v7.631h7.991v3.888H126.986z"
			/>
		<path style="fill:#FFF8DA;" d="M142.933,62.991V37.002h4.464v22.101h7.019v3.888H142.933z"/>
		<path style="fill:#FFF8DA;" d="M157.118,62.991V37.002h4.463v22.101h7.02v3.888H157.118z"/>
		<path style="fill:#FFF8DA;" d="M172.128,62.991V37.002h4.464v25.989H172.128z"/>
		<path style="fill:#FFF8DA;" d="M181.705,62.991V37.002h4.14l5.436,14.866h0.072V37.002h4.031v25.989h-3.888l-5.688-16.234h-0.071
			v16.234H181.705z"/>
		<path style="fill:#FFF8DA;" d="M206.041,49.817h7.307v13.174h-2.159l-0.828-1.944c-1.332,1.584-2.412,2.304-4.5,2.304
			c-3.527,0-5.975-2.52-5.975-6.659v-13.39c0-3.671,2.159-6.659,6.551-6.659c4.464,0,6.695,3.24,6.695,7.127v1.656h-4.247
			c0-3.887-0.792-4.895-2.556-4.895c-1.08,0-1.98,0.647-1.98,2.843v13.354c0,1.656,0.54,2.736,2.088,2.736
			c1.8,0,2.448-1.008,2.448-3.6v-2.52h-2.844V49.817z"/>
		<path style="fill:#FFF8DA;" d="M219.865,62.991v-4.248h4.104v4.248H219.865z M231.851,62.991v-4.248h4.104v4.248H231.851z
			 M243.837,62.991v-4.248h4.104v4.248H243.837z"/>
		<path style="fill:#FFFFFF;" d="M17.42,73.163H15.5v-1.729h5.826v1.729h-1.921v9.828H17.42V73.163z"/>
		<path style="fill:#FFFFFF;" d="M22.652,82.991V71.434h1.985v4.706h2.112v-4.706h1.985v11.557H26.75v-5.122h-2.112v5.122H22.652z"
			/>
		<path style="fill:#FFFFFF;" d="M30.812,82.991V71.434h5.313v1.729h-3.329v2.978h2.562v1.729h-2.562v3.394h3.554v1.729H30.812z"/>
		<path style="fill:#FFFFFF;" d="M43.772,82.991h-1.984V71.434h2.785c2.225,0,3.361,0.944,3.361,3.409
			c0,1.857-0.721,2.609-1.393,2.914l1.681,5.234h-2.017l-1.409-4.786c-0.256,0.032-0.672,0.048-1.024,0.048V82.991z M43.772,76.62
			h0.704c1.072,0,1.473-0.4,1.473-1.777c0-1.376-0.4-1.776-1.473-1.776h-0.704V76.62z"/>
		<path style="fill:#FFFFFF;" d="M49.947,74.236c0-1.633,0.961-2.961,3.041-2.961c2.081,0,3.042,1.329,3.042,2.961v5.954
			c0,1.633-0.961,2.961-3.042,2.961c-2.08,0-3.041-1.329-3.041-2.961V74.236z M51.932,80.142c0,0.864,0.256,1.28,1.056,1.28
			c0.801,0,1.057-0.416,1.057-1.28v-5.858c0-0.864-0.256-1.281-1.057-1.281c-0.8,0-1.056,0.417-1.056,1.281V80.142z"/>
		<path style="fill:#FFFFFF;" d="M62.157,71.434h1.953l-2.417,11.557h-1.985l-2.417-11.557h1.953l1.44,8.019h0.032L62.157,71.434z"
			/>
		<path style="fill:#FFFFFF;" d="M65.371,82.991V71.434h5.314v1.729h-3.329v2.978h2.561v1.729h-2.561v3.394h3.553v1.729H65.371z"/>
		<path style="fill:#FFFFFF;" d="M74.619,82.991h-1.984V71.434h2.785c2.225,0,3.361,0.944,3.361,3.409
			c0,1.857-0.721,2.609-1.393,2.914l1.681,5.234h-2.017l-1.409-4.786c-0.256,0.032-0.672,0.048-1.024,0.048V82.991z M74.619,76.62
			h0.704c1.072,0,1.473-0.4,1.473-1.777c0-1.376-0.4-1.776-1.473-1.776h-0.704V76.62z"/>
		<path style="fill:#FFFFFF;" d="M84.778,82.991V71.434h1.985v11.557H84.778z"/>
		<path style="fill:#FFFFFF;" d="M92.731,74.284c-0.079-0.992-0.607-1.281-1.056-1.281c-0.641,0-0.993,0.417-0.993,1.137
			c0,1.969,4.034,2.913,4.034,6.05c0,1.905-1.28,2.961-3.138,2.961c-1.841,0-2.896-1.473-2.977-3.201l1.889-0.272
			c0.08,1.168,0.544,1.745,1.185,1.745c0.688,0,1.152-0.368,1.152-1.056c0-2.289-4.034-2.897-4.034-6.21
			c0-1.841,1.121-2.881,3.073-2.881c1.617,0,2.577,1.168,2.754,2.801L92.731,74.284z"/>
		<path style="fill:#FFFFFF;" d="M101.242,82.991h-1.921l2.129-11.557h2.466l2.129,11.557h-1.921l-0.353-2.561h-2.177
			L101.242,82.991z M101.882,78.702h1.601l-0.784-4.962h-0.032L101.882,78.702z"/>
		<path style="fill:#FFFFFF;" d="M119.02,71.434v11.557h-1.729v-9.028h-0.032l-1.793,9.028h-0.96l-1.793-9.028h-0.032v9.028h-1.729
			V71.434h2.609l1.408,6.755h0.032l1.408-6.755H119.02z"/>
		<path style="fill:#FFFFFF;" d="M122.153,82.991h-1.921l2.129-11.557h2.466l2.129,11.557h-1.921l-0.353-2.561h-2.177
			L122.153,82.991z M122.793,78.702h1.601l-0.784-4.962h-0.032L122.793,78.702z"/>
		<path style="fill:#FFFFFF;" d="M130.25,82.991h-1.984V71.434h2.785c2.225,0,3.361,0.944,3.361,3.409
			c0,1.857-0.721,2.609-1.393,2.914l1.681,5.234h-2.017l-1.409-4.786c-0.256,0.032-0.672,0.048-1.024,0.048V82.991z M130.25,76.62
			h0.704c1.072,0,1.473-0.4,1.473-1.777c0-1.376-0.4-1.776-1.473-1.776h-0.704V76.62z"/>
		<path style="fill:#FFFFFF;" d="M136.329,82.991V71.434h1.984v4.274h0.032l2.081-4.274h1.984l-2.145,4.306l2.417,7.251h-2.017
			l-1.617-5.378h-0.032l-0.704,1.28v4.098H136.329z"/>
		<path style="fill:#FFFFFF;" d="M147.4,74.236c0-1.633,0.961-2.961,3.041-2.961c2.081,0,3.042,1.329,3.042,2.961v5.954
			c0,1.633-0.961,2.961-3.042,2.961c-2.08,0-3.041-1.329-3.041-2.961V74.236z M149.385,80.142c0,0.864,0.256,1.28,1.056,1.28
			c0.801,0,1.057-0.416,1.057-1.28v-5.858c0-0.864-0.256-1.281-1.057-1.281c-0.8,0-1.056,0.417-1.056,1.281V80.142z"/>
		<path style="fill:#FFFFFF;" d="M155.56,82.991V71.434h5.538v1.729h-3.554v2.978h2.657v1.729h-2.657v5.122H155.56z"/>
		<path style="fill:#FFFFFF;" d="M165.623,81.422h0.417c0.768,0,1.04-0.32,1.04-0.96v-9.028h1.984v9.252
			c0,1.472-0.592,2.465-2.785,2.465h-0.656V81.422z"/>
		<path style="fill:#FFFFFF;" d="M171.143,71.434h1.985v8.724c0,0.848,0.336,1.264,1.056,1.264c0.721,0,1.057-0.416,1.057-1.264
			v-8.724h1.985v8.644c0,1.985-1.152,3.073-3.042,3.073c-1.889,0-3.041-1.088-3.041-3.073V71.434z"/>
		<path style="fill:#FFFFFF;" d="M182.92,74.284c-0.079-0.992-0.607-1.281-1.056-1.281c-0.641,0-0.993,0.417-0.993,1.137
			c0,1.969,4.034,2.913,4.034,6.05c0,1.905-1.28,2.961-3.138,2.961c-1.841,0-2.896-1.473-2.977-3.201l1.889-0.272
			c0.08,1.168,0.544,1.745,1.185,1.745c0.688,0,1.152-0.368,1.152-1.056c0-2.289-4.034-2.897-4.034-6.21
			c0-1.841,1.121-2.881,3.073-2.881c1.617,0,2.577,1.168,2.754,2.801L182.92,74.284z"/>
		<path style="fill:#FFFFFF;" d="M187.719,73.163h-1.921v-1.729h5.827v1.729h-1.921v9.828h-1.985V73.163z"/>
		<path style="fill:#FFFFFF;" d="M200.104,71.434h1.633l1.344,7.363h0.032l1.104-7.363h1.856l-2.032,11.557h-1.665l-1.44-7.635
			h-0.032l-1.345,7.635h-1.664l-2.193-11.557h1.857l1.216,7.363h0.032L200.104,71.434z"/>
		<path style="fill:#FFFFFF;" d="M207.495,82.991V71.434h1.984v4.706h2.113v-4.706h1.984v11.557h-1.984v-5.122h-2.113v5.122H207.495
			z"/>
		<path style="fill:#FFFFFF;" d="M216.806,82.991h-1.921l2.129-11.557h2.466l2.129,11.557h-1.921l-0.353-2.561h-2.177
			L216.806,82.991z M217.447,78.702h1.601l-0.784-4.962h-0.032L217.447,78.702z"/>
		<path style="fill:#FFFFFF;" d="M224.07,73.163h-1.921v-1.729h5.827v1.729h-1.921v9.828h-1.985V73.163z"/>
		<path style="fill:#FFFFFF;" d="M234.166,82.991h-1.921l2.129-11.557h2.465l2.129,11.557h-1.921l-0.352-2.561h-2.178
			L234.166,82.991z M234.805,78.702h1.602l-0.785-4.962h-0.031L234.805,78.702z"/>
		<path style="fill:#FFFFFF;" d="M245.141,73.163h-1.921v-1.729h5.826v1.729h-1.921v9.828h-1.984V73.163z"/>
		<path style="fill:#FFFFFF;" d="M251.524,82.991h-1.921l2.129-11.557h2.466l2.129,11.557h-1.921l-0.353-2.561h-2.177
			L251.524,82.991z M252.165,78.702h1.601l-0.784-4.962h-0.032L252.165,78.702z"/>
		<path style="fill:#FFFFFF;" d="M257.54,82.991V71.434h1.984v9.828h3.121v1.729H257.54z"/>
		<path style="fill:#FFFFFF;" d="M264.019,82.991V71.434h5.314v1.729h-3.329v2.978h2.561v1.729h-2.561v3.394h3.553v1.729H264.019z"
			/>
		<path style="fill:#FFFFFF;" d="M271.283,82.991V71.434h1.841l2.417,6.611h0.032v-6.611h1.793v11.557h-1.729l-2.528-7.219h-0.032
			v7.219H271.283z"/>
		<path style="fill:#FFFFFF;" d="M280.595,73.163h-1.921v-1.729h5.826v1.729h-1.921v9.828h-1.984V73.163z"/>
		<path style="fill:#FFFFFF;" d="M94.513,91.434h2.945c2.049,0,3.138,1.121,3.138,3.489v4.578c0,2.369-1.089,3.489-3.138,3.489
			h-2.945V91.434z M96.499,101.358h0.688c1.057,0,1.425-0.4,1.425-1.617v-5.058c0-1.217-0.368-1.617-1.425-1.617h-0.688V101.358z"/>
		<path style="fill:#FFFFFF;" d="M103.826,102.991h-1.921l2.129-11.557h2.466l2.129,11.557h-1.921l-0.353-2.561h-2.177
			L103.826,102.991z M104.466,98.702h1.601l-0.784-4.962h-0.032L104.466,98.702z"/>
		<path style="fill:#FFFFFF;" d="M113.987,91.434h1.952l-2.417,11.557h-1.984l-2.417-11.557h1.952l1.441,8.019h0.031L113.987,91.434
			z"/>
		<path style="fill:#FFFFFF;" d="M117.472,102.991V91.434h1.985v11.557H117.472z"/>
		<path style="fill:#FFFFFF;" d="M121.809,91.434h2.945c2.049,0,3.137,1.121,3.137,3.489v4.578c0,2.369-1.088,3.489-3.137,3.489
			h-2.945V91.434z M123.793,101.358h0.688c1.057,0,1.425-0.4,1.425-1.617v-5.058c0-1.217-0.368-1.617-1.425-1.617h-0.688V101.358z"
			/>
		<path style="fill:#FFFFFF;" d="M141.635,91.434v11.557h-1.729v-9.028h-0.032l-1.792,9.028h-0.961l-1.793-9.028h-0.031v9.028
			h-1.729V91.434h2.609l1.409,6.755h0.031l1.409-6.755H141.635z"/>
		<path style="fill:#FFFFFF;" d="M143.888,102.991V91.434h1.985v11.557H143.888z"/>
		<path style="fill:#FFFFFF;" d="M152.225,95.292v-0.896c0-0.976-0.448-1.393-0.96-1.393c-0.801,0-1.057,0.417-1.057,1.281v5.858
			c0,0.864,0.256,1.28,1.057,1.28c0.72,0,0.96-0.416,0.96-1.168v-1.393h1.985v1.329c0,1.633-0.961,2.961-2.945,2.961
			c-2.081,0-3.041-1.329-3.041-2.961v-5.954c0-1.633,0.96-2.961,3.041-2.961c1.984,0,2.945,1.44,2.945,3.169v0.848H152.225z"/>
		<path style="fill:#FFFFFF;" d="M156.384,102.991V91.434h1.984v4.706h2.113v-4.706h1.984v11.557h-1.984v-5.122h-2.113v5.122
			H156.384z"/>
		<path style="fill:#FFFFFF;" d="M164.544,94.236c0-1.633,0.96-2.961,3.041-2.961s3.041,1.329,3.041,2.961v5.954
			c0,1.633-0.96,2.961-3.041,2.961s-3.041-1.329-3.041-2.961V94.236z M166.705,88.521h1.761l1.537,2.305h-1.473l-0.944-1.424
			l-0.944,1.424h-1.473L166.705,88.521z M166.529,100.142c0,0.864,0.256,1.28,1.057,1.28c0.8,0,1.057-0.416,1.057-1.28v-5.858
			c0-0.864-0.257-1.281-1.057-1.281c-0.801,0-1.057,0.417-1.057,1.281V100.142z"/>
		<path style="fill:#FFFFFF;" d="M172.704,91.434h2.945c2.049,0,3.138,1.121,3.138,3.489v4.578c0,2.369-1.089,3.489-3.138,3.489
			h-2.945V91.434z M174.689,101.358h0.688c1.057,0,1.425-0.4,1.425-1.617v-5.058c0-1.217-0.368-1.617-1.425-1.617h-0.688V101.358z"
			/>
		<path style="fill:#FFFFFF;" d="M184.848,102.991V91.434h1.984v11.557H184.848z"/>
		<path style="fill:#FFFFFF;" d="M192.801,94.284c-0.079-0.992-0.607-1.281-1.056-1.281c-0.641,0-0.993,0.417-0.993,1.137
			c0,1.969,4.034,2.913,4.034,6.05c0,1.905-1.28,2.961-3.138,2.961c-1.841,0-2.896-1.473-2.977-3.201l1.889-0.272
			c0.08,1.168,0.544,1.745,1.185,1.745c0.688,0,1.152-0.368,1.152-1.056c0-2.289-4.034-2.897-4.034-6.21
			c0-1.841,1.121-2.881,3.073-2.881c1.617,0,2.577,1.168,2.754,2.801L192.801,94.284z"/>
		<path style="fill:#FFFFFF;" d="M196.32,102.991v-1.889h1.889v1.889H196.32z"/>
		<path style="fill:#FFFFFF;" d="M200.032,102.991v-1.889h1.889v1.889H200.032z"/>
		<path style="fill:#FFFFFF;" d="M203.744,102.991v-1.889h1.889v1.889H203.744z"/>
		<path style="fill:#FFFFFF;" d="M52.587,113.163h-1.921v-1.729h5.826v1.729h-1.921v9.828h-1.984V113.163z"/>
		<path style="fill:#FFFFFF;" d="M57.819,122.991v-11.557h1.985v4.706h2.112v-4.706h1.985v11.557h-1.985v-5.122h-2.112v5.122H57.819
			z"/>
		<path style="fill:#FFFFFF;" d="M66.25,122.991v-11.557h1.985v11.557H66.25z"/>
		<path style="fill:#FFFFFF;" d="M74.205,114.284c-0.08-0.992-0.608-1.281-1.057-1.281c-0.64,0-0.992,0.417-0.992,1.137
			c0,1.969,4.033,2.913,4.033,6.05c0,1.905-1.28,2.961-3.137,2.961c-1.841,0-2.897-1.473-2.978-3.201l1.889-0.272
			c0.08,1.168,0.545,1.745,1.185,1.745c0.688,0,1.152-0.368,1.152-1.056c0-2.289-4.033-2.897-4.033-6.21
			c0-1.841,1.12-2.881,3.073-2.881c1.616,0,2.577,1.168,2.753,2.801L74.205,114.284z"/>
		<path style="fill:#FFFFFF;" d="M81.834,122.991v-11.557h1.984v11.557H81.834z"/>
		<path style="fill:#FFFFFF;" d="M89.788,114.284c-0.079-0.992-0.607-1.281-1.056-1.281c-0.641,0-0.993,0.417-0.993,1.137
			c0,1.969,4.034,2.913,4.034,6.05c0,1.905-1.28,2.961-3.138,2.961c-1.841,0-2.896-1.473-2.977-3.201l1.889-0.272
			c0.08,1.168,0.544,1.745,1.185,1.745c0.688,0,1.152-0.368,1.152-1.056c0-2.289-4.034-2.897-4.034-6.21
			c0-1.841,1.121-2.881,3.073-2.881c1.617,0,2.577,1.168,2.754,2.801L89.788,114.284z"/>
		<path style="fill:#FFFFFF;" d="M97.146,122.991v-11.557h1.984v4.706h2.113v-4.706h1.984v11.557h-1.984v-5.122H99.13v5.122H97.146z
			"/>
		<path style="fill:#FFFFFF;" d="M105.306,114.236c0-1.633,0.96-2.961,3.041-2.961s3.041,1.329,3.041,2.961v5.954
			c0,1.633-0.96,2.961-3.041,2.961s-3.041-1.329-3.041-2.961V114.236z M107.291,120.142c0,0.864,0.256,1.28,1.057,1.28
			c0.8,0,1.057-0.416,1.057-1.28v-5.858c0-0.864-0.257-1.281-1.057-1.281c-0.801,0-1.057,0.417-1.057,1.281V120.142z"/>
		<path style="fill:#FFFFFF;" d="M116.908,111.434h1.633l1.344,7.363h0.032l1.104-7.363h1.856l-2.032,11.557h-1.665l-1.44-7.635
			h-0.032l-1.345,7.635h-1.664l-2.193-11.557h1.857l1.216,7.363h0.032L116.908,111.434z"/>
		<path style="fill:#FFFFFF;" d="M129.162,122.991h-1.921l2.129-11.557h2.466l2.129,11.557h-1.921l-0.353-2.561h-2.177
			L129.162,122.991z M129.802,118.702h1.601l-0.784-4.962h-0.032L129.802,118.702z"/>
		<path style="fill:#FFFFFF;" d="M135.273,111.434h1.985v8.724c0,0.848,0.336,1.264,1.056,1.264c0.721,0,1.057-0.416,1.057-1.264
			v-8.724h1.985v8.644c0,1.985-1.152,3.073-3.042,3.073c-1.889,0-3.041-1.088-3.041-3.073V111.434z"/>
		<path style="fill:#FFFFFF;" d="M144.585,113.163h-1.921v-1.729h5.827v1.729h-1.921v9.828h-1.985V113.163z"/>
		<path style="fill:#FFFFFF;" d="M149.817,122.991v-11.557h5.313v1.729h-3.329v2.978h2.562v1.729h-2.562v3.394h3.554v1.729H149.817z
			"/>
		<path style="fill:#FFFFFF;" d="M157.081,111.434h1.984v8.724c0,0.848,0.336,1.264,1.057,1.264c0.72,0,1.057-0.416,1.057-1.264
			v-8.724h1.984v8.644c0,1.985-1.152,3.073-3.041,3.073s-3.041-1.088-3.041-3.073V111.434z"/>
		<path style="fill:#FFFFFF;" d="M167.225,122.991h-1.984v-11.557h2.785c2.225,0,3.361,0.944,3.361,3.409
			c0,1.857-0.721,2.609-1.393,2.914l1.681,5.234h-2.017l-1.409-4.786c-0.256,0.032-0.672,0.048-1.024,0.048V122.991z
			 M167.225,116.62h0.704c1.072,0,1.473-0.4,1.473-1.777c0-1.376-0.4-1.776-1.473-1.776h-0.704V116.62z"/>
		<path style="fill:#FFFFFF;" d="M177.017,114.284c-0.079-0.992-0.607-1.281-1.056-1.281c-0.641,0-0.993,0.417-0.993,1.137
			c0,1.969,4.034,2.913,4.034,6.05c0,1.905-1.28,2.961-3.138,2.961c-1.841,0-2.896-1.473-2.977-3.201l1.889-0.272
			c0.08,1.168,0.544,1.745,1.185,1.745c0.688,0,1.152-0.368,1.152-1.056c0-2.289-4.034-2.897-4.034-6.21
			c0-1.841,1.121-2.881,3.073-2.881c1.617,0,2.577,1.168,2.754,2.801L177.017,114.284z"/>
		<path style="fill:#FFFFFF;" d="M185.528,122.991h-1.921l2.129-11.557h2.466l2.129,11.557h-1.921l-0.353-2.561h-2.177
			L185.528,122.991z M186.168,118.702h1.601l-0.784-4.962h-0.032L186.168,118.702z"/>
		<path style="fill:#FFFFFF;" d="M193.624,122.991h-1.984v-11.557h2.785c2.225,0,3.361,0.944,3.361,3.409
			c0,1.857-0.721,2.609-1.393,2.914l1.681,5.234h-2.017l-1.409-4.786c-0.256,0.032-0.672,0.048-1.024,0.048V122.991z
			 M193.624,116.62h0.704c1.072,0,1.473-0.4,1.473-1.777c0-1.376-0.4-1.776-1.473-1.776h-0.704V116.62z"/>
		<path style="fill:#FFFFFF;" d="M199.799,122.991v-11.557h5.313v1.729h-3.329v2.978h2.562v1.729h-2.562v3.394h3.554v1.729H199.799z
			"/>
		<path style="fill:#FFFFFF;" d="M218.729,111.434v11.557H217v-9.028h-0.032l-1.792,9.028h-0.961l-1.793-9.028h-0.031v9.028h-1.729
			v-11.557h2.609l1.409,6.755h0.031l1.409-6.755H218.729z"/>
		<path style="fill:#FFFFFF;" d="M221.863,122.991h-1.921l2.129-11.557h2.465l2.129,11.557h-1.921l-0.352-2.561h-2.178
			L221.863,122.991z M222.502,118.702h1.602l-0.785-4.962h-0.031L222.502,118.702z"/>
		<path style="fill:#FFFFFF;" d="M227.974,111.434h2.945c2.049,0,3.138,1.121,3.138,3.489v4.578c0,2.369-1.089,3.489-3.138,3.489
			h-2.945V111.434z M229.959,121.358h0.688c1.057,0,1.425-0.4,1.425-1.617v-5.058c0-1.217-0.368-1.617-1.425-1.617h-0.688V121.358z"
			/>
		<path style="fill:#FFFFFF;" d="M236.134,122.991v-11.557h5.313v1.729h-3.329v2.978h2.562v1.729h-2.562v3.394h3.554v1.729H236.134z
			"/>
		<path style="fill:#FFFFFF;" d="M245.462,113.323l-1.104,1.985h-0.849l0.785-1.985h-0.721v-1.889h1.889V113.323z M248.423,113.323
			l-1.104,1.985h-0.848l0.784-1.985h-0.721v-1.889h1.889V113.323z"/>
		<path style="fill:#FFF8DA;" d="M122.27,137.627h-1.439v-1.295h4.366v1.295h-1.439v7.364h-1.487V137.627z"/>
		<path style="fill:#FFF8DA;" d="M126.134,144.991v-8.659h1.487v3.526h1.583v-3.526h1.487v8.659h-1.487v-3.838h-1.583v3.838H126.134
			z"/>
		<path style="fill:#FFF8DA;" d="M132.195,144.991v-8.659h3.981v1.295h-2.494v2.23h1.919v1.295h-1.919v2.542h2.662v1.295H132.195z"
			/>
		<path style="fill:#FFF8DA;" d="M140.306,144.991v-8.659h2.135c1.835,0,2.687,0.708,2.687,2.555c0,1.847-0.852,2.555-2.687,2.555
			h-0.647v3.55H140.306z M141.793,140.218h0.575c0.972,0,1.271-0.3,1.271-1.331c0-1.032-0.3-1.332-1.271-1.332h-0.575V140.218z"/>
		<path style="fill:#FFF8DA;" d="M146.293,144.991v-8.659h1.487v7.364h2.339v1.295H146.293z"/>
		<path style="fill:#FFF8DA;" d="M151.957,144.991h-1.438l1.595-8.659h1.847l1.596,8.659h-1.439l-0.264-1.919h-1.631
			L151.957,144.991z M152.437,141.777h1.199l-0.588-3.718h-0.024L152.437,141.777z"/>
		<path style="fill:#FFF8DA;" d="M159.167,144.991h-1.487v-3.598l-1.799-5.061h1.512l1.043,3.298h0.024l0.995-3.298h1.511
			l-1.799,5.061V144.991z"/>
		<path style="fill:#FFF8DA;" d="M161.796,144.991v-8.659h1.487v7.364h2.339v1.295H161.796z"/>
		<path style="fill:#FFF8DA;" d="M166.8,144.991v-8.659h1.487v8.659H166.8z"/>
		<path style="fill:#FFF8DA;" d="M172.704,138.467c-0.061-0.744-0.456-0.959-0.792-0.959c-0.479,0-0.743,0.312-0.743,0.852
			c0,1.475,3.022,2.183,3.022,4.534c0,1.427-0.96,2.219-2.352,2.219c-1.379,0-2.17-1.104-2.23-2.399l1.415-0.204
			c0.061,0.875,0.408,1.307,0.888,1.307c0.516,0,0.863-0.276,0.863-0.792c0-1.715-3.021-2.171-3.021-4.653
			c0-1.379,0.839-2.159,2.303-2.159c1.211,0,1.931,0.875,2.062,2.099L172.704,138.467z"/>
		<path style="fill:#FFF8DA;" d="M176.244,137.627h-1.438v-1.295h4.365v1.295h-1.439v7.364h-1.487V137.627z"/>
	</g>
</g>
<g id="nyt_x5F_exporter_x5F_info" style="display:none;">
</g>
</svg>
