<?xml version="1.0" encoding="iso-8859-1"?>
<!-- Generator: Adobe Illustrator 17.1.0, SVG Export Plug-In . SVG Version: 6.00 Build 0)  -->
<!DOCTYPE svg PUBLIC "-//W3C//DTD SVG 1.1//EN" "http://www.w3.org/Graphics/SVG/1.1/DTD/svg11.dtd">
<svg version="1.1" xmlns="http://www.w3.org/2000/svg" xmlns:xlink="http://www.w3.org/1999/xlink" x="0px" y="0px"
	 viewBox="0 0 300 187.812" style="enable-background:new 0 0 300 187.812;" xml:space="preserve">
<g id="Layer_1">
	<g>
		<path style="fill:#FFFFFF;" d="M38.721,57.985L39.826,56h0.849l-0.784,1.985h0.72v1.889h-1.889V57.985z M41.682,57.985L42.787,56
			h0.849l-0.784,1.985h0.72v1.889h-1.889V57.985z"/>
		<path style="fill:#FFFFFF;" d="M47.81,67.717h-1.984V56.16h2.785c2.225,0,3.361,0.944,3.361,3.409
			c0,1.857-0.721,2.609-1.393,2.914l1.681,5.234h-2.018l-1.408-4.786c-0.256,0.032-0.672,0.048-1.024,0.048V67.717z M47.81,61.346
			h0.704c1.072,0,1.473-0.4,1.473-1.777c0-1.376-0.4-1.776-1.473-1.776H47.81V61.346z"/>
		<path style="fill:#FFFFFF;" d="M53.985,58.961c0-1.633,0.961-2.961,3.041-2.961c2.081,0,3.042,1.329,3.042,2.961v5.954
			c0,1.633-0.961,2.961-3.042,2.961c-2.08,0-3.041-1.329-3.041-2.961V58.961z M55.97,64.868c0,0.864,0.256,1.28,1.056,1.28
			c0.801,0,1.057-0.416,1.057-1.28v-5.858c0-0.864-0.256-1.281-1.057-1.281c-0.8,0-1.056,0.417-1.056,1.281V64.868z"/>
		<path style="fill:#FFFFFF;" d="M62.145,56.16h2.945c2.129,0,3.073,1.088,3.073,3.057c0,0.993-0.416,2.033-1.377,2.417
			c1.009,0.448,1.602,1.249,1.602,2.737c0,1.905-0.849,3.345-3.105,3.345h-3.138V56.16z M64.13,60.898h0.72
			c0.753,0,1.329-0.512,1.329-1.473c0-1.072-0.417-1.632-1.297-1.632H64.13V60.898z M64.13,66.084h0.832
			c1.057,0,1.44-0.608,1.44-1.776c0-1.185-0.448-1.777-1.633-1.777h-0.64V66.084z"/>
		<path style="fill:#FFFFFF;" d="M70.305,67.717V56.16h5.314v1.729h-3.329v2.978h2.561v1.729h-2.561v3.394h3.553v1.729H70.305z"/>
		<path style="fill:#FFFFFF;" d="M79.553,67.717h-1.984V56.16h2.785c2.225,0,3.361,0.944,3.361,3.409
			c0,1.857-0.721,2.609-1.393,2.914l1.681,5.234h-2.018l-1.408-4.786c-0.256,0.032-0.672,0.048-1.024,0.048V67.717z M79.553,61.346
			h0.704c1.072,0,1.473-0.4,1.473-1.777c0-1.376-0.4-1.776-1.473-1.776h-0.704V61.346z"/>
		<path style="fill:#FFFFFF;" d="M86.881,57.889H84.96V56.16h5.826v1.729h-1.921v9.828h-1.984V57.889z"/>
		<path style="fill:#FFFFFF;" d="M95.824,67.717V56.16h2.85c2.448,0,3.585,0.944,3.585,3.409c0,2.465-1.137,3.41-3.585,3.41h-0.864
			v4.738H95.824z M97.809,61.346h0.768c1.297,0,1.697-0.4,1.697-1.777c0-1.376-0.4-1.776-1.697-1.776h-0.768V61.346z"/>
		<path style="fill:#FFFFFF;" d="M105.136,67.717h-1.921l2.129-11.557h2.466l2.128,11.557h-1.92l-0.353-2.561h-2.177L105.136,67.717
			z M105.777,63.427h1.601l-0.784-4.962h-0.032L105.777,63.427z"/>
		<path style="fill:#FFFFFF;" d="M112.4,57.889h-1.921V56.16h5.827v1.729h-1.921v9.828H112.4V57.889z"/>
		<path style="fill:#FFFFFF;" d="M118.784,57.889h-1.921V56.16h5.826v1.729h-1.921v9.828h-1.984V57.889z"/>
		<path style="fill:#FFFFFF;" d="M124.287,67.717V56.16h1.985v11.557H124.287z"/>
		<path style="fill:#FFFFFF;" d="M128.624,67.717V56.16h1.841l2.417,6.611h0.031V56.16h1.793v11.557h-1.729l-2.529-7.219h-0.032
			v7.219H128.624z"/>
		<path style="fill:#FFFFFF;" d="M140.401,59.009c-0.08-0.992-0.608-1.281-1.057-1.281c-0.64,0-0.992,0.417-0.992,1.137
			c0,1.969,4.033,2.913,4.033,6.05c0,1.905-1.28,2.961-3.137,2.961c-1.841,0-2.897-1.473-2.978-3.201l1.889-0.272
			c0.08,1.168,0.545,1.745,1.185,1.745c0.688,0,1.152-0.368,1.152-1.056c0-2.289-4.033-2.897-4.033-6.21
			c0-1.841,1.12-2.881,3.073-2.881c1.616,0,2.577,1.168,2.753,2.801L140.401,59.009z"/>
		<path style="fill:#FFFFFF;" d="M144.046,58.961c0-1.633,0.961-2.961,3.041-2.961c2.081,0,3.042,1.329,3.042,2.961v5.954
			c0,1.633-0.961,2.961-3.042,2.961c-2.08,0-3.041-1.329-3.041-2.961V58.961z M146.032,64.868c0,0.864,0.256,1.28,1.056,1.28
			c0.801,0,1.057-0.416,1.057-1.28v-5.858c0-0.864-0.256-1.281-1.057-1.281c-0.8,0-1.056,0.417-1.056,1.281V64.868z"/>
		<path style="fill:#FFFFFF;" d="M152.207,67.717V56.16h1.841l2.417,6.611h0.032V56.16h1.793v11.557h-1.729l-2.528-7.219H154v7.219
			H152.207z"/>
		<path style="fill:#FFFFFF;" d="M162.127,58.049l-1.104,1.985h-0.849l0.785-1.985h-0.721V56.16h1.889V58.049z"/>
		<path style="fill:#FFFFFF;" d="M167.696,59.009c-0.08-0.992-0.608-1.281-1.057-1.281c-0.64,0-0.992,0.417-0.992,1.137
			c0,1.969,4.033,2.913,4.033,6.05c0,1.905-1.28,2.961-3.137,2.961c-1.841,0-2.897-1.473-2.978-3.201l1.889-0.272
			c0.08,1.168,0.545,1.745,1.185,1.745c0.688,0,1.152-0.368,1.152-1.056c0-2.289-4.033-2.897-4.033-6.21
			c0-1.841,1.12-2.881,3.073-2.881c1.616,0,2.577,1.168,2.753,2.801L167.696,59.009z"/>
		<path style="fill:#FFFFFF;" d="M175.054,67.717V56.16h2.849c2.449,0,3.586,0.944,3.586,3.409c0,2.465-1.137,3.41-3.586,3.41
			h-0.864v4.738H175.054z M177.039,61.346h0.769c1.297,0,1.696-0.4,1.696-1.777c0-1.376-0.399-1.776-1.696-1.776h-0.769V61.346z"/>
		<path style="fill:#FFFFFF;" d="M183.213,67.717V56.16h5.314v1.729h-3.329v2.978h2.561v1.729h-2.561v3.394h3.553v1.729H183.213z"/>
		<path style="fill:#FFFFFF;" d="M192.462,67.717h-1.985V56.16h2.785c2.225,0,3.361,0.944,3.361,3.409
			c0,1.857-0.72,2.609-1.393,2.914l1.681,5.234h-2.017l-1.408-4.786c-0.257,0.032-0.673,0.048-1.024,0.048V67.717z M192.462,61.346
			h0.704c1.072,0,1.473-0.4,1.473-1.777c0-1.376-0.4-1.776-1.473-1.776h-0.704V61.346z"/>
		<path style="fill:#FFFFFF;" d="M198.637,67.717V56.16h5.538v1.729h-3.553v2.978h2.656v1.729h-2.656v5.122H198.637z"/>
		<path style="fill:#FFFFFF;" d="M205.901,58.961c0-1.633,0.96-2.961,3.041-2.961s3.041,1.329,3.041,2.961v5.954
			c0,1.633-0.96,2.961-3.041,2.961s-3.041-1.329-3.041-2.961V58.961z M207.885,64.868c0,0.864,0.256,1.28,1.057,1.28
			c0.8,0,1.057-0.416,1.057-1.28v-5.858c0-0.864-0.257-1.281-1.057-1.281c-0.801,0-1.057,0.417-1.057,1.281V64.868z"/>
		<path style="fill:#FFFFFF;" d="M216.045,67.717h-1.984V56.16h2.785c2.225,0,3.361,0.944,3.361,3.409
			c0,1.857-0.721,2.609-1.393,2.914l1.681,5.234h-2.018l-1.408-4.786c-0.256,0.032-0.672,0.048-1.024,0.048V67.717z M216.045,61.346
			h0.704c1.072,0,1.473-0.4,1.473-1.777c0-1.376-0.4-1.776-1.473-1.776h-0.704V61.346z"/>
		<path style="fill:#FFFFFF;" d="M230.176,56.16v11.557h-1.729v-9.028h-0.032l-1.793,9.028h-0.96l-1.793-9.028h-0.032v9.028h-1.729
			V56.16h2.609l1.408,6.755h0.032l1.408-6.755H230.176z"/>
		<path style="fill:#FFFFFF;" d="M233.309,67.717h-1.921l2.129-11.557h2.465l2.129,11.557h-1.921l-0.352-2.561h-2.178
			L233.309,67.717z M233.949,63.427h1.601l-0.784-4.962h-0.031L233.949,63.427z"/>
		<path style="fill:#FFFFFF;" d="M239.42,67.717V56.16h1.841l2.417,6.611h0.032V56.16h1.793v11.557h-1.729l-2.528-7.219h-0.032
			v7.219H239.42z"/>
		<path style="fill:#FFFFFF;" d="M251.583,60.018v-0.896c0-0.976-0.448-1.393-0.961-1.393c-0.8,0-1.056,0.417-1.056,1.281v5.858
			c0,0.864,0.256,1.28,1.056,1.28c0.721,0,0.961-0.416,0.961-1.168v-1.393h1.984v1.329c0,1.633-0.96,2.961-2.945,2.961
			c-2.08,0-3.041-1.329-3.041-2.961v-5.954c0-1.633,0.961-2.961,3.041-2.961c1.985,0,2.945,1.44,2.945,3.169v0.848H251.583z"/>
		<path style="fill:#FFFFFF;" d="M255.741,67.717V56.16h5.313v1.729h-3.329v2.978h2.562v1.729h-2.562v3.394h3.554v1.729H255.741z"/>
		<path style="fill:#FFFFFF;" d="M68.658,87.717h-1.984V76.16h2.785c2.225,0,3.361,0.944,3.361,3.409
			c0,1.857-0.721,2.609-1.393,2.914l1.681,5.234H71.09l-1.408-4.786c-0.256,0.032-0.672,0.048-1.024,0.048V87.717z M68.658,81.346
			h0.704c1.072,0,1.473-0.4,1.473-1.777c0-1.376-0.4-1.776-1.473-1.776h-0.704V81.346z"/>
		<path style="fill:#FFFFFF;" d="M74.833,87.717V76.16h5.313v1.729h-3.329v2.978h2.562v1.729h-2.562v3.394h3.554v1.729H74.833z"/>
		<path style="fill:#FFFFFF;" d="M86.146,76.16h1.953l-2.417,11.557h-1.985L81.28,76.16h1.953l1.44,8.019h0.032L86.146,76.16z"/>
		<path style="fill:#FFFFFF;" d="M89.36,87.717V76.16h5.314v1.729h-3.329v2.978h2.561v1.729h-2.561v3.394h3.553v1.729H89.36z"/>
		<path style="fill:#FFFFFF;" d="M97.776,87.717h-1.921l2.129-11.557h2.466l2.128,11.557h-1.92l-0.353-2.561h-2.177L97.776,87.717z
			 M98.417,83.427h1.601l-0.784-4.962h-0.032L98.417,83.427z"/>
		<path style="fill:#FFFFFF;" d="M103.791,87.717V76.16h1.985v9.828h3.121v1.729H103.791z"/>
		<path style="fill:#FFFFFF;" d="M113.888,79.009c-0.08-0.992-0.608-1.281-1.057-1.281c-0.64,0-0.992,0.417-0.992,1.137
			c0,1.969,4.033,2.913,4.033,6.05c0,1.905-1.28,2.961-3.137,2.961c-1.841,0-2.897-1.473-2.978-3.201l1.889-0.272
			c0.08,1.168,0.545,1.745,1.185,1.745c0.688,0,1.152-0.368,1.152-1.056c0-2.289-4.033-2.897-4.033-6.21
			c0-1.841,1.12-2.881,3.073-2.881c1.616,0,2.577,1.168,2.753,2.801L113.888,79.009z"/>
		<path style="fill:#FFFFFF;" d="M121.246,76.16h1.985v8.724c0,0.848,0.336,1.264,1.056,1.264c0.721,0,1.057-0.416,1.057-1.264
			V76.16h1.985v8.644c0,1.985-1.153,3.073-3.042,3.073s-3.041-1.088-3.041-3.073V76.16z"/>
		<path style="fill:#FFFFFF;" d="M129.406,87.717V76.16h1.841l2.417,6.611h0.032V76.16h1.793v11.557h-1.729l-2.528-7.219h-0.032
			v7.219H129.406z"/>
		<path style="fill:#FFFFFF;" d="M138.718,77.889h-1.921V76.16h5.827v1.729h-1.921v9.828h-1.985V77.889z"/>
		<path style="fill:#FFFFFF;" d="M143.95,78.961c0-1.633,0.96-2.961,3.041-2.961s3.041,1.329,3.041,2.961v5.954
			c0,1.633-0.96,2.961-3.041,2.961s-3.041-1.329-3.041-2.961V78.961z M145.934,84.868c0,0.864,0.256,1.28,1.057,1.28
			c0.8,0,1.057-0.416,1.057-1.28v-5.858c0-0.864-0.257-1.281-1.057-1.281c-0.801,0-1.057,0.417-1.057,1.281V84.868z"/>
		<path style="fill:#FFFFFF;" d="M152.013,87.717V76.16h1.985v9.828h3.121v1.729H152.013z"/>
		<path style="fill:#FFFFFF;" d="M158.494,76.16h2.945c2.049,0,3.137,1.121,3.137,3.489v4.578c0,2.369-1.088,3.489-3.137,3.489
			h-2.945V76.16z M160.478,86.084h0.688c1.057,0,1.425-0.4,1.425-1.617V79.41c0-1.217-0.368-1.617-1.425-1.617h-0.688V86.084z"/>
		<path style="fill:#FFFFFF;" d="M170.365,76.16h2.945c2.049,0,3.138,1.121,3.138,3.489v4.578c0,2.369-1.089,3.489-3.138,3.489
			h-2.945V76.16z M172.35,86.084h0.688c1.057,0,1.425-0.4,1.425-1.617V79.41c0-1.217-0.368-1.617-1.425-1.617h-0.688V86.084z"/>
		<path style="fill:#FFFFFF;" d="M178.525,87.717V76.16h5.314v1.729h-3.329v2.978h2.561v1.729h-2.561v3.394h3.553v1.729H178.525z"/>
		<path style="fill:#FFFFFF;" d="M185.789,87.717V76.16h2.85c2.448,0,3.585,0.944,3.585,3.409c0,2.465-1.137,3.41-3.585,3.41h-0.864
			v4.738H185.789z M187.774,81.346h0.768c1.297,0,1.697-0.4,1.697-1.777c0-1.376-0.4-1.776-1.697-1.776h-0.768V81.346z"/>
		<path style="fill:#FFFFFF;" d="M195.101,77.889h-1.921V76.16h5.826v1.729h-1.921v9.828h-1.984V77.889z"/>
		<path style="fill:#FFFFFF;" d="M200.333,87.717V76.16h1.984v4.706h2.113V76.16h1.984v11.557h-1.984v-5.122h-2.113v5.122H200.333z"
			/>
		<path style="fill:#FFFFFF;" d="M212.11,79.009c-0.08-0.992-0.608-1.281-1.057-1.281c-0.64,0-0.992,0.417-0.992,1.137
			c0,1.969,4.033,2.913,4.033,6.05c0,1.905-1.28,2.961-3.137,2.961c-1.841,0-2.897-1.473-2.978-3.201l1.889-0.272
			c0.08,1.168,0.545,1.745,1.185,1.745c0.688,0,1.152-0.368,1.152-1.056c0-2.289-4.033-2.897-4.033-6.21
			c0-1.841,1.12-2.881,3.073-2.881c1.616,0,2.577,1.168,2.753,2.801L212.11,79.009z"/>
		<path style="fill:#FFFFFF;" d="M219.467,78.961c0-1.633,0.961-2.961,3.041-2.961c2.081,0,3.042,1.329,3.042,2.961v5.954
			c0,1.633-0.961,2.961-3.042,2.961c-2.08,0-3.041-1.329-3.041-2.961V78.961z M221.453,84.868c0,0.864,0.256,1.28,1.056,1.28
			c0.801,0,1.057-0.416,1.057-1.28v-5.858c0-0.864-0.256-1.281-1.057-1.281c-0.8,0-1.056,0.417-1.056,1.281V84.868z"/>
		<path style="fill:#FFFFFF;" d="M227.627,87.717V76.16h5.538v1.729h-3.553v2.978h2.656v1.729h-2.656v5.122H227.627z"/>
		<path style="fill:#FFFFFF;" d="M73.323,99.009c-0.08-0.992-0.608-1.281-1.057-1.281c-0.64,0-0.992,0.417-0.992,1.137
			c0,1.969,4.033,2.913,4.033,6.05c0,1.905-1.28,2.961-3.137,2.961c-1.841,0-2.897-1.473-2.978-3.201l1.889-0.272
			c0.08,1.168,0.545,1.745,1.185,1.745c0.688,0,1.152-0.368,1.152-1.056c0-2.289-4.033-2.897-4.033-6.21
			c0-1.841,1.12-2.881,3.073-2.881c1.616,0,2.577,1.168,2.753,2.801L73.323,99.009z"/>
		<path style="fill:#FFFFFF;" d="M76.969,107.717V96.16h5.313v1.729h-3.329v2.978h2.562v1.729h-2.562v3.394h3.554v1.729H76.969z"/>
		<path style="fill:#FFFFFF;" d="M84.232,107.717V96.16h1.841l2.417,6.611h0.032V96.16h1.793v11.557h-1.729l-2.528-7.219h-0.032
			v7.219H84.232z"/>
		<path style="fill:#FFFFFF;" d="M96.009,99.009c-0.079-0.992-0.607-1.281-1.056-1.281c-0.641,0-0.993,0.417-0.993,1.137
			c0,1.969,4.034,2.913,4.034,6.05c0,1.905-1.28,2.961-3.138,2.961c-1.841,0-2.896-1.473-2.977-3.201l1.889-0.272
			c0.08,1.168,0.544,1.745,1.185,1.745c0.688,0,1.152-0.368,1.152-1.056c0-2.289-4.034-2.897-4.034-6.21
			c0-1.841,1.121-2.881,3.073-2.881c1.617,0,2.577,1.168,2.754,2.801L96.009,99.009z"/>
		<path style="fill:#FFFFFF;" d="M99.928,107.717V96.16h1.984v11.557H99.928z"/>
		<path style="fill:#FFFFFF;" d="M105.417,97.889h-1.921V96.16h5.826v1.729h-1.921v9.828h-1.984V97.889z"/>
		<path style="fill:#FFFFFF;" d="M110.919,107.717V96.16h1.985v11.557H110.919z"/>
		<path style="fill:#FFFFFF;" d="M119.306,96.16h1.952l-2.417,11.557h-1.984L114.44,96.16h1.952l1.441,8.019h0.031L119.306,96.16z"
			/>
		<path style="fill:#FFFFFF;" d="M122.792,107.717V96.16h1.984v11.557H122.792z"/>
		<path style="fill:#FFFFFF;" d="M128.28,97.889h-1.921V96.16h5.827v1.729h-1.921v9.828h-1.985V97.889z"/>
		<path style="fill:#FFFFFF;" d="M137.097,107.717h-1.985v-4.802l-2.4-6.755h2.017l1.393,4.402h0.032l1.328-4.402h2.017l-2.4,6.755
			V107.717z"/>
		<path style="fill:#FFFFFF;" d="M145.639,107.717h-1.921l2.129-11.557h2.465l2.129,11.557h-1.921l-0.352-2.561h-2.178
			L145.639,107.717z M146.279,103.427h1.601l-0.784-4.962h-0.031L146.279,103.427z"/>
		<path style="fill:#FFFFFF;" d="M151.75,107.717V96.16h1.841l2.417,6.611h0.031V96.16h1.793v11.557h-1.729l-2.529-7.219h-0.032
			v7.219H151.75z"/>
		<path style="fill:#FFFFFF;" d="M159.911,96.16h2.945c2.049,0,3.137,1.121,3.137,3.489v4.578c0,2.369-1.088,3.489-3.137,3.489
			h-2.945V96.16z M161.895,106.084h0.688c1.057,0,1.425-0.4,1.425-1.617V99.41c0-1.217-0.368-1.617-1.425-1.617h-0.688V106.084z"/>
		<path style="fill:#FFFFFF;" d="M171.782,107.717V96.16h5.538v1.729h-3.553v2.978h2.656v1.729h-2.656v5.122H171.782z"/>
		<path style="fill:#FFFFFF;" d="M179.045,107.717V96.16h5.314v1.729h-3.329v2.978h2.561v1.729h-2.561v3.394h3.553v1.729H179.045z"
			/>
		<path style="fill:#FFFFFF;" d="M186.309,107.717V96.16h5.313v1.729h-3.329v2.978h2.562v1.729h-2.562v3.394h3.554v1.729H186.309z"
			/>
		<path style="fill:#FFFFFF;" d="M193.476,107.717V96.16h1.985v9.828h3.121v1.729H193.476z"/>
		<path style="fill:#FFFFFF;" d="M200.228,107.717V96.16h1.985v11.557H200.228z"/>
		<path style="fill:#FFFFFF;" d="M204.564,107.717V96.16h1.841l2.417,6.611h0.032V96.16h1.793v11.557h-1.729l-2.528-7.219h-0.032
			v7.219H204.564z"/>
		<path style="fill:#FFFFFF;" d="M215.461,101.858h3.249v5.858h-0.96l-0.368-0.864c-0.593,0.704-1.072,1.024-2.001,1.024
			c-1.568,0-2.657-1.121-2.657-2.961v-5.954c0-1.633,0.961-2.961,2.913-2.961c1.985,0,2.978,1.44,2.978,3.169v0.736h-1.889
			c0-1.729-0.353-2.177-1.137-2.177c-0.48,0-0.88,0.289-0.88,1.265v5.938c0,0.736,0.239,1.216,0.928,1.216
			c0.801,0,1.089-0.448,1.089-1.601v-1.12h-1.265V101.858z"/>
		<path style="fill:#FFFFFF;" d="M220.756,107.717v-1.889h1.889v1.889H220.756z"/>
		<path style="fill:#FFFFFF;" d="M226.661,98.049l-1.104,1.985h-0.849l0.785-1.985h-0.721V96.16h1.889V98.049z M229.622,98.049
			l-1.104,1.985h-0.848l0.784-1.985h-0.721V96.16h1.889V98.049z"/>
		<path style="fill:#FFF8DA;" d="M135.66,121.058h1.463l-1.811,8.659h-1.487l-1.812-8.659h1.464l1.079,6.009h0.023L135.66,121.058z"
			/>
		<path style="fill:#FFF8DA;" d="M138.876,129.717h-1.439l1.596-8.659h1.847l1.595,8.659h-1.439l-0.264-1.919h-1.631
			L138.876,129.717z M139.356,126.502h1.199l-0.588-3.718h-0.023L139.356,126.502z"/>
		<path style="fill:#FFF8DA;" d="M144.887,129.717h-1.486v-8.659h2.087c1.667,0,2.519,0.708,2.519,2.555
			c0,1.391-0.54,1.955-1.044,2.183l1.26,3.922h-1.512l-1.056-3.586c-0.191,0.024-0.503,0.036-0.768,0.036V129.717z M144.887,124.943
			h0.528c0.804,0,1.104-0.3,1.104-1.331c0-1.032-0.3-1.332-1.104-1.332h-0.528V124.943z"/>
		<path style="fill:#FFF8DA;" d="M149.665,129.717v-8.659h1.487v8.659H149.665z"/>
		<path style="fill:#FFF8DA;" d="M152.857,129.717v-8.659h3.981v1.295h-2.495v2.23h1.919v1.295h-1.919v2.542h2.663v1.295H152.857z"
			/>
		<path style="fill:#FFF8DA;" d="M159.107,122.353h-1.438v-1.295h4.365v1.295h-1.439v7.364h-1.487V122.353z"/>
		<path style="fill:#FFF8DA;" d="M165.659,129.717h-1.487v-3.598l-1.799-5.061h1.511l1.043,3.298h0.024l0.995-3.298h1.512
			l-1.799,5.061V129.717z"/>
	</g>
</g>
<g id="nyt_x5F_exporter_x5F_info" style="display:none;">
</g>
</svg>
