<?xml version="1.0" encoding="iso-8859-1"?>
<!-- Generator: Adobe Illustrator 17.1.0, SVG Export Plug-In . SVG Version: 6.00 Build 0)  -->
<!DOCTYPE svg PUBLIC "-//W3C//DTD SVG 1.1//EN" "http://www.w3.org/Graphics/SVG/1.1/DTD/svg11.dtd">
<svg version="1.1" xmlns="http://www.w3.org/2000/svg" xmlns:xlink="http://www.w3.org/1999/xlink" x="0px" y="0px"
	 viewBox="0 0 300 187.812" style="enable-background:new 0 0 300 187.812;" xml:space="preserve">
<g id="Layer_1">
	<g>
		<path style="fill:#FFFFFF;" d="M11.607,6.548l1.104-1.985h0.848l-0.784,1.985h0.721v1.889h-1.889V6.548z M14.568,6.548
			l1.104-1.985h0.849l-0.785,1.985h0.721v1.889h-1.889V6.548z"/>
		<path style="fill:#FFFFFF;" d="M20.695,16.28h-1.984V4.724h2.785c2.225,0,3.361,0.944,3.361,3.409
			c0,1.857-0.721,2.609-1.393,2.914l1.681,5.234h-2.018l-1.408-4.786c-0.256,0.032-0.672,0.048-1.024,0.048V16.28z M20.695,9.91
			h0.704c1.072,0,1.473-0.4,1.473-1.777c0-1.376-0.4-1.776-1.473-1.776h-0.704V9.91z"/>
		<path style="fill:#FFFFFF;" d="M26.87,7.525c0-1.633,0.961-2.961,3.041-2.961c2.081,0,3.042,1.329,3.042,2.961v5.954
			c0,1.633-0.961,2.961-3.042,2.961c-2.08,0-3.041-1.329-3.041-2.961V7.525z M28.855,13.431c0,0.864,0.256,1.28,1.056,1.28
			c0.801,0,1.057-0.416,1.057-1.28V7.573c0-0.864-0.256-1.281-1.057-1.281c-0.8,0-1.056,0.417-1.056,1.281V13.431z"/>
		<path style="fill:#FFFFFF;" d="M35.03,4.724h2.945c2.129,0,3.073,1.088,3.073,3.057c0,0.993-0.416,2.033-1.377,2.417
			c1.009,0.448,1.602,1.249,1.602,2.737c0,1.905-0.849,3.345-3.105,3.345H35.03V4.724z M37.016,9.461h0.72
			c0.753,0,1.329-0.512,1.329-1.473c0-1.072-0.417-1.632-1.297-1.632h-0.752V9.461z M37.016,14.647h0.832
			c1.057,0,1.44-0.608,1.44-1.776c0-1.185-0.448-1.777-1.633-1.777h-0.64V14.647z"/>
		<path style="fill:#FFFFFF;" d="M43.19,16.28V4.724h5.314v1.729h-3.329V9.43h2.561v1.729h-2.561v3.394h3.553v1.729H43.19z"/>
		<path style="fill:#FFFFFF;" d="M52.438,16.28h-1.984V4.724h2.785c2.225,0,3.361,0.944,3.361,3.409
			c0,1.857-0.721,2.609-1.393,2.914l1.681,5.234h-2.018l-1.408-4.786c-0.256,0.032-0.672,0.048-1.024,0.048V16.28z M52.438,9.91
			h0.704c1.072,0,1.473-0.4,1.473-1.777c0-1.376-0.4-1.776-1.473-1.776h-0.704V9.91z"/>
		<path style="fill:#FFFFFF;" d="M59.767,6.452h-1.921V4.724h5.826v1.729h-1.921v9.828h-1.984V6.452z"/>
		<path style="fill:#FFFFFF;" d="M68.709,16.28V4.724h2.85c2.448,0,3.585,0.944,3.585,3.409c0,2.465-1.137,3.41-3.585,3.41h-0.864
			v4.738H68.709z M70.694,9.91h0.768c1.297,0,1.697-0.4,1.697-1.777c0-1.376-0.4-1.776-1.697-1.776h-0.768V9.91z"/>
		<path style="fill:#FFFFFF;" d="M78.021,16.28h-1.921l2.129-11.557h2.466l2.128,11.557h-1.92l-0.353-2.561h-2.177L78.021,16.28z
			 M78.662,11.991h1.601l-0.784-4.962h-0.032L78.662,11.991z"/>
		<path style="fill:#FFFFFF;" d="M85.285,6.452h-1.921V4.724h5.827v1.729h-1.921v9.828h-1.985V6.452z"/>
		<path style="fill:#FFFFFF;" d="M91.669,6.452h-1.921V4.724h5.826v1.729h-1.921v9.828h-1.984V6.452z"/>
		<path style="fill:#FFFFFF;" d="M97.172,16.28V4.724h1.985V16.28H97.172z"/>
		<path style="fill:#FFFFFF;" d="M101.509,16.28V4.724h1.841l2.417,6.611h0.031V4.724h1.793V16.28h-1.729l-2.529-7.219h-0.032v7.219
			H101.509z"/>
		<path style="fill:#FFFFFF;" d="M113.286,7.573c-0.08-0.992-0.608-1.281-1.057-1.281c-0.64,0-0.992,0.417-0.992,1.137
			c0,1.969,4.033,2.913,4.033,6.05c0,1.905-1.28,2.961-3.137,2.961c-1.841,0-2.897-1.473-2.978-3.201l1.889-0.272
			c0.08,1.168,0.545,1.745,1.185,1.745c0.688,0,1.152-0.368,1.152-1.056c0-2.289-4.033-2.897-4.033-6.21
			c0-1.841,1.12-2.881,3.073-2.881c1.616,0,2.577,1.168,2.753,2.801L113.286,7.573z"/>
		<path style="fill:#FFFFFF;" d="M116.932,7.525c0-1.633,0.961-2.961,3.041-2.961c2.081,0,3.042,1.329,3.042,2.961v5.954
			c0,1.633-0.961,2.961-3.042,2.961c-2.08,0-3.041-1.329-3.041-2.961V7.525z M118.917,13.431c0,0.864,0.256,1.28,1.056,1.28
			c0.801,0,1.057-0.416,1.057-1.28V7.573c0-0.864-0.256-1.281-1.057-1.281c-0.8,0-1.056,0.417-1.056,1.281V13.431z"/>
		<path style="fill:#FFFFFF;" d="M125.092,16.28V4.724h1.841l2.417,6.611h0.032V4.724h1.793V16.28h-1.729l-2.528-7.219h-0.032v7.219
			H125.092z"/>
		<path style="fill:#FFFFFF;" d="M135.013,6.612l-1.104,1.985h-0.849l0.785-1.985h-0.721V4.724h1.889V6.612z"/>
		<path style="fill:#FFFFFF;" d="M140.581,7.573c-0.08-0.992-0.608-1.281-1.057-1.281c-0.64,0-0.992,0.417-0.992,1.137
			c0,1.969,4.033,2.913,4.033,6.05c0,1.905-1.28,2.961-3.137,2.961c-1.841,0-2.897-1.473-2.978-3.201l1.889-0.272
			c0.08,1.168,0.545,1.745,1.185,1.745c0.688,0,1.152-0.368,1.152-1.056c0-2.289-4.033-2.897-4.033-6.21
			c0-1.841,1.12-2.881,3.073-2.881c1.616,0,2.577,1.168,2.753,2.801L140.581,7.573z"/>
		<path style="fill:#FFFFFF;" d="M147.939,16.28V4.724h2.849c2.449,0,3.586,0.944,3.586,3.409c0,2.465-1.137,3.41-3.586,3.41h-0.864
			v4.738H147.939z M149.924,9.91h0.769c1.297,0,1.696-0.4,1.696-1.777c0-1.376-0.399-1.776-1.696-1.776h-0.769V9.91z"/>
		<path style="fill:#FFFFFF;" d="M156.099,16.28V4.724h5.314v1.729h-3.329V9.43h2.561v1.729h-2.561v3.394h3.553v1.729H156.099z"/>
		<path style="fill:#FFFFFF;" d="M165.348,16.28h-1.985V4.724h2.785c2.225,0,3.361,0.944,3.361,3.409
			c0,1.857-0.72,2.609-1.393,2.914l1.681,5.234h-2.017l-1.408-4.786c-0.257,0.032-0.673,0.048-1.024,0.048V16.28z M165.348,9.91
			h0.704c1.072,0,1.473-0.4,1.473-1.777c0-1.376-0.4-1.776-1.473-1.776h-0.704V9.91z"/>
		<path style="fill:#FFFFFF;" d="M171.522,16.28V4.724h5.538v1.729h-3.553V9.43h2.656v1.729h-2.656v5.122H171.522z"/>
		<path style="fill:#FFFFFF;" d="M178.786,7.525c0-1.633,0.96-2.961,3.041-2.961s3.041,1.329,3.041,2.961v5.954
			c0,1.633-0.96,2.961-3.041,2.961s-3.041-1.329-3.041-2.961V7.525z M180.771,13.431c0,0.864,0.256,1.28,1.057,1.28
			c0.8,0,1.057-0.416,1.057-1.28V7.573c0-0.864-0.257-1.281-1.057-1.281c-0.801,0-1.057,0.417-1.057,1.281V13.431z"/>
		<path style="fill:#FFFFFF;" d="M188.931,16.28h-1.984V4.724h2.785c2.225,0,3.361,0.944,3.361,3.409
			c0,1.857-0.721,2.609-1.393,2.914l1.681,5.234h-2.018l-1.408-4.786c-0.256,0.032-0.672,0.048-1.024,0.048V16.28z M188.931,9.91
			h0.704c1.072,0,1.473-0.4,1.473-1.777c0-1.376-0.4-1.776-1.473-1.776h-0.704V9.91z"/>
		<path style="fill:#FFFFFF;" d="M203.062,4.724V16.28h-1.729V7.252h-0.032l-1.793,9.028h-0.96l-1.793-9.028h-0.032v9.028h-1.729
			V4.724h2.609l1.408,6.755h0.032l1.408-6.755H203.062z"/>
		<path style="fill:#FFFFFF;" d="M206.194,16.28h-1.921l2.129-11.557h2.465l2.129,11.557h-1.921l-0.352-2.561h-2.178L206.194,16.28z
			 M206.834,11.991h1.601l-0.784-4.962h-0.031L206.834,11.991z"/>
		<path style="fill:#FFFFFF;" d="M212.306,16.28V4.724h1.841l2.417,6.611h0.032V4.724h1.793V16.28h-1.729l-2.528-7.219h-0.032v7.219
			H212.306z"/>
		<path style="fill:#FFFFFF;" d="M224.468,8.581V7.684c0-0.976-0.448-1.393-0.961-1.393c-0.8,0-1.056,0.417-1.056,1.281v5.858
			c0,0.864,0.256,1.28,1.056,1.28c0.721,0,0.961-0.416,0.961-1.168V12.15h1.984v1.329c0,1.633-0.96,2.961-2.945,2.961
			c-2.08,0-3.041-1.329-3.041-2.961V7.525c0-1.633,0.961-2.961,3.041-2.961c1.985,0,2.945,1.44,2.945,3.169v0.848H224.468z"/>
		<path style="fill:#FFFFFF;" d="M228.626,16.28V4.724h5.313v1.729h-3.329V9.43h2.562v1.729h-2.562v3.394h3.554v1.729H228.626z"/>
		<path style="fill:#FFFFFF;" d="M241.586,16.28h-1.984V4.724h2.785c2.225,0,3.361,0.944,3.361,3.409
			c0,1.857-0.721,2.609-1.393,2.914l1.681,5.234h-2.018l-1.408-4.786c-0.256,0.032-0.672,0.048-1.024,0.048V16.28z M241.586,9.91
			h0.704c1.072,0,1.473-0.4,1.473-1.777c0-1.376-0.4-1.776-1.473-1.776h-0.704V9.91z"/>
		<path style="fill:#FFFFFF;" d="M247.761,16.28V4.724h5.314v1.729h-3.329V9.43h2.561v1.729h-2.561v3.394h3.553v1.729H247.761z"/>
		<path style="fill:#FFFFFF;" d="M259.074,4.724h1.953L258.61,16.28h-1.985l-2.417-11.557h1.953l1.44,8.019h0.032L259.074,4.724z"/>
		<path style="fill:#FFFFFF;" d="M262.288,16.28V4.724h5.314v1.729h-3.329V9.43h2.561v1.729h-2.561v3.394h3.553v1.729H262.288z"/>
		<path style="fill:#FFFFFF;" d="M270.704,16.28h-1.921l2.129-11.557h2.465l2.129,11.557h-1.921l-0.352-2.561h-2.178L270.704,16.28z
			 M271.344,11.991h1.601l-0.784-4.962h-0.031L271.344,11.991z"/>
		<path style="fill:#FFFFFF;" d="M276.719,16.28V4.724h1.985v9.828h3.121v1.729H276.719z"/>
		<path style="fill:#FFFFFF;" d="M286.816,7.573c-0.08-0.992-0.608-1.281-1.057-1.281c-0.64,0-0.992,0.417-0.992,1.137
			c0,1.969,4.033,2.913,4.033,6.05c0,1.905-1.28,2.961-3.137,2.961c-1.841,0-2.897-1.473-2.978-3.201l1.889-0.272
			c0.08,1.168,0.545,1.745,1.185,1.745c0.688,0,1.152-0.368,1.152-1.056c0-2.289-4.033-2.897-4.033-6.21
			c0-1.841,1.12-2.881,3.073-2.881c1.616,0,2.577,1.168,2.753,2.801L286.816,7.573z"/>
		<path style="fill:#FFFFFF;" d="M11.199,24.724h1.985v8.724c0,0.848,0.336,1.264,1.056,1.264c0.721,0,1.057-0.416,1.057-1.264
			v-8.724h1.985v8.644c0,1.985-1.153,3.073-3.042,3.073s-3.041-1.088-3.041-3.073V24.724z"/>
		<path style="fill:#FFFFFF;" d="M19.359,36.28V24.724H21.2l2.417,6.611h0.032v-6.611h1.793V36.28h-1.729l-2.528-7.219h-0.032v7.219
			H19.359z"/>
		<path style="fill:#FFFFFF;" d="M28.672,26.452h-1.921v-1.729h5.826v1.729h-1.921v9.828h-1.984V26.452z"/>
		<path style="fill:#FFFFFF;" d="M33.903,27.525c0-1.633,0.961-2.961,3.041-2.961c2.081,0,3.042,1.329,3.042,2.961v5.954
			c0,1.633-0.961,2.961-3.042,2.961c-2.08,0-3.041-1.329-3.041-2.961V27.525z M35.889,33.431c0,0.864,0.256,1.28,1.056,1.28
			c0.801,0,1.057-0.416,1.057-1.28v-5.858c0-0.864-0.256-1.281-1.057-1.281c-0.8,0-1.056,0.417-1.056,1.281V33.431z"/>
		<path style="fill:#FFFFFF;" d="M41.968,36.28V24.724h1.984v9.828h3.121v1.729H41.968z"/>
		<path style="fill:#FFFFFF;" d="M48.447,24.724h2.945c2.049,0,3.137,1.121,3.137,3.489v4.578c0,2.369-1.088,3.489-3.137,3.489
			h-2.945V24.724z M50.432,34.647h0.688c1.057,0,1.425-0.4,1.425-1.617v-5.058c0-1.217-0.368-1.617-1.425-1.617h-0.688V34.647z"/>
		<path style="fill:#FFFFFF;" d="M60.319,24.724h2.945c2.049,0,3.137,1.121,3.137,3.489v4.578c0,2.369-1.088,3.489-3.137,3.489
			h-2.945V24.724z M62.304,34.647h0.688c1.057,0,1.425-0.4,1.425-1.617v-5.058c0-1.217-0.368-1.617-1.425-1.617h-0.688V34.647z"/>
		<path style="fill:#FFFFFF;" d="M68.479,36.28V24.724h5.314v1.729h-3.329v2.978h2.561v1.729h-2.561v3.394h3.553v1.729H68.479z"/>
		<path style="fill:#FFFFFF;" d="M75.742,36.28V24.724h2.85c2.448,0,3.585,0.944,3.585,3.409c0,2.465-1.137,3.41-3.585,3.41h-0.864
			v4.738H75.742z M77.728,29.91h0.768c1.297,0,1.697-0.4,1.697-1.777c0-1.376-0.4-1.776-1.697-1.776h-0.768V29.91z"/>
		<path style="fill:#FFFFFF;" d="M85.055,26.452h-1.921v-1.729h5.827v1.729H87.04v9.828h-1.985V26.452z"/>
		<path style="fill:#FFFFFF;" d="M90.286,36.28V24.724h1.984v4.706h2.113v-4.706h1.984V36.28h-1.984v-5.122h-2.113v5.122H90.286z"/>
		<path style="fill:#FFFFFF;" d="M102.063,27.573c-0.08-0.992-0.608-1.281-1.057-1.281c-0.64,0-0.992,0.417-0.992,1.137
			c0,1.969,4.033,2.913,4.033,6.05c0,1.905-1.28,2.961-3.137,2.961c-1.841,0-2.897-1.473-2.978-3.201l1.889-0.272
			c0.08,1.168,0.545,1.745,1.185,1.745c0.688,0,1.152-0.368,1.152-1.056c0-2.289-4.033-2.897-4.033-6.21
			c0-1.841,1.12-2.881,3.073-2.881c1.616,0,2.577,1.168,2.753,2.801L102.063,27.573z"/>
		<path style="fill:#FFFFFF;" d="M109.422,27.525c0-1.633,0.96-2.961,3.041-2.961s3.041,1.329,3.041,2.961v5.954
			c0,1.633-0.96,2.961-3.041,2.961s-3.041-1.329-3.041-2.961V27.525z M111.406,33.431c0,0.864,0.256,1.28,1.057,1.28
			c0.8,0,1.057-0.416,1.057-1.28v-5.858c0-0.864-0.257-1.281-1.057-1.281c-0.801,0-1.057,0.417-1.057,1.281V33.431z"/>
		<path style="fill:#FFFFFF;" d="M117.581,36.28V24.724h5.538v1.729h-3.553v2.978h2.656v1.729h-2.656v5.122H117.581z"/>
		<path style="fill:#FFFFFF;" d="M132.174,27.573c-0.079-0.992-0.607-1.281-1.056-1.281c-0.641,0-0.993,0.417-0.993,1.137
			c0,1.969,4.034,2.913,4.034,6.05c0,1.905-1.28,2.961-3.138,2.961c-1.841,0-2.896-1.473-2.977-3.201l1.889-0.272
			c0.08,1.168,0.544,1.745,1.185,1.745c0.688,0,1.152-0.368,1.152-1.056c0-2.289-4.034-2.897-4.034-6.21
			c0-1.841,1.121-2.881,3.073-2.881c1.617,0,2.577,1.168,2.754,2.801L132.174,27.573z"/>
		<path style="fill:#FFFFFF;" d="M135.82,36.28V24.724h5.313v1.729h-3.329v2.978h2.562v1.729h-2.562v3.394h3.554v1.729H135.82z"/>
		<path style="fill:#FFFFFF;" d="M143.084,36.28V24.724h1.841l2.417,6.611h0.031v-6.611h1.793V36.28h-1.729l-2.529-7.219h-0.032
			v7.219H143.084z"/>
		<path style="fill:#FFFFFF;" d="M154.861,27.573c-0.08-0.992-0.608-1.281-1.057-1.281c-0.64,0-0.992,0.417-0.992,1.137
			c0,1.969,4.033,2.913,4.033,6.05c0,1.905-1.28,2.961-3.137,2.961c-1.841,0-2.897-1.473-2.978-3.201l1.889-0.272
			c0.08,1.168,0.545,1.745,1.185,1.745c0.688,0,1.152-0.368,1.152-1.056c0-2.289-4.033-2.897-4.033-6.21
			c0-1.841,1.12-2.881,3.073-2.881c1.616,0,2.577,1.168,2.753,2.801L154.861,27.573z"/>
		<path style="fill:#FFFFFF;" d="M158.779,36.28V24.724h1.984V36.28H158.779z"/>
		<path style="fill:#FFFFFF;" d="M164.268,26.452h-1.921v-1.729h5.827v1.729h-1.921v9.828h-1.985V26.452z"/>
		<path style="fill:#FFFFFF;" d="M169.771,36.28V24.724h1.984V36.28H169.771z"/>
		<path style="fill:#FFFFFF;" d="M178.157,24.724h1.952l-2.417,11.557h-1.984l-2.417-11.557h1.952l1.441,8.019h0.031L178.157,24.724
			z"/>
		<path style="fill:#FFFFFF;" d="M181.643,36.28V24.724h1.985V36.28H181.643z"/>
		<path style="fill:#FFFFFF;" d="M187.132,26.452h-1.921v-1.729h5.826v1.729h-1.921v9.828h-1.984V26.452z"/>
		<path style="fill:#FFFFFF;" d="M195.948,36.28h-1.985v-4.802l-2.4-6.755h2.017l1.393,4.402h0.032l1.328-4.402h2.017l-2.4,6.755
			V36.28z"/>
		<path style="fill:#FFFFFF;" d="M204.49,36.28h-1.921l2.129-11.557h2.466l2.128,11.557h-1.92l-0.353-2.561h-2.177L204.49,36.28z
			 M205.131,31.991h1.601l-0.784-4.962h-0.032L205.131,31.991z"/>
		<path style="fill:#FFFFFF;" d="M210.602,36.28V24.724h1.841l2.417,6.611h0.031v-6.611h1.793V36.28h-1.729l-2.529-7.219h-0.032
			v7.219H210.602z"/>
		<path style="fill:#FFFFFF;" d="M218.762,24.724h2.945c2.049,0,3.137,1.121,3.137,3.489v4.578c0,2.369-1.088,3.489-3.137,3.489
			h-2.945V24.724z M220.746,34.647h0.688c1.057,0,1.425-0.4,1.425-1.617v-5.058c0-1.217-0.368-1.617-1.425-1.617h-0.688V34.647z"/>
		<path style="fill:#FFFFFF;" d="M230.633,36.28V24.724h5.538v1.729h-3.553v2.978h2.656v1.729h-2.656v5.122H230.633z"/>
		<path style="fill:#FFFFFF;" d="M237.896,36.28V24.724h5.314v1.729h-3.329v2.978h2.561v1.729h-2.561v3.394h3.553v1.729H237.896z"/>
		<path style="fill:#FFFFFF;" d="M245.16,36.28V24.724h5.314v1.729h-3.329v2.978h2.561v1.729h-2.561v3.394h3.553v1.729H245.16z"/>
		<path style="fill:#FFFFFF;" d="M252.327,36.28V24.724h1.985v9.828h3.121v1.729H252.327z"/>
		<path style="fill:#FFFFFF;" d="M259.079,36.28V24.724h1.985V36.28H259.079z"/>
		<path style="fill:#FFFFFF;" d="M263.416,36.28V24.724h1.841l2.417,6.611h0.031v-6.611h1.793V36.28h-1.729l-2.529-7.219h-0.032
			v7.219H263.416z"/>
		<path style="fill:#FFFFFF;" d="M274.312,30.422h3.25v5.858h-0.961l-0.368-0.864c-0.592,0.704-1.072,1.024-2,1.024
			c-1.569,0-2.657-1.121-2.657-2.961v-5.954c0-1.633,0.96-2.961,2.913-2.961c1.984,0,2.977,1.44,2.977,3.169v0.736h-1.889
			c0-1.729-0.352-2.177-1.136-2.177c-0.48,0-0.881,0.289-0.881,1.265v5.938c0,0.736,0.24,1.216,0.929,1.216
			c0.8,0,1.088-0.448,1.088-1.601v-1.12h-1.265V30.422z"/>
		<path style="fill:#FFFFFF;" d="M279.607,36.28v-1.889h1.889v1.889H279.607z"/>
		<path style="fill:#FFFFFF;" d="M285.513,26.612l-1.104,1.985h-0.849l0.784-1.985h-0.721v-1.889h1.89V26.612z M288.474,26.612
			l-1.104,1.985h-0.849l0.784-1.985h-0.72v-1.889h1.889V26.612z"/>
		<path style="fill:#FFF8DA;" d="M135.833,49.621h1.463l-1.811,8.659h-1.487l-1.812-8.659h1.464l1.079,6.009h0.023L135.833,49.621z"
			/>
		<path style="fill:#FFF8DA;" d="M139.05,58.28h-1.439l1.596-8.659h1.847l1.595,8.659h-1.439l-0.264-1.919h-1.631L139.05,58.28z
			 M139.529,55.066h1.199l-0.588-3.718h-0.023L139.529,55.066z"/>
		<path style="fill:#FFF8DA;" d="M145.061,58.28h-1.486v-8.659h2.087c1.667,0,2.519,0.708,2.519,2.555
			c0,1.391-0.54,1.955-1.044,2.183l1.26,3.922h-1.512l-1.056-3.586c-0.191,0.024-0.503,0.036-0.768,0.036V58.28z M145.061,53.507
			h0.528c0.804,0,1.104-0.3,1.104-1.331c0-1.032-0.3-1.332-1.104-1.332h-0.528V53.507z"/>
		<path style="fill:#FFF8DA;" d="M149.838,58.28v-8.659h1.487v8.659H149.838z"/>
		<path style="fill:#FFF8DA;" d="M153.03,58.28v-8.659h3.981v1.295h-2.495v2.23h1.919v1.295h-1.919v2.542h2.663v1.295H153.03z"/>
		<path style="fill:#FFF8DA;" d="M159.28,50.916h-1.438v-1.295h4.365v1.295h-1.439v7.364h-1.487V50.916z"/>
		<path style="fill:#FFF8DA;" d="M165.832,58.28h-1.487v-3.598l-1.799-5.061h1.511l1.043,3.298h0.024l0.995-3.298h1.512
			l-1.799,5.061V58.28z"/>
	</g>
</g>
<g id="nyt_x5F_exporter_x5F_info" style="display:none;">
</g>
</svg>
